G04 MADE WITH FRITZING*
G04 WWW.FRITZING.ORG*
G04 DOUBLE SIDED*
G04 HOLES PLATED*
G04 CONTOUR ON CENTER OF CONTOUR VECTOR*
%ASAXBY*%
%FSLAX23Y23*%
%MOIN*%
%OFA0B0*%
%SFA1.0B1.0*%
%ADD10C,0.079370*%
%ADD11R,0.001000X0.001000*%
%LNCOPPER1*%
G90*
G70*
G54D10*
X2565Y100D03*
X426Y3576D03*
X2192Y3575D03*
X639Y3688D03*
X1978Y3693D03*
X73Y101D03*
G54D11*
X364Y3772D02*
X2257Y3772D01*
X364Y3771D02*
X2257Y3771D01*
X364Y3770D02*
X2257Y3770D01*
X364Y3769D02*
X2257Y3769D01*
X364Y3768D02*
X2257Y3768D01*
X364Y3767D02*
X2258Y3767D01*
X364Y3766D02*
X2258Y3766D01*
X364Y3765D02*
X2258Y3765D01*
X363Y3764D02*
X2258Y3764D01*
X363Y3763D02*
X2258Y3763D01*
X363Y3762D02*
X2258Y3762D01*
X363Y3761D02*
X2258Y3761D01*
X363Y3760D02*
X2258Y3760D01*
X363Y3759D02*
X2258Y3759D01*
X363Y3758D02*
X2258Y3758D01*
X363Y3757D02*
X2258Y3757D01*
X363Y3756D02*
X2259Y3756D01*
X363Y3755D02*
X2259Y3755D01*
X362Y3754D02*
X2259Y3754D01*
X362Y3753D02*
X2259Y3753D01*
X362Y3752D02*
X2259Y3752D01*
X362Y3751D02*
X2259Y3751D01*
X362Y3750D02*
X2259Y3750D01*
X362Y3749D02*
X2259Y3749D01*
X362Y3748D02*
X2259Y3748D01*
X362Y3747D02*
X2259Y3747D01*
X362Y3746D02*
X2260Y3746D01*
X362Y3745D02*
X2260Y3745D01*
X362Y3744D02*
X2260Y3744D01*
X361Y3743D02*
X2260Y3743D01*
X361Y3742D02*
X2260Y3742D01*
X361Y3741D02*
X2260Y3741D01*
X361Y3740D02*
X2260Y3740D01*
X361Y3739D02*
X2260Y3739D01*
X361Y3738D02*
X2260Y3738D01*
X361Y3737D02*
X2260Y3737D01*
X361Y3736D02*
X2261Y3736D01*
X361Y3735D02*
X2261Y3735D01*
X361Y3734D02*
X2261Y3734D01*
X360Y3733D02*
X2261Y3733D01*
X360Y3732D02*
X2261Y3732D01*
X360Y3731D02*
X2261Y3731D01*
X360Y3730D02*
X2261Y3730D01*
X360Y3729D02*
X2261Y3729D01*
X360Y3728D02*
X2261Y3728D01*
X360Y3727D02*
X2261Y3727D01*
X360Y3726D02*
X2261Y3726D01*
X360Y3725D02*
X2262Y3725D01*
X360Y3724D02*
X2262Y3724D01*
X359Y3723D02*
X2262Y3723D01*
X359Y3722D02*
X2262Y3722D01*
X359Y3721D02*
X2262Y3721D01*
X359Y3720D02*
X2262Y3720D01*
X359Y3719D02*
X2262Y3719D01*
X359Y3718D02*
X2262Y3718D01*
X359Y3717D02*
X2262Y3717D01*
X359Y3716D02*
X2262Y3716D01*
X359Y3715D02*
X2263Y3715D01*
X359Y3714D02*
X2263Y3714D01*
X358Y3713D02*
X2263Y3713D01*
X358Y3712D02*
X2263Y3712D01*
X358Y3711D02*
X2263Y3711D01*
X358Y3710D02*
X2263Y3710D01*
X358Y3709D02*
X2263Y3709D01*
X358Y3708D02*
X2263Y3708D01*
X358Y3707D02*
X2263Y3707D01*
X358Y3706D02*
X2263Y3706D01*
X358Y3705D02*
X2264Y3705D01*
X358Y3704D02*
X2264Y3704D01*
X358Y3703D02*
X2264Y3703D01*
X357Y3702D02*
X2264Y3702D01*
X357Y3701D02*
X2264Y3701D01*
X357Y3700D02*
X2264Y3700D01*
X357Y3699D02*
X2264Y3699D01*
X357Y3698D02*
X2264Y3698D01*
X357Y3697D02*
X2264Y3697D01*
X357Y3696D02*
X2264Y3696D01*
X357Y3695D02*
X2264Y3695D01*
X357Y3694D02*
X2265Y3694D01*
X357Y3693D02*
X2265Y3693D01*
X356Y3692D02*
X2265Y3692D01*
X356Y3691D02*
X2265Y3691D01*
X356Y3690D02*
X2265Y3690D01*
X356Y3689D02*
X2265Y3689D01*
X356Y3688D02*
X2265Y3688D01*
X356Y3687D02*
X2265Y3687D01*
X356Y3686D02*
X2265Y3686D01*
X356Y3685D02*
X2265Y3685D01*
X356Y3684D02*
X2266Y3684D01*
X356Y3683D02*
X2266Y3683D01*
X355Y3682D02*
X2266Y3682D01*
X355Y3681D02*
X2266Y3681D01*
X355Y3680D02*
X2266Y3680D01*
X355Y3679D02*
X2266Y3679D01*
X355Y3678D02*
X2266Y3678D01*
X355Y3677D02*
X2266Y3677D01*
X355Y3676D02*
X1322Y3676D01*
X1369Y3676D02*
X2266Y3676D01*
X355Y3675D02*
X1306Y3675D01*
X1384Y3675D02*
X2266Y3675D01*
X355Y3674D02*
X1296Y3674D01*
X1395Y3674D02*
X2266Y3674D01*
X355Y3673D02*
X1286Y3673D01*
X1404Y3673D02*
X2267Y3673D01*
X354Y3672D02*
X1279Y3672D01*
X1411Y3672D02*
X2267Y3672D01*
X354Y3671D02*
X1272Y3671D01*
X1418Y3671D02*
X2267Y3671D01*
X354Y3670D02*
X1266Y3670D01*
X1424Y3670D02*
X2267Y3670D01*
X354Y3669D02*
X1260Y3669D01*
X1430Y3669D02*
X2267Y3669D01*
X354Y3668D02*
X1255Y3668D01*
X1436Y3668D02*
X2267Y3668D01*
X354Y3667D02*
X1249Y3667D01*
X1441Y3667D02*
X2267Y3667D01*
X354Y3666D02*
X1245Y3666D01*
X1446Y3666D02*
X2267Y3666D01*
X354Y3665D02*
X1240Y3665D01*
X1450Y3665D02*
X2267Y3665D01*
X354Y3664D02*
X1236Y3664D01*
X1455Y3664D02*
X2267Y3664D01*
X354Y3663D02*
X1232Y3663D01*
X1459Y3663D02*
X2268Y3663D01*
X354Y3662D02*
X1228Y3662D01*
X1463Y3662D02*
X2268Y3662D01*
X353Y3661D02*
X1224Y3661D01*
X1467Y3661D02*
X2268Y3661D01*
X353Y3660D02*
X1220Y3660D01*
X1470Y3660D02*
X2268Y3660D01*
X353Y3659D02*
X1216Y3659D01*
X1474Y3659D02*
X2268Y3659D01*
X353Y3658D02*
X1213Y3658D01*
X1478Y3658D02*
X2268Y3658D01*
X353Y3657D02*
X1209Y3657D01*
X1481Y3657D02*
X2268Y3657D01*
X353Y3656D02*
X1206Y3656D01*
X1485Y3656D02*
X2268Y3656D01*
X353Y3655D02*
X1203Y3655D01*
X1488Y3655D02*
X2268Y3655D01*
X353Y3654D02*
X1199Y3654D01*
X1491Y3654D02*
X2268Y3654D01*
X353Y3653D02*
X1196Y3653D01*
X1494Y3653D02*
X2269Y3653D01*
X353Y3652D02*
X1194Y3652D01*
X1497Y3652D02*
X2269Y3652D01*
X352Y3651D02*
X1191Y3651D01*
X1500Y3651D02*
X2269Y3651D01*
X352Y3650D02*
X1188Y3650D01*
X1503Y3650D02*
X2269Y3650D01*
X352Y3649D02*
X1185Y3649D01*
X1506Y3649D02*
X2269Y3649D01*
X352Y3648D02*
X1182Y3648D01*
X1509Y3648D02*
X2269Y3648D01*
X352Y3647D02*
X1179Y3647D01*
X1511Y3647D02*
X2269Y3647D01*
X352Y3646D02*
X1177Y3646D01*
X1514Y3646D02*
X2269Y3646D01*
X352Y3645D02*
X1174Y3645D01*
X1517Y3645D02*
X2269Y3645D01*
X352Y3644D02*
X1171Y3644D01*
X1519Y3644D02*
X2269Y3644D01*
X352Y3643D02*
X1169Y3643D01*
X1522Y3643D02*
X2269Y3643D01*
X352Y3642D02*
X1166Y3642D01*
X1524Y3642D02*
X2270Y3642D01*
X351Y3641D02*
X1164Y3641D01*
X1527Y3641D02*
X2270Y3641D01*
X351Y3640D02*
X1161Y3640D01*
X1529Y3640D02*
X2270Y3640D01*
X351Y3639D02*
X1159Y3639D01*
X1532Y3639D02*
X2270Y3639D01*
X351Y3638D02*
X1157Y3638D01*
X1534Y3638D02*
X2270Y3638D01*
X351Y3637D02*
X1155Y3637D01*
X1536Y3637D02*
X2270Y3637D01*
X351Y3636D02*
X1152Y3636D01*
X1539Y3636D02*
X2270Y3636D01*
X351Y3635D02*
X1150Y3635D01*
X1541Y3635D02*
X2270Y3635D01*
X351Y3634D02*
X1148Y3634D01*
X1543Y3634D02*
X2270Y3634D01*
X351Y3633D02*
X1145Y3633D01*
X1545Y3633D02*
X2270Y3633D01*
X351Y3632D02*
X1143Y3632D01*
X1547Y3632D02*
X2271Y3632D01*
X351Y3631D02*
X1141Y3631D01*
X1550Y3631D02*
X2271Y3631D01*
X350Y3630D02*
X1139Y3630D01*
X1552Y3630D02*
X2271Y3630D01*
X350Y3629D02*
X1137Y3629D01*
X1554Y3629D02*
X2271Y3629D01*
X350Y3628D02*
X1135Y3628D01*
X1556Y3628D02*
X2271Y3628D01*
X350Y3627D02*
X1133Y3627D01*
X1558Y3627D02*
X2271Y3627D01*
X350Y3626D02*
X1131Y3626D01*
X1560Y3626D02*
X2271Y3626D01*
X350Y3625D02*
X1129Y3625D01*
X1562Y3625D02*
X2271Y3625D01*
X350Y3624D02*
X1127Y3624D01*
X1564Y3624D02*
X2271Y3624D01*
X350Y3623D02*
X1125Y3623D01*
X1566Y3623D02*
X2271Y3623D01*
X350Y3622D02*
X1123Y3622D01*
X1568Y3622D02*
X2271Y3622D01*
X350Y3621D02*
X1121Y3621D01*
X1570Y3621D02*
X2272Y3621D01*
X349Y3620D02*
X1119Y3620D01*
X1572Y3620D02*
X2272Y3620D01*
X349Y3619D02*
X1117Y3619D01*
X1573Y3619D02*
X2272Y3619D01*
X349Y3618D02*
X1116Y3618D01*
X1575Y3618D02*
X2272Y3618D01*
X349Y3617D02*
X1114Y3617D01*
X1577Y3617D02*
X2272Y3617D01*
X349Y3616D02*
X1112Y3616D01*
X1579Y3616D02*
X2272Y3616D01*
X349Y3615D02*
X1110Y3615D01*
X1581Y3615D02*
X2272Y3615D01*
X349Y3614D02*
X1109Y3614D01*
X1582Y3614D02*
X2272Y3614D01*
X349Y3613D02*
X1107Y3613D01*
X1584Y3613D02*
X2272Y3613D01*
X349Y3612D02*
X1105Y3612D01*
X1586Y3612D02*
X2272Y3612D01*
X349Y3611D02*
X1103Y3611D01*
X1588Y3611D02*
X2273Y3611D01*
X348Y3610D02*
X1102Y3610D01*
X1589Y3610D02*
X2273Y3610D01*
X348Y3609D02*
X1100Y3609D01*
X1591Y3609D02*
X2273Y3609D01*
X348Y3608D02*
X1098Y3608D01*
X1592Y3608D02*
X2273Y3608D01*
X348Y3607D02*
X1097Y3607D01*
X1594Y3607D02*
X2273Y3607D01*
X348Y3606D02*
X1095Y3606D01*
X1596Y3606D02*
X2273Y3606D01*
X348Y3605D02*
X1093Y3605D01*
X1597Y3605D02*
X2273Y3605D01*
X348Y3604D02*
X1092Y3604D01*
X1599Y3604D02*
X2273Y3604D01*
X348Y3603D02*
X1090Y3603D01*
X1601Y3603D02*
X2273Y3603D01*
X348Y3602D02*
X1089Y3602D01*
X1602Y3602D02*
X2273Y3602D01*
X348Y3601D02*
X1087Y3601D01*
X1604Y3601D02*
X2274Y3601D01*
X347Y3600D02*
X1085Y3600D01*
X1605Y3600D02*
X2274Y3600D01*
X347Y3599D02*
X1084Y3599D01*
X1607Y3599D02*
X2274Y3599D01*
X347Y3598D02*
X1082Y3598D01*
X1608Y3598D02*
X2274Y3598D01*
X347Y3597D02*
X1081Y3597D01*
X1610Y3597D02*
X2274Y3597D01*
X347Y3596D02*
X1079Y3596D01*
X1611Y3596D02*
X2274Y3596D01*
X347Y3595D02*
X1078Y3595D01*
X1613Y3595D02*
X2274Y3595D01*
X347Y3594D02*
X1077Y3594D01*
X1614Y3594D02*
X2274Y3594D01*
X347Y3593D02*
X1075Y3593D01*
X1616Y3593D02*
X2274Y3593D01*
X347Y3592D02*
X1074Y3592D01*
X1617Y3592D02*
X2274Y3592D01*
X347Y3591D02*
X1072Y3591D01*
X1619Y3591D02*
X2274Y3591D01*
X347Y3590D02*
X1071Y3590D01*
X1620Y3590D02*
X2275Y3590D01*
X346Y3589D02*
X1069Y3589D01*
X1622Y3589D02*
X2275Y3589D01*
X346Y3588D02*
X1068Y3588D01*
X1623Y3588D02*
X2275Y3588D01*
X346Y3587D02*
X1066Y3587D01*
X1624Y3587D02*
X2275Y3587D01*
X346Y3586D02*
X1065Y3586D01*
X1626Y3586D02*
X2275Y3586D01*
X346Y3585D02*
X1064Y3585D01*
X1627Y3585D02*
X2275Y3585D01*
X346Y3584D02*
X1062Y3584D01*
X1629Y3584D02*
X2275Y3584D01*
X346Y3583D02*
X1061Y3583D01*
X1630Y3583D02*
X2275Y3583D01*
X346Y3582D02*
X1060Y3582D01*
X1631Y3582D02*
X2275Y3582D01*
X346Y3581D02*
X1058Y3581D01*
X1633Y3581D02*
X2275Y3581D01*
X346Y3580D02*
X1057Y3580D01*
X1634Y3580D02*
X2276Y3580D01*
X345Y3579D02*
X1056Y3579D01*
X1635Y3579D02*
X2276Y3579D01*
X345Y3578D02*
X1054Y3578D01*
X1636Y3578D02*
X2276Y3578D01*
X345Y3577D02*
X1053Y3577D01*
X1638Y3577D02*
X2276Y3577D01*
X345Y3576D02*
X1052Y3576D01*
X1639Y3576D02*
X2276Y3576D01*
X345Y3575D02*
X1050Y3575D01*
X1640Y3575D02*
X2276Y3575D01*
X345Y3574D02*
X1049Y3574D01*
X1642Y3574D02*
X2276Y3574D01*
X345Y3573D02*
X1048Y3573D01*
X1643Y3573D02*
X2276Y3573D01*
X345Y3572D02*
X1047Y3572D01*
X1644Y3572D02*
X2276Y3572D01*
X345Y3571D02*
X1045Y3571D01*
X1645Y3571D02*
X2276Y3571D01*
X345Y3570D02*
X1044Y3570D01*
X1647Y3570D02*
X2276Y3570D01*
X344Y3569D02*
X1043Y3569D01*
X1648Y3569D02*
X2277Y3569D01*
X344Y3568D02*
X1042Y3568D01*
X1649Y3568D02*
X2277Y3568D01*
X344Y3567D02*
X1040Y3567D01*
X1650Y3567D02*
X2277Y3567D01*
X344Y3566D02*
X1039Y3566D01*
X1652Y3566D02*
X2277Y3566D01*
X344Y3565D02*
X1038Y3565D01*
X1653Y3565D02*
X2277Y3565D01*
X344Y3564D02*
X1037Y3564D01*
X1654Y3564D02*
X2277Y3564D01*
X344Y3563D02*
X1036Y3563D01*
X1655Y3563D02*
X2277Y3563D01*
X344Y3562D02*
X1035Y3562D01*
X1656Y3562D02*
X2277Y3562D01*
X344Y3561D02*
X1033Y3561D01*
X1658Y3561D02*
X2277Y3561D01*
X344Y3560D02*
X1032Y3560D01*
X1659Y3560D02*
X2277Y3560D01*
X343Y3559D02*
X1031Y3559D01*
X1660Y3559D02*
X2278Y3559D01*
X343Y3558D02*
X1030Y3558D01*
X1661Y3558D02*
X2278Y3558D01*
X343Y3557D02*
X1029Y3557D01*
X1662Y3557D02*
X2278Y3557D01*
X343Y3556D02*
X1028Y3556D01*
X1663Y3556D02*
X2278Y3556D01*
X343Y3555D02*
X1026Y3555D01*
X1664Y3555D02*
X2278Y3555D01*
X343Y3554D02*
X1025Y3554D01*
X1665Y3554D02*
X2278Y3554D01*
X343Y3553D02*
X1024Y3553D01*
X1667Y3553D02*
X2278Y3553D01*
X343Y3552D02*
X1023Y3552D01*
X1668Y3552D02*
X2278Y3552D01*
X343Y3551D02*
X1022Y3551D01*
X1669Y3551D02*
X2278Y3551D01*
X343Y3550D02*
X1021Y3550D01*
X1670Y3550D02*
X2278Y3550D01*
X343Y3549D02*
X1020Y3549D01*
X1671Y3549D02*
X2279Y3549D01*
X342Y3548D02*
X1019Y3548D01*
X1672Y3548D02*
X2279Y3548D01*
X342Y3547D02*
X1018Y3547D01*
X1673Y3547D02*
X2279Y3547D01*
X342Y3546D02*
X1017Y3546D01*
X1674Y3546D02*
X2279Y3546D01*
X342Y3545D02*
X1016Y3545D01*
X1675Y3545D02*
X2279Y3545D01*
X342Y3544D02*
X1014Y3544D01*
X1676Y3544D02*
X2279Y3544D01*
X342Y3543D02*
X1013Y3543D01*
X1677Y3543D02*
X2279Y3543D01*
X342Y3542D02*
X1012Y3542D01*
X1678Y3542D02*
X2279Y3542D01*
X342Y3541D02*
X1011Y3541D01*
X1679Y3541D02*
X2279Y3541D01*
X342Y3540D02*
X1010Y3540D01*
X1680Y3540D02*
X2279Y3540D01*
X342Y3539D02*
X1009Y3539D01*
X1322Y3539D02*
X1368Y3539D01*
X1682Y3539D02*
X2279Y3539D01*
X341Y3538D02*
X1008Y3538D01*
X1310Y3538D02*
X1379Y3538D01*
X1683Y3538D02*
X2280Y3538D01*
X341Y3537D02*
X1007Y3537D01*
X1302Y3537D02*
X1388Y3537D01*
X1684Y3537D02*
X2280Y3537D01*
X341Y3536D02*
X1006Y3536D01*
X1295Y3536D02*
X1396Y3536D01*
X1685Y3536D02*
X2280Y3536D01*
X341Y3535D02*
X1005Y3535D01*
X1289Y3535D02*
X1402Y3535D01*
X1686Y3535D02*
X2280Y3535D01*
X341Y3534D02*
X1004Y3534D01*
X1283Y3534D02*
X1407Y3534D01*
X1686Y3534D02*
X2280Y3534D01*
X341Y3533D02*
X1003Y3533D01*
X1278Y3533D02*
X1412Y3533D01*
X1687Y3533D02*
X2280Y3533D01*
X341Y3532D02*
X1002Y3532D01*
X1273Y3532D02*
X1417Y3532D01*
X1688Y3532D02*
X2280Y3532D01*
X341Y3531D02*
X1001Y3531D01*
X1269Y3531D02*
X1422Y3531D01*
X1689Y3531D02*
X2280Y3531D01*
X341Y3530D02*
X1000Y3530D01*
X1265Y3530D02*
X1426Y3530D01*
X1690Y3530D02*
X2280Y3530D01*
X341Y3529D02*
X999Y3529D01*
X1260Y3529D02*
X1430Y3529D01*
X1691Y3529D02*
X2280Y3529D01*
X340Y3528D02*
X999Y3528D01*
X1257Y3528D02*
X1434Y3528D01*
X1692Y3528D02*
X2281Y3528D01*
X340Y3527D02*
X998Y3527D01*
X1253Y3527D02*
X1437Y3527D01*
X1693Y3527D02*
X2281Y3527D01*
X340Y3526D02*
X997Y3526D01*
X1250Y3526D02*
X1441Y3526D01*
X1694Y3526D02*
X2281Y3526D01*
X340Y3525D02*
X996Y3525D01*
X1246Y3525D02*
X1444Y3525D01*
X1695Y3525D02*
X2281Y3525D01*
X340Y3524D02*
X995Y3524D01*
X1243Y3524D02*
X1447Y3524D01*
X1696Y3524D02*
X2281Y3524D01*
X340Y3523D02*
X994Y3523D01*
X1240Y3523D02*
X1451Y3523D01*
X1697Y3523D02*
X2281Y3523D01*
X340Y3522D02*
X993Y3522D01*
X1237Y3522D02*
X1454Y3522D01*
X1698Y3522D02*
X2281Y3522D01*
X340Y3521D02*
X992Y3521D01*
X1234Y3521D02*
X1457Y3521D01*
X1699Y3521D02*
X2281Y3521D01*
X340Y3520D02*
X991Y3520D01*
X1231Y3520D02*
X1459Y3520D01*
X1700Y3520D02*
X2281Y3520D01*
X340Y3519D02*
X990Y3519D01*
X1228Y3519D02*
X1462Y3519D01*
X1701Y3519D02*
X2281Y3519D01*
X339Y3518D02*
X989Y3518D01*
X1226Y3518D02*
X1465Y3518D01*
X1702Y3518D02*
X2281Y3518D01*
X339Y3517D02*
X988Y3517D01*
X1223Y3517D02*
X1468Y3517D01*
X1702Y3517D02*
X2282Y3517D01*
X339Y3516D02*
X987Y3516D01*
X1221Y3516D02*
X1470Y3516D01*
X1703Y3516D02*
X2282Y3516D01*
X339Y3515D02*
X987Y3515D01*
X1218Y3515D02*
X1473Y3515D01*
X1704Y3515D02*
X2282Y3515D01*
X339Y3514D02*
X986Y3514D01*
X1216Y3514D02*
X1475Y3514D01*
X1705Y3514D02*
X2282Y3514D01*
X339Y3513D02*
X985Y3513D01*
X1213Y3513D02*
X1477Y3513D01*
X1706Y3513D02*
X2282Y3513D01*
X339Y3512D02*
X984Y3512D01*
X1211Y3512D02*
X1480Y3512D01*
X1707Y3512D02*
X2282Y3512D01*
X339Y3511D02*
X983Y3511D01*
X1209Y3511D02*
X1482Y3511D01*
X1708Y3511D02*
X2282Y3511D01*
X339Y3510D02*
X982Y3510D01*
X1206Y3510D02*
X1484Y3510D01*
X1709Y3510D02*
X2282Y3510D01*
X339Y3509D02*
X981Y3509D01*
X1204Y3509D02*
X1487Y3509D01*
X1710Y3509D02*
X2282Y3509D01*
X339Y3508D02*
X981Y3508D01*
X1202Y3508D02*
X1489Y3508D01*
X1710Y3508D02*
X2282Y3508D01*
X338Y3507D02*
X980Y3507D01*
X1200Y3507D02*
X1491Y3507D01*
X1711Y3507D02*
X2283Y3507D01*
X338Y3506D02*
X979Y3506D01*
X1198Y3506D02*
X1493Y3506D01*
X1712Y3506D02*
X2283Y3506D01*
X338Y3505D02*
X978Y3505D01*
X1196Y3505D02*
X1495Y3505D01*
X1713Y3505D02*
X2283Y3505D01*
X338Y3504D02*
X977Y3504D01*
X1194Y3504D02*
X1497Y3504D01*
X1714Y3504D02*
X2283Y3504D01*
X338Y3503D02*
X976Y3503D01*
X1192Y3503D02*
X1499Y3503D01*
X1715Y3503D02*
X2283Y3503D01*
X338Y3502D02*
X975Y3502D01*
X1190Y3502D02*
X1501Y3502D01*
X1715Y3502D02*
X2283Y3502D01*
X338Y3501D02*
X975Y3501D01*
X1188Y3501D02*
X1503Y3501D01*
X1716Y3501D02*
X2283Y3501D01*
X338Y3500D02*
X974Y3500D01*
X1186Y3500D02*
X1505Y3500D01*
X1717Y3500D02*
X2283Y3500D01*
X338Y3499D02*
X973Y3499D01*
X1184Y3499D02*
X1507Y3499D01*
X1718Y3499D02*
X2283Y3499D01*
X338Y3498D02*
X972Y3498D01*
X1182Y3498D02*
X1509Y3498D01*
X1719Y3498D02*
X2283Y3498D01*
X337Y3497D02*
X971Y3497D01*
X1180Y3497D02*
X1510Y3497D01*
X1719Y3497D02*
X2284Y3497D01*
X337Y3496D02*
X971Y3496D01*
X1179Y3496D02*
X1512Y3496D01*
X1720Y3496D02*
X2284Y3496D01*
X337Y3495D02*
X970Y3495D01*
X1177Y3495D02*
X1514Y3495D01*
X1721Y3495D02*
X2284Y3495D01*
X337Y3494D02*
X969Y3494D01*
X1175Y3494D02*
X1516Y3494D01*
X1722Y3494D02*
X2284Y3494D01*
X337Y3493D02*
X968Y3493D01*
X1173Y3493D02*
X1517Y3493D01*
X1723Y3493D02*
X2284Y3493D01*
X337Y3492D02*
X967Y3492D01*
X1172Y3492D02*
X1519Y3492D01*
X1723Y3492D02*
X2284Y3492D01*
X337Y3491D02*
X967Y3491D01*
X1170Y3491D02*
X1521Y3491D01*
X1724Y3491D02*
X2284Y3491D01*
X337Y3490D02*
X966Y3490D01*
X1168Y3490D02*
X1522Y3490D01*
X1725Y3490D02*
X2284Y3490D01*
X337Y3489D02*
X965Y3489D01*
X1167Y3489D02*
X1524Y3489D01*
X1726Y3489D02*
X2284Y3489D01*
X337Y3488D02*
X964Y3488D01*
X1165Y3488D02*
X1526Y3488D01*
X1727Y3488D02*
X2284Y3488D01*
X336Y3487D02*
X964Y3487D01*
X1164Y3487D02*
X1527Y3487D01*
X1727Y3487D02*
X2284Y3487D01*
X336Y3486D02*
X963Y3486D01*
X1162Y3486D02*
X1529Y3486D01*
X1728Y3486D02*
X2285Y3486D01*
X336Y3485D02*
X962Y3485D01*
X1160Y3485D02*
X1530Y3485D01*
X1729Y3485D02*
X2285Y3485D01*
X336Y3484D02*
X961Y3484D01*
X1159Y3484D02*
X1532Y3484D01*
X1730Y3484D02*
X2285Y3484D01*
X336Y3483D02*
X961Y3483D01*
X1157Y3483D02*
X1533Y3483D01*
X1730Y3483D02*
X2285Y3483D01*
X336Y3482D02*
X960Y3482D01*
X1156Y3482D02*
X1535Y3482D01*
X1731Y3482D02*
X2285Y3482D01*
X336Y3481D02*
X959Y3481D01*
X1154Y3481D02*
X1536Y3481D01*
X1732Y3481D02*
X2285Y3481D01*
X336Y3480D02*
X958Y3480D01*
X1153Y3480D02*
X1538Y3480D01*
X1732Y3480D02*
X2285Y3480D01*
X336Y3479D02*
X958Y3479D01*
X1151Y3479D02*
X1539Y3479D01*
X1733Y3479D02*
X2285Y3479D01*
X336Y3478D02*
X957Y3478D01*
X1150Y3478D02*
X1541Y3478D01*
X1734Y3478D02*
X2285Y3478D01*
X336Y3477D02*
X956Y3477D01*
X1149Y3477D02*
X1542Y3477D01*
X1735Y3477D02*
X2285Y3477D01*
X335Y3476D02*
X955Y3476D01*
X1147Y3476D02*
X1544Y3476D01*
X1735Y3476D02*
X2286Y3476D01*
X335Y3475D02*
X955Y3475D01*
X1146Y3475D02*
X1545Y3475D01*
X1736Y3475D02*
X2286Y3475D01*
X335Y3474D02*
X954Y3474D01*
X1144Y3474D02*
X1546Y3474D01*
X1737Y3474D02*
X2286Y3474D01*
X335Y3473D02*
X953Y3473D01*
X1143Y3473D02*
X1548Y3473D01*
X1738Y3473D02*
X2286Y3473D01*
X335Y3472D02*
X953Y3472D01*
X1142Y3472D02*
X1549Y3472D01*
X1738Y3472D02*
X2286Y3472D01*
X335Y3471D02*
X952Y3471D01*
X1140Y3471D02*
X1550Y3471D01*
X1739Y3471D02*
X2286Y3471D01*
X335Y3470D02*
X951Y3470D01*
X1139Y3470D02*
X1552Y3470D01*
X1740Y3470D02*
X2286Y3470D01*
X335Y3469D02*
X951Y3469D01*
X1138Y3469D02*
X1553Y3469D01*
X1740Y3469D02*
X2286Y3469D01*
X335Y3468D02*
X950Y3468D01*
X1136Y3468D02*
X1554Y3468D01*
X1741Y3468D02*
X2286Y3468D01*
X335Y3467D02*
X949Y3467D01*
X1135Y3467D02*
X1556Y3467D01*
X1742Y3467D02*
X2286Y3467D01*
X334Y3466D02*
X949Y3466D01*
X1134Y3466D02*
X1557Y3466D01*
X1742Y3466D02*
X2286Y3466D01*
X334Y3465D02*
X948Y3465D01*
X1133Y3465D02*
X1558Y3465D01*
X1743Y3465D02*
X2287Y3465D01*
X334Y3464D02*
X947Y3464D01*
X1131Y3464D02*
X1559Y3464D01*
X1744Y3464D02*
X2287Y3464D01*
X334Y3463D02*
X946Y3463D01*
X1130Y3463D02*
X1561Y3463D01*
X1744Y3463D02*
X2287Y3463D01*
X334Y3462D02*
X946Y3462D01*
X1129Y3462D02*
X1562Y3462D01*
X1745Y3462D02*
X2287Y3462D01*
X334Y3461D02*
X945Y3461D01*
X1128Y3461D02*
X1563Y3461D01*
X1746Y3461D02*
X2287Y3461D01*
X334Y3460D02*
X944Y3460D01*
X1126Y3460D02*
X1564Y3460D01*
X1746Y3460D02*
X2287Y3460D01*
X334Y3459D02*
X944Y3459D01*
X1125Y3459D02*
X1565Y3459D01*
X1747Y3459D02*
X2287Y3459D01*
X334Y3458D02*
X943Y3458D01*
X1124Y3458D02*
X1567Y3458D01*
X1748Y3458D02*
X2287Y3458D01*
X334Y3457D02*
X943Y3457D01*
X1123Y3457D02*
X1568Y3457D01*
X1748Y3457D02*
X2287Y3457D01*
X333Y3456D02*
X942Y3456D01*
X1122Y3456D02*
X1339Y3456D01*
X1350Y3456D02*
X1569Y3456D01*
X1749Y3456D02*
X2287Y3456D01*
X333Y3455D02*
X941Y3455D01*
X1121Y3455D02*
X1321Y3455D01*
X1369Y3455D02*
X1570Y3455D01*
X1750Y3455D02*
X2288Y3455D01*
X333Y3454D02*
X941Y3454D01*
X1120Y3454D02*
X1312Y3454D01*
X1378Y3454D02*
X1571Y3454D01*
X1750Y3454D02*
X2288Y3454D01*
X333Y3453D02*
X940Y3453D01*
X1118Y3453D02*
X1304Y3453D01*
X1386Y3453D02*
X1572Y3453D01*
X1751Y3453D02*
X2288Y3453D01*
X333Y3452D02*
X939Y3452D01*
X1117Y3452D02*
X1299Y3452D01*
X1392Y3452D02*
X1573Y3452D01*
X1751Y3452D02*
X2288Y3452D01*
X333Y3451D02*
X939Y3451D01*
X1116Y3451D02*
X1293Y3451D01*
X1397Y3451D02*
X1575Y3451D01*
X1752Y3451D02*
X2288Y3451D01*
X333Y3450D02*
X938Y3450D01*
X1115Y3450D02*
X1289Y3450D01*
X1402Y3450D02*
X1576Y3450D01*
X1753Y3450D02*
X2288Y3450D01*
X333Y3449D02*
X937Y3449D01*
X1114Y3449D02*
X1284Y3449D01*
X1406Y3449D02*
X1577Y3449D01*
X1753Y3449D02*
X2288Y3449D01*
X333Y3448D02*
X937Y3448D01*
X1113Y3448D02*
X1280Y3448D01*
X1410Y3448D02*
X1578Y3448D01*
X1754Y3448D02*
X2288Y3448D01*
X333Y3447D02*
X936Y3447D01*
X1112Y3447D02*
X1277Y3447D01*
X1414Y3447D02*
X1579Y3447D01*
X1755Y3447D02*
X2288Y3447D01*
X332Y3446D02*
X936Y3446D01*
X1111Y3446D02*
X1273Y3446D01*
X1417Y3446D02*
X1580Y3446D01*
X1755Y3446D02*
X2288Y3446D01*
X332Y3445D02*
X935Y3445D01*
X1110Y3445D02*
X1270Y3445D01*
X1421Y3445D02*
X1581Y3445D01*
X1756Y3445D02*
X2289Y3445D01*
X332Y3444D02*
X934Y3444D01*
X1109Y3444D02*
X1266Y3444D01*
X1424Y3444D02*
X1582Y3444D01*
X1756Y3444D02*
X2289Y3444D01*
X332Y3443D02*
X934Y3443D01*
X1108Y3443D02*
X1263Y3443D01*
X1427Y3443D02*
X1583Y3443D01*
X1757Y3443D02*
X2289Y3443D01*
X332Y3442D02*
X933Y3442D01*
X1107Y3442D02*
X1260Y3442D01*
X1430Y3442D02*
X1584Y3442D01*
X1758Y3442D02*
X2289Y3442D01*
X332Y3441D02*
X933Y3441D01*
X1106Y3441D02*
X1257Y3441D01*
X1433Y3441D02*
X1585Y3441D01*
X1758Y3441D02*
X2289Y3441D01*
X332Y3440D02*
X932Y3440D01*
X1105Y3440D02*
X1255Y3440D01*
X1436Y3440D02*
X1586Y3440D01*
X1759Y3440D02*
X2289Y3440D01*
X332Y3439D02*
X931Y3439D01*
X1104Y3439D02*
X1252Y3439D01*
X1438Y3439D02*
X1587Y3439D01*
X1759Y3439D02*
X2289Y3439D01*
X332Y3438D02*
X931Y3438D01*
X1103Y3438D02*
X1250Y3438D01*
X1441Y3438D02*
X1588Y3438D01*
X1760Y3438D02*
X2289Y3438D01*
X332Y3437D02*
X930Y3437D01*
X1102Y3437D02*
X1247Y3437D01*
X1443Y3437D02*
X1589Y3437D01*
X1760Y3437D02*
X2289Y3437D01*
X332Y3436D02*
X930Y3436D01*
X1101Y3436D02*
X1245Y3436D01*
X1446Y3436D02*
X1590Y3436D01*
X1761Y3436D02*
X2289Y3436D01*
X331Y3435D02*
X929Y3435D01*
X1100Y3435D02*
X1242Y3435D01*
X1448Y3435D02*
X1591Y3435D01*
X1762Y3435D02*
X2289Y3435D01*
X331Y3434D02*
X929Y3434D01*
X1099Y3434D02*
X1240Y3434D01*
X1450Y3434D02*
X1592Y3434D01*
X1762Y3434D02*
X2290Y3434D01*
X331Y3433D02*
X928Y3433D01*
X1098Y3433D02*
X1238Y3433D01*
X1453Y3433D02*
X1593Y3433D01*
X1763Y3433D02*
X2290Y3433D01*
X331Y3432D02*
X927Y3432D01*
X1097Y3432D02*
X1236Y3432D01*
X1455Y3432D02*
X1594Y3432D01*
X1763Y3432D02*
X2290Y3432D01*
X331Y3431D02*
X927Y3431D01*
X1096Y3431D02*
X1233Y3431D01*
X1457Y3431D02*
X1595Y3431D01*
X1764Y3431D02*
X2290Y3431D01*
X331Y3430D02*
X926Y3430D01*
X1095Y3430D02*
X1231Y3430D01*
X1459Y3430D02*
X1596Y3430D01*
X1764Y3430D02*
X2290Y3430D01*
X331Y3429D02*
X926Y3429D01*
X1094Y3429D02*
X1229Y3429D01*
X1461Y3429D02*
X1597Y3429D01*
X1765Y3429D02*
X2290Y3429D01*
X331Y3428D02*
X925Y3428D01*
X1093Y3428D02*
X1227Y3428D01*
X1463Y3428D02*
X1598Y3428D01*
X1766Y3428D02*
X2290Y3428D01*
X331Y3427D02*
X925Y3427D01*
X1092Y3427D02*
X1226Y3427D01*
X1465Y3427D02*
X1599Y3427D01*
X1766Y3427D02*
X2290Y3427D01*
X331Y3426D02*
X924Y3426D01*
X1091Y3426D02*
X1224Y3426D01*
X1467Y3426D02*
X1599Y3426D01*
X1767Y3426D02*
X2290Y3426D01*
X330Y3425D02*
X924Y3425D01*
X1090Y3425D02*
X1222Y3425D01*
X1469Y3425D02*
X1600Y3425D01*
X1767Y3425D02*
X2290Y3425D01*
X330Y3424D02*
X923Y3424D01*
X1090Y3424D02*
X1220Y3424D01*
X1470Y3424D02*
X1601Y3424D01*
X1768Y3424D02*
X2291Y3424D01*
X330Y3423D02*
X923Y3423D01*
X1089Y3423D02*
X1218Y3423D01*
X1472Y3423D02*
X1602Y3423D01*
X1768Y3423D02*
X2291Y3423D01*
X330Y3422D02*
X922Y3422D01*
X1088Y3422D02*
X1216Y3422D01*
X1474Y3422D02*
X1603Y3422D01*
X1769Y3422D02*
X2291Y3422D01*
X330Y3421D02*
X921Y3421D01*
X1087Y3421D02*
X1215Y3421D01*
X1476Y3421D02*
X1604Y3421D01*
X1769Y3421D02*
X2291Y3421D01*
X330Y3420D02*
X921Y3420D01*
X1086Y3420D02*
X1213Y3420D01*
X1477Y3420D02*
X1605Y3420D01*
X1770Y3420D02*
X2291Y3420D01*
X330Y3419D02*
X920Y3419D01*
X1085Y3419D02*
X1211Y3419D01*
X1479Y3419D02*
X1606Y3419D01*
X1770Y3419D02*
X2291Y3419D01*
X330Y3418D02*
X920Y3418D01*
X1084Y3418D02*
X1210Y3418D01*
X1481Y3418D02*
X1606Y3418D01*
X1771Y3418D02*
X2291Y3418D01*
X330Y3417D02*
X919Y3417D01*
X1084Y3417D02*
X1208Y3417D01*
X1482Y3417D02*
X1607Y3417D01*
X1771Y3417D02*
X2291Y3417D01*
X330Y3416D02*
X919Y3416D01*
X1083Y3416D02*
X1207Y3416D01*
X1484Y3416D02*
X1608Y3416D01*
X1772Y3416D02*
X2291Y3416D01*
X329Y3415D02*
X918Y3415D01*
X1082Y3415D02*
X1205Y3415D01*
X1485Y3415D02*
X1609Y3415D01*
X1772Y3415D02*
X2291Y3415D01*
X329Y3414D02*
X918Y3414D01*
X1081Y3414D02*
X1203Y3414D01*
X1487Y3414D02*
X1610Y3414D01*
X1773Y3414D02*
X2291Y3414D01*
X329Y3413D02*
X917Y3413D01*
X1080Y3413D02*
X1202Y3413D01*
X1488Y3413D02*
X1611Y3413D01*
X1773Y3413D02*
X2292Y3413D01*
X329Y3412D02*
X917Y3412D01*
X1079Y3412D02*
X1200Y3412D01*
X1490Y3412D02*
X1611Y3412D01*
X1774Y3412D02*
X2292Y3412D01*
X329Y3411D02*
X916Y3411D01*
X1079Y3411D02*
X1199Y3411D01*
X1491Y3411D02*
X1612Y3411D01*
X1774Y3411D02*
X2292Y3411D01*
X329Y3410D02*
X916Y3410D01*
X1078Y3410D02*
X1198Y3410D01*
X1493Y3410D02*
X1613Y3410D01*
X1775Y3410D02*
X2292Y3410D01*
X329Y3409D02*
X915Y3409D01*
X1077Y3409D02*
X1196Y3409D01*
X1494Y3409D02*
X1614Y3409D01*
X1775Y3409D02*
X2292Y3409D01*
X329Y3408D02*
X915Y3408D01*
X1076Y3408D02*
X1195Y3408D01*
X1496Y3408D02*
X1615Y3408D01*
X1776Y3408D02*
X2292Y3408D01*
X329Y3407D02*
X914Y3407D01*
X1076Y3407D02*
X1193Y3407D01*
X1497Y3407D02*
X1615Y3407D01*
X1776Y3407D02*
X2292Y3407D01*
X329Y3406D02*
X914Y3406D01*
X1075Y3406D02*
X1192Y3406D01*
X1499Y3406D02*
X1616Y3406D01*
X1777Y3406D02*
X2292Y3406D01*
X328Y3405D02*
X913Y3405D01*
X1074Y3405D02*
X1191Y3405D01*
X1500Y3405D02*
X1617Y3405D01*
X1777Y3405D02*
X2292Y3405D01*
X328Y3404D02*
X913Y3404D01*
X1073Y3404D02*
X1189Y3404D01*
X1501Y3404D02*
X1618Y3404D01*
X1778Y3404D02*
X2292Y3404D01*
X328Y3403D02*
X912Y3403D01*
X1072Y3403D02*
X1188Y3403D01*
X1503Y3403D02*
X1618Y3403D01*
X1778Y3403D02*
X2293Y3403D01*
X328Y3402D02*
X912Y3402D01*
X1072Y3402D02*
X1187Y3402D01*
X1504Y3402D02*
X1619Y3402D01*
X1779Y3402D02*
X2293Y3402D01*
X328Y3401D02*
X911Y3401D01*
X1071Y3401D02*
X1185Y3401D01*
X1505Y3401D02*
X1620Y3401D01*
X1779Y3401D02*
X2293Y3401D01*
X328Y3400D02*
X911Y3400D01*
X1070Y3400D02*
X1184Y3400D01*
X1506Y3400D02*
X1621Y3400D01*
X1780Y3400D02*
X2293Y3400D01*
X328Y3399D02*
X911Y3399D01*
X1069Y3399D02*
X1183Y3399D01*
X1508Y3399D02*
X1621Y3399D01*
X1780Y3399D02*
X2293Y3399D01*
X328Y3398D02*
X910Y3398D01*
X1069Y3398D02*
X1182Y3398D01*
X1509Y3398D02*
X1622Y3398D01*
X1781Y3398D02*
X2293Y3398D01*
X328Y3397D02*
X910Y3397D01*
X1068Y3397D02*
X1180Y3397D01*
X1510Y3397D02*
X1623Y3397D01*
X1781Y3397D02*
X2293Y3397D01*
X328Y3396D02*
X909Y3396D01*
X1067Y3396D02*
X1179Y3396D01*
X1511Y3396D02*
X1623Y3396D01*
X1782Y3396D02*
X2293Y3396D01*
X328Y3395D02*
X909Y3395D01*
X1067Y3395D02*
X1178Y3395D01*
X1512Y3395D02*
X1624Y3395D01*
X1782Y3395D02*
X2293Y3395D01*
X327Y3394D02*
X908Y3394D01*
X1066Y3394D02*
X1177Y3394D01*
X1514Y3394D02*
X1625Y3394D01*
X1782Y3394D02*
X2293Y3394D01*
X327Y3393D02*
X908Y3393D01*
X1065Y3393D02*
X1176Y3393D01*
X1515Y3393D02*
X1626Y3393D01*
X1783Y3393D02*
X2294Y3393D01*
X327Y3392D02*
X907Y3392D01*
X1065Y3392D02*
X1175Y3392D01*
X1516Y3392D02*
X1626Y3392D01*
X1783Y3392D02*
X2294Y3392D01*
X327Y3391D02*
X907Y3391D01*
X1064Y3391D02*
X1173Y3391D01*
X1517Y3391D02*
X1627Y3391D01*
X1784Y3391D02*
X2294Y3391D01*
X327Y3390D02*
X907Y3390D01*
X1063Y3390D02*
X1172Y3390D01*
X1518Y3390D02*
X1628Y3390D01*
X1784Y3390D02*
X2294Y3390D01*
X327Y3389D02*
X906Y3389D01*
X1062Y3389D02*
X1171Y3389D01*
X1519Y3389D02*
X1628Y3389D01*
X1785Y3389D02*
X2294Y3389D01*
X327Y3388D02*
X906Y3388D01*
X1062Y3388D02*
X1170Y3388D01*
X1520Y3388D02*
X1629Y3388D01*
X1785Y3388D02*
X2294Y3388D01*
X327Y3387D02*
X905Y3387D01*
X1061Y3387D02*
X1169Y3387D01*
X1521Y3387D02*
X1630Y3387D01*
X1785Y3387D02*
X2294Y3387D01*
X327Y3386D02*
X905Y3386D01*
X1060Y3386D02*
X1168Y3386D01*
X1522Y3386D02*
X1630Y3386D01*
X1786Y3386D02*
X2294Y3386D01*
X329Y3385D02*
X904Y3385D01*
X1060Y3385D02*
X1167Y3385D01*
X1523Y3385D02*
X1631Y3385D01*
X1786Y3385D02*
X2294Y3385D01*
X334Y3384D02*
X904Y3384D01*
X1059Y3384D02*
X1166Y3384D01*
X1525Y3384D02*
X1632Y3384D01*
X1787Y3384D02*
X2294Y3384D01*
X339Y3383D02*
X903Y3383D01*
X1058Y3383D02*
X1165Y3383D01*
X1526Y3383D02*
X1632Y3383D01*
X1787Y3383D02*
X2294Y3383D01*
X344Y3382D02*
X903Y3382D01*
X1058Y3382D02*
X1164Y3382D01*
X1527Y3382D02*
X1633Y3382D01*
X1788Y3382D02*
X2295Y3382D01*
X349Y3381D02*
X902Y3381D01*
X1057Y3381D02*
X1163Y3381D01*
X1528Y3381D02*
X1634Y3381D01*
X1788Y3381D02*
X2295Y3381D01*
X1057Y3380D02*
X1162Y3380D01*
X1529Y3380D02*
X1634Y3380D01*
X1056Y3379D02*
X1161Y3379D01*
X1530Y3379D02*
X1635Y3379D01*
X1055Y3378D02*
X1160Y3378D01*
X1531Y3378D02*
X1635Y3378D01*
X1055Y3377D02*
X1159Y3377D01*
X1532Y3377D02*
X1636Y3377D01*
X1054Y3376D02*
X1158Y3376D01*
X1533Y3376D02*
X1637Y3376D01*
X1053Y3375D02*
X1157Y3375D01*
X1533Y3375D02*
X1637Y3375D01*
X1053Y3374D02*
X1156Y3374D01*
X1534Y3374D02*
X1638Y3374D01*
X1052Y3373D02*
X1155Y3373D01*
X1535Y3373D02*
X1638Y3373D01*
X1052Y3372D02*
X1154Y3372D01*
X1536Y3372D02*
X1639Y3372D01*
X1051Y3371D02*
X1153Y3371D01*
X1537Y3371D02*
X1640Y3371D01*
X1050Y3370D02*
X1152Y3370D01*
X1538Y3370D02*
X1640Y3370D01*
X1050Y3369D02*
X1151Y3369D01*
X1539Y3369D02*
X1641Y3369D01*
X1049Y3368D02*
X1151Y3368D01*
X1540Y3368D02*
X1641Y3368D01*
X1049Y3367D02*
X1150Y3367D01*
X1541Y3367D02*
X1642Y3367D01*
X1048Y3366D02*
X1149Y3366D01*
X1542Y3366D02*
X1643Y3366D01*
X1048Y3365D02*
X1148Y3365D01*
X1543Y3365D02*
X1643Y3365D01*
X1047Y3364D02*
X1147Y3364D01*
X1543Y3364D02*
X1644Y3364D01*
X1046Y3363D02*
X1146Y3363D01*
X1544Y3363D02*
X1644Y3363D01*
X1046Y3362D02*
X1145Y3362D01*
X1545Y3362D02*
X1645Y3362D01*
X1045Y3361D02*
X1145Y3361D01*
X1546Y3361D02*
X1645Y3361D01*
X1045Y3360D02*
X1144Y3360D01*
X1547Y3360D02*
X1646Y3360D01*
X1044Y3359D02*
X1143Y3359D01*
X1547Y3359D02*
X1646Y3359D01*
X1044Y3358D02*
X1142Y3358D01*
X1548Y3358D02*
X1647Y3358D01*
X1043Y3357D02*
X1141Y3357D01*
X1549Y3357D02*
X1647Y3357D01*
X1043Y3356D02*
X1141Y3356D01*
X1550Y3356D02*
X1648Y3356D01*
X1042Y3355D02*
X1140Y3355D01*
X1551Y3355D02*
X1648Y3355D01*
X1042Y3354D02*
X1139Y3354D01*
X1551Y3354D02*
X1649Y3354D01*
X1041Y3353D02*
X1138Y3353D01*
X1552Y3353D02*
X1650Y3353D01*
X1041Y3352D02*
X1138Y3352D01*
X1553Y3352D02*
X1650Y3352D01*
X1040Y3351D02*
X1137Y3351D01*
X1554Y3351D02*
X1651Y3351D01*
X1040Y3350D02*
X1136Y3350D01*
X1554Y3350D02*
X1651Y3350D01*
X1039Y3349D02*
X1135Y3349D01*
X1555Y3349D02*
X1652Y3349D01*
X1039Y3348D02*
X1135Y3348D01*
X1556Y3348D02*
X1652Y3348D01*
X1038Y3347D02*
X1134Y3347D01*
X1556Y3347D02*
X1652Y3347D01*
X1038Y3346D02*
X1133Y3346D01*
X1557Y3346D02*
X1653Y3346D01*
X1037Y3345D02*
X1133Y3345D01*
X1558Y3345D02*
X1653Y3345D01*
X1037Y3344D02*
X1132Y3344D01*
X1559Y3344D02*
X1654Y3344D01*
X1036Y3343D02*
X1131Y3343D01*
X1559Y3343D02*
X1654Y3343D01*
X1036Y3342D02*
X1130Y3342D01*
X1560Y3342D02*
X1655Y3342D01*
X1035Y3341D02*
X1130Y3341D01*
X1561Y3341D02*
X1655Y3341D01*
X1035Y3340D02*
X1129Y3340D01*
X1561Y3340D02*
X1656Y3340D01*
X1034Y3339D02*
X1128Y3339D01*
X1562Y3339D02*
X1656Y3339D01*
X1034Y3338D02*
X1128Y3338D01*
X1563Y3338D02*
X1657Y3338D01*
X1034Y3337D02*
X1127Y3337D01*
X1563Y3337D02*
X1657Y3337D01*
X1033Y3336D02*
X1127Y3336D01*
X1564Y3336D02*
X1658Y3336D01*
X1033Y3335D02*
X1126Y3335D01*
X1564Y3335D02*
X1658Y3335D01*
X1032Y3334D02*
X1125Y3334D01*
X1565Y3334D02*
X1658Y3334D01*
X1032Y3333D02*
X1125Y3333D01*
X1566Y3333D02*
X1659Y3333D01*
X1031Y3332D02*
X1124Y3332D01*
X1566Y3332D02*
X1659Y3332D01*
X1031Y3331D02*
X1123Y3331D01*
X1567Y3331D02*
X1660Y3331D01*
X1030Y3330D02*
X1123Y3330D01*
X1568Y3330D02*
X1660Y3330D01*
X1030Y3329D02*
X1122Y3329D01*
X1568Y3329D02*
X1661Y3329D01*
X1030Y3328D02*
X1122Y3328D01*
X1569Y3328D02*
X1661Y3328D01*
X1029Y3327D02*
X1121Y3327D01*
X1569Y3327D02*
X1661Y3327D01*
X1029Y3326D02*
X1121Y3326D01*
X1570Y3326D02*
X1662Y3326D01*
X1028Y3325D02*
X1120Y3325D01*
X1571Y3325D02*
X1662Y3325D01*
X1028Y3324D02*
X1119Y3324D01*
X1571Y3324D02*
X1663Y3324D01*
X1028Y3323D02*
X1119Y3323D01*
X1572Y3323D02*
X1663Y3323D01*
X1027Y3322D02*
X1118Y3322D01*
X1572Y3322D02*
X1663Y3322D01*
X1027Y3321D02*
X1118Y3321D01*
X1573Y3321D02*
X1664Y3321D01*
X1027Y3320D02*
X1117Y3320D01*
X1573Y3320D02*
X1664Y3320D01*
X1026Y3319D02*
X1117Y3319D01*
X1574Y3319D02*
X1665Y3319D01*
X1026Y3318D02*
X1116Y3318D01*
X1574Y3318D02*
X1665Y3318D01*
X1025Y3317D02*
X1116Y3317D01*
X1575Y3317D02*
X1665Y3317D01*
X1025Y3316D02*
X1115Y3316D01*
X1575Y3316D02*
X1666Y3316D01*
X1025Y3315D02*
X1115Y3315D01*
X1576Y3315D02*
X1666Y3315D01*
X1024Y3314D02*
X1114Y3314D01*
X1576Y3314D02*
X1666Y3314D01*
X1024Y3313D02*
X1114Y3313D01*
X1577Y3313D02*
X1667Y3313D01*
X1023Y3312D02*
X1113Y3312D01*
X1577Y3312D02*
X1667Y3312D01*
X1023Y3311D02*
X1113Y3311D01*
X1578Y3311D02*
X1667Y3311D01*
X1023Y3310D02*
X1112Y3310D01*
X1578Y3310D02*
X1668Y3310D01*
X1022Y3309D02*
X1112Y3309D01*
X1579Y3309D02*
X1668Y3309D01*
X1022Y3308D02*
X1111Y3308D01*
X1579Y3308D02*
X1668Y3308D01*
X1022Y3307D02*
X1111Y3307D01*
X1580Y3307D02*
X1669Y3307D01*
X1021Y3306D02*
X1110Y3306D01*
X1580Y3306D02*
X1669Y3306D01*
X1021Y3305D02*
X1110Y3305D01*
X1581Y3305D02*
X1669Y3305D01*
X1021Y3304D02*
X1109Y3304D01*
X1581Y3304D02*
X1670Y3304D01*
X1021Y3303D02*
X1109Y3303D01*
X1582Y3303D02*
X1670Y3303D01*
X1020Y3302D02*
X1108Y3302D01*
X1582Y3302D02*
X1670Y3302D01*
X1020Y3301D02*
X1108Y3301D01*
X1582Y3301D02*
X1671Y3301D01*
X1020Y3300D02*
X1108Y3300D01*
X1583Y3300D02*
X1671Y3300D01*
X1019Y3299D02*
X1107Y3299D01*
X1583Y3299D02*
X1671Y3299D01*
X1019Y3298D02*
X1107Y3298D01*
X1584Y3298D02*
X1672Y3298D01*
X1019Y3297D02*
X1106Y3297D01*
X1584Y3297D02*
X1672Y3297D01*
X1018Y3296D02*
X1106Y3296D01*
X1585Y3296D02*
X1672Y3296D01*
X1018Y3295D02*
X1105Y3295D01*
X1585Y3295D02*
X1673Y3295D01*
X1018Y3294D02*
X1105Y3294D01*
X1585Y3294D02*
X1673Y3294D01*
X1017Y3293D02*
X1105Y3293D01*
X1586Y3293D02*
X1673Y3293D01*
X1017Y3292D02*
X1104Y3292D01*
X1586Y3292D02*
X1673Y3292D01*
X1017Y3291D02*
X1104Y3291D01*
X1587Y3291D02*
X1674Y3291D01*
X1017Y3290D02*
X1104Y3290D01*
X1587Y3290D02*
X1674Y3290D01*
X1016Y3289D02*
X1103Y3289D01*
X1587Y3289D02*
X1674Y3289D01*
X1016Y3288D02*
X1103Y3288D01*
X1588Y3288D02*
X1675Y3288D01*
X1016Y3287D02*
X1102Y3287D01*
X1588Y3287D02*
X1675Y3287D01*
X1016Y3286D02*
X1102Y3286D01*
X1588Y3286D02*
X1675Y3286D01*
X1015Y3285D02*
X1102Y3285D01*
X1589Y3285D02*
X1675Y3285D01*
X1015Y3284D02*
X1101Y3284D01*
X1589Y3284D02*
X1676Y3284D01*
X1015Y3283D02*
X1101Y3283D01*
X1590Y3283D02*
X1676Y3283D01*
X1014Y3282D02*
X1101Y3282D01*
X1590Y3282D02*
X1676Y3282D01*
X1014Y3281D02*
X1100Y3281D01*
X1590Y3281D02*
X1676Y3281D01*
X1014Y3280D02*
X1100Y3280D01*
X1591Y3280D02*
X1677Y3280D01*
X1014Y3279D02*
X1100Y3279D01*
X1591Y3279D02*
X1677Y3279D01*
X1013Y3278D02*
X1099Y3278D01*
X1591Y3278D02*
X1677Y3278D01*
X1013Y3277D02*
X1099Y3277D01*
X1592Y3277D02*
X1677Y3277D01*
X1013Y3276D02*
X1099Y3276D01*
X1592Y3276D02*
X1678Y3276D01*
X1013Y3275D02*
X1098Y3275D01*
X1592Y3275D02*
X1678Y3275D01*
X1013Y3274D02*
X1098Y3274D01*
X1592Y3274D02*
X1678Y3274D01*
X1012Y3273D02*
X1098Y3273D01*
X1593Y3273D02*
X1678Y3273D01*
X1012Y3272D02*
X1097Y3272D01*
X1593Y3272D02*
X1678Y3272D01*
X1012Y3271D02*
X1097Y3271D01*
X1593Y3271D02*
X1679Y3271D01*
X1012Y3270D02*
X1097Y3270D01*
X1594Y3270D02*
X1679Y3270D01*
X1011Y3269D02*
X1097Y3269D01*
X1594Y3269D02*
X1679Y3269D01*
X1011Y3268D02*
X1096Y3268D01*
X1594Y3268D02*
X1679Y3268D01*
X1011Y3267D02*
X1096Y3267D01*
X1594Y3267D02*
X1679Y3267D01*
X1011Y3266D02*
X1096Y3266D01*
X1595Y3266D02*
X1680Y3266D01*
X1011Y3265D02*
X1095Y3265D01*
X1595Y3265D02*
X1680Y3265D01*
X1010Y3264D02*
X1095Y3264D01*
X1595Y3264D02*
X1680Y3264D01*
X1010Y3263D02*
X1095Y3263D01*
X1596Y3263D02*
X1680Y3263D01*
X1010Y3262D02*
X1095Y3262D01*
X1596Y3262D02*
X1680Y3262D01*
X1010Y3261D02*
X1094Y3261D01*
X1596Y3261D02*
X1681Y3261D01*
X1010Y3260D02*
X1094Y3260D01*
X1596Y3260D02*
X1681Y3260D01*
X1009Y3259D02*
X1094Y3259D01*
X1597Y3259D02*
X1681Y3259D01*
X1009Y3258D02*
X1094Y3258D01*
X1597Y3258D02*
X1681Y3258D01*
X1009Y3257D02*
X1093Y3257D01*
X1597Y3257D02*
X1681Y3257D01*
X1009Y3256D02*
X1093Y3256D01*
X1597Y3256D02*
X1682Y3256D01*
X1009Y3255D02*
X1093Y3255D01*
X1597Y3255D02*
X1682Y3255D01*
X1009Y3254D02*
X1093Y3254D01*
X1598Y3254D02*
X1682Y3254D01*
X1008Y3253D02*
X1093Y3253D01*
X1598Y3253D02*
X1682Y3253D01*
X1008Y3252D02*
X1092Y3252D01*
X1598Y3252D02*
X1682Y3252D01*
X1008Y3251D02*
X1092Y3251D01*
X1598Y3251D02*
X1682Y3251D01*
X1008Y3250D02*
X1092Y3250D01*
X1599Y3250D02*
X1683Y3250D01*
X1008Y3249D02*
X1092Y3249D01*
X1599Y3249D02*
X1683Y3249D01*
X1008Y3248D02*
X1092Y3248D01*
X1599Y3248D02*
X1683Y3248D01*
X1007Y3247D02*
X1091Y3247D01*
X1599Y3247D02*
X1683Y3247D01*
X1007Y3246D02*
X1091Y3246D01*
X1599Y3246D02*
X1683Y3246D01*
X1007Y3245D02*
X1091Y3245D01*
X1599Y3245D02*
X1683Y3245D01*
X1007Y3244D02*
X1091Y3244D01*
X1600Y3244D02*
X1683Y3244D01*
X1007Y3243D02*
X1091Y3243D01*
X1600Y3243D02*
X1683Y3243D01*
X1007Y3242D02*
X1090Y3242D01*
X1600Y3242D02*
X1684Y3242D01*
X1007Y3241D02*
X1090Y3241D01*
X1600Y3241D02*
X1684Y3241D01*
X1007Y3240D02*
X1090Y3240D01*
X1600Y3240D02*
X1684Y3240D01*
X1006Y3239D02*
X1090Y3239D01*
X1600Y3239D02*
X1684Y3239D01*
X1006Y3238D02*
X1090Y3238D01*
X1601Y3238D02*
X1684Y3238D01*
X1006Y3237D02*
X1090Y3237D01*
X1601Y3237D02*
X1684Y3237D01*
X1006Y3236D02*
X1089Y3236D01*
X1601Y3236D02*
X1684Y3236D01*
X1006Y3235D02*
X1089Y3235D01*
X1601Y3235D02*
X1684Y3235D01*
X1006Y3234D02*
X1089Y3234D01*
X1601Y3234D02*
X1685Y3234D01*
X1006Y3233D02*
X1089Y3233D01*
X1601Y3233D02*
X1685Y3233D01*
X1006Y3232D02*
X1089Y3232D01*
X1602Y3232D02*
X1685Y3232D01*
X1006Y3231D02*
X1089Y3231D01*
X1602Y3231D02*
X1685Y3231D01*
X1005Y3230D02*
X1089Y3230D01*
X1602Y3230D02*
X1685Y3230D01*
X1005Y3229D02*
X1089Y3229D01*
X1602Y3229D02*
X1685Y3229D01*
X1005Y3228D02*
X1088Y3228D01*
X1602Y3228D02*
X1685Y3228D01*
X1005Y3227D02*
X1088Y3227D01*
X1602Y3227D02*
X1685Y3227D01*
X1005Y3226D02*
X1088Y3226D01*
X1602Y3226D02*
X1685Y3226D01*
X1005Y3225D02*
X1088Y3225D01*
X1602Y3225D02*
X1685Y3225D01*
X1005Y3224D02*
X1088Y3224D01*
X1602Y3224D02*
X1685Y3224D01*
X1005Y3223D02*
X1088Y3223D01*
X1603Y3223D02*
X1686Y3223D01*
X1005Y3222D02*
X1088Y3222D01*
X1603Y3222D02*
X1686Y3222D01*
X1005Y3221D02*
X1088Y3221D01*
X1603Y3221D02*
X1686Y3221D01*
X1005Y3220D02*
X1088Y3220D01*
X1603Y3220D02*
X1686Y3220D01*
X1005Y3219D02*
X1088Y3219D01*
X1603Y3219D02*
X1686Y3219D01*
X1005Y3218D02*
X1087Y3218D01*
X1603Y3218D02*
X1686Y3218D01*
X1004Y3217D02*
X1087Y3217D01*
X1603Y3217D02*
X1686Y3217D01*
X1004Y3216D02*
X1087Y3216D01*
X1603Y3216D02*
X1686Y3216D01*
X1004Y3215D02*
X1087Y3215D01*
X1603Y3215D02*
X1686Y3215D01*
X1004Y3214D02*
X1087Y3214D01*
X1603Y3214D02*
X1686Y3214D01*
X1004Y3213D02*
X1087Y3213D01*
X1603Y3213D02*
X1686Y3213D01*
X1004Y3212D02*
X1087Y3212D01*
X1603Y3212D02*
X1686Y3212D01*
X1004Y3211D02*
X1087Y3211D01*
X1603Y3211D02*
X1686Y3211D01*
X1004Y3210D02*
X1087Y3210D01*
X1603Y3210D02*
X1686Y3210D01*
X1004Y3209D02*
X1087Y3209D01*
X1603Y3209D02*
X1686Y3209D01*
X1004Y3208D02*
X1087Y3208D01*
X1603Y3208D02*
X1686Y3208D01*
X1004Y3207D02*
X1087Y3207D01*
X1604Y3207D02*
X1686Y3207D01*
X1004Y3206D02*
X1087Y3206D01*
X1604Y3206D02*
X1686Y3206D01*
X1004Y3205D02*
X1087Y3205D01*
X1604Y3205D02*
X1686Y3205D01*
X1004Y3204D02*
X1087Y3204D01*
X1604Y3204D02*
X1686Y3204D01*
X1004Y3203D02*
X1087Y3203D01*
X1604Y3203D02*
X1686Y3203D01*
X1004Y3202D02*
X1087Y3202D01*
X1604Y3202D02*
X1686Y3202D01*
X1004Y3201D02*
X1087Y3201D01*
X1604Y3201D02*
X1686Y3201D01*
X1004Y3200D02*
X1087Y3200D01*
X1604Y3200D02*
X1686Y3200D01*
X1004Y3199D02*
X1087Y3199D01*
X1604Y3199D02*
X1686Y3199D01*
X1004Y3198D02*
X1087Y3198D01*
X1604Y3198D02*
X1686Y3198D01*
X1004Y3197D02*
X1087Y3197D01*
X1604Y3197D02*
X1686Y3197D01*
X1004Y3196D02*
X1087Y3196D01*
X1604Y3196D02*
X1686Y3196D01*
X1004Y3195D02*
X1087Y3195D01*
X1604Y3195D02*
X1686Y3195D01*
X1004Y3194D02*
X1087Y3194D01*
X1604Y3194D02*
X1686Y3194D01*
X1004Y3193D02*
X1087Y3193D01*
X1604Y3193D02*
X1686Y3193D01*
X1004Y3192D02*
X1087Y3192D01*
X1604Y3192D02*
X1686Y3192D01*
X1004Y3191D02*
X1087Y3191D01*
X1604Y3191D02*
X1686Y3191D01*
X1004Y3190D02*
X1087Y3190D01*
X1604Y3190D02*
X1686Y3190D01*
X1004Y3189D02*
X1087Y3189D01*
X1604Y3189D02*
X1686Y3189D01*
X1004Y3188D02*
X1087Y3188D01*
X1604Y3188D02*
X1686Y3188D01*
X1004Y3187D02*
X1087Y3187D01*
X1603Y3187D02*
X1686Y3187D01*
X1004Y3186D02*
X1087Y3186D01*
X1603Y3186D02*
X1686Y3186D01*
X1004Y3185D02*
X1087Y3185D01*
X1603Y3185D02*
X1686Y3185D01*
X1004Y3184D02*
X1087Y3184D01*
X1603Y3184D02*
X1686Y3184D01*
X1004Y3183D02*
X1087Y3183D01*
X1603Y3183D02*
X1686Y3183D01*
X1004Y3182D02*
X1087Y3182D01*
X1603Y3182D02*
X1686Y3182D01*
X1004Y3181D02*
X1087Y3181D01*
X1603Y3181D02*
X1686Y3181D01*
X1004Y3180D02*
X1087Y3180D01*
X1603Y3180D02*
X1686Y3180D01*
X1004Y3179D02*
X1087Y3179D01*
X1603Y3179D02*
X1686Y3179D01*
X1005Y3178D02*
X1087Y3178D01*
X1603Y3178D02*
X1686Y3178D01*
X1005Y3177D02*
X1088Y3177D01*
X1603Y3177D02*
X1686Y3177D01*
X1005Y3176D02*
X1088Y3176D01*
X1603Y3176D02*
X1686Y3176D01*
X1005Y3175D02*
X1088Y3175D01*
X1603Y3175D02*
X1686Y3175D01*
X1005Y3174D02*
X1088Y3174D01*
X1603Y3174D02*
X1686Y3174D01*
X1005Y3173D02*
X1088Y3173D01*
X1602Y3173D02*
X1685Y3173D01*
X1005Y3172D02*
X1088Y3172D01*
X1602Y3172D02*
X1685Y3172D01*
X1005Y3171D02*
X1088Y3171D01*
X1602Y3171D02*
X1685Y3171D01*
X1005Y3170D02*
X1088Y3170D01*
X1602Y3170D02*
X1685Y3170D01*
X1005Y3169D02*
X1088Y3169D01*
X1602Y3169D02*
X1685Y3169D01*
X1005Y3168D02*
X1088Y3168D01*
X1602Y3168D02*
X1685Y3168D01*
X1005Y3167D02*
X1088Y3167D01*
X1602Y3167D02*
X1685Y3167D01*
X1005Y3166D02*
X1089Y3166D01*
X1602Y3166D02*
X1685Y3166D01*
X1006Y3165D02*
X1089Y3165D01*
X1602Y3165D02*
X1685Y3165D01*
X1006Y3164D02*
X1089Y3164D01*
X1601Y3164D02*
X1685Y3164D01*
X1006Y3163D02*
X1089Y3163D01*
X1601Y3163D02*
X1685Y3163D01*
X1006Y3162D02*
X1089Y3162D01*
X1601Y3162D02*
X1684Y3162D01*
X1006Y3161D02*
X1089Y3161D01*
X1601Y3161D02*
X1684Y3161D01*
X1006Y3160D02*
X1089Y3160D01*
X1601Y3160D02*
X1684Y3160D01*
X1006Y3159D02*
X1090Y3159D01*
X1601Y3159D02*
X1684Y3159D01*
X1006Y3158D02*
X1090Y3158D01*
X1601Y3158D02*
X1684Y3158D01*
X1006Y3157D02*
X1090Y3157D01*
X1600Y3157D02*
X1684Y3157D01*
X1006Y3156D02*
X1090Y3156D01*
X1600Y3156D02*
X1684Y3156D01*
X1007Y3155D02*
X1090Y3155D01*
X1600Y3155D02*
X1684Y3155D01*
X1007Y3154D02*
X1090Y3154D01*
X1600Y3154D02*
X1684Y3154D01*
X1007Y3153D02*
X1091Y3153D01*
X1600Y3153D02*
X1683Y3153D01*
X1007Y3152D02*
X1091Y3152D01*
X1600Y3152D02*
X1683Y3152D01*
X1007Y3151D02*
X1091Y3151D01*
X1599Y3151D02*
X1683Y3151D01*
X1007Y3150D02*
X1091Y3150D01*
X1599Y3150D02*
X1683Y3150D01*
X1007Y3149D02*
X1091Y3149D01*
X1599Y3149D02*
X1683Y3149D01*
X1008Y3148D02*
X1091Y3148D01*
X1599Y3148D02*
X1683Y3148D01*
X1008Y3147D02*
X1092Y3147D01*
X1599Y3147D02*
X1683Y3147D01*
X1008Y3146D02*
X1092Y3146D01*
X1598Y3146D02*
X1682Y3146D01*
X1008Y3145D02*
X1092Y3145D01*
X1598Y3145D02*
X1682Y3145D01*
X1008Y3144D02*
X1092Y3144D01*
X1598Y3144D02*
X1682Y3144D01*
X1008Y3143D02*
X1093Y3143D01*
X1598Y3143D02*
X1682Y3143D01*
X1008Y3142D02*
X1093Y3142D01*
X1597Y3142D02*
X1682Y3142D01*
X1009Y3141D02*
X1093Y3141D01*
X1597Y3141D02*
X1682Y3141D01*
X1009Y3140D02*
X1093Y3140D01*
X1597Y3140D02*
X1681Y3140D01*
X1009Y3139D02*
X1093Y3139D01*
X1597Y3139D02*
X1681Y3139D01*
X1009Y3138D02*
X1094Y3138D01*
X1597Y3138D02*
X1681Y3138D01*
X1009Y3137D02*
X1094Y3137D01*
X1596Y3137D02*
X1681Y3137D01*
X1009Y3136D02*
X1094Y3136D01*
X1596Y3136D02*
X1681Y3136D01*
X1010Y3135D02*
X1094Y3135D01*
X1596Y3135D02*
X1680Y3135D01*
X1010Y3134D02*
X1095Y3134D01*
X1596Y3134D02*
X1680Y3134D01*
X1010Y3133D02*
X1095Y3133D01*
X1595Y3133D02*
X1680Y3133D01*
X1010Y3132D02*
X1095Y3132D01*
X1595Y3132D02*
X1680Y3132D01*
X1010Y3131D02*
X1095Y3131D01*
X1595Y3131D02*
X1680Y3131D01*
X1011Y3130D02*
X1096Y3130D01*
X1595Y3130D02*
X1679Y3130D01*
X1011Y3129D02*
X1096Y3129D01*
X1594Y3129D02*
X1679Y3129D01*
X1011Y3128D02*
X1096Y3128D01*
X1594Y3128D02*
X1679Y3128D01*
X1011Y3127D02*
X1097Y3127D01*
X1594Y3127D02*
X1679Y3127D01*
X1011Y3126D02*
X1097Y3126D01*
X1593Y3126D02*
X1679Y3126D01*
X1012Y3125D02*
X1097Y3125D01*
X1593Y3125D02*
X1678Y3125D01*
X1012Y3124D02*
X1097Y3124D01*
X1593Y3124D02*
X1678Y3124D01*
X1012Y3123D02*
X1098Y3123D01*
X1593Y3123D02*
X1678Y3123D01*
X1012Y3122D02*
X1098Y3122D01*
X1592Y3122D02*
X1678Y3122D01*
X1013Y3121D02*
X1098Y3121D01*
X1592Y3121D02*
X1678Y3121D01*
X1013Y3120D02*
X1099Y3120D01*
X1592Y3120D02*
X1677Y3120D01*
X1013Y3119D02*
X1099Y3119D01*
X1591Y3119D02*
X1677Y3119D01*
X1013Y3118D02*
X1099Y3118D01*
X1591Y3118D02*
X1677Y3118D01*
X1014Y3117D02*
X1100Y3117D01*
X1591Y3117D02*
X1677Y3117D01*
X1014Y3116D02*
X1100Y3116D01*
X1590Y3116D02*
X1676Y3116D01*
X1014Y3115D02*
X1100Y3115D01*
X1590Y3115D02*
X1676Y3115D01*
X1014Y3114D02*
X1101Y3114D01*
X1590Y3114D02*
X1676Y3114D01*
X1015Y3113D02*
X1101Y3113D01*
X1589Y3113D02*
X1676Y3113D01*
X1015Y3112D02*
X1101Y3112D01*
X1589Y3112D02*
X1675Y3112D01*
X1015Y3111D02*
X1102Y3111D01*
X1589Y3111D02*
X1675Y3111D01*
X1015Y3110D02*
X1102Y3110D01*
X1588Y3110D02*
X1675Y3110D01*
X1016Y3109D02*
X1102Y3109D01*
X1588Y3109D02*
X1675Y3109D01*
X1016Y3108D02*
X1103Y3108D01*
X1587Y3108D02*
X1674Y3108D01*
X1016Y3107D02*
X1103Y3107D01*
X1587Y3107D02*
X1674Y3107D01*
X1016Y3106D02*
X1103Y3106D01*
X1587Y3106D02*
X1674Y3106D01*
X1017Y3105D02*
X1104Y3105D01*
X1586Y3105D02*
X1673Y3105D01*
X1017Y3104D02*
X1104Y3104D01*
X1586Y3104D02*
X1673Y3104D01*
X1017Y3103D02*
X1105Y3103D01*
X1585Y3103D02*
X1673Y3103D01*
X1018Y3102D02*
X1105Y3102D01*
X1585Y3102D02*
X1673Y3102D01*
X1018Y3101D02*
X1105Y3101D01*
X1585Y3101D02*
X1672Y3101D01*
X1018Y3100D02*
X1106Y3100D01*
X1584Y3100D02*
X1672Y3100D01*
X1018Y3099D02*
X1106Y3099D01*
X1584Y3099D02*
X1672Y3099D01*
X1019Y3098D02*
X1107Y3098D01*
X1583Y3098D02*
X1671Y3098D01*
X1019Y3097D02*
X1107Y3097D01*
X1583Y3097D02*
X1671Y3097D01*
X1019Y3096D02*
X1108Y3096D01*
X1583Y3096D02*
X1671Y3096D01*
X1020Y3095D02*
X1108Y3095D01*
X1582Y3095D02*
X1670Y3095D01*
X1020Y3094D02*
X1108Y3094D01*
X1582Y3094D02*
X1670Y3094D01*
X1020Y3093D02*
X1109Y3093D01*
X1581Y3093D02*
X1670Y3093D01*
X1021Y3092D02*
X1109Y3092D01*
X1581Y3092D02*
X1669Y3092D01*
X1021Y3091D02*
X1110Y3091D01*
X1580Y3091D02*
X1669Y3091D01*
X1021Y3090D02*
X1110Y3090D01*
X1580Y3090D02*
X1669Y3090D01*
X1022Y3089D02*
X1111Y3089D01*
X1579Y3089D02*
X1668Y3089D01*
X1022Y3088D02*
X1111Y3088D01*
X1579Y3088D02*
X1668Y3088D01*
X1022Y3087D02*
X1112Y3087D01*
X1579Y3087D02*
X1668Y3087D01*
X1023Y3086D02*
X1112Y3086D01*
X1578Y3086D02*
X1667Y3086D01*
X1023Y3085D02*
X1113Y3085D01*
X1577Y3085D02*
X1667Y3085D01*
X1023Y3084D02*
X1113Y3084D01*
X1577Y3084D02*
X1667Y3084D01*
X1024Y3083D02*
X1114Y3083D01*
X1576Y3083D02*
X1666Y3083D01*
X1024Y3082D02*
X1114Y3082D01*
X1576Y3082D02*
X1666Y3082D01*
X1024Y3081D02*
X1115Y3081D01*
X1575Y3081D02*
X1666Y3081D01*
X1025Y3080D02*
X1115Y3080D01*
X1575Y3080D02*
X1665Y3080D01*
X1025Y3079D02*
X1116Y3079D01*
X1574Y3079D02*
X1665Y3079D01*
X1026Y3078D02*
X1116Y3078D01*
X1574Y3078D02*
X1665Y3078D01*
X1026Y3077D02*
X1117Y3077D01*
X1573Y3077D02*
X1664Y3077D01*
X1026Y3076D02*
X1117Y3076D01*
X1573Y3076D02*
X1664Y3076D01*
X1027Y3075D02*
X1118Y3075D01*
X1572Y3075D02*
X1663Y3075D01*
X1027Y3074D02*
X1118Y3074D01*
X1572Y3074D02*
X1663Y3074D01*
X1027Y3073D02*
X1119Y3073D01*
X1571Y3073D02*
X1663Y3073D01*
X1028Y3072D02*
X1119Y3072D01*
X1571Y3072D02*
X1662Y3072D01*
X1028Y3071D02*
X1120Y3071D01*
X1570Y3071D02*
X1662Y3071D01*
X1029Y3070D02*
X1120Y3070D01*
X1570Y3070D02*
X1661Y3070D01*
X1029Y3069D02*
X1121Y3069D01*
X1569Y3069D02*
X1661Y3069D01*
X1029Y3068D02*
X1122Y3068D01*
X1568Y3068D02*
X1661Y3068D01*
X1030Y3067D02*
X1122Y3067D01*
X1568Y3067D02*
X1660Y3067D01*
X1030Y3066D02*
X1123Y3066D01*
X1567Y3066D02*
X1660Y3066D01*
X1031Y3065D02*
X1123Y3065D01*
X1567Y3065D02*
X1659Y3065D01*
X1031Y3064D02*
X1124Y3064D01*
X1566Y3064D02*
X1659Y3064D01*
X1031Y3063D02*
X1125Y3063D01*
X1565Y3063D02*
X1658Y3063D01*
X1032Y3062D02*
X1125Y3062D01*
X1565Y3062D02*
X1658Y3062D01*
X1032Y3061D02*
X1126Y3061D01*
X1564Y3061D02*
X1658Y3061D01*
X1033Y3060D02*
X1127Y3060D01*
X1563Y3060D02*
X1657Y3060D01*
X1033Y3059D02*
X1127Y3059D01*
X1563Y3059D02*
X1657Y3059D01*
X1034Y3058D02*
X1128Y3058D01*
X1562Y3058D02*
X1656Y3058D01*
X1034Y3057D02*
X1128Y3057D01*
X1562Y3057D02*
X1656Y3057D01*
X1035Y3056D02*
X1129Y3056D01*
X1561Y3056D02*
X1655Y3056D01*
X1035Y3055D02*
X1130Y3055D01*
X1560Y3055D02*
X1655Y3055D01*
X1036Y3054D02*
X1130Y3054D01*
X1560Y3054D02*
X1654Y3054D01*
X1036Y3053D02*
X1131Y3053D01*
X1559Y3053D02*
X1654Y3053D01*
X1036Y3052D02*
X1132Y3052D01*
X1558Y3052D02*
X1654Y3052D01*
X1037Y3051D02*
X1133Y3051D01*
X1557Y3051D02*
X1653Y3051D01*
X1037Y3050D02*
X1133Y3050D01*
X1557Y3050D02*
X1653Y3050D01*
X1038Y3049D02*
X1134Y3049D01*
X1556Y3049D02*
X1652Y3049D01*
X1038Y3048D02*
X1135Y3048D01*
X1555Y3048D02*
X1652Y3048D01*
X1039Y3047D02*
X1135Y3047D01*
X1555Y3047D02*
X1651Y3047D01*
X1039Y3046D02*
X1136Y3046D01*
X1554Y3046D02*
X1651Y3046D01*
X1040Y3045D02*
X1137Y3045D01*
X1553Y3045D02*
X1650Y3045D01*
X1040Y3044D02*
X1138Y3044D01*
X1552Y3044D02*
X1650Y3044D01*
X1041Y3043D02*
X1138Y3043D01*
X1552Y3043D02*
X1649Y3043D01*
X1041Y3042D02*
X1139Y3042D01*
X1551Y3042D02*
X1649Y3042D01*
X1042Y3041D02*
X1140Y3041D01*
X1550Y3041D02*
X1648Y3041D01*
X1042Y3040D02*
X1141Y3040D01*
X1549Y3040D02*
X1648Y3040D01*
X1043Y3039D02*
X1141Y3039D01*
X1549Y3039D02*
X1647Y3039D01*
X1043Y3038D02*
X1142Y3038D01*
X1548Y3038D02*
X1646Y3038D01*
X1044Y3037D02*
X1143Y3037D01*
X1547Y3037D02*
X1646Y3037D01*
X1045Y3036D02*
X1144Y3036D01*
X1546Y3036D02*
X1645Y3036D01*
X1045Y3035D02*
X1145Y3035D01*
X1545Y3035D02*
X1645Y3035D01*
X1046Y3034D02*
X1145Y3034D01*
X1545Y3034D02*
X1644Y3034D01*
X1046Y3033D02*
X1146Y3033D01*
X1544Y3033D02*
X1644Y3033D01*
X1047Y3032D02*
X1147Y3032D01*
X1543Y3032D02*
X1643Y3032D01*
X1047Y3031D02*
X1148Y3031D01*
X1542Y3031D02*
X1643Y3031D01*
X1048Y3030D02*
X1149Y3030D01*
X1541Y3030D02*
X1642Y3030D01*
X1048Y3029D02*
X1150Y3029D01*
X1540Y3029D02*
X1642Y3029D01*
X1049Y3028D02*
X1150Y3028D01*
X1539Y3028D02*
X1641Y3028D01*
X1050Y3027D02*
X1151Y3027D01*
X1539Y3027D02*
X1640Y3027D01*
X1050Y3026D02*
X1152Y3026D01*
X1538Y3026D02*
X1640Y3026D01*
X1051Y3025D02*
X1153Y3025D01*
X1537Y3025D02*
X1639Y3025D01*
X1051Y3024D02*
X1154Y3024D01*
X1536Y3024D02*
X1639Y3024D01*
X1052Y3023D02*
X1155Y3023D01*
X1535Y3023D02*
X1638Y3023D01*
X1053Y3022D02*
X1156Y3022D01*
X1534Y3022D02*
X1637Y3022D01*
X1053Y3021D02*
X1157Y3021D01*
X1533Y3021D02*
X1637Y3021D01*
X1054Y3020D02*
X1158Y3020D01*
X1532Y3020D02*
X1636Y3020D01*
X1054Y3019D02*
X1159Y3019D01*
X1531Y3019D02*
X1636Y3019D01*
X1055Y3018D02*
X1160Y3018D01*
X1530Y3018D02*
X1635Y3018D01*
X1056Y3017D02*
X1161Y3017D01*
X1529Y3017D02*
X1634Y3017D01*
X1056Y3016D02*
X1162Y3016D01*
X1528Y3016D02*
X1634Y3016D01*
X1057Y3015D02*
X1163Y3015D01*
X1527Y3015D02*
X1633Y3015D01*
X1058Y3014D02*
X1164Y3014D01*
X1526Y3014D02*
X1633Y3014D01*
X1058Y3013D02*
X1165Y3013D01*
X1525Y3013D02*
X1632Y3013D01*
X1059Y3012D02*
X1166Y3012D01*
X1524Y3012D02*
X1631Y3012D01*
X1059Y3011D02*
X1167Y3011D01*
X1523Y3011D02*
X1631Y3011D01*
X1060Y3010D02*
X1168Y3010D01*
X1522Y3010D02*
X1630Y3010D01*
X1061Y3009D02*
X1169Y3009D01*
X1521Y3009D02*
X1629Y3009D01*
X1061Y3008D02*
X1170Y3008D01*
X1520Y3008D02*
X1629Y3008D01*
X1062Y3007D02*
X1171Y3007D01*
X1519Y3007D02*
X1628Y3007D01*
X1063Y3006D02*
X1172Y3006D01*
X1518Y3006D02*
X1627Y3006D01*
X1064Y3005D02*
X1173Y3005D01*
X1516Y3005D02*
X1627Y3005D01*
X1064Y3004D02*
X1175Y3004D01*
X1515Y3004D02*
X1626Y3004D01*
X1065Y3003D02*
X1176Y3003D01*
X1514Y3003D02*
X1625Y3003D01*
X1066Y3002D02*
X1177Y3002D01*
X1513Y3002D02*
X1624Y3002D01*
X1066Y3001D02*
X1178Y3001D01*
X1512Y3001D02*
X1624Y3001D01*
X1067Y3000D02*
X1179Y3000D01*
X1511Y3000D02*
X1623Y3000D01*
X1068Y2999D02*
X1181Y2999D01*
X1510Y2999D02*
X1622Y2999D01*
X1068Y2998D02*
X1182Y2998D01*
X1508Y2998D02*
X1622Y2998D01*
X1069Y2997D02*
X1183Y2997D01*
X1507Y2997D02*
X1621Y2997D01*
X1070Y2996D02*
X1184Y2996D01*
X1506Y2996D02*
X1620Y2996D01*
X1071Y2995D02*
X1185Y2995D01*
X1504Y2995D02*
X1619Y2995D01*
X1071Y2994D02*
X1187Y2994D01*
X1503Y2994D02*
X1619Y2994D01*
X1072Y2993D02*
X1188Y2993D01*
X1502Y2993D02*
X1618Y2993D01*
X1073Y2992D02*
X1189Y2992D01*
X1501Y2992D02*
X1617Y2992D01*
X1074Y2991D02*
X1191Y2991D01*
X1499Y2991D02*
X1616Y2991D01*
X1074Y2990D02*
X1192Y2990D01*
X1498Y2990D02*
X1616Y2990D01*
X1075Y2989D02*
X1193Y2989D01*
X1496Y2989D02*
X1615Y2989D01*
X1076Y2988D02*
X1195Y2988D01*
X1495Y2988D02*
X1614Y2988D01*
X1077Y2987D02*
X1196Y2987D01*
X1494Y2987D02*
X1613Y2987D01*
X1078Y2986D02*
X1198Y2986D01*
X1492Y2986D02*
X1613Y2986D01*
X1078Y2985D02*
X1199Y2985D01*
X1491Y2985D02*
X1612Y2985D01*
X1079Y2984D02*
X1201Y2984D01*
X1489Y2984D02*
X1611Y2984D01*
X1080Y2983D02*
X1202Y2983D01*
X1488Y2983D02*
X1610Y2983D01*
X1081Y2982D02*
X1204Y2982D01*
X1486Y2982D02*
X1609Y2982D01*
X1082Y2981D02*
X1205Y2981D01*
X1485Y2981D02*
X1609Y2981D01*
X1082Y2980D02*
X1207Y2980D01*
X1483Y2980D02*
X1608Y2980D01*
X1083Y2979D02*
X1208Y2979D01*
X1482Y2979D02*
X1607Y2979D01*
X1084Y2978D02*
X1210Y2978D01*
X1480Y2978D02*
X1606Y2978D01*
X1085Y2977D02*
X1212Y2977D01*
X1478Y2977D02*
X1605Y2977D01*
X1086Y2976D02*
X1213Y2976D01*
X1477Y2976D02*
X1604Y2976D01*
X1087Y2975D02*
X1215Y2975D01*
X1475Y2975D02*
X1603Y2975D01*
X1088Y2974D02*
X1217Y2974D01*
X1473Y2974D02*
X1603Y2974D01*
X1088Y2973D02*
X1218Y2973D01*
X1472Y2973D02*
X1602Y2973D01*
X1089Y2972D02*
X1220Y2972D01*
X1470Y2972D02*
X1601Y2972D01*
X1090Y2971D02*
X1222Y2971D01*
X1468Y2971D02*
X1600Y2971D01*
X1091Y2970D02*
X1224Y2970D01*
X1466Y2970D02*
X1599Y2970D01*
X1092Y2969D02*
X1226Y2969D01*
X1464Y2969D02*
X1598Y2969D01*
X1093Y2968D02*
X1228Y2968D01*
X1462Y2968D02*
X1597Y2968D01*
X1094Y2967D02*
X1230Y2967D01*
X1460Y2967D02*
X1596Y2967D01*
X1095Y2966D02*
X1232Y2966D01*
X1458Y2966D02*
X1596Y2966D01*
X1096Y2965D02*
X1234Y2965D01*
X1456Y2965D02*
X1595Y2965D01*
X1097Y2964D02*
X1236Y2964D01*
X1454Y2964D02*
X1595Y2964D01*
X1098Y2963D02*
X1238Y2963D01*
X1452Y2963D02*
X1595Y2963D01*
X1099Y2962D02*
X1240Y2962D01*
X1450Y2962D02*
X1595Y2962D01*
X1100Y2961D02*
X1243Y2961D01*
X1447Y2961D02*
X1595Y2961D01*
X1100Y2960D02*
X1245Y2960D01*
X1445Y2960D02*
X1595Y2960D01*
X1101Y2959D02*
X1247Y2959D01*
X1442Y2959D02*
X1596Y2959D01*
X1102Y2958D02*
X1250Y2958D01*
X1440Y2958D02*
X1596Y2958D01*
X1103Y2957D02*
X1253Y2957D01*
X1437Y2957D02*
X1596Y2957D01*
X1104Y2956D02*
X1255Y2956D01*
X1435Y2956D02*
X1596Y2956D01*
X1105Y2955D02*
X1258Y2955D01*
X1432Y2955D02*
X1596Y2955D01*
X1106Y2954D02*
X1261Y2954D01*
X1429Y2954D02*
X1596Y2954D01*
X1108Y2953D02*
X1264Y2953D01*
X1426Y2953D02*
X1597Y2953D01*
X1109Y2952D02*
X1267Y2952D01*
X1423Y2952D02*
X1597Y2952D01*
X1110Y2951D02*
X1270Y2951D01*
X1420Y2951D02*
X1597Y2951D01*
X1111Y2950D02*
X1274Y2950D01*
X1416Y2950D02*
X1597Y2950D01*
X1112Y2949D02*
X1277Y2949D01*
X1413Y2949D02*
X1597Y2949D01*
X1113Y2948D02*
X1281Y2948D01*
X1409Y2948D02*
X1598Y2948D01*
X1114Y2947D02*
X1285Y2947D01*
X1405Y2947D02*
X1598Y2947D01*
X1115Y2946D02*
X1289Y2946D01*
X1401Y2946D02*
X1598Y2946D01*
X1116Y2945D02*
X1294Y2945D01*
X1396Y2945D02*
X1598Y2945D01*
X1117Y2944D02*
X1300Y2944D01*
X1390Y2944D02*
X1598Y2944D01*
X1118Y2943D02*
X1306Y2943D01*
X1384Y2943D02*
X1599Y2943D01*
X1119Y2942D02*
X1313Y2942D01*
X1377Y2942D02*
X1599Y2942D01*
X1121Y2941D02*
X1323Y2941D01*
X1367Y2941D02*
X1599Y2941D01*
X1122Y2940D02*
X1599Y2940D01*
X1123Y2939D02*
X1599Y2939D01*
X1124Y2938D02*
X1600Y2938D01*
X1125Y2937D02*
X1600Y2937D01*
X1126Y2936D02*
X1600Y2936D01*
X1128Y2935D02*
X1600Y2935D01*
X1129Y2934D02*
X1600Y2934D01*
X1130Y2933D02*
X1601Y2933D01*
X1131Y2932D02*
X1601Y2932D01*
X1133Y2931D02*
X1601Y2931D01*
X1134Y2930D02*
X1601Y2930D01*
X1135Y2929D02*
X1601Y2929D01*
X1136Y2928D02*
X1602Y2928D01*
X1138Y2927D02*
X1602Y2927D01*
X1139Y2926D02*
X1602Y2926D01*
X1140Y2925D02*
X1602Y2925D01*
X1142Y2924D02*
X1602Y2924D01*
X1143Y2923D02*
X1603Y2923D01*
X1144Y2922D02*
X1603Y2922D01*
X1146Y2921D02*
X1603Y2921D01*
X1147Y2920D02*
X1603Y2920D01*
X1149Y2919D02*
X1603Y2919D01*
X1150Y2918D02*
X1604Y2918D01*
X1151Y2917D02*
X1604Y2917D01*
X1153Y2916D02*
X1604Y2916D01*
X1154Y2915D02*
X1604Y2915D01*
X1156Y2914D02*
X1604Y2914D01*
X1157Y2913D02*
X1604Y2913D01*
X1159Y2912D02*
X1605Y2912D01*
X1160Y2911D02*
X1605Y2911D01*
X1162Y2910D02*
X1605Y2910D01*
X1163Y2909D02*
X1605Y2909D01*
X1165Y2908D02*
X1605Y2908D01*
X1167Y2907D02*
X1606Y2907D01*
X1168Y2906D02*
X1606Y2906D01*
X1170Y2905D02*
X1606Y2905D01*
X1172Y2904D02*
X1606Y2904D01*
X1173Y2903D02*
X1606Y2903D01*
X1175Y2902D02*
X1607Y2902D01*
X1177Y2901D02*
X1607Y2901D01*
X1179Y2900D02*
X1607Y2900D01*
X1180Y2899D02*
X1607Y2899D01*
X1182Y2898D02*
X1607Y2898D01*
X1184Y2897D02*
X1608Y2897D01*
X1186Y2896D02*
X1608Y2896D01*
X1188Y2895D02*
X1608Y2895D01*
X1190Y2894D02*
X1608Y2894D01*
X1192Y2893D02*
X1608Y2893D01*
X1194Y2892D02*
X1609Y2892D01*
X1196Y2891D02*
X1609Y2891D01*
X1198Y2890D02*
X1609Y2890D01*
X1200Y2889D02*
X1609Y2889D01*
X1202Y2888D02*
X1609Y2888D01*
X1202Y2887D02*
X1610Y2887D01*
X1203Y2886D02*
X1610Y2886D01*
X1203Y2885D02*
X1610Y2885D01*
X1203Y2884D02*
X1610Y2884D01*
X1203Y2883D02*
X1610Y2883D01*
X1203Y2882D02*
X1611Y2882D01*
X1204Y2881D02*
X1611Y2881D01*
X1204Y2880D02*
X1611Y2880D01*
X1204Y2879D02*
X1611Y2879D01*
X1204Y2878D02*
X1611Y2878D01*
X1204Y2877D02*
X1612Y2877D01*
X1205Y2876D02*
X1612Y2876D01*
X1205Y2875D02*
X1612Y2875D01*
X1205Y2874D02*
X1612Y2874D01*
X1205Y2873D02*
X1612Y2873D01*
X1205Y2872D02*
X1612Y2872D01*
X1206Y2871D02*
X1613Y2871D01*
X1206Y2870D02*
X1613Y2870D01*
X1206Y2869D02*
X1613Y2869D01*
X1206Y2868D02*
X1613Y2868D01*
X1207Y2867D02*
X1613Y2867D01*
X1207Y2866D02*
X1614Y2866D01*
X1207Y2865D02*
X1614Y2865D01*
X1207Y2864D02*
X1614Y2864D01*
X1207Y2863D02*
X1614Y2863D01*
X1208Y2862D02*
X1614Y2862D01*
X1208Y2861D02*
X1615Y2861D01*
X1208Y2860D02*
X1615Y2860D01*
X1208Y2859D02*
X1615Y2859D01*
X1208Y2858D02*
X1615Y2858D01*
X1209Y2857D02*
X1615Y2857D01*
X1209Y2856D02*
X1616Y2856D01*
X1209Y2855D02*
X1616Y2855D01*
X1209Y2854D02*
X1616Y2854D01*
X1209Y2853D02*
X1616Y2853D01*
X1210Y2852D02*
X1616Y2852D01*
X1210Y2851D02*
X1617Y2851D01*
X1210Y2850D02*
X1617Y2850D01*
X1210Y2849D02*
X1617Y2849D01*
X1210Y2848D02*
X1617Y2848D01*
X1211Y2847D02*
X1617Y2847D01*
X1211Y2846D02*
X1618Y2846D01*
X1211Y2845D02*
X1618Y2845D01*
X1211Y2844D02*
X1618Y2844D01*
X1211Y2843D02*
X1618Y2843D01*
X1212Y2842D02*
X1618Y2842D01*
X1212Y2841D02*
X1619Y2841D01*
X1212Y2840D02*
X1619Y2840D01*
X1212Y2839D02*
X1619Y2839D01*
X1213Y2838D02*
X1619Y2838D01*
X1213Y2837D02*
X1619Y2837D01*
X1213Y2836D02*
X1620Y2836D01*
X1213Y2835D02*
X1620Y2835D01*
X1213Y2834D02*
X1620Y2834D01*
X1214Y2833D02*
X1620Y2833D01*
X1214Y2832D02*
X1620Y2832D01*
X1214Y2831D02*
X1620Y2831D01*
X1214Y2830D02*
X1621Y2830D01*
X1214Y2829D02*
X1621Y2829D01*
X1215Y2828D02*
X1621Y2828D01*
X1215Y2827D02*
X1621Y2827D01*
X1215Y2826D02*
X1621Y2826D01*
X1215Y2825D02*
X1622Y2825D01*
X1215Y2824D02*
X1622Y2824D01*
X1216Y2823D02*
X1622Y2823D01*
X1216Y2822D02*
X1622Y2822D01*
X1216Y2821D02*
X1622Y2821D01*
X1216Y2820D02*
X1623Y2820D01*
X1216Y2819D02*
X1623Y2819D01*
X1217Y2818D02*
X1623Y2818D01*
X1217Y2817D02*
X1623Y2817D01*
X1217Y2816D02*
X1623Y2816D01*
X1217Y2815D02*
X1624Y2815D01*
X1217Y2814D02*
X1624Y2814D01*
X1218Y2813D02*
X1624Y2813D01*
X1218Y2812D02*
X1624Y2812D01*
X1218Y2811D02*
X1624Y2811D01*
X1218Y2810D02*
X1625Y2810D01*
X1219Y2809D02*
X1625Y2809D01*
X1219Y2808D02*
X1625Y2808D01*
X1219Y2807D02*
X1625Y2807D01*
X1219Y2806D02*
X1625Y2806D01*
X1219Y2805D02*
X1626Y2805D01*
X1220Y2804D02*
X1626Y2804D01*
X1220Y2803D02*
X1626Y2803D01*
X1220Y2802D02*
X1626Y2802D01*
X1220Y2801D02*
X1626Y2801D01*
X1220Y2800D02*
X1627Y2800D01*
X1221Y2799D02*
X1627Y2799D01*
X1221Y2798D02*
X1627Y2798D01*
X1221Y2797D02*
X1627Y2797D01*
X1221Y2796D02*
X1627Y2796D01*
X1221Y2795D02*
X1628Y2795D01*
X1222Y2794D02*
X1628Y2794D01*
X1222Y2793D02*
X1628Y2793D01*
X1222Y2792D02*
X1628Y2792D01*
X1222Y2791D02*
X1628Y2791D01*
X1222Y2790D02*
X1628Y2790D01*
X1223Y2789D02*
X1629Y2789D01*
X1223Y2788D02*
X1629Y2788D01*
X1223Y2787D02*
X1629Y2787D01*
X1223Y2786D02*
X1629Y2786D01*
X1223Y2785D02*
X1629Y2785D01*
X1224Y2784D02*
X1630Y2784D01*
X1224Y2783D02*
X1630Y2783D01*
X1224Y2782D02*
X1630Y2782D01*
X1224Y2781D02*
X1630Y2781D01*
X1225Y2780D02*
X1630Y2780D01*
X1225Y2779D02*
X1631Y2779D01*
X1225Y2778D02*
X1631Y2778D01*
X1225Y2777D02*
X1631Y2777D01*
X1225Y2776D02*
X1631Y2776D01*
X1226Y2775D02*
X1631Y2775D01*
X1226Y2774D02*
X1632Y2774D01*
X1226Y2773D02*
X1632Y2773D01*
X1226Y2772D02*
X1632Y2772D01*
X1226Y2771D02*
X1632Y2771D01*
X1227Y2770D02*
X1632Y2770D01*
X1227Y2769D02*
X1633Y2769D01*
X1227Y2768D02*
X1633Y2768D01*
X1227Y2767D02*
X1633Y2767D01*
X1227Y2766D02*
X1633Y2766D01*
X1228Y2765D02*
X1633Y2765D01*
X1228Y2764D02*
X1634Y2764D01*
X1228Y2763D02*
X1634Y2763D01*
X1228Y2762D02*
X1634Y2762D01*
X1228Y2761D02*
X1634Y2761D01*
X1229Y2760D02*
X1634Y2760D01*
X1229Y2759D02*
X1635Y2759D01*
X1229Y2758D02*
X1635Y2758D01*
X1229Y2757D02*
X1635Y2757D01*
X1229Y2756D02*
X1635Y2756D01*
X1230Y2755D02*
X1635Y2755D01*
X1230Y2754D02*
X1636Y2754D01*
X1230Y2753D02*
X1636Y2753D01*
X1230Y2752D02*
X1636Y2752D01*
X1231Y2751D02*
X1636Y2751D01*
X1231Y2750D02*
X1636Y2750D01*
X1231Y2749D02*
X1636Y2749D01*
X1231Y2748D02*
X1637Y2748D01*
X1231Y2747D02*
X1637Y2747D01*
X1232Y2746D02*
X1637Y2746D01*
X1232Y2745D02*
X1637Y2745D01*
X1232Y2744D02*
X1637Y2744D01*
X1232Y2743D02*
X1638Y2743D01*
X1232Y2742D02*
X1638Y2742D01*
X1233Y2741D02*
X1638Y2741D01*
X1233Y2740D02*
X1638Y2740D01*
X1233Y2739D02*
X1638Y2739D01*
X1233Y2738D02*
X1639Y2738D01*
X1233Y2737D02*
X1639Y2737D01*
X1234Y2736D02*
X1639Y2736D01*
X1234Y2735D02*
X1639Y2735D01*
X1234Y2734D02*
X1639Y2734D01*
X1234Y2733D02*
X1640Y2733D01*
X1234Y2732D02*
X1640Y2732D01*
X1235Y2731D02*
X1640Y2731D01*
X1235Y2730D02*
X1640Y2730D01*
X1235Y2729D02*
X1640Y2729D01*
X1235Y2728D02*
X1641Y2728D01*
X1235Y2727D02*
X1641Y2727D01*
X1236Y2726D02*
X1641Y2726D01*
X1236Y2725D02*
X1641Y2725D01*
X1236Y2724D02*
X1641Y2724D01*
X1236Y2723D02*
X1642Y2723D01*
X1237Y2722D02*
X1642Y2722D01*
X1237Y2721D02*
X1642Y2721D01*
X1237Y2720D02*
X1642Y2720D01*
X1237Y2719D02*
X1642Y2719D01*
X1237Y2718D02*
X1643Y2718D01*
X1238Y2717D02*
X1643Y2717D01*
X1238Y2716D02*
X1643Y2716D01*
X1238Y2715D02*
X1643Y2715D01*
X1238Y2714D02*
X1643Y2714D01*
X1238Y2713D02*
X1644Y2713D01*
X1239Y2712D02*
X1644Y2712D01*
X1239Y2711D02*
X1644Y2711D01*
X1239Y2710D02*
X1644Y2710D01*
X1239Y2709D02*
X1644Y2709D01*
X1239Y2708D02*
X1644Y2708D01*
X1240Y2707D02*
X1645Y2707D01*
X1240Y2706D02*
X1645Y2706D01*
X1240Y2705D02*
X1645Y2705D01*
X1240Y2704D02*
X1645Y2704D01*
X1240Y2703D02*
X1645Y2703D01*
X1241Y2702D02*
X1646Y2702D01*
X1241Y2701D02*
X1646Y2701D01*
X1241Y2700D02*
X1646Y2700D01*
X1241Y2699D02*
X1646Y2699D01*
X1241Y2698D02*
X1646Y2698D01*
X1242Y2697D02*
X1647Y2697D01*
X1242Y2696D02*
X1647Y2696D01*
X1242Y2695D02*
X1647Y2695D01*
X1242Y2694D02*
X1647Y2694D01*
X1243Y2693D02*
X1647Y2693D01*
X1243Y2692D02*
X1648Y2692D01*
X1243Y2691D02*
X1648Y2691D01*
X1243Y2690D02*
X1648Y2690D01*
X1243Y2689D02*
X1648Y2689D01*
X1244Y2688D02*
X1648Y2688D01*
X1244Y2687D02*
X1649Y2687D01*
X1244Y2686D02*
X1649Y2686D01*
X1244Y2685D02*
X1649Y2685D01*
X1244Y2684D02*
X1649Y2684D01*
X1245Y2683D02*
X1649Y2683D01*
X1245Y2682D02*
X1650Y2682D01*
X1245Y2681D02*
X1650Y2681D01*
X1245Y2680D02*
X1650Y2680D01*
X1245Y2679D02*
X1650Y2679D01*
X1246Y2678D02*
X1650Y2678D01*
X1246Y2677D02*
X1651Y2677D01*
X1246Y2676D02*
X1651Y2676D01*
X1246Y2675D02*
X1651Y2675D01*
X1246Y2674D02*
X1651Y2674D01*
X1247Y2673D02*
X1651Y2673D01*
X1247Y2672D02*
X1652Y2672D01*
X1247Y2671D02*
X1652Y2671D01*
X1247Y2670D02*
X1652Y2670D01*
X1248Y2669D02*
X1652Y2669D01*
X1248Y2668D02*
X1652Y2668D01*
X1248Y2667D02*
X1652Y2667D01*
X1248Y2666D02*
X1653Y2666D01*
X1248Y2665D02*
X1653Y2665D01*
X1249Y2664D02*
X1653Y2664D01*
X1249Y2663D02*
X1653Y2663D01*
X1249Y2662D02*
X1653Y2662D01*
X1249Y2661D02*
X1654Y2661D01*
X1249Y2660D02*
X1654Y2660D01*
X1250Y2659D02*
X1654Y2659D01*
X1250Y2658D02*
X1654Y2658D01*
X1250Y2657D02*
X1654Y2657D01*
X1250Y2656D02*
X1655Y2656D01*
X1250Y2655D02*
X1655Y2655D01*
X1251Y2654D02*
X1655Y2654D01*
X1251Y2653D02*
X1655Y2653D01*
X1251Y2652D02*
X1655Y2652D01*
X1251Y2651D02*
X1656Y2651D01*
X1251Y2650D02*
X1656Y2650D01*
X1252Y2649D02*
X1656Y2649D01*
X1252Y2648D02*
X1656Y2648D01*
X1252Y2647D02*
X1656Y2647D01*
X1252Y2646D02*
X1657Y2646D01*
X1252Y2645D02*
X1657Y2645D01*
X1253Y2644D02*
X1657Y2644D01*
X1253Y2643D02*
X1657Y2643D01*
X1253Y2642D02*
X1657Y2642D01*
X1253Y2641D02*
X1658Y2641D01*
X1254Y2640D02*
X1658Y2640D01*
X1254Y2639D02*
X1658Y2639D01*
X1254Y2638D02*
X1658Y2638D01*
X1254Y2637D02*
X1658Y2637D01*
X1254Y2636D02*
X1659Y2636D01*
X1255Y2635D02*
X1659Y2635D01*
X1255Y2634D02*
X1659Y2634D01*
X1255Y2633D02*
X1659Y2633D01*
X1255Y2632D02*
X1659Y2632D01*
X1255Y2631D02*
X1660Y2631D01*
X1256Y2630D02*
X1660Y2630D01*
X1256Y2629D02*
X1660Y2629D01*
X1256Y2628D02*
X1660Y2628D01*
X1256Y2627D02*
X1660Y2627D01*
X1256Y2626D02*
X1660Y2626D01*
X1257Y2625D02*
X1661Y2625D01*
X1257Y2624D02*
X1661Y2624D01*
X1257Y2623D02*
X1661Y2623D01*
X1257Y2622D02*
X1661Y2622D01*
X1257Y2621D02*
X1661Y2621D01*
X1258Y2620D02*
X1662Y2620D01*
X1258Y2619D02*
X1662Y2619D01*
X1258Y2618D02*
X1662Y2618D01*
X1258Y2617D02*
X1662Y2617D01*
X1258Y2616D02*
X1662Y2616D01*
X1259Y2615D02*
X1663Y2615D01*
X1259Y2614D02*
X1663Y2614D01*
X1259Y2613D02*
X1663Y2613D01*
X1259Y2612D02*
X1663Y2612D01*
X1260Y2611D02*
X1663Y2611D01*
X1260Y2610D02*
X1664Y2610D01*
X1260Y2609D02*
X1664Y2609D01*
X1260Y2608D02*
X1664Y2608D01*
X1260Y2607D02*
X1664Y2607D01*
X1261Y2606D02*
X1664Y2606D01*
X1261Y2605D02*
X1665Y2605D01*
X1261Y2604D02*
X1665Y2604D01*
X1261Y2603D02*
X1665Y2603D01*
X1261Y2602D02*
X1665Y2602D01*
X1262Y2601D02*
X1665Y2601D01*
X1262Y2600D02*
X1666Y2600D01*
X1262Y2599D02*
X1666Y2599D01*
X1262Y2598D02*
X1666Y2598D01*
X1262Y2597D02*
X1666Y2597D01*
X1263Y2596D02*
X1666Y2596D01*
X1263Y2595D02*
X1667Y2595D01*
X1263Y2594D02*
X1667Y2594D01*
X1263Y2593D02*
X1667Y2593D01*
X1263Y2592D02*
X1667Y2592D01*
X1264Y2591D02*
X1667Y2591D01*
X1264Y2590D02*
X1668Y2590D01*
X1264Y2589D02*
X1668Y2589D01*
X1264Y2588D02*
X1668Y2588D01*
X1264Y2587D02*
X1668Y2587D01*
X1265Y2586D02*
X1668Y2586D01*
X1265Y2585D02*
X1668Y2585D01*
X1265Y2584D02*
X1669Y2584D01*
X1265Y2583D02*
X1669Y2583D01*
X1266Y2582D02*
X1669Y2582D01*
X1266Y2581D02*
X1669Y2581D01*
X1266Y2580D02*
X1669Y2580D01*
X1266Y2579D02*
X1670Y2579D01*
X1266Y2578D02*
X1670Y2578D01*
X1267Y2577D02*
X1670Y2577D01*
X1267Y2576D02*
X1670Y2576D01*
X1267Y2575D02*
X1670Y2575D01*
X1267Y2574D02*
X1671Y2574D01*
X1267Y2573D02*
X1671Y2573D01*
X1268Y2572D02*
X1671Y2572D01*
X1268Y2571D02*
X1671Y2571D01*
X1268Y2570D02*
X1671Y2570D01*
X1268Y2569D02*
X1672Y2569D01*
X1268Y2568D02*
X1672Y2568D01*
X1269Y2567D02*
X1672Y2567D01*
X1269Y2566D02*
X1672Y2566D01*
X1269Y2565D02*
X1672Y2565D01*
X1269Y2564D02*
X1673Y2564D01*
X1269Y2563D02*
X1673Y2563D01*
X1270Y2562D02*
X1673Y2562D01*
X1270Y2561D02*
X1673Y2561D01*
X1270Y2560D02*
X1673Y2560D01*
X1270Y2559D02*
X1674Y2559D01*
X1270Y2558D02*
X1674Y2558D01*
X1271Y2557D02*
X1674Y2557D01*
X1271Y2556D02*
X1674Y2556D01*
X1271Y2555D02*
X1674Y2555D01*
X1271Y2554D02*
X1675Y2554D01*
X1272Y2553D02*
X1675Y2553D01*
X1272Y2552D02*
X1675Y2552D01*
X1272Y2551D02*
X1675Y2551D01*
X1272Y2550D02*
X1675Y2550D01*
X1272Y2549D02*
X1676Y2549D01*
X1273Y2548D02*
X1676Y2548D01*
X1273Y2547D02*
X1676Y2547D01*
X1273Y2546D02*
X1676Y2546D01*
X1273Y2545D02*
X1676Y2545D01*
X1273Y2544D02*
X1676Y2544D01*
X1274Y2543D02*
X1677Y2543D01*
X1274Y2542D02*
X1677Y2542D01*
X1274Y2541D02*
X1677Y2541D01*
X1274Y2540D02*
X1677Y2540D01*
X1274Y2539D02*
X1677Y2539D01*
X1275Y2538D02*
X1678Y2538D01*
X1275Y2537D02*
X1678Y2537D01*
X1275Y2536D02*
X1678Y2536D01*
X1275Y2535D02*
X1678Y2535D01*
X1275Y2534D02*
X1678Y2534D01*
X1276Y2533D02*
X1679Y2533D01*
X1276Y2532D02*
X1679Y2532D01*
X1276Y2531D02*
X1679Y2531D01*
X1276Y2530D02*
X1679Y2530D01*
X1276Y2529D02*
X1679Y2529D01*
X1277Y2528D02*
X1680Y2528D01*
X1277Y2527D02*
X1680Y2527D01*
X1277Y2526D02*
X1680Y2526D01*
X1277Y2525D02*
X1680Y2525D01*
X1278Y2524D02*
X1680Y2524D01*
X1278Y2523D02*
X1681Y2523D01*
X1278Y2522D02*
X1681Y2522D01*
X1278Y2521D02*
X1681Y2521D01*
X1278Y2520D02*
X1681Y2520D01*
X1279Y2519D02*
X1681Y2519D01*
X1279Y2518D02*
X1682Y2518D01*
X1279Y2517D02*
X1682Y2517D01*
X1279Y2516D02*
X1682Y2516D01*
X1279Y2515D02*
X1682Y2515D01*
X1280Y2514D02*
X1682Y2514D01*
X1280Y2513D02*
X1683Y2513D01*
X1280Y2512D02*
X1683Y2512D01*
X1280Y2511D02*
X1683Y2511D01*
X1280Y2510D02*
X1683Y2510D01*
X1281Y2509D02*
X1683Y2509D01*
X1281Y2508D02*
X1684Y2508D01*
X1281Y2507D02*
X1684Y2507D01*
X1281Y2506D02*
X1684Y2506D01*
X1281Y2505D02*
X1684Y2505D01*
X1282Y2504D02*
X1684Y2504D01*
X1282Y2503D02*
X1684Y2503D01*
X1282Y2502D02*
X1685Y2502D01*
X1282Y2501D02*
X1685Y2501D01*
X1282Y2500D02*
X1685Y2500D01*
X1283Y2499D02*
X1685Y2499D01*
X1283Y2498D02*
X1685Y2498D01*
X1283Y2497D02*
X1686Y2497D01*
X1283Y2496D02*
X1686Y2496D01*
X1284Y2495D02*
X1686Y2495D01*
X1284Y2494D02*
X1686Y2494D01*
X1284Y2493D02*
X1686Y2493D01*
X1284Y2492D02*
X1687Y2492D01*
X1284Y2491D02*
X1687Y2491D01*
X1285Y2490D02*
X1687Y2490D01*
X1285Y2489D02*
X1687Y2489D01*
X1285Y2488D02*
X1687Y2488D01*
X1285Y2487D02*
X1688Y2487D01*
X1285Y2486D02*
X1688Y2486D01*
X1286Y2485D02*
X1688Y2485D01*
X1286Y2484D02*
X1688Y2484D01*
X1286Y2483D02*
X1688Y2483D01*
X1286Y2482D02*
X1689Y2482D01*
X1286Y2481D02*
X1689Y2481D01*
X1287Y2480D02*
X1689Y2480D01*
X1287Y2479D02*
X1689Y2479D01*
X1287Y2478D02*
X1689Y2478D01*
X1287Y2477D02*
X1690Y2477D01*
X1287Y2476D02*
X1690Y2476D01*
X1288Y2475D02*
X1690Y2475D01*
X1288Y2474D02*
X1690Y2474D01*
X1288Y2473D02*
X1690Y2473D01*
X1288Y2472D02*
X1691Y2472D01*
X1288Y2471D02*
X1691Y2471D01*
X1289Y2470D02*
X1691Y2470D01*
X1289Y2469D02*
X1691Y2469D01*
X1289Y2468D02*
X1691Y2468D01*
X1289Y2467D02*
X1692Y2467D01*
X1290Y2466D02*
X1692Y2466D01*
X1290Y2465D02*
X1692Y2465D01*
X1290Y2464D02*
X1692Y2464D01*
X1290Y2463D02*
X1692Y2463D01*
X1290Y2462D02*
X1692Y2462D01*
X1291Y2461D02*
X1693Y2461D01*
X1291Y2460D02*
X1693Y2460D01*
X1291Y2459D02*
X1693Y2459D01*
X1291Y2458D02*
X1693Y2458D01*
X1291Y2457D02*
X1693Y2457D01*
X1292Y2456D02*
X1694Y2456D01*
X1292Y2455D02*
X1694Y2455D01*
X1292Y2454D02*
X1694Y2454D01*
X1292Y2453D02*
X1694Y2453D01*
X1292Y2452D02*
X1694Y2452D01*
X1293Y2451D02*
X1695Y2451D01*
X1293Y2450D02*
X1695Y2450D01*
X1293Y2449D02*
X1695Y2449D01*
X1293Y2448D02*
X1695Y2448D01*
X1293Y2447D02*
X1695Y2447D01*
X1294Y2446D02*
X1696Y2446D01*
X1294Y2445D02*
X1696Y2445D01*
X1294Y2444D02*
X1696Y2444D01*
X1294Y2443D02*
X1696Y2443D01*
X1295Y2442D02*
X1696Y2442D01*
X1295Y2441D02*
X1697Y2441D01*
X1295Y2440D02*
X1697Y2440D01*
X1295Y2439D02*
X1697Y2439D01*
X1295Y2438D02*
X1697Y2438D01*
X1296Y2437D02*
X1697Y2437D01*
X1296Y2436D02*
X1698Y2436D01*
X1296Y2435D02*
X1698Y2435D01*
X1296Y2434D02*
X1698Y2434D01*
X1296Y2433D02*
X1698Y2433D01*
X1297Y2432D02*
X1698Y2432D01*
X1297Y2431D02*
X1699Y2431D01*
X1297Y2430D02*
X1699Y2430D01*
X1297Y2429D02*
X1699Y2429D01*
X1297Y2428D02*
X1699Y2428D01*
X1298Y2427D02*
X1699Y2427D01*
X1298Y2426D02*
X1700Y2426D01*
X1298Y2425D02*
X1700Y2425D01*
X1298Y2424D02*
X1700Y2424D01*
X1298Y2423D02*
X1700Y2423D01*
X1299Y2422D02*
X1700Y2422D01*
X1299Y2421D02*
X1701Y2421D01*
X1299Y2420D02*
X1701Y2420D01*
X1299Y2419D02*
X1701Y2419D01*
X1299Y2418D02*
X1701Y2418D01*
X1300Y2417D02*
X1701Y2417D01*
X1300Y2416D02*
X1701Y2416D01*
X1300Y2415D02*
X1702Y2415D01*
X1300Y2414D02*
X1702Y2414D01*
X1301Y2413D02*
X1702Y2413D01*
X1301Y2412D02*
X1702Y2412D01*
X1301Y2411D02*
X1702Y2411D01*
X1301Y2410D02*
X1703Y2410D01*
X1301Y2409D02*
X1703Y2409D01*
X1302Y2408D02*
X1703Y2408D01*
X1302Y2407D02*
X1703Y2407D01*
X1302Y2406D02*
X1703Y2406D01*
X1302Y2405D02*
X1704Y2405D01*
X1302Y2404D02*
X1704Y2404D01*
X1303Y2403D02*
X1704Y2403D01*
X1303Y2402D02*
X1704Y2402D01*
X1303Y2401D02*
X1704Y2401D01*
X1303Y2400D02*
X1705Y2400D01*
X1303Y2399D02*
X1705Y2399D01*
X1304Y2398D02*
X1705Y2398D01*
X1304Y2397D02*
X1705Y2397D01*
X1304Y2396D02*
X1705Y2396D01*
X1304Y2395D02*
X1706Y2395D01*
X1304Y2394D02*
X1706Y2394D01*
X1305Y2393D02*
X1706Y2393D01*
X1305Y2392D02*
X1706Y2392D01*
X1305Y2391D02*
X1706Y2391D01*
X1305Y2390D02*
X1707Y2390D01*
X1305Y2389D02*
X1707Y2389D01*
X1306Y2388D02*
X1707Y2388D01*
X1306Y2387D02*
X1707Y2387D01*
X1306Y2386D02*
X1707Y2386D01*
X1306Y2385D02*
X1708Y2385D01*
X1307Y2384D02*
X1708Y2384D01*
X1307Y2383D02*
X1708Y2383D01*
X1307Y2382D02*
X1708Y2382D01*
X1307Y2381D02*
X1708Y2381D01*
X1307Y2380D02*
X1709Y2380D01*
X1308Y2379D02*
X1709Y2379D01*
X1308Y2378D02*
X1709Y2378D01*
X1308Y2377D02*
X1709Y2377D01*
X1308Y2376D02*
X1709Y2376D01*
X1308Y2375D02*
X1709Y2375D01*
X1309Y2374D02*
X1710Y2374D01*
X1309Y2373D02*
X1710Y2373D01*
X1309Y2372D02*
X1710Y2372D01*
X1309Y2371D02*
X1710Y2371D01*
X1309Y2370D02*
X1710Y2370D01*
X1310Y2369D02*
X1711Y2369D01*
X1310Y2368D02*
X1711Y2368D01*
X1310Y2367D02*
X1711Y2367D01*
X1310Y2366D02*
X1711Y2366D01*
X1310Y2365D02*
X1711Y2365D01*
X1311Y2364D02*
X1712Y2364D01*
X1311Y2363D02*
X1712Y2363D01*
X1311Y2362D02*
X1712Y2362D01*
X1311Y2361D02*
X1712Y2361D01*
X1311Y2360D02*
X1712Y2360D01*
X1312Y2359D02*
X1713Y2359D01*
X1312Y2358D02*
X1713Y2358D01*
X1312Y2357D02*
X1713Y2357D01*
X1312Y2356D02*
X1713Y2356D01*
X1313Y2355D02*
X1713Y2355D01*
X1313Y2354D02*
X1714Y2354D01*
X1313Y2353D02*
X1714Y2353D01*
X1313Y2352D02*
X1714Y2352D01*
X1313Y2351D02*
X1714Y2351D01*
X1314Y2350D02*
X1714Y2350D01*
X1314Y2349D02*
X1715Y2349D01*
X1314Y2348D02*
X1715Y2348D01*
X1314Y2347D02*
X1715Y2347D01*
X1314Y2346D02*
X1715Y2346D01*
X1315Y2345D02*
X1715Y2345D01*
X1315Y2344D02*
X1716Y2344D01*
X1315Y2343D02*
X1716Y2343D01*
X1315Y2342D02*
X1716Y2342D01*
X1315Y2341D02*
X1716Y2341D01*
X1316Y2340D02*
X1716Y2340D01*
X1316Y2339D02*
X1717Y2339D01*
X1316Y2338D02*
X1717Y2338D01*
X1316Y2337D02*
X1717Y2337D01*
X1316Y2336D02*
X1717Y2336D01*
X1317Y2335D02*
X1717Y2335D01*
X1317Y2334D02*
X1717Y2334D01*
X1317Y2333D02*
X1718Y2333D01*
X1317Y2332D02*
X1718Y2332D01*
X1317Y2331D02*
X1718Y2331D01*
X1318Y2330D02*
X1718Y2330D01*
X1318Y2329D02*
X1718Y2329D01*
X1318Y2328D02*
X1719Y2328D01*
X1318Y2327D02*
X1719Y2327D01*
X1319Y2326D02*
X1719Y2326D01*
X1319Y2325D02*
X1719Y2325D01*
X1319Y2324D02*
X1719Y2324D01*
X1319Y2323D02*
X1720Y2323D01*
X1319Y2322D02*
X1720Y2322D01*
X1320Y2321D02*
X1720Y2321D01*
X1320Y2320D02*
X1720Y2320D01*
X1320Y2319D02*
X1720Y2319D01*
X1320Y2318D02*
X1721Y2318D01*
X1320Y2317D02*
X1721Y2317D01*
X1321Y2316D02*
X1721Y2316D01*
X1321Y2315D02*
X1721Y2315D01*
X1321Y2314D02*
X1721Y2314D01*
X1321Y2313D02*
X1722Y2313D01*
X1321Y2312D02*
X1722Y2312D01*
X1322Y2311D02*
X1722Y2311D01*
X1322Y2310D02*
X1722Y2310D01*
X1322Y2309D02*
X1722Y2309D01*
X1322Y2308D02*
X1723Y2308D01*
X1322Y2307D02*
X1723Y2307D01*
X1323Y2306D02*
X1723Y2306D01*
X1323Y2305D02*
X1723Y2305D01*
X1323Y2304D02*
X1723Y2304D01*
X1323Y2303D02*
X1724Y2303D01*
X1323Y2302D02*
X1724Y2302D01*
X1324Y2301D02*
X1724Y2301D01*
X1324Y2300D02*
X1724Y2300D01*
X1324Y2299D02*
X1724Y2299D01*
X1324Y2298D02*
X1725Y2298D01*
X1325Y2297D02*
X1725Y2297D01*
X1325Y2296D02*
X1725Y2296D01*
X1325Y2295D02*
X1725Y2295D01*
X1325Y2294D02*
X1725Y2294D01*
X1325Y2293D02*
X1725Y2293D01*
X1326Y2292D02*
X1726Y2292D01*
X1326Y2291D02*
X1726Y2291D01*
X1326Y2290D02*
X1726Y2290D01*
X1326Y2289D02*
X1726Y2289D01*
X1326Y2288D02*
X1726Y2288D01*
X1327Y2287D02*
X1727Y2287D01*
X1327Y2286D02*
X1727Y2286D01*
X1327Y2285D02*
X1727Y2285D01*
X1327Y2284D02*
X1727Y2284D01*
X1327Y2283D02*
X1727Y2283D01*
X1328Y2282D02*
X1728Y2282D01*
X1328Y2281D02*
X1728Y2281D01*
X1328Y2280D02*
X1728Y2280D01*
X1328Y2279D02*
X1728Y2279D01*
X1328Y2278D02*
X1728Y2278D01*
X1329Y2277D02*
X1729Y2277D01*
X1329Y2276D02*
X1729Y2276D01*
X1329Y2275D02*
X1729Y2275D01*
X1329Y2274D02*
X1729Y2274D01*
X1329Y2273D02*
X1729Y2273D01*
X1330Y2272D02*
X1730Y2272D01*
X1330Y2271D02*
X1730Y2271D01*
X1330Y2270D02*
X1730Y2270D01*
X1330Y2269D02*
X1730Y2269D01*
X1331Y2268D02*
X1730Y2268D01*
X1331Y2267D02*
X1731Y2267D01*
X1331Y2266D02*
X1731Y2266D01*
X1331Y2265D02*
X1731Y2265D01*
X1331Y2264D02*
X1731Y2264D01*
X1332Y2263D02*
X1731Y2263D01*
X1332Y2262D02*
X1732Y2262D01*
X1332Y2261D02*
X1732Y2261D01*
X1332Y2260D02*
X1732Y2260D01*
X1332Y2259D02*
X1732Y2259D01*
X1333Y2258D02*
X1732Y2258D01*
X1333Y2257D02*
X1733Y2257D01*
X1333Y2256D02*
X1733Y2256D01*
X1333Y2255D02*
X1733Y2255D01*
X1333Y2254D02*
X1733Y2254D01*
X1334Y2253D02*
X1733Y2253D01*
X1334Y2252D02*
X1733Y2252D01*
X1334Y2251D02*
X1734Y2251D01*
X1334Y2250D02*
X1734Y2250D01*
X1334Y2249D02*
X1734Y2249D01*
X1335Y2248D02*
X1734Y2248D01*
X1335Y2247D02*
X1734Y2247D01*
X1335Y2246D02*
X1735Y2246D01*
X1335Y2245D02*
X1735Y2245D01*
X1335Y2244D02*
X1735Y2244D01*
X1336Y2243D02*
X1735Y2243D01*
X1336Y2242D02*
X1735Y2242D01*
X1336Y2241D02*
X1736Y2241D01*
X1336Y2240D02*
X1736Y2240D01*
X1337Y2239D02*
X1736Y2239D01*
X1337Y2238D02*
X1736Y2238D01*
X1337Y2237D02*
X1736Y2237D01*
X1337Y2236D02*
X1737Y2236D01*
X1337Y2235D02*
X1737Y2235D01*
X1338Y2234D02*
X1737Y2234D01*
X1338Y2233D02*
X1737Y2233D01*
X1338Y2232D02*
X1737Y2232D01*
X1338Y2231D02*
X1738Y2231D01*
X1338Y2230D02*
X1738Y2230D01*
X1339Y2229D02*
X1738Y2229D01*
X1339Y2228D02*
X1738Y2228D01*
X1339Y2227D02*
X1738Y2227D01*
X1339Y2226D02*
X1739Y2226D01*
X1339Y2225D02*
X1739Y2225D01*
X1340Y2224D02*
X1739Y2224D01*
X1340Y2223D02*
X1739Y2223D01*
X1340Y2222D02*
X1739Y2222D01*
X1340Y2221D02*
X1740Y2221D01*
X1340Y2220D02*
X1740Y2220D01*
X1341Y2219D02*
X1740Y2219D01*
X1341Y2218D02*
X1740Y2218D01*
X1341Y2217D02*
X1740Y2217D01*
X1341Y2216D02*
X1741Y2216D01*
X1342Y2215D02*
X1741Y2215D01*
X1342Y2214D02*
X1741Y2214D01*
X1342Y2213D02*
X1741Y2213D01*
X1342Y2212D02*
X1741Y2212D01*
X1342Y2211D02*
X1741Y2211D01*
X1343Y2210D02*
X1742Y2210D01*
X1343Y2209D02*
X1742Y2209D01*
X1343Y2208D02*
X1742Y2208D01*
X1343Y2207D02*
X1742Y2207D01*
X1343Y2206D02*
X1742Y2206D01*
X1344Y2205D02*
X1743Y2205D01*
X1344Y2204D02*
X1743Y2204D01*
X1344Y2203D02*
X1743Y2203D01*
X1344Y2202D02*
X1743Y2202D01*
X1344Y2201D02*
X1743Y2201D01*
X1345Y2200D02*
X1744Y2200D01*
X1345Y2199D02*
X1744Y2199D01*
X1345Y2198D02*
X1744Y2198D01*
X1345Y2197D02*
X1744Y2197D01*
X1345Y2196D02*
X1744Y2196D01*
X1346Y2195D02*
X1745Y2195D01*
X1346Y2194D02*
X1745Y2194D01*
X1346Y2193D02*
X1745Y2193D01*
X1346Y2192D02*
X1745Y2192D01*
X1346Y2191D02*
X1745Y2191D01*
X1347Y2190D02*
X1746Y2190D01*
X1347Y2189D02*
X1746Y2189D01*
X1347Y2188D02*
X1746Y2188D01*
X1347Y2187D02*
X1746Y2187D01*
X1348Y2186D02*
X1746Y2186D01*
X1348Y2185D02*
X1747Y2185D01*
X1348Y2184D02*
X1747Y2184D01*
X1348Y2183D02*
X1747Y2183D01*
X1348Y2182D02*
X1747Y2182D01*
X1349Y2181D02*
X1747Y2181D01*
X1349Y2180D02*
X1748Y2180D01*
X1349Y2179D02*
X1748Y2179D01*
X1349Y2178D02*
X1748Y2178D01*
X1349Y2177D02*
X1748Y2177D01*
X1350Y2176D02*
X1748Y2176D01*
X1350Y2175D02*
X1749Y2175D01*
X1350Y2174D02*
X1749Y2174D01*
X1350Y2173D02*
X1749Y2173D01*
X1350Y2172D02*
X1749Y2172D01*
X1351Y2171D02*
X1749Y2171D01*
X1351Y2170D02*
X1749Y2170D01*
X1351Y2169D02*
X1750Y2169D01*
X1351Y2168D02*
X1750Y2168D01*
X1351Y2167D02*
X1750Y2167D01*
X1352Y2166D02*
X1750Y2166D01*
X1352Y2165D02*
X1750Y2165D01*
X1352Y2164D02*
X1751Y2164D01*
X1352Y2163D02*
X1751Y2163D01*
X1352Y2162D02*
X1751Y2162D01*
X1353Y2161D02*
X1751Y2161D01*
X1353Y2160D02*
X1751Y2160D01*
X1353Y2159D02*
X1752Y2159D01*
X1353Y2158D02*
X1752Y2158D01*
X1354Y2157D02*
X1752Y2157D01*
X1354Y2156D02*
X1752Y2156D01*
X1354Y2155D02*
X1752Y2155D01*
X1354Y2154D02*
X1753Y2154D01*
X1354Y2153D02*
X1753Y2153D01*
X1355Y2152D02*
X1753Y2152D01*
X1355Y2151D02*
X1753Y2151D01*
X1355Y2150D02*
X1753Y2150D01*
X1355Y2149D02*
X1754Y2149D01*
X1355Y2148D02*
X1754Y2148D01*
X1356Y2147D02*
X1754Y2147D01*
X1356Y2146D02*
X1754Y2146D01*
X1356Y2145D02*
X1754Y2145D01*
X1356Y2144D02*
X1755Y2144D01*
X1356Y2143D02*
X1755Y2143D01*
X1357Y2142D02*
X1755Y2142D01*
X1357Y2141D02*
X1755Y2141D01*
X1357Y2140D02*
X1755Y2140D01*
X1357Y2139D02*
X1756Y2139D01*
X1357Y2138D02*
X1756Y2138D01*
X1358Y2137D02*
X1756Y2137D01*
X1358Y2136D02*
X1756Y2136D01*
X1358Y2135D02*
X1756Y2135D01*
X1358Y2134D02*
X1757Y2134D01*
X1358Y2133D02*
X1757Y2133D01*
X1359Y2132D02*
X1757Y2132D01*
X1359Y2131D02*
X1757Y2131D01*
X1359Y2130D02*
X1757Y2130D01*
X1359Y2129D02*
X1757Y2129D01*
X1360Y2128D02*
X1758Y2128D01*
X1360Y2127D02*
X1758Y2127D01*
X1360Y2126D02*
X1758Y2126D01*
X1360Y2125D02*
X1758Y2125D01*
X1360Y2124D02*
X1758Y2124D01*
X1361Y2123D02*
X1759Y2123D01*
X1361Y2122D02*
X1759Y2122D01*
X1361Y2121D02*
X1759Y2121D01*
X1361Y2120D02*
X1759Y2120D01*
X1361Y2119D02*
X1759Y2119D01*
X1362Y2118D02*
X1760Y2118D01*
X1362Y2117D02*
X1760Y2117D01*
X1362Y2116D02*
X1760Y2116D01*
X1362Y2115D02*
X1760Y2115D01*
X1362Y2114D02*
X1760Y2114D01*
X1363Y2113D02*
X1761Y2113D01*
X1363Y2112D02*
X1761Y2112D01*
X1363Y2111D02*
X1761Y2111D01*
X1363Y2110D02*
X1761Y2110D01*
X1363Y2109D02*
X1761Y2109D01*
X1364Y2108D02*
X1762Y2108D01*
X1364Y2107D02*
X1762Y2107D01*
X1364Y2106D02*
X1762Y2106D01*
X1364Y2105D02*
X1762Y2105D01*
X1364Y2104D02*
X1762Y2104D01*
X1365Y2103D02*
X1763Y2103D01*
X1365Y2102D02*
X1763Y2102D01*
X1365Y2101D02*
X1763Y2101D01*
X1365Y2100D02*
X1763Y2100D01*
X1366Y2099D02*
X1763Y2099D01*
X1366Y2098D02*
X1764Y2098D01*
X1366Y2097D02*
X1764Y2097D01*
X1366Y2096D02*
X1764Y2096D01*
X1366Y2095D02*
X1764Y2095D01*
X1367Y2094D02*
X1764Y2094D01*
X1367Y2093D02*
X1765Y2093D01*
X1367Y2092D02*
X1765Y2092D01*
X1367Y2091D02*
X1765Y2091D01*
X1367Y2090D02*
X1765Y2090D01*
X1368Y2089D02*
X1765Y2089D01*
X1368Y2088D02*
X1765Y2088D01*
X1368Y2087D02*
X1766Y2087D01*
X1368Y2086D02*
X1766Y2086D01*
X1368Y2085D02*
X1766Y2085D01*
X1369Y2084D02*
X1766Y2084D01*
X1369Y2083D02*
X1766Y2083D01*
X1369Y2082D02*
X1767Y2082D01*
X1369Y2081D02*
X1767Y2081D01*
X1369Y2080D02*
X1767Y2080D01*
X1370Y2079D02*
X1767Y2079D01*
X1370Y2078D02*
X1767Y2078D01*
X1370Y2077D02*
X1768Y2077D01*
X1370Y2076D02*
X1768Y2076D01*
X1370Y2075D02*
X1768Y2075D01*
X1371Y2074D02*
X1768Y2074D01*
X1371Y2073D02*
X1768Y2073D01*
X1371Y2072D02*
X1769Y2072D01*
X1371Y2071D02*
X1769Y2071D01*
X1372Y2070D02*
X1769Y2070D01*
X1372Y2069D02*
X1769Y2069D01*
X1372Y2068D02*
X1769Y2068D01*
X1372Y2067D02*
X1770Y2067D01*
X1372Y2066D02*
X1770Y2066D01*
X1373Y2065D02*
X1770Y2065D01*
X1373Y2064D02*
X1770Y2064D01*
X1373Y2063D02*
X1770Y2063D01*
X1373Y2062D02*
X1771Y2062D01*
X1373Y2061D02*
X1771Y2061D01*
X1374Y2060D02*
X1771Y2060D01*
X1374Y2059D02*
X1771Y2059D01*
X1374Y2058D02*
X1771Y2058D01*
X1374Y2057D02*
X1772Y2057D01*
X1374Y2056D02*
X1772Y2056D01*
X1375Y2055D02*
X1772Y2055D01*
X1375Y2054D02*
X1772Y2054D01*
X1375Y2053D02*
X1772Y2053D01*
X1375Y2052D02*
X1773Y2052D01*
X1375Y2051D02*
X1773Y2051D01*
X1376Y2050D02*
X1773Y2050D01*
X1376Y2049D02*
X1773Y2049D01*
X1376Y2048D02*
X1773Y2048D01*
X1376Y2047D02*
X1773Y2047D01*
X1376Y2046D02*
X1774Y2046D01*
X1377Y2045D02*
X1774Y2045D01*
X1377Y2044D02*
X1774Y2044D01*
X1377Y2043D02*
X1774Y2043D01*
X1377Y2042D02*
X1774Y2042D01*
X1378Y2041D02*
X1775Y2041D01*
X1378Y2040D02*
X1775Y2040D01*
X1378Y2039D02*
X1775Y2039D01*
X1378Y2038D02*
X1775Y2038D01*
X1378Y2037D02*
X1775Y2037D01*
X1379Y2036D02*
X1776Y2036D01*
X1379Y2035D02*
X1776Y2035D01*
X1379Y2034D02*
X1776Y2034D01*
X1379Y2033D02*
X1776Y2033D01*
X1379Y2032D02*
X1776Y2032D01*
X1380Y2031D02*
X1777Y2031D01*
X1380Y2030D02*
X1777Y2030D01*
X1380Y2029D02*
X1777Y2029D01*
X1380Y2028D02*
X1777Y2028D01*
X1380Y2027D02*
X1777Y2027D01*
X1381Y2026D02*
X1778Y2026D01*
X1381Y2025D02*
X1778Y2025D01*
X1381Y2024D02*
X1778Y2024D01*
X1381Y2023D02*
X1778Y2023D01*
X1381Y2022D02*
X1778Y2022D01*
X1382Y2021D02*
X1779Y2021D01*
X1382Y2020D02*
X1779Y2020D01*
X1382Y2019D02*
X1779Y2019D01*
X1382Y2018D02*
X1779Y2018D01*
X1383Y2017D02*
X1779Y2017D01*
X1383Y2016D02*
X1780Y2016D01*
X1383Y2015D02*
X1780Y2015D01*
X1383Y2014D02*
X1780Y2014D01*
X1383Y2013D02*
X1780Y2013D01*
X1384Y2012D02*
X1780Y2012D01*
X1384Y2011D02*
X1781Y2011D01*
X1384Y2010D02*
X1781Y2010D01*
X1384Y2009D02*
X1781Y2009D01*
X1384Y2008D02*
X1781Y2008D01*
X1385Y2007D02*
X1781Y2007D01*
X1385Y2006D02*
X1781Y2006D01*
X1385Y2005D02*
X1782Y2005D01*
X1385Y2004D02*
X1782Y2004D01*
X1385Y2003D02*
X1782Y2003D01*
X1386Y2002D02*
X1782Y2002D01*
X1386Y2001D02*
X1782Y2001D01*
X1386Y2000D02*
X1783Y2000D01*
X1386Y1999D02*
X1783Y1999D01*
X1386Y1998D02*
X1783Y1998D01*
X1387Y1997D02*
X1783Y1997D01*
X1387Y1996D02*
X1783Y1996D01*
X1387Y1995D02*
X1784Y1995D01*
X1387Y1994D02*
X1784Y1994D01*
X1387Y1993D02*
X1784Y1993D01*
X1388Y1992D02*
X1784Y1992D01*
X1388Y1991D02*
X1784Y1991D01*
X1388Y1990D02*
X1785Y1990D01*
X1388Y1989D02*
X1785Y1989D01*
X1389Y1988D02*
X1785Y1988D01*
X1389Y1987D02*
X1785Y1987D01*
X1389Y1986D02*
X1785Y1986D01*
X1389Y1985D02*
X1786Y1985D01*
X1389Y1984D02*
X1786Y1984D01*
X1390Y1983D02*
X1786Y1983D01*
X1390Y1982D02*
X1786Y1982D01*
X1390Y1981D02*
X1786Y1981D01*
X1390Y1980D02*
X1787Y1980D01*
X1390Y1979D02*
X1787Y1979D01*
X1391Y1978D02*
X1787Y1978D01*
X1391Y1977D02*
X1787Y1977D01*
X1391Y1976D02*
X1787Y1976D01*
X1391Y1975D02*
X1788Y1975D01*
X1391Y1974D02*
X1788Y1974D01*
X1392Y1973D02*
X1788Y1973D01*
X1392Y1972D02*
X1788Y1972D01*
X1392Y1971D02*
X1788Y1971D01*
X1392Y1970D02*
X1789Y1970D01*
X1392Y1969D02*
X1789Y1969D01*
X1393Y1968D02*
X1789Y1968D01*
X1393Y1967D02*
X1789Y1967D01*
X1393Y1966D02*
X1789Y1966D01*
X1393Y1965D02*
X1789Y1965D01*
X1393Y1964D02*
X1790Y1964D01*
X1394Y1963D02*
X1790Y1963D01*
X1394Y1962D02*
X1790Y1962D01*
X1394Y1961D02*
X1790Y1961D01*
X1394Y1960D02*
X1790Y1960D01*
X1395Y1959D02*
X1791Y1959D01*
X1395Y1958D02*
X1791Y1958D01*
X1395Y1957D02*
X1791Y1957D01*
X1395Y1956D02*
X1791Y1956D01*
X1395Y1955D02*
X1791Y1955D01*
X1395Y1954D02*
X1792Y1954D01*
X1394Y1953D02*
X1792Y1953D01*
X1394Y1952D02*
X1792Y1952D01*
X1394Y1951D02*
X1792Y1951D01*
X1394Y1950D02*
X1792Y1950D01*
X1393Y1949D02*
X1793Y1949D01*
X1393Y1948D02*
X1793Y1948D01*
X1393Y1947D02*
X1793Y1947D01*
X1392Y1946D02*
X1793Y1946D01*
X1392Y1945D02*
X1793Y1945D01*
X1392Y1944D02*
X1794Y1944D01*
X1391Y1943D02*
X1794Y1943D01*
X1391Y1942D02*
X1794Y1942D01*
X1391Y1941D02*
X1794Y1941D01*
X1391Y1940D02*
X1794Y1940D01*
X1390Y1939D02*
X1795Y1939D01*
X1390Y1938D02*
X1795Y1938D01*
X1390Y1937D02*
X1794Y1937D01*
X1389Y1936D02*
X1794Y1936D01*
X1389Y1935D02*
X1793Y1935D01*
X1389Y1934D02*
X1793Y1934D01*
X1388Y1933D02*
X1793Y1933D01*
X1388Y1932D02*
X1792Y1932D01*
X1388Y1931D02*
X1792Y1931D01*
X1388Y1930D02*
X1791Y1930D01*
X1387Y1929D02*
X1791Y1929D01*
X1387Y1928D02*
X1790Y1928D01*
X1387Y1927D02*
X1790Y1927D01*
X1386Y1926D02*
X1790Y1926D01*
X1386Y1925D02*
X1789Y1925D01*
X1386Y1924D02*
X1789Y1924D01*
X1386Y1923D02*
X1788Y1923D01*
X1385Y1922D02*
X1788Y1922D01*
X1385Y1921D02*
X1788Y1921D01*
X1385Y1920D02*
X1787Y1920D01*
X1384Y1919D02*
X1787Y1919D01*
X1384Y1918D02*
X1786Y1918D01*
X1384Y1917D02*
X1786Y1917D01*
X1383Y1916D02*
X1785Y1916D01*
X1383Y1915D02*
X1785Y1915D01*
X1383Y1914D02*
X1785Y1914D01*
X1383Y1913D02*
X1784Y1913D01*
X1382Y1912D02*
X1784Y1912D01*
X1382Y1911D02*
X1783Y1911D01*
X1382Y1910D02*
X1783Y1910D01*
X1381Y1909D02*
X1782Y1909D01*
X1381Y1908D02*
X1782Y1908D01*
X1381Y1907D02*
X1782Y1907D01*
X1381Y1906D02*
X1781Y1906D01*
X1380Y1905D02*
X1781Y1905D01*
X1380Y1904D02*
X1780Y1904D01*
X1380Y1903D02*
X1780Y1903D01*
X1379Y1902D02*
X1780Y1902D01*
X1379Y1901D02*
X1779Y1901D01*
X1379Y1900D02*
X1779Y1900D01*
X1378Y1899D02*
X1778Y1899D01*
X1378Y1898D02*
X1778Y1898D01*
X1378Y1897D02*
X1777Y1897D01*
X1378Y1896D02*
X1777Y1896D01*
X1377Y1895D02*
X1777Y1895D01*
X1377Y1894D02*
X1776Y1894D01*
X1377Y1893D02*
X1776Y1893D01*
X1376Y1892D02*
X1775Y1892D01*
X1376Y1891D02*
X1775Y1891D01*
X1376Y1890D02*
X1774Y1890D01*
X1376Y1889D02*
X1774Y1889D01*
X1375Y1888D02*
X1774Y1888D01*
X1375Y1887D02*
X1773Y1887D01*
X1375Y1886D02*
X1773Y1886D01*
X1374Y1885D02*
X1772Y1885D01*
X1374Y1884D02*
X1772Y1884D01*
X1374Y1883D02*
X1772Y1883D01*
X1373Y1882D02*
X1771Y1882D01*
X1373Y1881D02*
X1771Y1881D01*
X1373Y1880D02*
X1770Y1880D01*
X1373Y1879D02*
X1770Y1879D01*
X1372Y1878D02*
X1769Y1878D01*
X1372Y1877D02*
X1769Y1877D01*
X1372Y1876D02*
X1769Y1876D01*
X1371Y1875D02*
X1768Y1875D01*
X1371Y1874D02*
X1768Y1874D01*
X1371Y1873D02*
X1767Y1873D01*
X1371Y1872D02*
X1767Y1872D01*
X1370Y1871D02*
X1766Y1871D01*
X1370Y1870D02*
X1766Y1870D01*
X1370Y1869D02*
X1766Y1869D01*
X1369Y1868D02*
X1765Y1868D01*
X1369Y1867D02*
X1765Y1867D01*
X1369Y1866D02*
X1764Y1866D01*
X1368Y1865D02*
X1764Y1865D01*
X1368Y1864D02*
X1764Y1864D01*
X1368Y1863D02*
X1763Y1863D01*
X1368Y1862D02*
X1763Y1862D01*
X1367Y1861D02*
X1762Y1861D01*
X1367Y1860D02*
X1762Y1860D01*
X1367Y1859D02*
X1761Y1859D01*
X1366Y1858D02*
X1761Y1858D01*
X1366Y1857D02*
X1761Y1857D01*
X1366Y1856D02*
X1760Y1856D01*
X1366Y1855D02*
X1760Y1855D01*
X1365Y1854D02*
X1759Y1854D01*
X1365Y1853D02*
X1759Y1853D01*
X1365Y1852D02*
X1758Y1852D01*
X1364Y1851D02*
X1758Y1851D01*
X1364Y1850D02*
X1758Y1850D01*
X1364Y1849D02*
X1757Y1849D01*
X1363Y1848D02*
X1757Y1848D01*
X1363Y1847D02*
X1756Y1847D01*
X1363Y1846D02*
X1756Y1846D01*
X1363Y1845D02*
X1756Y1845D01*
X1362Y1844D02*
X1755Y1844D01*
X1362Y1843D02*
X1755Y1843D01*
X1362Y1842D02*
X1754Y1842D01*
X1361Y1841D02*
X1754Y1841D01*
X1361Y1840D02*
X1753Y1840D01*
X1361Y1839D02*
X1753Y1839D01*
X1361Y1838D02*
X1753Y1838D01*
X1360Y1837D02*
X1752Y1837D01*
X1360Y1836D02*
X1752Y1836D01*
X1360Y1835D02*
X1751Y1835D01*
X1359Y1834D02*
X1751Y1834D01*
X1359Y1833D02*
X1750Y1833D01*
X1359Y1832D02*
X1750Y1832D01*
X1358Y1831D02*
X1750Y1831D01*
X1358Y1830D02*
X1749Y1830D01*
X1358Y1829D02*
X1749Y1829D01*
X1358Y1828D02*
X1748Y1828D01*
X1357Y1827D02*
X1748Y1827D01*
X1357Y1826D02*
X1748Y1826D01*
X1357Y1825D02*
X1747Y1825D01*
X1356Y1824D02*
X1747Y1824D01*
X1356Y1823D02*
X1746Y1823D01*
X1356Y1822D02*
X1746Y1822D01*
X1356Y1821D02*
X1745Y1821D01*
X1355Y1820D02*
X1745Y1820D01*
X1355Y1819D02*
X1745Y1819D01*
X1355Y1818D02*
X1744Y1818D01*
X1354Y1817D02*
X1744Y1817D01*
X1354Y1816D02*
X1743Y1816D01*
X1354Y1815D02*
X1743Y1815D01*
X1353Y1814D02*
X1742Y1814D01*
X1353Y1813D02*
X1742Y1813D01*
X1353Y1812D02*
X1742Y1812D01*
X1353Y1811D02*
X1741Y1811D01*
X1352Y1810D02*
X1741Y1810D01*
X1352Y1809D02*
X1740Y1809D01*
X1352Y1808D02*
X1740Y1808D01*
X1351Y1807D02*
X1740Y1807D01*
X1351Y1806D02*
X1739Y1806D01*
X1351Y1805D02*
X1739Y1805D01*
X1351Y1804D02*
X1738Y1804D01*
X1350Y1803D02*
X1738Y1803D01*
X1350Y1802D02*
X1737Y1802D01*
X1350Y1801D02*
X1737Y1801D01*
X1349Y1800D02*
X1737Y1800D01*
X1349Y1799D02*
X1736Y1799D01*
X1349Y1798D02*
X1736Y1798D01*
X1348Y1797D02*
X1735Y1797D01*
X1348Y1796D02*
X1735Y1796D01*
X1348Y1795D02*
X1734Y1795D01*
X1348Y1794D02*
X1734Y1794D01*
X1347Y1793D02*
X1734Y1793D01*
X1347Y1792D02*
X1733Y1792D01*
X1347Y1791D02*
X1733Y1791D01*
X1346Y1790D02*
X1732Y1790D01*
X1346Y1789D02*
X1732Y1789D01*
X1346Y1788D02*
X1732Y1788D01*
X1345Y1787D02*
X1731Y1787D01*
X1345Y1786D02*
X1731Y1786D01*
X1345Y1785D02*
X1730Y1785D01*
X1345Y1784D02*
X1730Y1784D01*
X1344Y1783D02*
X1729Y1783D01*
X1344Y1782D02*
X1729Y1782D01*
X1344Y1781D02*
X1729Y1781D01*
X1343Y1780D02*
X1728Y1780D01*
X1343Y1779D02*
X1728Y1779D01*
X1343Y1778D02*
X1727Y1778D01*
X1343Y1777D02*
X1727Y1777D01*
X1342Y1776D02*
X1726Y1776D01*
X1342Y1775D02*
X1726Y1775D01*
X1342Y1774D02*
X1726Y1774D01*
X1341Y1773D02*
X1725Y1773D01*
X1341Y1772D02*
X1725Y1772D01*
X1341Y1771D02*
X1724Y1771D01*
X1340Y1770D02*
X1724Y1770D01*
X1340Y1769D02*
X1724Y1769D01*
X1340Y1768D02*
X1723Y1768D01*
X1340Y1767D02*
X1723Y1767D01*
X1339Y1766D02*
X1722Y1766D01*
X1339Y1765D02*
X1722Y1765D01*
X1339Y1764D02*
X1721Y1764D01*
X1338Y1763D02*
X1721Y1763D01*
X1338Y1762D02*
X1721Y1762D01*
X1338Y1761D02*
X1720Y1761D01*
X1338Y1760D02*
X1720Y1760D01*
X1337Y1759D02*
X1719Y1759D01*
X1337Y1758D02*
X1719Y1758D01*
X1337Y1757D02*
X1718Y1757D01*
X1336Y1756D02*
X1718Y1756D01*
X1336Y1755D02*
X1718Y1755D01*
X1336Y1754D02*
X1717Y1754D01*
X1335Y1753D02*
X1717Y1753D01*
X1335Y1752D02*
X1716Y1752D01*
X1335Y1751D02*
X1716Y1751D01*
X1335Y1750D02*
X1716Y1750D01*
X1334Y1749D02*
X1715Y1749D01*
X1334Y1748D02*
X1715Y1748D01*
X1334Y1747D02*
X1714Y1747D01*
X1333Y1746D02*
X1714Y1746D01*
X1333Y1745D02*
X1713Y1745D01*
X1333Y1744D02*
X1713Y1744D01*
X1333Y1743D02*
X1713Y1743D01*
X1332Y1742D02*
X1712Y1742D01*
X1332Y1741D02*
X1712Y1741D01*
X1332Y1740D02*
X1711Y1740D01*
X1331Y1739D02*
X1711Y1739D01*
X1331Y1738D02*
X1710Y1738D01*
X1331Y1737D02*
X1710Y1737D01*
X1330Y1736D02*
X1710Y1736D01*
X1330Y1735D02*
X1709Y1735D01*
X1330Y1734D02*
X1709Y1734D01*
X1330Y1733D02*
X1708Y1733D01*
X1329Y1732D02*
X1708Y1732D01*
X1329Y1731D02*
X1708Y1731D01*
X1329Y1730D02*
X1707Y1730D01*
X1328Y1729D02*
X1707Y1729D01*
X1328Y1728D02*
X1706Y1728D01*
X1328Y1727D02*
X1706Y1727D01*
X1328Y1726D02*
X1705Y1726D01*
X1327Y1725D02*
X1705Y1725D01*
X1327Y1724D02*
X1705Y1724D01*
X1327Y1723D02*
X1704Y1723D01*
X1326Y1722D02*
X1704Y1722D01*
X1326Y1721D02*
X1703Y1721D01*
X1326Y1720D02*
X1703Y1720D01*
X1325Y1719D02*
X1702Y1719D01*
X1325Y1718D02*
X1702Y1718D01*
X1325Y1717D02*
X1702Y1717D01*
X1325Y1716D02*
X1701Y1716D01*
X1324Y1715D02*
X1701Y1715D01*
X1324Y1714D02*
X1700Y1714D01*
X1324Y1713D02*
X1700Y1713D01*
X1323Y1712D02*
X1700Y1712D01*
X1323Y1711D02*
X1699Y1711D01*
X1323Y1710D02*
X1699Y1710D01*
X1323Y1709D02*
X1698Y1709D01*
X1322Y1708D02*
X1698Y1708D01*
X1322Y1707D02*
X1697Y1707D01*
X1322Y1706D02*
X1697Y1706D01*
X1321Y1705D02*
X1697Y1705D01*
X1321Y1704D02*
X1696Y1704D01*
X1321Y1703D02*
X1696Y1703D01*
X1320Y1702D02*
X1695Y1702D01*
X1320Y1701D02*
X1695Y1701D01*
X1320Y1700D02*
X1694Y1700D01*
X1320Y1699D02*
X1694Y1699D01*
X1319Y1698D02*
X1694Y1698D01*
X1319Y1697D02*
X1693Y1697D01*
X1319Y1696D02*
X1693Y1696D01*
X1318Y1695D02*
X1692Y1695D01*
X1318Y1694D02*
X1692Y1694D01*
X1318Y1693D02*
X1692Y1693D01*
X1318Y1692D02*
X1691Y1692D01*
X1317Y1691D02*
X1691Y1691D01*
X1317Y1690D02*
X1690Y1690D01*
X1317Y1689D02*
X1690Y1689D01*
X1316Y1688D02*
X1689Y1688D01*
X1316Y1687D02*
X1689Y1687D01*
X1316Y1686D02*
X1689Y1686D01*
X1315Y1685D02*
X1688Y1685D01*
X1315Y1684D02*
X1688Y1684D01*
X1315Y1683D02*
X1687Y1683D01*
X1315Y1682D02*
X1687Y1682D01*
X1314Y1681D02*
X1686Y1681D01*
X1314Y1680D02*
X1686Y1680D01*
X1314Y1679D02*
X1686Y1679D01*
X1313Y1678D02*
X1685Y1678D01*
X1313Y1677D02*
X1685Y1677D01*
X1313Y1676D02*
X1684Y1676D01*
X1313Y1675D02*
X1684Y1675D01*
X1312Y1674D02*
X1684Y1674D01*
X1312Y1673D02*
X1683Y1673D01*
X1312Y1672D02*
X1683Y1672D01*
X1311Y1671D02*
X1682Y1671D01*
X1311Y1670D02*
X1682Y1670D01*
X1311Y1669D02*
X1681Y1669D01*
X1310Y1668D02*
X1681Y1668D01*
X1310Y1667D02*
X1681Y1667D01*
X1310Y1666D02*
X1680Y1666D01*
X1310Y1665D02*
X1680Y1665D01*
X1309Y1664D02*
X1679Y1664D01*
X1309Y1663D02*
X1679Y1663D01*
X1309Y1662D02*
X1678Y1662D01*
X1308Y1661D02*
X1678Y1661D01*
X1308Y1660D02*
X1678Y1660D01*
X1308Y1659D02*
X1677Y1659D01*
X1307Y1658D02*
X1677Y1658D01*
X1307Y1657D02*
X1676Y1657D01*
X1307Y1656D02*
X1676Y1656D01*
X1307Y1655D02*
X1676Y1655D01*
X1306Y1654D02*
X1675Y1654D01*
X1306Y1653D02*
X1675Y1653D01*
X1306Y1652D02*
X1674Y1652D01*
X1305Y1651D02*
X1674Y1651D01*
X1305Y1650D02*
X1673Y1650D01*
X1305Y1649D02*
X1673Y1649D01*
X1305Y1648D02*
X1673Y1648D01*
X1304Y1647D02*
X1672Y1647D01*
X1304Y1646D02*
X1672Y1646D01*
X1304Y1645D02*
X1671Y1645D01*
X1303Y1644D02*
X1671Y1644D01*
X1303Y1643D02*
X1670Y1643D01*
X1303Y1642D02*
X1670Y1642D01*
X1302Y1641D02*
X1670Y1641D01*
X1302Y1640D02*
X1669Y1640D01*
X1302Y1639D02*
X1669Y1639D01*
X1302Y1638D02*
X1668Y1638D01*
X1301Y1637D02*
X1668Y1637D01*
X1301Y1636D02*
X1668Y1636D01*
X1301Y1635D02*
X1667Y1635D01*
X1300Y1634D02*
X1667Y1634D01*
X1300Y1633D02*
X1666Y1633D01*
X1300Y1632D02*
X1666Y1632D01*
X1300Y1631D02*
X1665Y1631D01*
X1299Y1630D02*
X1665Y1630D01*
X1299Y1629D02*
X1665Y1629D01*
X1299Y1628D02*
X1664Y1628D01*
X1298Y1627D02*
X1664Y1627D01*
X1298Y1626D02*
X1663Y1626D01*
X1298Y1625D02*
X1663Y1625D01*
X1297Y1624D02*
X1662Y1624D01*
X1297Y1623D02*
X1662Y1623D01*
X1297Y1622D02*
X1662Y1622D01*
X1297Y1621D02*
X1661Y1621D01*
X1296Y1620D02*
X1661Y1620D01*
X1296Y1619D02*
X1660Y1619D01*
X1296Y1618D02*
X1660Y1618D01*
X1295Y1617D02*
X1660Y1617D01*
X1295Y1616D02*
X1659Y1616D01*
X1295Y1615D02*
X1659Y1615D01*
X1295Y1614D02*
X1658Y1614D01*
X1294Y1613D02*
X1658Y1613D01*
X1294Y1612D02*
X1657Y1612D01*
X1294Y1611D02*
X1657Y1611D01*
X1293Y1610D02*
X1657Y1610D01*
X1293Y1609D02*
X1656Y1609D01*
X1293Y1608D02*
X1656Y1608D01*
X1292Y1607D02*
X1655Y1607D01*
X1292Y1606D02*
X1655Y1606D01*
X1292Y1605D02*
X1654Y1605D01*
X1292Y1604D02*
X1654Y1604D01*
X1291Y1603D02*
X1654Y1603D01*
X1291Y1602D02*
X1653Y1602D01*
X1291Y1601D02*
X1653Y1601D01*
X1290Y1600D02*
X1652Y1600D01*
X1290Y1599D02*
X1652Y1599D01*
X1290Y1598D02*
X1652Y1598D01*
X1290Y1597D02*
X1651Y1597D01*
X1289Y1596D02*
X1651Y1596D01*
X1289Y1595D02*
X1650Y1595D01*
X1289Y1594D02*
X1650Y1594D01*
X1288Y1593D02*
X1649Y1593D01*
X1288Y1592D02*
X1649Y1592D01*
X1288Y1591D02*
X1649Y1591D01*
X1287Y1590D02*
X1648Y1590D01*
X1287Y1589D02*
X1648Y1589D01*
X1287Y1588D02*
X1647Y1588D01*
X1287Y1587D02*
X1647Y1587D01*
X1286Y1586D02*
X1646Y1586D01*
X1286Y1585D02*
X1646Y1585D01*
X1286Y1584D02*
X1646Y1584D01*
X1285Y1583D02*
X1645Y1583D01*
X1285Y1582D02*
X1645Y1582D01*
X1285Y1581D02*
X1644Y1581D01*
X1285Y1580D02*
X1644Y1580D01*
X1284Y1579D02*
X1644Y1579D01*
X1284Y1578D02*
X1643Y1578D01*
X1284Y1577D02*
X1643Y1577D01*
X1283Y1576D02*
X1642Y1576D01*
X1283Y1575D02*
X1642Y1575D01*
X1283Y1574D02*
X1641Y1574D01*
X1282Y1573D02*
X1641Y1573D01*
X1282Y1572D02*
X1641Y1572D01*
X1282Y1571D02*
X1640Y1571D01*
X1282Y1570D02*
X1640Y1570D01*
X1281Y1569D02*
X1639Y1569D01*
X1281Y1568D02*
X1639Y1568D01*
X1281Y1567D02*
X1638Y1567D01*
X1280Y1566D02*
X1638Y1566D01*
X1280Y1565D02*
X1638Y1565D01*
X1280Y1564D02*
X1637Y1564D01*
X1280Y1563D02*
X1637Y1563D01*
X1279Y1562D02*
X1636Y1562D01*
X1279Y1561D02*
X1636Y1561D01*
X1279Y1560D02*
X1636Y1560D01*
X1278Y1559D02*
X1635Y1559D01*
X1278Y1558D02*
X1635Y1558D01*
X1278Y1557D02*
X1634Y1557D01*
X1277Y1556D02*
X1634Y1556D01*
X1277Y1555D02*
X1633Y1555D01*
X1277Y1554D02*
X1633Y1554D01*
X1277Y1553D02*
X1633Y1553D01*
X1276Y1552D02*
X1632Y1552D01*
X1276Y1551D02*
X1632Y1551D01*
X1276Y1550D02*
X1631Y1550D01*
X1275Y1549D02*
X1631Y1549D01*
X1275Y1548D02*
X1630Y1548D01*
X1275Y1547D02*
X1630Y1547D01*
X1275Y1546D02*
X1630Y1546D01*
X1274Y1545D02*
X1629Y1545D01*
X1274Y1544D02*
X1629Y1544D01*
X1274Y1543D02*
X1628Y1543D01*
X1273Y1542D02*
X1628Y1542D01*
X1273Y1541D02*
X1628Y1541D01*
X1273Y1540D02*
X1627Y1540D01*
X1272Y1539D02*
X1627Y1539D01*
X1272Y1538D02*
X1626Y1538D01*
X1272Y1537D02*
X1626Y1537D01*
X1272Y1536D02*
X1625Y1536D01*
X1271Y1535D02*
X1625Y1535D01*
X1271Y1534D02*
X1625Y1534D01*
X1271Y1533D02*
X1624Y1533D01*
X1270Y1532D02*
X1624Y1532D01*
X1270Y1531D02*
X1623Y1531D01*
X1270Y1530D02*
X1623Y1530D01*
X1270Y1529D02*
X1622Y1529D01*
X1269Y1528D02*
X1622Y1528D01*
X1269Y1527D02*
X1622Y1527D01*
X1269Y1526D02*
X1621Y1526D01*
X1268Y1525D02*
X1621Y1525D01*
X1268Y1524D02*
X1620Y1524D01*
X1268Y1523D02*
X1620Y1523D01*
X1267Y1522D02*
X1620Y1522D01*
X1267Y1521D02*
X1619Y1521D01*
X1267Y1520D02*
X1619Y1520D01*
X1267Y1519D02*
X1618Y1519D01*
X1266Y1518D02*
X1618Y1518D01*
X1266Y1517D02*
X1617Y1517D01*
X1266Y1516D02*
X1617Y1516D01*
X1265Y1515D02*
X1617Y1515D01*
X1265Y1514D02*
X1616Y1514D01*
X1265Y1513D02*
X1616Y1513D01*
X1264Y1512D02*
X1615Y1512D01*
X1264Y1511D02*
X1615Y1511D01*
X1264Y1510D02*
X1614Y1510D01*
X1264Y1509D02*
X1614Y1509D01*
X1263Y1508D02*
X1614Y1508D01*
X1263Y1507D02*
X1613Y1507D01*
X1263Y1506D02*
X1613Y1506D01*
X1262Y1505D02*
X1612Y1505D01*
X1262Y1504D02*
X1612Y1504D01*
X1262Y1503D02*
X1612Y1503D01*
X1262Y1502D02*
X1611Y1502D01*
X1261Y1501D02*
X1611Y1501D01*
X1261Y1500D02*
X1610Y1500D01*
X1261Y1499D02*
X1610Y1499D01*
X1260Y1498D02*
X1609Y1498D01*
X1260Y1497D02*
X1609Y1497D01*
X1260Y1496D02*
X1609Y1496D01*
X1259Y1495D02*
X1608Y1495D01*
X1259Y1494D02*
X1608Y1494D01*
X1259Y1493D02*
X1607Y1493D01*
X1259Y1492D02*
X1607Y1492D01*
X1258Y1491D02*
X1606Y1491D01*
X1258Y1490D02*
X1606Y1490D01*
X1258Y1489D02*
X1606Y1489D01*
X1257Y1488D02*
X1605Y1488D01*
X1257Y1487D02*
X1605Y1487D01*
X1257Y1486D02*
X1604Y1486D01*
X1257Y1485D02*
X1604Y1485D01*
X1256Y1484D02*
X1604Y1484D01*
X1256Y1483D02*
X1603Y1483D01*
X1256Y1482D02*
X1603Y1482D01*
X1255Y1481D02*
X1602Y1481D01*
X1255Y1480D02*
X1602Y1480D01*
X1255Y1479D02*
X1601Y1479D01*
X1254Y1478D02*
X1601Y1478D01*
X1254Y1477D02*
X1601Y1477D01*
X1254Y1476D02*
X1600Y1476D01*
X1254Y1475D02*
X1600Y1475D01*
X1253Y1474D02*
X1599Y1474D01*
X1253Y1473D02*
X1599Y1473D01*
X1253Y1472D02*
X1598Y1472D01*
X1252Y1471D02*
X1598Y1471D01*
X1252Y1470D02*
X1598Y1470D01*
X1252Y1469D02*
X1597Y1469D01*
X1252Y1468D02*
X1597Y1468D01*
X1251Y1467D02*
X1596Y1467D01*
X1251Y1466D02*
X1596Y1466D01*
X1251Y1465D02*
X1596Y1465D01*
X1250Y1464D02*
X1595Y1464D01*
X1250Y1463D02*
X1595Y1463D01*
X1250Y1462D02*
X1594Y1462D01*
X1249Y1461D02*
X1594Y1461D01*
X1249Y1460D02*
X1593Y1460D01*
X1249Y1459D02*
X1593Y1459D01*
X1249Y1458D02*
X1593Y1458D01*
X1248Y1457D02*
X1592Y1457D01*
X1248Y1456D02*
X1592Y1456D01*
X1248Y1455D02*
X1591Y1455D01*
X1247Y1454D02*
X1591Y1454D01*
X1247Y1453D02*
X1590Y1453D01*
X1247Y1452D02*
X1590Y1452D01*
X1247Y1451D02*
X1590Y1451D01*
X1246Y1450D02*
X1589Y1450D01*
X1246Y1449D02*
X1589Y1449D01*
X1246Y1448D02*
X1588Y1448D01*
X1245Y1447D02*
X1588Y1447D01*
X1245Y1446D02*
X1587Y1446D01*
X1245Y1445D02*
X1587Y1445D01*
X1244Y1444D02*
X1587Y1444D01*
X1244Y1443D02*
X1586Y1443D01*
X1244Y1442D02*
X1586Y1442D01*
X1244Y1441D02*
X1585Y1441D01*
X1243Y1440D02*
X1585Y1440D01*
X1243Y1439D02*
X1585Y1439D01*
X1243Y1438D02*
X1584Y1438D01*
X1242Y1437D02*
X1584Y1437D01*
X1242Y1436D02*
X1583Y1436D01*
X1242Y1435D02*
X1583Y1435D01*
X1242Y1434D02*
X1582Y1434D01*
X1241Y1433D02*
X1582Y1433D01*
X1241Y1432D02*
X1582Y1432D01*
X1241Y1431D02*
X1581Y1431D01*
X1240Y1430D02*
X1581Y1430D01*
X1240Y1429D02*
X1580Y1429D01*
X1240Y1428D02*
X1580Y1428D01*
X1239Y1427D02*
X1579Y1427D01*
X1239Y1426D02*
X1579Y1426D01*
X1239Y1425D02*
X1579Y1425D01*
X1239Y1424D02*
X1578Y1424D01*
X1238Y1423D02*
X1578Y1423D01*
X1238Y1422D02*
X1577Y1422D01*
X1238Y1421D02*
X1577Y1421D01*
X1237Y1420D02*
X1577Y1420D01*
X1237Y1419D02*
X1576Y1419D01*
X1237Y1418D02*
X1576Y1418D01*
X1237Y1417D02*
X1575Y1417D01*
X1236Y1416D02*
X1575Y1416D01*
X1236Y1415D02*
X1574Y1415D01*
X1236Y1414D02*
X1574Y1414D01*
X1235Y1413D02*
X1574Y1413D01*
X1235Y1412D02*
X1573Y1412D01*
X1235Y1411D02*
X1573Y1411D01*
X1234Y1410D02*
X1572Y1410D01*
X1234Y1409D02*
X1572Y1409D01*
X1234Y1408D02*
X1571Y1408D01*
X1234Y1407D02*
X1571Y1407D01*
X1233Y1406D02*
X1571Y1406D01*
X1233Y1405D02*
X1570Y1405D01*
X1233Y1404D02*
X1570Y1404D01*
X1232Y1403D02*
X1569Y1403D01*
X1232Y1402D02*
X1569Y1402D01*
X1232Y1401D02*
X1569Y1401D01*
X1232Y1400D02*
X1568Y1400D01*
X1231Y1399D02*
X1568Y1399D01*
X1231Y1398D02*
X1567Y1398D01*
X1231Y1397D02*
X1567Y1397D01*
X1230Y1396D02*
X1566Y1396D01*
X1230Y1395D02*
X1566Y1395D01*
X1230Y1394D02*
X1566Y1394D01*
X1229Y1393D02*
X1565Y1393D01*
X1229Y1392D02*
X1565Y1392D01*
X1229Y1391D02*
X1564Y1391D01*
X1229Y1390D02*
X1564Y1390D01*
X1228Y1389D02*
X1563Y1389D01*
X1228Y1388D02*
X1563Y1388D01*
X1228Y1387D02*
X1563Y1387D01*
X1227Y1386D02*
X1562Y1386D01*
X1227Y1385D02*
X1562Y1385D01*
X1227Y1384D02*
X1561Y1384D01*
X1226Y1383D02*
X1561Y1383D01*
X1226Y1382D02*
X1561Y1382D01*
X1226Y1381D02*
X1560Y1381D01*
X1226Y1380D02*
X1560Y1380D01*
X1225Y1379D02*
X1559Y1379D01*
X1225Y1378D02*
X1559Y1378D01*
X1225Y1377D02*
X1558Y1377D01*
X1224Y1376D02*
X1558Y1376D01*
X1224Y1375D02*
X1558Y1375D01*
X1224Y1374D02*
X1557Y1374D01*
X1224Y1373D02*
X1557Y1373D01*
X1223Y1372D02*
X1556Y1372D01*
X1223Y1371D02*
X1556Y1371D01*
X1223Y1370D02*
X1555Y1370D01*
X1222Y1369D02*
X1555Y1369D01*
X1222Y1368D02*
X1555Y1368D01*
X1222Y1367D02*
X1554Y1367D01*
X1221Y1366D02*
X1554Y1366D01*
X1221Y1365D02*
X1553Y1365D01*
X1221Y1364D02*
X1553Y1364D01*
X1221Y1363D02*
X1553Y1363D01*
X1220Y1362D02*
X1552Y1362D01*
X1220Y1361D02*
X1552Y1361D01*
X1220Y1360D02*
X1551Y1360D01*
X1219Y1359D02*
X1551Y1359D01*
X1219Y1358D02*
X1550Y1358D01*
X1219Y1357D02*
X1550Y1357D01*
X1219Y1356D02*
X1550Y1356D01*
X1218Y1355D02*
X1549Y1355D01*
X1218Y1354D02*
X1549Y1354D01*
X1218Y1353D02*
X1548Y1353D01*
X1217Y1352D02*
X1548Y1352D01*
X1217Y1351D02*
X1547Y1351D01*
X1217Y1350D02*
X1547Y1350D01*
X1216Y1349D02*
X1547Y1349D01*
X1216Y1348D02*
X1546Y1348D01*
X1216Y1347D02*
X1546Y1347D01*
X1216Y1346D02*
X1545Y1346D01*
X1215Y1345D02*
X1545Y1345D01*
X1215Y1344D02*
X1545Y1344D01*
X1215Y1343D02*
X1544Y1343D01*
X1214Y1342D02*
X1544Y1342D01*
X1214Y1341D02*
X1543Y1341D01*
X1214Y1340D02*
X1543Y1340D01*
X1214Y1339D02*
X1542Y1339D01*
X1213Y1338D02*
X1542Y1338D01*
X1213Y1337D02*
X1542Y1337D01*
X1213Y1336D02*
X1541Y1336D01*
X1212Y1335D02*
X1541Y1335D01*
X1212Y1334D02*
X1540Y1334D01*
X1212Y1333D02*
X1540Y1333D01*
X1211Y1332D02*
X1539Y1332D01*
X1211Y1331D02*
X1539Y1331D01*
X1211Y1330D02*
X1539Y1330D01*
X1211Y1329D02*
X1538Y1329D01*
X1210Y1328D02*
X1538Y1328D01*
X1210Y1327D02*
X1537Y1327D01*
X1210Y1326D02*
X1537Y1326D01*
X1209Y1325D02*
X1537Y1325D01*
X1209Y1324D02*
X1536Y1324D01*
X1209Y1323D02*
X1536Y1323D01*
X1209Y1322D02*
X1535Y1322D01*
X1208Y1321D02*
X1535Y1321D01*
X1208Y1320D02*
X1534Y1320D01*
X1208Y1319D02*
X1534Y1319D01*
X1207Y1318D02*
X1534Y1318D01*
X1207Y1317D02*
X1533Y1317D01*
X1207Y1316D02*
X1533Y1316D01*
X1206Y1315D02*
X1532Y1315D01*
X1206Y1314D02*
X1532Y1314D01*
X1206Y1313D02*
X1531Y1313D01*
X1206Y1312D02*
X1531Y1312D01*
X1205Y1311D02*
X1531Y1311D01*
X1205Y1310D02*
X1530Y1310D01*
X1205Y1309D02*
X1530Y1309D01*
X1204Y1308D02*
X1529Y1308D01*
X1204Y1307D02*
X1529Y1307D01*
X1204Y1306D02*
X1529Y1306D01*
X1204Y1305D02*
X1528Y1305D01*
X1203Y1304D02*
X1528Y1304D01*
X1203Y1303D02*
X1527Y1303D01*
X1203Y1302D02*
X1527Y1302D01*
X1202Y1301D02*
X1526Y1301D01*
X1202Y1300D02*
X1526Y1300D01*
X1202Y1299D02*
X1526Y1299D01*
X1201Y1298D02*
X1525Y1298D01*
X1201Y1297D02*
X1525Y1297D01*
X1201Y1296D02*
X1524Y1296D01*
X1201Y1295D02*
X1524Y1295D01*
X1200Y1294D02*
X1523Y1294D01*
X1200Y1293D02*
X1523Y1293D01*
X1200Y1292D02*
X1523Y1292D01*
X1199Y1291D02*
X1522Y1291D01*
X1199Y1290D02*
X1522Y1290D01*
X1199Y1289D02*
X1521Y1289D01*
X1199Y1288D02*
X1521Y1288D01*
X1198Y1287D02*
X1521Y1287D01*
X1198Y1286D02*
X1520Y1286D01*
X1198Y1285D02*
X1520Y1285D01*
X1197Y1284D02*
X1519Y1284D01*
X1197Y1283D02*
X1519Y1283D01*
X1197Y1282D02*
X1518Y1282D01*
X1196Y1281D02*
X1518Y1281D01*
X1196Y1280D02*
X1518Y1280D01*
X1196Y1279D02*
X1517Y1279D01*
X1196Y1278D02*
X1517Y1278D01*
X1195Y1277D02*
X1516Y1277D01*
X1195Y1276D02*
X1516Y1276D01*
X1195Y1275D02*
X1515Y1275D01*
X1194Y1274D02*
X1515Y1274D01*
X1194Y1273D02*
X1515Y1273D01*
X1194Y1272D02*
X1514Y1272D01*
X1194Y1271D02*
X1514Y1271D01*
X1193Y1270D02*
X1513Y1270D01*
X1193Y1269D02*
X1513Y1269D01*
X1193Y1268D02*
X1513Y1268D01*
X1192Y1267D02*
X1512Y1267D01*
X1192Y1266D02*
X1512Y1266D01*
X1192Y1265D02*
X1511Y1265D01*
X1191Y1264D02*
X1511Y1264D01*
X1191Y1263D02*
X1510Y1263D01*
X1191Y1262D02*
X1510Y1262D01*
X1191Y1261D02*
X1510Y1261D01*
X1190Y1260D02*
X1509Y1260D01*
X1190Y1259D02*
X1509Y1259D01*
X1190Y1258D02*
X1508Y1258D01*
X1189Y1257D02*
X1508Y1257D01*
X1189Y1256D02*
X1507Y1256D01*
X1189Y1255D02*
X1507Y1255D01*
X1188Y1254D02*
X1507Y1254D01*
X1188Y1253D02*
X1506Y1253D01*
X1188Y1252D02*
X1506Y1252D01*
X1188Y1251D02*
X1505Y1251D01*
X1187Y1250D02*
X1505Y1250D01*
X1187Y1249D02*
X1505Y1249D01*
X1187Y1248D02*
X1504Y1248D01*
X1186Y1247D02*
X1504Y1247D01*
X1186Y1246D02*
X1503Y1246D01*
X1186Y1245D02*
X1503Y1245D01*
X1186Y1244D02*
X1502Y1244D01*
X1185Y1243D02*
X1502Y1243D01*
X1185Y1242D02*
X1502Y1242D01*
X1185Y1241D02*
X1501Y1241D01*
X1184Y1240D02*
X1501Y1240D01*
X1184Y1239D02*
X1500Y1239D01*
X1184Y1238D02*
X1500Y1238D01*
X1183Y1237D02*
X1499Y1237D01*
X1183Y1236D02*
X1499Y1236D01*
X1183Y1235D02*
X1499Y1235D01*
X1183Y1234D02*
X1498Y1234D01*
X1182Y1233D02*
X1498Y1233D01*
X1182Y1232D02*
X1497Y1232D01*
X1182Y1231D02*
X1497Y1231D01*
X1181Y1230D02*
X1497Y1230D01*
X1181Y1229D02*
X1496Y1229D01*
X1181Y1228D02*
X1496Y1228D01*
X1181Y1227D02*
X1495Y1227D01*
X1180Y1226D02*
X1495Y1226D01*
X1180Y1225D02*
X1494Y1225D01*
X1180Y1224D02*
X1494Y1224D01*
X1179Y1223D02*
X1494Y1223D01*
X1179Y1222D02*
X1493Y1222D01*
X1179Y1221D02*
X1493Y1221D01*
X1178Y1220D02*
X1492Y1220D01*
X1178Y1219D02*
X1492Y1219D01*
X1178Y1218D02*
X1491Y1218D01*
X1178Y1217D02*
X1491Y1217D01*
X1177Y1216D02*
X1491Y1216D01*
X1177Y1215D02*
X1490Y1215D01*
X1177Y1214D02*
X1490Y1214D01*
X1176Y1213D02*
X1489Y1213D01*
X1176Y1212D02*
X1489Y1212D01*
X1176Y1211D02*
X1489Y1211D01*
X1176Y1210D02*
X1488Y1210D01*
X1175Y1209D02*
X1488Y1209D01*
X1175Y1208D02*
X1487Y1208D01*
X1175Y1207D02*
X1487Y1207D01*
X1174Y1206D02*
X1486Y1206D01*
X1174Y1205D02*
X1486Y1205D01*
X1174Y1204D02*
X1486Y1204D01*
X1173Y1203D02*
X1485Y1203D01*
X1173Y1202D02*
X1485Y1202D01*
X1173Y1201D02*
X1484Y1201D01*
X1173Y1200D02*
X1484Y1200D01*
X1172Y1199D02*
X1483Y1199D01*
X1172Y1198D02*
X1483Y1198D01*
X1172Y1197D02*
X1483Y1197D01*
X1171Y1196D02*
X1482Y1196D01*
X1171Y1195D02*
X1482Y1195D01*
X1171Y1194D02*
X1481Y1194D01*
X1171Y1193D02*
X1481Y1193D01*
X1170Y1192D02*
X1481Y1192D01*
X1170Y1191D02*
X1480Y1191D01*
X1170Y1190D02*
X1480Y1190D01*
X1169Y1189D02*
X1479Y1189D01*
X1169Y1188D02*
X1479Y1188D01*
X1169Y1187D02*
X1478Y1187D01*
X1168Y1186D02*
X1478Y1186D01*
X1168Y1185D02*
X1478Y1185D01*
X1168Y1184D02*
X1477Y1184D01*
X1168Y1183D02*
X1477Y1183D01*
X1167Y1182D02*
X1476Y1182D01*
X1167Y1181D02*
X1476Y1181D01*
X1167Y1180D02*
X1475Y1180D01*
X1166Y1179D02*
X1475Y1179D01*
X1166Y1178D02*
X1475Y1178D01*
X1166Y1177D02*
X1474Y1177D01*
X1166Y1176D02*
X1474Y1176D01*
X1165Y1175D02*
X1473Y1175D01*
X1165Y1174D02*
X1473Y1174D01*
X1165Y1173D02*
X1473Y1173D01*
X1164Y1172D02*
X1472Y1172D01*
X1164Y1171D02*
X1472Y1171D01*
X1164Y1170D02*
X1471Y1170D01*
X1163Y1169D02*
X1471Y1169D01*
X1163Y1168D02*
X1470Y1168D01*
X1163Y1167D02*
X1470Y1167D01*
X1163Y1166D02*
X1470Y1166D01*
X1162Y1165D02*
X1469Y1165D01*
X1162Y1164D02*
X1469Y1164D01*
X1162Y1163D02*
X1468Y1163D01*
X1161Y1162D02*
X1468Y1162D01*
X1161Y1161D02*
X1467Y1161D01*
X1161Y1160D02*
X1467Y1160D01*
X1161Y1159D02*
X1467Y1159D01*
X1160Y1158D02*
X1466Y1158D01*
X1160Y1157D02*
X1466Y1157D01*
X1160Y1156D02*
X1465Y1156D01*
X1159Y1155D02*
X1465Y1155D01*
X1159Y1154D02*
X1465Y1154D01*
X1159Y1153D02*
X1464Y1153D01*
X1158Y1152D02*
X1464Y1152D01*
X1158Y1151D02*
X1463Y1151D01*
X1158Y1150D02*
X1463Y1150D01*
X1158Y1149D02*
X1462Y1149D01*
X1157Y1148D02*
X1462Y1148D01*
X1157Y1147D02*
X1462Y1147D01*
X1157Y1146D02*
X1461Y1146D01*
X1156Y1145D02*
X1461Y1145D01*
X1156Y1144D02*
X1460Y1144D01*
X1156Y1143D02*
X1460Y1143D01*
X1156Y1142D02*
X1459Y1142D01*
X1155Y1141D02*
X1459Y1141D01*
X1155Y1140D02*
X1459Y1140D01*
X1155Y1139D02*
X1458Y1139D01*
X1154Y1138D02*
X1458Y1138D01*
X1154Y1137D02*
X1457Y1137D01*
X1154Y1136D02*
X1457Y1136D01*
X1153Y1135D02*
X1457Y1135D01*
X1153Y1134D02*
X1456Y1134D01*
X1153Y1133D02*
X1456Y1133D01*
X1153Y1132D02*
X1455Y1132D01*
X1152Y1131D02*
X1455Y1131D01*
X1152Y1130D02*
X1454Y1130D01*
X1152Y1129D02*
X1454Y1129D01*
X1151Y1128D02*
X1454Y1128D01*
X1151Y1127D02*
X1453Y1127D01*
X1151Y1126D02*
X1453Y1126D01*
X1151Y1125D02*
X1452Y1125D01*
X1150Y1124D02*
X1452Y1124D01*
X1150Y1123D02*
X1451Y1123D01*
X1150Y1122D02*
X1451Y1122D01*
X1149Y1121D02*
X1451Y1121D01*
X1149Y1120D02*
X1450Y1120D01*
X1149Y1119D02*
X1450Y1119D01*
X1148Y1118D02*
X1449Y1118D01*
X1148Y1117D02*
X1449Y1117D01*
X1148Y1116D02*
X1449Y1116D01*
X1148Y1115D02*
X1448Y1115D01*
X1147Y1114D02*
X1448Y1114D01*
X1147Y1113D02*
X1447Y1113D01*
X1147Y1112D02*
X1447Y1112D01*
X1146Y1111D02*
X1446Y1111D01*
X1146Y1110D02*
X1446Y1110D01*
X1146Y1109D02*
X1446Y1109D01*
X1145Y1108D02*
X1445Y1108D01*
X1059Y1107D02*
X1061Y1107D01*
X1145Y1107D02*
X1445Y1107D01*
X1055Y1106D02*
X1065Y1106D01*
X1145Y1106D02*
X1444Y1106D01*
X1054Y1105D02*
X1067Y1105D01*
X1145Y1105D02*
X1444Y1105D01*
X1053Y1104D02*
X1069Y1104D01*
X1144Y1104D02*
X1443Y1104D01*
X1052Y1103D02*
X1072Y1103D01*
X1144Y1103D02*
X1443Y1103D01*
X1051Y1102D02*
X1074Y1102D01*
X1146Y1102D02*
X1443Y1102D01*
X1050Y1101D02*
X1077Y1101D01*
X1148Y1101D02*
X1442Y1101D01*
X1050Y1100D02*
X1079Y1100D01*
X1150Y1100D02*
X1442Y1100D01*
X1049Y1099D02*
X1081Y1099D01*
X1153Y1099D02*
X1441Y1099D01*
X1049Y1098D02*
X1084Y1098D01*
X1155Y1098D02*
X1441Y1098D01*
X1049Y1097D02*
X1086Y1097D01*
X1158Y1097D02*
X1441Y1097D01*
X1048Y1096D02*
X1089Y1096D01*
X1160Y1096D02*
X1440Y1096D01*
X1048Y1095D02*
X1091Y1095D01*
X1162Y1095D02*
X1440Y1095D01*
X1047Y1094D02*
X1094Y1094D01*
X1165Y1094D02*
X1439Y1094D01*
X1047Y1093D02*
X1096Y1093D01*
X1167Y1093D02*
X1439Y1093D01*
X1046Y1092D02*
X1098Y1092D01*
X1170Y1092D02*
X1438Y1092D01*
X1046Y1091D02*
X1101Y1091D01*
X1172Y1091D02*
X1438Y1091D01*
X1046Y1090D02*
X1103Y1090D01*
X1175Y1090D02*
X1438Y1090D01*
X1045Y1089D02*
X1106Y1089D01*
X1177Y1089D02*
X1437Y1089D01*
X1045Y1088D02*
X1108Y1088D01*
X1179Y1088D02*
X1437Y1088D01*
X1044Y1087D02*
X1111Y1087D01*
X1182Y1087D02*
X1436Y1087D01*
X1044Y1086D02*
X1113Y1086D01*
X1184Y1086D02*
X1436Y1086D01*
X1044Y1085D02*
X1115Y1085D01*
X1187Y1085D02*
X1435Y1085D01*
X1043Y1084D02*
X1118Y1084D01*
X1189Y1084D02*
X1435Y1084D01*
X1043Y1083D02*
X1120Y1083D01*
X1192Y1083D02*
X1435Y1083D01*
X1042Y1082D02*
X1123Y1082D01*
X1194Y1082D02*
X1434Y1082D01*
X1042Y1081D02*
X1125Y1081D01*
X1196Y1081D02*
X1434Y1081D01*
X1041Y1080D02*
X1128Y1080D01*
X1199Y1080D02*
X1433Y1080D01*
X1041Y1079D02*
X1130Y1079D01*
X1201Y1079D02*
X1433Y1079D01*
X1041Y1078D02*
X1132Y1078D01*
X1204Y1078D02*
X1433Y1078D01*
X1040Y1077D02*
X1135Y1077D01*
X1206Y1077D02*
X1432Y1077D01*
X1040Y1076D02*
X1137Y1076D01*
X1209Y1076D02*
X1432Y1076D01*
X1039Y1075D02*
X1140Y1075D01*
X1211Y1075D02*
X1431Y1075D01*
X1039Y1074D02*
X1142Y1074D01*
X1213Y1074D02*
X1431Y1074D01*
X1039Y1073D02*
X1144Y1073D01*
X1216Y1073D02*
X1430Y1073D01*
X1038Y1072D02*
X1147Y1072D01*
X1218Y1072D02*
X1430Y1072D01*
X1038Y1071D02*
X1149Y1071D01*
X1221Y1071D02*
X1430Y1071D01*
X1037Y1070D02*
X1152Y1070D01*
X1223Y1070D02*
X1429Y1070D01*
X1037Y1069D02*
X1154Y1069D01*
X1226Y1069D02*
X1429Y1069D01*
X1037Y1068D02*
X1157Y1068D01*
X1228Y1068D02*
X1428Y1068D01*
X1036Y1067D02*
X1159Y1067D01*
X1230Y1067D02*
X1428Y1067D01*
X1036Y1066D02*
X1161Y1066D01*
X1233Y1066D02*
X1427Y1066D01*
X1035Y1065D02*
X1164Y1065D01*
X1235Y1065D02*
X1427Y1065D01*
X1035Y1064D02*
X1166Y1064D01*
X1238Y1064D02*
X1427Y1064D01*
X1034Y1063D02*
X1169Y1063D01*
X1240Y1063D02*
X1426Y1063D01*
X1034Y1062D02*
X1171Y1062D01*
X1242Y1062D02*
X1426Y1062D01*
X1034Y1061D02*
X1174Y1061D01*
X1245Y1061D02*
X1425Y1061D01*
X1033Y1060D02*
X1176Y1060D01*
X1247Y1060D02*
X1425Y1060D01*
X1033Y1059D02*
X1178Y1059D01*
X1250Y1059D02*
X1425Y1059D01*
X1032Y1058D02*
X1181Y1058D01*
X1252Y1058D02*
X1424Y1058D01*
X1032Y1057D02*
X1183Y1057D01*
X1255Y1057D02*
X1424Y1057D01*
X1032Y1056D02*
X1186Y1056D01*
X1257Y1056D02*
X1423Y1056D01*
X1031Y1055D02*
X1188Y1055D01*
X1259Y1055D02*
X1423Y1055D01*
X1031Y1054D02*
X1191Y1054D01*
X1262Y1054D02*
X1422Y1054D01*
X1030Y1053D02*
X1193Y1053D01*
X1264Y1053D02*
X1422Y1053D01*
X1030Y1052D02*
X1195Y1052D01*
X1267Y1052D02*
X1422Y1052D01*
X1029Y1051D02*
X1198Y1051D01*
X1269Y1051D02*
X1421Y1051D01*
X1029Y1050D02*
X1200Y1050D01*
X1272Y1050D02*
X1421Y1050D01*
X1029Y1049D02*
X1203Y1049D01*
X1274Y1049D02*
X1420Y1049D01*
X1028Y1048D02*
X1205Y1048D01*
X1276Y1048D02*
X1420Y1048D01*
X1028Y1047D02*
X1208Y1047D01*
X1279Y1047D02*
X1419Y1047D01*
X1027Y1046D02*
X1210Y1046D01*
X1281Y1046D02*
X1419Y1046D01*
X1027Y1045D02*
X1212Y1045D01*
X1284Y1045D02*
X1419Y1045D01*
X1027Y1044D02*
X1215Y1044D01*
X1286Y1044D02*
X1418Y1044D01*
X1026Y1043D02*
X1217Y1043D01*
X1289Y1043D02*
X1418Y1043D01*
X1026Y1042D02*
X1220Y1042D01*
X1291Y1042D02*
X1417Y1042D01*
X1025Y1041D02*
X1222Y1041D01*
X1293Y1041D02*
X1417Y1041D01*
X1025Y1040D02*
X1224Y1040D01*
X1296Y1040D02*
X1417Y1040D01*
X1025Y1039D02*
X1227Y1039D01*
X1298Y1039D02*
X1416Y1039D01*
X1024Y1038D02*
X1229Y1038D01*
X1301Y1038D02*
X1416Y1038D01*
X1024Y1037D02*
X1232Y1037D01*
X1303Y1037D02*
X1415Y1037D01*
X1024Y1036D02*
X1234Y1036D01*
X1305Y1036D02*
X1415Y1036D01*
X1024Y1035D02*
X1237Y1035D01*
X1308Y1035D02*
X1414Y1035D01*
X1024Y1034D02*
X1239Y1034D01*
X1310Y1034D02*
X1414Y1034D01*
X1024Y1033D02*
X1241Y1033D01*
X1313Y1033D02*
X1414Y1033D01*
X1024Y1032D02*
X1244Y1032D01*
X1315Y1032D02*
X1413Y1032D01*
X1024Y1031D02*
X1246Y1031D01*
X1318Y1031D02*
X1413Y1031D01*
X1025Y1030D02*
X1249Y1030D01*
X1320Y1030D02*
X1412Y1030D01*
X1025Y1029D02*
X1251Y1029D01*
X1322Y1029D02*
X1412Y1029D01*
X1026Y1028D02*
X1254Y1028D01*
X1325Y1028D02*
X1411Y1028D01*
X1027Y1027D02*
X1256Y1027D01*
X1327Y1027D02*
X1411Y1027D01*
X1028Y1026D02*
X1258Y1026D01*
X1330Y1026D02*
X1411Y1026D01*
X1029Y1025D02*
X1261Y1025D01*
X1332Y1025D02*
X1410Y1025D01*
X1031Y1024D02*
X1263Y1024D01*
X1335Y1024D02*
X1410Y1024D01*
X1034Y1023D02*
X1266Y1023D01*
X1337Y1023D02*
X1409Y1023D01*
X1036Y1022D02*
X1268Y1022D01*
X1339Y1022D02*
X1409Y1022D01*
X1038Y1021D02*
X1271Y1021D01*
X1342Y1021D02*
X1409Y1021D01*
X1041Y1020D02*
X1273Y1020D01*
X1344Y1020D02*
X1408Y1020D01*
X1043Y1019D02*
X1275Y1019D01*
X1347Y1019D02*
X1408Y1019D01*
X1046Y1018D02*
X1278Y1018D01*
X1349Y1018D02*
X1407Y1018D01*
X1048Y1017D02*
X1280Y1017D01*
X1352Y1017D02*
X1407Y1017D01*
X1050Y1016D02*
X1283Y1016D01*
X1354Y1016D02*
X1406Y1016D01*
X1053Y1015D02*
X1285Y1015D01*
X1356Y1015D02*
X1406Y1015D01*
X1055Y1014D02*
X1287Y1014D01*
X1359Y1014D02*
X1406Y1014D01*
X1058Y1013D02*
X1290Y1013D01*
X1361Y1013D02*
X1405Y1013D01*
X1060Y1012D02*
X1292Y1012D01*
X1364Y1012D02*
X1405Y1012D01*
X1063Y1011D02*
X1295Y1011D01*
X1366Y1011D02*
X1404Y1011D01*
X1065Y1010D02*
X1297Y1010D01*
X1369Y1010D02*
X1404Y1010D01*
X1067Y1009D02*
X1300Y1009D01*
X1371Y1009D02*
X1403Y1009D01*
X1070Y1008D02*
X1302Y1008D01*
X1373Y1008D02*
X1403Y1008D01*
X1072Y1007D02*
X1304Y1007D01*
X1376Y1007D02*
X1403Y1007D01*
X1075Y1006D02*
X1307Y1006D01*
X1378Y1006D02*
X1402Y1006D01*
X1077Y1005D02*
X1309Y1005D01*
X1381Y1005D02*
X1402Y1005D01*
X1080Y1004D02*
X1312Y1004D01*
X1383Y1004D02*
X1401Y1004D01*
X1082Y1003D02*
X1314Y1003D01*
X1385Y1003D02*
X1401Y1003D01*
X1084Y1002D02*
X1317Y1002D01*
X1388Y1002D02*
X1401Y1002D01*
X1087Y1001D02*
X1319Y1001D01*
X1390Y1001D02*
X1400Y1001D01*
X1089Y1000D02*
X1321Y1000D01*
X1393Y1000D02*
X1400Y1000D01*
X1092Y999D02*
X1324Y999D01*
X1395Y999D02*
X1399Y999D01*
X1094Y998D02*
X1326Y998D01*
X1398Y998D02*
X1399Y998D01*
X1097Y997D02*
X1329Y997D01*
X1099Y996D02*
X1331Y996D01*
X1101Y995D02*
X1334Y995D01*
X1104Y994D02*
X1336Y994D01*
X1106Y993D02*
X1338Y993D01*
X1109Y992D02*
X1341Y992D01*
X1111Y991D02*
X1343Y991D01*
X1113Y990D02*
X1346Y990D01*
X1116Y989D02*
X1348Y989D01*
X1118Y988D02*
X1351Y988D01*
X1121Y987D02*
X1353Y987D01*
X1123Y986D02*
X1355Y986D01*
X1126Y985D02*
X1358Y985D01*
X1128Y984D02*
X1360Y984D01*
X1130Y983D02*
X1363Y983D01*
X1133Y982D02*
X1365Y982D01*
X1135Y981D02*
X1367Y981D01*
X1138Y980D02*
X1370Y980D01*
X1140Y979D02*
X1372Y979D01*
X1143Y978D02*
X1375Y978D01*
X1145Y977D02*
X1377Y977D01*
X1147Y976D02*
X1380Y976D01*
X1150Y975D02*
X1382Y975D01*
X1152Y974D02*
X1384Y974D01*
X1155Y973D02*
X1387Y973D01*
X1157Y972D02*
X1389Y972D01*
X1160Y971D02*
X1392Y971D01*
X1162Y970D02*
X1394Y970D01*
X1164Y969D02*
X1397Y969D01*
X1167Y968D02*
X1399Y968D01*
X1169Y967D02*
X1401Y967D01*
X1172Y966D02*
X1404Y966D01*
X1174Y965D02*
X1406Y965D01*
X1177Y964D02*
X1409Y964D01*
X1179Y963D02*
X1411Y963D01*
X1181Y962D02*
X1414Y962D01*
X1184Y961D02*
X1416Y961D01*
X1186Y960D02*
X1418Y960D01*
X1189Y959D02*
X1421Y959D01*
X1191Y958D02*
X1423Y958D01*
X1193Y957D02*
X1426Y957D01*
X1196Y956D02*
X1428Y956D01*
X1198Y955D02*
X1431Y955D01*
X1201Y954D02*
X1433Y954D01*
X1203Y953D02*
X1434Y953D01*
X1206Y952D02*
X1435Y952D01*
X1208Y951D02*
X1436Y951D01*
X1210Y950D02*
X1437Y950D01*
X1213Y949D02*
X1438Y949D01*
X1215Y948D02*
X1438Y948D01*
X1218Y947D02*
X1438Y947D01*
X1220Y946D02*
X1439Y946D01*
X1223Y945D02*
X1439Y945D01*
X1225Y944D02*
X1439Y944D01*
X1227Y943D02*
X1439Y943D01*
X1230Y942D02*
X1439Y942D01*
X1232Y941D02*
X1439Y941D01*
X1235Y940D02*
X1438Y940D01*
X1237Y939D02*
X1438Y939D01*
X1240Y938D02*
X1437Y938D01*
X1242Y937D02*
X1437Y937D01*
X1244Y936D02*
X1437Y936D01*
X1247Y935D02*
X1436Y935D01*
X1249Y934D02*
X1436Y934D01*
X1252Y933D02*
X1435Y933D01*
X1254Y932D02*
X1435Y932D01*
X1256Y931D02*
X1435Y931D01*
X1259Y930D02*
X1434Y930D01*
X1261Y929D02*
X1434Y929D01*
X1264Y928D02*
X1433Y928D01*
X1266Y927D02*
X1433Y927D01*
X1269Y926D02*
X1432Y926D01*
X1271Y925D02*
X1432Y925D01*
X1273Y924D02*
X1432Y924D01*
X1276Y923D02*
X1431Y923D01*
X1278Y922D02*
X1431Y922D01*
X1281Y921D02*
X1430Y921D01*
X1283Y920D02*
X1430Y920D01*
X1286Y919D02*
X1430Y919D01*
X1288Y918D02*
X1429Y918D01*
X1290Y917D02*
X1429Y917D01*
X1293Y916D02*
X1428Y916D01*
X1295Y915D02*
X1428Y915D01*
X1298Y914D02*
X1428Y914D01*
X1300Y913D02*
X1427Y913D01*
X1303Y912D02*
X1427Y912D01*
X1305Y911D02*
X1426Y911D01*
X1307Y910D02*
X1426Y910D01*
X1310Y909D02*
X1425Y909D01*
X1312Y908D02*
X1425Y908D01*
X1315Y907D02*
X1425Y907D01*
X1317Y906D02*
X1424Y906D01*
X1319Y905D02*
X1424Y905D01*
X1322Y904D02*
X1423Y904D01*
X1324Y903D02*
X1423Y903D01*
X1327Y902D02*
X1423Y902D01*
X1329Y901D02*
X1422Y901D01*
X1332Y900D02*
X1422Y900D01*
X1334Y899D02*
X1421Y899D01*
X1336Y898D02*
X1421Y898D01*
X1339Y897D02*
X1421Y897D01*
X1341Y896D02*
X1420Y896D01*
X1344Y895D02*
X1420Y895D01*
X1346Y894D02*
X1419Y894D01*
X1349Y893D02*
X1419Y893D01*
X1351Y892D02*
X1418Y892D01*
X1353Y891D02*
X1418Y891D01*
X1356Y890D02*
X1418Y890D01*
X1358Y889D02*
X1417Y889D01*
X1361Y888D02*
X1417Y888D01*
X1363Y887D02*
X1416Y887D01*
X1366Y886D02*
X1416Y886D01*
X1368Y885D02*
X1416Y885D01*
X1370Y884D02*
X1415Y884D01*
X1373Y883D02*
X1415Y883D01*
X1375Y882D02*
X1414Y882D01*
X1378Y881D02*
X1414Y881D01*
X1380Y880D02*
X1414Y880D01*
X1383Y879D02*
X1413Y879D01*
X1385Y878D02*
X1413Y878D01*
X1387Y877D02*
X1412Y877D01*
X1390Y876D02*
X1411Y876D01*
X1392Y875D02*
X1411Y875D01*
X1395Y874D02*
X1410Y874D01*
X1397Y873D02*
X1408Y873D01*
X1400Y872D02*
X1406Y872D01*
X2521Y195D02*
X2609Y195D01*
X2387Y194D02*
X2609Y194D01*
X2253Y193D02*
X2609Y193D01*
X2119Y192D02*
X2609Y192D01*
X1985Y191D02*
X2609Y191D01*
X1851Y190D02*
X2609Y190D01*
X1717Y189D02*
X2609Y189D01*
X1583Y188D02*
X2610Y188D01*
X1449Y187D02*
X2610Y187D01*
X1315Y186D02*
X2610Y186D01*
X1181Y185D02*
X2610Y185D01*
X1047Y184D02*
X2610Y184D01*
X912Y183D02*
X2610Y183D01*
X778Y182D02*
X2610Y182D01*
X644Y181D02*
X2610Y181D01*
X510Y180D02*
X2610Y180D01*
X376Y179D02*
X2610Y179D01*
X242Y178D02*
X2611Y178D01*
X14Y177D02*
X16Y177D01*
X108Y177D02*
X2611Y177D01*
X14Y176D02*
X2611Y176D01*
X14Y175D02*
X2611Y175D01*
X14Y174D02*
X2611Y174D01*
X14Y173D02*
X2611Y173D01*
X14Y172D02*
X2611Y172D01*
X13Y171D02*
X2611Y171D01*
X13Y170D02*
X2611Y170D01*
X13Y169D02*
X2611Y169D01*
X13Y168D02*
X2612Y168D01*
X13Y167D02*
X2612Y167D01*
X13Y166D02*
X2612Y166D01*
X13Y165D02*
X2612Y165D01*
X13Y164D02*
X2612Y164D01*
X13Y163D02*
X2612Y163D01*
X13Y162D02*
X2612Y162D01*
X13Y161D02*
X2612Y161D01*
X12Y160D02*
X2612Y160D01*
X12Y159D02*
X2612Y159D01*
X12Y158D02*
X2613Y158D01*
X12Y157D02*
X2613Y157D01*
X12Y156D02*
X2613Y156D01*
X12Y155D02*
X2613Y155D01*
X12Y154D02*
X2613Y154D01*
X12Y153D02*
X2613Y153D01*
X12Y152D02*
X2613Y152D01*
X12Y151D02*
X2613Y151D01*
X11Y150D02*
X2613Y150D01*
X11Y149D02*
X2613Y149D01*
X11Y148D02*
X2614Y148D01*
X11Y147D02*
X2614Y147D01*
X11Y146D02*
X2614Y146D01*
X11Y145D02*
X2614Y145D01*
X11Y144D02*
X2614Y144D01*
X11Y143D02*
X2614Y143D01*
X11Y142D02*
X2614Y142D01*
X11Y141D02*
X2614Y141D01*
X10Y140D02*
X2614Y140D01*
X10Y139D02*
X2614Y139D01*
X10Y138D02*
X2615Y138D01*
X10Y137D02*
X2615Y137D01*
X10Y136D02*
X2615Y136D01*
X10Y135D02*
X2615Y135D01*
X10Y134D02*
X2615Y134D01*
X10Y133D02*
X2615Y133D01*
X10Y132D02*
X2615Y132D01*
X10Y131D02*
X2615Y131D01*
X9Y130D02*
X2615Y130D01*
X9Y129D02*
X2615Y129D01*
X9Y128D02*
X2616Y128D01*
X9Y127D02*
X2616Y127D01*
X9Y126D02*
X2616Y126D01*
X9Y125D02*
X2616Y125D01*
X9Y124D02*
X2616Y124D01*
X9Y123D02*
X2616Y123D01*
X9Y122D02*
X2616Y122D01*
X9Y121D02*
X2616Y121D01*
X9Y120D02*
X2616Y120D01*
X8Y119D02*
X2616Y119D01*
X8Y118D02*
X2616Y118D01*
X8Y117D02*
X2617Y117D01*
X8Y116D02*
X2617Y116D01*
X8Y115D02*
X2617Y115D01*
X8Y114D02*
X2617Y114D01*
X8Y113D02*
X2617Y113D01*
X8Y112D02*
X2617Y112D01*
X8Y111D02*
X2617Y111D01*
X8Y110D02*
X2617Y110D01*
X7Y109D02*
X2617Y109D01*
X7Y108D02*
X2617Y108D01*
X7Y107D02*
X2618Y107D01*
X7Y106D02*
X2618Y106D01*
X7Y105D02*
X2618Y105D01*
X7Y104D02*
X2618Y104D01*
X7Y103D02*
X2618Y103D01*
X7Y102D02*
X2618Y102D01*
X7Y101D02*
X2618Y101D01*
X7Y100D02*
X2618Y100D01*
X6Y99D02*
X2618Y99D01*
X6Y98D02*
X2618Y98D01*
X6Y97D02*
X2619Y97D01*
X6Y96D02*
X2619Y96D01*
X6Y95D02*
X2619Y95D01*
X6Y94D02*
X2619Y94D01*
X6Y93D02*
X2619Y93D01*
X6Y92D02*
X2619Y92D01*
X6Y91D02*
X2619Y91D01*
X6Y90D02*
X2619Y90D01*
X6Y89D02*
X2619Y89D01*
X5Y88D02*
X2619Y88D01*
X5Y87D02*
X2620Y87D01*
X5Y86D02*
X2620Y86D01*
X5Y85D02*
X2620Y85D01*
X5Y84D02*
X2620Y84D01*
X5Y83D02*
X2620Y83D01*
X5Y82D02*
X2620Y82D01*
X5Y81D02*
X2620Y81D01*
X5Y80D02*
X2620Y80D01*
X5Y79D02*
X2620Y79D01*
X4Y78D02*
X2620Y78D01*
X4Y77D02*
X2621Y77D01*
X4Y76D02*
X2621Y76D01*
X4Y75D02*
X2621Y75D01*
X4Y74D02*
X2621Y74D01*
X4Y73D02*
X2621Y73D01*
X4Y72D02*
X2621Y72D01*
X4Y71D02*
X2621Y71D01*
X4Y70D02*
X2621Y70D01*
X4Y69D02*
X2621Y69D01*
X3Y68D02*
X2621Y68D01*
X3Y67D02*
X2622Y67D01*
X3Y66D02*
X2622Y66D01*
X3Y65D02*
X2622Y65D01*
X3Y64D02*
X2622Y64D01*
X3Y63D02*
X2622Y63D01*
X3Y62D02*
X2622Y62D01*
X3Y61D02*
X2622Y61D01*
X3Y60D02*
X2622Y60D01*
X3Y59D02*
X2622Y59D01*
X2Y58D02*
X2622Y58D01*
X2Y57D02*
X2623Y57D01*
X2Y56D02*
X2623Y56D01*
X2Y55D02*
X2623Y55D01*
X2Y54D02*
X2623Y54D01*
X2Y53D02*
X2623Y53D01*
X2Y52D02*
X2623Y52D01*
X2Y51D02*
X2623Y51D01*
X2Y50D02*
X2623Y50D01*
X2Y49D02*
X2623Y49D01*
X2Y48D02*
X2623Y48D01*
X1Y47D02*
X2623Y47D01*
X1Y46D02*
X2624Y46D01*
X1Y45D02*
X2624Y45D01*
X1Y44D02*
X2624Y44D01*
X1Y43D02*
X2624Y43D01*
X1Y42D02*
X2624Y42D01*
X1Y41D02*
X2624Y41D01*
X1Y40D02*
X2624Y40D01*
X1Y39D02*
X2624Y39D01*
X1Y38D02*
X2624Y38D01*
X0Y37D02*
X2624Y37D01*
X0Y36D02*
X2625Y36D01*
X0Y35D02*
X2625Y35D01*
X0Y34D02*
X2625Y34D01*
X0Y33D02*
X2625Y33D01*
X0Y32D02*
X2625Y32D01*
X0Y31D02*
X2625Y31D01*
X0Y30D02*
X2625Y30D01*
X0Y29D02*
X2625Y29D01*
X0Y28D02*
X2625Y28D01*
X0Y27D02*
X2625Y27D01*
X0Y26D02*
X2626Y26D01*
X0Y25D02*
X2626Y25D01*
X0Y24D02*
X2626Y24D01*
X0Y23D02*
X2626Y23D01*
X0Y22D02*
X2626Y22D01*
X0Y21D02*
X2626Y21D01*
X0Y20D02*
X2626Y20D01*
X0Y19D02*
X2626Y19D01*
X0Y18D02*
X2626Y18D01*
X0Y17D02*
X2626Y17D01*
X0Y16D02*
X2627Y16D01*
X0Y15D02*
X2627Y15D01*
X0Y14D02*
X2627Y14D01*
X0Y13D02*
X2627Y13D01*
X0Y12D02*
X2627Y12D01*
X0Y11D02*
X2627Y11D01*
X0Y10D02*
X2627Y10D01*
X0Y9D02*
X2627Y9D01*
X0Y8D02*
X2627Y8D01*
X0Y7D02*
X2627Y7D01*
X0Y6D02*
X2628Y6D01*
X0Y5D02*
X2628Y5D01*
X0Y4D02*
X2628Y4D01*
X0Y3D02*
X2628Y3D01*
X0Y2D02*
X2558Y2D01*
X0Y1D02*
X2415Y1D01*
X0Y0D02*
X2272Y0D01*
D02*
G04 End of Copper1*
M02*