G04 MADE WITH FRITZING*
G04 WWW.FRITZING.ORG*
G04 DOUBLE SIDED*
G04 HOLES PLATED*
G04 CONTOUR ON CENTER OF CONTOUR VECTOR*
%ASAXBY*%
%FSLAX23Y23*%
%MOIN*%
%OFA0B0*%
%SFA1.0B1.0*%
%ADD10R,0.001000X0.001000*%
%LNSILK1*%
G90*
G70*
G54D10*
X658Y1771D02*
X683Y1771D01*
X1022Y1771D02*
X1046Y1771D01*
X658Y1770D02*
X683Y1770D01*
X1022Y1770D02*
X1046Y1770D01*
X658Y1769D02*
X683Y1769D01*
X1022Y1769D02*
X1046Y1769D01*
X658Y1768D02*
X683Y1768D01*
X1022Y1768D02*
X1046Y1768D01*
X658Y1767D02*
X683Y1767D01*
X1022Y1767D02*
X1046Y1767D01*
X658Y1766D02*
X683Y1766D01*
X1022Y1766D02*
X1046Y1766D01*
X658Y1765D02*
X683Y1765D01*
X1022Y1765D02*
X1046Y1765D01*
X658Y1764D02*
X683Y1764D01*
X1022Y1764D02*
X1046Y1764D01*
X658Y1763D02*
X683Y1763D01*
X1022Y1763D02*
X1046Y1763D01*
X658Y1762D02*
X683Y1762D01*
X1022Y1762D02*
X1046Y1762D01*
X658Y1761D02*
X683Y1761D01*
X1022Y1761D02*
X1046Y1761D01*
X658Y1760D02*
X683Y1760D01*
X1022Y1760D02*
X1046Y1760D01*
X658Y1759D02*
X683Y1759D01*
X1022Y1759D02*
X1046Y1759D01*
X658Y1758D02*
X683Y1758D01*
X1022Y1758D02*
X1046Y1758D01*
X658Y1757D02*
X683Y1757D01*
X1022Y1757D02*
X1046Y1757D01*
X658Y1756D02*
X683Y1756D01*
X1022Y1756D02*
X1046Y1756D01*
X658Y1755D02*
X683Y1755D01*
X1022Y1755D02*
X1046Y1755D01*
X658Y1754D02*
X683Y1754D01*
X1022Y1754D02*
X1046Y1754D01*
X658Y1753D02*
X683Y1753D01*
X1022Y1753D02*
X1046Y1753D01*
X658Y1752D02*
X683Y1752D01*
X1022Y1752D02*
X1046Y1752D01*
X658Y1751D02*
X683Y1751D01*
X1022Y1751D02*
X1046Y1751D01*
X658Y1750D02*
X683Y1750D01*
X1022Y1750D02*
X1046Y1750D01*
X658Y1749D02*
X683Y1749D01*
X1022Y1749D02*
X1046Y1749D01*
X658Y1748D02*
X683Y1748D01*
X1022Y1748D02*
X1046Y1748D01*
X658Y1747D02*
X683Y1747D01*
X1022Y1747D02*
X1046Y1747D01*
X658Y1746D02*
X683Y1746D01*
X1022Y1746D02*
X1046Y1746D01*
X658Y1745D02*
X683Y1745D01*
X1022Y1745D02*
X1046Y1745D01*
X658Y1744D02*
X683Y1744D01*
X1022Y1744D02*
X1046Y1744D01*
X658Y1743D02*
X683Y1743D01*
X1022Y1743D02*
X1046Y1743D01*
X658Y1742D02*
X683Y1742D01*
X1022Y1742D02*
X1046Y1742D01*
X658Y1741D02*
X683Y1741D01*
X1022Y1741D02*
X1046Y1741D01*
X658Y1740D02*
X683Y1740D01*
X1022Y1740D02*
X1046Y1740D01*
X658Y1739D02*
X683Y1739D01*
X1022Y1739D02*
X1046Y1739D01*
X658Y1738D02*
X683Y1738D01*
X1022Y1738D02*
X1046Y1738D01*
X658Y1737D02*
X683Y1737D01*
X1022Y1737D02*
X1046Y1737D01*
X658Y1736D02*
X683Y1736D01*
X1022Y1736D02*
X1046Y1736D01*
X658Y1735D02*
X683Y1735D01*
X1022Y1735D02*
X1046Y1735D01*
X658Y1734D02*
X683Y1734D01*
X1022Y1734D02*
X1046Y1734D01*
X658Y1733D02*
X683Y1733D01*
X1022Y1733D02*
X1046Y1733D01*
X658Y1732D02*
X683Y1732D01*
X1022Y1732D02*
X1046Y1732D01*
X658Y1731D02*
X683Y1731D01*
X1022Y1731D02*
X1046Y1731D01*
X658Y1730D02*
X683Y1730D01*
X1022Y1730D02*
X1046Y1730D01*
X658Y1729D02*
X683Y1729D01*
X1022Y1729D02*
X1046Y1729D01*
X658Y1728D02*
X683Y1728D01*
X1022Y1728D02*
X1046Y1728D01*
X658Y1727D02*
X683Y1727D01*
X1022Y1727D02*
X1046Y1727D01*
X658Y1726D02*
X683Y1726D01*
X1022Y1726D02*
X1046Y1726D01*
X658Y1725D02*
X683Y1725D01*
X1022Y1725D02*
X1046Y1725D01*
X658Y1724D02*
X683Y1724D01*
X1022Y1724D02*
X1046Y1724D01*
X658Y1723D02*
X683Y1723D01*
X1022Y1723D02*
X1046Y1723D01*
X658Y1722D02*
X683Y1722D01*
X1022Y1722D02*
X1046Y1722D01*
X658Y1721D02*
X683Y1721D01*
X1022Y1721D02*
X1046Y1721D01*
X658Y1720D02*
X683Y1720D01*
X1022Y1720D02*
X1046Y1720D01*
X658Y1719D02*
X683Y1719D01*
X1022Y1719D02*
X1046Y1719D01*
X658Y1718D02*
X683Y1718D01*
X1022Y1718D02*
X1046Y1718D01*
X658Y1717D02*
X683Y1717D01*
X1022Y1717D02*
X1046Y1717D01*
X658Y1716D02*
X683Y1716D01*
X1022Y1716D02*
X1046Y1716D01*
X658Y1715D02*
X683Y1715D01*
X1022Y1715D02*
X1046Y1715D01*
X658Y1714D02*
X683Y1714D01*
X1022Y1714D02*
X1046Y1714D01*
X658Y1713D02*
X683Y1713D01*
X1022Y1713D02*
X1046Y1713D01*
X658Y1712D02*
X683Y1712D01*
X1022Y1712D02*
X1046Y1712D01*
X658Y1711D02*
X683Y1711D01*
X1022Y1711D02*
X1046Y1711D01*
X658Y1710D02*
X683Y1710D01*
X1022Y1710D02*
X1046Y1710D01*
X658Y1709D02*
X683Y1709D01*
X1022Y1709D02*
X1046Y1709D01*
X658Y1708D02*
X683Y1708D01*
X1022Y1708D02*
X1046Y1708D01*
X658Y1707D02*
X683Y1707D01*
X1022Y1707D02*
X1046Y1707D01*
X658Y1706D02*
X683Y1706D01*
X1022Y1706D02*
X1046Y1706D01*
X658Y1705D02*
X683Y1705D01*
X1022Y1705D02*
X1046Y1705D01*
X658Y1704D02*
X683Y1704D01*
X1022Y1704D02*
X1046Y1704D01*
X658Y1703D02*
X683Y1703D01*
X1022Y1703D02*
X1046Y1703D01*
X658Y1702D02*
X683Y1702D01*
X1022Y1702D02*
X1046Y1702D01*
X658Y1701D02*
X683Y1701D01*
X1022Y1701D02*
X1046Y1701D01*
X658Y1700D02*
X683Y1700D01*
X1022Y1700D02*
X1046Y1700D01*
X658Y1699D02*
X683Y1699D01*
X1022Y1699D02*
X1046Y1699D01*
X658Y1698D02*
X683Y1698D01*
X1022Y1698D02*
X1046Y1698D01*
X658Y1697D02*
X683Y1697D01*
X1022Y1697D02*
X1046Y1697D01*
X658Y1696D02*
X683Y1696D01*
X1022Y1696D02*
X1046Y1696D01*
X658Y1695D02*
X683Y1695D01*
X1022Y1695D02*
X1046Y1695D01*
X658Y1694D02*
X683Y1694D01*
X1022Y1694D02*
X1046Y1694D01*
X658Y1693D02*
X683Y1693D01*
X1022Y1693D02*
X1046Y1693D01*
X658Y1692D02*
X683Y1692D01*
X1022Y1692D02*
X1046Y1692D01*
X658Y1691D02*
X683Y1691D01*
X1022Y1691D02*
X1046Y1691D01*
X658Y1690D02*
X683Y1690D01*
X1022Y1690D02*
X1046Y1690D01*
X658Y1689D02*
X683Y1689D01*
X1022Y1689D02*
X1046Y1689D01*
X658Y1688D02*
X683Y1688D01*
X1022Y1688D02*
X1046Y1688D01*
X658Y1687D02*
X683Y1687D01*
X1022Y1687D02*
X1046Y1687D01*
X658Y1686D02*
X683Y1686D01*
X1022Y1686D02*
X1046Y1686D01*
X658Y1685D02*
X683Y1685D01*
X1022Y1685D02*
X1046Y1685D01*
X658Y1684D02*
X683Y1684D01*
X1022Y1684D02*
X1046Y1684D01*
X658Y1683D02*
X683Y1683D01*
X1022Y1683D02*
X1046Y1683D01*
X658Y1682D02*
X683Y1682D01*
X1022Y1682D02*
X1046Y1682D01*
X658Y1681D02*
X683Y1681D01*
X1022Y1681D02*
X1046Y1681D01*
X658Y1680D02*
X683Y1680D01*
X1022Y1680D02*
X1046Y1680D01*
X658Y1679D02*
X683Y1679D01*
X1022Y1679D02*
X1046Y1679D01*
X658Y1678D02*
X683Y1678D01*
X1022Y1678D02*
X1046Y1678D01*
X658Y1677D02*
X683Y1677D01*
X1022Y1677D02*
X1046Y1677D01*
X658Y1676D02*
X683Y1676D01*
X1022Y1676D02*
X1046Y1676D01*
X658Y1675D02*
X683Y1675D01*
X1022Y1675D02*
X1046Y1675D01*
X658Y1674D02*
X683Y1674D01*
X1022Y1674D02*
X1046Y1674D01*
X658Y1673D02*
X683Y1673D01*
X1022Y1673D02*
X1046Y1673D01*
X658Y1672D02*
X683Y1672D01*
X1022Y1672D02*
X1046Y1672D01*
X658Y1671D02*
X683Y1671D01*
X1022Y1671D02*
X1046Y1671D01*
X658Y1670D02*
X683Y1670D01*
X1022Y1670D02*
X1046Y1670D01*
X658Y1669D02*
X683Y1669D01*
X1022Y1669D02*
X1046Y1669D01*
X658Y1668D02*
X683Y1668D01*
X1022Y1668D02*
X1046Y1668D01*
X658Y1667D02*
X683Y1667D01*
X1022Y1667D02*
X1046Y1667D01*
X658Y1666D02*
X683Y1666D01*
X1022Y1666D02*
X1046Y1666D01*
X658Y1665D02*
X683Y1665D01*
X1022Y1665D02*
X1046Y1665D01*
X658Y1664D02*
X683Y1664D01*
X1022Y1664D02*
X1046Y1664D01*
X658Y1663D02*
X683Y1663D01*
X1022Y1663D02*
X1046Y1663D01*
X658Y1662D02*
X683Y1662D01*
X1022Y1662D02*
X1046Y1662D01*
X658Y1661D02*
X683Y1661D01*
X1022Y1661D02*
X1046Y1661D01*
X658Y1660D02*
X683Y1660D01*
X1022Y1660D02*
X1046Y1660D01*
X658Y1659D02*
X683Y1659D01*
X1022Y1659D02*
X1046Y1659D01*
X658Y1658D02*
X683Y1658D01*
X1022Y1658D02*
X1046Y1658D01*
X658Y1657D02*
X683Y1657D01*
X1022Y1657D02*
X1046Y1657D01*
X658Y1656D02*
X683Y1656D01*
X1022Y1656D02*
X1046Y1656D01*
X658Y1655D02*
X683Y1655D01*
X1022Y1655D02*
X1046Y1655D01*
X658Y1654D02*
X683Y1654D01*
X1022Y1654D02*
X1046Y1654D01*
X658Y1653D02*
X683Y1653D01*
X1022Y1653D02*
X1046Y1653D01*
X658Y1652D02*
X683Y1652D01*
X1022Y1652D02*
X1046Y1652D01*
X658Y1651D02*
X683Y1651D01*
X1022Y1651D02*
X1046Y1651D01*
X658Y1650D02*
X683Y1650D01*
X1022Y1650D02*
X1046Y1650D01*
X658Y1649D02*
X683Y1649D01*
X1022Y1649D02*
X1046Y1649D01*
X658Y1648D02*
X683Y1648D01*
X1022Y1648D02*
X1046Y1648D01*
X658Y1647D02*
X683Y1647D01*
X1022Y1647D02*
X1046Y1647D01*
X658Y1646D02*
X683Y1646D01*
X1022Y1646D02*
X1046Y1646D01*
X658Y1645D02*
X683Y1645D01*
X1022Y1645D02*
X1046Y1645D01*
X658Y1644D02*
X683Y1644D01*
X1022Y1644D02*
X1046Y1644D01*
X658Y1643D02*
X683Y1643D01*
X1022Y1643D02*
X1046Y1643D01*
X658Y1642D02*
X683Y1642D01*
X1022Y1642D02*
X1046Y1642D01*
X658Y1641D02*
X683Y1641D01*
X1022Y1641D02*
X1046Y1641D01*
X658Y1640D02*
X683Y1640D01*
X1022Y1640D02*
X1046Y1640D01*
X658Y1639D02*
X683Y1639D01*
X1022Y1639D02*
X1046Y1639D01*
X658Y1638D02*
X683Y1638D01*
X1022Y1638D02*
X1046Y1638D01*
X658Y1637D02*
X683Y1637D01*
X1022Y1637D02*
X1046Y1637D01*
X658Y1636D02*
X683Y1636D01*
X1022Y1636D02*
X1046Y1636D01*
X658Y1635D02*
X683Y1635D01*
X1022Y1635D02*
X1046Y1635D01*
X658Y1634D02*
X683Y1634D01*
X1022Y1634D02*
X1046Y1634D01*
X658Y1633D02*
X683Y1633D01*
X1022Y1633D02*
X1046Y1633D01*
X658Y1632D02*
X683Y1632D01*
X1022Y1632D02*
X1046Y1632D01*
X658Y1631D02*
X683Y1631D01*
X1022Y1631D02*
X1046Y1631D01*
X658Y1630D02*
X683Y1630D01*
X1022Y1630D02*
X1046Y1630D01*
X658Y1629D02*
X683Y1629D01*
X1022Y1629D02*
X1046Y1629D01*
X658Y1628D02*
X683Y1628D01*
X1022Y1628D02*
X1046Y1628D01*
X658Y1627D02*
X683Y1627D01*
X1022Y1627D02*
X1046Y1627D01*
X658Y1626D02*
X683Y1626D01*
X1022Y1626D02*
X1046Y1626D01*
X658Y1625D02*
X683Y1625D01*
X1022Y1625D02*
X1046Y1625D01*
X658Y1624D02*
X683Y1624D01*
X1022Y1624D02*
X1046Y1624D01*
X658Y1623D02*
X683Y1623D01*
X1022Y1623D02*
X1046Y1623D01*
X658Y1622D02*
X683Y1622D01*
X1022Y1622D02*
X1046Y1622D01*
X658Y1621D02*
X683Y1621D01*
X1022Y1621D02*
X1046Y1621D01*
X658Y1620D02*
X683Y1620D01*
X1022Y1620D02*
X1046Y1620D01*
X658Y1619D02*
X683Y1619D01*
X1022Y1619D02*
X1046Y1619D01*
X658Y1618D02*
X683Y1618D01*
X1022Y1618D02*
X1046Y1618D01*
X658Y1617D02*
X683Y1617D01*
X1022Y1617D02*
X1046Y1617D01*
X658Y1616D02*
X683Y1616D01*
X1022Y1616D02*
X1046Y1616D01*
X658Y1615D02*
X683Y1615D01*
X1022Y1615D02*
X1046Y1615D01*
X658Y1614D02*
X683Y1614D01*
X1022Y1614D02*
X1046Y1614D01*
X658Y1613D02*
X683Y1613D01*
X1022Y1613D02*
X1046Y1613D01*
X658Y1612D02*
X683Y1612D01*
X1022Y1612D02*
X1046Y1612D01*
X658Y1611D02*
X683Y1611D01*
X1022Y1611D02*
X1046Y1611D01*
X658Y1610D02*
X683Y1610D01*
X1022Y1610D02*
X1046Y1610D01*
X658Y1609D02*
X683Y1609D01*
X1022Y1609D02*
X1046Y1609D01*
X658Y1608D02*
X683Y1608D01*
X1022Y1608D02*
X1046Y1608D01*
X658Y1607D02*
X683Y1607D01*
X1022Y1607D02*
X1046Y1607D01*
X658Y1606D02*
X683Y1606D01*
X1022Y1606D02*
X1046Y1606D01*
X658Y1605D02*
X683Y1605D01*
X1022Y1605D02*
X1046Y1605D01*
X658Y1604D02*
X683Y1604D01*
X1022Y1604D02*
X1046Y1604D01*
X658Y1603D02*
X683Y1603D01*
X1022Y1603D02*
X1046Y1603D01*
X658Y1602D02*
X683Y1602D01*
X1022Y1602D02*
X1046Y1602D01*
X658Y1601D02*
X683Y1601D01*
X1022Y1601D02*
X1046Y1601D01*
X658Y1600D02*
X683Y1600D01*
X1022Y1600D02*
X1046Y1600D01*
X658Y1599D02*
X683Y1599D01*
X1022Y1599D02*
X1046Y1599D01*
X658Y1598D02*
X683Y1598D01*
X1022Y1598D02*
X1046Y1598D01*
X658Y1597D02*
X683Y1597D01*
X1022Y1597D02*
X1046Y1597D01*
X658Y1596D02*
X683Y1596D01*
X1022Y1596D02*
X1046Y1596D01*
X658Y1595D02*
X683Y1595D01*
X1022Y1595D02*
X1046Y1595D01*
X658Y1594D02*
X683Y1594D01*
X1022Y1594D02*
X1046Y1594D01*
X658Y1593D02*
X683Y1593D01*
X1022Y1593D02*
X1046Y1593D01*
X658Y1592D02*
X683Y1592D01*
X1022Y1592D02*
X1046Y1592D01*
X658Y1591D02*
X683Y1591D01*
X1022Y1591D02*
X1046Y1591D01*
X658Y1590D02*
X683Y1590D01*
X1022Y1590D02*
X1046Y1590D01*
X658Y1589D02*
X683Y1589D01*
X1022Y1589D02*
X1046Y1589D01*
X658Y1588D02*
X683Y1588D01*
X1022Y1588D02*
X1046Y1588D01*
X658Y1587D02*
X683Y1587D01*
X1022Y1587D02*
X1046Y1587D01*
X658Y1586D02*
X683Y1586D01*
X1022Y1586D02*
X1046Y1586D01*
X658Y1585D02*
X683Y1585D01*
X1022Y1585D02*
X1046Y1585D01*
X658Y1584D02*
X683Y1584D01*
X1022Y1584D02*
X1046Y1584D01*
X658Y1583D02*
X683Y1583D01*
X1022Y1583D02*
X1046Y1583D01*
X658Y1582D02*
X683Y1582D01*
X1022Y1582D02*
X1046Y1582D01*
X658Y1581D02*
X683Y1581D01*
X1022Y1581D02*
X1046Y1581D01*
X658Y1580D02*
X683Y1580D01*
X1022Y1580D02*
X1046Y1580D01*
X658Y1579D02*
X683Y1579D01*
X1022Y1579D02*
X1046Y1579D01*
X658Y1578D02*
X683Y1578D01*
X1022Y1578D02*
X1046Y1578D01*
X658Y1577D02*
X683Y1577D01*
X1022Y1577D02*
X1046Y1577D01*
X658Y1576D02*
X683Y1576D01*
X1022Y1576D02*
X1046Y1576D01*
X658Y1575D02*
X683Y1575D01*
X1022Y1575D02*
X1046Y1575D01*
X658Y1574D02*
X683Y1574D01*
X1022Y1574D02*
X1046Y1574D01*
X658Y1573D02*
X683Y1573D01*
X1022Y1573D02*
X1046Y1573D01*
X658Y1572D02*
X683Y1572D01*
X1022Y1572D02*
X1046Y1572D01*
X658Y1571D02*
X683Y1571D01*
X1022Y1571D02*
X1046Y1571D01*
X658Y1570D02*
X683Y1570D01*
X1022Y1570D02*
X1046Y1570D01*
X658Y1569D02*
X683Y1569D01*
X1022Y1569D02*
X1046Y1569D01*
X658Y1568D02*
X683Y1568D01*
X1022Y1568D02*
X1046Y1568D01*
X658Y1567D02*
X683Y1567D01*
X1022Y1567D02*
X1046Y1567D01*
X658Y1566D02*
X683Y1566D01*
X1022Y1566D02*
X1046Y1566D01*
X658Y1565D02*
X683Y1565D01*
X1022Y1565D02*
X1046Y1565D01*
X658Y1564D02*
X683Y1564D01*
X1022Y1564D02*
X1046Y1564D01*
X658Y1563D02*
X683Y1563D01*
X1022Y1563D02*
X1046Y1563D01*
X658Y1562D02*
X683Y1562D01*
X1022Y1562D02*
X1046Y1562D01*
X658Y1561D02*
X683Y1561D01*
X1022Y1561D02*
X1046Y1561D01*
X658Y1560D02*
X683Y1560D01*
X1022Y1560D02*
X1046Y1560D01*
X658Y1559D02*
X683Y1559D01*
X1022Y1559D02*
X1046Y1559D01*
X658Y1558D02*
X683Y1558D01*
X1022Y1558D02*
X1046Y1558D01*
X658Y1557D02*
X683Y1557D01*
X1022Y1557D02*
X1046Y1557D01*
X658Y1556D02*
X683Y1556D01*
X1022Y1556D02*
X1046Y1556D01*
X658Y1555D02*
X683Y1555D01*
X1022Y1555D02*
X1046Y1555D01*
X658Y1554D02*
X683Y1554D01*
X1022Y1554D02*
X1046Y1554D01*
X658Y1553D02*
X683Y1553D01*
X1022Y1553D02*
X1046Y1553D01*
X658Y1552D02*
X683Y1552D01*
X1022Y1552D02*
X1046Y1552D01*
X658Y1551D02*
X683Y1551D01*
X1022Y1551D02*
X1046Y1551D01*
X658Y1550D02*
X683Y1550D01*
X1022Y1550D02*
X1046Y1550D01*
X658Y1549D02*
X683Y1549D01*
X1022Y1549D02*
X1046Y1549D01*
X658Y1548D02*
X683Y1548D01*
X1022Y1548D02*
X1046Y1548D01*
X658Y1547D02*
X683Y1547D01*
X1022Y1547D02*
X1046Y1547D01*
X658Y1546D02*
X683Y1546D01*
X1022Y1546D02*
X1046Y1546D01*
X658Y1545D02*
X683Y1545D01*
X1022Y1545D02*
X1046Y1545D01*
X658Y1544D02*
X683Y1544D01*
X1022Y1544D02*
X1046Y1544D01*
X658Y1543D02*
X683Y1543D01*
X1022Y1543D02*
X1046Y1543D01*
X658Y1542D02*
X683Y1542D01*
X1022Y1542D02*
X1046Y1542D01*
X658Y1541D02*
X683Y1541D01*
X1022Y1541D02*
X1046Y1541D01*
X658Y1540D02*
X683Y1540D01*
X1022Y1540D02*
X1046Y1540D01*
X658Y1539D02*
X683Y1539D01*
X1022Y1539D02*
X1046Y1539D01*
X658Y1538D02*
X683Y1538D01*
X1022Y1538D02*
X1046Y1538D01*
X658Y1537D02*
X683Y1537D01*
X1022Y1537D02*
X1046Y1537D01*
X658Y1536D02*
X683Y1536D01*
X1022Y1536D02*
X1046Y1536D01*
X658Y1535D02*
X683Y1535D01*
X1022Y1535D02*
X1046Y1535D01*
X658Y1534D02*
X683Y1534D01*
X1022Y1534D02*
X1046Y1534D01*
X658Y1533D02*
X683Y1533D01*
X1022Y1533D02*
X1046Y1533D01*
X658Y1532D02*
X683Y1532D01*
X1022Y1532D02*
X1046Y1532D01*
X658Y1531D02*
X683Y1531D01*
X1022Y1531D02*
X1046Y1531D01*
X658Y1530D02*
X683Y1530D01*
X1022Y1530D02*
X1046Y1530D01*
X658Y1529D02*
X683Y1529D01*
X1022Y1529D02*
X1046Y1529D01*
X658Y1528D02*
X683Y1528D01*
X1022Y1528D02*
X1046Y1528D01*
X658Y1527D02*
X683Y1527D01*
X1022Y1527D02*
X1046Y1527D01*
X658Y1526D02*
X683Y1526D01*
X1022Y1526D02*
X1046Y1526D01*
X658Y1525D02*
X683Y1525D01*
X1022Y1525D02*
X1046Y1525D01*
X658Y1524D02*
X683Y1524D01*
X1022Y1524D02*
X1046Y1524D01*
X658Y1523D02*
X683Y1523D01*
X1022Y1523D02*
X1046Y1523D01*
X658Y1522D02*
X683Y1522D01*
X1022Y1522D02*
X1046Y1522D01*
X658Y1521D02*
X683Y1521D01*
X1022Y1521D02*
X1046Y1521D01*
X658Y1520D02*
X683Y1520D01*
X1022Y1520D02*
X1046Y1520D01*
X658Y1519D02*
X683Y1519D01*
X1022Y1519D02*
X1046Y1519D01*
X658Y1518D02*
X683Y1518D01*
X1022Y1518D02*
X1046Y1518D01*
X658Y1517D02*
X683Y1517D01*
X1022Y1517D02*
X1046Y1517D01*
X658Y1516D02*
X683Y1516D01*
X1022Y1516D02*
X1046Y1516D01*
X658Y1515D02*
X683Y1515D01*
X1022Y1515D02*
X1046Y1515D01*
X658Y1514D02*
X683Y1514D01*
X1022Y1514D02*
X1046Y1514D01*
X658Y1513D02*
X683Y1513D01*
X1022Y1513D02*
X1046Y1513D01*
X658Y1512D02*
X683Y1512D01*
X1022Y1512D02*
X1046Y1512D01*
X658Y1511D02*
X683Y1511D01*
X1022Y1511D02*
X1046Y1511D01*
X658Y1510D02*
X683Y1510D01*
X1022Y1510D02*
X1046Y1510D01*
X658Y1509D02*
X683Y1509D01*
X1022Y1509D02*
X1046Y1509D01*
X658Y1508D02*
X683Y1508D01*
X1022Y1508D02*
X1046Y1508D01*
X658Y1507D02*
X683Y1507D01*
X1022Y1507D02*
X1046Y1507D01*
X658Y1506D02*
X683Y1506D01*
X1022Y1506D02*
X1046Y1506D01*
X658Y1505D02*
X683Y1505D01*
X1022Y1505D02*
X1046Y1505D01*
X658Y1504D02*
X683Y1504D01*
X1022Y1504D02*
X1046Y1504D01*
X658Y1503D02*
X683Y1503D01*
X1022Y1503D02*
X1046Y1503D01*
X658Y1502D02*
X683Y1502D01*
X1022Y1502D02*
X1046Y1502D01*
X658Y1501D02*
X683Y1501D01*
X1022Y1501D02*
X1046Y1501D01*
X658Y1500D02*
X683Y1500D01*
X1022Y1500D02*
X1046Y1500D01*
X658Y1499D02*
X683Y1499D01*
X1022Y1499D02*
X1046Y1499D01*
X658Y1498D02*
X683Y1498D01*
X1022Y1498D02*
X1046Y1498D01*
X658Y1497D02*
X683Y1497D01*
X1022Y1497D02*
X1046Y1497D01*
X658Y1496D02*
X683Y1496D01*
X1022Y1496D02*
X1046Y1496D01*
X658Y1495D02*
X683Y1495D01*
X1022Y1495D02*
X1046Y1495D01*
X658Y1494D02*
X683Y1494D01*
X1022Y1494D02*
X1046Y1494D01*
X658Y1493D02*
X683Y1493D01*
X1022Y1493D02*
X1046Y1493D01*
X658Y1492D02*
X683Y1492D01*
X1022Y1492D02*
X1046Y1492D01*
X658Y1491D02*
X683Y1491D01*
X1022Y1491D02*
X1046Y1491D01*
X658Y1490D02*
X683Y1490D01*
X1022Y1490D02*
X1046Y1490D01*
X658Y1489D02*
X683Y1489D01*
X1022Y1489D02*
X1046Y1489D01*
X658Y1488D02*
X683Y1488D01*
X1022Y1488D02*
X1046Y1488D01*
X658Y1487D02*
X683Y1487D01*
X1022Y1487D02*
X1046Y1487D01*
X658Y1486D02*
X683Y1486D01*
X1022Y1486D02*
X1046Y1486D01*
X658Y1485D02*
X683Y1485D01*
X1022Y1485D02*
X1046Y1485D01*
X658Y1484D02*
X683Y1484D01*
X1022Y1484D02*
X1046Y1484D01*
X658Y1483D02*
X683Y1483D01*
X1022Y1483D02*
X1046Y1483D01*
X658Y1482D02*
X683Y1482D01*
X1022Y1482D02*
X1046Y1482D01*
X658Y1481D02*
X683Y1481D01*
X1022Y1481D02*
X1046Y1481D01*
X658Y1480D02*
X683Y1480D01*
X1022Y1480D02*
X1046Y1480D01*
X658Y1479D02*
X683Y1479D01*
X1022Y1479D02*
X1046Y1479D01*
X658Y1478D02*
X683Y1478D01*
X1022Y1478D02*
X1046Y1478D01*
X658Y1477D02*
X683Y1477D01*
X1022Y1477D02*
X1046Y1477D01*
X658Y1476D02*
X683Y1476D01*
X1022Y1476D02*
X1046Y1476D01*
X658Y1475D02*
X683Y1475D01*
X1022Y1475D02*
X1046Y1475D01*
X658Y1474D02*
X683Y1474D01*
X1022Y1474D02*
X1046Y1474D01*
X658Y1473D02*
X683Y1473D01*
X1022Y1473D02*
X1046Y1473D01*
X658Y1472D02*
X683Y1472D01*
X1022Y1472D02*
X1046Y1472D01*
X658Y1471D02*
X683Y1471D01*
X1022Y1471D02*
X1046Y1471D01*
X658Y1470D02*
X683Y1470D01*
X1022Y1470D02*
X1046Y1470D01*
X658Y1469D02*
X683Y1469D01*
X1022Y1469D02*
X1046Y1469D01*
X658Y1468D02*
X683Y1468D01*
X1022Y1468D02*
X1046Y1468D01*
X658Y1467D02*
X683Y1467D01*
X1022Y1467D02*
X1046Y1467D01*
X658Y1466D02*
X683Y1466D01*
X1022Y1466D02*
X1046Y1466D01*
X658Y1465D02*
X683Y1465D01*
X1022Y1465D02*
X1046Y1465D01*
X658Y1464D02*
X683Y1464D01*
X1022Y1464D02*
X1046Y1464D01*
X658Y1463D02*
X683Y1463D01*
X1022Y1463D02*
X1046Y1463D01*
X658Y1462D02*
X683Y1462D01*
X1022Y1462D02*
X1046Y1462D01*
X658Y1461D02*
X683Y1461D01*
X1022Y1461D02*
X1046Y1461D01*
X658Y1460D02*
X683Y1460D01*
X1022Y1460D02*
X1046Y1460D01*
X658Y1459D02*
X683Y1459D01*
X1022Y1459D02*
X1046Y1459D01*
X658Y1458D02*
X683Y1458D01*
X1022Y1458D02*
X1046Y1458D01*
X658Y1457D02*
X683Y1457D01*
X1022Y1457D02*
X1046Y1457D01*
X658Y1456D02*
X683Y1456D01*
X1022Y1456D02*
X1046Y1456D01*
X658Y1455D02*
X683Y1455D01*
X1022Y1455D02*
X1046Y1455D01*
X658Y1454D02*
X683Y1454D01*
X1022Y1454D02*
X1046Y1454D01*
X658Y1453D02*
X683Y1453D01*
X1022Y1453D02*
X1046Y1453D01*
X658Y1452D02*
X683Y1452D01*
X1022Y1452D02*
X1046Y1452D01*
X658Y1451D02*
X683Y1451D01*
X1022Y1451D02*
X1046Y1451D01*
X658Y1450D02*
X683Y1450D01*
X1022Y1450D02*
X1046Y1450D01*
X658Y1449D02*
X683Y1449D01*
X1022Y1449D02*
X1046Y1449D01*
X658Y1448D02*
X683Y1448D01*
X1022Y1448D02*
X1046Y1448D01*
X658Y1447D02*
X683Y1447D01*
X1022Y1447D02*
X1046Y1447D01*
X658Y1446D02*
X683Y1446D01*
X1022Y1446D02*
X1046Y1446D01*
X658Y1445D02*
X683Y1445D01*
X1022Y1445D02*
X1046Y1445D01*
X658Y1444D02*
X683Y1444D01*
X1022Y1444D02*
X1046Y1444D01*
X658Y1443D02*
X683Y1443D01*
X1022Y1443D02*
X1046Y1443D01*
X658Y1442D02*
X683Y1442D01*
X1022Y1442D02*
X1046Y1442D01*
X658Y1441D02*
X683Y1441D01*
X1022Y1441D02*
X1046Y1441D01*
X658Y1440D02*
X683Y1440D01*
X1022Y1440D02*
X1046Y1440D01*
X658Y1439D02*
X683Y1439D01*
X1022Y1439D02*
X1046Y1439D01*
X658Y1438D02*
X683Y1438D01*
X1022Y1438D02*
X1046Y1438D01*
X658Y1437D02*
X683Y1437D01*
X1022Y1437D02*
X1046Y1437D01*
X658Y1436D02*
X683Y1436D01*
X1022Y1436D02*
X1046Y1436D01*
X658Y1435D02*
X683Y1435D01*
X1022Y1435D02*
X1046Y1435D01*
X658Y1434D02*
X683Y1434D01*
X1022Y1434D02*
X1046Y1434D01*
X658Y1433D02*
X683Y1433D01*
X1022Y1433D02*
X1046Y1433D01*
X658Y1432D02*
X683Y1432D01*
X1022Y1432D02*
X1046Y1432D01*
X658Y1431D02*
X683Y1431D01*
X1022Y1431D02*
X1046Y1431D01*
X658Y1430D02*
X683Y1430D01*
X1022Y1430D02*
X1046Y1430D01*
X658Y1429D02*
X683Y1429D01*
X1022Y1429D02*
X1046Y1429D01*
X658Y1428D02*
X683Y1428D01*
X1022Y1428D02*
X1046Y1428D01*
X658Y1427D02*
X683Y1427D01*
X1022Y1427D02*
X1046Y1427D01*
X658Y1426D02*
X683Y1426D01*
X1022Y1426D02*
X1046Y1426D01*
X658Y1425D02*
X683Y1425D01*
X1022Y1425D02*
X1046Y1425D01*
X658Y1424D02*
X683Y1424D01*
X1022Y1424D02*
X1046Y1424D01*
X658Y1423D02*
X683Y1423D01*
X1022Y1423D02*
X1046Y1423D01*
X658Y1422D02*
X683Y1422D01*
X1022Y1422D02*
X1046Y1422D01*
X658Y1421D02*
X683Y1421D01*
X1022Y1421D02*
X1046Y1421D01*
X658Y1420D02*
X683Y1420D01*
X1022Y1420D02*
X1046Y1420D01*
X658Y1419D02*
X683Y1419D01*
X1022Y1419D02*
X1046Y1419D01*
X658Y1418D02*
X683Y1418D01*
X1022Y1418D02*
X1046Y1418D01*
X658Y1417D02*
X683Y1417D01*
X1022Y1417D02*
X1046Y1417D01*
X658Y1416D02*
X683Y1416D01*
X1022Y1416D02*
X1046Y1416D01*
X658Y1415D02*
X683Y1415D01*
X1022Y1415D02*
X1046Y1415D01*
X658Y1414D02*
X683Y1414D01*
X1022Y1414D02*
X1046Y1414D01*
X658Y1413D02*
X683Y1413D01*
X1022Y1413D02*
X1046Y1413D01*
X658Y1412D02*
X683Y1412D01*
X1022Y1412D02*
X1046Y1412D01*
X658Y1411D02*
X683Y1411D01*
X1022Y1411D02*
X1046Y1411D01*
X658Y1410D02*
X683Y1410D01*
X1022Y1410D02*
X1046Y1410D01*
X658Y1409D02*
X683Y1409D01*
X1022Y1409D02*
X1046Y1409D01*
X658Y1408D02*
X683Y1408D01*
X1022Y1408D02*
X1046Y1408D01*
X658Y1407D02*
X683Y1407D01*
X1022Y1407D02*
X1046Y1407D01*
X658Y1406D02*
X683Y1406D01*
X1022Y1406D02*
X1046Y1406D01*
X658Y1405D02*
X683Y1405D01*
X1022Y1405D02*
X1046Y1405D01*
X658Y1404D02*
X683Y1404D01*
X1022Y1404D02*
X1046Y1404D01*
X658Y1403D02*
X683Y1403D01*
X1022Y1403D02*
X1046Y1403D01*
X658Y1402D02*
X683Y1402D01*
X1022Y1402D02*
X1046Y1402D01*
X658Y1401D02*
X683Y1401D01*
X1022Y1401D02*
X1046Y1401D01*
X658Y1400D02*
X683Y1400D01*
X1022Y1400D02*
X1046Y1400D01*
X658Y1399D02*
X683Y1399D01*
X1022Y1399D02*
X1046Y1399D01*
X658Y1398D02*
X683Y1398D01*
X1022Y1398D02*
X1046Y1398D01*
X658Y1397D02*
X683Y1397D01*
X1022Y1397D02*
X1046Y1397D01*
X658Y1396D02*
X683Y1396D01*
X1022Y1396D02*
X1046Y1396D01*
X658Y1395D02*
X683Y1395D01*
X1022Y1395D02*
X1046Y1395D01*
X658Y1394D02*
X683Y1394D01*
X1022Y1394D02*
X1046Y1394D01*
X658Y1393D02*
X683Y1393D01*
X1022Y1393D02*
X1046Y1393D01*
X658Y1392D02*
X683Y1392D01*
X1022Y1392D02*
X1046Y1392D01*
X658Y1391D02*
X683Y1391D01*
X1022Y1391D02*
X1046Y1391D01*
X658Y1390D02*
X683Y1390D01*
X1022Y1390D02*
X1046Y1390D01*
X658Y1389D02*
X683Y1389D01*
X1022Y1389D02*
X1046Y1389D01*
X658Y1388D02*
X683Y1388D01*
X1022Y1388D02*
X1046Y1388D01*
X658Y1387D02*
X683Y1387D01*
X1022Y1387D02*
X1046Y1387D01*
X658Y1386D02*
X683Y1386D01*
X1022Y1386D02*
X1046Y1386D01*
X658Y1385D02*
X683Y1385D01*
X1022Y1385D02*
X1046Y1385D01*
X658Y1384D02*
X683Y1384D01*
X1022Y1384D02*
X1046Y1384D01*
X658Y1383D02*
X683Y1383D01*
X1022Y1383D02*
X1046Y1383D01*
X658Y1382D02*
X683Y1382D01*
X1022Y1382D02*
X1046Y1382D01*
X658Y1381D02*
X775Y1381D01*
X932Y1381D02*
X1046Y1381D01*
X658Y1380D02*
X777Y1380D01*
X930Y1380D02*
X1046Y1380D01*
X658Y1379D02*
X779Y1379D01*
X929Y1379D02*
X1046Y1379D01*
X658Y1378D02*
X780Y1378D01*
X928Y1378D02*
X1046Y1378D01*
X658Y1377D02*
X781Y1377D01*
X927Y1377D02*
X1046Y1377D01*
X658Y1376D02*
X782Y1376D01*
X926Y1376D02*
X1046Y1376D01*
X658Y1375D02*
X782Y1375D01*
X926Y1375D02*
X1046Y1375D01*
X658Y1374D02*
X783Y1374D01*
X925Y1374D02*
X1046Y1374D01*
X658Y1373D02*
X783Y1373D01*
X925Y1373D02*
X1046Y1373D01*
X658Y1372D02*
X783Y1372D01*
X925Y1372D02*
X1046Y1372D01*
X658Y1371D02*
X783Y1371D01*
X924Y1371D02*
X1046Y1371D01*
X658Y1370D02*
X784Y1370D01*
X924Y1370D02*
X1046Y1370D01*
X658Y1369D02*
X784Y1369D01*
X924Y1369D02*
X1046Y1369D01*
X658Y1368D02*
X784Y1368D01*
X924Y1368D02*
X1046Y1368D01*
X658Y1367D02*
X784Y1367D01*
X924Y1367D02*
X1046Y1367D01*
X659Y1366D02*
X784Y1366D01*
X924Y1366D02*
X1046Y1366D01*
X659Y1365D02*
X784Y1365D01*
X924Y1365D02*
X1046Y1365D01*
X659Y1364D02*
X784Y1364D01*
X924Y1364D02*
X1045Y1364D01*
X660Y1363D02*
X784Y1363D01*
X924Y1363D02*
X1045Y1363D01*
X661Y1362D02*
X784Y1362D01*
X924Y1362D02*
X1044Y1362D01*
X661Y1361D02*
X784Y1361D01*
X924Y1361D02*
X1043Y1361D01*
X662Y1360D02*
X784Y1360D01*
X924Y1360D02*
X1042Y1360D01*
X663Y1359D02*
X784Y1359D01*
X924Y1359D02*
X1041Y1359D01*
X665Y1358D02*
X784Y1358D01*
X924Y1358D02*
X1040Y1358D01*
X668Y1357D02*
X784Y1357D01*
X924Y1357D02*
X1037Y1357D01*
X759Y1356D02*
X784Y1356D01*
X924Y1356D02*
X948Y1356D01*
X759Y1355D02*
X784Y1355D01*
X924Y1355D02*
X948Y1355D01*
X759Y1354D02*
X784Y1354D01*
X924Y1354D02*
X948Y1354D01*
X759Y1353D02*
X784Y1353D01*
X924Y1353D02*
X948Y1353D01*
X759Y1352D02*
X784Y1352D01*
X924Y1352D02*
X948Y1352D01*
X759Y1351D02*
X784Y1351D01*
X924Y1351D02*
X948Y1351D01*
X759Y1350D02*
X784Y1350D01*
X924Y1350D02*
X948Y1350D01*
X759Y1349D02*
X784Y1349D01*
X924Y1349D02*
X948Y1349D01*
X759Y1348D02*
X784Y1348D01*
X924Y1348D02*
X948Y1348D01*
X759Y1347D02*
X784Y1347D01*
X924Y1347D02*
X948Y1347D01*
X759Y1346D02*
X784Y1346D01*
X924Y1346D02*
X948Y1346D01*
X759Y1345D02*
X784Y1345D01*
X924Y1345D02*
X948Y1345D01*
X759Y1344D02*
X784Y1344D01*
X924Y1344D02*
X948Y1344D01*
X759Y1343D02*
X784Y1343D01*
X924Y1343D02*
X948Y1343D01*
X759Y1342D02*
X784Y1342D01*
X924Y1342D02*
X948Y1342D01*
X759Y1341D02*
X784Y1341D01*
X924Y1341D02*
X948Y1341D01*
X759Y1340D02*
X784Y1340D01*
X924Y1340D02*
X948Y1340D01*
X759Y1339D02*
X784Y1339D01*
X924Y1339D02*
X948Y1339D01*
X759Y1338D02*
X784Y1338D01*
X924Y1338D02*
X948Y1338D01*
X759Y1337D02*
X784Y1337D01*
X924Y1337D02*
X948Y1337D01*
X759Y1336D02*
X784Y1336D01*
X924Y1336D02*
X948Y1336D01*
X759Y1335D02*
X784Y1335D01*
X924Y1335D02*
X948Y1335D01*
X759Y1334D02*
X784Y1334D01*
X924Y1334D02*
X948Y1334D01*
X759Y1333D02*
X784Y1333D01*
X924Y1333D02*
X948Y1333D01*
X759Y1332D02*
X784Y1332D01*
X924Y1332D02*
X948Y1332D01*
X759Y1331D02*
X784Y1331D01*
X924Y1331D02*
X948Y1331D01*
X759Y1330D02*
X784Y1330D01*
X924Y1330D02*
X948Y1330D01*
X759Y1329D02*
X784Y1329D01*
X924Y1329D02*
X948Y1329D01*
X759Y1328D02*
X784Y1328D01*
X924Y1328D02*
X948Y1328D01*
X759Y1327D02*
X784Y1327D01*
X924Y1327D02*
X948Y1327D01*
X759Y1326D02*
X784Y1326D01*
X924Y1326D02*
X948Y1326D01*
X759Y1325D02*
X784Y1325D01*
X924Y1325D02*
X948Y1325D01*
X759Y1324D02*
X784Y1324D01*
X924Y1324D02*
X948Y1324D01*
X759Y1323D02*
X784Y1323D01*
X924Y1323D02*
X948Y1323D01*
X759Y1322D02*
X784Y1322D01*
X924Y1322D02*
X948Y1322D01*
X759Y1321D02*
X784Y1321D01*
X924Y1321D02*
X948Y1321D01*
X759Y1320D02*
X784Y1320D01*
X924Y1320D02*
X948Y1320D01*
X759Y1319D02*
X784Y1319D01*
X924Y1319D02*
X948Y1319D01*
X759Y1318D02*
X784Y1318D01*
X924Y1318D02*
X948Y1318D01*
X759Y1317D02*
X784Y1317D01*
X924Y1317D02*
X948Y1317D01*
X759Y1316D02*
X784Y1316D01*
X924Y1316D02*
X948Y1316D01*
X759Y1315D02*
X784Y1315D01*
X924Y1315D02*
X948Y1315D01*
X759Y1314D02*
X784Y1314D01*
X924Y1314D02*
X948Y1314D01*
X759Y1313D02*
X784Y1313D01*
X924Y1313D02*
X948Y1313D01*
X759Y1312D02*
X784Y1312D01*
X924Y1312D02*
X948Y1312D01*
X759Y1311D02*
X784Y1311D01*
X924Y1311D02*
X948Y1311D01*
X759Y1310D02*
X784Y1310D01*
X924Y1310D02*
X948Y1310D01*
X759Y1309D02*
X784Y1309D01*
X924Y1309D02*
X948Y1309D01*
X759Y1308D02*
X784Y1308D01*
X924Y1308D02*
X948Y1308D01*
X759Y1307D02*
X784Y1307D01*
X924Y1307D02*
X948Y1307D01*
X759Y1306D02*
X784Y1306D01*
X924Y1306D02*
X948Y1306D01*
X759Y1305D02*
X784Y1305D01*
X924Y1305D02*
X948Y1305D01*
X759Y1304D02*
X784Y1304D01*
X924Y1304D02*
X948Y1304D01*
X759Y1303D02*
X784Y1303D01*
X924Y1303D02*
X948Y1303D01*
X759Y1302D02*
X784Y1302D01*
X924Y1302D02*
X948Y1302D01*
X759Y1301D02*
X784Y1301D01*
X924Y1301D02*
X948Y1301D01*
X759Y1300D02*
X784Y1300D01*
X924Y1300D02*
X948Y1300D01*
X759Y1299D02*
X784Y1299D01*
X924Y1299D02*
X948Y1299D01*
X759Y1298D02*
X784Y1298D01*
X924Y1298D02*
X948Y1298D01*
X759Y1297D02*
X784Y1297D01*
X924Y1297D02*
X948Y1297D01*
X759Y1296D02*
X784Y1296D01*
X924Y1296D02*
X948Y1296D01*
X759Y1295D02*
X784Y1295D01*
X924Y1295D02*
X948Y1295D01*
X759Y1294D02*
X784Y1294D01*
X924Y1294D02*
X948Y1294D01*
X759Y1293D02*
X784Y1293D01*
X924Y1293D02*
X948Y1293D01*
X759Y1292D02*
X784Y1292D01*
X924Y1292D02*
X948Y1292D01*
X759Y1291D02*
X784Y1291D01*
X924Y1291D02*
X948Y1291D01*
X759Y1290D02*
X784Y1290D01*
X924Y1290D02*
X948Y1290D01*
X759Y1289D02*
X784Y1289D01*
X924Y1289D02*
X948Y1289D01*
X759Y1288D02*
X784Y1288D01*
X924Y1288D02*
X948Y1288D01*
X759Y1287D02*
X784Y1287D01*
X924Y1287D02*
X948Y1287D01*
X759Y1286D02*
X784Y1286D01*
X924Y1286D02*
X948Y1286D01*
X759Y1285D02*
X784Y1285D01*
X924Y1285D02*
X948Y1285D01*
X759Y1284D02*
X784Y1284D01*
X924Y1284D02*
X948Y1284D01*
X759Y1283D02*
X784Y1283D01*
X924Y1283D02*
X948Y1283D01*
X759Y1282D02*
X784Y1282D01*
X924Y1282D02*
X948Y1282D01*
X759Y1281D02*
X784Y1281D01*
X924Y1281D02*
X948Y1281D01*
X759Y1280D02*
X784Y1280D01*
X924Y1280D02*
X948Y1280D01*
X759Y1279D02*
X784Y1279D01*
X924Y1279D02*
X948Y1279D01*
X759Y1278D02*
X784Y1278D01*
X924Y1278D02*
X948Y1278D01*
X759Y1277D02*
X784Y1277D01*
X924Y1277D02*
X948Y1277D01*
X759Y1276D02*
X784Y1276D01*
X924Y1276D02*
X948Y1276D01*
X759Y1275D02*
X784Y1275D01*
X924Y1275D02*
X948Y1275D01*
X759Y1274D02*
X784Y1274D01*
X924Y1274D02*
X948Y1274D01*
X759Y1273D02*
X784Y1273D01*
X924Y1273D02*
X948Y1273D01*
X759Y1272D02*
X784Y1272D01*
X924Y1272D02*
X948Y1272D01*
X759Y1271D02*
X784Y1271D01*
X924Y1271D02*
X948Y1271D01*
X759Y1270D02*
X784Y1270D01*
X924Y1270D02*
X948Y1270D01*
X759Y1269D02*
X784Y1269D01*
X924Y1269D02*
X948Y1269D01*
X759Y1268D02*
X784Y1268D01*
X924Y1268D02*
X948Y1268D01*
X759Y1267D02*
X784Y1267D01*
X924Y1267D02*
X948Y1267D01*
X759Y1266D02*
X784Y1266D01*
X924Y1266D02*
X948Y1266D01*
X759Y1265D02*
X784Y1265D01*
X924Y1265D02*
X948Y1265D01*
X759Y1264D02*
X784Y1264D01*
X924Y1264D02*
X948Y1264D01*
X759Y1263D02*
X784Y1263D01*
X924Y1263D02*
X948Y1263D01*
X759Y1262D02*
X784Y1262D01*
X924Y1262D02*
X948Y1262D01*
X759Y1261D02*
X784Y1261D01*
X924Y1261D02*
X948Y1261D01*
X759Y1260D02*
X784Y1260D01*
X924Y1260D02*
X948Y1260D01*
X759Y1259D02*
X784Y1259D01*
X924Y1259D02*
X948Y1259D01*
X759Y1258D02*
X784Y1258D01*
X924Y1258D02*
X948Y1258D01*
X759Y1257D02*
X784Y1257D01*
X924Y1257D02*
X948Y1257D01*
X759Y1256D02*
X784Y1256D01*
X924Y1256D02*
X948Y1256D01*
X759Y1255D02*
X784Y1255D01*
X924Y1255D02*
X948Y1255D01*
X759Y1254D02*
X784Y1254D01*
X924Y1254D02*
X948Y1254D01*
X0Y1253D02*
X784Y1253D01*
X0Y1252D02*
X784Y1252D01*
X0Y1251D02*
X784Y1251D01*
X0Y1250D02*
X784Y1250D01*
X0Y1249D02*
X784Y1249D01*
X0Y1248D02*
X784Y1248D01*
X0Y1247D02*
X784Y1247D01*
X0Y1246D02*
X784Y1246D01*
X0Y1245D02*
X784Y1245D01*
X0Y1244D02*
X784Y1244D01*
X0Y1243D02*
X784Y1243D01*
X0Y1242D02*
X784Y1242D01*
X0Y1241D02*
X784Y1241D01*
X0Y1240D02*
X784Y1240D01*
X0Y1239D02*
X784Y1239D01*
X0Y1238D02*
X784Y1238D01*
X0Y1237D02*
X784Y1237D01*
X0Y1236D02*
X784Y1236D01*
X0Y1235D02*
X784Y1235D01*
X0Y1234D02*
X784Y1234D01*
X0Y1233D02*
X784Y1233D01*
X0Y1232D02*
X784Y1232D01*
X0Y1231D02*
X784Y1231D01*
X0Y1230D02*
X784Y1230D01*
X0Y1229D02*
X784Y1229D01*
X0Y1228D02*
X784Y1228D01*
X759Y1227D02*
X784Y1227D01*
X924Y1227D02*
X949Y1227D01*
X759Y1226D02*
X784Y1226D01*
X924Y1226D02*
X949Y1226D01*
X759Y1225D02*
X784Y1225D01*
X924Y1225D02*
X949Y1225D01*
X759Y1224D02*
X784Y1224D01*
X924Y1224D02*
X949Y1224D01*
X759Y1223D02*
X784Y1223D01*
X924Y1223D02*
X949Y1223D01*
X759Y1222D02*
X784Y1222D01*
X924Y1222D02*
X949Y1222D01*
X759Y1221D02*
X784Y1221D01*
X924Y1221D02*
X949Y1221D01*
X759Y1220D02*
X784Y1220D01*
X924Y1220D02*
X949Y1220D01*
X759Y1219D02*
X784Y1219D01*
X924Y1219D02*
X949Y1219D01*
X759Y1218D02*
X784Y1218D01*
X924Y1218D02*
X949Y1218D01*
X759Y1217D02*
X784Y1217D01*
X924Y1217D02*
X949Y1217D01*
X759Y1216D02*
X784Y1216D01*
X924Y1216D02*
X949Y1216D01*
X759Y1215D02*
X784Y1215D01*
X924Y1215D02*
X949Y1215D01*
X759Y1214D02*
X784Y1214D01*
X924Y1214D02*
X949Y1214D01*
X759Y1213D02*
X784Y1213D01*
X924Y1213D02*
X949Y1213D01*
X759Y1212D02*
X784Y1212D01*
X924Y1212D02*
X949Y1212D01*
X759Y1211D02*
X784Y1211D01*
X924Y1211D02*
X949Y1211D01*
X759Y1210D02*
X784Y1210D01*
X924Y1210D02*
X949Y1210D01*
X759Y1209D02*
X784Y1209D01*
X924Y1209D02*
X949Y1209D01*
X759Y1208D02*
X784Y1208D01*
X924Y1208D02*
X949Y1208D01*
X759Y1207D02*
X784Y1207D01*
X924Y1207D02*
X949Y1207D01*
X759Y1206D02*
X784Y1206D01*
X924Y1206D02*
X949Y1206D01*
X759Y1205D02*
X784Y1205D01*
X924Y1205D02*
X949Y1205D01*
X759Y1204D02*
X784Y1204D01*
X924Y1204D02*
X949Y1204D01*
X759Y1203D02*
X784Y1203D01*
X924Y1203D02*
X949Y1203D01*
X759Y1202D02*
X784Y1202D01*
X924Y1202D02*
X949Y1202D01*
X759Y1201D02*
X784Y1201D01*
X924Y1201D02*
X949Y1201D01*
X759Y1200D02*
X784Y1200D01*
X924Y1200D02*
X949Y1200D01*
X759Y1199D02*
X784Y1199D01*
X924Y1199D02*
X949Y1199D01*
X759Y1198D02*
X784Y1198D01*
X924Y1198D02*
X949Y1198D01*
X759Y1197D02*
X784Y1197D01*
X924Y1197D02*
X949Y1197D01*
X759Y1196D02*
X784Y1196D01*
X924Y1196D02*
X949Y1196D01*
X759Y1195D02*
X784Y1195D01*
X924Y1195D02*
X949Y1195D01*
X759Y1194D02*
X784Y1194D01*
X924Y1194D02*
X949Y1194D01*
X759Y1193D02*
X784Y1193D01*
X924Y1193D02*
X949Y1193D01*
X759Y1192D02*
X784Y1192D01*
X924Y1192D02*
X949Y1192D01*
X759Y1191D02*
X784Y1191D01*
X924Y1191D02*
X949Y1191D01*
X759Y1190D02*
X784Y1190D01*
X924Y1190D02*
X949Y1190D01*
X759Y1189D02*
X784Y1189D01*
X924Y1189D02*
X949Y1189D01*
X759Y1188D02*
X784Y1188D01*
X924Y1188D02*
X949Y1188D01*
X759Y1187D02*
X784Y1187D01*
X924Y1187D02*
X949Y1187D01*
X759Y1186D02*
X784Y1186D01*
X924Y1186D02*
X949Y1186D01*
X759Y1185D02*
X784Y1185D01*
X924Y1185D02*
X949Y1185D01*
X759Y1184D02*
X784Y1184D01*
X924Y1184D02*
X949Y1184D01*
X759Y1183D02*
X784Y1183D01*
X924Y1183D02*
X949Y1183D01*
X759Y1182D02*
X784Y1182D01*
X924Y1182D02*
X949Y1182D01*
X759Y1181D02*
X784Y1181D01*
X924Y1181D02*
X949Y1181D01*
X759Y1180D02*
X784Y1180D01*
X924Y1180D02*
X949Y1180D01*
X759Y1179D02*
X784Y1179D01*
X924Y1179D02*
X949Y1179D01*
X759Y1178D02*
X784Y1178D01*
X924Y1178D02*
X949Y1178D01*
X759Y1177D02*
X784Y1177D01*
X924Y1177D02*
X949Y1177D01*
X759Y1176D02*
X784Y1176D01*
X924Y1176D02*
X949Y1176D01*
X759Y1175D02*
X784Y1175D01*
X924Y1175D02*
X949Y1175D01*
X759Y1174D02*
X784Y1174D01*
X924Y1174D02*
X949Y1174D01*
X759Y1173D02*
X784Y1173D01*
X924Y1173D02*
X949Y1173D01*
X759Y1172D02*
X784Y1172D01*
X924Y1172D02*
X949Y1172D01*
X759Y1171D02*
X784Y1171D01*
X924Y1171D02*
X949Y1171D01*
X759Y1170D02*
X784Y1170D01*
X924Y1170D02*
X949Y1170D01*
X759Y1169D02*
X784Y1169D01*
X924Y1169D02*
X949Y1169D01*
X759Y1168D02*
X784Y1168D01*
X924Y1168D02*
X949Y1168D01*
X759Y1167D02*
X784Y1167D01*
X924Y1167D02*
X949Y1167D01*
X759Y1166D02*
X784Y1166D01*
X924Y1166D02*
X949Y1166D01*
X759Y1165D02*
X784Y1165D01*
X924Y1165D02*
X949Y1165D01*
X759Y1164D02*
X784Y1164D01*
X924Y1164D02*
X949Y1164D01*
X758Y1163D02*
X784Y1163D01*
X924Y1163D02*
X949Y1163D01*
X755Y1162D02*
X784Y1162D01*
X924Y1162D02*
X950Y1162D01*
X752Y1161D02*
X784Y1161D01*
X924Y1161D02*
X953Y1161D01*
X748Y1160D02*
X784Y1160D01*
X924Y1160D02*
X957Y1160D01*
X745Y1159D02*
X784Y1159D01*
X924Y1159D02*
X960Y1159D01*
X742Y1158D02*
X784Y1158D01*
X924Y1158D02*
X963Y1158D01*
X739Y1157D02*
X784Y1157D01*
X924Y1157D02*
X966Y1157D01*
X736Y1156D02*
X784Y1156D01*
X924Y1156D02*
X969Y1156D01*
X733Y1155D02*
X784Y1155D01*
X924Y1155D02*
X971Y1155D01*
X731Y1154D02*
X784Y1154D01*
X924Y1154D02*
X974Y1154D01*
X728Y1153D02*
X784Y1153D01*
X924Y1153D02*
X977Y1153D01*
X725Y1152D02*
X784Y1152D01*
X924Y1152D02*
X979Y1152D01*
X723Y1151D02*
X784Y1151D01*
X924Y1151D02*
X982Y1151D01*
X720Y1150D02*
X784Y1150D01*
X924Y1150D02*
X984Y1150D01*
X718Y1149D02*
X784Y1149D01*
X924Y1149D02*
X987Y1149D01*
X716Y1148D02*
X784Y1148D01*
X924Y1148D02*
X989Y1148D01*
X713Y1147D02*
X784Y1147D01*
X924Y1147D02*
X991Y1147D01*
X711Y1146D02*
X784Y1146D01*
X924Y1146D02*
X994Y1146D01*
X709Y1145D02*
X784Y1145D01*
X924Y1145D02*
X996Y1145D01*
X706Y1144D02*
X784Y1144D01*
X924Y1144D02*
X998Y1144D01*
X704Y1143D02*
X784Y1143D01*
X924Y1143D02*
X1000Y1143D01*
X702Y1142D02*
X784Y1142D01*
X924Y1142D02*
X1002Y1142D01*
X700Y1141D02*
X784Y1141D01*
X924Y1141D02*
X1004Y1141D01*
X698Y1140D02*
X784Y1140D01*
X924Y1140D02*
X1006Y1140D01*
X696Y1139D02*
X784Y1139D01*
X924Y1139D02*
X1008Y1139D01*
X694Y1138D02*
X784Y1138D01*
X924Y1138D02*
X1010Y1138D01*
X692Y1137D02*
X784Y1137D01*
X924Y1137D02*
X1012Y1137D01*
X690Y1136D02*
X784Y1136D01*
X924Y1136D02*
X1014Y1136D01*
X688Y1135D02*
X784Y1135D01*
X924Y1135D02*
X1016Y1135D01*
X687Y1134D02*
X784Y1134D01*
X924Y1134D02*
X1018Y1134D01*
X685Y1133D02*
X784Y1133D01*
X846Y1133D02*
X859Y1133D01*
X924Y1133D02*
X1020Y1133D01*
X683Y1132D02*
X784Y1132D01*
X842Y1132D02*
X862Y1132D01*
X924Y1132D02*
X1022Y1132D01*
X681Y1131D02*
X784Y1131D01*
X840Y1131D02*
X865Y1131D01*
X924Y1131D02*
X1024Y1131D01*
X679Y1130D02*
X784Y1130D01*
X838Y1130D02*
X867Y1130D01*
X924Y1130D02*
X1025Y1130D01*
X678Y1129D02*
X784Y1129D01*
X836Y1129D02*
X869Y1129D01*
X924Y1129D02*
X1027Y1129D01*
X676Y1128D02*
X784Y1128D01*
X834Y1128D02*
X870Y1128D01*
X924Y1128D02*
X1029Y1128D01*
X674Y1127D02*
X784Y1127D01*
X833Y1127D02*
X872Y1127D01*
X924Y1127D02*
X1030Y1127D01*
X672Y1126D02*
X784Y1126D01*
X832Y1126D02*
X873Y1126D01*
X924Y1126D02*
X1032Y1126D01*
X671Y1125D02*
X784Y1125D01*
X831Y1125D02*
X874Y1125D01*
X924Y1125D02*
X1034Y1125D01*
X669Y1124D02*
X784Y1124D01*
X830Y1124D02*
X875Y1124D01*
X924Y1124D02*
X1035Y1124D01*
X667Y1123D02*
X784Y1123D01*
X829Y1123D02*
X876Y1123D01*
X924Y1123D02*
X1037Y1123D01*
X666Y1122D02*
X784Y1122D01*
X828Y1122D02*
X877Y1122D01*
X924Y1122D02*
X1039Y1122D01*
X664Y1121D02*
X784Y1121D01*
X827Y1121D02*
X850Y1121D01*
X855Y1121D02*
X877Y1121D01*
X924Y1121D02*
X1040Y1121D01*
X663Y1120D02*
X784Y1120D01*
X826Y1120D02*
X845Y1120D01*
X859Y1120D02*
X878Y1120D01*
X924Y1120D02*
X1042Y1120D01*
X661Y1119D02*
X784Y1119D01*
X826Y1119D02*
X843Y1119D01*
X862Y1119D02*
X879Y1119D01*
X924Y1119D02*
X1043Y1119D01*
X660Y1118D02*
X784Y1118D01*
X825Y1118D02*
X841Y1118D01*
X863Y1118D02*
X880Y1118D01*
X924Y1118D02*
X1045Y1118D01*
X658Y1117D02*
X784Y1117D01*
X824Y1117D02*
X840Y1117D01*
X865Y1117D02*
X880Y1117D01*
X924Y1117D02*
X1046Y1117D01*
X657Y1116D02*
X784Y1116D01*
X824Y1116D02*
X839Y1116D01*
X866Y1116D02*
X881Y1116D01*
X924Y1116D02*
X1048Y1116D01*
X655Y1115D02*
X784Y1115D01*
X823Y1115D02*
X838Y1115D01*
X867Y1115D02*
X881Y1115D01*
X924Y1115D02*
X1049Y1115D01*
X654Y1114D02*
X784Y1114D01*
X823Y1114D02*
X837Y1114D01*
X868Y1114D02*
X882Y1114D01*
X924Y1114D02*
X1051Y1114D01*
X652Y1113D02*
X784Y1113D01*
X823Y1113D02*
X836Y1113D01*
X869Y1113D02*
X882Y1113D01*
X924Y1113D02*
X1052Y1113D01*
X651Y1112D02*
X784Y1112D01*
X822Y1112D02*
X835Y1112D01*
X869Y1112D02*
X882Y1112D01*
X924Y1112D02*
X1053Y1112D01*
X650Y1111D02*
X784Y1111D01*
X822Y1111D02*
X835Y1111D01*
X870Y1111D02*
X883Y1111D01*
X924Y1111D02*
X1055Y1111D01*
X648Y1110D02*
X784Y1110D01*
X822Y1110D02*
X834Y1110D01*
X870Y1110D02*
X883Y1110D01*
X924Y1110D02*
X1056Y1110D01*
X647Y1109D02*
X784Y1109D01*
X821Y1109D02*
X834Y1109D01*
X871Y1109D02*
X883Y1109D01*
X924Y1109D02*
X1058Y1109D01*
X645Y1108D02*
X784Y1108D01*
X821Y1108D02*
X833Y1108D01*
X871Y1108D02*
X883Y1108D01*
X924Y1108D02*
X1059Y1108D01*
X644Y1107D02*
X784Y1107D01*
X821Y1107D02*
X833Y1107D01*
X872Y1107D02*
X884Y1107D01*
X924Y1107D02*
X1060Y1107D01*
X643Y1106D02*
X784Y1106D01*
X821Y1106D02*
X833Y1106D01*
X872Y1106D02*
X884Y1106D01*
X924Y1106D02*
X1062Y1106D01*
X641Y1105D02*
X784Y1105D01*
X821Y1105D02*
X833Y1105D01*
X872Y1105D02*
X884Y1105D01*
X924Y1105D02*
X1063Y1105D01*
X640Y1104D02*
X784Y1104D01*
X821Y1104D02*
X884Y1104D01*
X924Y1104D02*
X1064Y1104D01*
X639Y1103D02*
X784Y1103D01*
X821Y1103D02*
X884Y1103D01*
X924Y1103D02*
X1066Y1103D01*
X638Y1102D02*
X784Y1102D01*
X820Y1102D02*
X884Y1102D01*
X924Y1102D02*
X1067Y1102D01*
X636Y1101D02*
X784Y1101D01*
X820Y1101D02*
X884Y1101D01*
X924Y1101D02*
X1068Y1101D01*
X635Y1100D02*
X784Y1100D01*
X821Y1100D02*
X884Y1100D01*
X924Y1100D02*
X1069Y1100D01*
X634Y1099D02*
X784Y1099D01*
X821Y1099D02*
X884Y1099D01*
X924Y1099D02*
X1071Y1099D01*
X632Y1098D02*
X784Y1098D01*
X821Y1098D02*
X833Y1098D01*
X872Y1098D02*
X884Y1098D01*
X924Y1098D02*
X1072Y1098D01*
X631Y1097D02*
X784Y1097D01*
X821Y1097D02*
X833Y1097D01*
X872Y1097D02*
X884Y1097D01*
X924Y1097D02*
X1073Y1097D01*
X630Y1096D02*
X784Y1096D01*
X821Y1096D02*
X833Y1096D01*
X872Y1096D02*
X884Y1096D01*
X924Y1096D02*
X1074Y1096D01*
X629Y1095D02*
X784Y1095D01*
X821Y1095D02*
X833Y1095D01*
X871Y1095D02*
X883Y1095D01*
X924Y1095D02*
X1075Y1095D01*
X628Y1094D02*
X784Y1094D01*
X821Y1094D02*
X834Y1094D01*
X871Y1094D02*
X883Y1094D01*
X924Y1094D02*
X1077Y1094D01*
X627Y1093D02*
X784Y1093D01*
X822Y1093D02*
X834Y1093D01*
X870Y1093D02*
X883Y1093D01*
X923Y1093D02*
X1078Y1093D01*
X625Y1092D02*
X784Y1092D01*
X822Y1092D02*
X835Y1092D01*
X870Y1092D02*
X883Y1092D01*
X923Y1092D02*
X1079Y1092D01*
X624Y1091D02*
X785Y1091D01*
X822Y1091D02*
X835Y1091D01*
X869Y1091D02*
X882Y1091D01*
X923Y1091D02*
X1080Y1091D01*
X623Y1090D02*
X785Y1090D01*
X823Y1090D02*
X836Y1090D01*
X869Y1090D02*
X882Y1090D01*
X923Y1090D02*
X1081Y1090D01*
X622Y1089D02*
X785Y1089D01*
X823Y1089D02*
X837Y1089D01*
X868Y1089D02*
X882Y1089D01*
X923Y1089D02*
X1083Y1089D01*
X621Y1088D02*
X785Y1088D01*
X823Y1088D02*
X838Y1088D01*
X867Y1088D02*
X881Y1088D01*
X923Y1088D02*
X1084Y1088D01*
X620Y1087D02*
X785Y1087D01*
X824Y1087D02*
X839Y1087D01*
X866Y1087D02*
X881Y1087D01*
X922Y1087D02*
X1085Y1087D01*
X619Y1086D02*
X786Y1086D01*
X824Y1086D02*
X840Y1086D01*
X865Y1086D02*
X880Y1086D01*
X922Y1086D02*
X1086Y1086D01*
X617Y1085D02*
X786Y1085D01*
X825Y1085D02*
X841Y1085D01*
X863Y1085D02*
X880Y1085D01*
X922Y1085D02*
X1087Y1085D01*
X616Y1084D02*
X786Y1084D01*
X826Y1084D02*
X843Y1084D01*
X862Y1084D02*
X879Y1084D01*
X922Y1084D02*
X1088Y1084D01*
X615Y1083D02*
X786Y1083D01*
X826Y1083D02*
X845Y1083D01*
X860Y1083D02*
X878Y1083D01*
X921Y1083D02*
X1089Y1083D01*
X614Y1082D02*
X787Y1082D01*
X827Y1082D02*
X849Y1082D01*
X855Y1082D02*
X878Y1082D01*
X921Y1082D02*
X1090Y1082D01*
X613Y1081D02*
X787Y1081D01*
X828Y1081D02*
X877Y1081D01*
X921Y1081D02*
X1091Y1081D01*
X612Y1080D02*
X787Y1080D01*
X829Y1080D02*
X876Y1080D01*
X920Y1080D02*
X1092Y1080D01*
X611Y1079D02*
X788Y1079D01*
X830Y1079D02*
X875Y1079D01*
X920Y1079D02*
X1093Y1079D01*
X610Y1078D02*
X788Y1078D01*
X831Y1078D02*
X874Y1078D01*
X920Y1078D02*
X1094Y1078D01*
X609Y1077D02*
X789Y1077D01*
X832Y1077D02*
X873Y1077D01*
X919Y1077D02*
X1095Y1077D01*
X608Y1076D02*
X789Y1076D01*
X833Y1076D02*
X872Y1076D01*
X919Y1076D02*
X1096Y1076D01*
X607Y1075D02*
X789Y1075D01*
X834Y1075D02*
X870Y1075D01*
X919Y1075D02*
X1097Y1075D01*
X606Y1074D02*
X790Y1074D01*
X836Y1074D02*
X869Y1074D01*
X918Y1074D02*
X1098Y1074D01*
X605Y1073D02*
X790Y1073D01*
X838Y1073D02*
X867Y1073D01*
X918Y1073D02*
X1099Y1073D01*
X604Y1072D02*
X791Y1072D01*
X840Y1072D02*
X865Y1072D01*
X917Y1072D02*
X1100Y1072D01*
X603Y1071D02*
X791Y1071D01*
X842Y1071D02*
X862Y1071D01*
X917Y1071D02*
X1101Y1071D01*
X602Y1070D02*
X792Y1070D01*
X846Y1070D02*
X859Y1070D01*
X916Y1070D02*
X1102Y1070D01*
X601Y1069D02*
X792Y1069D01*
X916Y1069D02*
X1103Y1069D01*
X600Y1068D02*
X793Y1068D01*
X915Y1068D02*
X1104Y1068D01*
X599Y1067D02*
X793Y1067D01*
X914Y1067D02*
X1105Y1067D01*
X598Y1066D02*
X794Y1066D01*
X914Y1066D02*
X1106Y1066D01*
X597Y1065D02*
X795Y1065D01*
X913Y1065D02*
X1107Y1065D01*
X596Y1064D02*
X795Y1064D01*
X913Y1064D02*
X1108Y1064D01*
X595Y1063D02*
X796Y1063D01*
X912Y1063D02*
X1109Y1063D01*
X594Y1062D02*
X797Y1062D01*
X911Y1062D02*
X1110Y1062D01*
X593Y1061D02*
X797Y1061D01*
X910Y1061D02*
X1111Y1061D01*
X593Y1060D02*
X798Y1060D01*
X910Y1060D02*
X1112Y1060D01*
X592Y1059D02*
X799Y1059D01*
X909Y1059D02*
X1113Y1059D01*
X591Y1058D02*
X800Y1058D01*
X908Y1058D02*
X1113Y1058D01*
X590Y1057D02*
X801Y1057D01*
X907Y1057D02*
X1114Y1057D01*
X589Y1056D02*
X802Y1056D01*
X906Y1056D02*
X1115Y1056D01*
X588Y1055D02*
X802Y1055D01*
X905Y1055D02*
X1116Y1055D01*
X587Y1054D02*
X803Y1054D01*
X904Y1054D02*
X1117Y1054D01*
X587Y1053D02*
X804Y1053D01*
X903Y1053D02*
X1118Y1053D01*
X586Y1052D02*
X805Y1052D01*
X902Y1052D02*
X1119Y1052D01*
X585Y1051D02*
X807Y1051D01*
X901Y1051D02*
X1120Y1051D01*
X584Y1050D02*
X808Y1050D01*
X900Y1050D02*
X1120Y1050D01*
X583Y1049D02*
X809Y1049D01*
X899Y1049D02*
X1121Y1049D01*
X582Y1048D02*
X810Y1048D01*
X898Y1048D02*
X1122Y1048D01*
X582Y1047D02*
X811Y1047D01*
X896Y1047D02*
X1123Y1047D01*
X581Y1046D02*
X813Y1046D01*
X895Y1046D02*
X1124Y1046D01*
X580Y1045D02*
X814Y1045D01*
X894Y1045D02*
X1124Y1045D01*
X579Y1044D02*
X816Y1044D01*
X892Y1044D02*
X1125Y1044D01*
X578Y1043D02*
X817Y1043D01*
X891Y1043D02*
X1126Y1043D01*
X578Y1042D02*
X819Y1042D01*
X889Y1042D02*
X1127Y1042D01*
X577Y1041D02*
X821Y1041D01*
X887Y1041D02*
X1128Y1041D01*
X576Y1040D02*
X823Y1040D01*
X885Y1040D02*
X1128Y1040D01*
X575Y1039D02*
X825Y1039D01*
X883Y1039D02*
X1129Y1039D01*
X574Y1038D02*
X827Y1038D01*
X881Y1038D02*
X1130Y1038D01*
X574Y1037D02*
X830Y1037D01*
X878Y1037D02*
X1131Y1037D01*
X573Y1036D02*
X832Y1036D01*
X875Y1036D02*
X1131Y1036D01*
X572Y1035D02*
X836Y1035D01*
X872Y1035D02*
X1132Y1035D01*
X572Y1034D02*
X841Y1034D01*
X867Y1034D02*
X1133Y1034D01*
X571Y1033D02*
X849Y1033D01*
X859Y1033D02*
X1134Y1033D01*
X570Y1032D02*
X1134Y1032D01*
X569Y1031D02*
X1135Y1031D01*
X569Y1030D02*
X1136Y1030D01*
X568Y1029D02*
X1136Y1029D01*
X567Y1028D02*
X1137Y1028D01*
X566Y1027D02*
X1138Y1027D01*
X566Y1026D02*
X1139Y1026D01*
X565Y1025D02*
X1139Y1025D01*
X564Y1024D02*
X1140Y1024D01*
X564Y1023D02*
X1141Y1023D01*
X563Y1022D02*
X1141Y1022D01*
X562Y1021D02*
X1142Y1021D01*
X562Y1020D02*
X1143Y1020D01*
X561Y1019D02*
X1143Y1019D01*
X560Y1018D02*
X1144Y1018D01*
X560Y1017D02*
X1145Y1017D01*
X559Y1016D02*
X1145Y1016D01*
X558Y1015D02*
X1146Y1015D01*
X558Y1014D02*
X1146Y1014D01*
X557Y1013D02*
X1147Y1013D01*
X557Y1012D02*
X1148Y1012D01*
X556Y1011D02*
X1148Y1011D01*
X555Y1010D02*
X1149Y1010D01*
X555Y1009D02*
X1150Y1009D01*
X554Y1008D02*
X1150Y1008D01*
X554Y1007D02*
X1151Y1007D01*
X553Y1006D02*
X1151Y1006D01*
X552Y1005D02*
X1152Y1005D01*
X552Y1004D02*
X1153Y1004D01*
X551Y1003D02*
X1153Y1003D01*
X551Y1002D02*
X1154Y1002D01*
X550Y1001D02*
X1154Y1001D01*
X549Y1000D02*
X1155Y1000D01*
X549Y999D02*
X1155Y999D01*
X548Y998D02*
X1156Y998D01*
X548Y997D02*
X1157Y997D01*
X547Y996D02*
X1157Y996D01*
X547Y995D02*
X1158Y995D01*
X546Y994D02*
X1158Y994D01*
X546Y993D02*
X1159Y993D01*
X545Y992D02*
X1159Y992D01*
X544Y991D02*
X1160Y991D01*
X544Y990D02*
X1160Y990D01*
X543Y989D02*
X1161Y989D01*
X543Y988D02*
X1161Y988D01*
X542Y987D02*
X1162Y987D01*
X542Y986D02*
X1162Y986D01*
X541Y985D02*
X1163Y985D01*
X541Y984D02*
X1163Y984D01*
X540Y983D02*
X1164Y983D01*
X540Y982D02*
X1164Y982D01*
X539Y981D02*
X1165Y981D01*
X539Y980D02*
X1165Y980D01*
X538Y979D02*
X1166Y979D01*
X538Y978D02*
X1166Y978D01*
X537Y977D02*
X1167Y977D01*
X537Y976D02*
X1167Y976D01*
X537Y975D02*
X1168Y975D01*
X536Y974D02*
X1168Y974D01*
X536Y973D02*
X1169Y973D01*
X535Y972D02*
X1169Y972D01*
X535Y971D02*
X1170Y971D01*
X534Y970D02*
X1170Y970D01*
X534Y969D02*
X1171Y969D01*
X533Y968D02*
X1171Y968D01*
X533Y967D02*
X1171Y967D01*
X532Y966D02*
X1172Y966D01*
X532Y965D02*
X1172Y965D01*
X532Y964D02*
X1173Y964D01*
X531Y963D02*
X1173Y963D01*
X531Y962D02*
X1174Y962D01*
X530Y961D02*
X1174Y961D01*
X530Y960D02*
X1174Y960D01*
X530Y959D02*
X1175Y959D01*
X529Y958D02*
X1175Y958D01*
X529Y957D02*
X1176Y957D01*
X528Y956D02*
X1176Y956D01*
X528Y955D02*
X1176Y955D01*
X528Y954D02*
X1177Y954D01*
X527Y953D02*
X1177Y953D01*
X527Y952D02*
X1178Y952D01*
X526Y951D02*
X1178Y951D01*
X526Y950D02*
X1178Y950D01*
X526Y949D02*
X1179Y949D01*
X525Y948D02*
X837Y948D01*
X868Y948D02*
X1179Y948D01*
X525Y947D02*
X830Y947D01*
X874Y947D02*
X1179Y947D01*
X525Y946D02*
X825Y946D01*
X879Y946D02*
X1180Y946D01*
X524Y945D02*
X821Y945D01*
X883Y945D02*
X1180Y945D01*
X524Y944D02*
X818Y944D01*
X887Y944D02*
X1181Y944D01*
X523Y943D02*
X814Y943D01*
X890Y943D02*
X1181Y943D01*
X523Y942D02*
X811Y942D01*
X893Y942D02*
X1181Y942D01*
X523Y941D02*
X809Y941D01*
X896Y941D02*
X1182Y941D01*
X522Y940D02*
X806Y940D01*
X898Y940D02*
X1182Y940D01*
X522Y939D02*
X804Y939D01*
X901Y939D02*
X1182Y939D01*
X522Y938D02*
X802Y938D01*
X903Y938D02*
X1183Y938D01*
X521Y937D02*
X799Y937D01*
X905Y937D02*
X1183Y937D01*
X521Y936D02*
X797Y936D01*
X907Y936D02*
X1183Y936D01*
X521Y935D02*
X795Y935D01*
X909Y935D02*
X1184Y935D01*
X520Y934D02*
X793Y934D01*
X911Y934D02*
X1184Y934D01*
X520Y933D02*
X792Y933D01*
X913Y933D02*
X1184Y933D01*
X520Y932D02*
X790Y932D01*
X915Y932D02*
X1185Y932D01*
X520Y931D02*
X788Y931D01*
X916Y931D02*
X1185Y931D01*
X519Y930D02*
X787Y930D01*
X918Y930D02*
X1185Y930D01*
X519Y929D02*
X785Y929D01*
X919Y929D02*
X1185Y929D01*
X519Y928D02*
X784Y928D01*
X921Y928D02*
X1186Y928D01*
X518Y927D02*
X782Y927D01*
X922Y927D02*
X1186Y927D01*
X518Y926D02*
X781Y926D01*
X924Y926D02*
X1186Y926D01*
X518Y925D02*
X779Y925D01*
X925Y925D02*
X1187Y925D01*
X517Y924D02*
X778Y924D01*
X926Y924D02*
X1187Y924D01*
X517Y923D02*
X777Y923D01*
X928Y923D02*
X1187Y923D01*
X517Y922D02*
X776Y922D01*
X929Y922D02*
X1187Y922D01*
X517Y921D02*
X774Y921D01*
X930Y921D02*
X1188Y921D01*
X516Y920D02*
X773Y920D01*
X931Y920D02*
X1188Y920D01*
X516Y919D02*
X772Y919D01*
X933Y919D02*
X1188Y919D01*
X516Y918D02*
X771Y918D01*
X934Y918D02*
X1189Y918D01*
X516Y917D02*
X770Y917D01*
X935Y917D02*
X1189Y917D01*
X515Y916D02*
X769Y916D01*
X936Y916D02*
X1189Y916D01*
X515Y915D02*
X768Y915D01*
X937Y915D02*
X1189Y915D01*
X515Y914D02*
X767Y914D01*
X938Y914D02*
X1190Y914D01*
X514Y913D02*
X766Y913D01*
X939Y913D02*
X1190Y913D01*
X514Y912D02*
X765Y912D01*
X940Y912D02*
X1190Y912D01*
X514Y911D02*
X764Y911D01*
X941Y911D02*
X1190Y911D01*
X514Y910D02*
X763Y910D01*
X942Y910D02*
X1191Y910D01*
X513Y909D02*
X762Y909D01*
X943Y909D02*
X1191Y909D01*
X513Y908D02*
X761Y908D01*
X944Y908D02*
X1191Y908D01*
X513Y907D02*
X760Y907D01*
X945Y907D02*
X1191Y907D01*
X513Y906D02*
X759Y906D01*
X945Y906D02*
X1192Y906D01*
X513Y905D02*
X758Y905D01*
X946Y905D02*
X1192Y905D01*
X512Y904D02*
X758Y904D01*
X947Y904D02*
X1192Y904D01*
X512Y903D02*
X757Y903D01*
X948Y903D02*
X1192Y903D01*
X512Y902D02*
X756Y902D01*
X949Y902D02*
X1192Y902D01*
X512Y901D02*
X755Y901D01*
X949Y901D02*
X1193Y901D01*
X511Y900D02*
X754Y900D01*
X950Y900D02*
X1193Y900D01*
X511Y899D02*
X754Y899D01*
X951Y899D02*
X1193Y899D01*
X511Y898D02*
X753Y898D01*
X952Y898D02*
X1193Y898D01*
X511Y897D02*
X752Y897D01*
X952Y897D02*
X1193Y897D01*
X511Y896D02*
X752Y896D01*
X953Y896D02*
X1194Y896D01*
X510Y895D02*
X751Y895D01*
X954Y895D02*
X1194Y895D01*
X510Y894D02*
X750Y894D01*
X954Y894D02*
X1194Y894D01*
X510Y893D02*
X750Y893D01*
X955Y893D02*
X1194Y893D01*
X510Y892D02*
X749Y892D01*
X956Y892D02*
X1194Y892D01*
X510Y891D02*
X748Y891D01*
X956Y891D02*
X1195Y891D01*
X510Y890D02*
X748Y890D01*
X957Y890D02*
X1195Y890D01*
X509Y889D02*
X747Y889D01*
X957Y889D02*
X1195Y889D01*
X509Y888D02*
X747Y888D01*
X958Y888D02*
X1195Y888D01*
X509Y887D02*
X746Y887D01*
X959Y887D02*
X1195Y887D01*
X509Y886D02*
X745Y886D01*
X959Y886D02*
X1196Y886D01*
X509Y885D02*
X745Y885D01*
X960Y885D02*
X1196Y885D01*
X508Y884D02*
X744Y884D01*
X960Y884D02*
X1196Y884D01*
X508Y883D02*
X744Y883D01*
X961Y883D02*
X1196Y883D01*
X508Y882D02*
X743Y882D01*
X961Y882D02*
X1196Y882D01*
X508Y881D02*
X743Y881D01*
X962Y881D02*
X1196Y881D01*
X508Y880D02*
X742Y880D01*
X962Y880D02*
X1197Y880D01*
X508Y879D02*
X742Y879D01*
X963Y879D02*
X1197Y879D01*
X508Y878D02*
X741Y878D01*
X963Y878D02*
X1197Y878D01*
X507Y877D02*
X741Y877D01*
X843Y877D02*
X862Y877D01*
X964Y877D02*
X1197Y877D01*
X507Y876D02*
X740Y876D01*
X839Y876D02*
X866Y876D01*
X964Y876D02*
X1197Y876D01*
X507Y875D02*
X740Y875D01*
X836Y875D02*
X869Y875D01*
X965Y875D02*
X1197Y875D01*
X507Y874D02*
X740Y874D01*
X833Y874D02*
X871Y874D01*
X965Y874D02*
X1197Y874D01*
X507Y873D02*
X739Y873D01*
X831Y873D02*
X874Y873D01*
X965Y873D02*
X1198Y873D01*
X507Y872D02*
X739Y872D01*
X829Y872D02*
X876Y872D01*
X966Y872D02*
X1198Y872D01*
X507Y871D02*
X738Y871D01*
X827Y871D02*
X877Y871D01*
X966Y871D02*
X1198Y871D01*
X506Y870D02*
X738Y870D01*
X826Y870D02*
X879Y870D01*
X967Y870D02*
X1198Y870D01*
X506Y869D02*
X738Y869D01*
X824Y869D02*
X880Y869D01*
X967Y869D02*
X1198Y869D01*
X506Y868D02*
X737Y868D01*
X823Y868D02*
X882Y868D01*
X967Y868D02*
X1198Y868D01*
X506Y867D02*
X737Y867D01*
X821Y867D02*
X883Y867D01*
X968Y867D02*
X1198Y867D01*
X506Y866D02*
X737Y866D01*
X820Y866D02*
X884Y866D01*
X968Y866D02*
X1198Y866D01*
X506Y865D02*
X736Y865D01*
X819Y865D02*
X885Y865D01*
X968Y865D02*
X1198Y865D01*
X506Y864D02*
X736Y864D01*
X818Y864D02*
X843Y864D01*
X861Y864D02*
X887Y864D01*
X969Y864D02*
X1199Y864D01*
X506Y863D02*
X736Y863D01*
X817Y863D02*
X840Y863D01*
X865Y863D02*
X888Y863D01*
X969Y863D02*
X1199Y863D01*
X506Y862D02*
X735Y862D01*
X816Y862D02*
X837Y862D01*
X868Y862D02*
X889Y862D01*
X969Y862D02*
X1199Y862D01*
X506Y861D02*
X735Y861D01*
X815Y861D02*
X834Y861D01*
X870Y861D02*
X890Y861D01*
X970Y861D02*
X1199Y861D01*
X505Y860D02*
X735Y860D01*
X814Y860D02*
X833Y860D01*
X872Y860D02*
X891Y860D01*
X970Y860D02*
X1199Y860D01*
X505Y859D02*
X734Y859D01*
X813Y859D02*
X831Y859D01*
X874Y859D02*
X892Y859D01*
X970Y859D02*
X1199Y859D01*
X505Y858D02*
X734Y858D01*
X813Y858D02*
X830Y858D01*
X875Y858D02*
X893Y858D01*
X970Y858D02*
X1199Y858D01*
X505Y857D02*
X734Y857D01*
X812Y857D02*
X828Y857D01*
X876Y857D02*
X894Y857D01*
X971Y857D02*
X1199Y857D01*
X505Y856D02*
X734Y856D01*
X811Y856D02*
X827Y856D01*
X878Y856D02*
X895Y856D01*
X971Y856D02*
X1199Y856D01*
X505Y855D02*
X733Y855D01*
X810Y855D02*
X826Y855D01*
X879Y855D02*
X896Y855D01*
X971Y855D02*
X1199Y855D01*
X505Y854D02*
X733Y854D01*
X810Y854D02*
X825Y854D01*
X880Y854D02*
X896Y854D01*
X971Y854D02*
X1199Y854D01*
X505Y853D02*
X733Y853D01*
X809Y853D02*
X824Y853D01*
X881Y853D02*
X897Y853D01*
X972Y853D02*
X1200Y853D01*
X505Y852D02*
X733Y852D01*
X809Y852D02*
X823Y852D01*
X882Y852D02*
X898Y852D01*
X972Y852D02*
X1200Y852D01*
X505Y851D02*
X733Y851D01*
X808Y851D02*
X822Y851D01*
X883Y851D02*
X899Y851D01*
X972Y851D02*
X1200Y851D01*
X505Y850D02*
X732Y850D01*
X808Y850D02*
X821Y850D01*
X884Y850D02*
X900Y850D01*
X972Y850D02*
X1200Y850D01*
X505Y849D02*
X732Y849D01*
X807Y849D02*
X821Y849D01*
X885Y849D02*
X901Y849D01*
X972Y849D02*
X1200Y849D01*
X505Y848D02*
X732Y848D01*
X807Y848D02*
X820Y848D01*
X886Y848D02*
X902Y848D01*
X973Y848D02*
X1200Y848D01*
X504Y847D02*
X732Y847D01*
X806Y847D02*
X819Y847D01*
X887Y847D02*
X903Y847D01*
X973Y847D02*
X1200Y847D01*
X504Y846D02*
X732Y846D01*
X806Y846D02*
X819Y846D01*
X888Y846D02*
X904Y846D01*
X973Y846D02*
X1200Y846D01*
X504Y845D02*
X732Y845D01*
X805Y845D02*
X818Y845D01*
X889Y845D02*
X905Y845D01*
X973Y845D02*
X1200Y845D01*
X504Y844D02*
X731Y844D01*
X805Y844D02*
X818Y844D01*
X890Y844D02*
X906Y844D01*
X973Y844D02*
X1200Y844D01*
X504Y843D02*
X731Y843D01*
X805Y843D02*
X817Y843D01*
X891Y843D02*
X907Y843D01*
X973Y843D02*
X1200Y843D01*
X504Y842D02*
X731Y842D01*
X804Y842D02*
X817Y842D01*
X892Y842D02*
X908Y842D01*
X973Y842D02*
X1200Y842D01*
X504Y841D02*
X731Y841D01*
X804Y841D02*
X816Y841D01*
X893Y841D02*
X909Y841D01*
X974Y841D02*
X1200Y841D01*
X504Y840D02*
X731Y840D01*
X804Y840D02*
X816Y840D01*
X894Y840D02*
X910Y840D01*
X974Y840D02*
X1200Y840D01*
X504Y839D02*
X731Y839D01*
X804Y839D02*
X816Y839D01*
X895Y839D02*
X911Y839D01*
X974Y839D02*
X1200Y839D01*
X504Y838D02*
X731Y838D01*
X803Y838D02*
X815Y838D01*
X895Y838D02*
X912Y838D01*
X974Y838D02*
X1200Y838D01*
X504Y837D02*
X731Y837D01*
X803Y837D02*
X815Y837D01*
X896Y837D02*
X913Y837D01*
X974Y837D02*
X1200Y837D01*
X504Y836D02*
X731Y836D01*
X803Y836D02*
X815Y836D01*
X897Y836D02*
X914Y836D01*
X974Y836D02*
X1200Y836D01*
X504Y835D02*
X731Y835D01*
X803Y835D02*
X815Y835D01*
X898Y835D02*
X915Y835D01*
X974Y835D02*
X1200Y835D01*
X504Y834D02*
X730Y834D01*
X803Y834D02*
X814Y834D01*
X899Y834D02*
X916Y834D01*
X974Y834D02*
X1201Y834D01*
X504Y833D02*
X730Y833D01*
X803Y833D02*
X814Y833D01*
X900Y833D02*
X917Y833D01*
X504Y832D02*
X730Y832D01*
X802Y832D02*
X814Y832D01*
X901Y832D02*
X918Y832D01*
X504Y831D02*
X730Y831D01*
X802Y831D02*
X814Y831D01*
X902Y831D02*
X919Y831D01*
X504Y830D02*
X730Y830D01*
X802Y830D02*
X814Y830D01*
X903Y830D02*
X920Y830D01*
X504Y829D02*
X730Y829D01*
X802Y829D02*
X814Y829D01*
X904Y829D02*
X921Y829D01*
X504Y828D02*
X730Y828D01*
X802Y828D02*
X814Y828D01*
X905Y828D02*
X922Y828D01*
X504Y827D02*
X730Y827D01*
X802Y827D02*
X814Y827D01*
X906Y827D02*
X923Y827D01*
X504Y826D02*
X730Y826D01*
X802Y826D02*
X814Y826D01*
X907Y826D02*
X924Y826D01*
X504Y825D02*
X730Y825D01*
X802Y825D02*
X814Y825D01*
X908Y825D02*
X925Y825D01*
X504Y824D02*
X730Y824D01*
X802Y824D02*
X814Y824D01*
X909Y824D02*
X926Y824D01*
X504Y823D02*
X730Y823D01*
X802Y823D02*
X814Y823D01*
X910Y823D02*
X927Y823D01*
X504Y822D02*
X730Y822D01*
X803Y822D02*
X814Y822D01*
X911Y822D02*
X928Y822D01*
X504Y821D02*
X730Y821D01*
X803Y821D02*
X814Y821D01*
X912Y821D02*
X929Y821D01*
X974Y821D02*
X1201Y821D01*
X504Y820D02*
X731Y820D01*
X803Y820D02*
X815Y820D01*
X913Y820D02*
X930Y820D01*
X974Y820D02*
X1200Y820D01*
X504Y819D02*
X731Y819D01*
X803Y819D02*
X815Y819D01*
X914Y819D02*
X931Y819D01*
X974Y819D02*
X1200Y819D01*
X504Y818D02*
X731Y818D01*
X803Y818D02*
X815Y818D01*
X915Y818D02*
X932Y818D01*
X974Y818D02*
X1200Y818D01*
X504Y817D02*
X731Y817D01*
X803Y817D02*
X815Y817D01*
X916Y817D02*
X933Y817D01*
X974Y817D02*
X1200Y817D01*
X504Y816D02*
X731Y816D01*
X804Y816D02*
X816Y816D01*
X917Y816D02*
X934Y816D01*
X974Y816D02*
X1200Y816D01*
X504Y815D02*
X731Y815D01*
X804Y815D02*
X816Y815D01*
X918Y815D02*
X935Y815D01*
X974Y815D02*
X1200Y815D01*
X504Y814D02*
X731Y814D01*
X804Y814D02*
X816Y814D01*
X919Y814D02*
X936Y814D01*
X974Y814D02*
X1200Y814D01*
X504Y813D02*
X731Y813D01*
X804Y813D02*
X817Y813D01*
X920Y813D02*
X937Y813D01*
X973Y813D02*
X1200Y813D01*
X504Y812D02*
X731Y812D01*
X805Y812D02*
X817Y812D01*
X921Y812D02*
X938Y812D01*
X973Y812D02*
X1200Y812D01*
X504Y811D02*
X731Y811D01*
X805Y811D02*
X818Y811D01*
X922Y811D02*
X939Y811D01*
X973Y811D02*
X1200Y811D01*
X504Y810D02*
X732Y810D01*
X805Y810D02*
X818Y810D01*
X923Y810D02*
X940Y810D01*
X973Y810D02*
X1200Y810D01*
X504Y809D02*
X732Y809D01*
X806Y809D02*
X819Y809D01*
X924Y809D02*
X941Y809D01*
X973Y809D02*
X1200Y809D01*
X504Y808D02*
X732Y808D01*
X806Y808D02*
X819Y808D01*
X925Y808D02*
X942Y808D01*
X973Y808D02*
X1200Y808D01*
X504Y807D02*
X732Y807D01*
X807Y807D02*
X820Y807D01*
X926Y807D02*
X943Y807D01*
X973Y807D02*
X1200Y807D01*
X505Y806D02*
X732Y806D01*
X807Y806D02*
X821Y806D01*
X927Y806D02*
X944Y806D01*
X972Y806D02*
X1200Y806D01*
X505Y805D02*
X732Y805D01*
X808Y805D02*
X821Y805D01*
X928Y805D02*
X945Y805D01*
X972Y805D02*
X1200Y805D01*
X505Y804D02*
X733Y804D01*
X808Y804D02*
X822Y804D01*
X929Y804D02*
X945Y804D01*
X972Y804D02*
X1200Y804D01*
X505Y803D02*
X733Y803D01*
X809Y803D02*
X823Y803D01*
X930Y803D02*
X946Y803D01*
X972Y803D02*
X1200Y803D01*
X505Y802D02*
X733Y802D01*
X809Y802D02*
X824Y802D01*
X931Y802D02*
X947Y802D01*
X972Y802D02*
X1200Y802D01*
X505Y801D02*
X733Y801D01*
X810Y801D02*
X825Y801D01*
X932Y801D02*
X948Y801D01*
X971Y801D02*
X1200Y801D01*
X505Y800D02*
X733Y800D01*
X810Y800D02*
X826Y800D01*
X933Y800D02*
X949Y800D01*
X971Y800D02*
X1199Y800D01*
X505Y799D02*
X734Y799D01*
X811Y799D02*
X827Y799D01*
X934Y799D02*
X950Y799D01*
X971Y799D02*
X1199Y799D01*
X505Y798D02*
X734Y798D01*
X812Y798D02*
X828Y798D01*
X935Y798D02*
X951Y798D01*
X971Y798D02*
X1199Y798D01*
X505Y797D02*
X734Y797D01*
X812Y797D02*
X829Y797D01*
X936Y797D02*
X952Y797D01*
X970Y797D02*
X1199Y797D01*
X505Y796D02*
X734Y796D01*
X813Y796D02*
X829Y796D01*
X937Y796D02*
X953Y796D01*
X970Y796D02*
X1199Y796D01*
X505Y795D02*
X735Y795D01*
X814Y795D02*
X830Y795D01*
X938Y795D02*
X954Y795D01*
X970Y795D02*
X1199Y795D01*
X505Y794D02*
X735Y794D01*
X815Y794D02*
X831Y794D01*
X939Y794D02*
X955Y794D01*
X969Y794D02*
X1199Y794D01*
X506Y793D02*
X735Y793D01*
X816Y793D02*
X832Y793D01*
X940Y793D02*
X956Y793D01*
X969Y793D02*
X1199Y793D01*
X506Y792D02*
X736Y792D01*
X817Y792D02*
X833Y792D01*
X941Y792D02*
X957Y792D01*
X969Y792D02*
X1199Y792D01*
X506Y791D02*
X736Y791D01*
X818Y791D02*
X834Y791D01*
X942Y791D02*
X958Y791D01*
X968Y791D02*
X1199Y791D01*
X506Y790D02*
X736Y790D01*
X819Y790D02*
X835Y790D01*
X943Y790D02*
X959Y790D01*
X968Y790D02*
X1199Y790D01*
X506Y789D02*
X737Y789D01*
X820Y789D02*
X836Y789D01*
X944Y789D02*
X960Y789D01*
X968Y789D02*
X1198Y789D01*
X506Y788D02*
X737Y788D01*
X821Y788D02*
X837Y788D01*
X945Y788D02*
X961Y788D01*
X967Y788D02*
X1198Y788D01*
X506Y787D02*
X737Y787D01*
X822Y787D02*
X838Y787D01*
X946Y787D02*
X962Y787D01*
X967Y787D02*
X1198Y787D01*
X506Y786D02*
X738Y786D01*
X823Y786D02*
X839Y786D01*
X946Y786D02*
X963Y786D01*
X967Y786D02*
X1198Y786D01*
X506Y785D02*
X738Y785D01*
X824Y785D02*
X840Y785D01*
X947Y785D02*
X964Y785D01*
X966Y785D02*
X1198Y785D01*
X507Y784D02*
X738Y784D01*
X825Y784D02*
X841Y784D01*
X948Y784D02*
X1198Y784D01*
X507Y783D02*
X739Y783D01*
X826Y783D02*
X842Y783D01*
X949Y783D02*
X1198Y783D01*
X507Y782D02*
X739Y782D01*
X827Y782D02*
X843Y782D01*
X950Y782D02*
X1198Y782D01*
X507Y781D02*
X740Y781D01*
X828Y781D02*
X844Y781D01*
X951Y781D02*
X1197Y781D01*
X507Y780D02*
X740Y780D01*
X828Y780D02*
X845Y780D01*
X952Y780D02*
X1197Y780D01*
X507Y779D02*
X740Y779D01*
X829Y779D02*
X846Y779D01*
X953Y779D02*
X1197Y779D01*
X507Y778D02*
X741Y778D01*
X830Y778D02*
X847Y778D01*
X954Y778D02*
X1197Y778D01*
X508Y777D02*
X741Y777D01*
X831Y777D02*
X848Y777D01*
X955Y777D02*
X1197Y777D01*
X508Y776D02*
X742Y776D01*
X832Y776D02*
X849Y776D01*
X956Y776D02*
X1197Y776D01*
X508Y775D02*
X742Y775D01*
X833Y775D02*
X850Y775D01*
X957Y775D02*
X1197Y775D01*
X508Y774D02*
X743Y774D01*
X834Y774D02*
X851Y774D01*
X958Y774D02*
X1196Y774D01*
X508Y773D02*
X743Y773D01*
X835Y773D02*
X852Y773D01*
X959Y773D02*
X1196Y773D01*
X508Y772D02*
X744Y772D01*
X836Y772D02*
X853Y772D01*
X960Y772D02*
X1196Y772D01*
X508Y771D02*
X744Y771D01*
X837Y771D02*
X854Y771D01*
X961Y771D02*
X1196Y771D01*
X509Y770D02*
X745Y770D01*
X838Y770D02*
X855Y770D01*
X962Y770D02*
X1196Y770D01*
X509Y769D02*
X745Y769D01*
X839Y769D02*
X856Y769D01*
X963Y769D02*
X1196Y769D01*
X509Y768D02*
X746Y768D01*
X840Y768D02*
X857Y768D01*
X964Y768D02*
X1195Y768D01*
X509Y767D02*
X746Y767D01*
X841Y767D02*
X858Y767D01*
X965Y767D02*
X1195Y767D01*
X509Y766D02*
X747Y766D01*
X842Y766D02*
X859Y766D01*
X966Y766D02*
X1195Y766D01*
X509Y765D02*
X748Y765D01*
X843Y765D02*
X860Y765D01*
X967Y765D02*
X1195Y765D01*
X510Y764D02*
X748Y764D01*
X844Y764D02*
X861Y764D01*
X968Y764D02*
X1195Y764D01*
X510Y763D02*
X749Y763D01*
X845Y763D02*
X862Y763D01*
X969Y763D02*
X1195Y763D01*
X510Y762D02*
X749Y762D01*
X846Y762D02*
X863Y762D01*
X970Y762D02*
X1194Y762D01*
X510Y761D02*
X750Y761D01*
X847Y761D02*
X864Y761D01*
X971Y761D02*
X1194Y761D01*
X510Y760D02*
X751Y760D01*
X848Y760D02*
X865Y760D01*
X972Y760D02*
X1194Y760D01*
X511Y759D02*
X751Y759D01*
X849Y759D02*
X866Y759D01*
X973Y759D02*
X1194Y759D01*
X511Y758D02*
X752Y758D01*
X850Y758D02*
X867Y758D01*
X974Y758D02*
X1194Y758D01*
X511Y757D02*
X753Y757D01*
X851Y757D02*
X868Y757D01*
X975Y757D02*
X1193Y757D01*
X511Y756D02*
X754Y756D01*
X852Y756D02*
X869Y756D01*
X976Y756D02*
X1193Y756D01*
X511Y755D02*
X754Y755D01*
X853Y755D02*
X870Y755D01*
X977Y755D02*
X1193Y755D01*
X512Y754D02*
X755Y754D01*
X854Y754D02*
X871Y754D01*
X978Y754D02*
X1193Y754D01*
X512Y753D02*
X756Y753D01*
X855Y753D02*
X872Y753D01*
X979Y753D02*
X1193Y753D01*
X512Y752D02*
X757Y752D01*
X856Y752D02*
X873Y752D01*
X980Y752D02*
X1192Y752D01*
X512Y751D02*
X757Y751D01*
X857Y751D02*
X874Y751D01*
X981Y751D02*
X1192Y751D01*
X513Y750D02*
X758Y750D01*
X858Y750D02*
X875Y750D01*
X982Y750D02*
X1192Y750D01*
X513Y749D02*
X759Y749D01*
X859Y749D02*
X876Y749D01*
X983Y749D02*
X1192Y749D01*
X513Y748D02*
X760Y748D01*
X860Y748D02*
X877Y748D01*
X984Y748D02*
X1191Y748D01*
X513Y747D02*
X761Y747D01*
X861Y747D02*
X878Y747D01*
X985Y747D02*
X1191Y747D01*
X513Y746D02*
X762Y746D01*
X862Y746D02*
X879Y746D01*
X986Y746D02*
X1191Y746D01*
X514Y745D02*
X763Y745D01*
X863Y745D02*
X880Y745D01*
X987Y745D02*
X1191Y745D01*
X514Y744D02*
X764Y744D01*
X864Y744D02*
X881Y744D01*
X988Y744D02*
X1190Y744D01*
X514Y743D02*
X765Y743D01*
X865Y743D02*
X882Y743D01*
X989Y743D02*
X1190Y743D01*
X514Y742D02*
X765Y742D01*
X866Y742D02*
X882Y742D01*
X990Y742D02*
X1190Y742D01*
X515Y741D02*
X766Y741D01*
X867Y741D02*
X883Y741D01*
X991Y741D02*
X1190Y741D01*
X515Y740D02*
X768Y740D01*
X868Y740D02*
X884Y740D01*
X992Y740D02*
X1189Y740D01*
X515Y739D02*
X769Y739D01*
X869Y739D02*
X885Y739D01*
X993Y739D02*
X1189Y739D01*
X516Y738D02*
X770Y738D01*
X870Y738D02*
X886Y738D01*
X994Y738D02*
X1189Y738D01*
X516Y737D02*
X771Y737D01*
X871Y737D02*
X887Y737D01*
X995Y737D02*
X1189Y737D01*
X516Y736D02*
X772Y736D01*
X872Y736D02*
X888Y736D01*
X996Y736D02*
X1188Y736D01*
X516Y735D02*
X773Y735D01*
X873Y735D02*
X889Y735D01*
X997Y735D02*
X1188Y735D01*
X517Y734D02*
X774Y734D01*
X874Y734D02*
X890Y734D01*
X997Y734D02*
X1188Y734D01*
X517Y733D02*
X775Y733D01*
X875Y733D02*
X891Y733D01*
X998Y733D02*
X1188Y733D01*
X517Y732D02*
X777Y732D01*
X876Y732D02*
X892Y732D01*
X999Y732D02*
X1187Y732D01*
X517Y731D02*
X778Y731D01*
X877Y731D02*
X893Y731D01*
X1000Y731D02*
X1187Y731D01*
X518Y730D02*
X779Y730D01*
X878Y730D02*
X894Y730D01*
X1001Y730D02*
X1187Y730D01*
X518Y729D02*
X781Y729D01*
X878Y729D02*
X895Y729D01*
X1002Y729D02*
X1186Y729D01*
X518Y728D02*
X782Y728D01*
X879Y728D02*
X896Y728D01*
X1003Y728D02*
X1186Y728D01*
X519Y727D02*
X783Y727D01*
X880Y727D02*
X897Y727D01*
X1004Y727D02*
X1186Y727D01*
X519Y726D02*
X785Y726D01*
X881Y726D02*
X898Y726D01*
X1005Y726D02*
X1186Y726D01*
X519Y725D02*
X787Y725D01*
X882Y725D02*
X899Y725D01*
X1006Y725D02*
X1185Y725D01*
X520Y724D02*
X788Y724D01*
X883Y724D02*
X900Y724D01*
X1007Y724D02*
X1185Y724D01*
X520Y723D02*
X790Y723D01*
X884Y723D02*
X901Y723D01*
X1008Y723D02*
X1185Y723D01*
X520Y722D02*
X792Y722D01*
X885Y722D02*
X902Y722D01*
X1009Y722D02*
X1184Y722D01*
X521Y721D02*
X793Y721D01*
X886Y721D02*
X903Y721D01*
X1010Y721D02*
X1184Y721D01*
X521Y720D02*
X795Y720D01*
X887Y720D02*
X904Y720D01*
X1011Y720D02*
X1184Y720D01*
X521Y719D02*
X797Y719D01*
X888Y719D02*
X905Y719D01*
X1012Y719D02*
X1183Y719D01*
X521Y718D02*
X799Y718D01*
X889Y718D02*
X906Y718D01*
X1013Y718D02*
X1183Y718D01*
X522Y717D02*
X801Y717D01*
X890Y717D02*
X907Y717D01*
X1014Y717D02*
X1183Y717D01*
X522Y716D02*
X803Y716D01*
X891Y716D02*
X908Y716D01*
X1015Y716D02*
X1182Y716D01*
X522Y715D02*
X806Y715D01*
X892Y715D02*
X909Y715D01*
X1016Y715D02*
X1182Y715D01*
X523Y714D02*
X808Y714D01*
X893Y714D02*
X910Y714D01*
X1017Y714D02*
X1182Y714D01*
X523Y713D02*
X811Y713D01*
X893Y713D02*
X911Y713D01*
X1018Y713D02*
X1181Y713D01*
X524Y712D02*
X814Y712D01*
X890Y712D02*
X912Y712D01*
X1019Y712D02*
X1181Y712D01*
X524Y711D02*
X817Y711D01*
X887Y711D02*
X913Y711D01*
X1020Y711D02*
X1181Y711D01*
X524Y710D02*
X821Y710D01*
X883Y710D02*
X914Y710D01*
X1021Y710D02*
X1180Y710D01*
X525Y709D02*
X825Y709D01*
X879Y709D02*
X915Y709D01*
X1022Y709D02*
X1180Y709D01*
X525Y708D02*
X830Y708D01*
X875Y708D02*
X916Y708D01*
X1023Y708D02*
X1179Y708D01*
X525Y707D02*
X836Y707D01*
X869Y707D02*
X917Y707D01*
X1024Y707D02*
X1179Y707D01*
X526Y706D02*
X849Y706D01*
X856Y706D02*
X918Y706D01*
X1025Y706D02*
X1179Y706D01*
X526Y705D02*
X919Y705D01*
X1026Y705D02*
X1178Y705D01*
X526Y704D02*
X920Y704D01*
X1027Y704D02*
X1178Y704D01*
X527Y703D02*
X921Y703D01*
X1028Y703D02*
X1178Y703D01*
X527Y702D02*
X922Y702D01*
X1029Y702D02*
X1177Y702D01*
X528Y701D02*
X923Y701D01*
X1030Y701D02*
X1177Y701D01*
X528Y700D02*
X924Y700D01*
X1031Y700D02*
X1176Y700D01*
X528Y699D02*
X925Y699D01*
X1032Y699D02*
X1176Y699D01*
X529Y698D02*
X926Y698D01*
X1033Y698D02*
X1176Y698D01*
X529Y697D02*
X927Y697D01*
X1034Y697D02*
X1175Y697D01*
X530Y696D02*
X928Y696D01*
X1035Y696D02*
X1175Y696D01*
X530Y695D02*
X929Y695D01*
X1036Y695D02*
X1174Y695D01*
X531Y694D02*
X930Y694D01*
X1037Y694D02*
X1174Y694D01*
X531Y693D02*
X931Y693D01*
X1038Y693D02*
X1174Y693D01*
X531Y692D02*
X932Y692D01*
X1039Y692D02*
X1173Y692D01*
X532Y691D02*
X933Y691D01*
X1040Y691D02*
X1173Y691D01*
X532Y690D02*
X934Y690D01*
X1041Y690D02*
X1172Y690D01*
X533Y689D02*
X935Y689D01*
X1042Y689D02*
X1172Y689D01*
X533Y688D02*
X935Y688D01*
X1043Y688D02*
X1171Y688D01*
X534Y687D02*
X936Y687D01*
X1044Y687D02*
X1171Y687D01*
X534Y686D02*
X937Y686D01*
X1045Y686D02*
X1171Y686D01*
X534Y685D02*
X938Y685D01*
X1046Y685D02*
X1170Y685D01*
X535Y684D02*
X939Y684D01*
X1047Y684D02*
X1170Y684D01*
X535Y683D02*
X940Y683D01*
X1048Y683D02*
X1169Y683D01*
X536Y682D02*
X941Y682D01*
X1049Y682D02*
X1169Y682D01*
X536Y681D02*
X942Y681D01*
X1050Y681D02*
X1168Y681D01*
X537Y680D02*
X943Y680D01*
X1051Y680D02*
X1168Y680D01*
X537Y679D02*
X944Y679D01*
X1052Y679D02*
X1167Y679D01*
X538Y678D02*
X945Y678D01*
X1053Y678D02*
X1167Y678D01*
X538Y677D02*
X946Y677D01*
X1053Y677D02*
X1166Y677D01*
X539Y676D02*
X947Y676D01*
X1054Y676D02*
X1166Y676D01*
X539Y675D02*
X948Y675D01*
X1055Y675D02*
X1166Y675D01*
X540Y674D02*
X949Y674D01*
X1056Y674D02*
X1165Y674D01*
X540Y673D02*
X950Y673D01*
X1057Y673D02*
X1165Y673D01*
X541Y672D02*
X951Y672D01*
X1058Y672D02*
X1164Y672D01*
X541Y671D02*
X952Y671D01*
X1059Y671D02*
X1163Y671D01*
X542Y670D02*
X953Y670D01*
X1060Y670D02*
X1163Y670D01*
X542Y669D02*
X954Y669D01*
X1061Y669D02*
X1162Y669D01*
X543Y668D02*
X955Y668D01*
X1062Y668D02*
X1162Y668D01*
X543Y667D02*
X956Y667D01*
X1063Y667D02*
X1161Y667D01*
X544Y666D02*
X957Y666D01*
X1064Y666D02*
X1161Y666D01*
X544Y665D02*
X958Y665D01*
X1065Y665D02*
X1160Y665D01*
X545Y664D02*
X959Y664D01*
X1066Y664D02*
X1160Y664D01*
X545Y663D02*
X960Y663D01*
X1067Y663D02*
X1159Y663D01*
X546Y662D02*
X961Y662D01*
X1068Y662D02*
X1159Y662D01*
X546Y661D02*
X962Y661D01*
X1069Y661D02*
X1158Y661D01*
X547Y660D02*
X963Y660D01*
X1070Y660D02*
X1158Y660D01*
X547Y659D02*
X964Y659D01*
X1071Y659D02*
X1157Y659D01*
X548Y658D02*
X965Y658D01*
X1072Y658D02*
X1157Y658D01*
X549Y657D02*
X966Y657D01*
X1073Y657D02*
X1156Y657D01*
X549Y656D02*
X967Y656D01*
X1074Y656D02*
X1155Y656D01*
X550Y655D02*
X968Y655D01*
X1075Y655D02*
X1155Y655D01*
X550Y654D02*
X969Y654D01*
X1076Y654D02*
X1154Y654D01*
X551Y653D02*
X970Y653D01*
X1077Y653D02*
X1154Y653D01*
X551Y652D02*
X971Y652D01*
X1078Y652D02*
X1153Y652D01*
X552Y651D02*
X972Y651D01*
X1079Y651D02*
X1153Y651D01*
X553Y650D02*
X973Y650D01*
X1080Y650D02*
X1152Y650D01*
X553Y649D02*
X974Y649D01*
X1081Y649D02*
X1151Y649D01*
X554Y648D02*
X975Y648D01*
X1082Y648D02*
X1151Y648D01*
X554Y647D02*
X976Y647D01*
X1083Y647D02*
X1150Y647D01*
X555Y646D02*
X977Y646D01*
X1084Y646D02*
X1150Y646D01*
X556Y645D02*
X978Y645D01*
X1085Y645D02*
X1149Y645D01*
X556Y644D02*
X979Y644D01*
X1086Y644D02*
X1148Y644D01*
X557Y643D02*
X980Y643D01*
X1087Y643D02*
X1148Y643D01*
X558Y642D02*
X981Y642D01*
X1088Y642D02*
X1147Y642D01*
X558Y641D02*
X982Y641D01*
X1089Y641D02*
X1146Y641D01*
X559Y640D02*
X983Y640D01*
X1090Y640D02*
X1146Y640D01*
X559Y639D02*
X984Y639D01*
X1091Y639D02*
X1145Y639D01*
X560Y638D02*
X985Y638D01*
X1092Y638D02*
X1145Y638D01*
X561Y637D02*
X986Y637D01*
X1093Y637D02*
X1144Y637D01*
X561Y636D02*
X987Y636D01*
X1094Y636D02*
X1143Y636D01*
X562Y635D02*
X988Y635D01*
X1095Y635D02*
X1143Y635D01*
X563Y634D02*
X988Y634D01*
X1096Y634D02*
X1142Y634D01*
X563Y633D02*
X989Y633D01*
X1097Y633D02*
X1141Y633D01*
X564Y632D02*
X990Y632D01*
X1098Y632D02*
X1141Y632D01*
X565Y631D02*
X991Y631D01*
X1099Y631D02*
X1140Y631D01*
X565Y630D02*
X992Y630D01*
X1100Y630D02*
X1139Y630D01*
X566Y629D02*
X993Y629D01*
X1101Y629D02*
X1139Y629D01*
X567Y628D02*
X994Y628D01*
X1102Y628D02*
X1138Y628D01*
X568Y627D02*
X995Y627D01*
X1103Y627D02*
X1137Y627D01*
X568Y626D02*
X996Y626D01*
X1104Y626D02*
X1136Y626D01*
X569Y625D02*
X997Y625D01*
X1105Y625D02*
X1136Y625D01*
X570Y624D02*
X998Y624D01*
X1106Y624D02*
X1135Y624D01*
X570Y623D02*
X999Y623D01*
X1107Y623D02*
X1134Y623D01*
X571Y622D02*
X1000Y622D01*
X1108Y622D02*
X1133Y622D01*
X572Y621D02*
X1001Y621D01*
X1109Y621D02*
X1133Y621D01*
X573Y620D02*
X1002Y620D01*
X1110Y620D02*
X1132Y620D01*
X573Y619D02*
X1003Y619D01*
X1111Y619D02*
X1131Y619D01*
X574Y618D02*
X1004Y618D01*
X1112Y618D02*
X1131Y618D01*
X575Y617D02*
X1005Y617D01*
X1113Y617D02*
X1130Y617D01*
X576Y616D02*
X1006Y616D01*
X1113Y616D02*
X1130Y616D01*
X576Y615D02*
X1007Y615D01*
X1114Y615D02*
X1131Y615D01*
X577Y614D02*
X1008Y614D01*
X1115Y614D02*
X1132Y614D01*
X578Y613D02*
X1009Y613D01*
X1116Y613D02*
X1133Y613D01*
X579Y612D02*
X1010Y612D01*
X1117Y612D02*
X1134Y612D01*
X580Y611D02*
X1011Y611D01*
X1118Y611D02*
X1135Y611D01*
X580Y610D02*
X1012Y610D01*
X1119Y610D02*
X1136Y610D01*
X581Y609D02*
X1013Y609D01*
X1120Y609D02*
X1137Y609D01*
X582Y608D02*
X1014Y608D01*
X1121Y608D02*
X1138Y608D01*
X583Y607D02*
X1015Y607D01*
X1122Y607D02*
X1139Y607D01*
X583Y606D02*
X1016Y606D01*
X1123Y606D02*
X1140Y606D01*
X584Y605D02*
X1017Y605D01*
X1124Y605D02*
X1141Y605D01*
X585Y604D02*
X1018Y604D01*
X1125Y604D02*
X1142Y604D01*
X586Y603D02*
X1019Y603D01*
X1126Y603D02*
X1143Y603D01*
X587Y602D02*
X1020Y602D01*
X1127Y602D02*
X1144Y602D01*
X588Y601D02*
X1021Y601D01*
X1128Y601D02*
X1145Y601D01*
X589Y600D02*
X1022Y600D01*
X1129Y600D02*
X1146Y600D01*
X589Y599D02*
X1023Y599D01*
X1130Y599D02*
X1147Y599D01*
X590Y598D02*
X1024Y598D01*
X1131Y598D02*
X1148Y598D01*
X591Y597D02*
X1025Y597D01*
X1132Y597D02*
X1149Y597D01*
X592Y596D02*
X1026Y596D01*
X1133Y596D02*
X1150Y596D01*
X593Y595D02*
X1027Y595D01*
X1134Y595D02*
X1151Y595D01*
X594Y594D02*
X1028Y594D01*
X1135Y594D02*
X1152Y594D01*
X595Y593D02*
X1029Y593D01*
X1136Y593D02*
X1153Y593D01*
X596Y592D02*
X1030Y592D01*
X1137Y592D02*
X1154Y592D01*
X597Y591D02*
X1031Y591D01*
X1138Y591D02*
X1155Y591D01*
X597Y590D02*
X1032Y590D01*
X1139Y590D02*
X1156Y590D01*
X598Y589D02*
X1033Y589D01*
X1140Y589D02*
X1157Y589D01*
X599Y588D02*
X1034Y588D01*
X1141Y588D02*
X1158Y588D01*
X600Y587D02*
X1035Y587D01*
X1142Y587D02*
X1159Y587D01*
X601Y586D02*
X1036Y586D01*
X1143Y586D02*
X1160Y586D01*
X602Y585D02*
X1037Y585D01*
X1144Y585D02*
X1161Y585D01*
X603Y584D02*
X1038Y584D01*
X1145Y584D02*
X1162Y584D01*
X604Y583D02*
X1039Y583D01*
X1146Y583D02*
X1163Y583D01*
X605Y582D02*
X1040Y582D01*
X1147Y582D02*
X1164Y582D01*
X606Y581D02*
X1041Y581D01*
X1148Y581D02*
X1165Y581D01*
X607Y580D02*
X1042Y580D01*
X1149Y580D02*
X1166Y580D01*
X608Y579D02*
X1043Y579D01*
X1150Y579D02*
X1167Y579D01*
X609Y578D02*
X1044Y578D01*
X1151Y578D02*
X1168Y578D01*
X610Y577D02*
X1045Y577D01*
X1152Y577D02*
X1169Y577D01*
X611Y576D02*
X1046Y576D01*
X1153Y576D02*
X1170Y576D01*
X612Y575D02*
X1047Y575D01*
X1154Y575D02*
X1171Y575D01*
X613Y574D02*
X1048Y574D01*
X1155Y574D02*
X1172Y574D01*
X615Y573D02*
X1049Y573D01*
X1156Y573D02*
X1173Y573D01*
X616Y572D02*
X1049Y572D01*
X1157Y572D02*
X1174Y572D01*
X617Y571D02*
X1050Y571D01*
X1158Y571D02*
X1175Y571D01*
X618Y570D02*
X1051Y570D01*
X1159Y570D02*
X1176Y570D01*
X619Y569D02*
X1052Y569D01*
X1160Y569D02*
X1177Y569D01*
X620Y568D02*
X1053Y568D01*
X1161Y568D02*
X1178Y568D01*
X621Y567D02*
X1054Y567D01*
X1162Y567D02*
X1179Y567D01*
X622Y566D02*
X1055Y566D01*
X1163Y566D02*
X1180Y566D01*
X623Y565D02*
X1056Y565D01*
X1164Y565D02*
X1181Y565D01*
X623Y564D02*
X1057Y564D01*
X1165Y564D02*
X1182Y564D01*
X622Y563D02*
X1058Y563D01*
X1166Y563D02*
X1183Y563D01*
X621Y562D02*
X1059Y562D01*
X1167Y562D02*
X1184Y562D01*
X620Y561D02*
X1060Y561D01*
X1168Y561D02*
X1185Y561D01*
X618Y560D02*
X1061Y560D01*
X1169Y560D02*
X1186Y560D01*
X617Y559D02*
X1062Y559D01*
X1170Y559D02*
X1187Y559D01*
X616Y558D02*
X1063Y558D01*
X1171Y558D02*
X1188Y558D01*
X615Y557D02*
X1064Y557D01*
X1172Y557D02*
X1189Y557D01*
X614Y556D02*
X632Y556D01*
X634Y556D02*
X1065Y556D01*
X1173Y556D02*
X1190Y556D01*
X613Y555D02*
X631Y555D01*
X635Y555D02*
X1066Y555D01*
X1174Y555D02*
X1191Y555D01*
X611Y554D02*
X630Y554D01*
X636Y554D02*
X1067Y554D01*
X1175Y554D02*
X1192Y554D01*
X610Y553D02*
X629Y553D01*
X638Y553D02*
X1068Y553D01*
X1176Y553D02*
X1192Y553D01*
X609Y552D02*
X627Y552D01*
X639Y552D02*
X1069Y552D01*
X1177Y552D02*
X1193Y552D01*
X608Y551D02*
X626Y551D01*
X640Y551D02*
X1070Y551D01*
X1178Y551D02*
X1194Y551D01*
X607Y550D02*
X625Y550D01*
X642Y550D02*
X1071Y550D01*
X1179Y550D02*
X1195Y550D01*
X606Y549D02*
X624Y549D01*
X643Y549D02*
X1072Y549D01*
X1180Y549D02*
X1196Y549D01*
X605Y548D02*
X623Y548D01*
X644Y548D02*
X1073Y548D01*
X1181Y548D02*
X1197Y548D01*
X603Y547D02*
X622Y547D01*
X645Y547D02*
X1074Y547D01*
X1182Y547D02*
X1198Y547D01*
X602Y546D02*
X620Y546D01*
X647Y546D02*
X1075Y546D01*
X1183Y546D02*
X1199Y546D01*
X601Y545D02*
X619Y545D01*
X648Y545D02*
X1056Y545D01*
X1059Y545D02*
X1076Y545D01*
X1184Y545D02*
X1200Y545D01*
X600Y544D02*
X618Y544D01*
X650Y544D02*
X1055Y544D01*
X1060Y544D02*
X1077Y544D01*
X1185Y544D02*
X1201Y544D01*
X599Y543D02*
X617Y543D01*
X651Y543D02*
X1053Y543D01*
X1061Y543D02*
X1078Y543D01*
X1186Y543D02*
X1202Y543D01*
X598Y542D02*
X616Y542D01*
X652Y542D02*
X1052Y542D01*
X1062Y542D02*
X1079Y542D01*
X1187Y542D02*
X1203Y542D01*
X596Y541D02*
X615Y541D01*
X654Y541D02*
X1051Y541D01*
X1063Y541D02*
X1080Y541D01*
X1188Y541D02*
X1204Y541D01*
X595Y540D02*
X614Y540D01*
X655Y540D02*
X1049Y540D01*
X1064Y540D02*
X1081Y540D01*
X1189Y540D02*
X1205Y540D01*
X594Y539D02*
X612Y539D01*
X657Y539D02*
X1048Y539D01*
X1065Y539D02*
X1082Y539D01*
X1190Y539D02*
X1206Y539D01*
X593Y538D02*
X611Y538D01*
X658Y538D02*
X1046Y538D01*
X1066Y538D02*
X1083Y538D01*
X1191Y538D02*
X1207Y538D01*
X592Y537D02*
X610Y537D01*
X660Y537D02*
X1045Y537D01*
X1067Y537D02*
X1084Y537D01*
X1192Y537D02*
X1208Y537D01*
X591Y536D02*
X609Y536D01*
X661Y536D02*
X1043Y536D01*
X1068Y536D02*
X1085Y536D01*
X1193Y536D02*
X1209Y536D01*
X590Y535D02*
X608Y535D01*
X663Y535D02*
X1042Y535D01*
X1069Y535D02*
X1086Y535D01*
X1194Y535D02*
X1210Y535D01*
X588Y534D02*
X607Y534D01*
X664Y534D02*
X1040Y534D01*
X1070Y534D02*
X1087Y534D01*
X1194Y534D02*
X1211Y534D01*
X587Y533D02*
X605Y533D01*
X666Y533D02*
X1039Y533D01*
X1071Y533D02*
X1088Y533D01*
X1195Y533D02*
X1212Y533D01*
X586Y532D02*
X604Y532D01*
X667Y532D02*
X1037Y532D01*
X1072Y532D02*
X1089Y532D01*
X1196Y532D02*
X1213Y532D01*
X585Y531D02*
X603Y531D01*
X669Y531D02*
X1036Y531D01*
X1073Y531D02*
X1090Y531D01*
X1197Y531D02*
X1214Y531D01*
X584Y530D02*
X602Y530D01*
X671Y530D02*
X1034Y530D01*
X1074Y530D02*
X1091Y530D01*
X1198Y530D02*
X1215Y530D01*
X583Y529D02*
X601Y529D01*
X672Y529D02*
X1032Y529D01*
X1075Y529D02*
X1092Y529D01*
X1199Y529D02*
X1216Y529D01*
X581Y528D02*
X600Y528D01*
X674Y528D02*
X1031Y528D01*
X1076Y528D02*
X1093Y528D01*
X1200Y528D02*
X1217Y528D01*
X580Y527D02*
X599Y527D01*
X676Y527D02*
X1029Y527D01*
X1077Y527D02*
X1094Y527D01*
X1201Y527D02*
X1218Y527D01*
X579Y526D02*
X597Y526D01*
X677Y526D02*
X1027Y526D01*
X1078Y526D02*
X1095Y526D01*
X1202Y526D02*
X1219Y526D01*
X578Y525D02*
X596Y525D01*
X679Y525D02*
X1025Y525D01*
X1079Y525D02*
X1096Y525D01*
X1203Y525D02*
X1220Y525D01*
X577Y524D02*
X595Y524D01*
X681Y524D02*
X1024Y524D01*
X1080Y524D02*
X1097Y524D01*
X1204Y524D02*
X1221Y524D01*
X576Y523D02*
X594Y523D01*
X683Y523D02*
X1022Y523D01*
X1081Y523D02*
X1098Y523D01*
X1205Y523D02*
X1222Y523D01*
X574Y522D02*
X593Y522D01*
X684Y522D02*
X1020Y522D01*
X1082Y522D02*
X1099Y522D01*
X1206Y522D02*
X1223Y522D01*
X573Y521D02*
X592Y521D01*
X686Y521D02*
X1018Y521D01*
X1083Y521D02*
X1100Y521D01*
X1207Y521D02*
X1224Y521D01*
X572Y520D02*
X590Y520D01*
X688Y520D02*
X1016Y520D01*
X1084Y520D02*
X1101Y520D01*
X1208Y520D02*
X1225Y520D01*
X571Y519D02*
X589Y519D01*
X690Y519D02*
X1015Y519D01*
X1085Y519D02*
X1102Y519D01*
X1209Y519D02*
X1226Y519D01*
X570Y518D02*
X588Y518D01*
X692Y518D02*
X1013Y518D01*
X1086Y518D02*
X1103Y518D01*
X1210Y518D02*
X1227Y518D01*
X569Y517D02*
X587Y517D01*
X694Y517D02*
X1011Y517D01*
X1087Y517D02*
X1104Y517D01*
X1211Y517D02*
X1228Y517D01*
X568Y516D02*
X586Y516D01*
X696Y516D02*
X1009Y516D01*
X1088Y516D02*
X1105Y516D01*
X1212Y516D02*
X1229Y516D01*
X566Y515D02*
X585Y515D01*
X698Y515D02*
X1007Y515D01*
X1089Y515D02*
X1106Y515D01*
X1213Y515D02*
X1230Y515D01*
X565Y514D02*
X584Y514D01*
X700Y514D02*
X1005Y514D01*
X1090Y514D02*
X1107Y514D01*
X1214Y514D02*
X1231Y514D01*
X564Y513D02*
X582Y513D01*
X702Y513D02*
X1003Y513D01*
X1091Y513D02*
X1108Y513D01*
X1215Y513D02*
X1232Y513D01*
X563Y512D02*
X581Y512D01*
X704Y512D02*
X1001Y512D01*
X1092Y512D02*
X1109Y512D01*
X1216Y512D02*
X1233Y512D01*
X562Y511D02*
X580Y511D01*
X706Y511D02*
X999Y511D01*
X1093Y511D02*
X1110Y511D01*
X1217Y511D02*
X1234Y511D01*
X561Y510D02*
X579Y510D01*
X708Y510D02*
X996Y510D01*
X1094Y510D02*
X1111Y510D01*
X1218Y510D02*
X1235Y510D01*
X559Y509D02*
X578Y509D01*
X710Y509D02*
X994Y509D01*
X1095Y509D02*
X1112Y509D01*
X1219Y509D02*
X1236Y509D01*
X558Y508D02*
X577Y508D01*
X713Y508D02*
X992Y508D01*
X1096Y508D02*
X1113Y508D01*
X1220Y508D02*
X1237Y508D01*
X557Y507D02*
X575Y507D01*
X715Y507D02*
X990Y507D01*
X1097Y507D02*
X1114Y507D01*
X1221Y507D02*
X1238Y507D01*
X556Y506D02*
X574Y506D01*
X717Y506D02*
X987Y506D01*
X1098Y506D02*
X1115Y506D01*
X1222Y506D02*
X1239Y506D01*
X555Y505D02*
X573Y505D01*
X720Y505D02*
X985Y505D01*
X1099Y505D02*
X1116Y505D01*
X1223Y505D02*
X1240Y505D01*
X554Y504D02*
X572Y504D01*
X722Y504D02*
X982Y504D01*
X1100Y504D02*
X1117Y504D01*
X1224Y504D02*
X1241Y504D01*
X553Y503D02*
X571Y503D01*
X725Y503D02*
X980Y503D01*
X1101Y503D02*
X1118Y503D01*
X551Y502D02*
X570Y502D01*
X727Y502D02*
X977Y502D01*
X1102Y502D02*
X1118Y502D01*
X550Y501D02*
X569Y501D01*
X730Y501D02*
X975Y501D01*
X1103Y501D02*
X1119Y501D01*
X549Y500D02*
X567Y500D01*
X732Y500D02*
X972Y500D01*
X1104Y500D02*
X1120Y500D01*
X548Y499D02*
X566Y499D01*
X735Y499D02*
X969Y499D01*
X1105Y499D02*
X1121Y499D01*
X547Y498D02*
X565Y498D01*
X738Y498D02*
X967Y498D01*
X1106Y498D02*
X1122Y498D01*
X546Y497D02*
X564Y497D01*
X741Y497D02*
X964Y497D01*
X1107Y497D02*
X1123Y497D01*
X544Y496D02*
X563Y496D01*
X744Y496D02*
X961Y496D01*
X1108Y496D02*
X1124Y496D01*
X543Y495D02*
X562Y495D01*
X747Y495D02*
X958Y495D01*
X1109Y495D02*
X1125Y495D01*
X542Y494D02*
X560Y494D01*
X750Y494D02*
X954Y494D01*
X1110Y494D02*
X1126Y494D01*
X541Y493D02*
X559Y493D01*
X753Y493D02*
X951Y493D01*
X1111Y493D02*
X1127Y493D01*
X540Y492D02*
X558Y492D01*
X757Y492D02*
X948Y492D01*
X1112Y492D02*
X1128Y492D01*
X539Y491D02*
X557Y491D01*
X760Y491D02*
X944Y491D01*
X1113Y491D02*
X1129Y491D01*
X538Y490D02*
X556Y490D01*
X764Y490D02*
X940Y490D01*
X1114Y490D02*
X1130Y490D01*
X536Y489D02*
X555Y489D01*
X768Y489D02*
X937Y489D01*
X1115Y489D02*
X1131Y489D01*
X535Y488D02*
X554Y488D01*
X772Y488D02*
X933Y488D01*
X1116Y488D02*
X1132Y488D01*
X534Y487D02*
X552Y487D01*
X776Y487D02*
X928Y487D01*
X1117Y487D02*
X1133Y487D01*
X533Y486D02*
X551Y486D01*
X781Y486D02*
X924Y486D01*
X1118Y486D02*
X1134Y486D01*
X532Y485D02*
X550Y485D01*
X786Y485D02*
X919Y485D01*
X1119Y485D02*
X1135Y485D01*
X531Y484D02*
X549Y484D01*
X791Y484D02*
X913Y484D01*
X1119Y484D02*
X1136Y484D01*
X529Y483D02*
X548Y483D01*
X797Y483D02*
X908Y483D01*
X1120Y483D02*
X1137Y483D01*
X528Y482D02*
X547Y482D01*
X627Y482D02*
X640Y482D01*
X804Y482D02*
X901Y482D01*
X1121Y482D02*
X1138Y482D01*
X527Y481D02*
X545Y481D01*
X624Y481D02*
X644Y481D01*
X812Y481D02*
X893Y481D01*
X1122Y481D02*
X1139Y481D01*
X526Y480D02*
X544Y480D01*
X621Y480D02*
X646Y480D01*
X821Y480D02*
X884Y480D01*
X1123Y480D02*
X1140Y480D01*
X525Y479D02*
X543Y479D01*
X619Y479D02*
X648Y479D01*
X835Y479D02*
X869Y479D01*
X1124Y479D02*
X1141Y479D01*
X524Y478D02*
X542Y478D01*
X618Y478D02*
X650Y478D01*
X1125Y478D02*
X1142Y478D01*
X523Y477D02*
X541Y477D01*
X616Y477D02*
X652Y477D01*
X1126Y477D02*
X1143Y477D01*
X521Y476D02*
X540Y476D01*
X615Y476D02*
X653Y476D01*
X1127Y476D02*
X1144Y476D01*
X520Y475D02*
X539Y475D01*
X613Y475D02*
X654Y475D01*
X1128Y475D02*
X1145Y475D01*
X519Y474D02*
X537Y474D01*
X612Y474D02*
X655Y474D01*
X1129Y474D02*
X1146Y474D01*
X518Y473D02*
X536Y473D01*
X611Y473D02*
X656Y473D01*
X1130Y473D02*
X1147Y473D01*
X517Y472D02*
X535Y472D01*
X610Y472D02*
X657Y472D01*
X1131Y472D02*
X1148Y472D01*
X516Y471D02*
X534Y471D01*
X609Y471D02*
X658Y471D01*
X1132Y471D02*
X1149Y471D01*
X514Y470D02*
X533Y470D01*
X609Y470D02*
X632Y470D01*
X636Y470D02*
X659Y470D01*
X1133Y470D02*
X1150Y470D01*
X513Y469D02*
X532Y469D01*
X608Y469D02*
X627Y469D01*
X641Y469D02*
X660Y469D01*
X1134Y469D02*
X1151Y469D01*
X512Y468D02*
X530Y468D01*
X607Y468D02*
X625Y468D01*
X643Y468D02*
X660Y468D01*
X1135Y468D02*
X1152Y468D01*
X511Y467D02*
X529Y467D01*
X607Y467D02*
X623Y467D01*
X645Y467D02*
X661Y467D01*
X1136Y467D02*
X1153Y467D01*
X510Y466D02*
X528Y466D01*
X606Y466D02*
X621Y466D01*
X646Y466D02*
X662Y466D01*
X1137Y466D02*
X1154Y466D01*
X509Y465D02*
X527Y465D01*
X605Y465D02*
X620Y465D01*
X647Y465D02*
X662Y465D01*
X1138Y465D02*
X1155Y465D01*
X508Y464D02*
X526Y464D01*
X605Y464D02*
X619Y464D01*
X648Y464D02*
X663Y464D01*
X1139Y464D02*
X1156Y464D01*
X506Y463D02*
X525Y463D01*
X605Y463D02*
X618Y463D01*
X649Y463D02*
X663Y463D01*
X1140Y463D02*
X1157Y463D01*
X505Y462D02*
X523Y462D01*
X604Y462D02*
X618Y462D01*
X650Y462D02*
X663Y462D01*
X1141Y462D02*
X1158Y462D01*
X504Y461D02*
X522Y461D01*
X604Y461D02*
X617Y461D01*
X651Y461D02*
X664Y461D01*
X1142Y461D02*
X1159Y461D01*
X503Y460D02*
X521Y460D01*
X603Y460D02*
X616Y460D01*
X651Y460D02*
X664Y460D01*
X1143Y460D02*
X1160Y460D01*
X502Y459D02*
X520Y459D01*
X603Y459D02*
X616Y459D01*
X652Y459D02*
X664Y459D01*
X1144Y459D02*
X1161Y459D01*
X501Y458D02*
X519Y458D01*
X603Y458D02*
X615Y458D01*
X652Y458D02*
X665Y458D01*
X1145Y458D02*
X1162Y458D01*
X499Y457D02*
X518Y457D01*
X603Y457D02*
X615Y457D01*
X653Y457D02*
X665Y457D01*
X1146Y457D02*
X1163Y457D01*
X498Y456D02*
X517Y456D01*
X602Y456D02*
X615Y456D01*
X653Y456D02*
X665Y456D01*
X1147Y456D02*
X1164Y456D01*
X497Y455D02*
X515Y455D01*
X602Y455D02*
X614Y455D01*
X653Y455D02*
X665Y455D01*
X1148Y455D02*
X1165Y455D01*
X496Y454D02*
X514Y454D01*
X602Y454D02*
X614Y454D01*
X654Y454D02*
X665Y454D01*
X1149Y454D02*
X1166Y454D01*
X495Y453D02*
X513Y453D01*
X602Y453D02*
X666Y453D01*
X1150Y453D02*
X1167Y453D01*
X494Y452D02*
X512Y452D01*
X602Y452D02*
X666Y452D01*
X1151Y452D02*
X1168Y452D01*
X493Y451D02*
X511Y451D01*
X602Y451D02*
X666Y451D01*
X1152Y451D02*
X1169Y451D01*
X491Y450D02*
X510Y450D01*
X602Y450D02*
X666Y450D01*
X1153Y450D02*
X1170Y450D01*
X490Y449D02*
X508Y449D01*
X602Y449D02*
X666Y449D01*
X1154Y449D02*
X1171Y449D01*
X489Y448D02*
X507Y448D01*
X602Y448D02*
X666Y448D01*
X1155Y448D02*
X1172Y448D01*
X488Y447D02*
X506Y447D01*
X602Y447D02*
X614Y447D01*
X653Y447D02*
X665Y447D01*
X1156Y447D02*
X1173Y447D01*
X487Y446D02*
X505Y446D01*
X602Y446D02*
X614Y446D01*
X653Y446D02*
X665Y446D01*
X1157Y446D02*
X1174Y446D01*
X486Y445D02*
X504Y445D01*
X602Y445D02*
X614Y445D01*
X653Y445D02*
X665Y445D01*
X1158Y445D02*
X1175Y445D01*
X484Y444D02*
X503Y444D01*
X603Y444D02*
X615Y444D01*
X653Y444D02*
X665Y444D01*
X1159Y444D02*
X1176Y444D01*
X483Y443D02*
X502Y443D01*
X603Y443D02*
X615Y443D01*
X652Y443D02*
X665Y443D01*
X1160Y443D02*
X1177Y443D01*
X482Y442D02*
X500Y442D01*
X603Y442D02*
X616Y442D01*
X652Y442D02*
X665Y442D01*
X1161Y442D02*
X1178Y442D01*
X481Y441D02*
X499Y441D01*
X603Y441D02*
X616Y441D01*
X652Y441D02*
X664Y441D01*
X1162Y441D02*
X1179Y441D01*
X480Y440D02*
X498Y440D01*
X604Y440D02*
X617Y440D01*
X651Y440D02*
X664Y440D01*
X1163Y440D02*
X1180Y440D01*
X479Y439D02*
X497Y439D01*
X604Y439D02*
X617Y439D01*
X650Y439D02*
X664Y439D01*
X1164Y439D02*
X1181Y439D01*
X478Y438D02*
X496Y438D01*
X604Y438D02*
X618Y438D01*
X650Y438D02*
X663Y438D01*
X1165Y438D02*
X1182Y438D01*
X476Y437D02*
X495Y437D01*
X605Y437D02*
X619Y437D01*
X649Y437D02*
X663Y437D01*
X1166Y437D02*
X1183Y437D01*
X475Y436D02*
X493Y436D01*
X605Y436D02*
X620Y436D01*
X648Y436D02*
X662Y436D01*
X1167Y436D02*
X1184Y436D01*
X474Y435D02*
X492Y435D01*
X606Y435D02*
X621Y435D01*
X646Y435D02*
X662Y435D01*
X1168Y435D02*
X1185Y435D01*
X473Y434D02*
X491Y434D01*
X606Y434D02*
X623Y434D01*
X645Y434D02*
X661Y434D01*
X1169Y434D02*
X1186Y434D01*
X472Y433D02*
X490Y433D01*
X607Y433D02*
X624Y433D01*
X643Y433D02*
X661Y433D01*
X1170Y433D02*
X1187Y433D01*
X471Y432D02*
X489Y432D01*
X608Y432D02*
X626Y432D01*
X641Y432D02*
X660Y432D01*
X1171Y432D02*
X1188Y432D01*
X469Y431D02*
X488Y431D01*
X609Y431D02*
X630Y431D01*
X638Y431D02*
X659Y431D01*
X1172Y431D02*
X1189Y431D01*
X468Y430D02*
X487Y430D01*
X609Y430D02*
X658Y430D01*
X1173Y430D02*
X1190Y430D01*
X467Y429D02*
X485Y429D01*
X610Y429D02*
X657Y429D01*
X1174Y429D02*
X1191Y429D01*
X466Y428D02*
X484Y428D01*
X611Y428D02*
X657Y428D01*
X1175Y428D02*
X1192Y428D01*
X465Y427D02*
X483Y427D01*
X612Y427D02*
X656Y427D01*
X1176Y427D02*
X1193Y427D01*
X464Y426D02*
X482Y426D01*
X613Y426D02*
X654Y426D01*
X1177Y426D02*
X1194Y426D01*
X462Y425D02*
X481Y425D01*
X614Y425D02*
X653Y425D01*
X1178Y425D02*
X1195Y425D01*
X461Y424D02*
X480Y424D01*
X616Y424D02*
X652Y424D01*
X1179Y424D02*
X1196Y424D01*
X460Y423D02*
X478Y423D01*
X617Y423D02*
X650Y423D01*
X1180Y423D02*
X1197Y423D01*
X459Y422D02*
X477Y422D01*
X619Y422D02*
X649Y422D01*
X1181Y422D02*
X1199Y422D01*
X458Y421D02*
X476Y421D01*
X621Y421D02*
X647Y421D01*
X1182Y421D02*
X1200Y421D01*
X457Y420D02*
X475Y420D01*
X623Y420D02*
X644Y420D01*
X1183Y420D02*
X1202Y420D01*
X456Y419D02*
X474Y419D01*
X627Y419D02*
X641Y419D01*
X1184Y419D02*
X1203Y419D01*
X454Y418D02*
X473Y418D01*
X1185Y418D02*
X1205Y418D01*
X453Y417D02*
X472Y417D01*
X1186Y417D02*
X1208Y417D01*
X452Y416D02*
X470Y416D01*
X1187Y416D02*
X1211Y416D01*
X451Y415D02*
X469Y415D01*
X1188Y415D02*
X1216Y415D01*
X450Y414D02*
X468Y414D01*
X449Y413D02*
X467Y413D01*
X447Y412D02*
X466Y412D01*
X446Y411D02*
X465Y411D01*
X445Y410D02*
X463Y410D01*
X444Y409D02*
X462Y409D01*
X443Y408D02*
X461Y408D01*
X442Y407D02*
X460Y407D01*
X441Y406D02*
X459Y406D01*
X439Y405D02*
X458Y405D01*
X438Y404D02*
X457Y404D01*
X437Y403D02*
X455Y403D01*
X436Y402D02*
X454Y402D01*
X435Y401D02*
X453Y401D01*
X434Y400D02*
X452Y400D01*
X432Y399D02*
X451Y399D01*
X431Y398D02*
X450Y398D01*
X430Y397D02*
X448Y397D01*
X429Y396D02*
X447Y396D01*
X428Y395D02*
X446Y395D01*
X427Y394D02*
X445Y394D01*
X426Y393D02*
X444Y393D01*
X424Y392D02*
X443Y392D01*
X423Y391D02*
X442Y391D01*
X422Y390D02*
X440Y390D01*
X421Y389D02*
X439Y389D01*
X420Y388D02*
X438Y388D01*
X419Y387D02*
X437Y387D01*
X417Y386D02*
X436Y386D01*
X416Y385D02*
X435Y385D01*
X415Y384D02*
X433Y384D01*
X414Y383D02*
X432Y383D01*
X413Y382D02*
X431Y382D01*
X412Y381D02*
X430Y381D01*
X411Y380D02*
X429Y380D01*
X409Y379D02*
X428Y379D01*
X408Y378D02*
X427Y378D01*
X407Y377D02*
X425Y377D01*
X406Y376D02*
X424Y376D01*
X405Y375D02*
X423Y375D01*
X404Y374D02*
X422Y374D01*
X402Y373D02*
X421Y373D01*
X401Y372D02*
X420Y372D01*
X400Y371D02*
X418Y371D01*
X399Y370D02*
X417Y370D01*
X398Y369D02*
X416Y369D01*
X397Y368D02*
X415Y368D01*
X396Y367D02*
X414Y367D01*
X394Y366D02*
X413Y366D01*
X393Y365D02*
X411Y365D01*
X392Y364D02*
X410Y364D01*
X391Y363D02*
X409Y363D01*
X390Y362D02*
X408Y362D01*
X389Y361D02*
X407Y361D01*
X387Y360D02*
X406Y360D01*
X386Y359D02*
X405Y359D01*
X385Y358D02*
X403Y358D01*
X384Y357D02*
X402Y357D01*
X383Y356D02*
X401Y356D01*
X382Y355D02*
X400Y355D01*
X381Y354D02*
X399Y354D01*
X379Y353D02*
X398Y353D01*
X378Y352D02*
X396Y352D01*
X377Y351D02*
X395Y351D01*
X376Y350D02*
X394Y350D01*
X375Y349D02*
X393Y349D01*
X374Y348D02*
X392Y348D01*
X372Y347D02*
X391Y347D01*
X371Y346D02*
X390Y346D01*
X370Y345D02*
X388Y345D01*
X369Y344D02*
X387Y344D01*
X368Y343D02*
X386Y343D01*
X367Y342D02*
X385Y342D01*
X365Y341D02*
X384Y341D01*
X364Y340D02*
X383Y340D01*
X363Y339D02*
X381Y339D01*
X362Y338D02*
X380Y338D01*
X361Y337D02*
X379Y337D01*
X360Y336D02*
X378Y336D01*
X359Y335D02*
X377Y335D01*
X357Y334D02*
X376Y334D01*
X356Y333D02*
X375Y333D01*
X355Y332D02*
X373Y332D01*
X354Y331D02*
X372Y331D01*
X353Y330D02*
X371Y330D01*
X352Y329D02*
X370Y329D01*
X350Y328D02*
X369Y328D01*
X349Y327D02*
X368Y327D01*
X348Y326D02*
X366Y326D01*
X347Y325D02*
X365Y325D01*
X346Y324D02*
X364Y324D01*
X345Y323D02*
X363Y323D01*
X344Y322D02*
X362Y322D01*
X342Y321D02*
X361Y321D01*
X341Y320D02*
X360Y320D01*
X340Y319D02*
X358Y319D01*
X339Y318D02*
X357Y318D01*
X338Y317D02*
X356Y317D01*
X337Y316D02*
X355Y316D01*
X335Y315D02*
X354Y315D01*
X334Y314D02*
X353Y314D01*
X333Y313D02*
X351Y313D01*
X332Y312D02*
X350Y312D01*
X331Y311D02*
X349Y311D01*
X330Y310D02*
X348Y310D01*
X329Y309D02*
X347Y309D01*
X327Y308D02*
X346Y308D01*
X326Y307D02*
X345Y307D01*
X325Y306D02*
X343Y306D01*
X324Y305D02*
X342Y305D01*
X323Y304D02*
X341Y304D01*
X322Y303D02*
X340Y303D01*
X320Y302D02*
X339Y302D01*
X319Y301D02*
X338Y301D01*
X318Y300D02*
X336Y300D01*
X317Y299D02*
X335Y299D01*
X316Y298D02*
X334Y298D01*
X315Y297D02*
X333Y297D01*
X314Y296D02*
X332Y296D01*
X312Y295D02*
X331Y295D01*
X311Y294D02*
X330Y294D01*
X310Y293D02*
X328Y293D01*
X309Y292D02*
X327Y292D01*
X308Y291D02*
X326Y291D01*
X307Y290D02*
X325Y290D01*
X305Y289D02*
X324Y289D01*
X304Y288D02*
X323Y288D01*
X303Y287D02*
X321Y287D01*
X302Y286D02*
X320Y286D01*
X301Y285D02*
X319Y285D01*
X300Y284D02*
X318Y284D01*
X299Y283D02*
X317Y283D01*
X297Y282D02*
X316Y282D01*
X296Y281D02*
X314Y281D01*
X295Y280D02*
X313Y280D01*
X294Y279D02*
X312Y279D01*
X293Y278D02*
X311Y278D01*
X292Y277D02*
X310Y277D01*
X290Y276D02*
X309Y276D01*
X289Y275D02*
X308Y275D01*
X288Y274D02*
X306Y274D01*
X287Y273D02*
X305Y273D01*
X286Y272D02*
X304Y272D01*
X285Y271D02*
X303Y271D01*
X284Y270D02*
X302Y270D01*
X282Y269D02*
X301Y269D01*
X281Y268D02*
X299Y268D01*
X280Y267D02*
X298Y267D01*
X279Y266D02*
X297Y266D01*
X278Y265D02*
X296Y265D01*
X277Y264D02*
X295Y264D01*
X275Y263D02*
X294Y263D01*
X274Y262D02*
X293Y262D01*
X273Y261D02*
X291Y261D01*
X272Y260D02*
X290Y260D01*
X271Y259D02*
X289Y259D01*
X270Y258D02*
X288Y258D01*
X268Y257D02*
X287Y257D01*
X267Y256D02*
X286Y256D01*
X266Y255D02*
X284Y255D01*
X265Y254D02*
X283Y254D01*
X264Y253D02*
X282Y253D01*
X263Y252D02*
X281Y252D01*
X262Y251D02*
X280Y251D01*
X260Y250D02*
X279Y250D01*
X259Y249D02*
X278Y249D01*
X258Y248D02*
X276Y248D01*
X257Y247D02*
X275Y247D01*
X256Y246D02*
X274Y246D01*
X255Y245D02*
X273Y245D01*
X253Y244D02*
X272Y244D01*
X252Y243D02*
X271Y243D01*
X251Y242D02*
X269Y242D01*
X250Y241D02*
X268Y241D01*
X249Y240D02*
X267Y240D01*
X248Y239D02*
X266Y239D01*
X247Y238D02*
X265Y238D01*
X245Y237D02*
X264Y237D01*
X244Y236D02*
X263Y236D01*
X243Y235D02*
X261Y235D01*
X242Y234D02*
X260Y234D01*
X241Y233D02*
X259Y233D01*
X240Y232D02*
X258Y232D01*
X238Y231D02*
X257Y231D01*
X237Y230D02*
X256Y230D01*
X236Y229D02*
X254Y229D01*
X235Y228D02*
X253Y228D01*
X234Y227D02*
X252Y227D01*
X233Y226D02*
X251Y226D01*
X232Y225D02*
X250Y225D01*
X230Y224D02*
X249Y224D01*
X229Y223D02*
X248Y223D01*
X228Y222D02*
X246Y222D01*
X227Y221D02*
X245Y221D01*
X226Y220D02*
X244Y220D01*
X225Y219D02*
X243Y219D01*
X223Y218D02*
X242Y218D01*
X222Y217D02*
X241Y217D01*
X221Y216D02*
X239Y216D01*
X220Y215D02*
X238Y215D01*
X219Y214D02*
X237Y214D01*
X218Y213D02*
X236Y213D01*
X217Y212D02*
X235Y212D01*
X215Y211D02*
X234Y211D01*
X214Y210D02*
X233Y210D01*
X213Y209D02*
X231Y209D01*
X212Y208D02*
X230Y208D01*
X211Y207D02*
X229Y207D01*
X210Y206D02*
X228Y206D01*
X208Y205D02*
X227Y205D01*
X207Y204D02*
X226Y204D01*
X206Y203D02*
X224Y203D01*
X205Y202D02*
X223Y202D01*
X204Y201D02*
X222Y201D01*
X203Y200D02*
X221Y200D01*
X202Y199D02*
X220Y199D01*
X200Y198D02*
X219Y198D01*
X199Y197D02*
X218Y197D01*
X198Y196D02*
X216Y196D01*
X197Y195D02*
X215Y195D01*
X196Y194D02*
X214Y194D01*
X195Y193D02*
X213Y193D01*
X193Y192D02*
X212Y192D01*
X192Y191D02*
X211Y191D01*
X191Y190D02*
X209Y190D01*
X190Y189D02*
X208Y189D01*
X189Y188D02*
X207Y188D01*
X188Y187D02*
X206Y187D01*
X187Y186D02*
X205Y186D01*
X185Y185D02*
X204Y185D01*
X184Y184D02*
X202Y184D01*
X183Y183D02*
X201Y183D01*
X182Y182D02*
X200Y182D01*
X181Y181D02*
X199Y181D01*
X180Y180D02*
X198Y180D01*
X178Y179D02*
X197Y179D01*
X177Y178D02*
X196Y178D01*
X176Y177D02*
X194Y177D01*
X175Y176D02*
X193Y176D01*
X174Y175D02*
X192Y175D01*
X173Y174D02*
X191Y174D01*
X171Y173D02*
X190Y173D01*
X170Y172D02*
X189Y172D01*
X169Y171D02*
X187Y171D01*
X168Y170D02*
X186Y170D01*
X167Y169D02*
X185Y169D01*
X166Y168D02*
X184Y168D01*
X165Y167D02*
X183Y167D01*
X163Y166D02*
X182Y166D01*
X162Y165D02*
X181Y165D01*
X161Y164D02*
X179Y164D01*
X160Y163D02*
X178Y163D01*
X159Y162D02*
X177Y162D01*
X158Y161D02*
X176Y161D01*
X156Y160D02*
X175Y160D01*
X155Y159D02*
X174Y159D01*
X154Y158D02*
X172Y158D01*
X153Y157D02*
X171Y157D01*
X152Y156D02*
X170Y156D01*
X151Y155D02*
X169Y155D01*
X150Y154D02*
X168Y154D01*
X148Y153D02*
X167Y153D01*
X147Y152D02*
X166Y152D01*
X146Y151D02*
X164Y151D01*
X145Y150D02*
X163Y150D01*
X144Y149D02*
X162Y149D01*
X143Y148D02*
X161Y148D01*
X141Y147D02*
X160Y147D01*
X140Y146D02*
X159Y146D01*
X139Y145D02*
X157Y145D01*
X138Y144D02*
X156Y144D01*
X137Y143D02*
X155Y143D01*
X136Y142D02*
X154Y142D01*
X135Y141D02*
X153Y141D01*
X133Y140D02*
X152Y140D01*
X132Y139D02*
X151Y139D01*
X131Y138D02*
X149Y138D01*
X130Y137D02*
X148Y137D01*
X129Y136D02*
X147Y136D01*
X128Y135D02*
X146Y135D01*
X126Y134D02*
X145Y134D01*
X125Y133D02*
X144Y133D01*
X124Y132D02*
X142Y132D01*
X123Y131D02*
X141Y131D01*
X122Y130D02*
X140Y130D01*
X121Y129D02*
X139Y129D01*
X120Y128D02*
X138Y128D01*
X118Y127D02*
X137Y127D01*
X117Y126D02*
X136Y126D01*
X116Y125D02*
X134Y125D01*
X115Y124D02*
X133Y124D01*
X114Y123D02*
X132Y123D01*
X113Y122D02*
X131Y122D01*
X111Y121D02*
X130Y121D01*
X110Y120D02*
X129Y120D01*
X109Y119D02*
X127Y119D01*
X108Y118D02*
X126Y118D01*
X107Y117D02*
X125Y117D01*
X106Y116D02*
X124Y116D01*
X105Y115D02*
X123Y115D01*
X103Y114D02*
X122Y114D01*
X102Y113D02*
X121Y113D01*
X101Y112D02*
X119Y112D01*
X100Y111D02*
X118Y111D01*
X99Y110D02*
X117Y110D01*
X98Y109D02*
X116Y109D01*
X96Y108D02*
X115Y108D01*
X95Y107D02*
X114Y107D01*
X94Y106D02*
X112Y106D01*
X93Y105D02*
X111Y105D01*
X92Y104D02*
X110Y104D01*
X91Y103D02*
X109Y103D01*
X90Y102D02*
X108Y102D01*
X88Y101D02*
X107Y101D01*
X87Y100D02*
X105Y100D01*
X86Y99D02*
X104Y99D01*
X85Y98D02*
X103Y98D01*
X84Y97D02*
X102Y97D01*
X83Y96D02*
X101Y96D01*
X81Y95D02*
X100Y95D01*
X80Y94D02*
X99Y94D01*
X79Y93D02*
X97Y93D01*
X78Y92D02*
X96Y92D01*
X77Y91D02*
X95Y91D01*
X76Y90D02*
X94Y90D01*
X74Y89D02*
X93Y89D01*
X73Y88D02*
X92Y88D01*
X72Y87D02*
X90Y87D01*
X71Y86D02*
X89Y86D01*
X70Y85D02*
X88Y85D01*
X69Y84D02*
X87Y84D01*
X68Y83D02*
X86Y83D01*
X66Y82D02*
X85Y82D01*
X65Y81D02*
X84Y81D01*
X64Y80D02*
X82Y80D01*
X63Y79D02*
X81Y79D01*
X62Y78D02*
X80Y78D01*
X61Y77D02*
X79Y77D01*
X59Y76D02*
X78Y76D01*
X58Y75D02*
X77Y75D01*
X57Y74D02*
X75Y74D01*
X56Y73D02*
X74Y73D01*
X55Y72D02*
X73Y72D01*
X54Y71D02*
X72Y71D01*
X53Y70D02*
X71Y70D01*
X51Y69D02*
X70Y69D01*
X50Y68D02*
X69Y68D01*
X49Y67D02*
X67Y67D01*
X48Y66D02*
X66Y66D01*
X47Y65D02*
X65Y65D01*
X46Y64D02*
X64Y64D01*
X44Y63D02*
X63Y63D01*
X43Y62D02*
X62Y62D01*
X42Y61D02*
X60Y61D01*
X41Y60D02*
X59Y60D01*
X40Y59D02*
X58Y59D01*
X39Y58D02*
X57Y58D01*
X38Y57D02*
X56Y57D01*
X36Y56D02*
X55Y56D01*
X35Y55D02*
X54Y55D01*
X34Y54D02*
X52Y54D01*
X33Y53D02*
X51Y53D01*
X32Y52D02*
X50Y52D01*
X31Y51D02*
X49Y51D01*
X29Y50D02*
X48Y50D01*
X28Y49D02*
X47Y49D01*
X27Y48D02*
X45Y48D01*
X26Y47D02*
X44Y47D01*
X25Y46D02*
X43Y46D01*
X24Y45D02*
X42Y45D01*
X23Y44D02*
X41Y44D01*
X21Y43D02*
X40Y43D01*
X20Y42D02*
X39Y42D01*
X19Y41D02*
X37Y41D01*
X18Y40D02*
X36Y40D01*
X17Y39D02*
X35Y39D01*
X16Y38D02*
X34Y38D01*
X14Y37D02*
X33Y37D01*
X13Y36D02*
X32Y36D01*
X12Y35D02*
X30Y35D01*
X11Y34D02*
X29Y34D01*
X10Y33D02*
X28Y33D01*
X9Y32D02*
X27Y32D01*
X8Y31D02*
X26Y31D01*
X6Y30D02*
X25Y30D01*
X5Y29D02*
X24Y29D01*
X4Y28D02*
X22Y28D01*
X3Y27D02*
X21Y27D01*
X2Y26D02*
X20Y26D01*
X1Y25D02*
X19Y25D01*
X0Y24D02*
X18Y24D01*
X0Y23D02*
X17Y23D01*
X0Y22D02*
X15Y22D01*
X0Y21D02*
X14Y21D01*
X0Y20D02*
X13Y20D01*
X0Y19D02*
X12Y19D01*
X0Y18D02*
X11Y18D01*
X0Y17D02*
X10Y17D01*
X0Y16D02*
X8Y16D01*
X0Y15D02*
X7Y15D01*
X0Y14D02*
X6Y14D01*
X0Y13D02*
X5Y13D01*
X0Y12D02*
X4Y12D01*
X0Y11D02*
X3Y11D01*
X0Y10D02*
X2Y10D01*
X0Y9D02*
X0Y9D01*
D02*
G04 End of Silk1*
M02*