G04 MADE WITH FRITZING*
G04 WWW.FRITZING.ORG*
G04 DOUBLE SIDED*
G04 HOLES PLATED*
G04 CONTOUR ON CENTER OF CONTOUR VECTOR*
%ASAXBY*%
%FSLAX23Y23*%
%MOIN*%
%OFA0B0*%
%SFA1.0B1.0*%
%ADD10R,0.001000X0.001000*%
%LNSILK1*%
G90*
G70*
G54D10*
X707Y1773D02*
X732Y1773D01*
X1071Y1773D02*
X1096Y1773D01*
X707Y1772D02*
X732Y1772D01*
X1071Y1772D02*
X1096Y1772D01*
X707Y1771D02*
X732Y1771D01*
X1071Y1771D02*
X1096Y1771D01*
X707Y1770D02*
X732Y1770D01*
X1071Y1770D02*
X1096Y1770D01*
X707Y1769D02*
X732Y1769D01*
X1071Y1769D02*
X1096Y1769D01*
X707Y1768D02*
X732Y1768D01*
X1071Y1768D02*
X1096Y1768D01*
X707Y1767D02*
X732Y1767D01*
X1071Y1767D02*
X1096Y1767D01*
X707Y1766D02*
X732Y1766D01*
X1071Y1766D02*
X1096Y1766D01*
X707Y1765D02*
X732Y1765D01*
X1071Y1765D02*
X1096Y1765D01*
X707Y1764D02*
X732Y1764D01*
X1071Y1764D02*
X1096Y1764D01*
X707Y1763D02*
X732Y1763D01*
X1071Y1763D02*
X1096Y1763D01*
X707Y1762D02*
X732Y1762D01*
X1071Y1762D02*
X1096Y1762D01*
X707Y1761D02*
X732Y1761D01*
X1071Y1761D02*
X1096Y1761D01*
X707Y1760D02*
X732Y1760D01*
X1071Y1760D02*
X1096Y1760D01*
X707Y1759D02*
X732Y1759D01*
X1071Y1759D02*
X1096Y1759D01*
X707Y1758D02*
X732Y1758D01*
X1071Y1758D02*
X1096Y1758D01*
X707Y1757D02*
X732Y1757D01*
X1071Y1757D02*
X1096Y1757D01*
X707Y1756D02*
X732Y1756D01*
X1071Y1756D02*
X1096Y1756D01*
X707Y1755D02*
X732Y1755D01*
X1071Y1755D02*
X1096Y1755D01*
X707Y1754D02*
X732Y1754D01*
X1071Y1754D02*
X1096Y1754D01*
X707Y1753D02*
X732Y1753D01*
X1071Y1753D02*
X1096Y1753D01*
X707Y1752D02*
X732Y1752D01*
X1071Y1752D02*
X1096Y1752D01*
X707Y1751D02*
X732Y1751D01*
X1071Y1751D02*
X1096Y1751D01*
X707Y1750D02*
X732Y1750D01*
X1071Y1750D02*
X1096Y1750D01*
X707Y1749D02*
X732Y1749D01*
X1071Y1749D02*
X1096Y1749D01*
X707Y1748D02*
X732Y1748D01*
X1071Y1748D02*
X1096Y1748D01*
X707Y1747D02*
X732Y1747D01*
X1071Y1747D02*
X1096Y1747D01*
X707Y1746D02*
X732Y1746D01*
X1071Y1746D02*
X1096Y1746D01*
X707Y1745D02*
X732Y1745D01*
X1071Y1745D02*
X1096Y1745D01*
X707Y1744D02*
X732Y1744D01*
X1071Y1744D02*
X1096Y1744D01*
X707Y1743D02*
X732Y1743D01*
X1071Y1743D02*
X1096Y1743D01*
X707Y1742D02*
X732Y1742D01*
X1071Y1742D02*
X1096Y1742D01*
X707Y1741D02*
X732Y1741D01*
X1071Y1741D02*
X1096Y1741D01*
X707Y1740D02*
X732Y1740D01*
X1071Y1740D02*
X1096Y1740D01*
X707Y1739D02*
X732Y1739D01*
X1071Y1739D02*
X1096Y1739D01*
X707Y1738D02*
X732Y1738D01*
X1071Y1738D02*
X1096Y1738D01*
X707Y1737D02*
X732Y1737D01*
X1071Y1737D02*
X1096Y1737D01*
X707Y1736D02*
X732Y1736D01*
X1071Y1736D02*
X1096Y1736D01*
X707Y1735D02*
X732Y1735D01*
X1071Y1735D02*
X1096Y1735D01*
X707Y1734D02*
X732Y1734D01*
X1071Y1734D02*
X1096Y1734D01*
X707Y1733D02*
X732Y1733D01*
X1071Y1733D02*
X1096Y1733D01*
X707Y1732D02*
X732Y1732D01*
X1071Y1732D02*
X1096Y1732D01*
X707Y1731D02*
X732Y1731D01*
X1071Y1731D02*
X1096Y1731D01*
X707Y1730D02*
X732Y1730D01*
X1071Y1730D02*
X1096Y1730D01*
X707Y1729D02*
X732Y1729D01*
X1071Y1729D02*
X1096Y1729D01*
X707Y1728D02*
X732Y1728D01*
X1071Y1728D02*
X1096Y1728D01*
X707Y1727D02*
X732Y1727D01*
X1071Y1727D02*
X1096Y1727D01*
X707Y1726D02*
X732Y1726D01*
X1071Y1726D02*
X1096Y1726D01*
X707Y1725D02*
X732Y1725D01*
X1071Y1725D02*
X1096Y1725D01*
X707Y1724D02*
X732Y1724D01*
X1071Y1724D02*
X1096Y1724D01*
X707Y1723D02*
X732Y1723D01*
X1071Y1723D02*
X1096Y1723D01*
X707Y1722D02*
X732Y1722D01*
X1071Y1722D02*
X1096Y1722D01*
X707Y1721D02*
X732Y1721D01*
X1071Y1721D02*
X1096Y1721D01*
X707Y1720D02*
X732Y1720D01*
X1071Y1720D02*
X1096Y1720D01*
X707Y1719D02*
X732Y1719D01*
X1071Y1719D02*
X1096Y1719D01*
X707Y1718D02*
X732Y1718D01*
X1071Y1718D02*
X1096Y1718D01*
X707Y1717D02*
X732Y1717D01*
X1071Y1717D02*
X1096Y1717D01*
X707Y1716D02*
X732Y1716D01*
X1071Y1716D02*
X1096Y1716D01*
X707Y1715D02*
X732Y1715D01*
X1071Y1715D02*
X1096Y1715D01*
X707Y1714D02*
X732Y1714D01*
X1071Y1714D02*
X1096Y1714D01*
X707Y1713D02*
X732Y1713D01*
X1071Y1713D02*
X1096Y1713D01*
X707Y1712D02*
X732Y1712D01*
X1071Y1712D02*
X1096Y1712D01*
X707Y1711D02*
X732Y1711D01*
X1071Y1711D02*
X1096Y1711D01*
X707Y1710D02*
X732Y1710D01*
X1071Y1710D02*
X1096Y1710D01*
X707Y1709D02*
X732Y1709D01*
X1071Y1709D02*
X1096Y1709D01*
X707Y1708D02*
X732Y1708D01*
X1071Y1708D02*
X1096Y1708D01*
X707Y1707D02*
X732Y1707D01*
X1071Y1707D02*
X1096Y1707D01*
X707Y1706D02*
X732Y1706D01*
X1071Y1706D02*
X1096Y1706D01*
X707Y1705D02*
X732Y1705D01*
X1071Y1705D02*
X1096Y1705D01*
X707Y1704D02*
X732Y1704D01*
X1071Y1704D02*
X1096Y1704D01*
X707Y1703D02*
X732Y1703D01*
X1071Y1703D02*
X1096Y1703D01*
X707Y1702D02*
X732Y1702D01*
X1071Y1702D02*
X1096Y1702D01*
X707Y1701D02*
X732Y1701D01*
X1071Y1701D02*
X1096Y1701D01*
X707Y1700D02*
X732Y1700D01*
X1071Y1700D02*
X1096Y1700D01*
X707Y1699D02*
X732Y1699D01*
X1071Y1699D02*
X1096Y1699D01*
X707Y1698D02*
X732Y1698D01*
X1071Y1698D02*
X1096Y1698D01*
X707Y1697D02*
X732Y1697D01*
X1071Y1697D02*
X1096Y1697D01*
X707Y1696D02*
X732Y1696D01*
X1071Y1696D02*
X1096Y1696D01*
X707Y1695D02*
X732Y1695D01*
X1071Y1695D02*
X1096Y1695D01*
X707Y1694D02*
X732Y1694D01*
X1071Y1694D02*
X1096Y1694D01*
X707Y1693D02*
X732Y1693D01*
X1071Y1693D02*
X1096Y1693D01*
X707Y1692D02*
X732Y1692D01*
X1071Y1692D02*
X1096Y1692D01*
X707Y1691D02*
X732Y1691D01*
X1071Y1691D02*
X1096Y1691D01*
X707Y1690D02*
X732Y1690D01*
X1071Y1690D02*
X1096Y1690D01*
X707Y1689D02*
X732Y1689D01*
X1071Y1689D02*
X1096Y1689D01*
X707Y1688D02*
X732Y1688D01*
X1071Y1688D02*
X1096Y1688D01*
X707Y1687D02*
X732Y1687D01*
X1071Y1687D02*
X1096Y1687D01*
X707Y1686D02*
X732Y1686D01*
X1071Y1686D02*
X1096Y1686D01*
X707Y1685D02*
X732Y1685D01*
X1071Y1685D02*
X1096Y1685D01*
X707Y1684D02*
X732Y1684D01*
X1071Y1684D02*
X1096Y1684D01*
X707Y1683D02*
X732Y1683D01*
X1071Y1683D02*
X1096Y1683D01*
X707Y1682D02*
X732Y1682D01*
X1071Y1682D02*
X1096Y1682D01*
X707Y1681D02*
X732Y1681D01*
X1071Y1681D02*
X1096Y1681D01*
X707Y1680D02*
X732Y1680D01*
X1071Y1680D02*
X1096Y1680D01*
X707Y1679D02*
X732Y1679D01*
X1071Y1679D02*
X1096Y1679D01*
X707Y1678D02*
X732Y1678D01*
X1071Y1678D02*
X1096Y1678D01*
X707Y1677D02*
X732Y1677D01*
X1071Y1677D02*
X1096Y1677D01*
X707Y1676D02*
X732Y1676D01*
X1071Y1676D02*
X1096Y1676D01*
X707Y1675D02*
X732Y1675D01*
X1071Y1675D02*
X1096Y1675D01*
X707Y1674D02*
X732Y1674D01*
X1071Y1674D02*
X1096Y1674D01*
X707Y1673D02*
X732Y1673D01*
X1071Y1673D02*
X1096Y1673D01*
X707Y1672D02*
X732Y1672D01*
X1071Y1672D02*
X1096Y1672D01*
X707Y1671D02*
X732Y1671D01*
X1071Y1671D02*
X1096Y1671D01*
X707Y1670D02*
X732Y1670D01*
X1071Y1670D02*
X1096Y1670D01*
X707Y1669D02*
X732Y1669D01*
X1071Y1669D02*
X1096Y1669D01*
X707Y1668D02*
X732Y1668D01*
X1071Y1668D02*
X1096Y1668D01*
X707Y1667D02*
X732Y1667D01*
X1071Y1667D02*
X1096Y1667D01*
X707Y1666D02*
X732Y1666D01*
X1071Y1666D02*
X1096Y1666D01*
X707Y1665D02*
X732Y1665D01*
X1071Y1665D02*
X1096Y1665D01*
X707Y1664D02*
X732Y1664D01*
X1071Y1664D02*
X1096Y1664D01*
X707Y1663D02*
X732Y1663D01*
X1071Y1663D02*
X1096Y1663D01*
X707Y1662D02*
X732Y1662D01*
X1071Y1662D02*
X1096Y1662D01*
X707Y1661D02*
X732Y1661D01*
X1071Y1661D02*
X1096Y1661D01*
X707Y1660D02*
X732Y1660D01*
X1071Y1660D02*
X1096Y1660D01*
X707Y1659D02*
X732Y1659D01*
X1071Y1659D02*
X1096Y1659D01*
X707Y1658D02*
X732Y1658D01*
X1071Y1658D02*
X1096Y1658D01*
X707Y1657D02*
X732Y1657D01*
X1071Y1657D02*
X1096Y1657D01*
X707Y1656D02*
X732Y1656D01*
X1071Y1656D02*
X1096Y1656D01*
X707Y1655D02*
X732Y1655D01*
X1071Y1655D02*
X1096Y1655D01*
X707Y1654D02*
X732Y1654D01*
X1071Y1654D02*
X1096Y1654D01*
X707Y1653D02*
X732Y1653D01*
X1071Y1653D02*
X1096Y1653D01*
X707Y1652D02*
X732Y1652D01*
X1071Y1652D02*
X1096Y1652D01*
X707Y1651D02*
X732Y1651D01*
X1071Y1651D02*
X1096Y1651D01*
X707Y1650D02*
X732Y1650D01*
X1071Y1650D02*
X1096Y1650D01*
X707Y1649D02*
X732Y1649D01*
X1071Y1649D02*
X1096Y1649D01*
X707Y1648D02*
X732Y1648D01*
X1071Y1648D02*
X1096Y1648D01*
X707Y1647D02*
X732Y1647D01*
X1071Y1647D02*
X1096Y1647D01*
X707Y1646D02*
X732Y1646D01*
X1071Y1646D02*
X1096Y1646D01*
X707Y1645D02*
X732Y1645D01*
X1071Y1645D02*
X1096Y1645D01*
X707Y1644D02*
X732Y1644D01*
X1071Y1644D02*
X1096Y1644D01*
X707Y1643D02*
X732Y1643D01*
X1071Y1643D02*
X1096Y1643D01*
X707Y1642D02*
X732Y1642D01*
X1071Y1642D02*
X1096Y1642D01*
X707Y1641D02*
X732Y1641D01*
X1071Y1641D02*
X1096Y1641D01*
X707Y1640D02*
X732Y1640D01*
X1071Y1640D02*
X1096Y1640D01*
X707Y1639D02*
X732Y1639D01*
X1071Y1639D02*
X1096Y1639D01*
X707Y1638D02*
X732Y1638D01*
X1071Y1638D02*
X1096Y1638D01*
X707Y1637D02*
X732Y1637D01*
X1071Y1637D02*
X1096Y1637D01*
X707Y1636D02*
X732Y1636D01*
X1071Y1636D02*
X1096Y1636D01*
X707Y1635D02*
X732Y1635D01*
X1071Y1635D02*
X1096Y1635D01*
X707Y1634D02*
X732Y1634D01*
X1071Y1634D02*
X1096Y1634D01*
X707Y1633D02*
X732Y1633D01*
X1071Y1633D02*
X1096Y1633D01*
X707Y1632D02*
X732Y1632D01*
X1071Y1632D02*
X1096Y1632D01*
X707Y1631D02*
X732Y1631D01*
X1071Y1631D02*
X1096Y1631D01*
X707Y1630D02*
X732Y1630D01*
X1071Y1630D02*
X1096Y1630D01*
X707Y1629D02*
X732Y1629D01*
X1071Y1629D02*
X1096Y1629D01*
X707Y1628D02*
X732Y1628D01*
X1071Y1628D02*
X1096Y1628D01*
X707Y1627D02*
X732Y1627D01*
X1071Y1627D02*
X1096Y1627D01*
X707Y1626D02*
X732Y1626D01*
X1071Y1626D02*
X1096Y1626D01*
X707Y1625D02*
X732Y1625D01*
X1071Y1625D02*
X1096Y1625D01*
X707Y1624D02*
X732Y1624D01*
X1071Y1624D02*
X1096Y1624D01*
X707Y1623D02*
X732Y1623D01*
X1071Y1623D02*
X1096Y1623D01*
X707Y1622D02*
X732Y1622D01*
X1071Y1622D02*
X1096Y1622D01*
X707Y1621D02*
X732Y1621D01*
X1071Y1621D02*
X1096Y1621D01*
X707Y1620D02*
X732Y1620D01*
X1071Y1620D02*
X1096Y1620D01*
X707Y1619D02*
X732Y1619D01*
X1071Y1619D02*
X1096Y1619D01*
X707Y1618D02*
X732Y1618D01*
X1071Y1618D02*
X1096Y1618D01*
X707Y1617D02*
X732Y1617D01*
X1071Y1617D02*
X1096Y1617D01*
X707Y1616D02*
X732Y1616D01*
X1071Y1616D02*
X1096Y1616D01*
X707Y1615D02*
X732Y1615D01*
X1071Y1615D02*
X1096Y1615D01*
X707Y1614D02*
X732Y1614D01*
X1071Y1614D02*
X1096Y1614D01*
X707Y1613D02*
X732Y1613D01*
X1071Y1613D02*
X1096Y1613D01*
X707Y1612D02*
X732Y1612D01*
X1071Y1612D02*
X1096Y1612D01*
X707Y1611D02*
X732Y1611D01*
X1071Y1611D02*
X1096Y1611D01*
X707Y1610D02*
X732Y1610D01*
X1071Y1610D02*
X1096Y1610D01*
X707Y1609D02*
X732Y1609D01*
X1071Y1609D02*
X1096Y1609D01*
X707Y1608D02*
X732Y1608D01*
X1071Y1608D02*
X1096Y1608D01*
X707Y1607D02*
X732Y1607D01*
X1071Y1607D02*
X1096Y1607D01*
X707Y1606D02*
X732Y1606D01*
X1071Y1606D02*
X1096Y1606D01*
X707Y1605D02*
X732Y1605D01*
X1071Y1605D02*
X1096Y1605D01*
X707Y1604D02*
X732Y1604D01*
X1071Y1604D02*
X1096Y1604D01*
X707Y1603D02*
X732Y1603D01*
X1071Y1603D02*
X1096Y1603D01*
X707Y1602D02*
X732Y1602D01*
X1071Y1602D02*
X1096Y1602D01*
X707Y1601D02*
X732Y1601D01*
X1071Y1601D02*
X1096Y1601D01*
X707Y1600D02*
X732Y1600D01*
X1071Y1600D02*
X1096Y1600D01*
X707Y1599D02*
X732Y1599D01*
X1071Y1599D02*
X1096Y1599D01*
X707Y1598D02*
X732Y1598D01*
X1071Y1598D02*
X1096Y1598D01*
X707Y1597D02*
X732Y1597D01*
X1071Y1597D02*
X1096Y1597D01*
X707Y1596D02*
X732Y1596D01*
X1071Y1596D02*
X1096Y1596D01*
X707Y1595D02*
X732Y1595D01*
X1071Y1595D02*
X1096Y1595D01*
X707Y1594D02*
X732Y1594D01*
X1071Y1594D02*
X1096Y1594D01*
X707Y1593D02*
X732Y1593D01*
X1071Y1593D02*
X1096Y1593D01*
X707Y1592D02*
X732Y1592D01*
X1071Y1592D02*
X1096Y1592D01*
X707Y1591D02*
X732Y1591D01*
X1071Y1591D02*
X1096Y1591D01*
X707Y1590D02*
X732Y1590D01*
X1071Y1590D02*
X1096Y1590D01*
X707Y1589D02*
X732Y1589D01*
X1071Y1589D02*
X1096Y1589D01*
X707Y1588D02*
X732Y1588D01*
X1071Y1588D02*
X1096Y1588D01*
X707Y1587D02*
X732Y1587D01*
X1071Y1587D02*
X1096Y1587D01*
X707Y1586D02*
X732Y1586D01*
X1071Y1586D02*
X1096Y1586D01*
X707Y1585D02*
X732Y1585D01*
X1071Y1585D02*
X1096Y1585D01*
X707Y1584D02*
X732Y1584D01*
X1071Y1584D02*
X1096Y1584D01*
X707Y1583D02*
X732Y1583D01*
X1071Y1583D02*
X1096Y1583D01*
X707Y1582D02*
X732Y1582D01*
X1071Y1582D02*
X1096Y1582D01*
X707Y1581D02*
X732Y1581D01*
X1071Y1581D02*
X1096Y1581D01*
X707Y1580D02*
X732Y1580D01*
X1071Y1580D02*
X1096Y1580D01*
X707Y1579D02*
X732Y1579D01*
X1071Y1579D02*
X1096Y1579D01*
X707Y1578D02*
X732Y1578D01*
X1071Y1578D02*
X1096Y1578D01*
X707Y1577D02*
X732Y1577D01*
X1071Y1577D02*
X1096Y1577D01*
X707Y1576D02*
X732Y1576D01*
X1071Y1576D02*
X1096Y1576D01*
X707Y1575D02*
X732Y1575D01*
X1071Y1575D02*
X1096Y1575D01*
X707Y1574D02*
X732Y1574D01*
X1071Y1574D02*
X1096Y1574D01*
X707Y1573D02*
X732Y1573D01*
X1071Y1573D02*
X1096Y1573D01*
X707Y1572D02*
X732Y1572D01*
X1071Y1572D02*
X1096Y1572D01*
X707Y1571D02*
X732Y1571D01*
X1071Y1571D02*
X1096Y1571D01*
X707Y1570D02*
X732Y1570D01*
X1071Y1570D02*
X1096Y1570D01*
X707Y1569D02*
X732Y1569D01*
X1071Y1569D02*
X1096Y1569D01*
X707Y1568D02*
X732Y1568D01*
X1071Y1568D02*
X1096Y1568D01*
X707Y1567D02*
X732Y1567D01*
X1071Y1567D02*
X1096Y1567D01*
X707Y1566D02*
X732Y1566D01*
X1071Y1566D02*
X1096Y1566D01*
X707Y1565D02*
X732Y1565D01*
X1071Y1565D02*
X1096Y1565D01*
X707Y1564D02*
X732Y1564D01*
X1071Y1564D02*
X1096Y1564D01*
X707Y1563D02*
X732Y1563D01*
X1071Y1563D02*
X1096Y1563D01*
X707Y1562D02*
X732Y1562D01*
X1071Y1562D02*
X1096Y1562D01*
X707Y1561D02*
X732Y1561D01*
X1071Y1561D02*
X1096Y1561D01*
X707Y1560D02*
X732Y1560D01*
X1071Y1560D02*
X1096Y1560D01*
X707Y1559D02*
X732Y1559D01*
X1071Y1559D02*
X1096Y1559D01*
X707Y1558D02*
X732Y1558D01*
X1071Y1558D02*
X1096Y1558D01*
X707Y1557D02*
X732Y1557D01*
X1071Y1557D02*
X1096Y1557D01*
X707Y1556D02*
X732Y1556D01*
X1071Y1556D02*
X1096Y1556D01*
X707Y1555D02*
X732Y1555D01*
X1071Y1555D02*
X1096Y1555D01*
X707Y1554D02*
X732Y1554D01*
X1071Y1554D02*
X1096Y1554D01*
X707Y1553D02*
X732Y1553D01*
X1071Y1553D02*
X1096Y1553D01*
X707Y1552D02*
X732Y1552D01*
X1071Y1552D02*
X1096Y1552D01*
X707Y1551D02*
X732Y1551D01*
X1071Y1551D02*
X1096Y1551D01*
X707Y1550D02*
X732Y1550D01*
X1071Y1550D02*
X1096Y1550D01*
X707Y1549D02*
X732Y1549D01*
X1071Y1549D02*
X1096Y1549D01*
X707Y1548D02*
X732Y1548D01*
X1071Y1548D02*
X1096Y1548D01*
X707Y1547D02*
X732Y1547D01*
X1071Y1547D02*
X1096Y1547D01*
X707Y1546D02*
X732Y1546D01*
X1071Y1546D02*
X1096Y1546D01*
X707Y1545D02*
X732Y1545D01*
X1071Y1545D02*
X1096Y1545D01*
X707Y1544D02*
X732Y1544D01*
X1071Y1544D02*
X1096Y1544D01*
X707Y1543D02*
X732Y1543D01*
X1071Y1543D02*
X1096Y1543D01*
X707Y1542D02*
X732Y1542D01*
X1071Y1542D02*
X1096Y1542D01*
X707Y1541D02*
X732Y1541D01*
X1071Y1541D02*
X1096Y1541D01*
X707Y1540D02*
X732Y1540D01*
X1071Y1540D02*
X1096Y1540D01*
X707Y1539D02*
X732Y1539D01*
X1071Y1539D02*
X1096Y1539D01*
X707Y1538D02*
X732Y1538D01*
X1071Y1538D02*
X1096Y1538D01*
X707Y1537D02*
X732Y1537D01*
X1071Y1537D02*
X1096Y1537D01*
X707Y1536D02*
X732Y1536D01*
X1071Y1536D02*
X1096Y1536D01*
X707Y1535D02*
X732Y1535D01*
X1071Y1535D02*
X1096Y1535D01*
X707Y1534D02*
X732Y1534D01*
X1071Y1534D02*
X1096Y1534D01*
X707Y1533D02*
X732Y1533D01*
X1071Y1533D02*
X1096Y1533D01*
X707Y1532D02*
X732Y1532D01*
X1071Y1532D02*
X1096Y1532D01*
X707Y1531D02*
X732Y1531D01*
X1071Y1531D02*
X1096Y1531D01*
X707Y1530D02*
X732Y1530D01*
X1071Y1530D02*
X1096Y1530D01*
X707Y1529D02*
X732Y1529D01*
X1071Y1529D02*
X1096Y1529D01*
X707Y1528D02*
X732Y1528D01*
X1071Y1528D02*
X1096Y1528D01*
X707Y1527D02*
X732Y1527D01*
X1071Y1527D02*
X1096Y1527D01*
X707Y1526D02*
X732Y1526D01*
X1071Y1526D02*
X1096Y1526D01*
X707Y1525D02*
X732Y1525D01*
X1071Y1525D02*
X1096Y1525D01*
X707Y1524D02*
X732Y1524D01*
X1071Y1524D02*
X1096Y1524D01*
X707Y1523D02*
X732Y1523D01*
X1071Y1523D02*
X1096Y1523D01*
X707Y1522D02*
X732Y1522D01*
X1071Y1522D02*
X1096Y1522D01*
X707Y1521D02*
X732Y1521D01*
X1071Y1521D02*
X1096Y1521D01*
X707Y1520D02*
X732Y1520D01*
X1071Y1520D02*
X1096Y1520D01*
X707Y1519D02*
X732Y1519D01*
X1071Y1519D02*
X1096Y1519D01*
X707Y1518D02*
X732Y1518D01*
X1071Y1518D02*
X1096Y1518D01*
X707Y1517D02*
X732Y1517D01*
X1071Y1517D02*
X1096Y1517D01*
X707Y1516D02*
X732Y1516D01*
X1071Y1516D02*
X1096Y1516D01*
X707Y1515D02*
X732Y1515D01*
X1071Y1515D02*
X1096Y1515D01*
X707Y1514D02*
X732Y1514D01*
X1071Y1514D02*
X1096Y1514D01*
X707Y1513D02*
X732Y1513D01*
X1071Y1513D02*
X1096Y1513D01*
X707Y1512D02*
X732Y1512D01*
X1071Y1512D02*
X1096Y1512D01*
X707Y1511D02*
X732Y1511D01*
X1071Y1511D02*
X1096Y1511D01*
X707Y1510D02*
X732Y1510D01*
X1071Y1510D02*
X1096Y1510D01*
X707Y1509D02*
X732Y1509D01*
X1071Y1509D02*
X1096Y1509D01*
X707Y1508D02*
X732Y1508D01*
X1071Y1508D02*
X1096Y1508D01*
X707Y1507D02*
X732Y1507D01*
X1071Y1507D02*
X1096Y1507D01*
X707Y1506D02*
X732Y1506D01*
X1071Y1506D02*
X1096Y1506D01*
X707Y1505D02*
X732Y1505D01*
X1071Y1505D02*
X1096Y1505D01*
X707Y1504D02*
X732Y1504D01*
X1071Y1504D02*
X1096Y1504D01*
X707Y1503D02*
X732Y1503D01*
X1071Y1503D02*
X1096Y1503D01*
X707Y1502D02*
X732Y1502D01*
X1071Y1502D02*
X1096Y1502D01*
X707Y1501D02*
X732Y1501D01*
X1071Y1501D02*
X1096Y1501D01*
X707Y1500D02*
X732Y1500D01*
X1071Y1500D02*
X1096Y1500D01*
X707Y1499D02*
X732Y1499D01*
X1071Y1499D02*
X1096Y1499D01*
X707Y1498D02*
X732Y1498D01*
X1071Y1498D02*
X1096Y1498D01*
X707Y1497D02*
X732Y1497D01*
X1071Y1497D02*
X1096Y1497D01*
X707Y1496D02*
X732Y1496D01*
X1071Y1496D02*
X1096Y1496D01*
X707Y1495D02*
X732Y1495D01*
X1071Y1495D02*
X1096Y1495D01*
X707Y1494D02*
X732Y1494D01*
X1071Y1494D02*
X1096Y1494D01*
X707Y1493D02*
X732Y1493D01*
X1071Y1493D02*
X1096Y1493D01*
X707Y1492D02*
X732Y1492D01*
X1071Y1492D02*
X1096Y1492D01*
X707Y1491D02*
X732Y1491D01*
X1071Y1491D02*
X1096Y1491D01*
X707Y1490D02*
X732Y1490D01*
X1071Y1490D02*
X1096Y1490D01*
X707Y1489D02*
X732Y1489D01*
X1071Y1489D02*
X1096Y1489D01*
X707Y1488D02*
X732Y1488D01*
X1071Y1488D02*
X1096Y1488D01*
X707Y1487D02*
X732Y1487D01*
X1071Y1487D02*
X1096Y1487D01*
X707Y1486D02*
X732Y1486D01*
X1071Y1486D02*
X1096Y1486D01*
X707Y1485D02*
X732Y1485D01*
X1071Y1485D02*
X1096Y1485D01*
X707Y1484D02*
X732Y1484D01*
X1071Y1484D02*
X1096Y1484D01*
X707Y1483D02*
X732Y1483D01*
X1071Y1483D02*
X1096Y1483D01*
X707Y1482D02*
X732Y1482D01*
X1071Y1482D02*
X1096Y1482D01*
X707Y1481D02*
X732Y1481D01*
X1071Y1481D02*
X1096Y1481D01*
X707Y1480D02*
X732Y1480D01*
X1071Y1480D02*
X1096Y1480D01*
X707Y1479D02*
X732Y1479D01*
X1071Y1479D02*
X1096Y1479D01*
X707Y1478D02*
X732Y1478D01*
X1071Y1478D02*
X1096Y1478D01*
X707Y1477D02*
X732Y1477D01*
X1071Y1477D02*
X1096Y1477D01*
X707Y1476D02*
X732Y1476D01*
X1071Y1476D02*
X1096Y1476D01*
X707Y1475D02*
X732Y1475D01*
X1071Y1475D02*
X1096Y1475D01*
X707Y1474D02*
X732Y1474D01*
X1071Y1474D02*
X1096Y1474D01*
X707Y1473D02*
X732Y1473D01*
X1071Y1473D02*
X1096Y1473D01*
X707Y1472D02*
X732Y1472D01*
X1071Y1472D02*
X1096Y1472D01*
X707Y1471D02*
X732Y1471D01*
X1071Y1471D02*
X1096Y1471D01*
X707Y1470D02*
X732Y1470D01*
X1071Y1470D02*
X1096Y1470D01*
X707Y1469D02*
X732Y1469D01*
X1071Y1469D02*
X1096Y1469D01*
X707Y1468D02*
X732Y1468D01*
X1071Y1468D02*
X1096Y1468D01*
X707Y1467D02*
X732Y1467D01*
X1071Y1467D02*
X1096Y1467D01*
X707Y1466D02*
X732Y1466D01*
X1071Y1466D02*
X1096Y1466D01*
X707Y1465D02*
X732Y1465D01*
X1071Y1465D02*
X1096Y1465D01*
X707Y1464D02*
X732Y1464D01*
X1071Y1464D02*
X1096Y1464D01*
X707Y1463D02*
X732Y1463D01*
X1071Y1463D02*
X1096Y1463D01*
X707Y1462D02*
X732Y1462D01*
X1071Y1462D02*
X1096Y1462D01*
X707Y1461D02*
X732Y1461D01*
X1071Y1461D02*
X1096Y1461D01*
X707Y1460D02*
X732Y1460D01*
X1071Y1460D02*
X1096Y1460D01*
X707Y1459D02*
X732Y1459D01*
X1071Y1459D02*
X1096Y1459D01*
X707Y1458D02*
X732Y1458D01*
X1071Y1458D02*
X1096Y1458D01*
X707Y1457D02*
X732Y1457D01*
X1071Y1457D02*
X1096Y1457D01*
X707Y1456D02*
X732Y1456D01*
X1071Y1456D02*
X1096Y1456D01*
X707Y1455D02*
X732Y1455D01*
X1071Y1455D02*
X1096Y1455D01*
X707Y1454D02*
X732Y1454D01*
X1071Y1454D02*
X1096Y1454D01*
X707Y1453D02*
X732Y1453D01*
X1071Y1453D02*
X1096Y1453D01*
X707Y1452D02*
X732Y1452D01*
X1071Y1452D02*
X1096Y1452D01*
X707Y1451D02*
X732Y1451D01*
X1071Y1451D02*
X1096Y1451D01*
X707Y1450D02*
X732Y1450D01*
X1071Y1450D02*
X1096Y1450D01*
X707Y1449D02*
X732Y1449D01*
X1071Y1449D02*
X1096Y1449D01*
X707Y1448D02*
X732Y1448D01*
X1071Y1448D02*
X1096Y1448D01*
X707Y1447D02*
X732Y1447D01*
X1071Y1447D02*
X1096Y1447D01*
X707Y1446D02*
X732Y1446D01*
X1071Y1446D02*
X1096Y1446D01*
X707Y1445D02*
X732Y1445D01*
X1071Y1445D02*
X1096Y1445D01*
X707Y1444D02*
X732Y1444D01*
X1071Y1444D02*
X1096Y1444D01*
X707Y1443D02*
X732Y1443D01*
X1071Y1443D02*
X1096Y1443D01*
X707Y1442D02*
X732Y1442D01*
X1071Y1442D02*
X1096Y1442D01*
X707Y1441D02*
X732Y1441D01*
X1071Y1441D02*
X1096Y1441D01*
X707Y1440D02*
X732Y1440D01*
X1071Y1440D02*
X1096Y1440D01*
X707Y1439D02*
X732Y1439D01*
X1071Y1439D02*
X1096Y1439D01*
X707Y1438D02*
X732Y1438D01*
X1071Y1438D02*
X1096Y1438D01*
X707Y1437D02*
X732Y1437D01*
X1071Y1437D02*
X1096Y1437D01*
X707Y1436D02*
X732Y1436D01*
X1071Y1436D02*
X1096Y1436D01*
X707Y1435D02*
X732Y1435D01*
X1071Y1435D02*
X1096Y1435D01*
X707Y1434D02*
X732Y1434D01*
X1071Y1434D02*
X1096Y1434D01*
X707Y1433D02*
X732Y1433D01*
X1071Y1433D02*
X1096Y1433D01*
X707Y1432D02*
X732Y1432D01*
X1071Y1432D02*
X1096Y1432D01*
X707Y1431D02*
X732Y1431D01*
X1071Y1431D02*
X1096Y1431D01*
X707Y1430D02*
X732Y1430D01*
X1071Y1430D02*
X1096Y1430D01*
X707Y1429D02*
X732Y1429D01*
X1071Y1429D02*
X1096Y1429D01*
X707Y1428D02*
X732Y1428D01*
X1071Y1428D02*
X1096Y1428D01*
X707Y1427D02*
X732Y1427D01*
X1071Y1427D02*
X1096Y1427D01*
X707Y1426D02*
X732Y1426D01*
X1071Y1426D02*
X1096Y1426D01*
X707Y1425D02*
X732Y1425D01*
X1071Y1425D02*
X1096Y1425D01*
X707Y1424D02*
X732Y1424D01*
X1071Y1424D02*
X1096Y1424D01*
X707Y1423D02*
X732Y1423D01*
X1071Y1423D02*
X1096Y1423D01*
X707Y1422D02*
X732Y1422D01*
X1071Y1422D02*
X1096Y1422D01*
X707Y1421D02*
X732Y1421D01*
X1071Y1421D02*
X1096Y1421D01*
X707Y1420D02*
X732Y1420D01*
X1071Y1420D02*
X1096Y1420D01*
X707Y1419D02*
X732Y1419D01*
X1071Y1419D02*
X1096Y1419D01*
X707Y1418D02*
X732Y1418D01*
X1071Y1418D02*
X1096Y1418D01*
X707Y1417D02*
X732Y1417D01*
X1071Y1417D02*
X1096Y1417D01*
X707Y1416D02*
X732Y1416D01*
X1071Y1416D02*
X1096Y1416D01*
X707Y1415D02*
X732Y1415D01*
X1071Y1415D02*
X1096Y1415D01*
X707Y1414D02*
X732Y1414D01*
X1071Y1414D02*
X1096Y1414D01*
X707Y1413D02*
X732Y1413D01*
X1071Y1413D02*
X1096Y1413D01*
X707Y1412D02*
X732Y1412D01*
X1071Y1412D02*
X1096Y1412D01*
X707Y1411D02*
X732Y1411D01*
X1071Y1411D02*
X1096Y1411D01*
X707Y1410D02*
X732Y1410D01*
X1071Y1410D02*
X1096Y1410D01*
X707Y1409D02*
X732Y1409D01*
X1071Y1409D02*
X1096Y1409D01*
X707Y1408D02*
X732Y1408D01*
X1071Y1408D02*
X1096Y1408D01*
X707Y1407D02*
X732Y1407D01*
X1071Y1407D02*
X1096Y1407D01*
X707Y1406D02*
X732Y1406D01*
X1071Y1406D02*
X1096Y1406D01*
X707Y1405D02*
X732Y1405D01*
X1071Y1405D02*
X1096Y1405D01*
X707Y1404D02*
X732Y1404D01*
X1071Y1404D02*
X1096Y1404D01*
X707Y1403D02*
X732Y1403D01*
X1071Y1403D02*
X1096Y1403D01*
X707Y1402D02*
X732Y1402D01*
X1071Y1402D02*
X1096Y1402D01*
X707Y1401D02*
X732Y1401D01*
X1071Y1401D02*
X1096Y1401D01*
X707Y1400D02*
X732Y1400D01*
X1071Y1400D02*
X1096Y1400D01*
X707Y1399D02*
X732Y1399D01*
X1071Y1399D02*
X1096Y1399D01*
X707Y1398D02*
X732Y1398D01*
X1071Y1398D02*
X1096Y1398D01*
X707Y1397D02*
X732Y1397D01*
X1071Y1397D02*
X1096Y1397D01*
X707Y1396D02*
X732Y1396D01*
X1071Y1396D02*
X1096Y1396D01*
X707Y1395D02*
X732Y1395D01*
X1071Y1395D02*
X1096Y1395D01*
X707Y1394D02*
X732Y1394D01*
X1071Y1394D02*
X1096Y1394D01*
X707Y1393D02*
X732Y1393D01*
X1071Y1393D02*
X1096Y1393D01*
X707Y1392D02*
X732Y1392D01*
X1071Y1392D02*
X1096Y1392D01*
X707Y1391D02*
X732Y1391D01*
X1071Y1391D02*
X1096Y1391D01*
X707Y1390D02*
X822Y1390D01*
X984Y1390D02*
X1096Y1390D01*
X707Y1389D02*
X825Y1389D01*
X981Y1389D02*
X1096Y1389D01*
X707Y1388D02*
X827Y1388D01*
X979Y1388D02*
X1096Y1388D01*
X707Y1387D02*
X828Y1387D01*
X978Y1387D02*
X1096Y1387D01*
X707Y1386D02*
X830Y1386D01*
X977Y1386D02*
X1096Y1386D01*
X707Y1385D02*
X830Y1385D01*
X976Y1385D02*
X1096Y1385D01*
X707Y1384D02*
X831Y1384D01*
X975Y1384D02*
X1096Y1384D01*
X707Y1383D02*
X832Y1383D01*
X975Y1383D02*
X1096Y1383D01*
X707Y1382D02*
X832Y1382D01*
X974Y1382D02*
X1096Y1382D01*
X707Y1381D02*
X832Y1381D01*
X974Y1381D02*
X1096Y1381D01*
X707Y1380D02*
X833Y1380D01*
X974Y1380D02*
X1096Y1380D01*
X707Y1379D02*
X833Y1379D01*
X974Y1379D02*
X1096Y1379D01*
X707Y1378D02*
X833Y1378D01*
X973Y1378D02*
X1096Y1378D01*
X707Y1377D02*
X833Y1377D01*
X973Y1377D02*
X1096Y1377D01*
X708Y1376D02*
X833Y1376D01*
X973Y1376D02*
X1095Y1376D01*
X708Y1375D02*
X833Y1375D01*
X973Y1375D02*
X1095Y1375D01*
X708Y1374D02*
X833Y1374D01*
X973Y1374D02*
X1095Y1374D01*
X708Y1373D02*
X833Y1373D01*
X973Y1373D02*
X1095Y1373D01*
X709Y1372D02*
X833Y1372D01*
X973Y1372D02*
X1094Y1372D01*
X709Y1371D02*
X833Y1371D01*
X973Y1371D02*
X1094Y1371D01*
X710Y1370D02*
X833Y1370D01*
X973Y1370D02*
X1093Y1370D01*
X711Y1369D02*
X833Y1369D01*
X973Y1369D02*
X1092Y1369D01*
X712Y1368D02*
X833Y1368D01*
X973Y1368D02*
X1091Y1368D01*
X713Y1367D02*
X833Y1367D01*
X973Y1367D02*
X1090Y1367D01*
X715Y1366D02*
X833Y1366D01*
X973Y1366D02*
X1088Y1366D01*
X719Y1365D02*
X833Y1365D01*
X973Y1365D02*
X1084Y1365D01*
X809Y1364D02*
X833Y1364D01*
X973Y1364D02*
X998Y1364D01*
X809Y1363D02*
X833Y1363D01*
X973Y1363D02*
X998Y1363D01*
X809Y1362D02*
X833Y1362D01*
X973Y1362D02*
X998Y1362D01*
X809Y1361D02*
X833Y1361D01*
X973Y1361D02*
X998Y1361D01*
X809Y1360D02*
X833Y1360D01*
X973Y1360D02*
X998Y1360D01*
X809Y1359D02*
X833Y1359D01*
X973Y1359D02*
X998Y1359D01*
X809Y1358D02*
X833Y1358D01*
X973Y1358D02*
X998Y1358D01*
X809Y1357D02*
X833Y1357D01*
X973Y1357D02*
X998Y1357D01*
X809Y1356D02*
X833Y1356D01*
X973Y1356D02*
X998Y1356D01*
X809Y1355D02*
X833Y1355D01*
X973Y1355D02*
X998Y1355D01*
X809Y1354D02*
X833Y1354D01*
X973Y1354D02*
X998Y1354D01*
X809Y1353D02*
X833Y1353D01*
X973Y1353D02*
X998Y1353D01*
X809Y1352D02*
X833Y1352D01*
X973Y1352D02*
X998Y1352D01*
X809Y1351D02*
X833Y1351D01*
X973Y1351D02*
X998Y1351D01*
X809Y1350D02*
X833Y1350D01*
X973Y1350D02*
X998Y1350D01*
X809Y1349D02*
X833Y1349D01*
X973Y1349D02*
X998Y1349D01*
X809Y1348D02*
X833Y1348D01*
X973Y1348D02*
X998Y1348D01*
X809Y1347D02*
X833Y1347D01*
X973Y1347D02*
X998Y1347D01*
X809Y1346D02*
X833Y1346D01*
X973Y1346D02*
X998Y1346D01*
X809Y1345D02*
X833Y1345D01*
X973Y1345D02*
X998Y1345D01*
X809Y1344D02*
X833Y1344D01*
X973Y1344D02*
X998Y1344D01*
X809Y1343D02*
X833Y1343D01*
X973Y1343D02*
X998Y1343D01*
X809Y1342D02*
X833Y1342D01*
X973Y1342D02*
X998Y1342D01*
X809Y1341D02*
X833Y1341D01*
X973Y1341D02*
X998Y1341D01*
X809Y1340D02*
X833Y1340D01*
X973Y1340D02*
X998Y1340D01*
X809Y1339D02*
X833Y1339D01*
X973Y1339D02*
X998Y1339D01*
X809Y1338D02*
X833Y1338D01*
X973Y1338D02*
X998Y1338D01*
X809Y1337D02*
X833Y1337D01*
X973Y1337D02*
X998Y1337D01*
X809Y1336D02*
X833Y1336D01*
X973Y1336D02*
X998Y1336D01*
X809Y1335D02*
X833Y1335D01*
X973Y1335D02*
X998Y1335D01*
X809Y1334D02*
X833Y1334D01*
X973Y1334D02*
X998Y1334D01*
X809Y1333D02*
X833Y1333D01*
X973Y1333D02*
X998Y1333D01*
X809Y1332D02*
X833Y1332D01*
X973Y1332D02*
X998Y1332D01*
X809Y1331D02*
X833Y1331D01*
X973Y1331D02*
X998Y1331D01*
X809Y1330D02*
X833Y1330D01*
X973Y1330D02*
X998Y1330D01*
X809Y1329D02*
X833Y1329D01*
X973Y1329D02*
X998Y1329D01*
X809Y1328D02*
X833Y1328D01*
X973Y1328D02*
X998Y1328D01*
X809Y1327D02*
X833Y1327D01*
X973Y1327D02*
X998Y1327D01*
X809Y1326D02*
X833Y1326D01*
X973Y1326D02*
X998Y1326D01*
X809Y1325D02*
X833Y1325D01*
X973Y1325D02*
X998Y1325D01*
X809Y1324D02*
X833Y1324D01*
X973Y1324D02*
X998Y1324D01*
X809Y1323D02*
X833Y1323D01*
X973Y1323D02*
X998Y1323D01*
X809Y1322D02*
X833Y1322D01*
X973Y1322D02*
X998Y1322D01*
X809Y1321D02*
X833Y1321D01*
X973Y1321D02*
X998Y1321D01*
X809Y1320D02*
X833Y1320D01*
X973Y1320D02*
X998Y1320D01*
X809Y1319D02*
X833Y1319D01*
X973Y1319D02*
X998Y1319D01*
X809Y1318D02*
X833Y1318D01*
X973Y1318D02*
X998Y1318D01*
X809Y1317D02*
X833Y1317D01*
X973Y1317D02*
X998Y1317D01*
X809Y1316D02*
X833Y1316D01*
X973Y1316D02*
X998Y1316D01*
X809Y1315D02*
X833Y1315D01*
X973Y1315D02*
X998Y1315D01*
X809Y1314D02*
X833Y1314D01*
X973Y1314D02*
X998Y1314D01*
X809Y1313D02*
X833Y1313D01*
X973Y1313D02*
X998Y1313D01*
X809Y1312D02*
X833Y1312D01*
X973Y1312D02*
X998Y1312D01*
X809Y1311D02*
X833Y1311D01*
X973Y1311D02*
X998Y1311D01*
X809Y1310D02*
X833Y1310D01*
X973Y1310D02*
X998Y1310D01*
X809Y1309D02*
X833Y1309D01*
X973Y1309D02*
X998Y1309D01*
X809Y1308D02*
X833Y1308D01*
X973Y1308D02*
X998Y1308D01*
X809Y1307D02*
X833Y1307D01*
X973Y1307D02*
X998Y1307D01*
X809Y1306D02*
X833Y1306D01*
X973Y1306D02*
X998Y1306D01*
X809Y1305D02*
X833Y1305D01*
X973Y1305D02*
X998Y1305D01*
X809Y1304D02*
X833Y1304D01*
X973Y1304D02*
X998Y1304D01*
X809Y1303D02*
X833Y1303D01*
X973Y1303D02*
X998Y1303D01*
X809Y1302D02*
X833Y1302D01*
X973Y1302D02*
X998Y1302D01*
X809Y1301D02*
X833Y1301D01*
X973Y1301D02*
X998Y1301D01*
X809Y1300D02*
X833Y1300D01*
X973Y1300D02*
X998Y1300D01*
X809Y1299D02*
X833Y1299D01*
X973Y1299D02*
X998Y1299D01*
X809Y1298D02*
X833Y1298D01*
X973Y1298D02*
X998Y1298D01*
X809Y1297D02*
X833Y1297D01*
X973Y1297D02*
X998Y1297D01*
X809Y1296D02*
X833Y1296D01*
X973Y1296D02*
X998Y1296D01*
X809Y1295D02*
X833Y1295D01*
X973Y1295D02*
X998Y1295D01*
X809Y1294D02*
X833Y1294D01*
X973Y1294D02*
X998Y1294D01*
X809Y1293D02*
X833Y1293D01*
X973Y1293D02*
X998Y1293D01*
X809Y1292D02*
X833Y1292D01*
X973Y1292D02*
X998Y1292D01*
X809Y1291D02*
X833Y1291D01*
X973Y1291D02*
X998Y1291D01*
X809Y1290D02*
X833Y1290D01*
X973Y1290D02*
X998Y1290D01*
X809Y1289D02*
X833Y1289D01*
X973Y1289D02*
X998Y1289D01*
X809Y1288D02*
X833Y1288D01*
X973Y1288D02*
X998Y1288D01*
X809Y1287D02*
X833Y1287D01*
X973Y1287D02*
X998Y1287D01*
X809Y1286D02*
X833Y1286D01*
X973Y1286D02*
X998Y1286D01*
X809Y1285D02*
X833Y1285D01*
X973Y1285D02*
X998Y1285D01*
X809Y1284D02*
X833Y1284D01*
X973Y1284D02*
X998Y1284D01*
X809Y1283D02*
X833Y1283D01*
X973Y1283D02*
X998Y1283D01*
X809Y1282D02*
X833Y1282D01*
X973Y1282D02*
X998Y1282D01*
X809Y1281D02*
X833Y1281D01*
X973Y1281D02*
X998Y1281D01*
X809Y1280D02*
X833Y1280D01*
X973Y1280D02*
X998Y1280D01*
X809Y1279D02*
X833Y1279D01*
X973Y1279D02*
X998Y1279D01*
X809Y1278D02*
X833Y1278D01*
X973Y1278D02*
X998Y1278D01*
X809Y1277D02*
X833Y1277D01*
X973Y1277D02*
X998Y1277D01*
X809Y1276D02*
X833Y1276D01*
X973Y1276D02*
X998Y1276D01*
X809Y1275D02*
X833Y1275D01*
X973Y1275D02*
X998Y1275D01*
X809Y1274D02*
X833Y1274D01*
X973Y1274D02*
X998Y1274D01*
X809Y1273D02*
X833Y1273D01*
X973Y1273D02*
X998Y1273D01*
X809Y1272D02*
X833Y1272D01*
X973Y1272D02*
X998Y1272D01*
X809Y1271D02*
X833Y1271D01*
X973Y1271D02*
X998Y1271D01*
X809Y1270D02*
X833Y1270D01*
X973Y1270D02*
X998Y1270D01*
X809Y1269D02*
X833Y1269D01*
X973Y1269D02*
X998Y1269D01*
X809Y1268D02*
X833Y1268D01*
X973Y1268D02*
X998Y1268D01*
X809Y1267D02*
X833Y1267D01*
X973Y1267D02*
X998Y1267D01*
X809Y1266D02*
X833Y1266D01*
X973Y1266D02*
X998Y1266D01*
X809Y1265D02*
X833Y1265D01*
X973Y1265D02*
X998Y1265D01*
X809Y1264D02*
X833Y1264D01*
X973Y1264D02*
X998Y1264D01*
X809Y1263D02*
X833Y1263D01*
X973Y1263D02*
X998Y1263D01*
X809Y1262D02*
X833Y1262D01*
X973Y1262D02*
X998Y1262D01*
X1Y1261D02*
X833Y1261D01*
X973Y1261D02*
X1772Y1261D01*
X1Y1260D02*
X833Y1260D01*
X973Y1260D02*
X1772Y1260D01*
X1Y1259D02*
X833Y1259D01*
X973Y1259D02*
X1772Y1259D01*
X1Y1258D02*
X833Y1258D01*
X973Y1258D02*
X1772Y1258D01*
X1Y1257D02*
X833Y1257D01*
X973Y1257D02*
X1772Y1257D01*
X1Y1256D02*
X833Y1256D01*
X973Y1256D02*
X1772Y1256D01*
X1Y1255D02*
X833Y1255D01*
X973Y1255D02*
X1772Y1255D01*
X1Y1254D02*
X833Y1254D01*
X973Y1254D02*
X1772Y1254D01*
X1Y1253D02*
X833Y1253D01*
X973Y1253D02*
X1772Y1253D01*
X1Y1252D02*
X833Y1252D01*
X973Y1252D02*
X1772Y1252D01*
X1Y1251D02*
X833Y1251D01*
X973Y1251D02*
X1772Y1251D01*
X1Y1250D02*
X833Y1250D01*
X973Y1250D02*
X1772Y1250D01*
X1Y1249D02*
X833Y1249D01*
X973Y1249D02*
X1772Y1249D01*
X1Y1248D02*
X833Y1248D01*
X973Y1248D02*
X1772Y1248D01*
X1Y1247D02*
X833Y1247D01*
X973Y1247D02*
X1772Y1247D01*
X1Y1246D02*
X833Y1246D01*
X973Y1246D02*
X1772Y1246D01*
X1Y1245D02*
X833Y1245D01*
X973Y1245D02*
X1772Y1245D01*
X1Y1244D02*
X833Y1244D01*
X973Y1244D02*
X1772Y1244D01*
X1Y1243D02*
X833Y1243D01*
X973Y1243D02*
X1772Y1243D01*
X1Y1242D02*
X833Y1242D01*
X973Y1242D02*
X1772Y1242D01*
X1Y1241D02*
X833Y1241D01*
X973Y1241D02*
X1772Y1241D01*
X1Y1240D02*
X833Y1240D01*
X973Y1240D02*
X1772Y1240D01*
X1Y1239D02*
X833Y1239D01*
X973Y1239D02*
X1772Y1239D01*
X1Y1238D02*
X833Y1238D01*
X973Y1238D02*
X1772Y1238D01*
X1Y1237D02*
X833Y1237D01*
X973Y1237D02*
X1772Y1237D01*
X808Y1236D02*
X833Y1236D01*
X973Y1236D02*
X998Y1236D01*
X808Y1235D02*
X833Y1235D01*
X973Y1235D02*
X998Y1235D01*
X808Y1234D02*
X833Y1234D01*
X973Y1234D02*
X998Y1234D01*
X808Y1233D02*
X833Y1233D01*
X973Y1233D02*
X998Y1233D01*
X808Y1232D02*
X833Y1232D01*
X973Y1232D02*
X998Y1232D01*
X808Y1231D02*
X833Y1231D01*
X973Y1231D02*
X998Y1231D01*
X808Y1230D02*
X833Y1230D01*
X973Y1230D02*
X998Y1230D01*
X808Y1229D02*
X833Y1229D01*
X973Y1229D02*
X998Y1229D01*
X808Y1228D02*
X833Y1228D01*
X973Y1228D02*
X998Y1228D01*
X808Y1227D02*
X833Y1227D01*
X973Y1227D02*
X998Y1227D01*
X808Y1226D02*
X833Y1226D01*
X973Y1226D02*
X998Y1226D01*
X808Y1225D02*
X833Y1225D01*
X973Y1225D02*
X998Y1225D01*
X808Y1224D02*
X833Y1224D01*
X973Y1224D02*
X998Y1224D01*
X808Y1223D02*
X833Y1223D01*
X973Y1223D02*
X998Y1223D01*
X808Y1222D02*
X833Y1222D01*
X973Y1222D02*
X998Y1222D01*
X808Y1221D02*
X833Y1221D01*
X973Y1221D02*
X998Y1221D01*
X808Y1220D02*
X833Y1220D01*
X973Y1220D02*
X998Y1220D01*
X808Y1219D02*
X833Y1219D01*
X973Y1219D02*
X998Y1219D01*
X808Y1218D02*
X833Y1218D01*
X973Y1218D02*
X998Y1218D01*
X808Y1217D02*
X833Y1217D01*
X973Y1217D02*
X998Y1217D01*
X808Y1216D02*
X833Y1216D01*
X973Y1216D02*
X998Y1216D01*
X808Y1215D02*
X833Y1215D01*
X973Y1215D02*
X998Y1215D01*
X808Y1214D02*
X833Y1214D01*
X973Y1214D02*
X998Y1214D01*
X808Y1213D02*
X833Y1213D01*
X973Y1213D02*
X998Y1213D01*
X808Y1212D02*
X833Y1212D01*
X973Y1212D02*
X998Y1212D01*
X808Y1211D02*
X833Y1211D01*
X973Y1211D02*
X998Y1211D01*
X808Y1210D02*
X833Y1210D01*
X973Y1210D02*
X998Y1210D01*
X808Y1209D02*
X833Y1209D01*
X973Y1209D02*
X998Y1209D01*
X808Y1208D02*
X833Y1208D01*
X973Y1208D02*
X998Y1208D01*
X808Y1207D02*
X833Y1207D01*
X973Y1207D02*
X998Y1207D01*
X808Y1206D02*
X833Y1206D01*
X973Y1206D02*
X998Y1206D01*
X808Y1205D02*
X833Y1205D01*
X973Y1205D02*
X998Y1205D01*
X808Y1204D02*
X833Y1204D01*
X973Y1204D02*
X998Y1204D01*
X808Y1203D02*
X833Y1203D01*
X973Y1203D02*
X998Y1203D01*
X808Y1202D02*
X833Y1202D01*
X973Y1202D02*
X998Y1202D01*
X808Y1201D02*
X833Y1201D01*
X973Y1201D02*
X998Y1201D01*
X808Y1200D02*
X833Y1200D01*
X973Y1200D02*
X998Y1200D01*
X808Y1199D02*
X833Y1199D01*
X973Y1199D02*
X998Y1199D01*
X808Y1198D02*
X833Y1198D01*
X973Y1198D02*
X998Y1198D01*
X808Y1197D02*
X833Y1197D01*
X973Y1197D02*
X998Y1197D01*
X808Y1196D02*
X833Y1196D01*
X973Y1196D02*
X998Y1196D01*
X808Y1195D02*
X833Y1195D01*
X973Y1195D02*
X998Y1195D01*
X808Y1194D02*
X833Y1194D01*
X973Y1194D02*
X998Y1194D01*
X808Y1193D02*
X833Y1193D01*
X973Y1193D02*
X998Y1193D01*
X808Y1192D02*
X833Y1192D01*
X973Y1192D02*
X998Y1192D01*
X808Y1191D02*
X833Y1191D01*
X973Y1191D02*
X998Y1191D01*
X808Y1190D02*
X833Y1190D01*
X973Y1190D02*
X998Y1190D01*
X808Y1189D02*
X833Y1189D01*
X973Y1189D02*
X998Y1189D01*
X808Y1188D02*
X833Y1188D01*
X973Y1188D02*
X998Y1188D01*
X808Y1187D02*
X833Y1187D01*
X973Y1187D02*
X998Y1187D01*
X808Y1186D02*
X833Y1186D01*
X973Y1186D02*
X998Y1186D01*
X808Y1185D02*
X833Y1185D01*
X973Y1185D02*
X998Y1185D01*
X808Y1184D02*
X833Y1184D01*
X973Y1184D02*
X998Y1184D01*
X808Y1183D02*
X833Y1183D01*
X973Y1183D02*
X998Y1183D01*
X808Y1182D02*
X833Y1182D01*
X973Y1182D02*
X998Y1182D01*
X808Y1181D02*
X833Y1181D01*
X973Y1181D02*
X998Y1181D01*
X808Y1180D02*
X833Y1180D01*
X973Y1180D02*
X998Y1180D01*
X808Y1179D02*
X833Y1179D01*
X973Y1179D02*
X998Y1179D01*
X808Y1178D02*
X833Y1178D01*
X973Y1178D02*
X998Y1178D01*
X808Y1177D02*
X833Y1177D01*
X973Y1177D02*
X998Y1177D01*
X808Y1176D02*
X833Y1176D01*
X973Y1176D02*
X998Y1176D01*
X808Y1175D02*
X833Y1175D01*
X973Y1175D02*
X998Y1175D01*
X808Y1174D02*
X833Y1174D01*
X973Y1174D02*
X998Y1174D01*
X808Y1173D02*
X833Y1173D01*
X973Y1173D02*
X998Y1173D01*
X808Y1172D02*
X833Y1172D01*
X973Y1172D02*
X998Y1172D01*
X806Y1171D02*
X833Y1171D01*
X973Y1171D02*
X998Y1171D01*
X803Y1170D02*
X833Y1170D01*
X973Y1170D02*
X1000Y1170D01*
X799Y1169D02*
X833Y1169D01*
X973Y1169D02*
X1004Y1169D01*
X796Y1168D02*
X833Y1168D01*
X973Y1168D02*
X1007Y1168D01*
X793Y1167D02*
X833Y1167D01*
X973Y1167D02*
X1010Y1167D01*
X790Y1166D02*
X833Y1166D01*
X973Y1166D02*
X1013Y1166D01*
X787Y1165D02*
X833Y1165D01*
X973Y1165D02*
X1016Y1165D01*
X784Y1164D02*
X833Y1164D01*
X973Y1164D02*
X1019Y1164D01*
X781Y1163D02*
X833Y1163D01*
X973Y1163D02*
X1022Y1163D01*
X779Y1162D02*
X833Y1162D01*
X973Y1162D02*
X1024Y1162D01*
X776Y1161D02*
X833Y1161D01*
X973Y1161D02*
X1027Y1161D01*
X774Y1160D02*
X833Y1160D01*
X973Y1160D02*
X1029Y1160D01*
X771Y1159D02*
X833Y1159D01*
X973Y1159D02*
X1032Y1159D01*
X768Y1158D02*
X833Y1158D01*
X973Y1158D02*
X1034Y1158D01*
X766Y1157D02*
X833Y1157D01*
X973Y1157D02*
X1037Y1157D01*
X764Y1156D02*
X833Y1156D01*
X973Y1156D02*
X1039Y1156D01*
X762Y1155D02*
X833Y1155D01*
X973Y1155D02*
X1041Y1155D01*
X759Y1154D02*
X833Y1154D01*
X973Y1154D02*
X1044Y1154D01*
X757Y1153D02*
X833Y1153D01*
X973Y1153D02*
X1046Y1153D01*
X755Y1152D02*
X833Y1152D01*
X973Y1152D02*
X1048Y1152D01*
X753Y1151D02*
X833Y1151D01*
X973Y1151D02*
X1050Y1151D01*
X751Y1150D02*
X833Y1150D01*
X973Y1150D02*
X1052Y1150D01*
X749Y1149D02*
X833Y1149D01*
X973Y1149D02*
X1054Y1149D01*
X747Y1148D02*
X833Y1148D01*
X973Y1148D02*
X1056Y1148D01*
X744Y1147D02*
X833Y1147D01*
X973Y1147D02*
X1058Y1147D01*
X742Y1146D02*
X833Y1146D01*
X973Y1146D02*
X1060Y1146D01*
X741Y1145D02*
X833Y1145D01*
X973Y1145D02*
X1062Y1145D01*
X739Y1144D02*
X833Y1144D01*
X973Y1144D02*
X1064Y1144D01*
X737Y1143D02*
X833Y1143D01*
X973Y1143D02*
X1066Y1143D01*
X735Y1142D02*
X833Y1142D01*
X898Y1142D02*
X905Y1142D01*
X973Y1142D02*
X1068Y1142D01*
X733Y1141D02*
X833Y1141D01*
X893Y1141D02*
X910Y1141D01*
X973Y1141D02*
X1070Y1141D01*
X731Y1140D02*
X833Y1140D01*
X890Y1140D02*
X913Y1140D01*
X973Y1140D02*
X1072Y1140D01*
X729Y1139D02*
X833Y1139D01*
X888Y1139D02*
X915Y1139D01*
X973Y1139D02*
X1073Y1139D01*
X728Y1138D02*
X833Y1138D01*
X886Y1138D02*
X917Y1138D01*
X973Y1138D02*
X1075Y1138D01*
X726Y1137D02*
X833Y1137D01*
X884Y1137D02*
X919Y1137D01*
X973Y1137D02*
X1077Y1137D01*
X724Y1136D02*
X833Y1136D01*
X883Y1136D02*
X920Y1136D01*
X973Y1136D02*
X1079Y1136D01*
X723Y1135D02*
X833Y1135D01*
X882Y1135D02*
X921Y1135D01*
X973Y1135D02*
X1080Y1135D01*
X721Y1134D02*
X833Y1134D01*
X881Y1134D02*
X922Y1134D01*
X973Y1134D02*
X1082Y1134D01*
X719Y1133D02*
X833Y1133D01*
X879Y1133D02*
X924Y1133D01*
X973Y1133D02*
X1083Y1133D01*
X718Y1132D02*
X833Y1132D01*
X878Y1132D02*
X925Y1132D01*
X973Y1132D02*
X1085Y1132D01*
X716Y1131D02*
X833Y1131D01*
X878Y1131D02*
X925Y1131D01*
X973Y1131D02*
X1087Y1131D01*
X715Y1130D02*
X833Y1130D01*
X877Y1130D02*
X926Y1130D01*
X973Y1130D02*
X1088Y1130D01*
X713Y1129D02*
X833Y1129D01*
X876Y1129D02*
X897Y1129D01*
X906Y1129D02*
X927Y1129D01*
X973Y1129D02*
X1090Y1129D01*
X711Y1128D02*
X833Y1128D01*
X875Y1128D02*
X893Y1128D01*
X910Y1128D02*
X928Y1128D01*
X973Y1128D02*
X1091Y1128D01*
X710Y1127D02*
X833Y1127D01*
X875Y1127D02*
X891Y1127D01*
X912Y1127D02*
X928Y1127D01*
X973Y1127D02*
X1093Y1127D01*
X708Y1126D02*
X833Y1126D01*
X874Y1126D02*
X890Y1126D01*
X913Y1126D02*
X929Y1126D01*
X973Y1126D02*
X1094Y1126D01*
X707Y1125D02*
X833Y1125D01*
X873Y1125D02*
X888Y1125D01*
X915Y1125D02*
X930Y1125D01*
X973Y1125D02*
X1096Y1125D01*
X705Y1124D02*
X833Y1124D01*
X873Y1124D02*
X887Y1124D01*
X916Y1124D02*
X930Y1124D01*
X973Y1124D02*
X1097Y1124D01*
X704Y1123D02*
X833Y1123D01*
X872Y1123D02*
X886Y1123D01*
X917Y1123D02*
X931Y1123D01*
X973Y1123D02*
X1099Y1123D01*
X703Y1122D02*
X833Y1122D01*
X872Y1122D02*
X886Y1122D01*
X917Y1122D02*
X931Y1122D01*
X973Y1122D02*
X1100Y1122D01*
X701Y1121D02*
X833Y1121D01*
X872Y1121D02*
X885Y1121D01*
X918Y1121D02*
X931Y1121D01*
X973Y1121D02*
X1102Y1121D01*
X700Y1120D02*
X833Y1120D01*
X871Y1120D02*
X884Y1120D01*
X919Y1120D02*
X932Y1120D01*
X973Y1120D02*
X1103Y1120D01*
X698Y1119D02*
X833Y1119D01*
X871Y1119D02*
X884Y1119D01*
X919Y1119D02*
X932Y1119D01*
X973Y1119D02*
X1105Y1119D01*
X697Y1118D02*
X833Y1118D01*
X871Y1118D02*
X883Y1118D01*
X920Y1118D02*
X932Y1118D01*
X973Y1118D02*
X1106Y1118D01*
X695Y1117D02*
X833Y1117D01*
X870Y1117D02*
X883Y1117D01*
X920Y1117D02*
X933Y1117D01*
X973Y1117D02*
X1107Y1117D01*
X694Y1116D02*
X833Y1116D01*
X870Y1116D02*
X882Y1116D01*
X921Y1116D02*
X933Y1116D01*
X973Y1116D02*
X1109Y1116D01*
X693Y1115D02*
X833Y1115D01*
X870Y1115D02*
X882Y1115D01*
X921Y1115D02*
X933Y1115D01*
X973Y1115D02*
X1110Y1115D01*
X691Y1114D02*
X833Y1114D01*
X870Y1114D02*
X882Y1114D01*
X921Y1114D02*
X933Y1114D01*
X973Y1114D02*
X1111Y1114D01*
X690Y1113D02*
X833Y1113D01*
X870Y1113D02*
X933Y1113D01*
X973Y1113D02*
X1113Y1113D01*
X689Y1112D02*
X833Y1112D01*
X870Y1112D02*
X933Y1112D01*
X973Y1112D02*
X1114Y1112D01*
X688Y1111D02*
X833Y1111D01*
X870Y1111D02*
X933Y1111D01*
X973Y1111D02*
X1115Y1111D01*
X686Y1110D02*
X833Y1110D01*
X870Y1110D02*
X933Y1110D01*
X973Y1110D02*
X1117Y1110D01*
X685Y1109D02*
X833Y1109D01*
X870Y1109D02*
X933Y1109D01*
X973Y1109D02*
X1118Y1109D01*
X684Y1108D02*
X833Y1108D01*
X870Y1108D02*
X933Y1108D01*
X973Y1108D02*
X1119Y1108D01*
X682Y1107D02*
X833Y1107D01*
X870Y1107D02*
X933Y1107D01*
X973Y1107D02*
X1120Y1107D01*
X681Y1106D02*
X833Y1106D01*
X870Y1106D02*
X882Y1106D01*
X921Y1106D02*
X933Y1106D01*
X973Y1106D02*
X1122Y1106D01*
X680Y1105D02*
X833Y1105D01*
X870Y1105D02*
X882Y1105D01*
X921Y1105D02*
X933Y1105D01*
X973Y1105D02*
X1123Y1105D01*
X679Y1104D02*
X833Y1104D01*
X870Y1104D02*
X882Y1104D01*
X921Y1104D02*
X933Y1104D01*
X973Y1104D02*
X1124Y1104D01*
X678Y1103D02*
X833Y1103D01*
X870Y1103D02*
X883Y1103D01*
X920Y1103D02*
X933Y1103D01*
X973Y1103D02*
X1125Y1103D01*
X676Y1102D02*
X833Y1102D01*
X871Y1102D02*
X883Y1102D01*
X920Y1102D02*
X932Y1102D01*
X973Y1102D02*
X1126Y1102D01*
X675Y1101D02*
X834Y1101D01*
X871Y1101D02*
X884Y1101D01*
X919Y1101D02*
X932Y1101D01*
X973Y1101D02*
X1128Y1101D01*
X674Y1100D02*
X834Y1100D01*
X871Y1100D02*
X884Y1100D01*
X919Y1100D02*
X932Y1100D01*
X972Y1100D02*
X1129Y1100D01*
X673Y1099D02*
X834Y1099D01*
X872Y1099D02*
X885Y1099D01*
X918Y1099D02*
X931Y1099D01*
X972Y1099D02*
X1130Y1099D01*
X672Y1098D02*
X834Y1098D01*
X872Y1098D02*
X885Y1098D01*
X918Y1098D02*
X931Y1098D01*
X972Y1098D02*
X1131Y1098D01*
X671Y1097D02*
X834Y1097D01*
X872Y1097D02*
X886Y1097D01*
X917Y1097D02*
X931Y1097D01*
X972Y1097D02*
X1132Y1097D01*
X670Y1096D02*
X834Y1096D01*
X873Y1096D02*
X887Y1096D01*
X916Y1096D02*
X930Y1096D01*
X972Y1096D02*
X1133Y1096D01*
X668Y1095D02*
X835Y1095D01*
X873Y1095D02*
X888Y1095D01*
X915Y1095D02*
X930Y1095D01*
X971Y1095D02*
X1134Y1095D01*
X667Y1094D02*
X835Y1094D01*
X874Y1094D02*
X890Y1094D01*
X913Y1094D02*
X929Y1094D01*
X971Y1094D02*
X1136Y1094D01*
X666Y1093D02*
X835Y1093D01*
X874Y1093D02*
X891Y1093D01*
X912Y1093D02*
X929Y1093D01*
X971Y1093D02*
X1137Y1093D01*
X665Y1092D02*
X835Y1092D01*
X875Y1092D02*
X893Y1092D01*
X910Y1092D02*
X928Y1092D01*
X971Y1092D02*
X1138Y1092D01*
X664Y1091D02*
X836Y1091D01*
X876Y1091D02*
X896Y1091D01*
X907Y1091D02*
X927Y1091D01*
X970Y1091D02*
X1139Y1091D01*
X663Y1090D02*
X836Y1090D01*
X877Y1090D02*
X926Y1090D01*
X970Y1090D02*
X1140Y1090D01*
X662Y1089D02*
X836Y1089D01*
X877Y1089D02*
X926Y1089D01*
X970Y1089D02*
X1141Y1089D01*
X661Y1088D02*
X837Y1088D01*
X878Y1088D02*
X925Y1088D01*
X969Y1088D02*
X1142Y1088D01*
X660Y1087D02*
X837Y1087D01*
X879Y1087D02*
X924Y1087D01*
X969Y1087D02*
X1143Y1087D01*
X659Y1086D02*
X837Y1086D01*
X880Y1086D02*
X923Y1086D01*
X969Y1086D02*
X1144Y1086D01*
X658Y1085D02*
X838Y1085D01*
X881Y1085D02*
X922Y1085D01*
X968Y1085D02*
X1145Y1085D01*
X657Y1084D02*
X838Y1084D01*
X883Y1084D02*
X920Y1084D01*
X968Y1084D02*
X1146Y1084D01*
X656Y1083D02*
X839Y1083D01*
X884Y1083D02*
X919Y1083D01*
X967Y1083D02*
X1147Y1083D01*
X655Y1082D02*
X839Y1082D01*
X886Y1082D02*
X917Y1082D01*
X967Y1082D02*
X1148Y1082D01*
X654Y1081D02*
X840Y1081D01*
X888Y1081D02*
X915Y1081D01*
X967Y1081D02*
X1149Y1081D01*
X653Y1080D02*
X840Y1080D01*
X890Y1080D02*
X913Y1080D01*
X966Y1080D02*
X1150Y1080D01*
X652Y1079D02*
X841Y1079D01*
X892Y1079D02*
X911Y1079D01*
X966Y1079D02*
X1151Y1079D01*
X651Y1078D02*
X841Y1078D01*
X897Y1078D02*
X906Y1078D01*
X965Y1078D02*
X1152Y1078D01*
X650Y1077D02*
X842Y1077D01*
X964Y1077D02*
X1153Y1077D01*
X649Y1076D02*
X842Y1076D01*
X964Y1076D02*
X1154Y1076D01*
X648Y1075D02*
X843Y1075D01*
X963Y1075D02*
X1155Y1075D01*
X647Y1074D02*
X844Y1074D01*
X963Y1074D02*
X1156Y1074D01*
X646Y1073D02*
X844Y1073D01*
X962Y1073D02*
X1157Y1073D01*
X645Y1072D02*
X845Y1072D01*
X961Y1072D02*
X1158Y1072D01*
X644Y1071D02*
X845Y1071D01*
X961Y1071D02*
X1159Y1071D01*
X643Y1070D02*
X846Y1070D01*
X960Y1070D02*
X1159Y1070D01*
X642Y1069D02*
X847Y1069D01*
X959Y1069D02*
X1160Y1069D01*
X642Y1068D02*
X848Y1068D01*
X958Y1068D02*
X1161Y1068D01*
X641Y1067D02*
X848Y1067D01*
X958Y1067D02*
X1162Y1067D01*
X640Y1066D02*
X849Y1066D01*
X957Y1066D02*
X1163Y1066D01*
X639Y1065D02*
X850Y1065D01*
X956Y1065D02*
X1164Y1065D01*
X638Y1064D02*
X851Y1064D01*
X955Y1064D02*
X1165Y1064D01*
X637Y1063D02*
X852Y1063D01*
X954Y1063D02*
X1166Y1063D01*
X636Y1062D02*
X853Y1062D01*
X953Y1062D02*
X1167Y1062D01*
X635Y1061D02*
X854Y1061D01*
X952Y1061D02*
X1167Y1061D01*
X635Y1060D02*
X855Y1060D01*
X951Y1060D02*
X1168Y1060D01*
X634Y1059D02*
X856Y1059D01*
X950Y1059D02*
X1169Y1059D01*
X633Y1058D02*
X857Y1058D01*
X949Y1058D02*
X1170Y1058D01*
X632Y1057D02*
X858Y1057D01*
X948Y1057D02*
X1171Y1057D01*
X631Y1056D02*
X860Y1056D01*
X946Y1056D02*
X1172Y1056D01*
X631Y1055D02*
X861Y1055D01*
X945Y1055D02*
X1172Y1055D01*
X630Y1054D02*
X862Y1054D01*
X944Y1054D02*
X1173Y1054D01*
X629Y1053D02*
X864Y1053D01*
X942Y1053D02*
X1174Y1053D01*
X628Y1052D02*
X865Y1052D01*
X941Y1052D02*
X1175Y1052D01*
X627Y1051D02*
X867Y1051D01*
X939Y1051D02*
X1176Y1051D01*
X627Y1050D02*
X869Y1050D01*
X937Y1050D02*
X1176Y1050D01*
X626Y1049D02*
X871Y1049D01*
X936Y1049D02*
X1177Y1049D01*
X625Y1048D02*
X873Y1048D01*
X933Y1048D02*
X1178Y1048D01*
X624Y1047D02*
X875Y1047D01*
X931Y1047D02*
X1179Y1047D01*
X624Y1046D02*
X877Y1046D01*
X929Y1046D02*
X1179Y1046D01*
X623Y1045D02*
X880Y1045D01*
X926Y1045D02*
X1180Y1045D01*
X622Y1044D02*
X883Y1044D01*
X923Y1044D02*
X1181Y1044D01*
X621Y1043D02*
X887Y1043D01*
X919Y1043D02*
X1182Y1043D01*
X621Y1042D02*
X893Y1042D01*
X914Y1042D02*
X1182Y1042D01*
X620Y1041D02*
X1183Y1041D01*
X619Y1040D02*
X1184Y1040D01*
X618Y1039D02*
X1185Y1039D01*
X618Y1038D02*
X1185Y1038D01*
X617Y1037D02*
X1186Y1037D01*
X616Y1036D02*
X1187Y1036D01*
X616Y1035D02*
X1187Y1035D01*
X615Y1034D02*
X1188Y1034D01*
X614Y1033D02*
X1189Y1033D01*
X614Y1032D02*
X1189Y1032D01*
X613Y1031D02*
X1190Y1031D01*
X612Y1030D02*
X1191Y1030D01*
X611Y1029D02*
X1191Y1029D01*
X611Y1028D02*
X1192Y1028D01*
X610Y1027D02*
X1193Y1027D01*
X609Y1026D02*
X1193Y1026D01*
X609Y1025D02*
X1194Y1025D01*
X608Y1024D02*
X1195Y1024D01*
X608Y1023D02*
X1195Y1023D01*
X607Y1022D02*
X1196Y1022D01*
X606Y1021D02*
X1197Y1021D01*
X606Y1020D02*
X1197Y1020D01*
X605Y1019D02*
X1198Y1019D01*
X604Y1018D02*
X1198Y1018D01*
X604Y1017D02*
X1199Y1017D01*
X603Y1016D02*
X1200Y1016D01*
X603Y1015D02*
X1200Y1015D01*
X602Y1014D02*
X1201Y1014D01*
X601Y1013D02*
X1202Y1013D01*
X601Y1012D02*
X1202Y1012D01*
X600Y1011D02*
X1203Y1011D01*
X600Y1010D02*
X1203Y1010D01*
X599Y1009D02*
X1204Y1009D01*
X599Y1008D02*
X1204Y1008D01*
X598Y1007D02*
X1205Y1007D01*
X597Y1006D02*
X1206Y1006D01*
X597Y1005D02*
X1206Y1005D01*
X596Y1004D02*
X1207Y1004D01*
X596Y1003D02*
X1207Y1003D01*
X595Y1002D02*
X1208Y1002D01*
X595Y1001D02*
X1208Y1001D01*
X594Y1000D02*
X1209Y1000D01*
X594Y999D02*
X1209Y999D01*
X593Y998D02*
X1210Y998D01*
X593Y997D02*
X1210Y997D01*
X592Y996D02*
X1211Y996D01*
X592Y995D02*
X1211Y995D01*
X591Y994D02*
X1212Y994D01*
X591Y993D02*
X1212Y993D01*
X590Y992D02*
X1213Y992D01*
X590Y991D02*
X1213Y991D01*
X589Y990D02*
X1214Y990D01*
X589Y989D02*
X1214Y989D01*
X588Y988D02*
X1215Y988D01*
X588Y987D02*
X1215Y987D01*
X587Y986D02*
X1216Y986D01*
X587Y985D02*
X1216Y985D01*
X586Y984D02*
X1217Y984D01*
X586Y983D02*
X1217Y983D01*
X585Y982D02*
X1218Y982D01*
X585Y981D02*
X1218Y981D01*
X584Y980D02*
X1219Y980D01*
X584Y979D02*
X1219Y979D01*
X583Y978D02*
X1220Y978D01*
X583Y977D02*
X1220Y977D01*
X583Y976D02*
X1220Y976D01*
X582Y975D02*
X1221Y975D01*
X582Y974D02*
X1221Y974D01*
X581Y973D02*
X1222Y973D01*
X581Y972D02*
X1222Y972D01*
X580Y971D02*
X1223Y971D01*
X580Y970D02*
X1223Y970D01*
X580Y969D02*
X1223Y969D01*
X579Y968D02*
X1224Y968D01*
X579Y967D02*
X1224Y967D01*
X578Y966D02*
X1225Y966D01*
X578Y965D02*
X1225Y965D01*
X578Y964D02*
X1225Y964D01*
X577Y963D02*
X1226Y963D01*
X577Y962D02*
X1226Y962D01*
X576Y961D02*
X1227Y961D01*
X576Y960D02*
X1227Y960D01*
X576Y959D02*
X1227Y959D01*
X575Y958D02*
X1228Y958D01*
X575Y957D02*
X893Y957D01*
X910Y957D02*
X1228Y957D01*
X575Y956D02*
X883Y956D01*
X920Y956D02*
X1229Y956D01*
X574Y955D02*
X877Y955D01*
X926Y955D02*
X1229Y955D01*
X574Y954D02*
X873Y954D01*
X930Y954D02*
X1229Y954D01*
X573Y953D02*
X869Y953D01*
X934Y953D02*
X1230Y953D01*
X573Y952D02*
X865Y952D01*
X938Y952D02*
X1230Y952D01*
X573Y951D02*
X862Y951D01*
X941Y951D02*
X1230Y951D01*
X572Y950D02*
X859Y950D01*
X944Y950D02*
X1231Y950D01*
X572Y949D02*
X857Y949D01*
X946Y949D02*
X1231Y949D01*
X572Y948D02*
X854Y948D01*
X949Y948D02*
X1231Y948D01*
X571Y947D02*
X852Y947D01*
X951Y947D02*
X1232Y947D01*
X571Y946D02*
X850Y946D01*
X953Y946D02*
X1232Y946D01*
X571Y945D02*
X848Y945D01*
X955Y945D02*
X1232Y945D01*
X570Y944D02*
X846Y944D01*
X957Y944D02*
X1233Y944D01*
X570Y943D02*
X844Y943D01*
X959Y943D02*
X1233Y943D01*
X570Y942D02*
X842Y942D01*
X961Y942D02*
X1233Y942D01*
X569Y941D02*
X840Y941D01*
X963Y941D02*
X1234Y941D01*
X569Y940D02*
X839Y940D01*
X964Y940D02*
X1234Y940D01*
X569Y939D02*
X837Y939D01*
X966Y939D02*
X1234Y939D01*
X569Y938D02*
X835Y938D01*
X968Y938D02*
X1235Y938D01*
X568Y937D02*
X834Y937D01*
X969Y937D02*
X1235Y937D01*
X568Y936D02*
X832Y936D01*
X971Y936D02*
X1235Y936D01*
X568Y935D02*
X831Y935D01*
X972Y935D02*
X1236Y935D01*
X567Y934D02*
X830Y934D01*
X973Y934D02*
X1236Y934D01*
X567Y933D02*
X828Y933D01*
X975Y933D02*
X1236Y933D01*
X567Y932D02*
X827Y932D01*
X976Y932D02*
X1236Y932D01*
X566Y931D02*
X826Y931D01*
X977Y931D02*
X1237Y931D01*
X566Y930D02*
X824Y930D01*
X979Y930D02*
X1237Y930D01*
X566Y929D02*
X823Y929D01*
X980Y929D02*
X1237Y929D01*
X566Y928D02*
X822Y928D01*
X981Y928D02*
X1237Y928D01*
X565Y927D02*
X821Y927D01*
X982Y927D02*
X1238Y927D01*
X565Y926D02*
X820Y926D01*
X983Y926D02*
X1238Y926D01*
X565Y925D02*
X819Y925D01*
X984Y925D02*
X1238Y925D01*
X565Y924D02*
X818Y924D01*
X985Y924D02*
X1239Y924D01*
X564Y923D02*
X817Y923D01*
X987Y923D02*
X1239Y923D01*
X564Y922D02*
X815Y922D01*
X988Y922D02*
X1239Y922D01*
X564Y921D02*
X814Y921D01*
X989Y921D02*
X1239Y921D01*
X564Y920D02*
X814Y920D01*
X989Y920D02*
X1240Y920D01*
X563Y919D02*
X813Y919D01*
X990Y919D02*
X1240Y919D01*
X563Y918D02*
X812Y918D01*
X991Y918D02*
X1240Y918D01*
X563Y917D02*
X811Y917D01*
X992Y917D02*
X1240Y917D01*
X563Y916D02*
X810Y916D01*
X993Y916D02*
X1241Y916D01*
X562Y915D02*
X809Y915D01*
X994Y915D02*
X1241Y915D01*
X562Y914D02*
X808Y914D01*
X995Y914D02*
X1241Y914D01*
X562Y913D02*
X807Y913D01*
X996Y913D02*
X1241Y913D01*
X562Y912D02*
X806Y912D01*
X997Y912D02*
X1241Y912D01*
X561Y911D02*
X806Y911D01*
X997Y911D02*
X1242Y911D01*
X561Y910D02*
X805Y910D01*
X998Y910D02*
X1242Y910D01*
X561Y909D02*
X804Y909D01*
X999Y909D02*
X1242Y909D01*
X561Y908D02*
X803Y908D01*
X1000Y908D02*
X1242Y908D01*
X561Y907D02*
X803Y907D01*
X1000Y907D02*
X1243Y907D01*
X560Y906D02*
X802Y906D01*
X1001Y906D02*
X1243Y906D01*
X560Y905D02*
X801Y905D01*
X1002Y905D02*
X1243Y905D01*
X560Y904D02*
X800Y904D01*
X1003Y904D02*
X1243Y904D01*
X560Y903D02*
X800Y903D01*
X1003Y903D02*
X1243Y903D01*
X560Y902D02*
X799Y902D01*
X1004Y902D02*
X1244Y902D01*
X559Y901D02*
X799Y901D01*
X1004Y901D02*
X1244Y901D01*
X559Y900D02*
X798Y900D01*
X1005Y900D02*
X1244Y900D01*
X559Y899D02*
X797Y899D01*
X1006Y899D02*
X1244Y899D01*
X559Y898D02*
X797Y898D01*
X1006Y898D02*
X1244Y898D01*
X559Y897D02*
X796Y897D01*
X1007Y897D02*
X1244Y897D01*
X559Y896D02*
X796Y896D01*
X1007Y896D02*
X1245Y896D01*
X558Y895D02*
X795Y895D01*
X1008Y895D02*
X1245Y895D01*
X558Y894D02*
X794Y894D01*
X1009Y894D02*
X1245Y894D01*
X558Y893D02*
X794Y893D01*
X1009Y893D02*
X1245Y893D01*
X558Y892D02*
X793Y892D01*
X1010Y892D02*
X1245Y892D01*
X558Y891D02*
X793Y891D01*
X1010Y891D02*
X1245Y891D01*
X558Y890D02*
X792Y890D01*
X1011Y890D02*
X1246Y890D01*
X557Y889D02*
X792Y889D01*
X1011Y889D02*
X1246Y889D01*
X557Y888D02*
X791Y888D01*
X1012Y888D02*
X1246Y888D01*
X557Y887D02*
X791Y887D01*
X1012Y887D02*
X1246Y887D01*
X557Y886D02*
X790Y886D01*
X1013Y886D02*
X1246Y886D01*
X557Y885D02*
X790Y885D01*
X1013Y885D02*
X1246Y885D01*
X557Y884D02*
X789Y884D01*
X1014Y884D02*
X1246Y884D01*
X557Y883D02*
X789Y883D01*
X1014Y883D02*
X1247Y883D01*
X556Y882D02*
X789Y882D01*
X1014Y882D02*
X1247Y882D01*
X556Y881D02*
X788Y881D01*
X1015Y881D02*
X1247Y881D01*
X556Y880D02*
X788Y880D01*
X1015Y880D02*
X1247Y880D01*
X556Y879D02*
X787Y879D01*
X1016Y879D02*
X1247Y879D01*
X556Y878D02*
X787Y878D01*
X1016Y878D02*
X1247Y878D01*
X556Y877D02*
X787Y877D01*
X1016Y877D02*
X1247Y877D01*
X556Y876D02*
X786Y876D01*
X1017Y876D02*
X1248Y876D01*
X556Y875D02*
X786Y875D01*
X1017Y875D02*
X1248Y875D01*
X555Y874D02*
X786Y874D01*
X1017Y874D02*
X1248Y874D01*
X555Y873D02*
X785Y873D01*
X1018Y873D02*
X1248Y873D01*
X555Y872D02*
X785Y872D01*
X1018Y872D02*
X1248Y872D01*
X555Y871D02*
X785Y871D01*
X1018Y871D02*
X1248Y871D01*
X555Y870D02*
X784Y870D01*
X1019Y870D02*
X1248Y870D01*
X555Y869D02*
X784Y869D01*
X1019Y869D02*
X1248Y869D01*
X555Y868D02*
X784Y868D01*
X1019Y868D02*
X1248Y868D01*
X555Y867D02*
X784Y867D01*
X1019Y867D02*
X1248Y867D01*
X555Y866D02*
X783Y866D01*
X1020Y866D02*
X1249Y866D01*
X555Y865D02*
X783Y865D01*
X1020Y865D02*
X1249Y865D01*
X555Y864D02*
X783Y864D01*
X1020Y864D02*
X1249Y864D01*
X554Y863D02*
X783Y863D01*
X1020Y863D02*
X1249Y863D01*
X554Y862D02*
X782Y862D01*
X1021Y862D02*
X1249Y862D01*
X554Y861D02*
X782Y861D01*
X1021Y861D02*
X1249Y861D01*
X554Y860D02*
X782Y860D01*
X1021Y860D02*
X1249Y860D01*
X554Y859D02*
X782Y859D01*
X1021Y859D02*
X1249Y859D01*
X554Y858D02*
X782Y858D01*
X1021Y858D02*
X1249Y858D01*
X554Y857D02*
X781Y857D01*
X1022Y857D02*
X1249Y857D01*
X554Y856D02*
X781Y856D01*
X1022Y856D02*
X1249Y856D01*
X554Y855D02*
X781Y855D01*
X1022Y855D02*
X1249Y855D01*
X554Y854D02*
X781Y854D01*
X1022Y854D02*
X1249Y854D01*
X554Y853D02*
X781Y853D01*
X1022Y853D02*
X1249Y853D01*
X554Y852D02*
X781Y852D01*
X1022Y852D02*
X1249Y852D01*
X554Y851D02*
X780Y851D01*
X1023Y851D02*
X1250Y851D01*
X554Y850D02*
X780Y850D01*
X1023Y850D02*
X1250Y850D01*
X554Y849D02*
X780Y849D01*
X1023Y849D02*
X1250Y849D01*
X554Y848D02*
X780Y848D01*
X1023Y848D02*
X1250Y848D01*
X554Y847D02*
X780Y847D01*
X1023Y847D02*
X1250Y847D01*
X554Y846D02*
X780Y846D01*
X1023Y846D02*
X1250Y846D01*
X553Y845D02*
X780Y845D01*
X1023Y845D02*
X1250Y845D01*
X553Y844D02*
X780Y844D01*
X1023Y844D02*
X1250Y844D01*
X553Y843D02*
X780Y843D01*
X1023Y843D02*
X1250Y843D01*
X2Y842D02*
X780Y842D01*
X1023Y842D02*
X1250Y842D01*
X1Y841D02*
X780Y841D01*
X1023Y841D02*
X1250Y841D01*
X1Y840D02*
X780Y840D01*
X1023Y840D02*
X1250Y840D01*
X1Y839D02*
X780Y839D01*
X1023Y839D02*
X1250Y839D01*
X1Y838D02*
X780Y838D01*
X1023Y838D02*
X1250Y838D01*
X1Y837D02*
X780Y837D01*
X1023Y837D02*
X1250Y837D01*
X1Y836D02*
X780Y836D01*
X1024Y836D02*
X1250Y836D01*
X1Y835D02*
X780Y835D01*
X1023Y835D02*
X1250Y835D01*
X1Y834D02*
X780Y834D01*
X1023Y834D02*
X1250Y834D01*
X1Y833D02*
X780Y833D01*
X1023Y833D02*
X1250Y833D01*
X1Y832D02*
X780Y832D01*
X1023Y832D02*
X1250Y832D01*
X1Y831D02*
X780Y831D01*
X1023Y831D02*
X1250Y831D01*
X1Y830D02*
X780Y830D01*
X1023Y830D02*
X1250Y830D01*
X553Y829D02*
X780Y829D01*
X1023Y829D02*
X1250Y829D01*
X553Y828D02*
X780Y828D01*
X1023Y828D02*
X1250Y828D01*
X553Y827D02*
X780Y827D01*
X1023Y827D02*
X1250Y827D01*
X553Y826D02*
X780Y826D01*
X1023Y826D02*
X1250Y826D01*
X553Y825D02*
X780Y825D01*
X1023Y825D02*
X1250Y825D01*
X553Y824D02*
X780Y824D01*
X1023Y824D02*
X1250Y824D01*
X553Y823D02*
X780Y823D01*
X1023Y823D02*
X1250Y823D01*
X554Y822D02*
X780Y822D01*
X1023Y822D02*
X1250Y822D01*
X554Y821D02*
X780Y821D01*
X1023Y821D02*
X1250Y821D01*
X554Y820D02*
X781Y820D01*
X1022Y820D02*
X1249Y820D01*
X554Y819D02*
X781Y819D01*
X1022Y819D02*
X1249Y819D01*
X554Y818D02*
X781Y818D01*
X1022Y818D02*
X1249Y818D01*
X554Y817D02*
X781Y817D01*
X1022Y817D02*
X1249Y817D01*
X554Y816D02*
X781Y816D01*
X1022Y816D02*
X1249Y816D01*
X554Y815D02*
X781Y815D01*
X1022Y815D02*
X1249Y815D01*
X554Y814D02*
X782Y814D01*
X1021Y814D02*
X1249Y814D01*
X554Y813D02*
X782Y813D01*
X1021Y813D02*
X1249Y813D01*
X554Y812D02*
X782Y812D01*
X1021Y812D02*
X1249Y812D01*
X554Y811D02*
X782Y811D01*
X1021Y811D02*
X1249Y811D01*
X554Y810D02*
X782Y810D01*
X1021Y810D02*
X1249Y810D01*
X554Y809D02*
X783Y809D01*
X1020Y809D02*
X1249Y809D01*
X554Y808D02*
X783Y808D01*
X1020Y808D02*
X1249Y808D01*
X554Y807D02*
X783Y807D01*
X1020Y807D02*
X1249Y807D01*
X555Y806D02*
X783Y806D01*
X1020Y806D02*
X1249Y806D01*
X555Y805D02*
X783Y805D01*
X1020Y805D02*
X1249Y805D01*
X555Y804D02*
X784Y804D01*
X1019Y804D02*
X1248Y804D01*
X555Y803D02*
X784Y803D01*
X1019Y803D02*
X1248Y803D01*
X555Y802D02*
X784Y802D01*
X1019Y802D02*
X1248Y802D01*
X555Y801D02*
X785Y801D01*
X1018Y801D02*
X1248Y801D01*
X555Y800D02*
X785Y800D01*
X1018Y800D02*
X1248Y800D01*
X555Y799D02*
X785Y799D01*
X1018Y799D02*
X1248Y799D01*
X555Y798D02*
X786Y798D01*
X1017Y798D02*
X1248Y798D01*
X555Y797D02*
X786Y797D01*
X1017Y797D02*
X1248Y797D01*
X556Y796D02*
X786Y796D01*
X1017Y796D02*
X1248Y796D01*
X556Y795D02*
X787Y795D01*
X1016Y795D02*
X1247Y795D01*
X556Y794D02*
X787Y794D01*
X1016Y794D02*
X1247Y794D01*
X556Y793D02*
X787Y793D01*
X1016Y793D02*
X1247Y793D01*
X556Y792D02*
X788Y792D01*
X1015Y792D02*
X1247Y792D01*
X556Y791D02*
X788Y791D01*
X1015Y791D02*
X1247Y791D01*
X556Y790D02*
X789Y790D01*
X1014Y790D02*
X1247Y790D01*
X556Y789D02*
X789Y789D01*
X1014Y789D02*
X1247Y789D01*
X557Y788D02*
X789Y788D01*
X1014Y788D02*
X1247Y788D01*
X557Y787D02*
X790Y787D01*
X1013Y787D02*
X1246Y787D01*
X557Y786D02*
X790Y786D01*
X1013Y786D02*
X1246Y786D01*
X557Y785D02*
X791Y785D01*
X1012Y785D02*
X1246Y785D01*
X557Y784D02*
X791Y784D01*
X1012Y784D02*
X1246Y784D01*
X557Y783D02*
X792Y783D01*
X1011Y783D02*
X1246Y783D01*
X557Y782D02*
X792Y782D01*
X1011Y782D02*
X1246Y782D01*
X558Y781D02*
X793Y781D01*
X1010Y781D02*
X1246Y781D01*
X558Y780D02*
X793Y780D01*
X1010Y780D02*
X1245Y780D01*
X558Y779D02*
X794Y779D01*
X1009Y779D02*
X1245Y779D01*
X558Y778D02*
X794Y778D01*
X1009Y778D02*
X1245Y778D01*
X558Y777D02*
X795Y777D01*
X1008Y777D02*
X1245Y777D01*
X558Y776D02*
X795Y776D01*
X1008Y776D02*
X1245Y776D01*
X559Y775D02*
X796Y775D01*
X1007Y775D02*
X1245Y775D01*
X559Y774D02*
X796Y774D01*
X1007Y774D02*
X1244Y774D01*
X559Y773D02*
X797Y773D01*
X1006Y773D02*
X1244Y773D01*
X559Y772D02*
X798Y772D01*
X1005Y772D02*
X1244Y772D01*
X559Y771D02*
X798Y771D01*
X1005Y771D02*
X1244Y771D01*
X560Y770D02*
X799Y770D01*
X1004Y770D02*
X1244Y770D01*
X560Y769D02*
X800Y769D01*
X1003Y769D02*
X1243Y769D01*
X560Y768D02*
X800Y768D01*
X1003Y768D02*
X1243Y768D01*
X560Y767D02*
X801Y767D01*
X1002Y767D02*
X1243Y767D01*
X560Y766D02*
X802Y766D01*
X1001Y766D02*
X1243Y766D01*
X561Y765D02*
X802Y765D01*
X1001Y765D02*
X1243Y765D01*
X561Y764D02*
X803Y764D01*
X1000Y764D02*
X1242Y764D01*
X561Y763D02*
X804Y763D01*
X999Y763D02*
X1242Y763D01*
X561Y762D02*
X805Y762D01*
X998Y762D02*
X1242Y762D01*
X561Y761D02*
X805Y761D01*
X998Y761D02*
X1242Y761D01*
X562Y760D02*
X806Y760D01*
X997Y760D02*
X1242Y760D01*
X562Y759D02*
X807Y759D01*
X996Y759D02*
X1241Y759D01*
X562Y758D02*
X808Y758D01*
X995Y758D02*
X1241Y758D01*
X562Y757D02*
X809Y757D01*
X994Y757D02*
X1241Y757D01*
X563Y756D02*
X810Y756D01*
X993Y756D02*
X1241Y756D01*
X563Y755D02*
X810Y755D01*
X993Y755D02*
X1240Y755D01*
X563Y754D02*
X811Y754D01*
X992Y754D02*
X1240Y754D01*
X563Y753D02*
X812Y753D01*
X991Y753D02*
X1240Y753D01*
X564Y752D02*
X813Y752D01*
X990Y752D02*
X1240Y752D01*
X564Y751D02*
X814Y751D01*
X989Y751D02*
X1239Y751D01*
X564Y750D02*
X815Y750D01*
X988Y750D02*
X1239Y750D01*
X564Y749D02*
X816Y749D01*
X987Y749D02*
X1239Y749D01*
X565Y748D02*
X817Y748D01*
X986Y748D02*
X1239Y748D01*
X565Y747D02*
X818Y747D01*
X985Y747D02*
X1238Y747D01*
X565Y746D02*
X819Y746D01*
X984Y746D02*
X1238Y746D01*
X565Y745D02*
X820Y745D01*
X983Y745D02*
X1238Y745D01*
X566Y744D02*
X822Y744D01*
X981Y744D02*
X1238Y744D01*
X566Y743D02*
X823Y743D01*
X980Y743D02*
X1237Y743D01*
X566Y742D02*
X824Y742D01*
X979Y742D02*
X1237Y742D01*
X566Y741D02*
X825Y741D01*
X978Y741D02*
X1237Y741D01*
X567Y740D02*
X826Y740D01*
X977Y740D02*
X1236Y740D01*
X567Y739D02*
X828Y739D01*
X975Y739D02*
X1236Y739D01*
X567Y738D02*
X829Y738D01*
X974Y738D02*
X1236Y738D01*
X568Y737D02*
X831Y737D01*
X973Y737D02*
X1236Y737D01*
X568Y736D02*
X832Y736D01*
X971Y736D02*
X1235Y736D01*
X568Y735D02*
X833Y735D01*
X970Y735D02*
X1235Y735D01*
X568Y734D02*
X835Y734D01*
X968Y734D02*
X1235Y734D01*
X569Y733D02*
X836Y733D01*
X967Y733D02*
X1234Y733D01*
X569Y732D02*
X838Y732D01*
X965Y732D02*
X1234Y732D01*
X569Y731D02*
X840Y731D01*
X963Y731D02*
X1234Y731D01*
X570Y730D02*
X841Y730D01*
X962Y730D02*
X1233Y730D01*
X570Y729D02*
X843Y729D01*
X960Y729D02*
X1233Y729D01*
X570Y728D02*
X845Y728D01*
X958Y728D02*
X1233Y728D01*
X571Y727D02*
X847Y727D01*
X956Y727D02*
X1232Y727D01*
X571Y726D02*
X849Y726D01*
X954Y726D02*
X1232Y726D01*
X571Y725D02*
X851Y725D01*
X952Y725D02*
X1232Y725D01*
X572Y724D02*
X854Y724D01*
X949Y724D02*
X1231Y724D01*
X572Y723D02*
X856Y723D01*
X947Y723D02*
X1231Y723D01*
X572Y722D02*
X859Y722D01*
X944Y722D02*
X1231Y722D01*
X573Y721D02*
X861Y721D01*
X942Y721D02*
X1230Y721D01*
X573Y720D02*
X864Y720D01*
X939Y720D02*
X1230Y720D01*
X573Y719D02*
X868Y719D01*
X935Y719D02*
X1230Y719D01*
X574Y718D02*
X871Y718D01*
X932Y718D02*
X1229Y718D01*
X574Y717D02*
X876Y717D01*
X927Y717D02*
X1229Y717D01*
X575Y716D02*
X881Y716D01*
X922Y716D02*
X1229Y716D01*
X575Y715D02*
X888Y715D01*
X915Y715D02*
X1228Y715D01*
X575Y714D02*
X1228Y714D01*
X576Y713D02*
X1228Y713D01*
X576Y712D02*
X1227Y712D01*
X576Y711D02*
X1227Y711D01*
X577Y710D02*
X1226Y710D01*
X577Y709D02*
X1226Y709D01*
X578Y708D02*
X1226Y708D01*
X578Y707D02*
X1225Y707D01*
X578Y706D02*
X1225Y706D01*
X579Y705D02*
X1224Y705D01*
X579Y704D02*
X1224Y704D01*
X580Y703D02*
X1224Y703D01*
X580Y702D02*
X1223Y702D01*
X580Y701D02*
X1223Y701D01*
X581Y700D02*
X1222Y700D01*
X581Y699D02*
X1222Y699D01*
X582Y698D02*
X1221Y698D01*
X582Y697D02*
X1221Y697D01*
X582Y696D02*
X1221Y696D01*
X583Y695D02*
X1220Y695D01*
X583Y694D02*
X1220Y694D01*
X584Y693D02*
X1219Y693D01*
X584Y692D02*
X1219Y692D01*
X585Y691D02*
X1218Y691D01*
X585Y690D02*
X1218Y690D01*
X586Y689D02*
X1217Y689D01*
X586Y688D02*
X1217Y688D01*
X587Y687D02*
X1216Y687D01*
X587Y686D02*
X1216Y686D01*
X588Y685D02*
X1215Y685D01*
X588Y684D02*
X1215Y684D01*
X589Y683D02*
X1215Y683D01*
X589Y682D02*
X1214Y682D01*
X590Y681D02*
X1214Y681D01*
X590Y680D02*
X1213Y680D01*
X591Y679D02*
X1213Y679D01*
X591Y678D02*
X1212Y678D01*
X592Y677D02*
X1212Y677D01*
X592Y676D02*
X1211Y676D01*
X593Y675D02*
X1210Y675D01*
X593Y674D02*
X1210Y674D01*
X594Y673D02*
X1209Y673D01*
X594Y672D02*
X1209Y672D01*
X595Y671D02*
X1208Y671D01*
X595Y670D02*
X1208Y670D01*
X596Y669D02*
X1207Y669D01*
X596Y668D02*
X1207Y668D01*
X597Y667D02*
X1206Y667D01*
X597Y666D02*
X1206Y666D01*
X598Y665D02*
X1205Y665D01*
X599Y664D02*
X1204Y664D01*
X599Y663D02*
X1204Y663D01*
X600Y662D02*
X1203Y662D01*
X600Y661D02*
X1203Y661D01*
X601Y660D02*
X1202Y660D01*
X602Y659D02*
X1201Y659D01*
X602Y658D02*
X1201Y658D01*
X603Y657D02*
X1200Y657D01*
X603Y656D02*
X1200Y656D01*
X604Y655D02*
X1199Y655D01*
X605Y654D02*
X1199Y654D01*
X605Y653D02*
X1198Y653D01*
X606Y652D02*
X1197Y652D01*
X606Y651D02*
X1197Y651D01*
X607Y650D02*
X1196Y650D01*
X608Y649D02*
X1195Y649D01*
X608Y648D02*
X1195Y648D01*
X609Y647D02*
X1194Y647D01*
X610Y646D02*
X1193Y646D01*
X610Y645D02*
X1193Y645D01*
X611Y644D02*
X1192Y644D01*
X612Y643D02*
X1191Y643D01*
X612Y642D02*
X1191Y642D01*
X613Y641D02*
X1190Y641D01*
X614Y640D02*
X1189Y640D01*
X614Y639D02*
X1189Y639D01*
X615Y638D02*
X1188Y638D01*
X616Y637D02*
X1187Y637D01*
X616Y636D02*
X1187Y636D01*
X617Y635D02*
X1186Y635D01*
X618Y634D02*
X1185Y634D01*
X618Y633D02*
X1184Y633D01*
X619Y632D02*
X1184Y632D01*
X620Y631D02*
X1183Y631D01*
X621Y630D02*
X1182Y630D01*
X621Y629D02*
X1182Y629D01*
X622Y628D02*
X1181Y628D01*
X623Y627D02*
X1180Y627D01*
X624Y626D02*
X1179Y626D01*
X624Y625D02*
X1179Y625D01*
X625Y624D02*
X1178Y624D01*
X626Y623D02*
X1177Y623D01*
X627Y622D02*
X1176Y622D01*
X627Y621D02*
X1176Y621D01*
X628Y620D02*
X1175Y620D01*
X629Y619D02*
X1174Y619D01*
X630Y618D02*
X1173Y618D01*
X631Y617D02*
X1172Y617D01*
X631Y616D02*
X1171Y616D01*
X632Y615D02*
X1171Y615D01*
X633Y614D02*
X1170Y614D01*
X634Y613D02*
X1169Y613D01*
X635Y612D02*
X1168Y612D01*
X636Y611D02*
X1167Y611D01*
X636Y610D02*
X1167Y610D01*
X637Y609D02*
X1166Y609D01*
X638Y608D02*
X1165Y608D01*
X639Y607D02*
X1164Y607D01*
X640Y606D02*
X1163Y606D01*
X641Y605D02*
X1162Y605D01*
X642Y604D02*
X1161Y604D01*
X643Y603D02*
X1160Y603D01*
X643Y602D02*
X1159Y602D01*
X644Y601D02*
X1159Y601D01*
X645Y600D02*
X1158Y600D01*
X646Y599D02*
X1157Y599D01*
X647Y598D02*
X1156Y598D01*
X648Y597D02*
X1155Y597D01*
X649Y596D02*
X1154Y596D01*
X650Y595D02*
X1153Y595D01*
X651Y594D02*
X1152Y594D01*
X652Y593D02*
X1151Y593D01*
X653Y592D02*
X1150Y592D01*
X654Y591D02*
X1149Y591D01*
X655Y590D02*
X1148Y590D01*
X656Y589D02*
X1147Y589D01*
X657Y588D02*
X1146Y588D01*
X658Y587D02*
X1145Y587D01*
X659Y586D02*
X1144Y586D01*
X660Y585D02*
X1143Y585D01*
X661Y584D02*
X1142Y584D01*
X662Y583D02*
X1141Y583D01*
X663Y582D02*
X1140Y582D01*
X664Y581D02*
X1139Y581D01*
X665Y580D02*
X1138Y580D01*
X666Y579D02*
X1137Y579D01*
X667Y578D02*
X1135Y578D01*
X668Y577D02*
X1134Y577D01*
X670Y576D02*
X1133Y576D01*
X671Y575D02*
X1132Y575D01*
X672Y574D02*
X1131Y574D01*
X673Y573D02*
X1130Y573D01*
X674Y572D02*
X1129Y572D01*
X675Y571D02*
X1128Y571D01*
X677Y570D02*
X1127Y570D01*
X678Y569D02*
X1127Y569D01*
X679Y568D02*
X1128Y568D01*
X680Y567D02*
X1129Y567D01*
X681Y566D02*
X1131Y566D01*
X682Y565D02*
X1132Y565D01*
X684Y564D02*
X1133Y564D01*
X685Y563D02*
X1134Y563D01*
X686Y562D02*
X1135Y562D01*
X688Y561D02*
X1115Y561D01*
X1118Y561D02*
X1136Y561D01*
X689Y560D02*
X1114Y560D01*
X1119Y560D02*
X1137Y560D01*
X690Y559D02*
X1113Y559D01*
X1120Y559D02*
X1139Y559D01*
X691Y558D02*
X1111Y558D01*
X1121Y558D02*
X1140Y558D01*
X693Y557D02*
X1110Y557D01*
X1123Y557D02*
X1141Y557D01*
X694Y556D02*
X1109Y556D01*
X1124Y556D02*
X1142Y556D01*
X695Y555D02*
X1108Y555D01*
X1125Y555D02*
X1143Y555D01*
X697Y554D02*
X1106Y554D01*
X1126Y554D02*
X1144Y554D01*
X698Y553D02*
X1105Y553D01*
X1127Y553D02*
X1146Y553D01*
X700Y552D02*
X1103Y552D01*
X1128Y552D02*
X1147Y552D01*
X701Y551D02*
X1102Y551D01*
X1130Y551D02*
X1148Y551D01*
X702Y550D02*
X1101Y550D01*
X1131Y550D02*
X1149Y550D01*
X704Y549D02*
X1099Y549D01*
X1132Y549D02*
X1150Y549D01*
X705Y548D02*
X1098Y548D01*
X1133Y548D02*
X1151Y548D01*
X707Y547D02*
X1096Y547D01*
X1134Y547D02*
X1152Y547D01*
X708Y546D02*
X1095Y546D01*
X1135Y546D02*
X1154Y546D01*
X710Y545D02*
X1093Y545D01*
X1137Y545D02*
X1155Y545D01*
X711Y544D02*
X1092Y544D01*
X1138Y544D02*
X1156Y544D01*
X713Y543D02*
X1090Y543D01*
X1139Y543D02*
X1157Y543D01*
X714Y542D02*
X1089Y542D01*
X1140Y542D02*
X1158Y542D01*
X716Y541D02*
X1087Y541D01*
X1141Y541D02*
X1159Y541D01*
X717Y540D02*
X1085Y540D01*
X1142Y540D02*
X1161Y540D01*
X719Y539D02*
X1084Y539D01*
X1143Y539D02*
X1162Y539D01*
X721Y538D02*
X1082Y538D01*
X1145Y538D02*
X1163Y538D01*
X722Y537D02*
X1081Y537D01*
X1146Y537D02*
X1164Y537D01*
X724Y536D02*
X1079Y536D01*
X1147Y536D02*
X1165Y536D01*
X726Y535D02*
X1077Y535D01*
X1148Y535D02*
X1166Y535D01*
X727Y534D02*
X1075Y534D01*
X1149Y534D02*
X1167Y534D01*
X729Y533D02*
X1074Y533D01*
X1150Y533D02*
X1169Y533D01*
X731Y532D02*
X1072Y532D01*
X1152Y532D02*
X1170Y532D01*
X733Y531D02*
X1070Y531D01*
X1153Y531D02*
X1171Y531D01*
X734Y530D02*
X1069Y530D01*
X1154Y530D02*
X1172Y530D01*
X736Y529D02*
X1067Y529D01*
X1155Y529D02*
X1173Y529D01*
X738Y528D02*
X1065Y528D01*
X1156Y528D02*
X1174Y528D01*
X740Y527D02*
X1063Y527D01*
X1157Y527D02*
X1176Y527D01*
X742Y526D02*
X1061Y526D01*
X1158Y526D02*
X1177Y526D01*
X744Y525D02*
X1059Y525D01*
X1160Y525D02*
X1178Y525D01*
X746Y524D02*
X1057Y524D01*
X1161Y524D02*
X1179Y524D01*
X748Y523D02*
X1055Y523D01*
X1162Y523D02*
X1180Y523D01*
X750Y522D02*
X1053Y522D01*
X1163Y522D02*
X1181Y522D01*
X752Y521D02*
X1051Y521D01*
X1164Y521D02*
X1183Y521D01*
X754Y520D02*
X1049Y520D01*
X1165Y520D02*
X1184Y520D01*
X756Y519D02*
X1047Y519D01*
X1167Y519D02*
X1185Y519D01*
X758Y518D02*
X1045Y518D01*
X1168Y518D02*
X1186Y518D01*
X761Y517D02*
X1042Y517D01*
X1169Y517D02*
X1187Y517D01*
X763Y516D02*
X1040Y516D01*
X1170Y516D02*
X1188Y516D01*
X765Y515D02*
X1038Y515D01*
X1171Y515D02*
X1189Y515D01*
X767Y514D02*
X1035Y514D01*
X1172Y514D02*
X1191Y514D01*
X770Y513D02*
X1033Y513D01*
X1173Y513D02*
X1192Y513D01*
X772Y512D02*
X1031Y512D01*
X1175Y512D02*
X1193Y512D01*
X775Y511D02*
X1028Y511D01*
X1176Y511D02*
X1194Y511D01*
X778Y510D02*
X1025Y510D01*
X1177Y510D02*
X1195Y510D01*
X780Y509D02*
X1023Y509D01*
X1178Y509D02*
X1196Y509D01*
X783Y508D02*
X1020Y508D01*
X1179Y508D02*
X1198Y508D01*
X786Y507D02*
X1017Y507D01*
X1180Y507D02*
X1199Y507D01*
X789Y506D02*
X1014Y506D01*
X1182Y506D02*
X1200Y506D01*
X792Y505D02*
X1011Y505D01*
X1183Y505D02*
X1201Y505D01*
X795Y504D02*
X1008Y504D01*
X1184Y504D02*
X1202Y504D01*
X798Y503D02*
X1005Y503D01*
X1185Y503D02*
X1203Y503D01*
X801Y502D02*
X1002Y502D01*
X1186Y502D02*
X1204Y502D01*
X804Y501D02*
X999Y501D01*
X1187Y501D02*
X1206Y501D01*
X808Y500D02*
X995Y500D01*
X1188Y500D02*
X1207Y500D01*
X811Y499D02*
X992Y499D01*
X1190Y499D02*
X1208Y499D01*
X815Y498D02*
X988Y498D01*
X1191Y498D02*
X1209Y498D01*
X819Y497D02*
X984Y497D01*
X1192Y497D02*
X1210Y497D01*
X823Y496D02*
X980Y496D01*
X1193Y496D02*
X1211Y496D01*
X828Y495D02*
X975Y495D01*
X1194Y495D02*
X1213Y495D01*
X832Y494D02*
X970Y494D01*
X1195Y494D02*
X1214Y494D01*
X838Y493D02*
X965Y493D01*
X1197Y493D02*
X1215Y493D01*
X843Y492D02*
X960Y492D01*
X1198Y492D02*
X1216Y492D01*
X849Y491D02*
X953Y491D01*
X1109Y491D02*
X1115Y491D01*
X1199Y491D02*
X1217Y491D01*
X856Y490D02*
X947Y490D01*
X1104Y490D02*
X1120Y490D01*
X1200Y490D02*
X1218Y490D01*
X864Y489D02*
X938Y489D01*
X1101Y489D02*
X1123Y489D01*
X1201Y489D02*
X1219Y489D01*
X875Y488D02*
X927Y488D01*
X1099Y488D02*
X1126Y488D01*
X1202Y488D02*
X1221Y488D01*
X900Y487D02*
X902Y487D01*
X1097Y487D02*
X1128Y487D01*
X1203Y487D02*
X1222Y487D01*
X1095Y486D02*
X1129Y486D01*
X1205Y486D02*
X1223Y486D01*
X1094Y485D02*
X1131Y485D01*
X1206Y485D02*
X1224Y485D01*
X1092Y484D02*
X1132Y484D01*
X1207Y484D02*
X1225Y484D01*
X1091Y483D02*
X1133Y483D01*
X1208Y483D02*
X1226Y483D01*
X1090Y482D02*
X1134Y482D01*
X1209Y482D02*
X1228Y482D01*
X1089Y481D02*
X1135Y481D01*
X1210Y481D02*
X1229Y481D01*
X1088Y480D02*
X1136Y480D01*
X1212Y480D02*
X1230Y480D01*
X1088Y479D02*
X1137Y479D01*
X1213Y479D02*
X1231Y479D01*
X1087Y478D02*
X1107Y478D01*
X1117Y478D02*
X1138Y478D01*
X1214Y478D02*
X1232Y478D01*
X1086Y477D02*
X1104Y477D01*
X1120Y477D02*
X1139Y477D01*
X1215Y477D02*
X1233Y477D01*
X1085Y476D02*
X1102Y476D01*
X1122Y476D02*
X1139Y476D01*
X1216Y476D02*
X1234Y476D01*
X1085Y475D02*
X1101Y475D01*
X1124Y475D02*
X1140Y475D01*
X1217Y475D02*
X1236Y475D01*
X1084Y474D02*
X1099Y474D01*
X1125Y474D02*
X1140Y474D01*
X1218Y474D02*
X1237Y474D01*
X1084Y473D02*
X1098Y473D01*
X1126Y473D02*
X1141Y473D01*
X1220Y473D02*
X1238Y473D01*
X1083Y472D02*
X1097Y472D01*
X1127Y472D02*
X1141Y472D01*
X1221Y472D02*
X1239Y472D01*
X1083Y471D02*
X1096Y471D01*
X1128Y471D02*
X1142Y471D01*
X1222Y471D02*
X1240Y471D01*
X1082Y470D02*
X1096Y470D01*
X1129Y470D02*
X1142Y470D01*
X1223Y470D02*
X1241Y470D01*
X1082Y469D02*
X1095Y469D01*
X1130Y469D02*
X1142Y469D01*
X1224Y469D02*
X1243Y469D01*
X1082Y468D02*
X1094Y468D01*
X1130Y468D02*
X1143Y468D01*
X1225Y468D02*
X1244Y468D01*
X1082Y467D02*
X1094Y467D01*
X1131Y467D02*
X1143Y467D01*
X1227Y467D02*
X1245Y467D01*
X1081Y466D02*
X1094Y466D01*
X1131Y466D02*
X1143Y466D01*
X1228Y466D02*
X1246Y466D01*
X1081Y465D02*
X1093Y465D01*
X1131Y465D02*
X1144Y465D01*
X1229Y465D02*
X1247Y465D01*
X1081Y464D02*
X1093Y464D01*
X1132Y464D02*
X1144Y464D01*
X1230Y464D02*
X1248Y464D01*
X1081Y463D02*
X1093Y463D01*
X1132Y463D02*
X1144Y463D01*
X1231Y463D02*
X1249Y463D01*
X1081Y462D02*
X1144Y462D01*
X1232Y462D02*
X1251Y462D01*
X1081Y461D02*
X1144Y461D01*
X1234Y461D02*
X1252Y461D01*
X1080Y460D02*
X1144Y460D01*
X1235Y460D02*
X1253Y460D01*
X1080Y459D02*
X1144Y459D01*
X1236Y459D02*
X1254Y459D01*
X1080Y458D02*
X1144Y458D01*
X1237Y458D02*
X1255Y458D01*
X1081Y457D02*
X1144Y457D01*
X1238Y457D02*
X1256Y457D01*
X1081Y456D02*
X1144Y456D01*
X1239Y456D02*
X1258Y456D01*
X1081Y455D02*
X1093Y455D01*
X1132Y455D02*
X1144Y455D01*
X1240Y455D02*
X1259Y455D01*
X1081Y454D02*
X1093Y454D01*
X1132Y454D02*
X1144Y454D01*
X1242Y454D02*
X1260Y454D01*
X1081Y453D02*
X1093Y453D01*
X1131Y453D02*
X1144Y453D01*
X1243Y453D02*
X1261Y453D01*
X1081Y452D02*
X1093Y452D01*
X1131Y452D02*
X1143Y452D01*
X1244Y452D02*
X1262Y452D01*
X1081Y451D02*
X1094Y451D01*
X1131Y451D02*
X1143Y451D01*
X1245Y451D02*
X1263Y451D01*
X1082Y450D02*
X1094Y450D01*
X1130Y450D02*
X1143Y450D01*
X1246Y450D02*
X1264Y450D01*
X1082Y449D02*
X1095Y449D01*
X1130Y449D02*
X1143Y449D01*
X1247Y449D02*
X1266Y449D01*
X1082Y448D02*
X1095Y448D01*
X1129Y448D02*
X1142Y448D01*
X1249Y448D02*
X1267Y448D01*
X1083Y447D02*
X1096Y447D01*
X1128Y447D02*
X1142Y447D01*
X1250Y447D02*
X1268Y447D01*
X1083Y446D02*
X1097Y446D01*
X1128Y446D02*
X1141Y446D01*
X1251Y446D02*
X1269Y446D01*
X1084Y445D02*
X1098Y445D01*
X1127Y445D02*
X1141Y445D01*
X1252Y445D02*
X1270Y445D01*
X1084Y444D02*
X1099Y444D01*
X1126Y444D02*
X1140Y444D01*
X1253Y444D02*
X1271Y444D01*
X1085Y443D02*
X1100Y443D01*
X1124Y443D02*
X1140Y443D01*
X1254Y443D02*
X1273Y443D01*
X1085Y442D02*
X1102Y442D01*
X1123Y442D02*
X1139Y442D01*
X1255Y442D02*
X1274Y442D01*
X1086Y441D02*
X1104Y441D01*
X1121Y441D02*
X1139Y441D01*
X1257Y441D02*
X1275Y441D01*
X1087Y440D02*
X1106Y440D01*
X1118Y440D02*
X1138Y440D01*
X1258Y440D02*
X1276Y440D01*
X1087Y439D02*
X1137Y439D01*
X1259Y439D02*
X1277Y439D01*
X1088Y438D02*
X1136Y438D01*
X1260Y438D02*
X1278Y438D01*
X1089Y437D02*
X1136Y437D01*
X1261Y437D02*
X1280Y437D01*
X1090Y436D02*
X1135Y436D01*
X1262Y436D02*
X1281Y436D01*
X1091Y435D02*
X1133Y435D01*
X1264Y435D02*
X1282Y435D01*
X1092Y434D02*
X1132Y434D01*
X1265Y434D02*
X1283Y434D01*
X1093Y433D02*
X1131Y433D01*
X1266Y433D02*
X1284Y433D01*
X1095Y432D02*
X1130Y432D01*
X1267Y432D02*
X1285Y432D01*
X1096Y431D02*
X1128Y431D01*
X1268Y431D02*
X1286Y431D01*
X1098Y430D02*
X1126Y430D01*
X1269Y430D02*
X1288Y430D01*
X1101Y429D02*
X1124Y429D01*
X1270Y429D02*
X1289Y429D01*
X1103Y428D02*
X1121Y428D01*
X1272Y428D02*
X1290Y428D01*
X1108Y427D02*
X1117Y427D01*
X1273Y427D02*
X1291Y427D01*
X1274Y426D02*
X1292Y426D01*
X1275Y425D02*
X1293Y425D01*
X1276Y424D02*
X1295Y424D01*
X1277Y423D02*
X1296Y423D01*
X1279Y422D02*
X1297Y422D01*
X1280Y421D02*
X1298Y421D01*
X1281Y420D02*
X1299Y420D01*
X1282Y419D02*
X1300Y419D01*
X1283Y418D02*
X1301Y418D01*
X1284Y417D02*
X1303Y417D01*
X1285Y416D02*
X1304Y416D01*
X1287Y415D02*
X1305Y415D01*
X1288Y414D02*
X1306Y414D01*
X1289Y413D02*
X1307Y413D01*
X1290Y412D02*
X1308Y412D01*
X1291Y411D02*
X1310Y411D01*
X1292Y410D02*
X1311Y410D01*
X1294Y409D02*
X1312Y409D01*
X1295Y408D02*
X1313Y408D01*
X1296Y407D02*
X1314Y407D01*
X1297Y406D02*
X1315Y406D01*
X1298Y405D02*
X1316Y405D01*
X1299Y404D02*
X1318Y404D01*
X1300Y403D02*
X1319Y403D01*
X1302Y402D02*
X1320Y402D01*
X1303Y401D02*
X1321Y401D01*
X1304Y400D02*
X1322Y400D01*
X1305Y399D02*
X1323Y399D01*
X1306Y398D02*
X1325Y398D01*
X1307Y397D02*
X1326Y397D01*
X1309Y396D02*
X1327Y396D01*
X1310Y395D02*
X1328Y395D01*
X1311Y394D02*
X1329Y394D01*
X1312Y393D02*
X1330Y393D01*
X1313Y392D02*
X1331Y392D01*
X1314Y391D02*
X1333Y391D01*
X1315Y390D02*
X1334Y390D01*
X1317Y389D02*
X1335Y389D01*
X1318Y388D02*
X1336Y388D01*
X1319Y387D02*
X1337Y387D01*
X1320Y386D02*
X1338Y386D01*
X1321Y385D02*
X1340Y385D01*
X1322Y384D02*
X1341Y384D01*
X1324Y383D02*
X1342Y383D01*
X1325Y382D02*
X1343Y382D01*
X1326Y381D02*
X1344Y381D01*
X1327Y380D02*
X1345Y380D01*
X1328Y379D02*
X1346Y379D01*
X1329Y378D02*
X1348Y378D01*
X1330Y377D02*
X1349Y377D01*
X1332Y376D02*
X1350Y376D01*
X1333Y375D02*
X1351Y375D01*
X1334Y374D02*
X1352Y374D01*
X1335Y373D02*
X1353Y373D01*
X1336Y372D02*
X1355Y372D01*
X1337Y371D02*
X1356Y371D01*
X1339Y370D02*
X1357Y370D01*
X1340Y369D02*
X1358Y369D01*
X1341Y368D02*
X1359Y368D01*
X1342Y367D02*
X1360Y367D01*
X1343Y366D02*
X1362Y366D01*
X1344Y365D02*
X1363Y365D01*
X1346Y364D02*
X1364Y364D01*
X1347Y363D02*
X1365Y363D01*
X1348Y362D02*
X1366Y362D01*
X1349Y361D02*
X1367Y361D01*
X1350Y360D02*
X1368Y360D01*
X1351Y359D02*
X1370Y359D01*
X1352Y358D02*
X1371Y358D01*
X1354Y357D02*
X1372Y357D01*
X1355Y356D02*
X1373Y356D01*
X1356Y355D02*
X1374Y355D01*
X1357Y354D02*
X1375Y354D01*
X1358Y353D02*
X1377Y353D01*
X1359Y352D02*
X1378Y352D01*
X1361Y351D02*
X1379Y351D01*
X1362Y350D02*
X1380Y350D01*
X1363Y349D02*
X1381Y349D01*
X1364Y348D02*
X1382Y348D01*
X1365Y347D02*
X1383Y347D01*
X1366Y346D02*
X1385Y346D01*
X1367Y345D02*
X1386Y345D01*
X1369Y344D02*
X1387Y344D01*
X1370Y343D02*
X1388Y343D01*
X1371Y342D02*
X1389Y342D01*
X1372Y341D02*
X1390Y341D01*
X1373Y340D02*
X1392Y340D01*
X1374Y339D02*
X1393Y339D01*
X1376Y338D02*
X1394Y338D01*
X1377Y337D02*
X1395Y337D01*
X1378Y336D02*
X1396Y336D01*
X1379Y335D02*
X1397Y335D01*
X1380Y334D02*
X1398Y334D01*
X1381Y333D02*
X1400Y333D01*
X1382Y332D02*
X1401Y332D01*
X1384Y331D02*
X1402Y331D01*
X1385Y330D02*
X1403Y330D01*
X1386Y329D02*
X1404Y329D01*
X1387Y328D02*
X1405Y328D01*
X1388Y327D02*
X1407Y327D01*
X1389Y326D02*
X1408Y326D01*
X1391Y325D02*
X1409Y325D01*
X1392Y324D02*
X1410Y324D01*
X1393Y323D02*
X1411Y323D01*
X1394Y322D02*
X1412Y322D01*
X1395Y321D02*
X1413Y321D01*
X1396Y320D02*
X1415Y320D01*
X1397Y319D02*
X1416Y319D01*
X1399Y318D02*
X1417Y318D01*
X1400Y317D02*
X1418Y317D01*
X1401Y316D02*
X1419Y316D01*
X1402Y315D02*
X1420Y315D01*
X1403Y314D02*
X1422Y314D01*
X1404Y313D02*
X1423Y313D01*
X1406Y312D02*
X1424Y312D01*
X1407Y311D02*
X1425Y311D01*
X1408Y310D02*
X1426Y310D01*
X1409Y309D02*
X1427Y309D01*
X1410Y308D02*
X1428Y308D01*
X1411Y307D02*
X1430Y307D01*
X1412Y306D02*
X1431Y306D01*
X1414Y305D02*
X1432Y305D01*
X1415Y304D02*
X1433Y304D01*
X1416Y303D02*
X1434Y303D01*
X1417Y302D02*
X1435Y302D01*
X1418Y301D02*
X1437Y301D01*
X1419Y300D02*
X1438Y300D01*
X1421Y299D02*
X1439Y299D01*
X1422Y298D02*
X1440Y298D01*
X1423Y297D02*
X1441Y297D01*
X1424Y296D02*
X1442Y296D01*
X1425Y295D02*
X1443Y295D01*
X1426Y294D02*
X1445Y294D01*
X1427Y293D02*
X1446Y293D01*
X1429Y292D02*
X1447Y292D01*
X1430Y291D02*
X1448Y291D01*
X1431Y290D02*
X1449Y290D01*
X1432Y289D02*
X1450Y289D01*
X1433Y288D02*
X1452Y288D01*
X1434Y287D02*
X1453Y287D01*
X1436Y286D02*
X1454Y286D01*
X1437Y285D02*
X1455Y285D01*
X1438Y284D02*
X1456Y284D01*
X1439Y283D02*
X1457Y283D01*
X1440Y282D02*
X1459Y282D01*
X1441Y281D02*
X1460Y281D01*
X1443Y280D02*
X1461Y280D01*
X1444Y279D02*
X1462Y279D01*
X1445Y278D02*
X1463Y278D01*
X1446Y277D02*
X1464Y277D01*
X1447Y276D02*
X1465Y276D01*
X1448Y275D02*
X1467Y275D01*
X1449Y274D02*
X1468Y274D01*
X1451Y273D02*
X1469Y273D01*
X1452Y272D02*
X1470Y272D01*
X1453Y271D02*
X1471Y271D01*
X1454Y270D02*
X1472Y270D01*
X1455Y269D02*
X1474Y269D01*
X1456Y268D02*
X1475Y268D01*
X1458Y267D02*
X1476Y267D01*
X1459Y266D02*
X1477Y266D01*
X1460Y265D02*
X1478Y265D01*
X1461Y264D02*
X1479Y264D01*
X1462Y263D02*
X1480Y263D01*
X1463Y262D02*
X1482Y262D01*
X1464Y261D02*
X1483Y261D01*
X1466Y260D02*
X1484Y260D01*
X1467Y259D02*
X1485Y259D01*
X1468Y258D02*
X1486Y258D01*
X1469Y257D02*
X1487Y257D01*
X1470Y256D02*
X1489Y256D01*
X1471Y255D02*
X1490Y255D01*
X1473Y254D02*
X1491Y254D01*
X1474Y253D02*
X1492Y253D01*
X1475Y252D02*
X1493Y252D01*
X1476Y251D02*
X1494Y251D01*
X1477Y250D02*
X1495Y250D01*
X1478Y249D02*
X1497Y249D01*
X1479Y248D02*
X1498Y248D01*
X1481Y247D02*
X1499Y247D01*
X1482Y246D02*
X1500Y246D01*
X1483Y245D02*
X1501Y245D01*
X1484Y244D02*
X1502Y244D01*
X1485Y243D02*
X1504Y243D01*
X1486Y242D02*
X1505Y242D01*
X1488Y241D02*
X1506Y241D01*
X1489Y240D02*
X1507Y240D01*
X1490Y239D02*
X1508Y239D01*
X1491Y238D02*
X1509Y238D01*
X1492Y237D02*
X1510Y237D01*
X1493Y236D02*
X1512Y236D01*
X1494Y235D02*
X1513Y235D01*
X1496Y234D02*
X1514Y234D01*
X1497Y233D02*
X1515Y233D01*
X1498Y232D02*
X1516Y232D01*
X1499Y231D02*
X1517Y231D01*
X1500Y230D02*
X1519Y230D01*
X1501Y229D02*
X1520Y229D01*
X1503Y228D02*
X1521Y228D01*
X1504Y227D02*
X1522Y227D01*
X1505Y226D02*
X1523Y226D01*
X1506Y225D02*
X1524Y225D01*
X1507Y224D02*
X1525Y224D01*
X1508Y223D02*
X1527Y223D01*
X1509Y222D02*
X1528Y222D01*
X1511Y221D02*
X1529Y221D01*
X1512Y220D02*
X1530Y220D01*
X1513Y219D02*
X1531Y219D01*
X1514Y218D02*
X1532Y218D01*
X1515Y217D02*
X1534Y217D01*
X1516Y216D02*
X1535Y216D01*
X1518Y215D02*
X1536Y215D01*
X1519Y214D02*
X1537Y214D01*
X1520Y213D02*
X1538Y213D01*
X1521Y212D02*
X1539Y212D01*
X1522Y211D02*
X1540Y211D01*
X1523Y210D02*
X1542Y210D01*
X1524Y209D02*
X1543Y209D01*
X1526Y208D02*
X1544Y208D01*
X1527Y207D02*
X1545Y207D01*
X1528Y206D02*
X1546Y206D01*
X1529Y205D02*
X1547Y205D01*
X1530Y204D02*
X1549Y204D01*
X1531Y203D02*
X1550Y203D01*
X1533Y202D02*
X1551Y202D01*
X1534Y201D02*
X1552Y201D01*
X1535Y200D02*
X1553Y200D01*
X1536Y199D02*
X1554Y199D01*
X1537Y198D02*
X1556Y198D01*
X1538Y197D02*
X1557Y197D01*
X1539Y196D02*
X1558Y196D01*
X1541Y195D02*
X1559Y195D01*
X1542Y194D02*
X1560Y194D01*
X1543Y193D02*
X1561Y193D01*
X1544Y192D02*
X1562Y192D01*
X1545Y191D02*
X1564Y191D01*
X1546Y190D02*
X1565Y190D01*
X1548Y189D02*
X1566Y189D01*
X1549Y188D02*
X1567Y188D01*
X1550Y187D02*
X1568Y187D01*
X1551Y186D02*
X1569Y186D01*
X1552Y185D02*
X1571Y185D01*
X1553Y184D02*
X1572Y184D01*
X1555Y183D02*
X1573Y183D01*
X1556Y182D02*
X1574Y182D01*
X1557Y181D02*
X1575Y181D01*
X1558Y180D02*
X1576Y180D01*
X1559Y179D02*
X1577Y179D01*
X1560Y178D02*
X1579Y178D01*
X1561Y177D02*
X1580Y177D01*
X1563Y176D02*
X1581Y176D01*
X1564Y175D02*
X1582Y175D01*
X1565Y174D02*
X1583Y174D01*
X1566Y173D02*
X1584Y173D01*
X1567Y172D02*
X1586Y172D01*
X1568Y171D02*
X1587Y171D01*
X1570Y170D02*
X1588Y170D01*
X1571Y169D02*
X1589Y169D01*
X1572Y168D02*
X1590Y168D01*
X1573Y167D02*
X1591Y167D01*
X1574Y166D02*
X1592Y166D01*
X1575Y165D02*
X1594Y165D01*
X1576Y164D02*
X1595Y164D01*
X1578Y163D02*
X1596Y163D01*
X1579Y162D02*
X1597Y162D01*
X1580Y161D02*
X1598Y161D01*
X1581Y160D02*
X1599Y160D01*
X1582Y159D02*
X1601Y159D01*
X1583Y158D02*
X1602Y158D01*
X1585Y157D02*
X1603Y157D01*
X1586Y156D02*
X1604Y156D01*
X1587Y155D02*
X1605Y155D01*
X1588Y154D02*
X1606Y154D01*
X1589Y153D02*
X1607Y153D01*
X1590Y152D02*
X1609Y152D01*
X1591Y151D02*
X1610Y151D01*
X1593Y150D02*
X1611Y150D01*
X1594Y149D02*
X1612Y149D01*
X1595Y148D02*
X1613Y148D01*
X1596Y147D02*
X1614Y147D01*
X1597Y146D02*
X1616Y146D01*
X1598Y145D02*
X1617Y145D01*
X1600Y144D02*
X1618Y144D01*
X1601Y143D02*
X1619Y143D01*
X1602Y142D02*
X1620Y142D01*
X1603Y141D02*
X1621Y141D01*
X1604Y140D02*
X1622Y140D01*
X1605Y139D02*
X1624Y139D01*
X1606Y138D02*
X1625Y138D01*
X1608Y137D02*
X1626Y137D01*
X1609Y136D02*
X1627Y136D01*
X1610Y135D02*
X1628Y135D01*
X1611Y134D02*
X1629Y134D01*
X1612Y133D02*
X1631Y133D01*
X1613Y132D02*
X1632Y132D01*
X1615Y131D02*
X1633Y131D01*
X1616Y130D02*
X1634Y130D01*
X1617Y129D02*
X1635Y129D01*
X1618Y128D02*
X1636Y128D01*
X1619Y127D02*
X1637Y127D01*
X1620Y126D02*
X1639Y126D01*
X1621Y125D02*
X1640Y125D01*
X1623Y124D02*
X1641Y124D01*
X1624Y123D02*
X1642Y123D01*
X1625Y122D02*
X1643Y122D01*
X1626Y121D02*
X1644Y121D01*
X1627Y120D02*
X1646Y120D01*
X1628Y119D02*
X1647Y119D01*
X1630Y118D02*
X1648Y118D01*
X1631Y117D02*
X1649Y117D01*
X1632Y116D02*
X1650Y116D01*
X1633Y115D02*
X1651Y115D01*
X1634Y114D02*
X1653Y114D01*
X1635Y113D02*
X1654Y113D01*
X1636Y112D02*
X1655Y112D01*
X1638Y111D02*
X1656Y111D01*
X1639Y110D02*
X1657Y110D01*
X1640Y109D02*
X1658Y109D01*
X1641Y108D02*
X1659Y108D01*
X1642Y107D02*
X1661Y107D01*
X1643Y106D02*
X1662Y106D01*
X1645Y105D02*
X1663Y105D01*
X1646Y104D02*
X1664Y104D01*
X1647Y103D02*
X1665Y103D01*
X1648Y102D02*
X1666Y102D01*
X1649Y101D02*
X1668Y101D01*
X1650Y100D02*
X1669Y100D01*
X1652Y99D02*
X1670Y99D01*
X1653Y98D02*
X1671Y98D01*
X1654Y97D02*
X1672Y97D01*
X1655Y96D02*
X1673Y96D01*
X1656Y95D02*
X1674Y95D01*
X1657Y94D02*
X1676Y94D01*
X1658Y93D02*
X1677Y93D01*
X1660Y92D02*
X1678Y92D01*
X1661Y91D02*
X1679Y91D01*
X1662Y90D02*
X1680Y90D01*
X1663Y89D02*
X1681Y89D01*
X1664Y88D02*
X1683Y88D01*
X1665Y87D02*
X1684Y87D01*
X1667Y86D02*
X1685Y86D01*
X1668Y85D02*
X1686Y85D01*
X1669Y84D02*
X1687Y84D01*
X1670Y83D02*
X1688Y83D01*
X1671Y82D02*
X1689Y82D01*
X1672Y81D02*
X1691Y81D01*
X1673Y80D02*
X1692Y80D01*
X1675Y79D02*
X1693Y79D01*
X1676Y78D02*
X1694Y78D01*
X1677Y77D02*
X1695Y77D01*
X1678Y76D02*
X1696Y76D01*
X1679Y75D02*
X1698Y75D01*
X1680Y74D02*
X1699Y74D01*
X1682Y73D02*
X1700Y73D01*
X1683Y72D02*
X1701Y72D01*
X1684Y71D02*
X1702Y71D01*
X1685Y70D02*
X1703Y70D01*
X1686Y69D02*
X1704Y69D01*
X1687Y68D02*
X1706Y68D01*
X1688Y67D02*
X1707Y67D01*
X1690Y66D02*
X1708Y66D01*
X1691Y65D02*
X1709Y65D01*
X1692Y64D02*
X1710Y64D01*
X1693Y63D02*
X1711Y63D01*
X1694Y62D02*
X1713Y62D01*
X1695Y61D02*
X1714Y61D01*
X1697Y60D02*
X1715Y60D01*
X1698Y59D02*
X1716Y59D01*
X1699Y58D02*
X1717Y58D01*
X1700Y57D02*
X1718Y57D01*
X1701Y56D02*
X1719Y56D01*
X1702Y55D02*
X1721Y55D01*
X1703Y54D02*
X1722Y54D01*
X1705Y53D02*
X1723Y53D01*
X1706Y52D02*
X1724Y52D01*
X1707Y51D02*
X1725Y51D01*
X1708Y50D02*
X1726Y50D01*
X1709Y49D02*
X1728Y49D01*
X1710Y48D02*
X1729Y48D01*
X1712Y47D02*
X1730Y47D01*
X1713Y46D02*
X1731Y46D01*
X1714Y45D02*
X1732Y45D01*
X1715Y44D02*
X1733Y44D01*
X1716Y43D02*
X1734Y43D01*
X1717Y42D02*
X1736Y42D01*
X1718Y41D02*
X1737Y41D01*
X1720Y40D02*
X1738Y40D01*
X1721Y39D02*
X1739Y39D01*
X1722Y38D02*
X1740Y38D01*
X1723Y37D02*
X1741Y37D01*
X1724Y36D02*
X1743Y36D01*
X1725Y35D02*
X1744Y35D01*
X1727Y34D02*
X1745Y34D01*
X1728Y33D02*
X1746Y33D01*
X1729Y32D02*
X1747Y32D01*
X1730Y31D02*
X1748Y31D01*
X1731Y30D02*
X1750Y30D01*
X1732Y29D02*
X1751Y29D01*
X1733Y28D02*
X1752Y28D01*
X1735Y27D02*
X1753Y27D01*
X1736Y26D02*
X1754Y26D01*
X1737Y25D02*
X1755Y25D01*
X1738Y24D02*
X1756Y24D01*
X1739Y23D02*
X1758Y23D01*
X1740Y22D02*
X1759Y22D01*
X1742Y21D02*
X1760Y21D01*
X1743Y20D02*
X1761Y20D01*
X1744Y19D02*
X1762Y19D01*
X1745Y18D02*
X1763Y18D01*
X1746Y17D02*
X1765Y17D01*
X1747Y16D02*
X1766Y16D01*
X1748Y15D02*
X1767Y15D01*
X1750Y14D02*
X1768Y14D01*
X1751Y13D02*
X1769Y13D01*
X1752Y12D02*
X1770Y12D01*
X1753Y11D02*
X1771Y11D01*
X1754Y10D02*
X1772Y10D01*
X1755Y9D02*
X1772Y9D01*
X1757Y8D02*
X1772Y8D01*
X1758Y7D02*
X1772Y7D01*
X1759Y6D02*
X1772Y6D01*
X1760Y5D02*
X1772Y5D01*
X1761Y4D02*
X1772Y4D01*
X1762Y3D02*
X1772Y3D01*
X1764Y2D02*
X1772Y2D01*
X1765Y1D02*
X1772Y1D01*
X1766Y0D02*
X1772Y0D01*
D02*
G04 End of Silk1*
M02*