G04 MADE WITH FRITZING*
G04 WWW.FRITZING.ORG*
G04 DOUBLE SIDED*
G04 HOLES PLATED*
G04 CONTOUR ON CENTER OF CONTOUR VECTOR*
%ASAXBY*%
%FSLAX23Y23*%
%MOIN*%
%OFA0B0*%
%SFA1.0B1.0*%
%ADD10C,0.072992*%
%ADD11C,0.089370*%
%ADD12C,0.049370*%
%ADD13R,0.072992X0.072992*%
%LNMASK0*%
G90*
G70*
G54D10*
X1291Y1244D03*
X1193Y1244D03*
X566Y1241D03*
X467Y1241D03*
G54D11*
X1671Y1516D03*
X1681Y239D03*
X220Y1686D03*
X91Y236D03*
X1560Y84D03*
X1558Y1690D03*
X81Y1513D03*
X222Y80D03*
G54D12*
X1299Y372D03*
X1449Y372D03*
X1149Y372D03*
X1374Y372D03*
X999Y372D03*
X1111Y322D03*
X924Y372D03*
X1074Y372D03*
X849Y372D03*
X1224Y372D03*
X474Y372D03*
X324Y372D03*
X399Y372D03*
X549Y372D03*
X961Y322D03*
X624Y372D03*
X699Y372D03*
X774Y372D03*
X511Y322D03*
X474Y272D03*
X1374Y272D03*
X999Y272D03*
X1149Y272D03*
X1224Y272D03*
X699Y272D03*
X849Y272D03*
X324Y272D03*
X924Y272D03*
X624Y272D03*
X774Y272D03*
X1449Y272D03*
X1074Y272D03*
X1299Y272D03*
X811Y322D03*
X399Y272D03*
X736Y322D03*
X586Y322D03*
X1336Y322D03*
X886Y322D03*
X436Y322D03*
X549Y272D03*
X361Y322D03*
X1036Y322D03*
X1186Y322D03*
X661Y322D03*
X1261Y322D03*
X1411Y322D03*
G54D13*
X1291Y1244D03*
X566Y1241D03*
G04 End of Mask0*
M02*