G04 MADE WITH FRITZING*
G04 WWW.FRITZING.ORG*
G04 DOUBLE SIDED*
G04 HOLES PLATED*
G04 CONTOUR ON CENTER OF CONTOUR VECTOR*
%ASAXBY*%
%FSLAX23Y23*%
%MOIN*%
%OFA0B0*%
%SFA1.0B1.0*%
%ADD10C,0.062992*%
%ADD11C,0.079370*%
%ADD12R,0.062992X0.062992*%
%ADD13R,0.001000X0.001000*%
%LNCOPPER0*%
G90*
G70*
G54D10*
X1291Y1244D03*
X1193Y1244D03*
X566Y1241D03*
X467Y1241D03*
G54D11*
X1671Y1516D03*
X1681Y239D03*
X220Y1686D03*
X91Y236D03*
X1560Y84D03*
X1558Y1690D03*
X81Y1513D03*
X222Y80D03*
G54D12*
X1291Y1244D03*
X566Y1241D03*
G54D13*
X169Y1534D02*
X189Y1534D01*
X143Y1533D02*
X213Y1533D01*
X129Y1532D02*
X226Y1532D01*
X118Y1531D02*
X236Y1531D01*
X110Y1530D02*
X244Y1530D01*
X102Y1529D02*
X252Y1529D01*
X94Y1528D02*
X258Y1528D01*
X1667Y1528D02*
X1672Y1528D01*
X88Y1527D02*
X264Y1527D01*
X1665Y1527D02*
X1675Y1527D01*
X82Y1526D02*
X270Y1526D01*
X1663Y1526D02*
X1676Y1526D01*
X77Y1525D02*
X275Y1525D01*
X1662Y1525D02*
X1678Y1525D01*
X75Y1524D02*
X279Y1524D01*
X1661Y1524D02*
X1679Y1524D01*
X74Y1523D02*
X284Y1523D01*
X1660Y1523D02*
X1679Y1523D01*
X73Y1522D02*
X288Y1522D01*
X1660Y1522D02*
X1680Y1522D01*
X72Y1521D02*
X292Y1521D01*
X1659Y1521D02*
X1680Y1521D01*
X71Y1520D02*
X296Y1520D01*
X1659Y1520D02*
X1681Y1520D01*
X71Y1519D02*
X300Y1519D01*
X1659Y1519D02*
X1681Y1519D01*
X70Y1518D02*
X303Y1518D01*
X1658Y1518D02*
X1681Y1518D01*
X70Y1517D02*
X307Y1517D01*
X1658Y1517D02*
X1681Y1517D01*
X70Y1516D02*
X310Y1516D01*
X1658Y1516D02*
X1682Y1516D01*
X70Y1515D02*
X313Y1515D01*
X1658Y1515D02*
X1682Y1515D01*
X69Y1514D02*
X316Y1514D01*
X1659Y1514D02*
X1682Y1514D01*
X69Y1513D02*
X319Y1513D01*
X1659Y1513D02*
X1682Y1513D01*
X70Y1512D02*
X322Y1512D01*
X1659Y1512D02*
X1682Y1512D01*
X70Y1511D02*
X324Y1511D01*
X1659Y1511D02*
X1682Y1511D01*
X70Y1510D02*
X167Y1510D01*
X193Y1510D02*
X327Y1510D01*
X1659Y1510D02*
X1682Y1510D01*
X70Y1509D02*
X143Y1509D01*
X214Y1509D02*
X330Y1509D01*
X1659Y1509D02*
X1683Y1509D01*
X71Y1508D02*
X129Y1508D01*
X227Y1508D02*
X332Y1508D01*
X1659Y1508D02*
X1683Y1508D01*
X71Y1507D02*
X119Y1507D01*
X236Y1507D02*
X335Y1507D01*
X1660Y1507D02*
X1683Y1507D01*
X72Y1506D02*
X110Y1506D01*
X244Y1506D02*
X337Y1506D01*
X1660Y1506D02*
X1683Y1506D01*
X73Y1505D02*
X102Y1505D01*
X251Y1505D02*
X339Y1505D01*
X1660Y1505D02*
X1683Y1505D01*
X74Y1504D02*
X95Y1504D01*
X257Y1504D02*
X342Y1504D01*
X1660Y1504D02*
X1683Y1504D01*
X76Y1503D02*
X89Y1503D01*
X263Y1503D02*
X344Y1503D01*
X1660Y1503D02*
X1683Y1503D01*
X79Y1502D02*
X83Y1502D01*
X268Y1502D02*
X346Y1502D01*
X1660Y1502D02*
X1684Y1502D01*
X273Y1501D02*
X348Y1501D01*
X1660Y1501D02*
X1684Y1501D01*
X278Y1500D02*
X350Y1500D01*
X1661Y1500D02*
X1684Y1500D01*
X282Y1499D02*
X352Y1499D01*
X1661Y1499D02*
X1684Y1499D01*
X286Y1498D02*
X354Y1498D01*
X1661Y1498D02*
X1684Y1498D01*
X290Y1497D02*
X356Y1497D01*
X1661Y1497D02*
X1684Y1497D01*
X294Y1496D02*
X358Y1496D01*
X1661Y1496D02*
X1684Y1496D01*
X297Y1495D02*
X360Y1495D01*
X1661Y1495D02*
X1684Y1495D01*
X301Y1494D02*
X362Y1494D01*
X1661Y1494D02*
X1684Y1494D01*
X304Y1493D02*
X364Y1493D01*
X1661Y1493D02*
X1684Y1493D01*
X307Y1492D02*
X365Y1492D01*
X1662Y1492D02*
X1685Y1492D01*
X310Y1491D02*
X367Y1491D01*
X1662Y1491D02*
X1685Y1491D01*
X313Y1490D02*
X369Y1490D01*
X1662Y1490D02*
X1685Y1490D01*
X316Y1489D02*
X371Y1489D01*
X1662Y1489D02*
X1685Y1489D01*
X319Y1488D02*
X372Y1488D01*
X1662Y1488D02*
X1685Y1488D01*
X321Y1487D02*
X374Y1487D01*
X1662Y1487D02*
X1685Y1487D01*
X324Y1486D02*
X375Y1486D01*
X1662Y1486D02*
X1685Y1486D01*
X327Y1485D02*
X377Y1485D01*
X1662Y1485D02*
X1685Y1485D01*
X329Y1484D02*
X379Y1484D01*
X1662Y1484D02*
X1685Y1484D01*
X331Y1483D02*
X380Y1483D01*
X1662Y1483D02*
X1685Y1483D01*
X334Y1482D02*
X381Y1482D01*
X1662Y1482D02*
X1685Y1482D01*
X336Y1481D02*
X383Y1481D01*
X1663Y1481D02*
X1686Y1481D01*
X338Y1480D02*
X384Y1480D01*
X1663Y1480D02*
X1686Y1480D01*
X340Y1479D02*
X386Y1479D01*
X1663Y1479D02*
X1686Y1479D01*
X342Y1478D02*
X387Y1478D01*
X1663Y1478D02*
X1686Y1478D01*
X344Y1477D02*
X389Y1477D01*
X1663Y1477D02*
X1686Y1477D01*
X346Y1476D02*
X390Y1476D01*
X1663Y1476D02*
X1686Y1476D01*
X348Y1475D02*
X391Y1475D01*
X1663Y1475D02*
X1686Y1475D01*
X350Y1474D02*
X393Y1474D01*
X1663Y1474D02*
X1686Y1474D01*
X352Y1473D02*
X394Y1473D01*
X1663Y1473D02*
X1686Y1473D01*
X354Y1472D02*
X395Y1472D01*
X1663Y1472D02*
X1686Y1472D01*
X355Y1471D02*
X396Y1471D01*
X1663Y1471D02*
X1686Y1471D01*
X357Y1470D02*
X398Y1470D01*
X1663Y1470D02*
X1686Y1470D01*
X359Y1469D02*
X399Y1469D01*
X1663Y1469D02*
X1686Y1469D01*
X360Y1468D02*
X400Y1468D01*
X1663Y1468D02*
X1686Y1468D01*
X362Y1467D02*
X401Y1467D01*
X1663Y1467D02*
X1686Y1467D01*
X364Y1466D02*
X402Y1466D01*
X1663Y1466D02*
X1686Y1466D01*
X365Y1465D02*
X404Y1465D01*
X1663Y1465D02*
X1686Y1465D01*
X367Y1464D02*
X405Y1464D01*
X1663Y1464D02*
X1686Y1464D01*
X368Y1463D02*
X406Y1463D01*
X1663Y1463D02*
X1686Y1463D01*
X370Y1462D02*
X407Y1462D01*
X1663Y1462D02*
X1686Y1462D01*
X371Y1461D02*
X408Y1461D01*
X1663Y1461D02*
X1686Y1461D01*
X373Y1460D02*
X409Y1460D01*
X1663Y1460D02*
X1686Y1460D01*
X374Y1459D02*
X410Y1459D01*
X1663Y1459D02*
X1686Y1459D01*
X375Y1458D02*
X411Y1458D01*
X1663Y1458D02*
X1686Y1458D01*
X377Y1457D02*
X412Y1457D01*
X1664Y1457D02*
X1686Y1457D01*
X378Y1456D02*
X413Y1456D01*
X1664Y1456D02*
X1686Y1456D01*
X379Y1455D02*
X414Y1455D01*
X1663Y1455D02*
X1686Y1455D01*
X381Y1454D02*
X415Y1454D01*
X1663Y1454D02*
X1686Y1454D01*
X382Y1453D02*
X416Y1453D01*
X1663Y1453D02*
X1686Y1453D01*
X383Y1452D02*
X417Y1452D01*
X1663Y1452D02*
X1686Y1452D01*
X384Y1451D02*
X418Y1451D01*
X1663Y1451D02*
X1686Y1451D01*
X385Y1450D02*
X419Y1450D01*
X1663Y1450D02*
X1686Y1450D01*
X387Y1449D02*
X420Y1449D01*
X1663Y1449D02*
X1686Y1449D01*
X388Y1448D02*
X421Y1448D01*
X1663Y1448D02*
X1686Y1448D01*
X389Y1447D02*
X422Y1447D01*
X1663Y1447D02*
X1686Y1447D01*
X390Y1446D02*
X423Y1446D01*
X1663Y1446D02*
X1686Y1446D01*
X391Y1445D02*
X423Y1445D01*
X1663Y1445D02*
X1686Y1445D01*
X392Y1444D02*
X424Y1444D01*
X1663Y1444D02*
X1686Y1444D01*
X393Y1443D02*
X425Y1443D01*
X1663Y1443D02*
X1686Y1443D01*
X394Y1442D02*
X426Y1442D01*
X1663Y1442D02*
X1686Y1442D01*
X395Y1441D02*
X427Y1441D01*
X1663Y1441D02*
X1686Y1441D01*
X396Y1440D02*
X428Y1440D01*
X1663Y1440D02*
X1686Y1440D01*
X397Y1439D02*
X428Y1439D01*
X1663Y1439D02*
X1686Y1439D01*
X398Y1438D02*
X429Y1438D01*
X1663Y1438D02*
X1686Y1438D01*
X399Y1437D02*
X430Y1437D01*
X1663Y1437D02*
X1686Y1437D01*
X400Y1436D02*
X431Y1436D01*
X1663Y1436D02*
X1686Y1436D01*
X401Y1435D02*
X432Y1435D01*
X1663Y1435D02*
X1686Y1435D01*
X402Y1434D02*
X432Y1434D01*
X1662Y1434D02*
X1685Y1434D01*
X403Y1433D02*
X433Y1433D01*
X1662Y1433D02*
X1685Y1433D01*
X404Y1432D02*
X434Y1432D01*
X1662Y1432D02*
X1685Y1432D01*
X405Y1431D02*
X435Y1431D01*
X1662Y1431D02*
X1685Y1431D01*
X406Y1430D02*
X435Y1430D01*
X1662Y1430D02*
X1685Y1430D01*
X407Y1429D02*
X436Y1429D01*
X1662Y1429D02*
X1685Y1429D01*
X407Y1428D02*
X437Y1428D01*
X1662Y1428D02*
X1685Y1428D01*
X408Y1427D02*
X437Y1427D01*
X1662Y1427D02*
X1685Y1427D01*
X409Y1426D02*
X438Y1426D01*
X1662Y1426D02*
X1685Y1426D01*
X410Y1425D02*
X439Y1425D01*
X1661Y1425D02*
X1685Y1425D01*
X411Y1424D02*
X439Y1424D01*
X1661Y1424D02*
X1684Y1424D01*
X412Y1423D02*
X440Y1423D01*
X1661Y1423D02*
X1684Y1423D01*
X412Y1422D02*
X441Y1422D01*
X1661Y1422D02*
X1684Y1422D01*
X413Y1421D02*
X441Y1421D01*
X1661Y1421D02*
X1684Y1421D01*
X414Y1420D02*
X442Y1420D01*
X1661Y1420D02*
X1684Y1420D01*
X415Y1419D02*
X443Y1419D01*
X1661Y1419D02*
X1684Y1419D01*
X415Y1418D02*
X443Y1418D01*
X1660Y1418D02*
X1684Y1418D01*
X416Y1417D02*
X444Y1417D01*
X1660Y1417D02*
X1684Y1417D01*
X417Y1416D02*
X444Y1416D01*
X1660Y1416D02*
X1683Y1416D01*
X417Y1415D02*
X445Y1415D01*
X1660Y1415D02*
X1683Y1415D01*
X418Y1414D02*
X446Y1414D01*
X1117Y1414D02*
X1174Y1414D01*
X1660Y1414D02*
X1683Y1414D01*
X419Y1413D02*
X446Y1413D01*
X1103Y1413D02*
X1185Y1413D01*
X1660Y1413D02*
X1683Y1413D01*
X420Y1412D02*
X447Y1412D01*
X1092Y1412D02*
X1193Y1412D01*
X1659Y1412D02*
X1683Y1412D01*
X420Y1411D02*
X447Y1411D01*
X1083Y1411D02*
X1200Y1411D01*
X1659Y1411D02*
X1683Y1411D01*
X421Y1410D02*
X448Y1410D01*
X1074Y1410D02*
X1205Y1410D01*
X1659Y1410D02*
X1682Y1410D01*
X422Y1409D02*
X448Y1409D01*
X1066Y1409D02*
X1210Y1409D01*
X1659Y1409D02*
X1682Y1409D01*
X422Y1408D02*
X449Y1408D01*
X1060Y1408D02*
X1215Y1408D01*
X1659Y1408D02*
X1682Y1408D01*
X423Y1407D02*
X449Y1407D01*
X1053Y1407D02*
X1219Y1407D01*
X1658Y1407D02*
X1682Y1407D01*
X423Y1406D02*
X450Y1406D01*
X1046Y1406D02*
X1223Y1406D01*
X1658Y1406D02*
X1682Y1406D01*
X424Y1405D02*
X451Y1405D01*
X1040Y1405D02*
X1226Y1405D01*
X1658Y1405D02*
X1682Y1405D01*
X425Y1404D02*
X451Y1404D01*
X1034Y1404D02*
X1230Y1404D01*
X1658Y1404D02*
X1681Y1404D01*
X425Y1403D02*
X452Y1403D01*
X1028Y1403D02*
X1233Y1403D01*
X1658Y1403D02*
X1681Y1403D01*
X426Y1402D02*
X452Y1402D01*
X1023Y1402D02*
X1236Y1402D01*
X1657Y1402D02*
X1681Y1402D01*
X427Y1401D02*
X453Y1401D01*
X1018Y1401D02*
X1239Y1401D01*
X1657Y1401D02*
X1681Y1401D01*
X427Y1400D02*
X453Y1400D01*
X1013Y1400D02*
X1241Y1400D01*
X1657Y1400D02*
X1680Y1400D01*
X428Y1399D02*
X454Y1399D01*
X1007Y1399D02*
X1244Y1399D01*
X1657Y1399D02*
X1680Y1399D01*
X428Y1398D02*
X454Y1398D01*
X1002Y1398D02*
X1246Y1398D01*
X1656Y1398D02*
X1680Y1398D01*
X429Y1397D02*
X454Y1397D01*
X998Y1397D02*
X1248Y1397D01*
X1656Y1397D02*
X1680Y1397D01*
X429Y1396D02*
X455Y1396D01*
X993Y1396D02*
X1250Y1396D01*
X1656Y1396D02*
X1679Y1396D01*
X430Y1395D02*
X455Y1395D01*
X988Y1395D02*
X1252Y1395D01*
X1655Y1395D02*
X1679Y1395D01*
X430Y1394D02*
X456Y1394D01*
X984Y1394D02*
X1255Y1394D01*
X1655Y1394D02*
X1679Y1394D01*
X431Y1393D02*
X456Y1393D01*
X979Y1393D02*
X1257Y1393D01*
X1655Y1393D02*
X1679Y1393D01*
X431Y1392D02*
X457Y1392D01*
X975Y1392D02*
X1258Y1392D01*
X1655Y1392D02*
X1679Y1392D01*
X432Y1391D02*
X457Y1391D01*
X971Y1391D02*
X1260Y1391D01*
X1654Y1391D02*
X1678Y1391D01*
X432Y1390D02*
X458Y1390D01*
X966Y1390D02*
X1116Y1390D01*
X1174Y1390D02*
X1262Y1390D01*
X1654Y1390D02*
X1678Y1390D01*
X433Y1389D02*
X458Y1389D01*
X962Y1389D02*
X1102Y1389D01*
X1185Y1389D02*
X1264Y1389D01*
X1654Y1389D02*
X1678Y1389D01*
X433Y1388D02*
X458Y1388D01*
X958Y1388D02*
X1092Y1388D01*
X1193Y1388D02*
X1265Y1388D01*
X1653Y1388D02*
X1677Y1388D01*
X434Y1387D02*
X459Y1387D01*
X954Y1387D02*
X1083Y1387D01*
X1199Y1387D02*
X1266Y1387D01*
X1653Y1387D02*
X1677Y1387D01*
X434Y1386D02*
X459Y1386D01*
X950Y1386D02*
X1075Y1386D01*
X1205Y1386D02*
X1268Y1386D01*
X1653Y1386D02*
X1677Y1386D01*
X435Y1385D02*
X460Y1385D01*
X946Y1385D02*
X1067Y1385D01*
X1209Y1385D02*
X1269Y1385D01*
X1652Y1385D02*
X1676Y1385D01*
X435Y1384D02*
X460Y1384D01*
X942Y1384D02*
X1060Y1384D01*
X1214Y1384D02*
X1271Y1384D01*
X1652Y1384D02*
X1676Y1384D01*
X436Y1383D02*
X461Y1383D01*
X938Y1383D02*
X1053Y1383D01*
X1217Y1383D02*
X1272Y1383D01*
X1652Y1383D02*
X1676Y1383D01*
X436Y1382D02*
X461Y1382D01*
X934Y1382D02*
X1047Y1382D01*
X1221Y1382D02*
X1273Y1382D01*
X1651Y1382D02*
X1676Y1382D01*
X437Y1381D02*
X461Y1381D01*
X930Y1381D02*
X1041Y1381D01*
X1224Y1381D02*
X1275Y1381D01*
X1651Y1381D02*
X1675Y1381D01*
X437Y1380D02*
X462Y1380D01*
X926Y1380D02*
X1035Y1380D01*
X1227Y1380D02*
X1276Y1380D01*
X1651Y1380D02*
X1675Y1380D01*
X437Y1379D02*
X462Y1379D01*
X922Y1379D02*
X1029Y1379D01*
X1230Y1379D02*
X1277Y1379D01*
X1650Y1379D02*
X1675Y1379D01*
X438Y1378D02*
X462Y1378D01*
X919Y1378D02*
X1024Y1378D01*
X1233Y1378D02*
X1278Y1378D01*
X1650Y1378D02*
X1674Y1378D01*
X438Y1377D02*
X463Y1377D01*
X915Y1377D02*
X1019Y1377D01*
X1235Y1377D02*
X1279Y1377D01*
X1650Y1377D02*
X1674Y1377D01*
X439Y1376D02*
X463Y1376D01*
X911Y1376D02*
X1014Y1376D01*
X1238Y1376D02*
X1280Y1376D01*
X1649Y1376D02*
X1674Y1376D01*
X439Y1375D02*
X464Y1375D01*
X907Y1375D02*
X1009Y1375D01*
X1240Y1375D02*
X1281Y1375D01*
X1649Y1375D02*
X1673Y1375D01*
X439Y1374D02*
X464Y1374D01*
X904Y1374D02*
X1004Y1374D01*
X1242Y1374D02*
X1282Y1374D01*
X1648Y1374D02*
X1673Y1374D01*
X440Y1373D02*
X464Y1373D01*
X900Y1373D02*
X999Y1373D01*
X1244Y1373D02*
X1283Y1373D01*
X1648Y1373D02*
X1672Y1373D01*
X440Y1372D02*
X465Y1372D01*
X897Y1372D02*
X994Y1372D01*
X1246Y1372D02*
X1284Y1372D01*
X1647Y1372D02*
X1672Y1372D01*
X441Y1371D02*
X465Y1371D01*
X893Y1371D02*
X990Y1371D01*
X1248Y1371D02*
X1285Y1371D01*
X1647Y1371D02*
X1672Y1371D01*
X441Y1370D02*
X465Y1370D01*
X890Y1370D02*
X985Y1370D01*
X1249Y1370D02*
X1286Y1370D01*
X1647Y1370D02*
X1671Y1370D01*
X441Y1369D02*
X466Y1369D01*
X886Y1369D02*
X981Y1369D01*
X1251Y1369D02*
X1287Y1369D01*
X1646Y1369D02*
X1671Y1369D01*
X442Y1368D02*
X466Y1368D01*
X883Y1368D02*
X976Y1368D01*
X1253Y1368D02*
X1288Y1368D01*
X1646Y1368D02*
X1671Y1368D01*
X442Y1367D02*
X466Y1367D01*
X879Y1367D02*
X972Y1367D01*
X1254Y1367D02*
X1289Y1367D01*
X1645Y1367D02*
X1670Y1367D01*
X442Y1366D02*
X466Y1366D01*
X876Y1366D02*
X968Y1366D01*
X1256Y1366D02*
X1290Y1366D01*
X1645Y1366D02*
X1670Y1366D01*
X443Y1365D02*
X467Y1365D01*
X872Y1365D02*
X963Y1365D01*
X1257Y1365D02*
X1290Y1365D01*
X1644Y1365D02*
X1669Y1365D01*
X443Y1364D02*
X467Y1364D01*
X869Y1364D02*
X959Y1364D01*
X1259Y1364D02*
X1291Y1364D01*
X1644Y1364D02*
X1669Y1364D01*
X443Y1363D02*
X467Y1363D01*
X866Y1363D02*
X955Y1363D01*
X1260Y1363D02*
X1292Y1363D01*
X1643Y1363D02*
X1668Y1363D01*
X444Y1362D02*
X468Y1362D01*
X862Y1362D02*
X951Y1362D01*
X1261Y1362D02*
X1293Y1362D01*
X1643Y1362D02*
X1668Y1362D01*
X444Y1361D02*
X468Y1361D01*
X859Y1361D02*
X947Y1361D01*
X1262Y1361D02*
X1294Y1361D01*
X1642Y1361D02*
X1668Y1361D01*
X444Y1360D02*
X468Y1360D01*
X856Y1360D02*
X943Y1360D01*
X1264Y1360D02*
X1294Y1360D01*
X1642Y1360D02*
X1667Y1360D01*
X445Y1359D02*
X469Y1359D01*
X852Y1359D02*
X939Y1359D01*
X1265Y1359D02*
X1295Y1359D01*
X1641Y1359D02*
X1667Y1359D01*
X445Y1358D02*
X469Y1358D01*
X849Y1358D02*
X935Y1358D01*
X1266Y1358D02*
X1296Y1358D01*
X1641Y1358D02*
X1666Y1358D01*
X445Y1357D02*
X469Y1357D01*
X846Y1357D02*
X932Y1357D01*
X1267Y1357D02*
X1296Y1357D01*
X1640Y1357D02*
X1666Y1357D01*
X445Y1356D02*
X469Y1356D01*
X843Y1356D02*
X928Y1356D01*
X1268Y1356D02*
X1297Y1356D01*
X1639Y1356D02*
X1665Y1356D01*
X446Y1355D02*
X470Y1355D01*
X839Y1355D02*
X924Y1355D01*
X1269Y1355D02*
X1298Y1355D01*
X1639Y1355D02*
X1665Y1355D01*
X446Y1354D02*
X470Y1354D01*
X836Y1354D02*
X921Y1354D01*
X1270Y1354D02*
X1298Y1354D01*
X1638Y1354D02*
X1664Y1354D01*
X446Y1353D02*
X470Y1353D01*
X833Y1353D02*
X917Y1353D01*
X1271Y1353D02*
X1299Y1353D01*
X1638Y1353D02*
X1664Y1353D01*
X447Y1352D02*
X470Y1352D01*
X830Y1352D02*
X913Y1352D01*
X1272Y1352D02*
X1299Y1352D01*
X1637Y1352D02*
X1663Y1352D01*
X447Y1351D02*
X471Y1351D01*
X827Y1351D02*
X909Y1351D01*
X1272Y1351D02*
X1300Y1351D01*
X1636Y1351D02*
X1663Y1351D01*
X447Y1350D02*
X471Y1350D01*
X824Y1350D02*
X906Y1350D01*
X1273Y1350D02*
X1300Y1350D01*
X1636Y1350D02*
X1662Y1350D01*
X447Y1349D02*
X471Y1349D01*
X820Y1349D02*
X902Y1349D01*
X1274Y1349D02*
X1301Y1349D01*
X1635Y1349D02*
X1662Y1349D01*
X448Y1348D02*
X471Y1348D01*
X817Y1348D02*
X899Y1348D01*
X1275Y1348D02*
X1301Y1348D01*
X1635Y1348D02*
X1661Y1348D01*
X448Y1347D02*
X472Y1347D01*
X814Y1347D02*
X895Y1347D01*
X1275Y1347D02*
X1302Y1347D01*
X1634Y1347D02*
X1661Y1347D01*
X448Y1346D02*
X472Y1346D01*
X811Y1346D02*
X892Y1346D01*
X1276Y1346D02*
X1302Y1346D01*
X1633Y1346D02*
X1660Y1346D01*
X448Y1345D02*
X472Y1345D01*
X808Y1345D02*
X888Y1345D01*
X1277Y1345D02*
X1303Y1345D01*
X1633Y1345D02*
X1660Y1345D01*
X449Y1344D02*
X472Y1344D01*
X805Y1344D02*
X885Y1344D01*
X1277Y1344D02*
X1303Y1344D01*
X1632Y1344D02*
X1659Y1344D01*
X449Y1343D02*
X472Y1343D01*
X802Y1343D02*
X881Y1343D01*
X1278Y1343D02*
X1304Y1343D01*
X1631Y1343D02*
X1658Y1343D01*
X449Y1342D02*
X473Y1342D01*
X799Y1342D02*
X878Y1342D01*
X1278Y1342D02*
X1304Y1342D01*
X1630Y1342D02*
X1658Y1342D01*
X449Y1341D02*
X473Y1341D01*
X796Y1341D02*
X875Y1341D01*
X1279Y1341D02*
X1304Y1341D01*
X1630Y1341D02*
X1657Y1341D01*
X450Y1340D02*
X473Y1340D01*
X793Y1340D02*
X871Y1340D01*
X1280Y1340D02*
X1305Y1340D01*
X1629Y1340D02*
X1657Y1340D01*
X450Y1339D02*
X473Y1339D01*
X790Y1339D02*
X868Y1339D01*
X1280Y1339D02*
X1305Y1339D01*
X1628Y1339D02*
X1656Y1339D01*
X450Y1338D02*
X473Y1338D01*
X787Y1338D02*
X865Y1338D01*
X1281Y1338D02*
X1306Y1338D01*
X1627Y1338D02*
X1656Y1338D01*
X450Y1337D02*
X474Y1337D01*
X784Y1337D02*
X861Y1337D01*
X1281Y1337D02*
X1306Y1337D01*
X1627Y1337D02*
X1655Y1337D01*
X450Y1336D02*
X474Y1336D01*
X781Y1336D02*
X858Y1336D01*
X1282Y1336D02*
X1306Y1336D01*
X1626Y1336D02*
X1654Y1336D01*
X451Y1335D02*
X474Y1335D01*
X778Y1335D02*
X855Y1335D01*
X1282Y1335D02*
X1307Y1335D01*
X1625Y1335D02*
X1654Y1335D01*
X451Y1334D02*
X474Y1334D01*
X775Y1334D02*
X851Y1334D01*
X1282Y1334D02*
X1307Y1334D01*
X1624Y1334D02*
X1653Y1334D01*
X451Y1333D02*
X474Y1333D01*
X772Y1333D02*
X848Y1333D01*
X1283Y1333D02*
X1307Y1333D01*
X1623Y1333D02*
X1652Y1333D01*
X451Y1332D02*
X475Y1332D01*
X769Y1332D02*
X845Y1332D01*
X1283Y1332D02*
X1308Y1332D01*
X1623Y1332D02*
X1652Y1332D01*
X451Y1331D02*
X475Y1331D01*
X766Y1331D02*
X842Y1331D01*
X1284Y1331D02*
X1308Y1331D01*
X1622Y1331D02*
X1651Y1331D01*
X452Y1330D02*
X475Y1330D01*
X764Y1330D02*
X839Y1330D01*
X1284Y1330D02*
X1308Y1330D01*
X1621Y1330D02*
X1650Y1330D01*
X452Y1329D02*
X475Y1329D01*
X761Y1329D02*
X836Y1329D01*
X1284Y1329D02*
X1308Y1329D01*
X1620Y1329D02*
X1650Y1329D01*
X452Y1328D02*
X475Y1328D01*
X758Y1328D02*
X832Y1328D01*
X1285Y1328D02*
X1309Y1328D01*
X1619Y1328D02*
X1649Y1328D01*
X452Y1327D02*
X475Y1327D01*
X755Y1327D02*
X829Y1327D01*
X1285Y1327D02*
X1309Y1327D01*
X1618Y1327D02*
X1648Y1327D01*
X452Y1326D02*
X475Y1326D01*
X752Y1326D02*
X826Y1326D01*
X1285Y1326D02*
X1309Y1326D01*
X1617Y1326D02*
X1647Y1326D01*
X452Y1325D02*
X476Y1325D01*
X749Y1325D02*
X823Y1325D01*
X1286Y1325D02*
X1309Y1325D01*
X1616Y1325D02*
X1647Y1325D01*
X453Y1324D02*
X476Y1324D01*
X746Y1324D02*
X820Y1324D01*
X1286Y1324D02*
X1309Y1324D01*
X1616Y1324D02*
X1646Y1324D01*
X453Y1323D02*
X476Y1323D01*
X743Y1323D02*
X817Y1323D01*
X1286Y1323D02*
X1310Y1323D01*
X1615Y1323D02*
X1645Y1323D01*
X453Y1322D02*
X476Y1322D01*
X741Y1322D02*
X814Y1322D01*
X1286Y1322D02*
X1310Y1322D01*
X1614Y1322D02*
X1644Y1322D01*
X453Y1321D02*
X476Y1321D01*
X738Y1321D02*
X811Y1321D01*
X1287Y1321D02*
X1310Y1321D01*
X1613Y1321D02*
X1644Y1321D01*
X453Y1320D02*
X476Y1320D01*
X735Y1320D02*
X808Y1320D01*
X1287Y1320D02*
X1310Y1320D01*
X1612Y1320D02*
X1643Y1320D01*
X453Y1319D02*
X476Y1319D01*
X732Y1319D02*
X805Y1319D01*
X1287Y1319D02*
X1310Y1319D01*
X1611Y1319D02*
X1642Y1319D01*
X453Y1318D02*
X477Y1318D01*
X729Y1318D02*
X802Y1318D01*
X1287Y1318D02*
X1311Y1318D01*
X1609Y1318D02*
X1641Y1318D01*
X454Y1317D02*
X477Y1317D01*
X727Y1317D02*
X799Y1317D01*
X1288Y1317D02*
X1311Y1317D01*
X1608Y1317D02*
X1640Y1317D01*
X454Y1316D02*
X477Y1316D01*
X724Y1316D02*
X796Y1316D01*
X1288Y1316D02*
X1311Y1316D01*
X1607Y1316D02*
X1640Y1316D01*
X454Y1315D02*
X477Y1315D01*
X721Y1315D02*
X793Y1315D01*
X1288Y1315D02*
X1311Y1315D01*
X1606Y1315D02*
X1639Y1315D01*
X454Y1314D02*
X477Y1314D01*
X718Y1314D02*
X790Y1314D01*
X1288Y1314D02*
X1311Y1314D01*
X1605Y1314D02*
X1638Y1314D01*
X454Y1313D02*
X477Y1313D01*
X715Y1313D02*
X787Y1313D01*
X1288Y1313D02*
X1311Y1313D01*
X1604Y1313D02*
X1637Y1313D01*
X454Y1312D02*
X477Y1312D01*
X713Y1312D02*
X784Y1312D01*
X1288Y1312D02*
X1311Y1312D01*
X1603Y1312D02*
X1636Y1312D01*
X454Y1311D02*
X477Y1311D01*
X710Y1311D02*
X781Y1311D01*
X1288Y1311D02*
X1311Y1311D01*
X1602Y1311D02*
X1635Y1311D01*
X454Y1310D02*
X477Y1310D01*
X707Y1310D02*
X778Y1310D01*
X1289Y1310D02*
X1311Y1310D01*
X1601Y1310D02*
X1634Y1310D01*
X455Y1309D02*
X478Y1309D01*
X705Y1309D02*
X775Y1309D01*
X1289Y1309D02*
X1312Y1309D01*
X1599Y1309D02*
X1633Y1309D01*
X455Y1308D02*
X478Y1308D01*
X702Y1308D02*
X772Y1308D01*
X1289Y1308D02*
X1312Y1308D01*
X1598Y1308D02*
X1632Y1308D01*
X455Y1307D02*
X478Y1307D01*
X699Y1307D02*
X769Y1307D01*
X1289Y1307D02*
X1312Y1307D01*
X1597Y1307D02*
X1631Y1307D01*
X455Y1306D02*
X478Y1306D01*
X696Y1306D02*
X766Y1306D01*
X1289Y1306D02*
X1312Y1306D01*
X1595Y1306D02*
X1630Y1306D01*
X455Y1305D02*
X478Y1305D01*
X694Y1305D02*
X763Y1305D01*
X1289Y1305D02*
X1312Y1305D01*
X1594Y1305D02*
X1629Y1305D01*
X455Y1304D02*
X478Y1304D01*
X691Y1304D02*
X761Y1304D01*
X1289Y1304D02*
X1312Y1304D01*
X1593Y1304D02*
X1628Y1304D01*
X455Y1303D02*
X478Y1303D01*
X688Y1303D02*
X758Y1303D01*
X1289Y1303D02*
X1312Y1303D01*
X1592Y1303D02*
X1627Y1303D01*
X455Y1302D02*
X478Y1302D01*
X686Y1302D02*
X755Y1302D01*
X1289Y1302D02*
X1312Y1302D01*
X1590Y1302D02*
X1626Y1302D01*
X455Y1301D02*
X478Y1301D01*
X683Y1301D02*
X752Y1301D01*
X1289Y1301D02*
X1312Y1301D01*
X1589Y1301D02*
X1625Y1301D01*
X455Y1300D02*
X478Y1300D01*
X680Y1300D02*
X749Y1300D01*
X1289Y1300D02*
X1312Y1300D01*
X1587Y1300D02*
X1624Y1300D01*
X455Y1299D02*
X478Y1299D01*
X677Y1299D02*
X746Y1299D01*
X1289Y1299D02*
X1312Y1299D01*
X1586Y1299D02*
X1623Y1299D01*
X455Y1298D02*
X478Y1298D01*
X675Y1298D02*
X744Y1298D01*
X1289Y1298D02*
X1312Y1298D01*
X1584Y1298D02*
X1622Y1298D01*
X456Y1297D02*
X478Y1297D01*
X672Y1297D02*
X741Y1297D01*
X1289Y1297D02*
X1312Y1297D01*
X1583Y1297D02*
X1621Y1297D01*
X456Y1296D02*
X479Y1296D01*
X670Y1296D02*
X738Y1296D01*
X1289Y1296D02*
X1312Y1296D01*
X1581Y1296D02*
X1620Y1296D01*
X456Y1295D02*
X479Y1295D01*
X667Y1295D02*
X735Y1295D01*
X1289Y1295D02*
X1312Y1295D01*
X1580Y1295D02*
X1619Y1295D01*
X456Y1294D02*
X479Y1294D01*
X664Y1294D02*
X732Y1294D01*
X1289Y1294D02*
X1312Y1294D01*
X1578Y1294D02*
X1617Y1294D01*
X456Y1293D02*
X479Y1293D01*
X662Y1293D02*
X730Y1293D01*
X1289Y1293D02*
X1312Y1293D01*
X1576Y1293D02*
X1616Y1293D01*
X456Y1292D02*
X479Y1292D01*
X659Y1292D02*
X727Y1292D01*
X1289Y1292D02*
X1312Y1292D01*
X1575Y1292D02*
X1615Y1292D01*
X456Y1291D02*
X479Y1291D01*
X657Y1291D02*
X724Y1291D01*
X1289Y1291D02*
X1312Y1291D01*
X1573Y1291D02*
X1614Y1291D01*
X456Y1290D02*
X479Y1290D01*
X654Y1290D02*
X721Y1290D01*
X1289Y1290D02*
X1312Y1290D01*
X1571Y1290D02*
X1613Y1290D01*
X456Y1289D02*
X479Y1289D01*
X651Y1289D02*
X719Y1289D01*
X1288Y1289D02*
X1312Y1289D01*
X1569Y1289D02*
X1611Y1289D01*
X456Y1288D02*
X479Y1288D01*
X649Y1288D02*
X716Y1288D01*
X1288Y1288D02*
X1312Y1288D01*
X1567Y1288D02*
X1610Y1288D01*
X456Y1287D02*
X479Y1287D01*
X646Y1287D02*
X713Y1287D01*
X1288Y1287D02*
X1311Y1287D01*
X1566Y1287D02*
X1609Y1287D01*
X456Y1286D02*
X479Y1286D01*
X643Y1286D02*
X710Y1286D01*
X1288Y1286D02*
X1311Y1286D01*
X1564Y1286D02*
X1607Y1286D01*
X456Y1285D02*
X479Y1285D01*
X641Y1285D02*
X708Y1285D01*
X1288Y1285D02*
X1311Y1285D01*
X1562Y1285D02*
X1606Y1285D01*
X456Y1284D02*
X479Y1284D01*
X638Y1284D02*
X705Y1284D01*
X1288Y1284D02*
X1311Y1284D01*
X1560Y1284D02*
X1605Y1284D01*
X456Y1283D02*
X479Y1283D01*
X636Y1283D02*
X702Y1283D01*
X1288Y1283D02*
X1311Y1283D01*
X1557Y1283D02*
X1603Y1283D01*
X456Y1282D02*
X479Y1282D01*
X633Y1282D02*
X700Y1282D01*
X1288Y1282D02*
X1311Y1282D01*
X1555Y1282D02*
X1602Y1282D01*
X456Y1281D02*
X479Y1281D01*
X631Y1281D02*
X697Y1281D01*
X1288Y1281D02*
X1311Y1281D01*
X1553Y1281D02*
X1600Y1281D01*
X456Y1280D02*
X479Y1280D01*
X628Y1280D02*
X694Y1280D01*
X1287Y1280D02*
X1311Y1280D01*
X1551Y1280D02*
X1599Y1280D01*
X456Y1279D02*
X479Y1279D01*
X625Y1279D02*
X692Y1279D01*
X1287Y1279D02*
X1310Y1279D01*
X1549Y1279D02*
X1598Y1279D01*
X456Y1278D02*
X479Y1278D01*
X623Y1278D02*
X689Y1278D01*
X1287Y1278D02*
X1310Y1278D01*
X1546Y1278D02*
X1596Y1278D01*
X456Y1277D02*
X479Y1277D01*
X620Y1277D02*
X686Y1277D01*
X1287Y1277D02*
X1310Y1277D01*
X1544Y1277D02*
X1594Y1277D01*
X456Y1276D02*
X479Y1276D01*
X618Y1276D02*
X683Y1276D01*
X1287Y1276D02*
X1310Y1276D01*
X1541Y1276D02*
X1593Y1276D01*
X456Y1275D02*
X479Y1275D01*
X615Y1275D02*
X681Y1275D01*
X1287Y1275D02*
X1310Y1275D01*
X1539Y1275D02*
X1591Y1275D01*
X456Y1274D02*
X479Y1274D01*
X613Y1274D02*
X678Y1274D01*
X1286Y1274D02*
X1310Y1274D01*
X1536Y1274D02*
X1590Y1274D01*
X456Y1273D02*
X479Y1273D01*
X610Y1273D02*
X676Y1273D01*
X1286Y1273D02*
X1310Y1273D01*
X1533Y1273D02*
X1588Y1273D01*
X456Y1272D02*
X479Y1272D01*
X608Y1272D02*
X673Y1272D01*
X1286Y1272D02*
X1309Y1272D01*
X1530Y1272D02*
X1586Y1272D01*
X456Y1271D02*
X479Y1271D01*
X605Y1271D02*
X670Y1271D01*
X1286Y1271D02*
X1309Y1271D01*
X1527Y1271D02*
X1585Y1271D01*
X456Y1270D02*
X479Y1270D01*
X603Y1270D02*
X668Y1270D01*
X1286Y1270D02*
X1309Y1270D01*
X1524Y1270D02*
X1583Y1270D01*
X456Y1269D02*
X479Y1269D01*
X600Y1269D02*
X665Y1269D01*
X1285Y1269D02*
X1309Y1269D01*
X1521Y1269D02*
X1581Y1269D01*
X456Y1268D02*
X479Y1268D01*
X598Y1268D02*
X663Y1268D01*
X1285Y1268D02*
X1309Y1268D01*
X1518Y1268D02*
X1579Y1268D01*
X456Y1267D02*
X479Y1267D01*
X595Y1267D02*
X660Y1267D01*
X1285Y1267D02*
X1308Y1267D01*
X1514Y1267D02*
X1577Y1267D01*
X456Y1266D02*
X479Y1266D01*
X593Y1266D02*
X657Y1266D01*
X1284Y1266D02*
X1308Y1266D01*
X1511Y1266D02*
X1576Y1266D01*
X456Y1265D02*
X479Y1265D01*
X590Y1265D02*
X655Y1265D01*
X1284Y1265D02*
X1308Y1265D01*
X1507Y1265D02*
X1574Y1265D01*
X456Y1264D02*
X479Y1264D01*
X588Y1264D02*
X652Y1264D01*
X1284Y1264D02*
X1308Y1264D01*
X1503Y1264D02*
X1572Y1264D01*
X456Y1263D02*
X479Y1263D01*
X585Y1263D02*
X649Y1263D01*
X1284Y1263D02*
X1307Y1263D01*
X1499Y1263D02*
X1570Y1263D01*
X456Y1262D02*
X479Y1262D01*
X583Y1262D02*
X647Y1262D01*
X1283Y1262D02*
X1307Y1262D01*
X1495Y1262D02*
X1568Y1262D01*
X456Y1261D02*
X479Y1261D01*
X580Y1261D02*
X644Y1261D01*
X1283Y1261D02*
X1307Y1261D01*
X1491Y1261D02*
X1565Y1261D01*
X456Y1260D02*
X479Y1260D01*
X578Y1260D02*
X642Y1260D01*
X1283Y1260D02*
X1307Y1260D01*
X1486Y1260D02*
X1563Y1260D01*
X456Y1259D02*
X479Y1259D01*
X575Y1259D02*
X639Y1259D01*
X1282Y1259D02*
X1306Y1259D01*
X1481Y1259D02*
X1561Y1259D01*
X456Y1258D02*
X479Y1258D01*
X573Y1258D02*
X637Y1258D01*
X1282Y1258D02*
X1306Y1258D01*
X1475Y1258D02*
X1559Y1258D01*
X456Y1257D02*
X479Y1257D01*
X570Y1257D02*
X634Y1257D01*
X1187Y1257D02*
X1194Y1257D01*
X1282Y1257D02*
X1306Y1257D01*
X1469Y1257D02*
X1557Y1257D01*
X456Y1256D02*
X479Y1256D01*
X568Y1256D02*
X632Y1256D01*
X1181Y1256D02*
X1197Y1256D01*
X1281Y1256D02*
X1306Y1256D01*
X1463Y1256D02*
X1554Y1256D01*
X456Y1255D02*
X479Y1255D01*
X565Y1255D02*
X629Y1255D01*
X1177Y1255D02*
X1198Y1255D01*
X1281Y1255D02*
X1308Y1255D01*
X1455Y1255D02*
X1552Y1255D01*
X456Y1254D02*
X479Y1254D01*
X563Y1254D02*
X626Y1254D01*
X1173Y1254D02*
X1199Y1254D01*
X1281Y1254D02*
X1318Y1254D01*
X1447Y1254D02*
X1549Y1254D01*
X456Y1253D02*
X479Y1253D01*
X561Y1253D02*
X624Y1253D01*
X1170Y1253D02*
X1200Y1253D01*
X1280Y1253D02*
X1328Y1253D01*
X1437Y1253D02*
X1547Y1253D01*
X456Y1252D02*
X479Y1252D01*
X559Y1252D02*
X621Y1252D01*
X1166Y1252D02*
X1201Y1252D01*
X1280Y1252D02*
X1341Y1252D01*
X1426Y1252D02*
X1544Y1252D01*
X456Y1251D02*
X479Y1251D01*
X557Y1251D02*
X619Y1251D01*
X1163Y1251D02*
X1202Y1251D01*
X1280Y1251D02*
X1362Y1251D01*
X1407Y1251D02*
X1542Y1251D01*
X455Y1250D02*
X479Y1250D01*
X556Y1250D02*
X616Y1250D01*
X1160Y1250D02*
X1202Y1250D01*
X1279Y1250D02*
X1539Y1250D01*
X455Y1249D02*
X478Y1249D01*
X556Y1249D02*
X614Y1249D01*
X1157Y1249D02*
X1202Y1249D01*
X1279Y1249D02*
X1536Y1249D01*
X455Y1248D02*
X478Y1248D01*
X555Y1248D02*
X611Y1248D01*
X1154Y1248D02*
X1203Y1248D01*
X1279Y1248D02*
X1533Y1248D01*
X455Y1247D02*
X478Y1247D01*
X555Y1247D02*
X609Y1247D01*
X1151Y1247D02*
X1203Y1247D01*
X1279Y1247D02*
X1530Y1247D01*
X455Y1246D02*
X478Y1246D01*
X554Y1246D02*
X606Y1246D01*
X1148Y1246D02*
X1203Y1246D01*
X1278Y1246D02*
X1527Y1246D01*
X455Y1245D02*
X478Y1245D01*
X554Y1245D02*
X604Y1245D01*
X1145Y1245D02*
X1203Y1245D01*
X1278Y1245D02*
X1524Y1245D01*
X455Y1244D02*
X478Y1244D01*
X554Y1244D02*
X601Y1244D01*
X1143Y1244D02*
X1203Y1244D01*
X1278Y1244D02*
X1520Y1244D01*
X455Y1243D02*
X478Y1243D01*
X554Y1243D02*
X599Y1243D01*
X1140Y1243D02*
X1203Y1243D01*
X1279Y1243D02*
X1517Y1243D01*
X455Y1242D02*
X478Y1242D01*
X553Y1242D02*
X596Y1242D01*
X1137Y1242D02*
X1202Y1242D01*
X1279Y1242D02*
X1513Y1242D01*
X455Y1241D02*
X478Y1241D01*
X554Y1241D02*
X594Y1241D01*
X1134Y1241D02*
X1202Y1241D01*
X1279Y1241D02*
X1509Y1241D01*
X455Y1240D02*
X478Y1240D01*
X554Y1240D02*
X591Y1240D01*
X1132Y1240D02*
X1202Y1240D01*
X1280Y1240D02*
X1505Y1240D01*
X455Y1239D02*
X478Y1239D01*
X554Y1239D02*
X589Y1239D01*
X1129Y1239D02*
X1201Y1239D01*
X1280Y1239D02*
X1501Y1239D01*
X455Y1238D02*
X478Y1238D01*
X554Y1238D02*
X586Y1238D01*
X1126Y1238D02*
X1200Y1238D01*
X1281Y1238D02*
X1497Y1238D01*
X455Y1237D02*
X478Y1237D01*
X555Y1237D02*
X584Y1237D01*
X1124Y1237D02*
X1199Y1237D01*
X1282Y1237D02*
X1492Y1237D01*
X455Y1236D02*
X478Y1236D01*
X555Y1236D02*
X581Y1236D01*
X1121Y1236D02*
X1198Y1236D01*
X1283Y1236D02*
X1487Y1236D01*
X455Y1235D02*
X478Y1235D01*
X556Y1235D02*
X579Y1235D01*
X1119Y1235D02*
X1197Y1235D01*
X1285Y1235D02*
X1482Y1235D01*
X455Y1234D02*
X478Y1234D01*
X557Y1234D02*
X576Y1234D01*
X1116Y1234D02*
X1194Y1234D01*
X1287Y1234D02*
X1476Y1234D01*
X455Y1233D02*
X478Y1233D01*
X558Y1233D02*
X574Y1233D01*
X1114Y1233D02*
X1188Y1233D01*
X1293Y1233D02*
X1470Y1233D01*
X455Y1232D02*
X478Y1232D01*
X559Y1232D02*
X571Y1232D01*
X1111Y1232D02*
X1183Y1232D01*
X1300Y1232D02*
X1463Y1232D01*
X455Y1231D02*
X478Y1231D01*
X561Y1231D02*
X569Y1231D01*
X1108Y1231D02*
X1179Y1231D01*
X1308Y1231D02*
X1455Y1231D01*
X455Y1230D02*
X478Y1230D01*
X1106Y1230D02*
X1175Y1230D01*
X1318Y1230D02*
X1447Y1230D01*
X455Y1229D02*
X478Y1229D01*
X1103Y1229D02*
X1172Y1229D01*
X1328Y1229D02*
X1437Y1229D01*
X455Y1228D02*
X478Y1228D01*
X1101Y1228D02*
X1169Y1228D01*
X1341Y1228D02*
X1425Y1228D01*
X455Y1227D02*
X478Y1227D01*
X1099Y1227D02*
X1166Y1227D01*
X1363Y1227D02*
X1404Y1227D01*
X455Y1226D02*
X478Y1226D01*
X1096Y1226D02*
X1163Y1226D01*
X455Y1225D02*
X478Y1225D01*
X1094Y1225D02*
X1160Y1225D01*
X455Y1224D02*
X478Y1224D01*
X1091Y1224D02*
X1157Y1224D01*
X455Y1223D02*
X478Y1223D01*
X1089Y1223D02*
X1154Y1223D01*
X455Y1222D02*
X478Y1222D01*
X1086Y1222D02*
X1151Y1222D01*
X455Y1221D02*
X478Y1221D01*
X1084Y1221D02*
X1148Y1221D01*
X455Y1220D02*
X478Y1220D01*
X1081Y1220D02*
X1146Y1220D01*
X455Y1219D02*
X478Y1219D01*
X1079Y1219D02*
X1143Y1219D01*
X455Y1218D02*
X478Y1218D01*
X1076Y1218D02*
X1140Y1218D01*
X455Y1217D02*
X478Y1217D01*
X1074Y1217D02*
X1138Y1217D01*
X455Y1216D02*
X478Y1216D01*
X1071Y1216D02*
X1135Y1216D01*
X455Y1215D02*
X478Y1215D01*
X1069Y1215D02*
X1132Y1215D01*
X455Y1214D02*
X478Y1214D01*
X1066Y1214D02*
X1130Y1214D01*
X455Y1213D02*
X478Y1213D01*
X1064Y1213D02*
X1127Y1213D01*
X455Y1212D02*
X478Y1212D01*
X1062Y1212D02*
X1125Y1212D01*
X455Y1211D02*
X478Y1211D01*
X1059Y1211D02*
X1122Y1211D01*
X455Y1210D02*
X478Y1210D01*
X1057Y1210D02*
X1120Y1210D01*
X456Y1209D02*
X479Y1209D01*
X1054Y1209D02*
X1117Y1209D01*
X456Y1208D02*
X479Y1208D01*
X1052Y1208D02*
X1115Y1208D01*
X456Y1207D02*
X479Y1207D01*
X1049Y1207D02*
X1112Y1207D01*
X456Y1206D02*
X479Y1206D01*
X1047Y1206D02*
X1110Y1206D01*
X456Y1205D02*
X479Y1205D01*
X1044Y1205D02*
X1107Y1205D01*
X456Y1204D02*
X479Y1204D01*
X1042Y1204D02*
X1105Y1204D01*
X456Y1203D02*
X479Y1203D01*
X1040Y1203D02*
X1102Y1203D01*
X456Y1202D02*
X479Y1202D01*
X1037Y1202D02*
X1100Y1202D01*
X456Y1201D02*
X479Y1201D01*
X1035Y1201D02*
X1097Y1201D01*
X456Y1200D02*
X479Y1200D01*
X1032Y1200D02*
X1095Y1200D01*
X456Y1199D02*
X480Y1199D01*
X1030Y1199D02*
X1092Y1199D01*
X457Y1198D02*
X480Y1198D01*
X1027Y1198D02*
X1090Y1198D01*
X457Y1197D02*
X480Y1197D01*
X1025Y1197D02*
X1087Y1197D01*
X457Y1196D02*
X480Y1196D01*
X1022Y1196D02*
X1085Y1196D01*
X457Y1195D02*
X480Y1195D01*
X1020Y1195D02*
X1082Y1195D01*
X457Y1194D02*
X480Y1194D01*
X1017Y1194D02*
X1080Y1194D01*
X457Y1193D02*
X480Y1193D01*
X1015Y1193D02*
X1078Y1193D01*
X457Y1192D02*
X481Y1192D01*
X1012Y1192D02*
X1075Y1192D01*
X458Y1191D02*
X481Y1191D01*
X1010Y1191D02*
X1073Y1191D01*
X458Y1190D02*
X481Y1190D01*
X1007Y1190D02*
X1070Y1190D01*
X458Y1189D02*
X481Y1189D01*
X1005Y1189D02*
X1068Y1189D01*
X458Y1188D02*
X481Y1188D01*
X1002Y1188D02*
X1065Y1188D01*
X458Y1187D02*
X482Y1187D01*
X1000Y1187D02*
X1063Y1187D01*
X458Y1186D02*
X482Y1186D01*
X997Y1186D02*
X1060Y1186D01*
X458Y1185D02*
X482Y1185D01*
X995Y1185D02*
X1058Y1185D01*
X459Y1184D02*
X482Y1184D01*
X992Y1184D02*
X1055Y1184D01*
X459Y1183D02*
X482Y1183D01*
X990Y1183D02*
X1053Y1183D01*
X459Y1182D02*
X483Y1182D01*
X987Y1182D02*
X1051Y1182D01*
X459Y1181D02*
X483Y1181D01*
X985Y1181D02*
X1048Y1181D01*
X459Y1180D02*
X483Y1180D01*
X982Y1180D02*
X1046Y1180D01*
X460Y1179D02*
X483Y1179D01*
X980Y1179D02*
X1043Y1179D01*
X460Y1178D02*
X484Y1178D01*
X977Y1178D02*
X1041Y1178D01*
X460Y1177D02*
X484Y1177D01*
X975Y1177D02*
X1038Y1177D01*
X460Y1176D02*
X484Y1176D01*
X972Y1176D02*
X1036Y1176D01*
X461Y1175D02*
X484Y1175D01*
X970Y1175D02*
X1033Y1175D01*
X461Y1174D02*
X485Y1174D01*
X967Y1174D02*
X1031Y1174D01*
X461Y1173D02*
X485Y1173D01*
X964Y1173D02*
X1028Y1173D01*
X461Y1172D02*
X485Y1172D01*
X962Y1172D02*
X1026Y1172D01*
X462Y1171D02*
X485Y1171D01*
X959Y1171D02*
X1023Y1171D01*
X462Y1170D02*
X486Y1170D01*
X957Y1170D02*
X1021Y1170D01*
X462Y1169D02*
X486Y1169D01*
X954Y1169D02*
X1018Y1169D01*
X462Y1168D02*
X486Y1168D01*
X952Y1168D02*
X1016Y1168D01*
X463Y1167D02*
X487Y1167D01*
X949Y1167D02*
X1013Y1167D01*
X463Y1166D02*
X487Y1166D01*
X946Y1166D02*
X1011Y1166D01*
X463Y1165D02*
X487Y1165D01*
X944Y1165D02*
X1008Y1165D01*
X464Y1164D02*
X488Y1164D01*
X941Y1164D02*
X1006Y1164D01*
X464Y1163D02*
X488Y1163D01*
X938Y1163D02*
X1003Y1163D01*
X464Y1162D02*
X489Y1162D01*
X936Y1162D02*
X1001Y1162D01*
X465Y1161D02*
X489Y1161D01*
X933Y1161D02*
X998Y1161D01*
X465Y1160D02*
X489Y1160D01*
X930Y1160D02*
X996Y1160D01*
X465Y1159D02*
X490Y1159D01*
X928Y1159D02*
X993Y1159D01*
X466Y1158D02*
X490Y1158D01*
X925Y1158D02*
X991Y1158D01*
X466Y1157D02*
X491Y1157D01*
X922Y1157D02*
X988Y1157D01*
X466Y1156D02*
X491Y1156D01*
X920Y1156D02*
X986Y1156D01*
X467Y1155D02*
X492Y1155D01*
X917Y1155D02*
X983Y1155D01*
X467Y1154D02*
X492Y1154D01*
X914Y1154D02*
X981Y1154D01*
X467Y1153D02*
X492Y1153D01*
X911Y1153D02*
X978Y1153D01*
X468Y1152D02*
X493Y1152D01*
X909Y1152D02*
X976Y1152D01*
X468Y1151D02*
X493Y1151D01*
X906Y1151D02*
X973Y1151D01*
X469Y1150D02*
X494Y1150D01*
X903Y1150D02*
X970Y1150D01*
X469Y1149D02*
X495Y1149D01*
X900Y1149D02*
X968Y1149D01*
X469Y1148D02*
X495Y1148D01*
X898Y1148D02*
X965Y1148D01*
X470Y1147D02*
X496Y1147D01*
X895Y1147D02*
X963Y1147D01*
X470Y1146D02*
X496Y1146D01*
X892Y1146D02*
X960Y1146D01*
X471Y1145D02*
X497Y1145D01*
X889Y1145D02*
X958Y1145D01*
X471Y1144D02*
X497Y1144D01*
X886Y1144D02*
X955Y1144D01*
X472Y1143D02*
X498Y1143D01*
X884Y1143D02*
X952Y1143D01*
X472Y1142D02*
X499Y1142D01*
X881Y1142D02*
X950Y1142D01*
X473Y1141D02*
X499Y1141D01*
X878Y1141D02*
X947Y1141D01*
X473Y1140D02*
X500Y1140D01*
X875Y1140D02*
X944Y1140D01*
X474Y1139D02*
X501Y1139D01*
X872Y1139D02*
X942Y1139D01*
X474Y1138D02*
X501Y1138D01*
X869Y1138D02*
X939Y1138D01*
X475Y1137D02*
X502Y1137D01*
X866Y1137D02*
X936Y1137D01*
X475Y1136D02*
X503Y1136D01*
X863Y1136D02*
X934Y1136D01*
X476Y1135D02*
X503Y1135D01*
X860Y1135D02*
X931Y1135D01*
X476Y1134D02*
X504Y1134D01*
X857Y1134D02*
X928Y1134D01*
X477Y1133D02*
X505Y1133D01*
X854Y1133D02*
X926Y1133D01*
X478Y1132D02*
X506Y1132D01*
X851Y1132D02*
X923Y1132D01*
X478Y1131D02*
X507Y1131D01*
X848Y1131D02*
X920Y1131D01*
X479Y1130D02*
X507Y1130D01*
X845Y1130D02*
X917Y1130D01*
X479Y1129D02*
X508Y1129D01*
X842Y1129D02*
X915Y1129D01*
X480Y1128D02*
X509Y1128D01*
X838Y1128D02*
X912Y1128D01*
X481Y1127D02*
X510Y1127D01*
X835Y1127D02*
X909Y1127D01*
X481Y1126D02*
X511Y1126D01*
X832Y1126D02*
X906Y1126D01*
X482Y1125D02*
X512Y1125D01*
X829Y1125D02*
X903Y1125D01*
X483Y1124D02*
X513Y1124D01*
X826Y1124D02*
X901Y1124D01*
X483Y1123D02*
X514Y1123D01*
X823Y1123D02*
X898Y1123D01*
X484Y1122D02*
X515Y1122D01*
X819Y1122D02*
X895Y1122D01*
X485Y1121D02*
X516Y1121D01*
X816Y1121D02*
X892Y1121D01*
X486Y1120D02*
X517Y1120D01*
X812Y1120D02*
X889Y1120D01*
X486Y1119D02*
X518Y1119D01*
X809Y1119D02*
X887Y1119D01*
X487Y1118D02*
X519Y1118D01*
X805Y1118D02*
X884Y1118D01*
X488Y1117D02*
X521Y1117D01*
X802Y1117D02*
X881Y1117D01*
X489Y1116D02*
X522Y1116D01*
X799Y1116D02*
X878Y1116D01*
X490Y1115D02*
X523Y1115D01*
X795Y1115D02*
X875Y1115D01*
X491Y1114D02*
X524Y1114D01*
X792Y1114D02*
X872Y1114D01*
X491Y1113D02*
X526Y1113D01*
X788Y1113D02*
X869Y1113D01*
X492Y1112D02*
X527Y1112D01*
X784Y1112D02*
X866Y1112D01*
X493Y1111D02*
X529Y1111D01*
X781Y1111D02*
X863Y1111D01*
X494Y1110D02*
X530Y1110D01*
X777Y1110D02*
X860Y1110D01*
X495Y1109D02*
X532Y1109D01*
X773Y1109D02*
X857Y1109D01*
X496Y1108D02*
X534Y1108D01*
X769Y1108D02*
X854Y1108D01*
X497Y1107D02*
X535Y1107D01*
X765Y1107D02*
X851Y1107D01*
X498Y1106D02*
X537Y1106D01*
X761Y1106D02*
X847Y1106D01*
X499Y1105D02*
X539Y1105D01*
X757Y1105D02*
X844Y1105D01*
X500Y1104D02*
X541Y1104D01*
X753Y1104D02*
X841Y1104D01*
X501Y1103D02*
X543Y1103D01*
X749Y1103D02*
X838Y1103D01*
X503Y1102D02*
X545Y1102D01*
X744Y1102D02*
X835Y1102D01*
X504Y1101D02*
X548Y1101D01*
X740Y1101D02*
X832Y1101D01*
X505Y1100D02*
X550Y1100D01*
X735Y1100D02*
X828Y1100D01*
X506Y1099D02*
X553Y1099D01*
X730Y1099D02*
X825Y1099D01*
X507Y1098D02*
X556Y1098D01*
X725Y1098D02*
X822Y1098D01*
X509Y1097D02*
X559Y1097D01*
X720Y1097D02*
X818Y1097D01*
X510Y1096D02*
X562Y1096D01*
X715Y1096D02*
X815Y1096D01*
X511Y1095D02*
X565Y1095D01*
X710Y1095D02*
X811Y1095D01*
X513Y1094D02*
X569Y1094D01*
X703Y1094D02*
X808Y1094D01*
X514Y1093D02*
X573Y1093D01*
X697Y1093D02*
X804Y1093D01*
X516Y1092D02*
X577Y1092D01*
X691Y1092D02*
X801Y1092D01*
X517Y1091D02*
X582Y1091D01*
X683Y1091D02*
X797Y1091D01*
X519Y1090D02*
X588Y1090D01*
X675Y1090D02*
X794Y1090D01*
X520Y1089D02*
X596Y1089D01*
X666Y1089D02*
X790Y1089D01*
X522Y1088D02*
X606Y1088D01*
X654Y1088D02*
X786Y1088D01*
X523Y1087D02*
X783Y1087D01*
X525Y1086D02*
X779Y1086D01*
X527Y1085D02*
X775Y1085D01*
X529Y1084D02*
X771Y1084D01*
X531Y1083D02*
X767Y1083D01*
X533Y1082D02*
X763Y1082D01*
X535Y1081D02*
X759Y1081D01*
X537Y1080D02*
X754Y1080D01*
X540Y1079D02*
X750Y1079D01*
X542Y1078D02*
X746Y1078D01*
X544Y1077D02*
X741Y1077D01*
X547Y1076D02*
X736Y1076D01*
X550Y1075D02*
X731Y1075D01*
X553Y1074D02*
X726Y1074D01*
X556Y1073D02*
X721Y1073D01*
X559Y1072D02*
X715Y1072D01*
X563Y1071D02*
X710Y1071D01*
X567Y1070D02*
X703Y1070D01*
X571Y1069D02*
X697Y1069D01*
X576Y1068D02*
X690Y1068D01*
X581Y1067D02*
X683Y1067D01*
X588Y1066D02*
X674Y1066D01*
X596Y1065D02*
X663Y1065D01*
X608Y1064D02*
X649Y1064D01*
D02*
G04 End of Copper0*
M02*