; NON-PLATED HOLES START AT T1
; THROUGH (PLATED) HOLES START AT T100
M48
INCH
T1C0.039370
T100C0.031497
T101C0.039370
%
T1
X003988Y003720
X012989Y003720
X012239Y002720
X004738Y003720
X013739Y003720
X014489Y002720
X006988Y003720
X006238Y002720
X007738Y003720
X008488Y002720
X011489Y002720
X009988Y003720
X003238Y002720
X009238Y002720
X005488Y002720
X003609Y003220
X005859Y003220
X006609Y003220
X008859Y003220
X009609Y003220
X012609Y003220
X012239Y003720
X014489Y003720
X006238Y003720
X008488Y003720
X011859Y003220
X011489Y003720
X009238Y003720
X003238Y003720
X010739Y002720
X005488Y003720
X003988Y002720
X012989Y002720
X004738Y002720
X013739Y002720
X006988Y002720
X007738Y002720
X005109Y003220
X009988Y002720
X007359Y003220
X008109Y003220
X004359Y003220
X010359Y003220
X011109Y003220
X010739Y003720
X013359Y003220
X014109Y003220
T100
X011925Y012444
X004672Y012411
X012909Y012444
X005656Y012411
T101
X000909Y002363
X016710Y015155
X002195Y016857
X000814Y015128
X015580Y016902
X002215Y000797
X015600Y000842
X016805Y002390
T00
M30
