; NON-PLATED HOLES START AT T1
; THROUGH (PLATED) HOLES START AT T100
M48
INCH
T100C0.039370
T101C0.038000
T102C0.037250
T103C0.037222
%
T100
X021894Y035633
X006365Y036759
X019751Y036804
X000702Y000893
X004231Y035643
X025625Y000883
T101
X007395Y018277
X008645Y019277
X007395Y020027
X007395Y021277
X018645Y027277
X007395Y016027
X013858Y029336
X019645Y010527
X008145Y012527
X019395Y017277
X007395Y011777
X007395Y010527
X019645Y012027
X013645Y019777
X019145Y026027
X019645Y023527
X007645Y025027
X013645Y021777
X019645Y018527
X019645Y019777
X013645Y020777
X017645Y009027
X007395Y022527
X007395Y023777
X019395Y024777
X007895Y026277
X012858Y029336
X007645Y014777
X007645Y013527
X008895Y009027
X019645Y021027
X019645Y022277
X007645Y017277
X019145Y013527
X019645Y014777
X008395Y027277
X019645Y016027
T102
X016395Y014314
X010395Y014314
X016395Y017314
X010395Y017314
X016395Y018314
X016395Y012314
X010395Y018314
X010395Y012314
X016395Y019314
X016395Y013314
X010395Y019314
X010395Y013314
T103
X016395Y027314
X016395Y024314
X010395Y026314
X016395Y021314
X010395Y023314
X010395Y016314
X010395Y020314
X016395Y026314
X010395Y028314
X016395Y023314
X016395Y016314
X010395Y025314
X016395Y020314
X010395Y022314
X010395Y015314
X016395Y028314
X016395Y025314
X010395Y027314
X016395Y022314
X016395Y015314
X010395Y024314
X010395Y021314
T00
M30
