G04 MADE WITH FRITZING*
G04 WWW.FRITZING.ORG*
G04 DOUBLE SIDED*
G04 HOLES PLATED*
G04 CONTOUR ON CENTER OF CONTOUR VECTOR*
%ASAXBY*%
%FSLAX23Y23*%
%MOIN*%
%OFA0B0*%
%SFA1.0B1.0*%
%ADD10C,0.089370*%
%ADD11C,0.088000*%
%ADD12C,0.080555*%
%ADD13C,0.080583*%
%ADD14R,0.080570X0.080542*%
%LNMASK0*%
G90*
G70*
G54D10*
X70Y89D03*
X2563Y88D03*
X423Y3564D03*
X2189Y3563D03*
X1975Y3680D03*
X637Y3676D03*
G54D11*
X1365Y1978D03*
X1365Y2078D03*
X1365Y2178D03*
X1286Y2934D03*
X1386Y2934D03*
G54D12*
X1040Y2831D03*
X1040Y2731D03*
X1040Y2631D03*
X1040Y2531D03*
X1040Y2431D03*
X1040Y2331D03*
X1040Y2231D03*
X1040Y2131D03*
X1040Y2031D03*
G54D13*
X1040Y1931D03*
X1040Y1831D03*
X1040Y1731D03*
G54D12*
X1040Y1631D03*
X1040Y1531D03*
G54D13*
X1040Y1431D03*
X1040Y1331D03*
X1040Y1231D03*
G54D12*
X1640Y2831D03*
X1640Y2731D03*
X1640Y2631D03*
X1640Y2531D03*
X1640Y2431D03*
X1640Y2331D03*
X1640Y2031D03*
G54D13*
X1640Y1931D03*
G54D12*
X1640Y2131D03*
X1640Y2231D03*
G54D13*
X1640Y1831D03*
X1640Y1731D03*
G54D12*
X1640Y1631D03*
X1640Y1531D03*
G54D13*
X1640Y1431D03*
X1640Y1331D03*
X1640Y1231D03*
G54D11*
X740Y2128D03*
X740Y2128D03*
X815Y1253D03*
X815Y1253D03*
X740Y1603D03*
X740Y1603D03*
X740Y1053D03*
X740Y1053D03*
X890Y903D03*
X890Y903D03*
X740Y1828D03*
X740Y1828D03*
X740Y2378D03*
X740Y2378D03*
X740Y1178D03*
X740Y1178D03*
X765Y1353D03*
X765Y1353D03*
X765Y1728D03*
X765Y1728D03*
X740Y2253D03*
X740Y2253D03*
X740Y2003D03*
X740Y2003D03*
X765Y1478D03*
X765Y1478D03*
X840Y2728D03*
X840Y2728D03*
X765Y2503D03*
X765Y2503D03*
X865Y1928D03*
X865Y1928D03*
X1965Y2228D03*
X1965Y2228D03*
X1965Y2353D03*
X1965Y2353D03*
X1965Y1603D03*
X1965Y1603D03*
X1965Y1978D03*
X1965Y1978D03*
X1915Y2603D03*
X1915Y2603D03*
X1865Y2728D03*
X1865Y2728D03*
X1940Y2478D03*
X1940Y2478D03*
X1965Y2103D03*
X1965Y2103D03*
X1965Y1853D03*
X1965Y1853D03*
X1940Y1728D03*
X1940Y1728D03*
X790Y2628D03*
X790Y2628D03*
X1915Y1353D03*
X1915Y1353D03*
X1965Y1478D03*
X1965Y1478D03*
X1765Y903D03*
X1765Y903D03*
X1965Y1203D03*
X1965Y1203D03*
X1965Y1053D03*
X1965Y1053D03*
G54D14*
X1040Y2831D03*
G04 End of Mask0*
M02*