G04 MADE WITH FRITZING*
G04 WWW.FRITZING.ORG*
G04 DOUBLE SIDED*
G04 HOLES PLATED*
G04 CONTOUR ON CENTER OF CONTOUR VECTOR*
%ASAXBY*%
%FSLAX23Y23*%
%MOIN*%
%OFA0B0*%
%SFA1.0B1.0*%
%ADD10C,0.079370*%
%ADD11C,0.078000*%
%ADD12C,0.070555*%
%ADD13C,0.070583*%
%ADD14R,0.070570X0.070542*%
%ADD15R,0.001000X0.001000*%
%LNCOPPER0*%
G90*
G70*
G54D10*
X70Y89D03*
X2563Y88D03*
X423Y3564D03*
X2189Y3563D03*
X1975Y3680D03*
X637Y3676D03*
G54D11*
X1365Y1978D03*
X1365Y2078D03*
X1365Y2178D03*
X1286Y2934D03*
X1386Y2934D03*
G54D12*
X1040Y2831D03*
X1040Y2731D03*
X1040Y2631D03*
X1040Y2531D03*
X1040Y2431D03*
X1040Y2331D03*
X1040Y2231D03*
X1040Y2131D03*
X1040Y2031D03*
G54D13*
X1040Y1931D03*
X1040Y1831D03*
X1040Y1731D03*
G54D12*
X1040Y1631D03*
X1040Y1531D03*
G54D13*
X1040Y1431D03*
X1040Y1331D03*
X1040Y1231D03*
G54D12*
X1640Y2831D03*
X1640Y2731D03*
X1640Y2631D03*
X1640Y2531D03*
X1640Y2431D03*
X1640Y2331D03*
X1640Y2031D03*
G54D13*
X1640Y1931D03*
G54D12*
X1640Y2131D03*
X1640Y2231D03*
G54D13*
X1640Y1831D03*
X1640Y1731D03*
G54D12*
X1640Y1631D03*
X1640Y1531D03*
G54D13*
X1640Y1431D03*
X1640Y1331D03*
X1640Y1231D03*
G54D11*
X740Y2128D03*
X740Y2128D03*
X815Y1253D03*
X815Y1253D03*
X740Y1603D03*
X740Y1603D03*
X740Y1053D03*
X740Y1053D03*
X890Y903D03*
X890Y903D03*
X740Y1828D03*
X740Y1828D03*
X740Y2378D03*
X740Y2378D03*
X740Y1178D03*
X740Y1178D03*
X765Y1353D03*
X765Y1353D03*
X765Y1728D03*
X765Y1728D03*
X740Y2253D03*
X740Y2253D03*
X740Y2003D03*
X740Y2003D03*
X765Y1478D03*
X765Y1478D03*
X840Y2728D03*
X840Y2728D03*
X765Y2503D03*
X765Y2503D03*
X865Y1928D03*
X865Y1928D03*
X1965Y2228D03*
X1965Y2228D03*
X1965Y2353D03*
X1965Y2353D03*
X1965Y1603D03*
X1965Y1603D03*
X1965Y1978D03*
X1965Y1978D03*
X1915Y2603D03*
X1915Y2603D03*
X1865Y2728D03*
X1865Y2728D03*
X1940Y2478D03*
X1940Y2478D03*
X1965Y2103D03*
X1965Y2103D03*
X1965Y1853D03*
X1965Y1853D03*
X1940Y1728D03*
X1940Y1728D03*
X790Y2628D03*
X790Y2628D03*
X1915Y1353D03*
X1915Y1353D03*
X1965Y1478D03*
X1965Y1478D03*
X1765Y903D03*
X1765Y903D03*
X1965Y1203D03*
X1965Y1203D03*
X1965Y1053D03*
X1965Y1053D03*
G54D14*
X1040Y2831D03*
G54D15*
X1485Y2963D02*
X1520Y2963D01*
X1471Y2962D02*
X1534Y2962D01*
X1460Y2961D02*
X1543Y2961D01*
X1452Y2960D02*
X1550Y2960D01*
X1445Y2959D02*
X1557Y2959D01*
X1438Y2958D02*
X1562Y2958D01*
X1432Y2957D02*
X1567Y2957D01*
X1426Y2956D02*
X1571Y2956D01*
X1421Y2955D02*
X1576Y2955D01*
X1416Y2954D02*
X1580Y2954D01*
X1411Y2953D02*
X1583Y2953D01*
X1406Y2952D02*
X1587Y2952D01*
X1402Y2951D02*
X1590Y2951D01*
X1398Y2950D02*
X1593Y2950D01*
X1394Y2949D02*
X1596Y2949D01*
X1390Y2948D02*
X1599Y2948D01*
X1386Y2947D02*
X1601Y2947D01*
X1282Y2946D02*
X1288Y2946D01*
X1382Y2946D02*
X1604Y2946D01*
X1280Y2945D02*
X1290Y2945D01*
X1380Y2945D02*
X1607Y2945D01*
X1278Y2944D02*
X1292Y2944D01*
X1378Y2944D02*
X1609Y2944D01*
X1277Y2943D02*
X1293Y2943D01*
X1377Y2943D02*
X1612Y2943D01*
X1276Y2942D02*
X1294Y2942D01*
X1376Y2942D02*
X1614Y2942D01*
X1275Y2941D02*
X1295Y2941D01*
X1375Y2941D02*
X1616Y2941D01*
X1275Y2940D02*
X1295Y2940D01*
X1375Y2940D02*
X1618Y2940D01*
X1274Y2939D02*
X1296Y2939D01*
X1374Y2939D02*
X1481Y2939D01*
X1524Y2939D02*
X1621Y2939D01*
X1274Y2938D02*
X1296Y2938D01*
X1374Y2938D02*
X1468Y2938D01*
X1535Y2938D02*
X1623Y2938D01*
X1274Y2937D02*
X1296Y2937D01*
X1374Y2937D02*
X1459Y2937D01*
X1544Y2937D02*
X1625Y2937D01*
X1274Y2936D02*
X1296Y2936D01*
X1374Y2936D02*
X1451Y2936D01*
X1550Y2936D02*
X1627Y2936D01*
X1273Y2935D02*
X1296Y2935D01*
X1374Y2935D02*
X1444Y2935D01*
X1556Y2935D02*
X1629Y2935D01*
X1273Y2934D02*
X1296Y2934D01*
X1373Y2934D02*
X1438Y2934D01*
X1561Y2934D02*
X1631Y2934D01*
X1273Y2933D02*
X1296Y2933D01*
X1374Y2933D02*
X1432Y2933D01*
X1565Y2933D02*
X1633Y2933D01*
X1272Y2932D02*
X1296Y2932D01*
X1374Y2932D02*
X1427Y2932D01*
X1570Y2932D02*
X1634Y2932D01*
X1272Y2931D02*
X1296Y2931D01*
X1374Y2931D02*
X1422Y2931D01*
X1574Y2931D02*
X1636Y2931D01*
X1272Y2930D02*
X1296Y2930D01*
X1374Y2930D02*
X1417Y2930D01*
X1577Y2930D02*
X1638Y2930D01*
X1272Y2929D02*
X1295Y2929D01*
X1375Y2929D02*
X1412Y2929D01*
X1581Y2929D02*
X1640Y2929D01*
X1271Y2928D02*
X1295Y2928D01*
X1375Y2928D02*
X1408Y2928D01*
X1584Y2928D02*
X1641Y2928D01*
X1271Y2927D02*
X1295Y2927D01*
X1376Y2927D02*
X1404Y2927D01*
X1587Y2927D02*
X1643Y2927D01*
X1271Y2926D02*
X1295Y2926D01*
X1377Y2926D02*
X1400Y2926D01*
X1590Y2926D02*
X1645Y2926D01*
X1271Y2925D02*
X1294Y2925D01*
X1378Y2925D02*
X1396Y2925D01*
X1593Y2925D02*
X1646Y2925D01*
X1270Y2924D02*
X1294Y2924D01*
X1380Y2924D02*
X1392Y2924D01*
X1596Y2924D02*
X1648Y2924D01*
X1270Y2923D02*
X1294Y2923D01*
X1382Y2923D02*
X1388Y2923D01*
X1598Y2923D02*
X1649Y2923D01*
X1270Y2922D02*
X1294Y2922D01*
X1601Y2922D02*
X1651Y2922D01*
X1270Y2921D02*
X1293Y2921D01*
X1603Y2921D02*
X1652Y2921D01*
X1269Y2920D02*
X1293Y2920D01*
X1606Y2920D02*
X1654Y2920D01*
X1269Y2919D02*
X1293Y2919D01*
X1608Y2919D02*
X1655Y2919D01*
X1269Y2918D02*
X1293Y2918D01*
X1610Y2918D02*
X1657Y2918D01*
X1269Y2917D02*
X1292Y2917D01*
X1612Y2917D02*
X1658Y2917D01*
X1268Y2916D02*
X1292Y2916D01*
X1615Y2916D02*
X1660Y2916D01*
X1268Y2915D02*
X1292Y2915D01*
X1617Y2915D02*
X1661Y2915D01*
X1268Y2914D02*
X1292Y2914D01*
X1619Y2914D02*
X1662Y2914D01*
X1268Y2913D02*
X1291Y2913D01*
X1620Y2913D02*
X1664Y2913D01*
X1267Y2912D02*
X1291Y2912D01*
X1622Y2912D02*
X1665Y2912D01*
X1267Y2911D02*
X1291Y2911D01*
X1624Y2911D02*
X1666Y2911D01*
X1267Y2910D02*
X1291Y2910D01*
X1626Y2910D02*
X1668Y2910D01*
X1267Y2909D02*
X1290Y2909D01*
X1628Y2909D02*
X1669Y2909D01*
X1266Y2908D02*
X1290Y2908D01*
X1630Y2908D02*
X1670Y2908D01*
X1266Y2907D02*
X1290Y2907D01*
X1631Y2907D02*
X1671Y2907D01*
X1266Y2906D02*
X1290Y2906D01*
X1633Y2906D02*
X1673Y2906D01*
X1266Y2905D02*
X1289Y2905D01*
X1634Y2905D02*
X1674Y2905D01*
X1266Y2904D02*
X1289Y2904D01*
X1636Y2904D02*
X1675Y2904D01*
X1265Y2903D02*
X1289Y2903D01*
X1638Y2903D02*
X1676Y2903D01*
X1265Y2902D02*
X1289Y2902D01*
X1639Y2902D02*
X1677Y2902D01*
X1265Y2901D02*
X1288Y2901D01*
X1641Y2901D02*
X1678Y2901D01*
X1265Y2900D02*
X1288Y2900D01*
X1642Y2900D02*
X1680Y2900D01*
X1264Y2899D02*
X1288Y2899D01*
X1644Y2899D02*
X1681Y2899D01*
X1264Y2898D02*
X1288Y2898D01*
X1645Y2898D02*
X1682Y2898D01*
X1264Y2897D02*
X1288Y2897D01*
X1646Y2897D02*
X1683Y2897D01*
X1264Y2896D02*
X1287Y2896D01*
X1648Y2896D02*
X1684Y2896D01*
X1263Y2895D02*
X1287Y2895D01*
X1649Y2895D02*
X1685Y2895D01*
X1263Y2894D02*
X1287Y2894D01*
X1650Y2894D02*
X1686Y2894D01*
X1263Y2893D02*
X1287Y2893D01*
X1652Y2893D02*
X1687Y2893D01*
X1263Y2892D02*
X1286Y2892D01*
X1653Y2892D02*
X1688Y2892D01*
X1262Y2891D02*
X1286Y2891D01*
X1654Y2891D02*
X1689Y2891D01*
X1262Y2890D02*
X1286Y2890D01*
X1655Y2890D02*
X1690Y2890D01*
X1262Y2889D02*
X1286Y2889D01*
X1657Y2889D02*
X1691Y2889D01*
X1262Y2888D02*
X1285Y2888D01*
X1658Y2888D02*
X1692Y2888D01*
X1261Y2887D02*
X1285Y2887D01*
X1659Y2887D02*
X1693Y2887D01*
X1261Y2886D02*
X1285Y2886D01*
X1660Y2886D02*
X1694Y2886D01*
X1261Y2885D02*
X1285Y2885D01*
X1661Y2885D02*
X1695Y2885D01*
X1261Y2884D02*
X1284Y2884D01*
X1663Y2884D02*
X1696Y2884D01*
X1260Y2883D02*
X1284Y2883D01*
X1664Y2883D02*
X1697Y2883D01*
X1260Y2882D02*
X1284Y2882D01*
X1665Y2882D02*
X1698Y2882D01*
X1260Y2881D02*
X1284Y2881D01*
X1666Y2881D02*
X1699Y2881D01*
X1260Y2880D02*
X1283Y2880D01*
X1667Y2880D02*
X1700Y2880D01*
X1260Y2879D02*
X1283Y2879D01*
X1668Y2879D02*
X1701Y2879D01*
X1259Y2878D02*
X1283Y2878D01*
X1669Y2878D02*
X1701Y2878D01*
X1259Y2877D02*
X1283Y2877D01*
X1670Y2877D02*
X1702Y2877D01*
X1259Y2876D02*
X1282Y2876D01*
X1671Y2876D02*
X1703Y2876D01*
X1259Y2875D02*
X1282Y2875D01*
X1672Y2875D02*
X1704Y2875D01*
X1258Y2874D02*
X1282Y2874D01*
X1673Y2874D02*
X1705Y2874D01*
X1258Y2873D02*
X1282Y2873D01*
X1674Y2873D02*
X1706Y2873D01*
X1258Y2872D02*
X1282Y2872D01*
X1675Y2872D02*
X1707Y2872D01*
X1258Y2871D02*
X1281Y2871D01*
X1676Y2871D02*
X1707Y2871D01*
X1257Y2870D02*
X1281Y2870D01*
X1677Y2870D02*
X1708Y2870D01*
X1257Y2869D02*
X1281Y2869D01*
X1678Y2869D02*
X1709Y2869D01*
X1257Y2868D02*
X1281Y2868D01*
X1679Y2868D02*
X1710Y2868D01*
X1257Y2867D02*
X1280Y2867D01*
X1680Y2867D02*
X1711Y2867D01*
X1256Y2866D02*
X1280Y2866D01*
X1681Y2866D02*
X1712Y2866D01*
X1256Y2865D02*
X1280Y2865D01*
X1682Y2865D02*
X1712Y2865D01*
X1256Y2864D02*
X1280Y2864D01*
X1683Y2864D02*
X1713Y2864D01*
X1256Y2863D02*
X1279Y2863D01*
X1684Y2863D02*
X1714Y2863D01*
X1256Y2862D02*
X1279Y2862D01*
X1685Y2862D02*
X1715Y2862D01*
X1255Y2861D02*
X1279Y2861D01*
X1685Y2861D02*
X1715Y2861D01*
X1255Y2860D02*
X1279Y2860D01*
X1686Y2860D02*
X1716Y2860D01*
X1255Y2859D02*
X1278Y2859D01*
X1687Y2859D02*
X1717Y2859D01*
X1255Y2858D02*
X1278Y2858D01*
X1688Y2858D02*
X1718Y2858D01*
X1254Y2857D02*
X1278Y2857D01*
X1689Y2857D02*
X1718Y2857D01*
X1254Y2856D02*
X1278Y2856D01*
X1690Y2856D02*
X1719Y2856D01*
X1254Y2855D02*
X1278Y2855D01*
X1691Y2855D02*
X1720Y2855D01*
X1254Y2854D02*
X1277Y2854D01*
X1691Y2854D02*
X1721Y2854D01*
X1253Y2853D02*
X1277Y2853D01*
X1692Y2853D02*
X1721Y2853D01*
X1253Y2852D02*
X1277Y2852D01*
X1693Y2852D02*
X1722Y2852D01*
X1253Y2851D02*
X1277Y2851D01*
X1694Y2851D02*
X1723Y2851D01*
X1253Y2850D02*
X1276Y2850D01*
X1695Y2850D02*
X1723Y2850D01*
X1253Y2849D02*
X1276Y2849D01*
X1695Y2849D02*
X1724Y2849D01*
X1252Y2848D02*
X1276Y2848D01*
X1696Y2848D02*
X1725Y2848D01*
X1252Y2847D02*
X1276Y2847D01*
X1697Y2847D02*
X1725Y2847D01*
X1252Y2846D02*
X1275Y2846D01*
X1698Y2846D02*
X1726Y2846D01*
X1252Y2845D02*
X1275Y2845D01*
X1698Y2845D02*
X1727Y2845D01*
X1251Y2844D02*
X1275Y2844D01*
X1699Y2844D02*
X1727Y2844D01*
X1251Y2843D02*
X1275Y2843D01*
X1700Y2843D02*
X1728Y2843D01*
X1251Y2842D02*
X1275Y2842D01*
X1701Y2842D02*
X1729Y2842D01*
X1251Y2841D02*
X1274Y2841D01*
X1701Y2841D02*
X1729Y2841D01*
X1250Y2840D02*
X1274Y2840D01*
X1702Y2840D02*
X1730Y2840D01*
X1250Y2839D02*
X1274Y2839D01*
X1703Y2839D02*
X1731Y2839D01*
X1250Y2838D02*
X1274Y2838D01*
X1703Y2838D02*
X1731Y2838D01*
X1250Y2837D02*
X1273Y2837D01*
X1704Y2837D02*
X1732Y2837D01*
X1250Y2836D02*
X1273Y2836D01*
X1705Y2836D02*
X1732Y2836D01*
X1249Y2835D02*
X1273Y2835D01*
X1705Y2835D02*
X1733Y2835D01*
X1249Y2834D02*
X1273Y2834D01*
X1706Y2834D02*
X1734Y2834D01*
X1249Y2833D02*
X1273Y2833D01*
X1707Y2833D02*
X1734Y2833D01*
X1249Y2832D02*
X1272Y2832D01*
X1708Y2832D02*
X1735Y2832D01*
X1248Y2831D02*
X1272Y2831D01*
X1708Y2831D02*
X1736Y2831D01*
X1248Y2830D02*
X1272Y2830D01*
X1709Y2830D02*
X1736Y2830D01*
X1248Y2829D02*
X1272Y2829D01*
X1710Y2829D02*
X1737Y2829D01*
X1248Y2828D02*
X1271Y2828D01*
X1710Y2828D02*
X1737Y2828D01*
X1248Y2827D02*
X1271Y2827D01*
X1711Y2827D02*
X1738Y2827D01*
X1247Y2826D02*
X1271Y2826D01*
X1712Y2826D02*
X1739Y2826D01*
X1247Y2825D02*
X1271Y2825D01*
X1712Y2825D02*
X1739Y2825D01*
X1247Y2824D02*
X1270Y2824D01*
X1713Y2824D02*
X1740Y2824D01*
X1247Y2823D02*
X1270Y2823D01*
X1713Y2823D02*
X1740Y2823D01*
X1246Y2822D02*
X1270Y2822D01*
X1714Y2822D02*
X1741Y2822D01*
X1246Y2821D02*
X1270Y2821D01*
X1715Y2821D02*
X1741Y2821D01*
X1246Y2820D02*
X1270Y2820D01*
X1715Y2820D02*
X1742Y2820D01*
X1246Y2819D02*
X1269Y2819D01*
X1716Y2819D02*
X1742Y2819D01*
X1245Y2818D02*
X1269Y2818D01*
X1716Y2818D02*
X1743Y2818D01*
X1245Y2817D02*
X1269Y2817D01*
X1717Y2817D02*
X1744Y2817D01*
X1245Y2816D02*
X1269Y2816D01*
X1718Y2816D02*
X1744Y2816D01*
X1245Y2815D02*
X1268Y2815D01*
X1718Y2815D02*
X1745Y2815D01*
X1245Y2814D02*
X1268Y2814D01*
X1719Y2814D02*
X1745Y2814D01*
X1244Y2813D02*
X1268Y2813D01*
X1720Y2813D02*
X1746Y2813D01*
X1244Y2812D02*
X1268Y2812D01*
X1720Y2812D02*
X1746Y2812D01*
X1244Y2811D02*
X1268Y2811D01*
X1721Y2811D02*
X1747Y2811D01*
X1244Y2810D02*
X1267Y2810D01*
X1721Y2810D02*
X1747Y2810D01*
X1244Y2809D02*
X1267Y2809D01*
X1722Y2809D02*
X1748Y2809D01*
X1243Y2808D02*
X1267Y2808D01*
X1722Y2808D02*
X1748Y2808D01*
X1243Y2807D02*
X1267Y2807D01*
X1723Y2807D02*
X1749Y2807D01*
X1243Y2806D02*
X1266Y2806D01*
X1723Y2806D02*
X1749Y2806D01*
X1243Y2805D02*
X1266Y2805D01*
X1724Y2805D02*
X1750Y2805D01*
X1242Y2804D02*
X1266Y2804D01*
X1724Y2804D02*
X1750Y2804D01*
X1242Y2803D02*
X1266Y2803D01*
X1725Y2803D02*
X1751Y2803D01*
X1242Y2802D02*
X1266Y2802D01*
X1726Y2802D02*
X1751Y2802D01*
X1242Y2801D02*
X1265Y2801D01*
X1726Y2801D02*
X1752Y2801D01*
X1242Y2800D02*
X1265Y2800D01*
X1727Y2800D02*
X1752Y2800D01*
X1241Y2799D02*
X1265Y2799D01*
X1727Y2799D02*
X1753Y2799D01*
X1241Y2798D02*
X1265Y2798D01*
X1728Y2798D02*
X1753Y2798D01*
X1241Y2797D02*
X1264Y2797D01*
X1728Y2797D02*
X1754Y2797D01*
X1241Y2796D02*
X1264Y2796D01*
X1729Y2796D02*
X1754Y2796D01*
X1240Y2795D02*
X1264Y2795D01*
X1729Y2795D02*
X1755Y2795D01*
X1240Y2794D02*
X1264Y2794D01*
X1730Y2794D02*
X1755Y2794D01*
X1240Y2793D02*
X1264Y2793D01*
X1730Y2793D02*
X1756Y2793D01*
X1240Y2792D02*
X1263Y2792D01*
X1731Y2792D02*
X1756Y2792D01*
X1240Y2791D02*
X1263Y2791D01*
X1731Y2791D02*
X1757Y2791D01*
X1239Y2790D02*
X1263Y2790D01*
X1732Y2790D02*
X1757Y2790D01*
X1239Y2789D02*
X1263Y2789D01*
X1732Y2789D02*
X1758Y2789D01*
X1239Y2788D02*
X1262Y2788D01*
X1733Y2788D02*
X1758Y2788D01*
X1239Y2787D02*
X1262Y2787D01*
X1733Y2787D02*
X1759Y2787D01*
X1239Y2786D02*
X1262Y2786D01*
X1734Y2786D02*
X1759Y2786D01*
X1238Y2785D02*
X1262Y2785D01*
X1734Y2785D02*
X1759Y2785D01*
X1238Y2784D02*
X1262Y2784D01*
X1735Y2784D02*
X1760Y2784D01*
X1238Y2783D02*
X1261Y2783D01*
X1735Y2783D02*
X1760Y2783D01*
X1238Y2782D02*
X1261Y2782D01*
X1736Y2782D02*
X1761Y2782D01*
X1237Y2781D02*
X1261Y2781D01*
X1736Y2781D02*
X1761Y2781D01*
X1237Y2780D02*
X1261Y2780D01*
X1737Y2780D02*
X1762Y2780D01*
X1237Y2779D02*
X1261Y2779D01*
X1737Y2779D02*
X1762Y2779D01*
X1237Y2778D02*
X1260Y2778D01*
X1737Y2778D02*
X1763Y2778D01*
X1237Y2777D02*
X1260Y2777D01*
X1738Y2777D02*
X1763Y2777D01*
X1236Y2776D02*
X1260Y2776D01*
X1738Y2776D02*
X1763Y2776D01*
X1236Y2775D02*
X1260Y2775D01*
X1739Y2775D02*
X1764Y2775D01*
X1236Y2774D02*
X1259Y2774D01*
X1739Y2774D02*
X1764Y2774D01*
X1236Y2773D02*
X1259Y2773D01*
X1740Y2773D02*
X1765Y2773D01*
X1235Y2772D02*
X1259Y2772D01*
X1740Y2772D02*
X1765Y2772D01*
X1235Y2771D02*
X1259Y2771D01*
X1741Y2771D02*
X1765Y2771D01*
X1235Y2770D02*
X1259Y2770D01*
X1741Y2770D02*
X1766Y2770D01*
X1235Y2769D02*
X1258Y2769D01*
X1741Y2769D02*
X1766Y2769D01*
X1235Y2768D02*
X1258Y2768D01*
X1742Y2768D02*
X1767Y2768D01*
X1234Y2767D02*
X1258Y2767D01*
X1742Y2767D02*
X1767Y2767D01*
X1234Y2766D02*
X1258Y2766D01*
X1743Y2766D02*
X1767Y2766D01*
X1234Y2765D02*
X1257Y2765D01*
X1743Y2765D02*
X1768Y2765D01*
X1234Y2764D02*
X1257Y2764D01*
X1744Y2764D02*
X1768Y2764D01*
X1234Y2763D02*
X1257Y2763D01*
X1744Y2763D02*
X1769Y2763D01*
X1233Y2762D02*
X1257Y2762D01*
X1744Y2762D02*
X1769Y2762D01*
X1233Y2761D02*
X1257Y2761D01*
X1745Y2761D02*
X1769Y2761D01*
X1233Y2760D02*
X1256Y2760D01*
X1745Y2760D02*
X1770Y2760D01*
X1233Y2759D02*
X1256Y2759D01*
X1746Y2759D02*
X1770Y2759D01*
X1232Y2758D02*
X1256Y2758D01*
X1746Y2758D02*
X1771Y2758D01*
X1232Y2757D02*
X1256Y2757D01*
X1746Y2757D02*
X1771Y2757D01*
X1232Y2756D02*
X1256Y2756D01*
X1747Y2756D02*
X1771Y2756D01*
X1232Y2755D02*
X1255Y2755D01*
X1747Y2755D02*
X1772Y2755D01*
X1232Y2754D02*
X1255Y2754D01*
X1748Y2754D02*
X1772Y2754D01*
X1231Y2753D02*
X1255Y2753D01*
X1748Y2753D02*
X1772Y2753D01*
X1231Y2752D02*
X1255Y2752D01*
X1748Y2752D02*
X1773Y2752D01*
X1231Y2751D02*
X1255Y2751D01*
X1749Y2751D02*
X1773Y2751D01*
X1231Y2750D02*
X1254Y2750D01*
X1749Y2750D02*
X1774Y2750D01*
X1231Y2749D02*
X1254Y2749D01*
X1750Y2749D02*
X1774Y2749D01*
X1230Y2748D02*
X1254Y2748D01*
X1750Y2748D02*
X1774Y2748D01*
X1230Y2747D02*
X1254Y2747D01*
X1750Y2747D02*
X1775Y2747D01*
X1230Y2746D02*
X1253Y2746D01*
X1751Y2746D02*
X1775Y2746D01*
X1230Y2745D02*
X1253Y2745D01*
X1751Y2745D02*
X1775Y2745D01*
X1230Y2744D02*
X1253Y2744D01*
X1751Y2744D02*
X1776Y2744D01*
X1229Y2743D02*
X1253Y2743D01*
X1752Y2743D02*
X1776Y2743D01*
X1229Y2742D02*
X1253Y2742D01*
X1752Y2742D02*
X1776Y2742D01*
X1229Y2741D02*
X1252Y2741D01*
X1752Y2741D02*
X1777Y2741D01*
X1229Y2740D02*
X1252Y2740D01*
X1753Y2740D02*
X1777Y2740D01*
X1229Y2739D02*
X1252Y2739D01*
X1753Y2739D02*
X1777Y2739D01*
X1228Y2738D02*
X1252Y2738D01*
X1754Y2738D02*
X1778Y2738D01*
X1228Y2737D02*
X1252Y2737D01*
X1754Y2737D02*
X1778Y2737D01*
X1228Y2736D02*
X1251Y2736D01*
X1754Y2736D02*
X1778Y2736D01*
X1228Y2735D02*
X1251Y2735D01*
X1755Y2735D02*
X1779Y2735D01*
X1228Y2734D02*
X1251Y2734D01*
X1755Y2734D02*
X1779Y2734D01*
X1227Y2733D02*
X1251Y2733D01*
X1755Y2733D02*
X1779Y2733D01*
X1227Y2732D02*
X1251Y2732D01*
X1756Y2732D02*
X1780Y2732D01*
X1227Y2731D02*
X1250Y2731D01*
X1756Y2731D02*
X1780Y2731D01*
X1227Y2730D02*
X1250Y2730D01*
X1756Y2730D02*
X1780Y2730D01*
X1226Y2729D02*
X1250Y2729D01*
X1757Y2729D02*
X1781Y2729D01*
X1226Y2728D02*
X1250Y2728D01*
X1757Y2728D02*
X1781Y2728D01*
X1226Y2727D02*
X1250Y2727D01*
X1757Y2727D02*
X1781Y2727D01*
X1226Y2726D02*
X1249Y2726D01*
X1758Y2726D02*
X1782Y2726D01*
X1226Y2725D02*
X1249Y2725D01*
X1758Y2725D02*
X1782Y2725D01*
X1225Y2724D02*
X1249Y2724D01*
X1758Y2724D02*
X1782Y2724D01*
X1225Y2723D02*
X1249Y2723D01*
X1759Y2723D02*
X1783Y2723D01*
X1225Y2722D02*
X1249Y2722D01*
X1759Y2722D02*
X1783Y2722D01*
X1225Y2721D02*
X1248Y2721D01*
X1759Y2721D02*
X1783Y2721D01*
X1225Y2720D02*
X1248Y2720D01*
X1760Y2720D02*
X1784Y2720D01*
X1224Y2719D02*
X1248Y2719D01*
X1760Y2719D02*
X1784Y2719D01*
X1224Y2718D02*
X1248Y2718D01*
X1760Y2718D02*
X1784Y2718D01*
X1224Y2717D02*
X1247Y2717D01*
X1761Y2717D02*
X1785Y2717D01*
X1224Y2716D02*
X1247Y2716D01*
X1761Y2716D02*
X1785Y2716D01*
X1224Y2715D02*
X1247Y2715D01*
X1761Y2715D02*
X1785Y2715D01*
X1223Y2714D02*
X1247Y2714D01*
X1762Y2714D02*
X1785Y2714D01*
X1223Y2713D02*
X1247Y2713D01*
X1762Y2713D02*
X1786Y2713D01*
X1223Y2712D02*
X1246Y2712D01*
X1762Y2712D02*
X1786Y2712D01*
X1223Y2711D02*
X1246Y2711D01*
X1762Y2711D02*
X1786Y2711D01*
X1223Y2710D02*
X1246Y2710D01*
X1763Y2710D02*
X1787Y2710D01*
X1222Y2709D02*
X1246Y2709D01*
X1763Y2709D02*
X1787Y2709D01*
X1222Y2708D02*
X1246Y2708D01*
X1763Y2708D02*
X1787Y2708D01*
X1222Y2707D02*
X1245Y2707D01*
X1764Y2707D02*
X1787Y2707D01*
X1222Y2706D02*
X1245Y2706D01*
X1764Y2706D02*
X1788Y2706D01*
X1222Y2705D02*
X1245Y2705D01*
X1764Y2705D02*
X1788Y2705D01*
X1221Y2704D02*
X1245Y2704D01*
X1765Y2704D02*
X1788Y2704D01*
X1221Y2703D02*
X1245Y2703D01*
X1765Y2703D02*
X1789Y2703D01*
X1221Y2702D02*
X1244Y2702D01*
X1765Y2702D02*
X1789Y2702D01*
X1221Y2701D02*
X1244Y2701D01*
X1765Y2701D02*
X1789Y2701D01*
X1221Y2700D02*
X1244Y2700D01*
X1766Y2700D02*
X1790Y2700D01*
X1220Y2699D02*
X1244Y2699D01*
X1766Y2699D02*
X1790Y2699D01*
X1220Y2698D02*
X1244Y2698D01*
X1766Y2698D02*
X1790Y2698D01*
X1220Y2697D02*
X1243Y2697D01*
X1767Y2697D02*
X1790Y2697D01*
X1220Y2696D02*
X1243Y2696D01*
X1767Y2696D02*
X1791Y2696D01*
X1220Y2695D02*
X1243Y2695D01*
X1767Y2695D02*
X1791Y2695D01*
X1219Y2694D02*
X1243Y2694D01*
X1767Y2694D02*
X1791Y2694D01*
X1219Y2693D02*
X1243Y2693D01*
X1768Y2693D02*
X1791Y2693D01*
X1219Y2692D02*
X1242Y2692D01*
X1768Y2692D02*
X1792Y2692D01*
X1219Y2691D02*
X1242Y2691D01*
X1768Y2691D02*
X1792Y2691D01*
X1219Y2690D02*
X1242Y2690D01*
X1769Y2690D02*
X1792Y2690D01*
X1218Y2689D02*
X1242Y2689D01*
X1769Y2689D02*
X1792Y2689D01*
X1218Y2688D02*
X1242Y2688D01*
X1769Y2688D02*
X1793Y2688D01*
X1218Y2687D02*
X1241Y2687D01*
X1769Y2687D02*
X1793Y2687D01*
X1218Y2686D02*
X1241Y2686D01*
X1770Y2686D02*
X1793Y2686D01*
X1218Y2685D02*
X1241Y2685D01*
X1770Y2685D02*
X1794Y2685D01*
X1217Y2684D02*
X1241Y2684D01*
X1770Y2684D02*
X1794Y2684D01*
X1217Y2683D02*
X1241Y2683D01*
X1770Y2683D02*
X1794Y2683D01*
X1217Y2682D02*
X1240Y2682D01*
X1771Y2682D02*
X1794Y2682D01*
X1217Y2681D02*
X1240Y2681D01*
X1771Y2681D02*
X1795Y2681D01*
X1217Y2680D02*
X1240Y2680D01*
X1771Y2680D02*
X1795Y2680D01*
X1216Y2679D02*
X1240Y2679D01*
X1771Y2679D02*
X1795Y2679D01*
X1216Y2678D02*
X1240Y2678D01*
X1772Y2678D02*
X1795Y2678D01*
X1216Y2677D02*
X1239Y2677D01*
X1772Y2677D02*
X1796Y2677D01*
X1216Y2676D02*
X1239Y2676D01*
X1772Y2676D02*
X1796Y2676D01*
X1216Y2675D02*
X1239Y2675D01*
X1772Y2675D02*
X1796Y2675D01*
X1215Y2674D02*
X1239Y2674D01*
X1773Y2674D02*
X1796Y2674D01*
X1215Y2673D02*
X1239Y2673D01*
X1773Y2673D02*
X1797Y2673D01*
X1215Y2672D02*
X1239Y2672D01*
X1773Y2672D02*
X1797Y2672D01*
X1215Y2671D02*
X1238Y2671D01*
X1773Y2671D02*
X1797Y2671D01*
X1215Y2670D02*
X1238Y2670D01*
X1774Y2670D02*
X1797Y2670D01*
X1214Y2669D02*
X1238Y2669D01*
X1774Y2669D02*
X1798Y2669D01*
X1214Y2668D02*
X1238Y2668D01*
X1774Y2668D02*
X1798Y2668D01*
X1214Y2667D02*
X1238Y2667D01*
X1774Y2667D02*
X1798Y2667D01*
X1214Y2666D02*
X1237Y2666D01*
X1775Y2666D02*
X1798Y2666D01*
X1214Y2665D02*
X1237Y2665D01*
X1775Y2665D02*
X1798Y2665D01*
X1214Y2664D02*
X1237Y2664D01*
X1775Y2664D02*
X1799Y2664D01*
X1213Y2663D02*
X1237Y2663D01*
X1775Y2663D02*
X1799Y2663D01*
X1213Y2662D02*
X1237Y2662D01*
X1776Y2662D02*
X1799Y2662D01*
X1213Y2661D02*
X1236Y2661D01*
X1776Y2661D02*
X1799Y2661D01*
X1213Y2660D02*
X1236Y2660D01*
X1776Y2660D02*
X1800Y2660D01*
X1213Y2659D02*
X1236Y2659D01*
X1776Y2659D02*
X1800Y2659D01*
X1212Y2658D02*
X1236Y2658D01*
X1777Y2658D02*
X1800Y2658D01*
X1212Y2657D02*
X1236Y2657D01*
X1777Y2657D02*
X1800Y2657D01*
X1212Y2656D02*
X1235Y2656D01*
X1777Y2656D02*
X1801Y2656D01*
X1212Y2655D02*
X1235Y2655D01*
X1777Y2655D02*
X1801Y2655D01*
X1212Y2654D02*
X1235Y2654D01*
X1778Y2654D02*
X1801Y2654D01*
X1211Y2653D02*
X1235Y2653D01*
X1778Y2653D02*
X1801Y2653D01*
X1211Y2652D02*
X1235Y2652D01*
X1778Y2652D02*
X1801Y2652D01*
X1211Y2651D02*
X1234Y2651D01*
X1778Y2651D02*
X1802Y2651D01*
X1211Y2650D02*
X1234Y2650D01*
X1778Y2650D02*
X1802Y2650D01*
X1211Y2649D02*
X1234Y2649D01*
X1779Y2649D02*
X1802Y2649D01*
X1210Y2648D02*
X1234Y2648D01*
X1779Y2648D02*
X1802Y2648D01*
X1210Y2647D02*
X1234Y2647D01*
X1779Y2647D02*
X1803Y2647D01*
X1210Y2646D02*
X1233Y2646D01*
X1779Y2646D02*
X1803Y2646D01*
X1210Y2645D02*
X1233Y2645D01*
X1779Y2645D02*
X1803Y2645D01*
X1210Y2644D02*
X1233Y2644D01*
X1780Y2644D02*
X1803Y2644D01*
X1209Y2643D02*
X1233Y2643D01*
X1780Y2643D02*
X1803Y2643D01*
X1209Y2642D02*
X1233Y2642D01*
X1780Y2642D02*
X1804Y2642D01*
X1209Y2641D02*
X1232Y2641D01*
X1780Y2641D02*
X1804Y2641D01*
X1209Y2640D02*
X1232Y2640D01*
X1781Y2640D02*
X1804Y2640D01*
X1209Y2639D02*
X1232Y2639D01*
X1781Y2639D02*
X1804Y2639D01*
X1209Y2638D02*
X1232Y2638D01*
X1781Y2638D02*
X1804Y2638D01*
X1208Y2637D02*
X1232Y2637D01*
X1781Y2637D02*
X1805Y2637D01*
X1208Y2636D02*
X1232Y2636D01*
X1781Y2636D02*
X1805Y2636D01*
X1208Y2635D02*
X1231Y2635D01*
X1782Y2635D02*
X1805Y2635D01*
X1208Y2634D02*
X1231Y2634D01*
X1782Y2634D02*
X1805Y2634D01*
X1208Y2633D02*
X1231Y2633D01*
X1782Y2633D02*
X1805Y2633D01*
X1207Y2632D02*
X1231Y2632D01*
X1782Y2632D02*
X1806Y2632D01*
X1207Y2631D02*
X1231Y2631D01*
X1782Y2631D02*
X1806Y2631D01*
X1207Y2630D02*
X1230Y2630D01*
X1783Y2630D02*
X1806Y2630D01*
X1207Y2629D02*
X1230Y2629D01*
X1783Y2629D02*
X1806Y2629D01*
X1207Y2628D02*
X1230Y2628D01*
X1783Y2628D02*
X1806Y2628D01*
X1206Y2627D02*
X1230Y2627D01*
X1783Y2627D02*
X1807Y2627D01*
X1206Y2626D02*
X1230Y2626D01*
X1783Y2626D02*
X1807Y2626D01*
X1206Y2625D02*
X1229Y2625D01*
X1784Y2625D02*
X1807Y2625D01*
X1206Y2624D02*
X1229Y2624D01*
X1784Y2624D02*
X1807Y2624D01*
X1206Y2623D02*
X1229Y2623D01*
X1784Y2623D02*
X1807Y2623D01*
X1206Y2622D02*
X1229Y2622D01*
X1784Y2622D02*
X1808Y2622D01*
X1205Y2621D02*
X1229Y2621D01*
X1784Y2621D02*
X1808Y2621D01*
X1205Y2620D02*
X1229Y2620D01*
X1785Y2620D02*
X1808Y2620D01*
X1205Y2619D02*
X1228Y2619D01*
X1785Y2619D02*
X1808Y2619D01*
X1205Y2618D02*
X1228Y2618D01*
X1785Y2618D02*
X1808Y2618D01*
X1205Y2617D02*
X1228Y2617D01*
X1785Y2617D02*
X1809Y2617D01*
X1204Y2616D02*
X1228Y2616D01*
X1785Y2616D02*
X1809Y2616D01*
X1204Y2615D02*
X1228Y2615D01*
X1786Y2615D02*
X1809Y2615D01*
X1204Y2614D02*
X1227Y2614D01*
X1786Y2614D02*
X1809Y2614D01*
X1204Y2613D02*
X1227Y2613D01*
X1786Y2613D02*
X1809Y2613D01*
X1204Y2612D02*
X1227Y2612D01*
X1786Y2612D02*
X1810Y2612D01*
X1204Y2611D02*
X1227Y2611D01*
X1786Y2611D02*
X1810Y2611D01*
X1203Y2610D02*
X1227Y2610D01*
X1787Y2610D02*
X1810Y2610D01*
X1203Y2609D02*
X1227Y2609D01*
X1787Y2609D02*
X1810Y2609D01*
X1203Y2608D02*
X1226Y2608D01*
X1787Y2608D02*
X1810Y2608D01*
X1203Y2607D02*
X1226Y2607D01*
X1787Y2607D02*
X1810Y2607D01*
X1203Y2606D02*
X1226Y2606D01*
X1787Y2606D02*
X1811Y2606D01*
X1202Y2605D02*
X1226Y2605D01*
X1787Y2605D02*
X1811Y2605D01*
X1202Y2604D02*
X1226Y2604D01*
X1788Y2604D02*
X1811Y2604D01*
X1202Y2603D02*
X1225Y2603D01*
X1788Y2603D02*
X1811Y2603D01*
X1202Y2602D02*
X1225Y2602D01*
X1788Y2602D02*
X1811Y2602D01*
X1202Y2601D02*
X1225Y2601D01*
X1788Y2601D02*
X1812Y2601D01*
X1202Y2600D02*
X1225Y2600D01*
X1788Y2600D02*
X1812Y2600D01*
X1201Y2599D02*
X1225Y2599D01*
X1789Y2599D02*
X1812Y2599D01*
X1201Y2598D02*
X1225Y2598D01*
X1789Y2598D02*
X1812Y2598D01*
X1201Y2597D02*
X1224Y2597D01*
X1789Y2597D02*
X1812Y2597D01*
X1201Y2596D02*
X1224Y2596D01*
X1789Y2596D02*
X1812Y2596D01*
X1201Y2595D02*
X1224Y2595D01*
X1789Y2595D02*
X1813Y2595D01*
X1200Y2594D02*
X1224Y2594D01*
X1789Y2594D02*
X1813Y2594D01*
X1200Y2593D02*
X1224Y2593D01*
X1790Y2593D02*
X1813Y2593D01*
X1200Y2592D02*
X1223Y2592D01*
X1790Y2592D02*
X1813Y2592D01*
X1200Y2591D02*
X1223Y2591D01*
X1790Y2591D02*
X1813Y2591D01*
X1200Y2590D02*
X1223Y2590D01*
X1790Y2590D02*
X1813Y2590D01*
X1199Y2589D02*
X1223Y2589D01*
X1790Y2589D02*
X1814Y2589D01*
X1199Y2588D02*
X1223Y2588D01*
X1790Y2588D02*
X1814Y2588D01*
X1199Y2587D02*
X1223Y2587D01*
X1791Y2587D02*
X1814Y2587D01*
X1199Y2586D02*
X1222Y2586D01*
X1791Y2586D02*
X1814Y2586D01*
X1199Y2585D02*
X1222Y2585D01*
X1791Y2585D02*
X1814Y2585D01*
X1199Y2584D02*
X1222Y2584D01*
X1791Y2584D02*
X1814Y2584D01*
X1198Y2583D02*
X1222Y2583D01*
X1791Y2583D02*
X1815Y2583D01*
X1198Y2582D02*
X1222Y2582D01*
X1791Y2582D02*
X1815Y2582D01*
X1198Y2581D02*
X1221Y2581D01*
X1792Y2581D02*
X1815Y2581D01*
X1198Y2580D02*
X1221Y2580D01*
X1792Y2580D02*
X1815Y2580D01*
X1198Y2579D02*
X1221Y2579D01*
X1792Y2579D02*
X1815Y2579D01*
X1197Y2578D02*
X1221Y2578D01*
X1792Y2578D02*
X1815Y2578D01*
X1197Y2577D02*
X1221Y2577D01*
X1792Y2577D02*
X1816Y2577D01*
X1197Y2576D02*
X1220Y2576D01*
X1792Y2576D02*
X1816Y2576D01*
X1197Y2575D02*
X1220Y2575D01*
X1793Y2575D02*
X1816Y2575D01*
X1197Y2574D02*
X1220Y2574D01*
X1793Y2574D02*
X1816Y2574D01*
X1197Y2573D02*
X1220Y2573D01*
X1793Y2573D02*
X1816Y2573D01*
X1196Y2572D02*
X1220Y2572D01*
X1793Y2572D02*
X1816Y2572D01*
X1196Y2571D02*
X1220Y2571D01*
X1793Y2571D02*
X1817Y2571D01*
X1196Y2570D02*
X1219Y2570D01*
X1793Y2570D02*
X1817Y2570D01*
X1196Y2569D02*
X1219Y2569D01*
X1794Y2569D02*
X1817Y2569D01*
X1196Y2568D02*
X1219Y2568D01*
X1794Y2568D02*
X1817Y2568D01*
X1196Y2567D02*
X1219Y2567D01*
X1794Y2567D02*
X1817Y2567D01*
X1195Y2566D02*
X1219Y2566D01*
X1794Y2566D02*
X1817Y2566D01*
X1195Y2565D02*
X1219Y2565D01*
X1794Y2565D02*
X1817Y2565D01*
X1195Y2564D02*
X1218Y2564D01*
X1794Y2564D02*
X1818Y2564D01*
X1195Y2563D02*
X1218Y2563D01*
X1794Y2563D02*
X1818Y2563D01*
X1195Y2562D02*
X1218Y2562D01*
X1795Y2562D02*
X1818Y2562D01*
X1195Y2561D02*
X1218Y2561D01*
X1795Y2561D02*
X1818Y2561D01*
X1194Y2560D02*
X1218Y2560D01*
X1795Y2560D02*
X1818Y2560D01*
X1194Y2559D02*
X1218Y2559D01*
X1795Y2559D02*
X1818Y2559D01*
X1194Y2558D02*
X1217Y2558D01*
X1795Y2558D02*
X1819Y2558D01*
X1194Y2557D02*
X1217Y2557D01*
X1795Y2557D02*
X1819Y2557D01*
X1194Y2556D02*
X1217Y2556D01*
X1796Y2556D02*
X1819Y2556D01*
X1193Y2555D02*
X1217Y2555D01*
X1796Y2555D02*
X1819Y2555D01*
X1193Y2554D02*
X1217Y2554D01*
X1796Y2554D02*
X1819Y2554D01*
X1193Y2553D02*
X1216Y2553D01*
X1796Y2553D02*
X1819Y2553D01*
X1193Y2552D02*
X1216Y2552D01*
X1796Y2552D02*
X1819Y2552D01*
X1193Y2551D02*
X1216Y2551D01*
X1796Y2551D02*
X1820Y2551D01*
X1193Y2550D02*
X1216Y2550D01*
X1796Y2550D02*
X1820Y2550D01*
X1192Y2549D02*
X1216Y2549D01*
X1797Y2549D02*
X1820Y2549D01*
X1192Y2548D02*
X1216Y2548D01*
X1797Y2548D02*
X1820Y2548D01*
X1192Y2547D02*
X1215Y2547D01*
X1797Y2547D02*
X1820Y2547D01*
X1192Y2546D02*
X1215Y2546D01*
X1797Y2546D02*
X1820Y2546D01*
X1192Y2545D02*
X1215Y2545D01*
X1797Y2545D02*
X1820Y2545D01*
X1192Y2544D02*
X1215Y2544D01*
X1797Y2544D02*
X1821Y2544D01*
X1191Y2543D02*
X1215Y2543D01*
X1798Y2543D02*
X1821Y2543D01*
X1191Y2542D02*
X1215Y2542D01*
X1798Y2542D02*
X1821Y2542D01*
X1191Y2541D02*
X1214Y2541D01*
X1798Y2541D02*
X1821Y2541D01*
X1191Y2540D02*
X1214Y2540D01*
X1798Y2540D02*
X1821Y2540D01*
X1191Y2539D02*
X1214Y2539D01*
X1798Y2539D02*
X1821Y2539D01*
X1191Y2538D02*
X1214Y2538D01*
X1798Y2538D02*
X1822Y2538D01*
X1190Y2537D02*
X1214Y2537D01*
X1798Y2537D02*
X1822Y2537D01*
X1190Y2536D02*
X1214Y2536D01*
X1799Y2536D02*
X1822Y2536D01*
X1190Y2535D02*
X1213Y2535D01*
X1799Y2535D02*
X1822Y2535D01*
X1190Y2534D02*
X1213Y2534D01*
X1799Y2534D02*
X1822Y2534D01*
X1190Y2533D02*
X1213Y2533D01*
X1799Y2533D02*
X1822Y2533D01*
X1190Y2532D02*
X1213Y2532D01*
X1799Y2532D02*
X1822Y2532D01*
X1189Y2531D02*
X1213Y2531D01*
X1799Y2531D02*
X1822Y2531D01*
X1189Y2530D02*
X1213Y2530D01*
X1799Y2530D02*
X1823Y2530D01*
X1189Y2529D02*
X1212Y2529D01*
X1800Y2529D02*
X1823Y2529D01*
X1189Y2528D02*
X1212Y2528D01*
X1800Y2528D02*
X1823Y2528D01*
X1189Y2527D02*
X1212Y2527D01*
X1800Y2527D02*
X1823Y2527D01*
X1189Y2526D02*
X1212Y2526D01*
X1800Y2526D02*
X1823Y2526D01*
X1188Y2525D02*
X1212Y2525D01*
X1800Y2525D02*
X1823Y2525D01*
X1188Y2524D02*
X1212Y2524D01*
X1800Y2524D02*
X1823Y2524D01*
X1188Y2523D02*
X1211Y2523D01*
X1800Y2523D02*
X1824Y2523D01*
X1188Y2522D02*
X1211Y2522D01*
X1800Y2522D02*
X1824Y2522D01*
X1188Y2521D02*
X1211Y2521D01*
X1801Y2521D02*
X1824Y2521D01*
X1188Y2520D02*
X1211Y2520D01*
X1801Y2520D02*
X1824Y2520D01*
X1187Y2519D02*
X1211Y2519D01*
X1801Y2519D02*
X1824Y2519D01*
X1187Y2518D02*
X1211Y2518D01*
X1801Y2518D02*
X1824Y2518D01*
X1187Y2517D02*
X1210Y2517D01*
X1801Y2517D02*
X1824Y2517D01*
X1187Y2516D02*
X1210Y2516D01*
X1801Y2516D02*
X1825Y2516D01*
X1187Y2515D02*
X1210Y2515D01*
X1801Y2515D02*
X1825Y2515D01*
X1187Y2514D02*
X1210Y2514D01*
X1802Y2514D02*
X1825Y2514D01*
X1186Y2513D02*
X1210Y2513D01*
X1802Y2513D02*
X1825Y2513D01*
X1186Y2512D02*
X1210Y2512D01*
X1802Y2512D02*
X1825Y2512D01*
X1186Y2511D02*
X1209Y2511D01*
X1802Y2511D02*
X1825Y2511D01*
X1186Y2510D02*
X1209Y2510D01*
X1802Y2510D02*
X1825Y2510D01*
X1186Y2509D02*
X1209Y2509D01*
X1802Y2509D02*
X1825Y2509D01*
X1186Y2508D02*
X1209Y2508D01*
X1802Y2508D02*
X1826Y2508D01*
X1185Y2507D02*
X1209Y2507D01*
X1803Y2507D02*
X1826Y2507D01*
X1185Y2506D02*
X1209Y2506D01*
X1803Y2506D02*
X1826Y2506D01*
X1185Y2505D02*
X1208Y2505D01*
X1803Y2505D02*
X1826Y2505D01*
X1185Y2504D02*
X1208Y2504D01*
X1803Y2504D02*
X1826Y2504D01*
X1185Y2503D02*
X1208Y2503D01*
X1803Y2503D02*
X1826Y2503D01*
X1185Y2502D02*
X1208Y2502D01*
X1803Y2502D02*
X1826Y2502D01*
X1184Y2501D02*
X1208Y2501D01*
X1803Y2501D02*
X1827Y2501D01*
X1184Y2500D02*
X1208Y2500D01*
X1803Y2500D02*
X1827Y2500D01*
X1184Y2499D02*
X1207Y2499D01*
X1804Y2499D02*
X1827Y2499D01*
X1184Y2498D02*
X1207Y2498D01*
X1804Y2498D02*
X1827Y2498D01*
X1184Y2497D02*
X1207Y2497D01*
X1804Y2497D02*
X1827Y2497D01*
X1184Y2496D02*
X1207Y2496D01*
X1804Y2496D02*
X1827Y2496D01*
X1183Y2495D02*
X1207Y2495D01*
X1804Y2495D02*
X1827Y2495D01*
X1183Y2494D02*
X1207Y2494D01*
X1804Y2494D02*
X1827Y2494D01*
X1183Y2493D02*
X1206Y2493D01*
X1804Y2493D02*
X1828Y2493D01*
X1183Y2492D02*
X1206Y2492D01*
X1805Y2492D02*
X1828Y2492D01*
X1183Y2491D02*
X1206Y2491D01*
X1805Y2491D02*
X1828Y2491D01*
X1183Y2490D02*
X1206Y2490D01*
X1805Y2490D02*
X1828Y2490D01*
X1182Y2489D02*
X1206Y2489D01*
X1805Y2489D02*
X1828Y2489D01*
X1182Y2488D02*
X1206Y2488D01*
X1805Y2488D02*
X1828Y2488D01*
X1182Y2487D02*
X1205Y2487D01*
X1805Y2487D02*
X1828Y2487D01*
X1182Y2486D02*
X1205Y2486D01*
X1805Y2486D02*
X1829Y2486D01*
X1182Y2485D02*
X1205Y2485D01*
X1805Y2485D02*
X1829Y2485D01*
X1182Y2484D02*
X1205Y2484D01*
X1806Y2484D02*
X1829Y2484D01*
X1182Y2483D02*
X1205Y2483D01*
X1806Y2483D02*
X1829Y2483D01*
X1181Y2482D02*
X1205Y2482D01*
X1806Y2482D02*
X1829Y2482D01*
X1181Y2481D02*
X1204Y2481D01*
X1806Y2481D02*
X1829Y2481D01*
X1181Y2480D02*
X1204Y2480D01*
X1806Y2480D02*
X1829Y2480D01*
X1181Y2479D02*
X1204Y2479D01*
X1806Y2479D02*
X1829Y2479D01*
X1181Y2478D02*
X1204Y2478D01*
X1806Y2478D02*
X1830Y2478D01*
X1181Y2477D02*
X1204Y2477D01*
X1807Y2477D02*
X1830Y2477D01*
X1180Y2476D02*
X1204Y2476D01*
X1807Y2476D02*
X1830Y2476D01*
X1180Y2475D02*
X1204Y2475D01*
X1807Y2475D02*
X1830Y2475D01*
X1180Y2474D02*
X1203Y2474D01*
X1807Y2474D02*
X1830Y2474D01*
X1180Y2473D02*
X1203Y2473D01*
X1807Y2473D02*
X1830Y2473D01*
X1180Y2472D02*
X1203Y2472D01*
X1807Y2472D02*
X1830Y2472D01*
X1180Y2471D02*
X1203Y2471D01*
X1807Y2471D02*
X1831Y2471D01*
X1179Y2470D02*
X1203Y2470D01*
X1807Y2470D02*
X1831Y2470D01*
X1179Y2469D02*
X1203Y2469D01*
X1808Y2469D02*
X1831Y2469D01*
X1179Y2468D02*
X1202Y2468D01*
X1808Y2468D02*
X1831Y2468D01*
X1179Y2467D02*
X1202Y2467D01*
X1808Y2467D02*
X1831Y2467D01*
X1179Y2466D02*
X1202Y2466D01*
X1808Y2466D02*
X1831Y2466D01*
X1179Y2465D02*
X1202Y2465D01*
X1808Y2465D02*
X1831Y2465D01*
X1178Y2464D02*
X1202Y2464D01*
X1808Y2464D02*
X1831Y2464D01*
X1178Y2463D02*
X1202Y2463D01*
X1808Y2463D02*
X1832Y2463D01*
X1178Y2462D02*
X1201Y2462D01*
X1808Y2462D02*
X1832Y2462D01*
X1178Y2461D02*
X1201Y2461D01*
X1809Y2461D02*
X1832Y2461D01*
X1178Y2460D02*
X1201Y2460D01*
X1809Y2460D02*
X1832Y2460D01*
X1178Y2459D02*
X1201Y2459D01*
X1809Y2459D02*
X1832Y2459D01*
X1178Y2458D02*
X1201Y2458D01*
X1809Y2458D02*
X1832Y2458D01*
X1177Y2457D02*
X1201Y2457D01*
X1809Y2457D02*
X1832Y2457D01*
X1177Y2456D02*
X1201Y2456D01*
X1809Y2456D02*
X1832Y2456D01*
X1177Y2455D02*
X1200Y2455D01*
X1809Y2455D02*
X1833Y2455D01*
X1177Y2454D02*
X1200Y2454D01*
X1810Y2454D02*
X1833Y2454D01*
X1177Y2453D02*
X1200Y2453D01*
X1810Y2453D02*
X1833Y2453D01*
X1177Y2452D02*
X1200Y2452D01*
X1810Y2452D02*
X1833Y2452D01*
X1177Y2451D02*
X1200Y2451D01*
X1810Y2451D02*
X1833Y2451D01*
X1176Y2450D02*
X1200Y2450D01*
X1810Y2450D02*
X1833Y2450D01*
X1176Y2449D02*
X1199Y2449D01*
X1810Y2449D02*
X1833Y2449D01*
X1176Y2448D02*
X1199Y2448D01*
X1810Y2448D02*
X1834Y2448D01*
X1176Y2447D02*
X1199Y2447D01*
X1810Y2447D02*
X1834Y2447D01*
X1176Y2446D02*
X1199Y2446D01*
X1811Y2446D02*
X1834Y2446D01*
X1176Y2445D02*
X1199Y2445D01*
X1811Y2445D02*
X1834Y2445D01*
X1175Y2444D02*
X1199Y2444D01*
X1811Y2444D02*
X1834Y2444D01*
X1175Y2443D02*
X1199Y2443D01*
X1811Y2443D02*
X1834Y2443D01*
X1175Y2442D02*
X1198Y2442D01*
X1811Y2442D02*
X1834Y2442D01*
X1175Y2441D02*
X1198Y2441D01*
X1811Y2441D02*
X1834Y2441D01*
X1175Y2440D02*
X1198Y2440D01*
X1811Y2440D02*
X1835Y2440D01*
X1175Y2439D02*
X1198Y2439D01*
X1811Y2439D02*
X1835Y2439D01*
X1175Y2438D02*
X1198Y2438D01*
X1812Y2438D02*
X1835Y2438D01*
X1174Y2437D02*
X1198Y2437D01*
X1812Y2437D02*
X1835Y2437D01*
X1174Y2436D02*
X1197Y2436D01*
X1812Y2436D02*
X1835Y2436D01*
X1174Y2435D02*
X1197Y2435D01*
X1812Y2435D02*
X1835Y2435D01*
X1174Y2434D02*
X1197Y2434D01*
X1812Y2434D02*
X1835Y2434D01*
X1174Y2433D02*
X1197Y2433D01*
X1812Y2433D02*
X1836Y2433D01*
X1174Y2432D02*
X1197Y2432D01*
X1812Y2432D02*
X1836Y2432D01*
X1173Y2431D02*
X1197Y2431D01*
X1813Y2431D02*
X1836Y2431D01*
X1173Y2430D02*
X1197Y2430D01*
X1813Y2430D02*
X1836Y2430D01*
X1173Y2429D02*
X1196Y2429D01*
X1813Y2429D02*
X1836Y2429D01*
X1173Y2428D02*
X1196Y2428D01*
X1813Y2428D02*
X1836Y2428D01*
X1173Y2427D02*
X1196Y2427D01*
X1813Y2427D02*
X1836Y2427D01*
X1173Y2426D02*
X1196Y2426D01*
X1813Y2426D02*
X1837Y2426D01*
X1173Y2425D02*
X1196Y2425D01*
X1813Y2425D02*
X1837Y2425D01*
X1172Y2424D02*
X1196Y2424D01*
X1814Y2424D02*
X1837Y2424D01*
X1172Y2423D02*
X1196Y2423D01*
X1814Y2423D02*
X1837Y2423D01*
X1172Y2422D02*
X1195Y2422D01*
X1814Y2422D02*
X1837Y2422D01*
X1172Y2421D02*
X1195Y2421D01*
X1814Y2421D02*
X1837Y2421D01*
X1172Y2420D02*
X1195Y2420D01*
X1814Y2420D02*
X1837Y2420D01*
X1172Y2419D02*
X1195Y2419D01*
X1814Y2419D02*
X1838Y2419D01*
X1172Y2418D02*
X1195Y2418D01*
X1814Y2418D02*
X1838Y2418D01*
X1171Y2417D02*
X1195Y2417D01*
X1815Y2417D02*
X1838Y2417D01*
X1171Y2416D02*
X1195Y2416D01*
X1815Y2416D02*
X1838Y2416D01*
X1171Y2415D02*
X1194Y2415D01*
X1815Y2415D02*
X1838Y2415D01*
X1171Y2414D02*
X1194Y2414D01*
X1815Y2414D02*
X1838Y2414D01*
X1171Y2413D02*
X1194Y2413D01*
X1815Y2413D02*
X1838Y2413D01*
X1171Y2412D02*
X1194Y2412D01*
X1815Y2412D02*
X1839Y2412D01*
X1171Y2411D02*
X1194Y2411D01*
X1815Y2411D02*
X1839Y2411D01*
X1170Y2410D02*
X1194Y2410D01*
X1816Y2410D02*
X1839Y2410D01*
X1170Y2409D02*
X1194Y2409D01*
X1816Y2409D02*
X1839Y2409D01*
X1170Y2408D02*
X1193Y2408D01*
X1816Y2408D02*
X1839Y2408D01*
X1170Y2407D02*
X1193Y2407D01*
X1816Y2407D02*
X1839Y2407D01*
X1170Y2406D02*
X1193Y2406D01*
X1816Y2406D02*
X1839Y2406D01*
X1170Y2405D02*
X1193Y2405D01*
X1816Y2405D02*
X1840Y2405D01*
X1170Y2404D02*
X1193Y2404D01*
X1816Y2404D02*
X1840Y2404D01*
X1169Y2403D02*
X1193Y2403D01*
X1817Y2403D02*
X1840Y2403D01*
X1169Y2402D02*
X1193Y2402D01*
X1817Y2402D02*
X1840Y2402D01*
X1169Y2401D02*
X1192Y2401D01*
X1817Y2401D02*
X1840Y2401D01*
X1169Y2400D02*
X1192Y2400D01*
X1817Y2400D02*
X1840Y2400D01*
X1169Y2399D02*
X1192Y2399D01*
X1817Y2399D02*
X1840Y2399D01*
X1169Y2398D02*
X1192Y2398D01*
X1817Y2398D02*
X1841Y2398D01*
X1169Y2397D02*
X1192Y2397D01*
X1817Y2397D02*
X1841Y2397D01*
X1168Y2396D02*
X1192Y2396D01*
X1818Y2396D02*
X1841Y2396D01*
X1168Y2395D02*
X1192Y2395D01*
X1818Y2395D02*
X1841Y2395D01*
X1168Y2394D02*
X1191Y2394D01*
X1818Y2394D02*
X1841Y2394D01*
X1168Y2393D02*
X1191Y2393D01*
X1818Y2393D02*
X1841Y2393D01*
X1168Y2392D02*
X1191Y2392D01*
X1818Y2392D02*
X1842Y2392D01*
X1168Y2391D02*
X1191Y2391D01*
X1818Y2391D02*
X1842Y2391D01*
X1168Y2390D02*
X1191Y2390D01*
X1819Y2390D02*
X1842Y2390D01*
X1167Y2389D02*
X1191Y2389D01*
X1819Y2389D02*
X1842Y2389D01*
X1167Y2388D02*
X1191Y2388D01*
X1819Y2388D02*
X1842Y2388D01*
X1167Y2387D02*
X1190Y2387D01*
X1819Y2387D02*
X1842Y2387D01*
X1167Y2386D02*
X1190Y2386D01*
X1819Y2386D02*
X1843Y2386D01*
X1167Y2385D02*
X1190Y2385D01*
X1819Y2385D02*
X1843Y2385D01*
X1167Y2384D02*
X1190Y2384D01*
X1820Y2384D02*
X1843Y2384D01*
X1167Y2383D02*
X1190Y2383D01*
X1820Y2383D02*
X1843Y2383D01*
X1166Y2382D02*
X1190Y2382D01*
X1820Y2382D02*
X1843Y2382D01*
X1166Y2381D02*
X1190Y2381D01*
X1820Y2381D02*
X1844Y2381D01*
X1166Y2380D02*
X1189Y2380D01*
X1820Y2380D02*
X1844Y2380D01*
X1166Y2379D02*
X1189Y2379D01*
X1821Y2379D02*
X1844Y2379D01*
X1166Y2378D02*
X1189Y2378D01*
X1821Y2378D02*
X1844Y2378D01*
X1166Y2377D02*
X1189Y2377D01*
X1821Y2377D02*
X1844Y2377D01*
X1166Y2376D02*
X1189Y2376D01*
X1821Y2376D02*
X1844Y2376D01*
X1166Y2375D02*
X1189Y2375D01*
X1821Y2375D02*
X1845Y2375D01*
X1165Y2374D02*
X1189Y2374D01*
X1821Y2374D02*
X1845Y2374D01*
X1165Y2373D02*
X1188Y2373D01*
X1822Y2373D02*
X1845Y2373D01*
X1165Y2372D02*
X1188Y2372D01*
X1822Y2372D02*
X1845Y2372D01*
X1165Y2371D02*
X1188Y2371D01*
X1822Y2371D02*
X1845Y2371D01*
X1165Y2370D02*
X1188Y2370D01*
X1822Y2370D02*
X1846Y2370D01*
X1165Y2369D02*
X1188Y2369D01*
X1822Y2369D02*
X1846Y2369D01*
X1165Y2368D02*
X1188Y2368D01*
X1823Y2368D02*
X1846Y2368D01*
X1164Y2367D02*
X1188Y2367D01*
X1823Y2367D02*
X1846Y2367D01*
X1164Y2366D02*
X1188Y2366D01*
X1823Y2366D02*
X1846Y2366D01*
X1164Y2365D02*
X1187Y2365D01*
X1823Y2365D02*
X1847Y2365D01*
X1960Y2365D02*
X1967Y2365D01*
X1164Y2364D02*
X1187Y2364D01*
X1823Y2364D02*
X1847Y2364D01*
X1958Y2364D02*
X1969Y2364D01*
X1164Y2363D02*
X1187Y2363D01*
X1824Y2363D02*
X1847Y2363D01*
X1956Y2363D02*
X1971Y2363D01*
X1164Y2362D02*
X1187Y2362D01*
X1824Y2362D02*
X1847Y2362D01*
X1955Y2362D02*
X1972Y2362D01*
X1164Y2361D02*
X1187Y2361D01*
X1824Y2361D02*
X1848Y2361D01*
X1954Y2361D02*
X1973Y2361D01*
X1164Y2360D02*
X1187Y2360D01*
X1824Y2360D02*
X1848Y2360D01*
X1954Y2360D02*
X1973Y2360D01*
X1163Y2359D02*
X1187Y2359D01*
X1824Y2359D02*
X1848Y2359D01*
X1953Y2359D02*
X1974Y2359D01*
X1163Y2358D02*
X1186Y2358D01*
X1825Y2358D02*
X1848Y2358D01*
X1952Y2358D02*
X1974Y2358D01*
X1163Y2357D02*
X1186Y2357D01*
X1825Y2357D02*
X1848Y2357D01*
X1951Y2357D02*
X1975Y2357D01*
X1163Y2356D02*
X1186Y2356D01*
X1825Y2356D02*
X1849Y2356D01*
X1950Y2356D02*
X1975Y2356D01*
X1163Y2355D02*
X1186Y2355D01*
X1825Y2355D02*
X1849Y2355D01*
X1949Y2355D02*
X1975Y2355D01*
X1163Y2354D02*
X1186Y2354D01*
X1826Y2354D02*
X1849Y2354D01*
X1949Y2354D02*
X1975Y2354D01*
X1163Y2353D02*
X1186Y2353D01*
X1826Y2353D02*
X1849Y2353D01*
X1948Y2353D02*
X1975Y2353D01*
X1162Y2352D02*
X1186Y2352D01*
X1826Y2352D02*
X1850Y2352D01*
X1947Y2352D02*
X1975Y2352D01*
X1162Y2351D02*
X1185Y2351D01*
X1826Y2351D02*
X1850Y2351D01*
X1946Y2351D02*
X1975Y2351D01*
X1162Y2350D02*
X1185Y2350D01*
X1826Y2350D02*
X1850Y2350D01*
X1945Y2350D02*
X1974Y2350D01*
X1162Y2349D02*
X1185Y2349D01*
X1827Y2349D02*
X1850Y2349D01*
X1944Y2349D02*
X1974Y2349D01*
X1162Y2348D02*
X1185Y2348D01*
X1827Y2348D02*
X1851Y2348D01*
X1944Y2348D02*
X1973Y2348D01*
X1162Y2347D02*
X1185Y2347D01*
X1827Y2347D02*
X1851Y2347D01*
X1943Y2347D02*
X1973Y2347D01*
X1162Y2346D02*
X1185Y2346D01*
X1827Y2346D02*
X1851Y2346D01*
X1942Y2346D02*
X1972Y2346D01*
X1162Y2345D02*
X1185Y2345D01*
X1828Y2345D02*
X1851Y2345D01*
X1941Y2345D02*
X1971Y2345D01*
X1161Y2344D02*
X1185Y2344D01*
X1828Y2344D02*
X1852Y2344D01*
X1940Y2344D02*
X1970Y2344D01*
X1161Y2343D02*
X1184Y2343D01*
X1828Y2343D02*
X1852Y2343D01*
X1939Y2343D02*
X1970Y2343D01*
X1161Y2342D02*
X1184Y2342D01*
X1828Y2342D02*
X1852Y2342D01*
X1938Y2342D02*
X1969Y2342D01*
X1161Y2341D02*
X1184Y2341D01*
X1829Y2341D02*
X1853Y2341D01*
X1937Y2341D02*
X1968Y2341D01*
X1161Y2340D02*
X1184Y2340D01*
X1829Y2340D02*
X1853Y2340D01*
X1937Y2340D02*
X1967Y2340D01*
X1161Y2339D02*
X1184Y2339D01*
X1829Y2339D02*
X1853Y2339D01*
X1936Y2339D02*
X1966Y2339D01*
X1161Y2338D02*
X1184Y2338D01*
X1830Y2338D02*
X1853Y2338D01*
X1935Y2338D02*
X1965Y2338D01*
X1161Y2337D02*
X1184Y2337D01*
X1830Y2337D02*
X1854Y2337D01*
X1934Y2337D02*
X1965Y2337D01*
X1160Y2336D02*
X1184Y2336D01*
X1830Y2336D02*
X1854Y2336D01*
X1933Y2336D02*
X1964Y2336D01*
X1160Y2335D02*
X1183Y2335D01*
X1830Y2335D02*
X1854Y2335D01*
X1932Y2335D02*
X1963Y2335D01*
X1160Y2334D02*
X1183Y2334D01*
X1831Y2334D02*
X1855Y2334D01*
X1931Y2334D02*
X1962Y2334D01*
X1160Y2333D02*
X1183Y2333D01*
X1831Y2333D02*
X1855Y2333D01*
X1930Y2333D02*
X1961Y2333D01*
X1160Y2332D02*
X1183Y2332D01*
X1831Y2332D02*
X1855Y2332D01*
X1929Y2332D02*
X1961Y2332D01*
X1160Y2331D02*
X1183Y2331D01*
X1832Y2331D02*
X1856Y2331D01*
X1928Y2331D02*
X1960Y2331D01*
X1160Y2330D02*
X1183Y2330D01*
X1832Y2330D02*
X1856Y2330D01*
X1927Y2330D02*
X1959Y2330D01*
X1159Y2329D02*
X1183Y2329D01*
X1832Y2329D02*
X1856Y2329D01*
X1926Y2329D02*
X1958Y2329D01*
X1159Y2328D02*
X1183Y2328D01*
X1833Y2328D02*
X1857Y2328D01*
X1925Y2328D02*
X1957Y2328D01*
X1159Y2327D02*
X1182Y2327D01*
X1833Y2327D02*
X1857Y2327D01*
X1924Y2327D02*
X1956Y2327D01*
X1159Y2326D02*
X1182Y2326D01*
X1833Y2326D02*
X1858Y2326D01*
X1923Y2326D02*
X1955Y2326D01*
X1159Y2325D02*
X1182Y2325D01*
X1834Y2325D02*
X1858Y2325D01*
X1922Y2325D02*
X1954Y2325D01*
X1159Y2324D02*
X1182Y2324D01*
X1834Y2324D02*
X1858Y2324D01*
X1921Y2324D02*
X1953Y2324D01*
X1159Y2323D02*
X1182Y2323D01*
X1834Y2323D02*
X1859Y2323D01*
X1920Y2323D02*
X1953Y2323D01*
X1159Y2322D02*
X1182Y2322D01*
X1835Y2322D02*
X1859Y2322D01*
X1919Y2322D02*
X1952Y2322D01*
X1158Y2321D02*
X1182Y2321D01*
X1835Y2321D02*
X1860Y2321D01*
X1918Y2321D02*
X1951Y2321D01*
X1158Y2320D02*
X1182Y2320D01*
X1835Y2320D02*
X1860Y2320D01*
X1917Y2320D02*
X1950Y2320D01*
X1158Y2319D02*
X1181Y2319D01*
X1836Y2319D02*
X1861Y2319D01*
X1916Y2319D02*
X1949Y2319D01*
X1158Y2318D02*
X1181Y2318D01*
X1836Y2318D02*
X1861Y2318D01*
X1915Y2318D02*
X1948Y2318D01*
X1158Y2317D02*
X1181Y2317D01*
X1836Y2317D02*
X1862Y2317D01*
X1914Y2317D02*
X1947Y2317D01*
X1158Y2316D02*
X1181Y2316D01*
X1837Y2316D02*
X1862Y2316D01*
X1912Y2316D02*
X1946Y2316D01*
X1158Y2315D02*
X1181Y2315D01*
X1837Y2315D02*
X1863Y2315D01*
X1911Y2315D02*
X1945Y2315D01*
X1158Y2314D02*
X1181Y2314D01*
X1838Y2314D02*
X1863Y2314D01*
X1910Y2314D02*
X1944Y2314D01*
X1157Y2313D02*
X1181Y2313D01*
X1838Y2313D02*
X1864Y2313D01*
X1909Y2313D02*
X1943Y2313D01*
X1157Y2312D02*
X1181Y2312D01*
X1839Y2312D02*
X1864Y2312D01*
X1907Y2312D02*
X1942Y2312D01*
X1157Y2311D02*
X1180Y2311D01*
X1839Y2311D02*
X1865Y2311D01*
X1906Y2311D02*
X1941Y2311D01*
X1157Y2310D02*
X1180Y2310D01*
X1839Y2310D02*
X1866Y2310D01*
X1905Y2310D02*
X1940Y2310D01*
X1157Y2309D02*
X1180Y2309D01*
X1840Y2309D02*
X1866Y2309D01*
X1904Y2309D02*
X1939Y2309D01*
X1157Y2308D02*
X1180Y2308D01*
X1840Y2308D02*
X1867Y2308D01*
X1902Y2308D02*
X1938Y2308D01*
X1157Y2307D02*
X1180Y2307D01*
X1841Y2307D02*
X1868Y2307D01*
X1900Y2307D02*
X1937Y2307D01*
X1157Y2306D02*
X1180Y2306D01*
X1842Y2306D02*
X1869Y2306D01*
X1899Y2306D02*
X1936Y2306D01*
X1156Y2305D02*
X1180Y2305D01*
X1842Y2305D02*
X1870Y2305D01*
X1897Y2305D02*
X1935Y2305D01*
X1156Y2304D02*
X1180Y2304D01*
X1843Y2304D02*
X1871Y2304D01*
X1895Y2304D02*
X1934Y2304D01*
X1156Y2303D02*
X1179Y2303D01*
X1843Y2303D02*
X1872Y2303D01*
X1893Y2303D02*
X1933Y2303D01*
X1156Y2302D02*
X1179Y2302D01*
X1844Y2302D02*
X1874Y2302D01*
X1891Y2302D02*
X1932Y2302D01*
X1156Y2301D02*
X1179Y2301D01*
X1844Y2301D02*
X1876Y2301D01*
X1888Y2301D02*
X1931Y2301D01*
X1156Y2300D02*
X1179Y2300D01*
X1845Y2300D02*
X1880Y2300D01*
X1883Y2300D02*
X1930Y2300D01*
X1156Y2299D02*
X1179Y2299D01*
X1845Y2299D02*
X1928Y2299D01*
X1156Y2298D02*
X1179Y2298D01*
X1846Y2298D02*
X1927Y2298D01*
X1156Y2297D02*
X1179Y2297D01*
X1847Y2297D02*
X1926Y2297D01*
X1155Y2296D02*
X1179Y2296D01*
X1847Y2296D02*
X1925Y2296D01*
X1155Y2295D02*
X1178Y2295D01*
X1848Y2295D02*
X1924Y2295D01*
X1155Y2294D02*
X1178Y2294D01*
X1849Y2294D02*
X1922Y2294D01*
X1155Y2293D02*
X1178Y2293D01*
X1850Y2293D02*
X1921Y2293D01*
X1155Y2292D02*
X1178Y2292D01*
X1850Y2292D02*
X1920Y2292D01*
X1155Y2291D02*
X1178Y2291D01*
X1851Y2291D02*
X1918Y2291D01*
X1155Y2290D02*
X1178Y2290D01*
X1852Y2290D02*
X1917Y2290D01*
X1155Y2289D02*
X1178Y2289D01*
X1853Y2289D02*
X1916Y2289D01*
X1155Y2288D02*
X1178Y2288D01*
X1854Y2288D02*
X1914Y2288D01*
X1154Y2287D02*
X1178Y2287D01*
X1855Y2287D02*
X1913Y2287D01*
X1154Y2286D02*
X1177Y2286D01*
X1856Y2286D02*
X1911Y2286D01*
X1154Y2285D02*
X1177Y2285D01*
X1857Y2285D02*
X1909Y2285D01*
X1154Y2284D02*
X1177Y2284D01*
X1859Y2284D02*
X1907Y2284D01*
X1154Y2283D02*
X1177Y2283D01*
X1860Y2283D02*
X1906Y2283D01*
X1154Y2282D02*
X1177Y2282D01*
X1862Y2282D02*
X1904Y2282D01*
X1154Y2281D02*
X1177Y2281D01*
X1863Y2281D02*
X1902Y2281D01*
X1154Y2280D02*
X1177Y2280D01*
X1865Y2280D02*
X1899Y2280D01*
X1153Y2279D02*
X1177Y2279D01*
X1867Y2279D02*
X1897Y2279D01*
X1153Y2278D02*
X1176Y2278D01*
X1870Y2278D02*
X1894Y2278D01*
X1153Y2277D02*
X1176Y2277D01*
X1873Y2277D02*
X1890Y2277D01*
X1153Y2276D02*
X1176Y2276D01*
X1153Y2275D02*
X1176Y2275D01*
X1153Y2274D02*
X1176Y2274D01*
X1153Y2273D02*
X1176Y2273D01*
X1153Y2272D02*
X1176Y2272D01*
X1153Y2271D02*
X1176Y2271D01*
X1152Y2270D02*
X1176Y2270D01*
X1152Y2269D02*
X1175Y2269D01*
X1152Y2268D02*
X1175Y2268D01*
X1152Y2267D02*
X1175Y2267D01*
X1152Y2266D02*
X1175Y2266D01*
X1152Y2265D02*
X1175Y2265D01*
X1152Y2264D02*
X1175Y2264D01*
X1152Y2263D02*
X1175Y2263D01*
X1152Y2262D02*
X1175Y2262D01*
X1151Y2261D02*
X1175Y2261D01*
X1151Y2260D02*
X1174Y2260D01*
X1151Y2259D02*
X1174Y2259D01*
X1151Y2258D02*
X1174Y2258D01*
X1151Y2257D02*
X1174Y2257D01*
X1151Y2256D02*
X1174Y2256D01*
X1151Y2255D02*
X1174Y2255D01*
X1151Y2254D02*
X1174Y2254D01*
X1151Y2253D02*
X1174Y2253D01*
X1150Y2252D02*
X1174Y2252D01*
X1150Y2251D02*
X1173Y2251D01*
X1150Y2250D02*
X1173Y2250D01*
X1150Y2249D02*
X1173Y2249D01*
X1150Y2248D02*
X1173Y2248D01*
X1150Y2247D02*
X1173Y2247D01*
X1150Y2246D02*
X1173Y2246D01*
X1150Y2245D02*
X1173Y2245D01*
X1150Y2244D02*
X1173Y2244D01*
X1150Y2243D02*
X1173Y2243D01*
X1149Y2242D02*
X1173Y2242D01*
X1149Y2241D02*
X1172Y2241D01*
X1149Y2240D02*
X1172Y2240D01*
X1149Y2239D02*
X1172Y2239D01*
X1149Y2238D02*
X1172Y2238D01*
X1149Y2237D02*
X1172Y2237D01*
X1149Y2236D02*
X1172Y2236D01*
X1149Y2235D02*
X1172Y2235D01*
X1149Y2234D02*
X1172Y2234D01*
X1148Y2233D02*
X1172Y2233D01*
X1148Y2232D02*
X1171Y2232D01*
X1148Y2231D02*
X1171Y2231D01*
X1148Y2230D02*
X1171Y2230D01*
X1148Y2229D02*
X1171Y2229D01*
X1148Y2228D02*
X1171Y2228D01*
X1148Y2227D02*
X1171Y2227D01*
X1148Y2226D02*
X1171Y2226D01*
X1148Y2225D02*
X1171Y2225D01*
X1147Y2224D02*
X1171Y2224D01*
X1147Y2223D02*
X1171Y2223D01*
X1147Y2222D02*
X1170Y2222D01*
X1147Y2221D02*
X1170Y2221D01*
X1147Y2220D02*
X1170Y2220D01*
X1147Y2219D02*
X1170Y2219D01*
X1147Y2218D02*
X1170Y2218D01*
X1147Y2217D02*
X1170Y2217D01*
X1147Y2216D02*
X1170Y2216D01*
X1147Y2215D02*
X1170Y2215D01*
X1147Y2214D02*
X1170Y2214D01*
X1146Y2213D02*
X1170Y2213D01*
X1146Y2212D02*
X1169Y2212D01*
X1146Y2211D02*
X1169Y2211D01*
X1146Y2210D02*
X1169Y2210D01*
X1146Y2209D02*
X1169Y2209D01*
X1146Y2208D02*
X1169Y2208D01*
X1146Y2207D02*
X1169Y2207D01*
X1146Y2206D02*
X1169Y2206D01*
X1146Y2205D02*
X1169Y2205D01*
X1146Y2204D02*
X1169Y2204D01*
X1145Y2203D02*
X1169Y2203D01*
X1145Y2202D02*
X1168Y2202D01*
X1145Y2201D02*
X1168Y2201D01*
X1145Y2200D02*
X1168Y2200D01*
X1145Y2199D02*
X1168Y2199D01*
X1145Y2198D02*
X1168Y2198D01*
X1145Y2197D02*
X1168Y2197D01*
X1145Y2196D02*
X1168Y2196D01*
X1145Y2195D02*
X1168Y2195D01*
X1145Y2194D02*
X1168Y2194D01*
X1145Y2193D02*
X1168Y2193D01*
X1144Y2192D02*
X1168Y2192D01*
X1144Y2191D02*
X1167Y2191D01*
X1144Y2190D02*
X1167Y2190D01*
X1144Y2189D02*
X1167Y2189D01*
X1144Y2188D02*
X1167Y2188D01*
X1144Y2187D02*
X1167Y2187D01*
X1144Y2186D02*
X1167Y2186D01*
X1144Y2185D02*
X1167Y2185D01*
X1144Y2184D02*
X1167Y2184D01*
X1144Y2183D02*
X1167Y2183D01*
X1143Y2182D02*
X1167Y2182D01*
X1143Y2181D02*
X1166Y2181D01*
X1143Y2180D02*
X1166Y2180D01*
X1143Y2179D02*
X1166Y2179D01*
X1143Y2178D02*
X1166Y2178D01*
X1143Y2177D02*
X1166Y2177D01*
X1143Y2176D02*
X1166Y2176D01*
X1143Y2175D02*
X1166Y2175D01*
X1143Y2174D02*
X1166Y2174D01*
X1143Y2173D02*
X1166Y2173D01*
X1143Y2172D02*
X1166Y2172D01*
X1143Y2171D02*
X1166Y2171D01*
X1142Y2170D02*
X1166Y2170D01*
X1142Y2169D02*
X1165Y2169D01*
X1142Y2168D02*
X1165Y2168D01*
X1142Y2167D02*
X1165Y2167D01*
X1142Y2166D02*
X1165Y2166D01*
X1142Y2165D02*
X1165Y2165D01*
X1142Y2164D02*
X1165Y2164D01*
X1142Y2163D02*
X1165Y2163D01*
X1142Y2162D02*
X1165Y2162D01*
X1142Y2161D02*
X1165Y2161D01*
X1142Y2160D02*
X1165Y2160D01*
X1142Y2159D02*
X1165Y2159D01*
X1141Y2158D02*
X1165Y2158D01*
X1141Y2157D02*
X1164Y2157D01*
X1141Y2156D02*
X1164Y2156D01*
X1141Y2155D02*
X1164Y2155D01*
X1141Y2154D02*
X1164Y2154D01*
X1141Y2153D02*
X1164Y2153D01*
X1141Y2152D02*
X1164Y2152D01*
X1141Y2151D02*
X1164Y2151D01*
X1141Y2150D02*
X1164Y2150D01*
X1141Y2149D02*
X1164Y2149D01*
X1141Y2148D02*
X1164Y2148D01*
X1141Y2147D02*
X1164Y2147D01*
X1140Y2146D02*
X1164Y2146D01*
X1140Y2145D02*
X1163Y2145D01*
X1140Y2144D02*
X1163Y2144D01*
X1140Y2143D02*
X1163Y2143D01*
X1140Y2142D02*
X1163Y2142D01*
X1140Y2141D02*
X1163Y2141D01*
X1140Y2140D02*
X1163Y2140D01*
X1140Y2139D02*
X1163Y2139D01*
X1140Y2138D02*
X1163Y2138D01*
X1140Y2137D02*
X1163Y2137D01*
X1140Y2136D02*
X1163Y2136D01*
X1140Y2135D02*
X1163Y2135D01*
X1140Y2134D02*
X1163Y2134D01*
X1139Y2133D02*
X1162Y2133D01*
X1139Y2132D02*
X1162Y2132D01*
X1139Y2131D02*
X1162Y2131D01*
X1139Y2130D02*
X1162Y2130D01*
X1139Y2129D02*
X1162Y2129D01*
X1139Y2128D02*
X1162Y2128D01*
X1139Y2127D02*
X1162Y2127D01*
X1139Y2126D02*
X1162Y2126D01*
X1139Y2125D02*
X1162Y2125D01*
X1139Y2124D02*
X1162Y2124D01*
X1139Y2123D02*
X1162Y2123D01*
X1139Y2122D02*
X1162Y2122D01*
X1139Y2121D02*
X1162Y2121D01*
X1138Y2120D02*
X1162Y2120D01*
X1138Y2119D02*
X1161Y2119D01*
X1138Y2118D02*
X1161Y2118D01*
X1138Y2117D02*
X1161Y2117D01*
X1138Y2116D02*
X1161Y2116D01*
X1138Y2115D02*
X1161Y2115D01*
X1138Y2114D02*
X1161Y2114D01*
X1138Y2113D02*
X1161Y2113D01*
X1138Y2112D02*
X1161Y2112D01*
X1138Y2111D02*
X1161Y2111D01*
X1138Y2110D02*
X1161Y2110D01*
X1138Y2109D02*
X1161Y2109D01*
X1138Y2108D02*
X1161Y2108D01*
X1138Y2107D02*
X1161Y2107D01*
X1137Y2106D02*
X1161Y2106D01*
X1137Y2105D02*
X1160Y2105D01*
X1137Y2104D02*
X1160Y2104D01*
X1137Y2103D02*
X1160Y2103D01*
X1137Y2102D02*
X1160Y2102D01*
X1137Y2101D02*
X1160Y2101D01*
X1137Y2100D02*
X1160Y2100D01*
X1137Y2099D02*
X1160Y2099D01*
X1137Y2098D02*
X1160Y2098D01*
X1137Y2097D02*
X1160Y2097D01*
X1137Y2096D02*
X1160Y2096D01*
X1137Y2095D02*
X1160Y2095D01*
X1137Y2094D02*
X1160Y2094D01*
X1137Y2093D02*
X1160Y2093D01*
X1137Y2092D02*
X1160Y2092D01*
X1137Y2091D02*
X1160Y2091D01*
X1136Y2090D02*
X1159Y2090D01*
X1136Y2089D02*
X1159Y2089D01*
X1136Y2088D02*
X1159Y2088D01*
X1136Y2087D02*
X1159Y2087D01*
X1136Y2086D02*
X1159Y2086D01*
X1136Y2085D02*
X1159Y2085D01*
X1136Y2084D02*
X1159Y2084D01*
X1136Y2083D02*
X1159Y2083D01*
X1136Y2082D02*
X1159Y2082D01*
X1136Y2081D02*
X1159Y2081D01*
X1136Y2080D02*
X1159Y2080D01*
X1136Y2079D02*
X1159Y2079D01*
X1136Y2078D02*
X1159Y2078D01*
X1136Y2077D02*
X1159Y2077D01*
X1136Y2076D02*
X1159Y2076D01*
X1136Y2075D02*
X1159Y2075D01*
X1135Y2074D02*
X1159Y2074D01*
X1135Y2073D02*
X1158Y2073D01*
X1135Y2072D02*
X1158Y2072D01*
X1135Y2071D02*
X1158Y2071D01*
X1135Y2070D02*
X1158Y2070D01*
X1135Y2069D02*
X1158Y2069D01*
X1135Y2068D02*
X1158Y2068D01*
X1135Y2067D02*
X1158Y2067D01*
X1135Y2066D02*
X1158Y2066D01*
X1135Y2065D02*
X1158Y2065D01*
X1135Y2064D02*
X1158Y2064D01*
X1135Y2063D02*
X1158Y2063D01*
X1135Y2062D02*
X1158Y2062D01*
X1135Y2061D02*
X1158Y2061D01*
X1135Y2060D02*
X1158Y2060D01*
X1135Y2059D02*
X1158Y2059D01*
X1135Y2058D02*
X1158Y2058D01*
X1134Y2057D02*
X1157Y2057D01*
X1134Y2056D02*
X1157Y2056D01*
X1134Y2055D02*
X1157Y2055D01*
X1134Y2054D02*
X1157Y2054D01*
X1134Y2053D02*
X1157Y2053D01*
X1134Y2052D02*
X1157Y2052D01*
X1134Y2051D02*
X1157Y2051D01*
X1134Y2050D02*
X1157Y2050D01*
X1134Y2049D02*
X1157Y2049D01*
X1134Y2048D02*
X1157Y2048D01*
X1134Y2047D02*
X1157Y2047D01*
X1134Y2046D02*
X1157Y2046D01*
X1134Y2045D02*
X1157Y2045D01*
X1134Y2044D02*
X1157Y2044D01*
X1134Y2043D02*
X1157Y2043D01*
X1134Y2042D02*
X1157Y2042D01*
X1134Y2041D02*
X1157Y2041D01*
X1134Y2040D02*
X1157Y2040D01*
X1134Y2039D02*
X1157Y2039D01*
X1134Y2038D02*
X1157Y2038D01*
X1134Y2037D02*
X1157Y2037D01*
X1134Y2036D02*
X1157Y2036D01*
X1133Y2035D02*
X1156Y2035D01*
X1133Y2034D02*
X1156Y2034D01*
X1133Y2033D02*
X1156Y2033D01*
X1133Y2032D02*
X1156Y2032D01*
X1133Y2031D02*
X1156Y2031D01*
X1133Y2030D02*
X1156Y2030D01*
X1133Y2029D02*
X1156Y2029D01*
X1133Y2028D02*
X1156Y2028D01*
X1133Y2027D02*
X1156Y2027D01*
X1133Y2026D02*
X1156Y2026D01*
X1133Y2025D02*
X1156Y2025D01*
X1133Y2024D02*
X1156Y2024D01*
X1133Y2023D02*
X1156Y2023D01*
X1133Y2022D02*
X1156Y2022D01*
X1133Y2021D02*
X1156Y2021D01*
X1133Y2020D02*
X1156Y2020D01*
X1133Y2019D02*
X1156Y2019D01*
X1133Y2018D02*
X1156Y2018D01*
X1133Y2017D02*
X1156Y2017D01*
X1133Y2016D02*
X1156Y2016D01*
X1133Y2015D02*
X1156Y2015D01*
X1133Y2014D02*
X1156Y2014D01*
X1132Y2013D02*
X1155Y2013D01*
X1132Y2012D02*
X1155Y2012D01*
X1132Y2011D02*
X1155Y2011D01*
X1132Y2010D02*
X1155Y2010D01*
X1132Y2009D02*
X1155Y2009D01*
X1132Y2008D02*
X1155Y2008D01*
X1132Y2007D02*
X1155Y2007D01*
X1132Y2006D02*
X1155Y2006D01*
X1132Y2005D02*
X1155Y2005D01*
X1132Y2004D02*
X1155Y2004D01*
X1132Y2003D02*
X1155Y2003D01*
X1132Y2002D02*
X1155Y2002D01*
X1132Y2001D02*
X1155Y2001D01*
X1132Y2000D02*
X1155Y2000D01*
X1132Y1999D02*
X1155Y1999D01*
X1132Y1998D02*
X1155Y1998D01*
X1132Y1997D02*
X1155Y1997D01*
X1132Y1996D02*
X1155Y1996D01*
X1132Y1995D02*
X1155Y1995D01*
X1132Y1994D02*
X1155Y1994D01*
X1132Y1993D02*
X1155Y1993D01*
X1132Y1992D02*
X1155Y1992D01*
X1132Y1991D02*
X1155Y1991D01*
X1132Y1990D02*
X1155Y1990D01*
X1132Y1989D02*
X1155Y1989D01*
X1132Y1988D02*
X1155Y1988D01*
X1132Y1987D02*
X1155Y1987D01*
X1132Y1986D02*
X1155Y1986D01*
X1132Y1985D02*
X1155Y1985D01*
X1132Y1984D02*
X1155Y1984D01*
X1132Y1983D02*
X1155Y1983D01*
X1132Y1982D02*
X1154Y1982D01*
X1131Y1981D02*
X1154Y1981D01*
X1131Y1980D02*
X1154Y1980D01*
X1131Y1979D02*
X1154Y1979D01*
X1131Y1978D02*
X1154Y1978D01*
X1131Y1977D02*
X1154Y1977D01*
X1131Y1976D02*
X1154Y1976D01*
X1131Y1975D02*
X1154Y1975D01*
X1131Y1974D02*
X1154Y1974D01*
X1131Y1973D02*
X1154Y1973D01*
X1131Y1972D02*
X1154Y1972D01*
X1131Y1971D02*
X1154Y1971D01*
X1131Y1970D02*
X1154Y1970D01*
X1131Y1969D02*
X1154Y1969D01*
X1131Y1968D02*
X1154Y1968D01*
X1131Y1967D02*
X1154Y1967D01*
X1131Y1966D02*
X1154Y1966D01*
X1131Y1965D02*
X1154Y1965D01*
X1131Y1964D02*
X1154Y1964D01*
X1131Y1963D02*
X1154Y1963D01*
X1131Y1962D02*
X1154Y1962D01*
X1131Y1961D02*
X1154Y1961D01*
X1131Y1960D02*
X1154Y1960D01*
X1131Y1959D02*
X1154Y1959D01*
X1131Y1958D02*
X1154Y1958D01*
X1131Y1957D02*
X1154Y1957D01*
X1131Y1956D02*
X1154Y1956D01*
X1131Y1955D02*
X1154Y1955D01*
X1131Y1954D02*
X1154Y1954D01*
X1131Y1953D02*
X1154Y1953D01*
X1131Y1952D02*
X1154Y1952D01*
X1131Y1951D02*
X1154Y1951D01*
X1131Y1950D02*
X1154Y1950D01*
X1131Y1949D02*
X1154Y1949D01*
X1131Y1948D02*
X1154Y1948D01*
X1131Y1947D02*
X1154Y1947D01*
X1131Y1946D02*
X1154Y1946D01*
X1131Y1945D02*
X1154Y1945D01*
X1131Y1944D02*
X1154Y1944D01*
X1131Y1943D02*
X1154Y1943D01*
X1131Y1942D02*
X1154Y1942D01*
X1131Y1941D02*
X1154Y1941D01*
X1131Y1940D02*
X1154Y1940D01*
X1131Y1939D02*
X1154Y1939D01*
X1131Y1938D02*
X1154Y1938D01*
X1131Y1937D02*
X1154Y1937D01*
X1131Y1936D02*
X1154Y1936D01*
X1131Y1935D02*
X1154Y1935D01*
X1131Y1934D02*
X1154Y1934D01*
X1131Y1933D02*
X1154Y1933D01*
X1131Y1932D02*
X1154Y1932D01*
X1131Y1931D02*
X1154Y1931D01*
X1131Y1930D02*
X1154Y1930D01*
X1131Y1929D02*
X1154Y1929D01*
X1131Y1928D02*
X1154Y1928D01*
X1131Y1927D02*
X1154Y1927D01*
X1131Y1926D02*
X1154Y1926D01*
X1131Y1925D02*
X1154Y1925D01*
X1131Y1924D02*
X1154Y1924D01*
X1131Y1923D02*
X1154Y1923D01*
X1131Y1922D02*
X1154Y1922D01*
X1131Y1921D02*
X1154Y1921D01*
X1131Y1920D02*
X1154Y1920D01*
X1131Y1919D02*
X1154Y1919D01*
X1131Y1918D02*
X1154Y1918D01*
X1131Y1917D02*
X1154Y1917D01*
X1131Y1916D02*
X1154Y1916D01*
X1131Y1915D02*
X1154Y1915D01*
X1131Y1914D02*
X1154Y1914D01*
X1131Y1913D02*
X1154Y1913D01*
X1131Y1912D02*
X1154Y1912D01*
X1131Y1911D02*
X1154Y1911D01*
X1131Y1910D02*
X1154Y1910D01*
X1131Y1909D02*
X1154Y1909D01*
X1131Y1908D02*
X1154Y1908D01*
X1131Y1907D02*
X1154Y1907D01*
X1131Y1906D02*
X1154Y1906D01*
X1131Y1905D02*
X1154Y1905D01*
X1131Y1904D02*
X1154Y1904D01*
X1131Y1903D02*
X1154Y1903D01*
X1131Y1902D02*
X1154Y1902D01*
X1131Y1901D02*
X1154Y1901D01*
X1131Y1900D02*
X1154Y1900D01*
X1131Y1899D02*
X1154Y1899D01*
X1131Y1898D02*
X1154Y1898D01*
X1131Y1897D02*
X1154Y1897D01*
X1131Y1896D02*
X1154Y1896D01*
X1131Y1895D02*
X1154Y1895D01*
X1131Y1894D02*
X1154Y1894D01*
X1131Y1893D02*
X1154Y1893D01*
X1131Y1892D02*
X1154Y1892D01*
X1131Y1891D02*
X1154Y1891D01*
X1131Y1890D02*
X1154Y1890D01*
X1131Y1889D02*
X1154Y1889D01*
X1131Y1888D02*
X1154Y1888D01*
X1131Y1887D02*
X1154Y1887D01*
X1131Y1886D02*
X1154Y1886D01*
X1131Y1885D02*
X1154Y1885D01*
X1131Y1884D02*
X1154Y1884D01*
X1131Y1883D02*
X1154Y1883D01*
X1131Y1882D02*
X1154Y1882D01*
X1131Y1881D02*
X1154Y1881D01*
X1131Y1880D02*
X1154Y1880D01*
X1131Y1879D02*
X1154Y1879D01*
X1131Y1878D02*
X1154Y1878D01*
X1131Y1877D02*
X1154Y1877D01*
X1131Y1876D02*
X1154Y1876D01*
X1131Y1875D02*
X1154Y1875D01*
X1131Y1874D02*
X1154Y1874D01*
X1131Y1873D02*
X1154Y1873D01*
X1131Y1872D02*
X1154Y1872D01*
X1131Y1871D02*
X1154Y1871D01*
X1131Y1870D02*
X1154Y1870D01*
X1131Y1869D02*
X1154Y1869D01*
X1131Y1868D02*
X1154Y1868D01*
X1131Y1867D02*
X1154Y1867D01*
X1131Y1866D02*
X1154Y1866D01*
X1131Y1865D02*
X1154Y1865D01*
X1131Y1864D02*
X1154Y1864D01*
X1131Y1863D02*
X1154Y1863D01*
X1131Y1862D02*
X1154Y1862D01*
X1131Y1861D02*
X1154Y1861D01*
X1131Y1860D02*
X1154Y1860D01*
X1131Y1859D02*
X1154Y1859D01*
X1131Y1858D02*
X1154Y1858D01*
X1131Y1857D02*
X1154Y1857D01*
X1131Y1856D02*
X1154Y1856D01*
X1131Y1855D02*
X1154Y1855D01*
X1131Y1854D02*
X1154Y1854D01*
X1131Y1853D02*
X1154Y1853D01*
X1131Y1852D02*
X1154Y1852D01*
X1131Y1851D02*
X1154Y1851D01*
X1131Y1850D02*
X1154Y1850D01*
X1131Y1849D02*
X1154Y1849D01*
X1131Y1848D02*
X1154Y1848D01*
X1131Y1847D02*
X1154Y1847D01*
X1132Y1846D02*
X1154Y1846D01*
X1132Y1845D02*
X1154Y1845D01*
X1132Y1844D02*
X1155Y1844D01*
X1132Y1843D02*
X1155Y1843D01*
X1132Y1842D02*
X1155Y1842D01*
X1132Y1841D02*
X1155Y1841D01*
X1132Y1840D02*
X1155Y1840D01*
X1132Y1839D02*
X1155Y1839D01*
X1132Y1838D02*
X1155Y1838D01*
X1132Y1837D02*
X1155Y1837D01*
X1132Y1836D02*
X1155Y1836D01*
X1132Y1835D02*
X1155Y1835D01*
X1132Y1834D02*
X1155Y1834D01*
X1132Y1833D02*
X1155Y1833D01*
X1132Y1832D02*
X1155Y1832D01*
X1132Y1831D02*
X1155Y1831D01*
X1132Y1830D02*
X1155Y1830D01*
X1132Y1829D02*
X1155Y1829D01*
X1132Y1828D02*
X1155Y1828D01*
X1132Y1827D02*
X1155Y1827D01*
X1132Y1826D02*
X1155Y1826D01*
X1132Y1825D02*
X1155Y1825D01*
X1132Y1824D02*
X1155Y1824D01*
X1132Y1823D02*
X1155Y1823D01*
X1132Y1822D02*
X1155Y1822D01*
X1132Y1821D02*
X1155Y1821D01*
X1132Y1820D02*
X1155Y1820D01*
X1133Y1819D02*
X1155Y1819D01*
X1133Y1818D02*
X1156Y1818D01*
X1133Y1817D02*
X1156Y1817D01*
X1133Y1816D02*
X1156Y1816D01*
X1133Y1815D02*
X1156Y1815D01*
X1133Y1814D02*
X1156Y1814D01*
X1133Y1813D02*
X1156Y1813D01*
X1133Y1812D02*
X1156Y1812D01*
X1133Y1811D02*
X1156Y1811D01*
X1133Y1810D02*
X1156Y1810D01*
X1133Y1809D02*
X1156Y1809D01*
X1133Y1808D02*
X1156Y1808D01*
X1133Y1807D02*
X1156Y1807D01*
X1133Y1806D02*
X1156Y1806D01*
X1133Y1805D02*
X1156Y1805D01*
X1133Y1804D02*
X1156Y1804D01*
X1133Y1803D02*
X1156Y1803D01*
X1133Y1802D02*
X1156Y1802D01*
X1133Y1801D02*
X1156Y1801D01*
X1133Y1800D02*
X1156Y1800D01*
X1134Y1799D02*
X1156Y1799D01*
X1134Y1798D02*
X1156Y1798D01*
X1134Y1797D02*
X1157Y1797D01*
X1134Y1796D02*
X1157Y1796D01*
X1134Y1795D02*
X1157Y1795D01*
X1134Y1794D02*
X1157Y1794D01*
X1134Y1793D02*
X1157Y1793D01*
X1134Y1792D02*
X1157Y1792D01*
X1134Y1791D02*
X1157Y1791D01*
X1134Y1790D02*
X1157Y1790D01*
X1134Y1789D02*
X1157Y1789D01*
X1134Y1788D02*
X1157Y1788D01*
X1134Y1787D02*
X1157Y1787D01*
X1134Y1786D02*
X1157Y1786D01*
X1134Y1785D02*
X1157Y1785D01*
X1134Y1784D02*
X1157Y1784D01*
X1134Y1783D02*
X1157Y1783D01*
X1135Y1782D02*
X1157Y1782D01*
X1135Y1781D02*
X1158Y1781D01*
X1135Y1780D02*
X1158Y1780D01*
X1135Y1779D02*
X1158Y1779D01*
X1135Y1778D02*
X1158Y1778D01*
X1135Y1777D02*
X1158Y1777D01*
X1135Y1776D02*
X1158Y1776D01*
X1135Y1775D02*
X1158Y1775D01*
X1135Y1774D02*
X1158Y1774D01*
X1135Y1773D02*
X1158Y1773D01*
X1135Y1772D02*
X1158Y1772D01*
X1135Y1771D02*
X1158Y1771D01*
X1135Y1770D02*
X1158Y1770D01*
X1135Y1769D02*
X1158Y1769D01*
X1135Y1768D02*
X1158Y1768D01*
X1136Y1767D02*
X1158Y1767D01*
X1136Y1766D02*
X1159Y1766D01*
X1136Y1765D02*
X1159Y1765D01*
X1136Y1764D02*
X1159Y1764D01*
X1136Y1763D02*
X1159Y1763D01*
X1136Y1762D02*
X1159Y1762D01*
X1136Y1761D02*
X1159Y1761D01*
X1136Y1760D02*
X1159Y1760D01*
X1136Y1759D02*
X1159Y1759D01*
X1136Y1758D02*
X1159Y1758D01*
X1136Y1757D02*
X1159Y1757D01*
X1136Y1756D02*
X1159Y1756D01*
X1136Y1755D02*
X1159Y1755D01*
X1137Y1754D02*
X1159Y1754D01*
X1137Y1753D02*
X1160Y1753D01*
X1137Y1752D02*
X1160Y1752D01*
X1137Y1751D02*
X1160Y1751D01*
X1137Y1750D02*
X1160Y1750D01*
X1137Y1749D02*
X1160Y1749D01*
X1137Y1748D02*
X1160Y1748D01*
X1137Y1747D02*
X1160Y1747D01*
X1137Y1746D02*
X1160Y1746D01*
X1137Y1745D02*
X1160Y1745D01*
X1137Y1744D02*
X1160Y1744D01*
X1137Y1743D02*
X1160Y1743D01*
X1138Y1742D02*
X1160Y1742D01*
X1138Y1741D02*
X1161Y1741D01*
X1138Y1740D02*
X1161Y1740D01*
X1138Y1739D02*
X1161Y1739D01*
X1138Y1738D02*
X1161Y1738D01*
X1138Y1737D02*
X1161Y1737D01*
X1138Y1736D02*
X1161Y1736D01*
X1138Y1735D02*
X1161Y1735D01*
X1138Y1734D02*
X1161Y1734D01*
X1138Y1733D02*
X1161Y1733D01*
X1138Y1732D02*
X1161Y1732D01*
X1139Y1731D02*
X1161Y1731D01*
X1139Y1730D02*
X1162Y1730D01*
X1139Y1729D02*
X1162Y1729D01*
X1139Y1728D02*
X1162Y1728D01*
X1139Y1727D02*
X1162Y1727D01*
X1139Y1726D02*
X1162Y1726D01*
X1139Y1725D02*
X1162Y1725D01*
X1139Y1724D02*
X1162Y1724D01*
X1139Y1723D02*
X1162Y1723D01*
X1139Y1722D02*
X1162Y1722D01*
X1140Y1721D02*
X1162Y1721D01*
X1140Y1720D02*
X1163Y1720D01*
X1140Y1719D02*
X1163Y1719D01*
X1140Y1718D02*
X1163Y1718D01*
X1140Y1717D02*
X1163Y1717D01*
X1140Y1716D02*
X1163Y1716D01*
X1140Y1715D02*
X1163Y1715D01*
X1140Y1714D02*
X1163Y1714D01*
X1140Y1713D02*
X1163Y1713D01*
X1140Y1712D02*
X1163Y1712D01*
X1141Y1711D02*
X1164Y1711D01*
X1141Y1710D02*
X1164Y1710D01*
X1141Y1709D02*
X1164Y1709D01*
X1141Y1708D02*
X1164Y1708D01*
X1141Y1707D02*
X1164Y1707D01*
X1141Y1706D02*
X1164Y1706D01*
X1141Y1705D02*
X1164Y1705D01*
X1141Y1704D02*
X1164Y1704D01*
X1141Y1703D02*
X1164Y1703D01*
X1142Y1702D02*
X1165Y1702D01*
X1142Y1701D02*
X1165Y1701D01*
X1142Y1700D02*
X1165Y1700D01*
X1142Y1699D02*
X1165Y1699D01*
X1142Y1698D02*
X1165Y1698D01*
X1142Y1697D02*
X1165Y1697D01*
X1142Y1696D02*
X1165Y1696D01*
X1142Y1695D02*
X1165Y1695D01*
X1142Y1694D02*
X1165Y1694D01*
X1143Y1693D02*
X1166Y1693D01*
X1143Y1692D02*
X1166Y1692D01*
X1143Y1691D02*
X1166Y1691D01*
X1143Y1690D02*
X1166Y1690D01*
X1143Y1689D02*
X1166Y1689D01*
X1143Y1688D02*
X1166Y1688D01*
X1143Y1687D02*
X1166Y1687D01*
X1143Y1686D02*
X1166Y1686D01*
X1144Y1685D02*
X1167Y1685D01*
X1144Y1684D02*
X1167Y1684D01*
X1144Y1683D02*
X1167Y1683D01*
X1144Y1682D02*
X1167Y1682D01*
X1144Y1681D02*
X1167Y1681D01*
X1144Y1680D02*
X1167Y1680D01*
X1144Y1679D02*
X1167Y1679D01*
X1144Y1678D02*
X1168Y1678D01*
X1145Y1677D02*
X1168Y1677D01*
X1145Y1676D02*
X1168Y1676D01*
X1145Y1675D02*
X1168Y1675D01*
X1145Y1674D02*
X1168Y1674D01*
X1145Y1673D02*
X1168Y1673D01*
X1145Y1672D02*
X1168Y1672D01*
X1145Y1671D02*
X1168Y1671D01*
X1146Y1670D02*
X1169Y1670D01*
X1146Y1669D02*
X1169Y1669D01*
X1146Y1668D02*
X1169Y1668D01*
X1146Y1667D02*
X1169Y1667D01*
X1146Y1666D02*
X1169Y1666D01*
X1146Y1665D02*
X1169Y1665D01*
X1146Y1664D02*
X1169Y1664D01*
X1147Y1663D02*
X1170Y1663D01*
X1147Y1662D02*
X1170Y1662D01*
X1147Y1661D02*
X1170Y1661D01*
X1147Y1660D02*
X1170Y1660D01*
X1147Y1659D02*
X1170Y1659D01*
X1147Y1658D02*
X1170Y1658D01*
X1147Y1657D02*
X1170Y1657D01*
X1148Y1656D02*
X1171Y1656D01*
X1148Y1655D02*
X1171Y1655D01*
X1148Y1654D02*
X1171Y1654D01*
X1148Y1653D02*
X1171Y1653D01*
X1148Y1652D02*
X1171Y1652D01*
X1148Y1651D02*
X1171Y1651D01*
X1148Y1650D02*
X1172Y1650D01*
X1149Y1649D02*
X1172Y1649D01*
X1149Y1648D02*
X1172Y1648D01*
X1149Y1647D02*
X1172Y1647D01*
X1149Y1646D02*
X1172Y1646D01*
X1149Y1645D02*
X1172Y1645D01*
X1149Y1644D02*
X1173Y1644D01*
X1150Y1643D02*
X1173Y1643D01*
X1150Y1642D02*
X1173Y1642D01*
X1150Y1641D02*
X1173Y1641D01*
X1150Y1640D02*
X1173Y1640D01*
X1150Y1639D02*
X1173Y1639D01*
X1150Y1638D02*
X1173Y1638D01*
X1151Y1637D02*
X1174Y1637D01*
X1151Y1636D02*
X1174Y1636D01*
X1151Y1635D02*
X1174Y1635D01*
X1151Y1634D02*
X1174Y1634D01*
X1151Y1633D02*
X1174Y1633D01*
X1151Y1632D02*
X1175Y1632D01*
X1151Y1631D02*
X1175Y1631D01*
X1152Y1630D02*
X1175Y1630D01*
X1152Y1629D02*
X1175Y1629D01*
X1152Y1628D02*
X1175Y1628D01*
X1152Y1627D02*
X1175Y1627D01*
X1152Y1626D02*
X1176Y1626D01*
X1153Y1625D02*
X1176Y1625D01*
X1153Y1624D02*
X1176Y1624D01*
X1153Y1623D02*
X1176Y1623D01*
X1153Y1622D02*
X1176Y1622D01*
X1153Y1621D02*
X1176Y1621D01*
X1153Y1620D02*
X1177Y1620D01*
X1154Y1619D02*
X1177Y1619D01*
X1154Y1618D02*
X1177Y1618D01*
X1154Y1617D02*
X1177Y1617D01*
X1154Y1616D02*
X1177Y1616D01*
X1154Y1615D02*
X1178Y1615D01*
X1154Y1614D02*
X1178Y1614D01*
X1155Y1613D02*
X1178Y1613D01*
X1155Y1612D02*
X1178Y1612D01*
X1155Y1611D02*
X1178Y1611D01*
X1155Y1610D02*
X1179Y1610D01*
X1155Y1609D02*
X1179Y1609D01*
X1156Y1608D02*
X1179Y1608D01*
X1156Y1607D02*
X1179Y1607D01*
X1156Y1606D02*
X1179Y1606D01*
X1156Y1605D02*
X1180Y1605D01*
X1156Y1604D02*
X1180Y1604D01*
X1157Y1603D02*
X1180Y1603D01*
X1157Y1602D02*
X1180Y1602D01*
X1157Y1601D02*
X1180Y1601D01*
X1157Y1600D02*
X1180Y1600D01*
X1157Y1599D02*
X1181Y1599D01*
X1158Y1598D02*
X1181Y1598D01*
X1158Y1597D02*
X1181Y1597D01*
X1158Y1596D02*
X1181Y1596D01*
X1158Y1595D02*
X1182Y1595D01*
X1158Y1594D02*
X1182Y1594D01*
X1159Y1593D02*
X1182Y1593D01*
X1159Y1592D02*
X1182Y1592D01*
X1159Y1591D02*
X1182Y1591D01*
X1159Y1590D02*
X1183Y1590D01*
X1159Y1589D02*
X1183Y1589D01*
X1160Y1588D02*
X1183Y1588D01*
X1160Y1587D02*
X1183Y1587D01*
X1160Y1586D02*
X1183Y1586D01*
X1160Y1585D02*
X1184Y1585D01*
X1160Y1584D02*
X1184Y1584D01*
X1161Y1583D02*
X1184Y1583D01*
X1161Y1582D02*
X1184Y1582D01*
X1161Y1581D02*
X1185Y1581D01*
X1161Y1580D02*
X1185Y1580D01*
X1162Y1579D02*
X1185Y1579D01*
X1162Y1578D02*
X1185Y1578D01*
X1162Y1577D02*
X1185Y1577D01*
X1162Y1576D02*
X1186Y1576D01*
X1162Y1575D02*
X1186Y1575D01*
X1163Y1574D02*
X1186Y1574D01*
X1163Y1573D02*
X1186Y1573D01*
X1163Y1572D02*
X1187Y1572D01*
X1163Y1571D02*
X1187Y1571D01*
X1164Y1570D02*
X1187Y1570D01*
X1164Y1569D02*
X1187Y1569D01*
X1164Y1568D02*
X1188Y1568D01*
X1164Y1567D02*
X1188Y1567D01*
X1165Y1566D02*
X1188Y1566D01*
X1165Y1565D02*
X1188Y1565D01*
X1165Y1564D02*
X1189Y1564D01*
X1165Y1563D02*
X1189Y1563D01*
X1165Y1562D02*
X1189Y1562D01*
X1166Y1561D02*
X1189Y1561D01*
X1166Y1560D02*
X1190Y1560D01*
X1166Y1559D02*
X1190Y1559D01*
X1166Y1558D02*
X1190Y1558D01*
X1167Y1557D02*
X1190Y1557D01*
X1167Y1556D02*
X1191Y1556D01*
X1167Y1555D02*
X1191Y1555D01*
X1167Y1554D02*
X1191Y1554D01*
X1168Y1553D02*
X1191Y1553D01*
X1168Y1552D02*
X1192Y1552D01*
X1168Y1551D02*
X1192Y1551D01*
X1168Y1550D02*
X1192Y1550D01*
X1169Y1549D02*
X1192Y1549D01*
X1169Y1548D02*
X1193Y1548D01*
X1169Y1547D02*
X1193Y1547D01*
X1169Y1546D02*
X1193Y1546D01*
X1170Y1545D02*
X1193Y1545D01*
X1170Y1544D02*
X1194Y1544D01*
X1170Y1543D02*
X1194Y1543D01*
X1170Y1542D02*
X1194Y1542D01*
X1171Y1541D02*
X1194Y1541D01*
X1171Y1540D02*
X1195Y1540D01*
X1171Y1539D02*
X1195Y1539D01*
X1172Y1538D02*
X1195Y1538D01*
X1172Y1537D02*
X1196Y1537D01*
X1172Y1536D02*
X1196Y1536D01*
X1172Y1535D02*
X1196Y1535D01*
X1173Y1534D02*
X1196Y1534D01*
X1173Y1533D02*
X1197Y1533D01*
X1173Y1532D02*
X1197Y1532D01*
X1173Y1531D02*
X1197Y1531D01*
X1174Y1530D02*
X1198Y1530D01*
X1174Y1529D02*
X1198Y1529D01*
X1174Y1528D02*
X1198Y1528D01*
X1175Y1527D02*
X1198Y1527D01*
X1175Y1526D02*
X1199Y1526D01*
X1175Y1525D02*
X1199Y1525D01*
X1175Y1524D02*
X1199Y1524D01*
X1176Y1523D02*
X1200Y1523D01*
X1176Y1522D02*
X1200Y1522D01*
X1176Y1521D02*
X1200Y1521D01*
X1177Y1520D02*
X1200Y1520D01*
X1177Y1519D02*
X1201Y1519D01*
X1177Y1518D02*
X1201Y1518D01*
X1177Y1517D02*
X1201Y1517D01*
X1178Y1516D02*
X1202Y1516D01*
X1178Y1515D02*
X1202Y1515D01*
X1178Y1514D02*
X1202Y1514D01*
X1179Y1513D02*
X1203Y1513D01*
X1179Y1512D02*
X1203Y1512D01*
X1179Y1511D02*
X1203Y1511D01*
X1179Y1510D02*
X1204Y1510D01*
X1180Y1509D02*
X1204Y1509D01*
X1180Y1508D02*
X1204Y1508D01*
X1180Y1507D02*
X1205Y1507D01*
X1181Y1506D02*
X1205Y1506D01*
X1181Y1505D02*
X1205Y1505D01*
X1181Y1504D02*
X1205Y1504D01*
X1182Y1503D02*
X1206Y1503D01*
X1182Y1502D02*
X1206Y1502D01*
X1182Y1501D02*
X1206Y1501D01*
X1183Y1500D02*
X1207Y1500D01*
X1183Y1499D02*
X1207Y1499D01*
X1183Y1498D02*
X1207Y1498D01*
X1184Y1497D02*
X1208Y1497D01*
X1184Y1496D02*
X1208Y1496D01*
X1184Y1495D02*
X1208Y1495D01*
X1185Y1494D02*
X1209Y1494D01*
X1185Y1493D02*
X1209Y1493D01*
X1185Y1492D02*
X1209Y1492D01*
X1186Y1491D02*
X1210Y1491D01*
X1186Y1490D02*
X1210Y1490D01*
X1186Y1489D02*
X1211Y1489D01*
X1187Y1488D02*
X1211Y1488D01*
X1187Y1487D02*
X1211Y1487D01*
X1187Y1486D02*
X1212Y1486D01*
X1188Y1485D02*
X1212Y1485D01*
X1188Y1484D02*
X1212Y1484D01*
X1188Y1483D02*
X1213Y1483D01*
X1189Y1482D02*
X1213Y1482D01*
X1189Y1481D02*
X1213Y1481D01*
X1189Y1480D02*
X1214Y1480D01*
X1190Y1479D02*
X1214Y1479D01*
X1190Y1478D02*
X1215Y1478D01*
X1190Y1477D02*
X1215Y1477D01*
X1191Y1476D02*
X1215Y1476D01*
X1191Y1475D02*
X1216Y1475D01*
X1191Y1474D02*
X1216Y1474D01*
X1192Y1473D02*
X1216Y1473D01*
X1192Y1472D02*
X1217Y1472D01*
X1193Y1471D02*
X1217Y1471D01*
X1193Y1470D02*
X1217Y1470D01*
X1193Y1469D02*
X1218Y1469D01*
X1194Y1468D02*
X1218Y1468D01*
X1194Y1467D02*
X1219Y1467D01*
X1194Y1466D02*
X1219Y1466D01*
X1195Y1465D02*
X1219Y1465D01*
X1195Y1464D02*
X1220Y1464D01*
X1196Y1463D02*
X1220Y1463D01*
X1196Y1462D02*
X1221Y1462D01*
X1196Y1461D02*
X1221Y1461D01*
X1197Y1460D02*
X1221Y1460D01*
X1197Y1459D02*
X1222Y1459D01*
X1197Y1458D02*
X1222Y1458D01*
X1198Y1457D02*
X1223Y1457D01*
X1198Y1456D02*
X1223Y1456D01*
X1199Y1455D02*
X1223Y1455D01*
X1199Y1454D02*
X1224Y1454D01*
X1199Y1453D02*
X1224Y1453D01*
X1200Y1452D02*
X1225Y1452D01*
X1200Y1451D02*
X1225Y1451D01*
X1201Y1450D02*
X1226Y1450D01*
X1201Y1449D02*
X1226Y1449D01*
X1201Y1448D02*
X1227Y1448D01*
X1202Y1447D02*
X1227Y1447D01*
X1202Y1446D02*
X1227Y1446D01*
X1203Y1445D02*
X1228Y1445D01*
X1203Y1444D02*
X1228Y1444D01*
X1204Y1443D02*
X1229Y1443D01*
X1204Y1442D02*
X1229Y1442D01*
X1204Y1441D02*
X1230Y1441D01*
X1205Y1440D02*
X1230Y1440D01*
X1205Y1439D02*
X1230Y1439D01*
X1206Y1438D02*
X1231Y1438D01*
X1206Y1437D02*
X1231Y1437D01*
X1207Y1436D02*
X1232Y1436D01*
X1207Y1435D02*
X1232Y1435D01*
X1207Y1434D02*
X1233Y1434D01*
X1208Y1433D02*
X1233Y1433D01*
X1208Y1432D02*
X1234Y1432D01*
X1209Y1431D02*
X1234Y1431D01*
X1209Y1430D02*
X1235Y1430D01*
X1210Y1429D02*
X1235Y1429D01*
X1210Y1428D02*
X1236Y1428D01*
X1211Y1427D02*
X1236Y1427D01*
X1211Y1426D02*
X1237Y1426D01*
X1212Y1425D02*
X1237Y1425D01*
X1212Y1424D02*
X1238Y1424D01*
X1212Y1423D02*
X1238Y1423D01*
X1213Y1422D02*
X1239Y1422D01*
X1213Y1421D02*
X1239Y1421D01*
X1214Y1420D02*
X1240Y1420D01*
X1214Y1419D02*
X1240Y1419D01*
X1215Y1418D02*
X1241Y1418D01*
X1215Y1417D02*
X1241Y1417D01*
X1216Y1416D02*
X1242Y1416D01*
X1216Y1415D02*
X1242Y1415D01*
X1217Y1414D02*
X1243Y1414D01*
X1217Y1413D02*
X1243Y1413D01*
X1218Y1412D02*
X1244Y1412D01*
X1218Y1411D02*
X1244Y1411D01*
X1219Y1410D02*
X1245Y1410D01*
X1219Y1409D02*
X1245Y1409D01*
X1220Y1408D02*
X1246Y1408D01*
X1220Y1407D02*
X1246Y1407D01*
X1221Y1406D02*
X1247Y1406D01*
X1221Y1405D02*
X1247Y1405D01*
X1222Y1404D02*
X1248Y1404D01*
X1222Y1403D02*
X1248Y1403D01*
X1223Y1402D02*
X1249Y1402D01*
X1223Y1401D02*
X1250Y1401D01*
X1224Y1400D02*
X1250Y1400D01*
X1224Y1399D02*
X1251Y1399D01*
X1225Y1398D02*
X1251Y1398D01*
X1225Y1397D02*
X1252Y1397D01*
X1226Y1396D02*
X1252Y1396D01*
X1227Y1395D02*
X1253Y1395D01*
X1227Y1394D02*
X1254Y1394D01*
X1228Y1393D02*
X1254Y1393D01*
X1228Y1392D02*
X1255Y1392D01*
X1229Y1391D02*
X1255Y1391D01*
X1229Y1390D02*
X1256Y1390D01*
X1230Y1389D02*
X1256Y1389D01*
X1230Y1388D02*
X1257Y1388D01*
X1231Y1387D02*
X1258Y1387D01*
X1231Y1386D02*
X1258Y1386D01*
X1232Y1385D02*
X1259Y1385D01*
X1233Y1384D02*
X1259Y1384D01*
X1233Y1383D02*
X1260Y1383D01*
X1234Y1382D02*
X1261Y1382D01*
X1234Y1381D02*
X1261Y1381D01*
X1235Y1380D02*
X1262Y1380D01*
X1236Y1379D02*
X1263Y1379D01*
X1236Y1378D02*
X1263Y1378D01*
X1237Y1377D02*
X1264Y1377D01*
X1237Y1376D02*
X1264Y1376D01*
X1238Y1375D02*
X1265Y1375D01*
X1239Y1374D02*
X1266Y1374D01*
X1239Y1373D02*
X1266Y1373D01*
X1240Y1372D02*
X1267Y1372D01*
X1240Y1371D02*
X1268Y1371D01*
X1241Y1370D02*
X1268Y1370D01*
X1242Y1369D02*
X1269Y1369D01*
X1242Y1368D02*
X1270Y1368D01*
X1243Y1367D02*
X1270Y1367D01*
X1244Y1366D02*
X1271Y1366D01*
X1244Y1365D02*
X1272Y1365D01*
X1245Y1364D02*
X1273Y1364D01*
X1246Y1363D02*
X1273Y1363D01*
X1246Y1362D02*
X1274Y1362D01*
X1247Y1361D02*
X1275Y1361D01*
X1247Y1360D02*
X1275Y1360D01*
X1248Y1359D02*
X1276Y1359D01*
X1249Y1358D02*
X1277Y1358D01*
X1250Y1357D02*
X1278Y1357D01*
X1250Y1356D02*
X1278Y1356D01*
X1251Y1355D02*
X1279Y1355D01*
X1252Y1354D02*
X1280Y1354D01*
X1252Y1353D02*
X1281Y1353D01*
X1253Y1352D02*
X1281Y1352D01*
X1254Y1351D02*
X1282Y1351D01*
X1254Y1350D02*
X1283Y1350D01*
X1255Y1349D02*
X1284Y1349D01*
X1256Y1348D02*
X1284Y1348D01*
X1256Y1347D02*
X1285Y1347D01*
X1257Y1346D02*
X1286Y1346D01*
X1258Y1345D02*
X1287Y1345D01*
X1259Y1344D02*
X1288Y1344D01*
X1259Y1343D02*
X1288Y1343D01*
X1260Y1342D02*
X1289Y1342D01*
X1261Y1341D02*
X1290Y1341D01*
X1262Y1340D02*
X1291Y1340D01*
X1262Y1339D02*
X1292Y1339D01*
X1263Y1338D02*
X1293Y1338D01*
X1264Y1337D02*
X1293Y1337D01*
X1265Y1336D02*
X1294Y1336D01*
X1265Y1335D02*
X1295Y1335D01*
X1266Y1334D02*
X1296Y1334D01*
X1267Y1333D02*
X1297Y1333D01*
X1268Y1332D02*
X1298Y1332D01*
X1269Y1331D02*
X1299Y1331D01*
X1269Y1330D02*
X1299Y1330D01*
X1270Y1329D02*
X1300Y1329D01*
X1271Y1328D02*
X1301Y1328D01*
X1272Y1327D02*
X1302Y1327D01*
X1273Y1326D02*
X1303Y1326D01*
X1273Y1325D02*
X1304Y1325D01*
X1274Y1324D02*
X1305Y1324D01*
X1275Y1323D02*
X1306Y1323D01*
X1276Y1322D02*
X1307Y1322D01*
X1277Y1321D02*
X1308Y1321D01*
X1278Y1320D02*
X1309Y1320D01*
X1279Y1319D02*
X1310Y1319D01*
X1280Y1318D02*
X1311Y1318D01*
X1280Y1317D02*
X1312Y1317D01*
X1281Y1316D02*
X1313Y1316D01*
X1282Y1315D02*
X1314Y1315D01*
X1283Y1314D02*
X1315Y1314D01*
X1284Y1313D02*
X1316Y1313D01*
X1285Y1312D02*
X1317Y1312D01*
X1286Y1311D02*
X1318Y1311D01*
X1287Y1310D02*
X1319Y1310D01*
X1288Y1309D02*
X1320Y1309D01*
X1289Y1308D02*
X1321Y1308D01*
X1290Y1307D02*
X1322Y1307D01*
X1290Y1306D02*
X1324Y1306D01*
X1291Y1305D02*
X1325Y1305D01*
X1292Y1304D02*
X1326Y1304D01*
X1293Y1303D02*
X1327Y1303D01*
X1294Y1302D02*
X1328Y1302D01*
X1295Y1301D02*
X1329Y1301D01*
X1296Y1300D02*
X1331Y1300D01*
X1297Y1299D02*
X1332Y1299D01*
X1298Y1298D02*
X1333Y1298D01*
X1299Y1297D02*
X1334Y1297D01*
X1300Y1296D02*
X1335Y1296D01*
X1302Y1295D02*
X1337Y1295D01*
X1303Y1294D02*
X1338Y1294D01*
X1304Y1293D02*
X1339Y1293D01*
X1305Y1292D02*
X1340Y1292D01*
X1306Y1291D02*
X1342Y1291D01*
X1307Y1290D02*
X1343Y1290D01*
X1308Y1289D02*
X1345Y1289D01*
X1309Y1288D02*
X1346Y1288D01*
X1310Y1287D02*
X1347Y1287D01*
X1311Y1286D02*
X1349Y1286D01*
X1312Y1285D02*
X1350Y1285D01*
X1314Y1284D02*
X1351Y1284D01*
X1315Y1283D02*
X1353Y1283D01*
X1316Y1282D02*
X1354Y1282D01*
X1317Y1281D02*
X1356Y1281D01*
X1318Y1280D02*
X1358Y1280D01*
X1320Y1279D02*
X1359Y1279D01*
X1321Y1278D02*
X1361Y1278D01*
X1322Y1277D02*
X1362Y1277D01*
X1323Y1276D02*
X1364Y1276D01*
X1325Y1275D02*
X1365Y1275D01*
X1326Y1274D02*
X1367Y1274D01*
X1327Y1273D02*
X1369Y1273D01*
X1328Y1272D02*
X1370Y1272D01*
X1330Y1271D02*
X1372Y1271D01*
X1331Y1270D02*
X1374Y1270D01*
X1333Y1269D02*
X1376Y1269D01*
X1334Y1268D02*
X1378Y1268D01*
X1335Y1267D02*
X1380Y1267D01*
X1337Y1266D02*
X1381Y1266D01*
X1338Y1265D02*
X1383Y1265D01*
X1339Y1264D02*
X1385Y1264D01*
X1341Y1263D02*
X1387Y1263D01*
X1342Y1262D02*
X1389Y1262D01*
X1344Y1261D02*
X1391Y1261D01*
X1345Y1260D02*
X1394Y1260D01*
X1347Y1259D02*
X1396Y1259D01*
X1348Y1258D02*
X1398Y1258D01*
X1350Y1257D02*
X1400Y1257D01*
X1352Y1256D02*
X1403Y1256D01*
X1353Y1255D02*
X1405Y1255D01*
X1355Y1254D02*
X1407Y1254D01*
X1357Y1253D02*
X1410Y1253D01*
X1358Y1252D02*
X1413Y1252D01*
X1360Y1251D02*
X1415Y1251D01*
X1362Y1250D02*
X1418Y1250D01*
X1363Y1249D02*
X1421Y1249D01*
X1365Y1248D02*
X1424Y1248D01*
X1367Y1247D02*
X1427Y1247D01*
X1369Y1246D02*
X1430Y1246D01*
X1371Y1245D02*
X1434Y1245D01*
X1373Y1244D02*
X1437Y1244D01*
X1634Y1244D02*
X1642Y1244D01*
X1375Y1243D02*
X1441Y1243D01*
X1629Y1243D02*
X1644Y1243D01*
X1377Y1242D02*
X1445Y1242D01*
X1624Y1242D02*
X1646Y1242D01*
X1379Y1241D02*
X1449Y1241D01*
X1619Y1241D02*
X1647Y1241D01*
X1381Y1240D02*
X1453Y1240D01*
X1614Y1240D02*
X1648Y1240D01*
X1383Y1239D02*
X1458Y1239D01*
X1608Y1239D02*
X1648Y1239D01*
X1385Y1238D02*
X1463Y1238D01*
X1602Y1238D02*
X1649Y1238D01*
X1387Y1237D02*
X1469Y1237D01*
X1595Y1237D02*
X1649Y1237D01*
X1389Y1236D02*
X1476Y1236D01*
X1587Y1236D02*
X1650Y1236D01*
X1392Y1235D02*
X1483Y1235D01*
X1579Y1235D02*
X1650Y1235D01*
X1394Y1234D02*
X1492Y1234D01*
X1569Y1234D02*
X1650Y1234D01*
X1397Y1233D02*
X1505Y1233D01*
X1555Y1233D02*
X1650Y1233D01*
X1399Y1232D02*
X1650Y1232D01*
X1401Y1231D02*
X1650Y1231D01*
X1404Y1230D02*
X1650Y1230D01*
X1407Y1229D02*
X1649Y1229D01*
X1410Y1228D02*
X1649Y1228D01*
X1413Y1227D02*
X1649Y1227D01*
X1415Y1226D02*
X1648Y1226D01*
X1418Y1225D02*
X1647Y1225D01*
X1422Y1224D02*
X1646Y1224D01*
X1425Y1223D02*
X1645Y1223D01*
X1428Y1222D02*
X1643Y1222D01*
X1432Y1221D02*
X1641Y1221D01*
X1436Y1220D02*
X1636Y1220D01*
X1439Y1219D02*
X1631Y1219D01*
X1443Y1218D02*
X1626Y1218D01*
X1448Y1217D02*
X1621Y1217D01*
X1452Y1216D02*
X1614Y1216D01*
X1457Y1215D02*
X1608Y1215D01*
X1462Y1214D02*
X1602Y1214D01*
X1469Y1213D02*
X1595Y1213D01*
X1475Y1212D02*
X1587Y1212D01*
X1483Y1211D02*
X1579Y1211D01*
X1492Y1210D02*
X1568Y1210D01*
X1506Y1209D02*
X1553Y1209D01*
D02*
G04 End of Copper0*
M02*