G04 MADE WITH FRITZING*
G04 WWW.FRITZING.ORG*
G04 DOUBLE SIDED*
G04 HOLES PLATED*
G04 CONTOUR ON CENTER OF CONTOUR VECTOR*
%ASAXBY*%
%FSLAX23Y23*%
%MOIN*%
%OFA0B0*%
%SFA1.0B1.0*%
%ADD10C,0.079370*%
%ADD11R,0.001000X0.001000*%
%LNCOPPER1*%
G90*
G70*
G54D10*
X86Y1518D03*
X226Y85D03*
X96Y242D03*
X1676Y1521D03*
X1685Y245D03*
X1563Y1696D03*
X224Y1691D03*
X1565Y90D03*
G54D11*
X0Y995D02*
X257Y995D01*
X0Y994D02*
X253Y994D01*
X0Y993D02*
X250Y993D01*
X0Y992D02*
X248Y992D01*
X0Y991D02*
X246Y991D01*
X0Y990D02*
X245Y990D01*
X0Y989D02*
X243Y989D01*
X0Y988D02*
X242Y988D01*
X0Y987D02*
X241Y987D01*
X0Y986D02*
X239Y986D01*
X0Y985D02*
X238Y985D01*
X0Y984D02*
X237Y984D01*
X0Y983D02*
X237Y983D01*
X0Y982D02*
X236Y982D01*
X0Y981D02*
X235Y981D01*
X0Y980D02*
X234Y980D01*
X0Y979D02*
X234Y979D01*
X0Y978D02*
X233Y978D01*
X0Y977D02*
X233Y977D01*
X0Y976D02*
X232Y976D01*
X0Y975D02*
X231Y975D01*
X0Y974D02*
X231Y974D01*
X0Y973D02*
X231Y973D01*
X0Y972D02*
X230Y972D01*
X0Y971D02*
X230Y971D01*
X0Y970D02*
X229Y970D01*
X0Y969D02*
X229Y969D01*
X0Y968D02*
X229Y968D01*
X0Y967D02*
X229Y967D01*
X0Y966D02*
X228Y966D01*
X0Y965D02*
X228Y965D01*
X0Y964D02*
X228Y964D01*
X0Y963D02*
X228Y963D01*
X0Y962D02*
X228Y962D01*
X0Y961D02*
X228Y961D01*
X0Y960D02*
X227Y960D01*
X0Y959D02*
X227Y959D01*
X0Y958D02*
X227Y958D01*
X0Y957D02*
X227Y957D01*
X0Y956D02*
X227Y956D01*
X0Y955D02*
X227Y955D01*
X0Y954D02*
X227Y954D01*
X0Y953D02*
X227Y953D01*
X0Y952D02*
X227Y952D01*
X0Y951D02*
X227Y951D01*
X0Y950D02*
X227Y950D01*
X0Y949D02*
X227Y949D01*
X0Y948D02*
X227Y948D01*
X0Y947D02*
X227Y947D01*
X0Y946D02*
X227Y946D01*
X0Y945D02*
X227Y945D01*
X0Y944D02*
X227Y944D01*
X0Y943D02*
X227Y943D01*
X0Y942D02*
X227Y942D01*
X0Y941D02*
X227Y941D01*
X0Y940D02*
X227Y940D01*
X0Y939D02*
X227Y939D01*
X0Y938D02*
X227Y938D01*
X0Y937D02*
X227Y937D01*
X0Y936D02*
X227Y936D01*
X0Y935D02*
X227Y935D01*
X0Y934D02*
X227Y934D01*
X0Y933D02*
X227Y933D01*
X0Y932D02*
X227Y932D01*
X0Y931D02*
X227Y931D01*
X0Y930D02*
X227Y930D01*
X0Y929D02*
X227Y929D01*
X0Y928D02*
X227Y928D01*
X0Y927D02*
X227Y927D01*
X0Y926D02*
X227Y926D01*
X0Y925D02*
X227Y925D01*
X0Y924D02*
X227Y924D01*
X0Y923D02*
X227Y923D01*
X0Y922D02*
X227Y922D01*
X0Y921D02*
X227Y921D01*
X0Y920D02*
X227Y920D01*
X0Y919D02*
X227Y919D01*
X0Y918D02*
X227Y918D01*
X0Y917D02*
X227Y917D01*
X0Y916D02*
X227Y916D01*
X0Y915D02*
X227Y915D01*
X0Y914D02*
X227Y914D01*
X0Y913D02*
X227Y913D01*
X0Y912D02*
X227Y912D01*
X0Y911D02*
X227Y911D01*
X0Y910D02*
X227Y910D01*
X0Y909D02*
X227Y909D01*
X0Y908D02*
X227Y908D01*
X0Y907D02*
X227Y907D01*
X0Y906D02*
X227Y906D01*
X0Y905D02*
X227Y905D01*
X0Y904D02*
X227Y904D01*
X0Y903D02*
X227Y903D01*
X0Y902D02*
X227Y902D01*
X0Y901D02*
X227Y901D01*
X0Y900D02*
X227Y900D01*
X0Y899D02*
X227Y899D01*
X0Y898D02*
X227Y898D01*
X0Y897D02*
X227Y897D01*
X0Y896D02*
X227Y896D01*
X0Y895D02*
X227Y895D01*
X0Y894D02*
X227Y894D01*
X0Y893D02*
X227Y893D01*
X0Y892D02*
X227Y892D01*
X0Y891D02*
X227Y891D01*
X0Y890D02*
X227Y890D01*
X0Y889D02*
X227Y889D01*
X0Y888D02*
X227Y888D01*
X0Y887D02*
X227Y887D01*
X0Y886D02*
X227Y886D01*
X0Y885D02*
X227Y885D01*
X0Y884D02*
X227Y884D01*
X0Y883D02*
X227Y883D01*
X0Y882D02*
X227Y882D01*
X0Y881D02*
X227Y881D01*
X0Y880D02*
X227Y880D01*
X0Y879D02*
X227Y879D01*
X0Y878D02*
X227Y878D01*
X0Y877D02*
X227Y877D01*
X0Y876D02*
X227Y876D01*
X0Y875D02*
X227Y875D01*
X0Y874D02*
X227Y874D01*
X0Y873D02*
X227Y873D01*
X0Y872D02*
X227Y872D01*
X0Y871D02*
X227Y871D01*
X0Y870D02*
X227Y870D01*
X0Y869D02*
X227Y869D01*
X0Y868D02*
X227Y868D01*
X0Y867D02*
X227Y867D01*
X0Y866D02*
X227Y866D01*
X0Y865D02*
X227Y865D01*
X0Y864D02*
X227Y864D01*
X0Y863D02*
X227Y863D01*
X0Y862D02*
X227Y862D01*
X0Y861D02*
X227Y861D01*
X0Y860D02*
X227Y860D01*
X0Y859D02*
X227Y859D01*
X0Y858D02*
X227Y858D01*
X0Y857D02*
X227Y857D01*
X0Y856D02*
X227Y856D01*
X0Y855D02*
X227Y855D01*
X0Y854D02*
X227Y854D01*
X0Y853D02*
X227Y853D01*
X0Y852D02*
X227Y852D01*
X0Y851D02*
X227Y851D01*
X0Y850D02*
X227Y850D01*
X0Y849D02*
X227Y849D01*
X0Y848D02*
X227Y848D01*
X0Y847D02*
X227Y847D01*
X0Y846D02*
X227Y846D01*
X0Y845D02*
X227Y845D01*
X0Y844D02*
X227Y844D01*
X0Y843D02*
X227Y843D01*
X0Y842D02*
X227Y842D01*
X0Y841D02*
X227Y841D01*
X0Y840D02*
X227Y840D01*
X0Y839D02*
X227Y839D01*
X0Y838D02*
X227Y838D01*
X0Y837D02*
X227Y837D01*
X0Y836D02*
X227Y836D01*
X0Y835D02*
X227Y835D01*
X0Y834D02*
X227Y834D01*
X0Y833D02*
X227Y833D01*
X0Y832D02*
X227Y832D01*
X0Y831D02*
X227Y831D01*
X0Y830D02*
X227Y830D01*
X0Y829D02*
X227Y829D01*
X0Y828D02*
X227Y828D01*
X0Y827D02*
X227Y827D01*
X0Y826D02*
X227Y826D01*
X0Y825D02*
X227Y825D01*
X0Y824D02*
X227Y824D01*
X0Y823D02*
X227Y823D01*
X0Y822D02*
X227Y822D01*
X0Y821D02*
X227Y821D01*
X0Y820D02*
X227Y820D01*
X0Y819D02*
X227Y819D01*
X0Y818D02*
X227Y818D01*
X0Y817D02*
X227Y817D01*
X0Y816D02*
X227Y816D01*
X0Y815D02*
X227Y815D01*
X0Y814D02*
X227Y814D01*
X0Y813D02*
X227Y813D01*
X0Y812D02*
X227Y812D01*
X0Y811D02*
X227Y811D01*
X0Y810D02*
X227Y810D01*
X0Y809D02*
X227Y809D01*
X0Y808D02*
X227Y808D01*
X0Y807D02*
X227Y807D01*
X0Y806D02*
X227Y806D01*
X0Y805D02*
X227Y805D01*
X0Y804D02*
X227Y804D01*
X0Y803D02*
X227Y803D01*
X0Y802D02*
X228Y802D01*
X0Y801D02*
X228Y801D01*
X0Y800D02*
X228Y800D01*
X0Y799D02*
X228Y799D01*
X0Y798D02*
X228Y798D01*
X0Y797D02*
X228Y797D01*
X0Y796D02*
X228Y796D01*
X0Y795D02*
X229Y795D01*
X0Y794D02*
X229Y794D01*
X0Y793D02*
X229Y793D01*
X0Y792D02*
X230Y792D01*
X0Y791D02*
X230Y791D01*
X0Y790D02*
X230Y790D01*
X0Y789D02*
X231Y789D01*
X0Y788D02*
X231Y788D01*
X0Y787D02*
X232Y787D01*
X0Y786D02*
X232Y786D01*
X0Y785D02*
X233Y785D01*
X0Y784D02*
X233Y784D01*
X0Y783D02*
X234Y783D01*
X0Y782D02*
X235Y782D01*
X0Y781D02*
X235Y781D01*
X0Y780D02*
X236Y780D01*
X0Y779D02*
X237Y779D01*
X0Y778D02*
X238Y778D01*
X0Y777D02*
X239Y777D01*
X0Y776D02*
X240Y776D01*
X0Y775D02*
X241Y775D01*
X0Y774D02*
X242Y774D01*
X0Y773D02*
X243Y773D01*
X0Y772D02*
X245Y772D01*
X0Y771D02*
X247Y771D01*
X0Y770D02*
X249Y770D01*
X0Y769D02*
X251Y769D01*
X0Y768D02*
X254Y768D01*
X0Y767D02*
X261Y767D01*
D02*
G04 End of Copper1*
M02*