G04 MADE WITH FRITZING*
G04 WWW.FRITZING.ORG*
G04 DOUBLE SIDED*
G04 HOLES PLATED*
G04 CONTOUR ON CENTER OF CONTOUR VECTOR*
%ASAXBY*%
%FSLAX23Y23*%
%MOIN*%
%OFA0B0*%
%SFA1.0B1.0*%
%ADD10C,0.079370*%
%ADD11C,0.078000*%
%ADD12R,0.001000X0.001000*%
%LNCOPPER1*%
G90*
G70*
G54D10*
X1684Y247D03*
X1563Y92D03*
X84Y1521D03*
X222Y1694D03*
X94Y244D03*
X1561Y1698D03*
X1674Y1523D03*
X225Y88D03*
G54D11*
X804Y1075D03*
X904Y1075D03*
G36*
X302Y85D02*
X302Y47D01*
X487Y95D01*
X487Y133D01*
X356Y99D01*
X302Y85D01*
G37*
D02*
G54D12*
X729Y714D02*
X748Y714D01*
X965Y714D02*
X984Y714D01*
X725Y713D02*
X752Y713D01*
X960Y713D02*
X988Y713D01*
X722Y712D02*
X755Y712D01*
X957Y712D02*
X991Y712D01*
X719Y711D02*
X758Y711D01*
X955Y711D02*
X994Y711D01*
X717Y710D02*
X760Y710D01*
X953Y710D02*
X996Y710D01*
X715Y709D02*
X762Y709D01*
X950Y709D02*
X998Y709D01*
X713Y708D02*
X764Y708D01*
X949Y708D02*
X1000Y708D01*
X711Y707D02*
X766Y707D01*
X947Y707D02*
X1002Y707D01*
X710Y706D02*
X767Y706D01*
X945Y706D02*
X1003Y706D01*
X708Y705D02*
X769Y705D01*
X944Y705D02*
X1005Y705D01*
X707Y704D02*
X770Y704D01*
X943Y704D02*
X1006Y704D01*
X706Y703D02*
X771Y703D01*
X941Y703D02*
X1007Y703D01*
X704Y702D02*
X773Y702D01*
X940Y702D02*
X1008Y702D01*
X703Y701D02*
X774Y701D01*
X939Y701D02*
X1009Y701D01*
X702Y700D02*
X775Y700D01*
X938Y700D02*
X1011Y700D01*
X701Y699D02*
X776Y699D01*
X937Y699D02*
X1012Y699D01*
X700Y698D02*
X777Y698D01*
X936Y698D02*
X1012Y698D01*
X699Y697D02*
X778Y697D01*
X935Y697D02*
X1013Y697D01*
X699Y696D02*
X778Y696D01*
X934Y696D02*
X1014Y696D01*
X698Y695D02*
X730Y695D01*
X745Y695D02*
X779Y695D01*
X934Y695D02*
X966Y695D01*
X980Y695D02*
X1015Y695D01*
X697Y694D02*
X727Y694D01*
X749Y694D02*
X780Y694D01*
X933Y694D02*
X962Y694D01*
X984Y694D02*
X1016Y694D01*
X696Y693D02*
X724Y693D01*
X751Y693D02*
X781Y693D01*
X932Y693D02*
X960Y693D01*
X987Y693D02*
X1017Y693D01*
X696Y692D02*
X722Y692D01*
X753Y692D02*
X781Y692D01*
X931Y692D02*
X958Y692D01*
X989Y692D02*
X1017Y692D01*
X695Y691D02*
X720Y691D01*
X755Y691D02*
X782Y691D01*
X931Y691D02*
X956Y691D01*
X991Y691D02*
X1018Y691D01*
X694Y690D02*
X718Y690D01*
X757Y690D02*
X783Y690D01*
X930Y690D02*
X954Y690D01*
X992Y690D02*
X1019Y690D01*
X694Y689D02*
X717Y689D01*
X758Y689D02*
X783Y689D01*
X929Y689D02*
X953Y689D01*
X994Y689D02*
X1019Y689D01*
X693Y688D02*
X716Y688D01*
X760Y688D02*
X784Y688D01*
X929Y688D02*
X951Y688D01*
X995Y688D02*
X1020Y688D01*
X693Y687D02*
X715Y687D01*
X761Y687D02*
X784Y687D01*
X928Y687D02*
X950Y687D01*
X996Y687D02*
X1020Y687D01*
X692Y686D02*
X714Y686D01*
X762Y686D02*
X785Y686D01*
X928Y686D02*
X949Y686D01*
X997Y686D02*
X1021Y686D01*
X692Y685D02*
X713Y685D01*
X763Y685D02*
X785Y685D01*
X927Y685D02*
X948Y685D01*
X998Y685D02*
X1021Y685D01*
X691Y684D02*
X712Y684D01*
X764Y684D02*
X786Y684D01*
X927Y684D02*
X947Y684D01*
X999Y684D02*
X1022Y684D01*
X691Y683D02*
X711Y683D01*
X764Y683D02*
X786Y683D01*
X926Y683D02*
X946Y683D01*
X1000Y683D02*
X1022Y683D01*
X690Y682D02*
X710Y682D01*
X765Y682D02*
X787Y682D01*
X926Y682D02*
X946Y682D01*
X1001Y682D02*
X1023Y682D01*
X690Y681D02*
X709Y681D01*
X766Y681D02*
X787Y681D01*
X926Y681D02*
X945Y681D01*
X1002Y681D02*
X1023Y681D01*
X689Y680D02*
X709Y680D01*
X767Y680D02*
X788Y680D01*
X925Y680D02*
X944Y680D01*
X1002Y680D02*
X1023Y680D01*
X689Y679D02*
X708Y679D01*
X767Y679D02*
X788Y679D01*
X925Y679D02*
X944Y679D01*
X1003Y679D02*
X1024Y679D01*
X689Y678D02*
X707Y678D01*
X768Y678D02*
X788Y678D01*
X925Y678D02*
X943Y678D01*
X1003Y678D02*
X1024Y678D01*
X688Y677D02*
X707Y677D01*
X768Y677D02*
X789Y677D01*
X924Y677D02*
X943Y677D01*
X1004Y677D02*
X1024Y677D01*
X688Y676D02*
X706Y676D01*
X769Y676D02*
X789Y676D01*
X924Y676D02*
X942Y676D01*
X1004Y676D02*
X1025Y676D01*
X688Y675D02*
X706Y675D01*
X769Y675D02*
X789Y675D01*
X924Y675D02*
X942Y675D01*
X1005Y675D02*
X1025Y675D01*
X688Y674D02*
X706Y674D01*
X735Y674D02*
X740Y674D01*
X770Y674D02*
X789Y674D01*
X924Y674D02*
X941Y674D01*
X970Y674D02*
X976Y674D01*
X1005Y674D02*
X1025Y674D01*
X687Y673D02*
X705Y673D01*
X732Y673D02*
X743Y673D01*
X770Y673D02*
X790Y673D01*
X923Y673D02*
X941Y673D01*
X968Y673D02*
X979Y673D01*
X1006Y673D02*
X1025Y673D01*
X687Y672D02*
X705Y672D01*
X731Y672D02*
X745Y672D01*
X770Y672D02*
X790Y672D01*
X923Y672D02*
X941Y672D01*
X966Y672D02*
X980Y672D01*
X1006Y672D02*
X1026Y672D01*
X687Y671D02*
X705Y671D01*
X729Y671D02*
X746Y671D01*
X771Y671D02*
X790Y671D01*
X923Y671D02*
X940Y671D01*
X965Y671D02*
X981Y671D01*
X1006Y671D02*
X1026Y671D01*
X687Y670D02*
X704Y670D01*
X729Y670D02*
X747Y670D01*
X771Y670D02*
X790Y670D01*
X923Y670D02*
X940Y670D01*
X964Y670D02*
X982Y670D01*
X1007Y670D02*
X1026Y670D01*
X687Y669D02*
X704Y669D01*
X728Y669D02*
X748Y669D01*
X771Y669D02*
X790Y669D01*
X923Y669D02*
X940Y669D01*
X963Y669D02*
X983Y669D01*
X1007Y669D02*
X1026Y669D01*
X687Y668D02*
X704Y668D01*
X727Y668D02*
X748Y668D01*
X771Y668D02*
X790Y668D01*
X923Y668D02*
X940Y668D01*
X963Y668D02*
X984Y668D01*
X1007Y668D02*
X1026Y668D01*
X687Y667D02*
X704Y667D01*
X727Y667D02*
X749Y667D01*
X771Y667D02*
X790Y667D01*
X922Y667D02*
X939Y667D01*
X962Y667D02*
X984Y667D01*
X1007Y667D02*
X1026Y667D01*
X687Y666D02*
X704Y666D01*
X726Y666D02*
X749Y666D01*
X772Y666D02*
X790Y666D01*
X922Y666D02*
X939Y666D01*
X962Y666D02*
X985Y666D01*
X1007Y666D02*
X1026Y666D01*
X687Y665D02*
X704Y665D01*
X726Y665D02*
X749Y665D01*
X772Y665D02*
X791Y665D01*
X922Y665D02*
X939Y665D01*
X962Y665D02*
X985Y665D01*
X1007Y665D02*
X1026Y665D01*
X686Y664D02*
X703Y664D01*
X726Y664D02*
X750Y664D01*
X772Y664D02*
X791Y664D01*
X922Y664D02*
X939Y664D01*
X961Y664D02*
X985Y664D01*
X1007Y664D02*
X1026Y664D01*
X686Y663D02*
X703Y663D01*
X726Y663D02*
X750Y663D01*
X772Y663D02*
X791Y663D01*
X922Y663D02*
X939Y663D01*
X961Y663D02*
X985Y663D01*
X1007Y663D02*
X1026Y663D01*
X686Y662D02*
X703Y662D01*
X726Y662D02*
X750Y662D01*
X772Y662D02*
X791Y662D01*
X922Y662D02*
X939Y662D01*
X961Y662D02*
X985Y662D01*
X1008Y662D02*
X1026Y662D01*
X686Y661D02*
X703Y661D01*
X725Y661D02*
X750Y661D01*
X772Y661D02*
X791Y661D01*
X922Y661D02*
X939Y661D01*
X961Y661D02*
X985Y661D01*
X1008Y661D02*
X1027Y661D01*
X686Y660D02*
X703Y660D01*
X725Y660D02*
X750Y660D01*
X772Y660D02*
X791Y660D01*
X922Y660D02*
X939Y660D01*
X961Y660D02*
X985Y660D01*
X1007Y660D02*
X1027Y660D01*
X685Y659D02*
X704Y659D01*
X725Y659D02*
X750Y659D01*
X772Y659D02*
X792Y659D01*
X921Y659D02*
X939Y659D01*
X961Y659D02*
X985Y659D01*
X1007Y659D02*
X1028Y659D01*
X684Y658D02*
X704Y658D01*
X725Y658D02*
X750Y658D01*
X772Y658D02*
X793Y658D01*
X920Y658D02*
X939Y658D01*
X961Y658D02*
X985Y658D01*
X1007Y658D02*
X1028Y658D01*
X683Y657D02*
X704Y657D01*
X725Y657D02*
X750Y657D01*
X772Y657D02*
X794Y657D01*
X919Y657D02*
X939Y657D01*
X961Y657D02*
X985Y657D01*
X1007Y657D02*
X1030Y657D01*
X545Y656D02*
X704Y656D01*
X725Y656D02*
X750Y656D01*
X771Y656D02*
X940Y656D01*
X961Y656D02*
X985Y656D01*
X1007Y656D02*
X1055Y656D01*
X545Y655D02*
X704Y655D01*
X725Y655D02*
X750Y655D01*
X771Y655D02*
X940Y655D01*
X961Y655D02*
X985Y655D01*
X1007Y655D02*
X1161Y655D01*
X545Y654D02*
X704Y654D01*
X725Y654D02*
X750Y654D01*
X771Y654D02*
X940Y654D01*
X961Y654D02*
X985Y654D01*
X1007Y654D02*
X1161Y654D01*
X545Y653D02*
X705Y653D01*
X725Y653D02*
X750Y653D01*
X771Y653D02*
X940Y653D01*
X961Y653D02*
X985Y653D01*
X1006Y653D02*
X1161Y653D01*
X545Y652D02*
X705Y652D01*
X725Y652D02*
X750Y652D01*
X770Y652D02*
X941Y652D01*
X961Y652D02*
X985Y652D01*
X1006Y652D02*
X1161Y652D01*
X545Y651D02*
X705Y651D01*
X725Y651D02*
X750Y651D01*
X770Y651D02*
X941Y651D01*
X961Y651D02*
X985Y651D01*
X1006Y651D02*
X1161Y651D01*
X545Y650D02*
X706Y650D01*
X725Y650D02*
X750Y650D01*
X770Y650D02*
X941Y650D01*
X961Y650D02*
X985Y650D01*
X1005Y650D02*
X1161Y650D01*
X545Y649D02*
X706Y649D01*
X725Y649D02*
X750Y649D01*
X769Y649D02*
X942Y649D01*
X961Y649D02*
X985Y649D01*
X1005Y649D02*
X1161Y649D01*
X545Y648D02*
X706Y648D01*
X725Y648D02*
X750Y648D01*
X769Y648D02*
X942Y648D01*
X961Y648D02*
X985Y648D01*
X1004Y648D02*
X1161Y648D01*
X545Y647D02*
X707Y647D01*
X725Y647D02*
X750Y647D01*
X768Y647D02*
X943Y647D01*
X961Y647D02*
X985Y647D01*
X1004Y647D02*
X1161Y647D01*
X545Y646D02*
X707Y646D01*
X725Y646D02*
X750Y646D01*
X768Y646D02*
X943Y646D01*
X961Y646D02*
X985Y646D01*
X1003Y646D02*
X1161Y646D01*
X545Y645D02*
X708Y645D01*
X725Y645D02*
X750Y645D01*
X767Y645D02*
X944Y645D01*
X961Y645D02*
X985Y645D01*
X1003Y645D02*
X1161Y645D01*
X545Y644D02*
X709Y644D01*
X725Y644D02*
X750Y644D01*
X767Y644D02*
X944Y644D01*
X961Y644D02*
X985Y644D01*
X1002Y644D02*
X1161Y644D01*
X545Y643D02*
X709Y643D01*
X725Y643D02*
X750Y643D01*
X766Y643D02*
X945Y643D01*
X961Y643D02*
X985Y643D01*
X1002Y643D02*
X1161Y643D01*
X545Y642D02*
X710Y642D01*
X725Y642D02*
X750Y642D01*
X765Y642D02*
X946Y642D01*
X961Y642D02*
X985Y642D01*
X1001Y642D02*
X1161Y642D01*
X545Y641D02*
X711Y641D01*
X725Y641D02*
X750Y641D01*
X764Y641D02*
X947Y641D01*
X961Y641D02*
X985Y641D01*
X1000Y641D02*
X1161Y641D01*
X545Y640D02*
X712Y640D01*
X725Y640D02*
X750Y640D01*
X764Y640D02*
X947Y640D01*
X961Y640D02*
X985Y640D01*
X999Y640D02*
X1161Y640D01*
X545Y639D02*
X712Y639D01*
X725Y639D02*
X750Y639D01*
X763Y639D02*
X947Y639D01*
X961Y639D02*
X985Y639D01*
X999Y639D02*
X1161Y639D01*
X545Y638D02*
X712Y638D01*
X725Y638D02*
X750Y638D01*
X763Y638D02*
X947Y638D01*
X961Y638D02*
X985Y638D01*
X999Y638D02*
X1161Y638D01*
X545Y637D02*
X712Y637D01*
X725Y637D02*
X750Y637D01*
X763Y637D02*
X947Y637D01*
X961Y637D02*
X985Y637D01*
X999Y637D02*
X1161Y637D01*
X545Y636D02*
X712Y636D01*
X725Y636D02*
X750Y636D01*
X763Y636D02*
X947Y636D01*
X961Y636D02*
X985Y636D01*
X999Y636D02*
X1161Y636D01*
X545Y635D02*
X712Y635D01*
X725Y635D02*
X750Y635D01*
X763Y635D02*
X947Y635D01*
X961Y635D02*
X985Y635D01*
X999Y635D02*
X1161Y635D01*
X545Y634D02*
X712Y634D01*
X725Y634D02*
X750Y634D01*
X763Y634D02*
X947Y634D01*
X961Y634D02*
X985Y634D01*
X999Y634D02*
X1161Y634D01*
X545Y633D02*
X712Y633D01*
X725Y633D02*
X750Y633D01*
X763Y633D02*
X947Y633D01*
X961Y633D02*
X985Y633D01*
X999Y633D02*
X1161Y633D01*
X545Y632D02*
X712Y632D01*
X725Y632D02*
X750Y632D01*
X763Y632D02*
X947Y632D01*
X961Y632D02*
X985Y632D01*
X999Y632D02*
X1161Y632D01*
X545Y631D02*
X712Y631D01*
X725Y631D02*
X750Y631D01*
X763Y631D02*
X947Y631D01*
X961Y631D02*
X985Y631D01*
X999Y631D02*
X1161Y631D01*
X545Y630D02*
X712Y630D01*
X725Y630D02*
X750Y630D01*
X763Y630D02*
X947Y630D01*
X961Y630D02*
X985Y630D01*
X999Y630D02*
X1161Y630D01*
X545Y629D02*
X712Y629D01*
X725Y629D02*
X750Y629D01*
X763Y629D02*
X947Y629D01*
X961Y629D02*
X985Y629D01*
X999Y629D02*
X1161Y629D01*
X545Y628D02*
X712Y628D01*
X725Y628D02*
X750Y628D01*
X763Y628D02*
X947Y628D01*
X961Y628D02*
X985Y628D01*
X999Y628D02*
X1161Y628D01*
X545Y627D02*
X712Y627D01*
X725Y627D02*
X750Y627D01*
X763Y627D02*
X947Y627D01*
X961Y627D02*
X985Y627D01*
X999Y627D02*
X1161Y627D01*
X545Y626D02*
X712Y626D01*
X725Y626D02*
X750Y626D01*
X763Y626D02*
X947Y626D01*
X961Y626D02*
X985Y626D01*
X999Y626D02*
X1161Y626D01*
X545Y625D02*
X712Y625D01*
X725Y625D02*
X750Y625D01*
X763Y625D02*
X947Y625D01*
X961Y625D02*
X985Y625D01*
X999Y625D02*
X1161Y625D01*
X545Y624D02*
X712Y624D01*
X725Y624D02*
X750Y624D01*
X763Y624D02*
X947Y624D01*
X961Y624D02*
X985Y624D01*
X999Y624D02*
X1161Y624D01*
X545Y623D02*
X712Y623D01*
X725Y623D02*
X750Y623D01*
X763Y623D02*
X947Y623D01*
X961Y623D02*
X985Y623D01*
X999Y623D02*
X1161Y623D01*
X545Y622D02*
X712Y622D01*
X725Y622D02*
X750Y622D01*
X763Y622D02*
X947Y622D01*
X961Y622D02*
X985Y622D01*
X999Y622D02*
X1161Y622D01*
X545Y621D02*
X712Y621D01*
X725Y621D02*
X750Y621D01*
X763Y621D02*
X947Y621D01*
X961Y621D02*
X985Y621D01*
X999Y621D02*
X1161Y621D01*
X545Y620D02*
X712Y620D01*
X725Y620D02*
X750Y620D01*
X763Y620D02*
X947Y620D01*
X961Y620D02*
X985Y620D01*
X999Y620D02*
X1161Y620D01*
X545Y619D02*
X712Y619D01*
X725Y619D02*
X750Y619D01*
X763Y619D02*
X947Y619D01*
X961Y619D02*
X985Y619D01*
X999Y619D02*
X1161Y619D01*
X545Y618D02*
X712Y618D01*
X725Y618D02*
X750Y618D01*
X763Y618D02*
X947Y618D01*
X961Y618D02*
X985Y618D01*
X999Y618D02*
X1161Y618D01*
X545Y617D02*
X712Y617D01*
X725Y617D02*
X750Y617D01*
X763Y617D02*
X947Y617D01*
X961Y617D02*
X985Y617D01*
X999Y617D02*
X1161Y617D01*
X545Y616D02*
X712Y616D01*
X725Y616D02*
X750Y616D01*
X763Y616D02*
X947Y616D01*
X961Y616D02*
X985Y616D01*
X999Y616D02*
X1161Y616D01*
X545Y615D02*
X712Y615D01*
X725Y615D02*
X750Y615D01*
X763Y615D02*
X947Y615D01*
X961Y615D02*
X985Y615D01*
X999Y615D02*
X1161Y615D01*
X545Y614D02*
X712Y614D01*
X725Y614D02*
X750Y614D01*
X763Y614D02*
X947Y614D01*
X961Y614D02*
X985Y614D01*
X999Y614D02*
X1161Y614D01*
X545Y613D02*
X712Y613D01*
X725Y613D02*
X750Y613D01*
X763Y613D02*
X947Y613D01*
X961Y613D02*
X985Y613D01*
X999Y613D02*
X1161Y613D01*
X545Y612D02*
X712Y612D01*
X725Y612D02*
X750Y612D01*
X763Y612D02*
X947Y612D01*
X961Y612D02*
X985Y612D01*
X999Y612D02*
X1161Y612D01*
X545Y611D02*
X712Y611D01*
X725Y611D02*
X750Y611D01*
X763Y611D02*
X947Y611D01*
X961Y611D02*
X985Y611D01*
X999Y611D02*
X1161Y611D01*
X545Y610D02*
X712Y610D01*
X725Y610D02*
X750Y610D01*
X763Y610D02*
X947Y610D01*
X961Y610D02*
X985Y610D01*
X999Y610D02*
X1161Y610D01*
X545Y609D02*
X712Y609D01*
X725Y609D02*
X750Y609D01*
X763Y609D02*
X947Y609D01*
X961Y609D02*
X985Y609D01*
X999Y609D02*
X1161Y609D01*
X545Y608D02*
X712Y608D01*
X725Y608D02*
X750Y608D01*
X763Y608D02*
X947Y608D01*
X961Y608D02*
X985Y608D01*
X999Y608D02*
X1161Y608D01*
X545Y607D02*
X712Y607D01*
X725Y607D02*
X750Y607D01*
X763Y607D02*
X947Y607D01*
X961Y607D02*
X985Y607D01*
X999Y607D02*
X1161Y607D01*
X545Y606D02*
X712Y606D01*
X725Y606D02*
X750Y606D01*
X763Y606D02*
X947Y606D01*
X961Y606D02*
X985Y606D01*
X999Y606D02*
X1161Y606D01*
X545Y605D02*
X712Y605D01*
X725Y605D02*
X750Y605D01*
X763Y605D02*
X947Y605D01*
X961Y605D02*
X985Y605D01*
X999Y605D02*
X1161Y605D01*
X545Y604D02*
X712Y604D01*
X725Y604D02*
X750Y604D01*
X763Y604D02*
X947Y604D01*
X961Y604D02*
X985Y604D01*
X999Y604D02*
X1161Y604D01*
X545Y603D02*
X712Y603D01*
X725Y603D02*
X750Y603D01*
X763Y603D02*
X947Y603D01*
X961Y603D02*
X985Y603D01*
X999Y603D02*
X1161Y603D01*
X545Y602D02*
X712Y602D01*
X725Y602D02*
X750Y602D01*
X763Y602D02*
X947Y602D01*
X961Y602D02*
X985Y602D01*
X999Y602D02*
X1161Y602D01*
X545Y601D02*
X712Y601D01*
X725Y601D02*
X750Y601D01*
X763Y601D02*
X947Y601D01*
X961Y601D02*
X985Y601D01*
X999Y601D02*
X1161Y601D01*
X545Y600D02*
X712Y600D01*
X725Y600D02*
X750Y600D01*
X763Y600D02*
X947Y600D01*
X961Y600D02*
X985Y600D01*
X999Y600D02*
X1161Y600D01*
X545Y599D02*
X712Y599D01*
X725Y599D02*
X750Y599D01*
X763Y599D02*
X947Y599D01*
X961Y599D02*
X985Y599D01*
X999Y599D02*
X1161Y599D01*
X545Y598D02*
X712Y598D01*
X725Y598D02*
X750Y598D01*
X763Y598D02*
X947Y598D01*
X961Y598D02*
X985Y598D01*
X999Y598D02*
X1161Y598D01*
X545Y597D02*
X712Y597D01*
X725Y597D02*
X750Y597D01*
X763Y597D02*
X947Y597D01*
X961Y597D02*
X985Y597D01*
X999Y597D02*
X1161Y597D01*
X545Y596D02*
X712Y596D01*
X725Y596D02*
X750Y596D01*
X763Y596D02*
X947Y596D01*
X961Y596D02*
X985Y596D01*
X999Y596D02*
X1161Y596D01*
X545Y595D02*
X712Y595D01*
X725Y595D02*
X750Y595D01*
X763Y595D02*
X947Y595D01*
X961Y595D02*
X985Y595D01*
X999Y595D02*
X1161Y595D01*
X545Y594D02*
X712Y594D01*
X725Y594D02*
X750Y594D01*
X763Y594D02*
X947Y594D01*
X961Y594D02*
X985Y594D01*
X999Y594D02*
X1161Y594D01*
X545Y593D02*
X712Y593D01*
X725Y593D02*
X750Y593D01*
X763Y593D02*
X947Y593D01*
X961Y593D02*
X985Y593D01*
X999Y593D02*
X1161Y593D01*
X545Y592D02*
X712Y592D01*
X725Y592D02*
X750Y592D01*
X763Y592D02*
X947Y592D01*
X961Y592D02*
X985Y592D01*
X999Y592D02*
X1161Y592D01*
X545Y591D02*
X712Y591D01*
X725Y591D02*
X750Y591D01*
X763Y591D02*
X947Y591D01*
X961Y591D02*
X985Y591D01*
X999Y591D02*
X1161Y591D01*
X545Y590D02*
X712Y590D01*
X725Y590D02*
X750Y590D01*
X763Y590D02*
X947Y590D01*
X961Y590D02*
X985Y590D01*
X999Y590D02*
X1161Y590D01*
X545Y589D02*
X712Y589D01*
X725Y589D02*
X750Y589D01*
X764Y589D02*
X947Y589D01*
X961Y589D02*
X985Y589D01*
X999Y589D02*
X1161Y589D01*
X725Y588D02*
X750Y588D01*
X961Y588D02*
X985Y588D01*
X725Y587D02*
X750Y587D01*
X961Y587D02*
X985Y587D01*
X725Y586D02*
X750Y586D01*
X961Y586D02*
X985Y586D01*
X725Y585D02*
X750Y585D01*
X961Y585D02*
X985Y585D01*
X725Y584D02*
X750Y584D01*
X961Y584D02*
X985Y584D01*
X725Y583D02*
X750Y583D01*
X961Y583D02*
X985Y583D01*
X725Y582D02*
X750Y582D01*
X961Y582D02*
X985Y582D01*
X725Y581D02*
X750Y581D01*
X961Y581D02*
X985Y581D01*
X725Y580D02*
X750Y580D01*
X961Y580D02*
X985Y580D01*
X725Y579D02*
X750Y579D01*
X961Y579D02*
X985Y579D01*
X725Y578D02*
X750Y578D01*
X961Y578D02*
X985Y578D01*
X725Y577D02*
X750Y577D01*
X961Y577D02*
X985Y577D01*
X725Y576D02*
X750Y576D01*
X961Y576D02*
X985Y576D01*
X725Y575D02*
X750Y575D01*
X961Y575D02*
X985Y575D01*
X725Y574D02*
X750Y574D01*
X961Y574D02*
X985Y574D01*
X725Y573D02*
X750Y573D01*
X961Y573D02*
X985Y573D01*
X725Y572D02*
X750Y572D01*
X961Y572D02*
X985Y572D01*
X725Y571D02*
X750Y571D01*
X961Y571D02*
X985Y571D01*
X725Y570D02*
X750Y570D01*
X961Y570D02*
X985Y570D01*
X725Y569D02*
X750Y569D01*
X961Y569D02*
X985Y569D01*
X725Y568D02*
X750Y568D01*
X961Y568D02*
X985Y568D01*
X725Y567D02*
X750Y567D01*
X961Y567D02*
X985Y567D01*
X725Y566D02*
X750Y566D01*
X961Y566D02*
X985Y566D01*
X725Y565D02*
X750Y565D01*
X961Y565D02*
X985Y565D01*
X725Y564D02*
X750Y564D01*
X961Y564D02*
X985Y564D01*
X725Y563D02*
X750Y563D01*
X961Y563D02*
X985Y563D01*
X725Y562D02*
X750Y562D01*
X961Y562D02*
X985Y562D01*
X725Y561D02*
X750Y561D01*
X961Y561D02*
X985Y561D01*
X725Y560D02*
X750Y560D01*
X961Y560D02*
X985Y560D01*
X725Y559D02*
X750Y559D01*
X961Y559D02*
X985Y559D01*
X725Y558D02*
X750Y558D01*
X961Y558D02*
X985Y558D01*
X725Y557D02*
X750Y557D01*
X961Y557D02*
X985Y557D01*
X725Y556D02*
X750Y556D01*
X961Y556D02*
X985Y556D01*
X725Y555D02*
X750Y555D01*
X961Y555D02*
X985Y555D01*
X725Y554D02*
X750Y554D01*
X961Y554D02*
X985Y554D01*
X725Y553D02*
X750Y553D01*
X961Y553D02*
X985Y553D01*
X725Y552D02*
X750Y552D01*
X961Y552D02*
X985Y552D01*
X725Y551D02*
X750Y551D01*
X961Y551D02*
X985Y551D01*
X725Y550D02*
X750Y550D01*
X961Y550D02*
X985Y550D01*
X725Y549D02*
X750Y549D01*
X961Y549D02*
X985Y549D01*
X725Y548D02*
X750Y548D01*
X961Y548D02*
X985Y548D01*
X725Y547D02*
X750Y547D01*
X961Y547D02*
X985Y547D01*
X725Y546D02*
X750Y546D01*
X961Y546D02*
X985Y546D01*
X725Y545D02*
X750Y545D01*
X961Y545D02*
X985Y545D01*
X725Y544D02*
X750Y544D01*
X961Y544D02*
X985Y544D01*
X725Y543D02*
X750Y543D01*
X961Y543D02*
X985Y543D01*
X725Y542D02*
X750Y542D01*
X961Y542D02*
X985Y542D01*
X725Y541D02*
X750Y541D01*
X961Y541D02*
X985Y541D01*
X725Y540D02*
X750Y540D01*
X961Y540D02*
X985Y540D01*
X725Y539D02*
X750Y539D01*
X961Y539D02*
X985Y539D01*
X725Y538D02*
X750Y538D01*
X961Y538D02*
X985Y538D01*
X725Y537D02*
X750Y537D01*
X961Y537D02*
X985Y537D01*
X725Y536D02*
X750Y536D01*
X961Y536D02*
X985Y536D01*
X725Y535D02*
X750Y535D01*
X961Y535D02*
X985Y535D01*
X725Y534D02*
X750Y534D01*
X961Y534D02*
X985Y534D01*
X725Y533D02*
X750Y533D01*
X961Y533D02*
X985Y533D01*
X725Y532D02*
X750Y532D01*
X961Y532D02*
X985Y532D01*
X725Y531D02*
X750Y531D01*
X961Y531D02*
X985Y531D01*
X725Y530D02*
X750Y530D01*
X961Y530D02*
X985Y530D01*
X725Y529D02*
X750Y529D01*
X961Y529D02*
X985Y529D01*
X725Y528D02*
X750Y528D01*
X961Y528D02*
X985Y528D01*
X725Y527D02*
X750Y527D01*
X961Y527D02*
X985Y527D01*
X725Y526D02*
X750Y526D01*
X961Y526D02*
X985Y526D01*
X725Y525D02*
X750Y525D01*
X961Y525D02*
X985Y525D01*
X725Y524D02*
X750Y524D01*
X961Y524D02*
X985Y524D01*
X725Y523D02*
X750Y523D01*
X961Y523D02*
X985Y523D01*
X0Y522D02*
X245Y522D01*
X725Y522D02*
X750Y522D01*
X961Y522D02*
X985Y522D01*
X0Y521D02*
X249Y521D01*
X725Y521D02*
X750Y521D01*
X961Y521D02*
X985Y521D01*
X0Y520D02*
X251Y520D01*
X725Y520D02*
X750Y520D01*
X961Y520D02*
X985Y520D01*
X0Y519D02*
X254Y519D01*
X725Y519D02*
X750Y519D01*
X961Y519D02*
X985Y519D01*
X0Y518D02*
X256Y518D01*
X725Y518D02*
X750Y518D01*
X961Y518D02*
X985Y518D01*
X0Y517D02*
X257Y517D01*
X725Y517D02*
X750Y517D01*
X961Y517D02*
X985Y517D01*
X0Y516D02*
X259Y516D01*
X725Y516D02*
X750Y516D01*
X961Y516D02*
X985Y516D01*
X0Y515D02*
X260Y515D01*
X725Y515D02*
X750Y515D01*
X961Y515D02*
X985Y515D01*
X0Y514D02*
X261Y514D01*
X725Y514D02*
X750Y514D01*
X961Y514D02*
X985Y514D01*
X0Y513D02*
X262Y513D01*
X725Y513D02*
X750Y513D01*
X961Y513D02*
X985Y513D01*
X0Y512D02*
X264Y512D01*
X725Y512D02*
X750Y512D01*
X961Y512D02*
X985Y512D01*
X0Y511D02*
X265Y511D01*
X725Y511D02*
X750Y511D01*
X961Y511D02*
X985Y511D01*
X0Y510D02*
X266Y510D01*
X725Y510D02*
X750Y510D01*
X961Y510D02*
X985Y510D01*
X0Y509D02*
X267Y509D01*
X725Y509D02*
X750Y509D01*
X961Y509D02*
X985Y509D01*
X0Y508D02*
X268Y508D01*
X725Y508D02*
X750Y508D01*
X961Y508D02*
X985Y508D01*
X0Y507D02*
X269Y507D01*
X725Y507D02*
X750Y507D01*
X961Y507D02*
X985Y507D01*
X0Y506D02*
X270Y506D01*
X725Y506D02*
X750Y506D01*
X961Y506D02*
X985Y506D01*
X0Y505D02*
X271Y505D01*
X725Y505D02*
X750Y505D01*
X961Y505D02*
X985Y505D01*
X0Y504D02*
X272Y504D01*
X725Y504D02*
X750Y504D01*
X961Y504D02*
X985Y504D01*
X0Y503D02*
X273Y503D01*
X725Y503D02*
X750Y503D01*
X961Y503D02*
X985Y503D01*
X0Y502D02*
X274Y502D01*
X725Y502D02*
X750Y502D01*
X961Y502D02*
X985Y502D01*
X0Y501D02*
X275Y501D01*
X725Y501D02*
X750Y501D01*
X961Y501D02*
X985Y501D01*
X0Y500D02*
X276Y500D01*
X725Y500D02*
X750Y500D01*
X961Y500D02*
X985Y500D01*
X0Y499D02*
X277Y499D01*
X725Y499D02*
X750Y499D01*
X961Y499D02*
X985Y499D01*
X0Y498D02*
X278Y498D01*
X725Y498D02*
X750Y498D01*
X961Y498D02*
X985Y498D01*
X0Y497D02*
X279Y497D01*
X725Y497D02*
X750Y497D01*
X961Y497D02*
X985Y497D01*
X0Y496D02*
X280Y496D01*
X725Y496D02*
X750Y496D01*
X961Y496D02*
X985Y496D01*
X0Y495D02*
X281Y495D01*
X725Y495D02*
X750Y495D01*
X961Y495D02*
X985Y495D01*
X0Y494D02*
X282Y494D01*
X725Y494D02*
X750Y494D01*
X961Y494D02*
X985Y494D01*
X0Y493D02*
X283Y493D01*
X725Y493D02*
X750Y493D01*
X961Y493D02*
X985Y493D01*
X0Y492D02*
X284Y492D01*
X725Y492D02*
X750Y492D01*
X961Y492D02*
X985Y492D01*
X0Y491D02*
X285Y491D01*
X725Y491D02*
X750Y491D01*
X961Y491D02*
X985Y491D01*
X0Y490D02*
X286Y490D01*
X725Y490D02*
X750Y490D01*
X961Y490D02*
X985Y490D01*
X0Y489D02*
X287Y489D01*
X725Y489D02*
X750Y489D01*
X961Y489D02*
X985Y489D01*
X0Y488D02*
X288Y488D01*
X725Y488D02*
X750Y488D01*
X961Y488D02*
X985Y488D01*
X0Y487D02*
X289Y487D01*
X725Y487D02*
X750Y487D01*
X961Y487D02*
X985Y487D01*
X0Y486D02*
X290Y486D01*
X725Y486D02*
X750Y486D01*
X961Y486D02*
X985Y486D01*
X0Y485D02*
X291Y485D01*
X725Y485D02*
X750Y485D01*
X961Y485D02*
X985Y485D01*
X0Y484D02*
X292Y484D01*
X725Y484D02*
X750Y484D01*
X961Y484D02*
X985Y484D01*
X0Y483D02*
X293Y483D01*
X725Y483D02*
X750Y483D01*
X961Y483D02*
X985Y483D01*
X0Y482D02*
X294Y482D01*
X725Y482D02*
X750Y482D01*
X961Y482D02*
X985Y482D01*
X0Y481D02*
X295Y481D01*
X725Y481D02*
X750Y481D01*
X961Y481D02*
X985Y481D01*
X0Y480D02*
X296Y480D01*
X725Y480D02*
X750Y480D01*
X961Y480D02*
X985Y480D01*
X0Y479D02*
X297Y479D01*
X725Y479D02*
X750Y479D01*
X961Y479D02*
X985Y479D01*
X0Y478D02*
X298Y478D01*
X725Y478D02*
X750Y478D01*
X961Y478D02*
X985Y478D01*
X0Y477D02*
X299Y477D01*
X725Y477D02*
X750Y477D01*
X961Y477D02*
X985Y477D01*
X0Y476D02*
X300Y476D01*
X725Y476D02*
X750Y476D01*
X961Y476D02*
X985Y476D01*
X0Y475D02*
X301Y475D01*
X725Y475D02*
X750Y475D01*
X961Y475D02*
X985Y475D01*
X0Y474D02*
X302Y474D01*
X725Y474D02*
X750Y474D01*
X961Y474D02*
X985Y474D01*
X0Y473D02*
X303Y473D01*
X725Y473D02*
X750Y473D01*
X961Y473D02*
X985Y473D01*
X0Y472D02*
X304Y472D01*
X725Y472D02*
X750Y472D01*
X961Y472D02*
X985Y472D01*
X0Y471D02*
X305Y471D01*
X725Y471D02*
X750Y471D01*
X961Y471D02*
X985Y471D01*
X0Y470D02*
X306Y470D01*
X725Y470D02*
X750Y470D01*
X961Y470D02*
X985Y470D01*
X0Y469D02*
X307Y469D01*
X725Y469D02*
X750Y469D01*
X961Y469D02*
X985Y469D01*
X0Y468D02*
X308Y468D01*
X725Y468D02*
X750Y468D01*
X961Y468D02*
X985Y468D01*
X0Y467D02*
X309Y467D01*
X725Y467D02*
X750Y467D01*
X961Y467D02*
X985Y467D01*
X0Y466D02*
X310Y466D01*
X725Y466D02*
X750Y466D01*
X961Y466D02*
X985Y466D01*
X0Y465D02*
X311Y465D01*
X725Y465D02*
X750Y465D01*
X961Y465D02*
X985Y465D01*
X0Y464D02*
X312Y464D01*
X725Y464D02*
X750Y464D01*
X961Y464D02*
X985Y464D01*
X0Y463D02*
X313Y463D01*
X725Y463D02*
X750Y463D01*
X961Y463D02*
X985Y463D01*
X0Y462D02*
X314Y462D01*
X725Y462D02*
X750Y462D01*
X961Y462D02*
X985Y462D01*
X0Y461D02*
X315Y461D01*
X725Y461D02*
X750Y461D01*
X961Y461D02*
X985Y461D01*
X0Y460D02*
X316Y460D01*
X725Y460D02*
X750Y460D01*
X961Y460D02*
X985Y460D01*
X0Y459D02*
X317Y459D01*
X725Y459D02*
X750Y459D01*
X961Y459D02*
X985Y459D01*
X0Y458D02*
X318Y458D01*
X725Y458D02*
X750Y458D01*
X961Y458D02*
X985Y458D01*
X0Y457D02*
X319Y457D01*
X725Y457D02*
X750Y457D01*
X961Y457D02*
X985Y457D01*
X0Y456D02*
X320Y456D01*
X725Y456D02*
X750Y456D01*
X961Y456D02*
X985Y456D01*
X0Y455D02*
X321Y455D01*
X725Y455D02*
X750Y455D01*
X961Y455D02*
X985Y455D01*
X0Y454D02*
X322Y454D01*
X725Y454D02*
X750Y454D01*
X961Y454D02*
X985Y454D01*
X0Y453D02*
X323Y453D01*
X725Y453D02*
X750Y453D01*
X961Y453D02*
X985Y453D01*
X0Y452D02*
X324Y452D01*
X725Y452D02*
X750Y452D01*
X961Y452D02*
X985Y452D01*
X0Y451D02*
X325Y451D01*
X725Y451D02*
X750Y451D01*
X961Y451D02*
X985Y451D01*
X0Y450D02*
X326Y450D01*
X725Y450D02*
X750Y450D01*
X961Y450D02*
X985Y450D01*
X0Y449D02*
X327Y449D01*
X725Y449D02*
X750Y449D01*
X961Y449D02*
X985Y449D01*
X0Y448D02*
X328Y448D01*
X725Y448D02*
X750Y448D01*
X961Y448D02*
X985Y448D01*
X222Y447D02*
X329Y447D01*
X725Y447D02*
X750Y447D01*
X961Y447D02*
X985Y447D01*
X223Y446D02*
X330Y446D01*
X725Y446D02*
X750Y446D01*
X961Y446D02*
X985Y446D01*
X224Y445D02*
X331Y445D01*
X725Y445D02*
X750Y445D01*
X961Y445D02*
X985Y445D01*
X225Y444D02*
X332Y444D01*
X725Y444D02*
X750Y444D01*
X961Y444D02*
X985Y444D01*
X226Y443D02*
X333Y443D01*
X725Y443D02*
X750Y443D01*
X961Y443D02*
X985Y443D01*
X227Y442D02*
X334Y442D01*
X725Y442D02*
X750Y442D01*
X961Y442D02*
X985Y442D01*
X228Y441D02*
X335Y441D01*
X725Y441D02*
X750Y441D01*
X961Y441D02*
X985Y441D01*
X229Y440D02*
X336Y440D01*
X725Y440D02*
X750Y440D01*
X961Y440D02*
X985Y440D01*
X230Y439D02*
X337Y439D01*
X725Y439D02*
X750Y439D01*
X961Y439D02*
X985Y439D01*
X231Y438D02*
X338Y438D01*
X725Y438D02*
X750Y438D01*
X961Y438D02*
X985Y438D01*
X232Y437D02*
X339Y437D01*
X725Y437D02*
X750Y437D01*
X961Y437D02*
X985Y437D01*
X233Y436D02*
X340Y436D01*
X725Y436D02*
X750Y436D01*
X961Y436D02*
X985Y436D01*
X234Y435D02*
X341Y435D01*
X725Y435D02*
X750Y435D01*
X961Y435D02*
X985Y435D01*
X235Y434D02*
X342Y434D01*
X725Y434D02*
X750Y434D01*
X961Y434D02*
X985Y434D01*
X236Y433D02*
X343Y433D01*
X725Y433D02*
X750Y433D01*
X961Y433D02*
X985Y433D01*
X237Y432D02*
X344Y432D01*
X725Y432D02*
X750Y432D01*
X961Y432D02*
X985Y432D01*
X238Y431D02*
X345Y431D01*
X725Y431D02*
X750Y431D01*
X961Y431D02*
X985Y431D01*
X239Y430D02*
X346Y430D01*
X725Y430D02*
X750Y430D01*
X961Y430D02*
X985Y430D01*
X240Y429D02*
X347Y429D01*
X725Y429D02*
X750Y429D01*
X961Y429D02*
X985Y429D01*
X241Y428D02*
X348Y428D01*
X725Y428D02*
X750Y428D01*
X961Y428D02*
X985Y428D01*
X242Y427D02*
X349Y427D01*
X725Y427D02*
X750Y427D01*
X961Y427D02*
X985Y427D01*
X243Y426D02*
X350Y426D01*
X725Y426D02*
X750Y426D01*
X961Y426D02*
X985Y426D01*
X244Y425D02*
X351Y425D01*
X725Y425D02*
X750Y425D01*
X961Y425D02*
X985Y425D01*
X245Y424D02*
X352Y424D01*
X725Y424D02*
X750Y424D01*
X961Y424D02*
X985Y424D01*
X246Y423D02*
X353Y423D01*
X725Y423D02*
X750Y423D01*
X961Y423D02*
X985Y423D01*
X247Y422D02*
X354Y422D01*
X725Y422D02*
X750Y422D01*
X961Y422D02*
X985Y422D01*
X248Y421D02*
X355Y421D01*
X725Y421D02*
X750Y421D01*
X961Y421D02*
X985Y421D01*
X249Y420D02*
X356Y420D01*
X725Y420D02*
X750Y420D01*
X961Y420D02*
X985Y420D01*
X250Y419D02*
X357Y419D01*
X725Y419D02*
X750Y419D01*
X961Y419D02*
X985Y419D01*
X251Y418D02*
X358Y418D01*
X725Y418D02*
X750Y418D01*
X961Y418D02*
X985Y418D01*
X252Y417D02*
X359Y417D01*
X725Y417D02*
X750Y417D01*
X961Y417D02*
X985Y417D01*
X253Y416D02*
X360Y416D01*
X725Y416D02*
X750Y416D01*
X961Y416D02*
X985Y416D01*
X254Y415D02*
X361Y415D01*
X725Y415D02*
X750Y415D01*
X961Y415D02*
X985Y415D01*
X255Y414D02*
X362Y414D01*
X725Y414D02*
X750Y414D01*
X961Y414D02*
X985Y414D01*
X256Y413D02*
X363Y413D01*
X725Y413D02*
X750Y413D01*
X961Y413D02*
X985Y413D01*
X257Y412D02*
X364Y412D01*
X725Y412D02*
X750Y412D01*
X961Y412D02*
X985Y412D01*
X258Y411D02*
X365Y411D01*
X725Y411D02*
X750Y411D01*
X961Y411D02*
X985Y411D01*
X259Y410D02*
X366Y410D01*
X725Y410D02*
X750Y410D01*
X961Y410D02*
X985Y410D01*
X260Y409D02*
X367Y409D01*
X725Y409D02*
X750Y409D01*
X961Y409D02*
X985Y409D01*
X261Y408D02*
X368Y408D01*
X725Y408D02*
X750Y408D01*
X961Y408D02*
X985Y408D01*
X262Y407D02*
X369Y407D01*
X725Y407D02*
X750Y407D01*
X961Y407D02*
X985Y407D01*
X263Y406D02*
X370Y406D01*
X725Y406D02*
X750Y406D01*
X961Y406D02*
X985Y406D01*
X264Y405D02*
X371Y405D01*
X725Y405D02*
X750Y405D01*
X961Y405D02*
X985Y405D01*
X265Y404D02*
X372Y404D01*
X725Y404D02*
X750Y404D01*
X961Y404D02*
X985Y404D01*
X266Y403D02*
X373Y403D01*
X725Y403D02*
X750Y403D01*
X961Y403D02*
X985Y403D01*
X267Y402D02*
X374Y402D01*
X725Y402D02*
X750Y402D01*
X961Y402D02*
X985Y402D01*
X268Y401D02*
X375Y401D01*
X725Y401D02*
X750Y401D01*
X961Y401D02*
X985Y401D01*
X269Y400D02*
X376Y400D01*
X725Y400D02*
X750Y400D01*
X961Y400D02*
X985Y400D01*
X270Y399D02*
X377Y399D01*
X725Y399D02*
X750Y399D01*
X961Y399D02*
X985Y399D01*
X271Y398D02*
X378Y398D01*
X725Y398D02*
X750Y398D01*
X961Y398D02*
X985Y398D01*
X272Y397D02*
X379Y397D01*
X725Y397D02*
X750Y397D01*
X961Y397D02*
X985Y397D01*
X273Y396D02*
X380Y396D01*
X725Y396D02*
X750Y396D01*
X961Y396D02*
X985Y396D01*
X274Y395D02*
X381Y395D01*
X725Y395D02*
X750Y395D01*
X961Y395D02*
X985Y395D01*
X275Y394D02*
X382Y394D01*
X725Y394D02*
X750Y394D01*
X961Y394D02*
X985Y394D01*
X276Y393D02*
X383Y393D01*
X725Y393D02*
X750Y393D01*
X961Y393D02*
X985Y393D01*
X277Y392D02*
X384Y392D01*
X725Y392D02*
X750Y392D01*
X961Y392D02*
X985Y392D01*
X278Y391D02*
X385Y391D01*
X725Y391D02*
X750Y391D01*
X961Y391D02*
X985Y391D01*
X279Y390D02*
X386Y390D01*
X725Y390D02*
X750Y390D01*
X961Y390D02*
X985Y390D01*
X280Y389D02*
X387Y389D01*
X725Y389D02*
X750Y389D01*
X961Y389D02*
X985Y389D01*
X281Y388D02*
X388Y388D01*
X725Y388D02*
X750Y388D01*
X961Y388D02*
X985Y388D01*
X282Y387D02*
X389Y387D01*
X725Y387D02*
X750Y387D01*
X961Y387D02*
X985Y387D01*
X283Y386D02*
X390Y386D01*
X725Y386D02*
X750Y386D01*
X961Y386D02*
X985Y386D01*
X284Y385D02*
X391Y385D01*
X725Y385D02*
X750Y385D01*
X961Y385D02*
X985Y385D01*
X285Y384D02*
X392Y384D01*
X725Y384D02*
X750Y384D01*
X961Y384D02*
X985Y384D01*
X286Y383D02*
X393Y383D01*
X725Y383D02*
X750Y383D01*
X961Y383D02*
X985Y383D01*
X287Y382D02*
X394Y382D01*
X725Y382D02*
X750Y382D01*
X961Y382D02*
X985Y382D01*
X288Y381D02*
X395Y381D01*
X725Y381D02*
X750Y381D01*
X961Y381D02*
X985Y381D01*
X289Y380D02*
X396Y380D01*
X725Y380D02*
X750Y380D01*
X961Y380D02*
X985Y380D01*
X290Y379D02*
X397Y379D01*
X725Y379D02*
X750Y379D01*
X961Y379D02*
X985Y379D01*
X291Y378D02*
X398Y378D01*
X725Y378D02*
X750Y378D01*
X961Y378D02*
X985Y378D01*
X292Y377D02*
X399Y377D01*
X725Y377D02*
X750Y377D01*
X961Y377D02*
X985Y377D01*
X293Y376D02*
X400Y376D01*
X725Y376D02*
X750Y376D01*
X961Y376D02*
X985Y376D01*
X294Y375D02*
X401Y375D01*
X725Y375D02*
X750Y375D01*
X961Y375D02*
X985Y375D01*
X295Y374D02*
X402Y374D01*
X725Y374D02*
X750Y374D01*
X961Y374D02*
X985Y374D01*
X296Y373D02*
X403Y373D01*
X725Y373D02*
X750Y373D01*
X961Y373D02*
X985Y373D01*
X297Y372D02*
X404Y372D01*
X725Y372D02*
X750Y372D01*
X961Y372D02*
X985Y372D01*
X298Y371D02*
X405Y371D01*
X725Y371D02*
X750Y371D01*
X961Y371D02*
X985Y371D01*
X299Y370D02*
X406Y370D01*
X725Y370D02*
X750Y370D01*
X961Y370D02*
X985Y370D01*
X300Y369D02*
X407Y369D01*
X725Y369D02*
X750Y369D01*
X961Y369D02*
X985Y369D01*
X301Y368D02*
X408Y368D01*
X725Y368D02*
X750Y368D01*
X961Y368D02*
X985Y368D01*
X302Y367D02*
X409Y367D01*
X725Y367D02*
X750Y367D01*
X961Y367D02*
X985Y367D01*
X303Y366D02*
X410Y366D01*
X725Y366D02*
X750Y366D01*
X961Y366D02*
X985Y366D01*
X304Y365D02*
X411Y365D01*
X725Y365D02*
X750Y365D01*
X961Y365D02*
X985Y365D01*
X305Y364D02*
X412Y364D01*
X725Y364D02*
X750Y364D01*
X961Y364D02*
X985Y364D01*
X306Y363D02*
X413Y363D01*
X725Y363D02*
X750Y363D01*
X961Y363D02*
X985Y363D01*
X307Y362D02*
X414Y362D01*
X725Y362D02*
X750Y362D01*
X961Y362D02*
X985Y362D01*
X308Y361D02*
X415Y361D01*
X725Y361D02*
X750Y361D01*
X961Y361D02*
X985Y361D01*
X309Y360D02*
X416Y360D01*
X725Y360D02*
X750Y360D01*
X961Y360D02*
X985Y360D01*
X310Y359D02*
X417Y359D01*
X725Y359D02*
X750Y359D01*
X961Y359D02*
X985Y359D01*
X311Y358D02*
X418Y358D01*
X725Y358D02*
X750Y358D01*
X961Y358D02*
X985Y358D01*
X312Y357D02*
X419Y357D01*
X725Y357D02*
X750Y357D01*
X961Y357D02*
X985Y357D01*
X313Y356D02*
X420Y356D01*
X725Y356D02*
X750Y356D01*
X961Y356D02*
X985Y356D01*
X314Y355D02*
X420Y355D01*
X725Y355D02*
X750Y355D01*
X961Y355D02*
X985Y355D01*
X315Y354D02*
X421Y354D01*
X725Y354D02*
X750Y354D01*
X961Y354D02*
X985Y354D01*
X316Y353D02*
X422Y353D01*
X725Y353D02*
X750Y353D01*
X961Y353D02*
X985Y353D01*
X317Y352D02*
X423Y352D01*
X725Y352D02*
X750Y352D01*
X961Y352D02*
X985Y352D01*
X318Y351D02*
X424Y351D01*
X725Y351D02*
X750Y351D01*
X961Y351D02*
X985Y351D01*
X319Y350D02*
X424Y350D01*
X725Y350D02*
X750Y350D01*
X961Y350D02*
X985Y350D01*
X320Y349D02*
X425Y349D01*
X725Y349D02*
X750Y349D01*
X961Y349D02*
X985Y349D01*
X321Y348D02*
X426Y348D01*
X725Y348D02*
X750Y348D01*
X961Y348D02*
X985Y348D01*
X322Y347D02*
X426Y347D01*
X725Y347D02*
X750Y347D01*
X961Y347D02*
X985Y347D01*
X323Y346D02*
X427Y346D01*
X725Y346D02*
X750Y346D01*
X961Y346D02*
X985Y346D01*
X324Y345D02*
X427Y345D01*
X725Y345D02*
X750Y345D01*
X961Y345D02*
X985Y345D01*
X325Y344D02*
X428Y344D01*
X725Y344D02*
X750Y344D01*
X961Y344D02*
X985Y344D01*
X326Y343D02*
X428Y343D01*
X725Y343D02*
X750Y343D01*
X961Y343D02*
X985Y343D01*
X327Y342D02*
X428Y342D01*
X725Y342D02*
X750Y342D01*
X961Y342D02*
X985Y342D01*
X328Y341D02*
X429Y341D01*
X725Y341D02*
X750Y341D01*
X961Y341D02*
X985Y341D01*
X329Y340D02*
X429Y340D01*
X725Y340D02*
X750Y340D01*
X961Y340D02*
X985Y340D01*
X330Y339D02*
X429Y339D01*
X725Y339D02*
X750Y339D01*
X961Y339D02*
X985Y339D01*
X331Y338D02*
X429Y338D01*
X725Y338D02*
X750Y338D01*
X961Y338D02*
X985Y338D01*
X332Y337D02*
X430Y337D01*
X725Y337D02*
X750Y337D01*
X961Y337D02*
X985Y337D01*
X333Y336D02*
X430Y336D01*
X725Y336D02*
X750Y336D01*
X961Y336D02*
X985Y336D01*
X334Y335D02*
X430Y335D01*
X725Y335D02*
X750Y335D01*
X961Y335D02*
X985Y335D01*
X335Y334D02*
X430Y334D01*
X725Y334D02*
X750Y334D01*
X961Y334D02*
X985Y334D01*
X336Y333D02*
X430Y333D01*
X725Y333D02*
X750Y333D01*
X961Y333D02*
X985Y333D01*
X337Y332D02*
X430Y332D01*
X725Y332D02*
X750Y332D01*
X961Y332D02*
X985Y332D01*
X338Y331D02*
X430Y331D01*
X725Y331D02*
X750Y331D01*
X961Y331D02*
X985Y331D01*
X339Y330D02*
X430Y330D01*
X725Y330D02*
X750Y330D01*
X961Y330D02*
X985Y330D01*
X340Y329D02*
X430Y329D01*
X725Y329D02*
X750Y329D01*
X961Y329D02*
X985Y329D01*
X341Y328D02*
X430Y328D01*
X725Y328D02*
X750Y328D01*
X961Y328D02*
X985Y328D01*
X342Y327D02*
X430Y327D01*
X725Y327D02*
X750Y327D01*
X961Y327D02*
X985Y327D01*
X343Y326D02*
X430Y326D01*
X725Y326D02*
X750Y326D01*
X961Y326D02*
X985Y326D01*
X344Y325D02*
X430Y325D01*
X725Y325D02*
X750Y325D01*
X961Y325D02*
X985Y325D01*
X345Y324D02*
X430Y324D01*
X725Y324D02*
X750Y324D01*
X961Y324D02*
X985Y324D01*
X346Y323D02*
X430Y323D01*
X725Y323D02*
X750Y323D01*
X961Y323D02*
X985Y323D01*
X347Y322D02*
X430Y322D01*
X725Y322D02*
X750Y322D01*
X961Y322D02*
X985Y322D01*
X348Y321D02*
X430Y321D01*
X725Y321D02*
X750Y321D01*
X961Y321D02*
X985Y321D01*
X349Y320D02*
X430Y320D01*
X725Y320D02*
X750Y320D01*
X961Y320D02*
X985Y320D01*
X350Y319D02*
X430Y319D01*
X725Y319D02*
X750Y319D01*
X961Y319D02*
X985Y319D01*
X351Y318D02*
X430Y318D01*
X725Y318D02*
X750Y318D01*
X961Y318D02*
X985Y318D01*
X352Y317D02*
X430Y317D01*
X725Y317D02*
X750Y317D01*
X961Y317D02*
X985Y317D01*
X353Y316D02*
X430Y316D01*
X725Y316D02*
X750Y316D01*
X961Y316D02*
X985Y316D01*
X354Y315D02*
X430Y315D01*
X725Y315D02*
X750Y315D01*
X961Y315D02*
X985Y315D01*
X355Y314D02*
X430Y314D01*
X725Y314D02*
X750Y314D01*
X961Y314D02*
X985Y314D01*
X356Y313D02*
X430Y313D01*
X725Y313D02*
X750Y313D01*
X961Y313D02*
X985Y313D01*
X356Y312D02*
X430Y312D01*
X725Y312D02*
X750Y312D01*
X961Y312D02*
X985Y312D01*
X356Y311D02*
X430Y311D01*
X725Y311D02*
X750Y311D01*
X961Y311D02*
X985Y311D01*
X356Y310D02*
X430Y310D01*
X725Y310D02*
X750Y310D01*
X961Y310D02*
X985Y310D01*
X356Y309D02*
X430Y309D01*
X725Y309D02*
X750Y309D01*
X961Y309D02*
X985Y309D01*
X356Y308D02*
X430Y308D01*
X725Y308D02*
X750Y308D01*
X961Y308D02*
X985Y308D01*
X356Y307D02*
X430Y307D01*
X725Y307D02*
X750Y307D01*
X961Y307D02*
X985Y307D01*
X356Y306D02*
X430Y306D01*
X725Y306D02*
X750Y306D01*
X961Y306D02*
X985Y306D01*
X356Y305D02*
X430Y305D01*
X725Y305D02*
X750Y305D01*
X961Y305D02*
X985Y305D01*
X356Y304D02*
X430Y304D01*
X725Y304D02*
X750Y304D01*
X961Y304D02*
X985Y304D01*
X356Y303D02*
X430Y303D01*
X725Y303D02*
X750Y303D01*
X961Y303D02*
X985Y303D01*
X356Y302D02*
X430Y302D01*
X725Y302D02*
X750Y302D01*
X961Y302D02*
X985Y302D01*
X356Y301D02*
X430Y301D01*
X725Y301D02*
X750Y301D01*
X961Y301D02*
X985Y301D01*
X356Y300D02*
X430Y300D01*
X725Y300D02*
X750Y300D01*
X961Y300D02*
X985Y300D01*
X356Y299D02*
X430Y299D01*
X725Y299D02*
X750Y299D01*
X961Y299D02*
X985Y299D01*
X356Y298D02*
X430Y298D01*
X725Y298D02*
X750Y298D01*
X961Y298D02*
X985Y298D01*
X356Y297D02*
X430Y297D01*
X725Y297D02*
X750Y297D01*
X961Y297D02*
X985Y297D01*
X356Y296D02*
X430Y296D01*
X725Y296D02*
X750Y296D01*
X961Y296D02*
X985Y296D01*
X356Y295D02*
X430Y295D01*
X725Y295D02*
X750Y295D01*
X961Y295D02*
X985Y295D01*
X356Y294D02*
X430Y294D01*
X725Y294D02*
X750Y294D01*
X961Y294D02*
X985Y294D01*
X356Y293D02*
X430Y293D01*
X725Y293D02*
X750Y293D01*
X961Y293D02*
X985Y293D01*
X356Y292D02*
X430Y292D01*
X725Y292D02*
X750Y292D01*
X961Y292D02*
X985Y292D01*
X356Y291D02*
X430Y291D01*
X725Y291D02*
X750Y291D01*
X961Y291D02*
X985Y291D01*
X356Y290D02*
X430Y290D01*
X725Y290D02*
X750Y290D01*
X961Y290D02*
X985Y290D01*
X356Y289D02*
X430Y289D01*
X725Y289D02*
X750Y289D01*
X961Y289D02*
X985Y289D01*
X356Y288D02*
X430Y288D01*
X725Y288D02*
X750Y288D01*
X961Y288D02*
X985Y288D01*
X356Y287D02*
X430Y287D01*
X725Y287D02*
X750Y287D01*
X961Y287D02*
X985Y287D01*
X356Y286D02*
X430Y286D01*
X725Y286D02*
X750Y286D01*
X961Y286D02*
X985Y286D01*
X356Y285D02*
X430Y285D01*
X725Y285D02*
X750Y285D01*
X961Y285D02*
X985Y285D01*
X356Y284D02*
X430Y284D01*
X725Y284D02*
X750Y284D01*
X961Y284D02*
X985Y284D01*
X356Y283D02*
X430Y283D01*
X725Y283D02*
X750Y283D01*
X961Y283D02*
X985Y283D01*
X356Y282D02*
X430Y282D01*
X725Y282D02*
X750Y282D01*
X961Y282D02*
X985Y282D01*
X356Y281D02*
X430Y281D01*
X725Y281D02*
X750Y281D01*
X961Y281D02*
X985Y281D01*
X356Y280D02*
X430Y280D01*
X725Y280D02*
X750Y280D01*
X961Y280D02*
X985Y280D01*
X356Y279D02*
X430Y279D01*
X725Y279D02*
X750Y279D01*
X961Y279D02*
X985Y279D01*
X356Y278D02*
X430Y278D01*
X725Y278D02*
X750Y278D01*
X961Y278D02*
X985Y278D01*
X356Y277D02*
X430Y277D01*
X725Y277D02*
X750Y277D01*
X961Y277D02*
X985Y277D01*
X356Y276D02*
X430Y276D01*
X725Y276D02*
X750Y276D01*
X961Y276D02*
X985Y276D01*
X356Y275D02*
X430Y275D01*
X725Y275D02*
X750Y275D01*
X961Y275D02*
X985Y275D01*
X356Y274D02*
X430Y274D01*
X725Y274D02*
X750Y274D01*
X961Y274D02*
X985Y274D01*
X356Y273D02*
X430Y273D01*
X725Y273D02*
X750Y273D01*
X961Y273D02*
X985Y273D01*
X356Y272D02*
X430Y272D01*
X725Y272D02*
X750Y272D01*
X961Y272D02*
X985Y272D01*
X356Y271D02*
X430Y271D01*
X725Y271D02*
X750Y271D01*
X961Y271D02*
X985Y271D01*
X356Y270D02*
X430Y270D01*
X725Y270D02*
X750Y270D01*
X961Y270D02*
X985Y270D01*
X356Y269D02*
X430Y269D01*
X725Y269D02*
X750Y269D01*
X961Y269D02*
X985Y269D01*
X356Y268D02*
X430Y268D01*
X725Y268D02*
X750Y268D01*
X961Y268D02*
X985Y268D01*
X356Y267D02*
X430Y267D01*
X725Y267D02*
X750Y267D01*
X961Y267D02*
X985Y267D01*
X356Y266D02*
X430Y266D01*
X725Y266D02*
X750Y266D01*
X961Y266D02*
X985Y266D01*
X356Y265D02*
X430Y265D01*
X725Y265D02*
X750Y265D01*
X961Y265D02*
X985Y265D01*
X356Y264D02*
X430Y264D01*
X725Y264D02*
X750Y264D01*
X961Y264D02*
X985Y264D01*
X356Y263D02*
X430Y263D01*
X725Y263D02*
X750Y263D01*
X961Y263D02*
X985Y263D01*
X356Y262D02*
X430Y262D01*
X725Y262D02*
X750Y262D01*
X961Y262D02*
X985Y262D01*
X356Y261D02*
X430Y261D01*
X725Y261D02*
X750Y261D01*
X961Y261D02*
X985Y261D01*
X356Y260D02*
X430Y260D01*
X725Y260D02*
X750Y260D01*
X961Y260D02*
X985Y260D01*
X356Y259D02*
X430Y259D01*
X725Y259D02*
X750Y259D01*
X961Y259D02*
X985Y259D01*
X356Y258D02*
X430Y258D01*
X725Y258D02*
X750Y258D01*
X961Y258D02*
X985Y258D01*
X356Y257D02*
X430Y257D01*
X725Y257D02*
X750Y257D01*
X961Y257D02*
X985Y257D01*
X356Y256D02*
X430Y256D01*
X725Y256D02*
X750Y256D01*
X961Y256D02*
X985Y256D01*
X356Y255D02*
X430Y255D01*
X725Y255D02*
X750Y255D01*
X961Y255D02*
X985Y255D01*
X356Y254D02*
X430Y254D01*
X725Y254D02*
X750Y254D01*
X961Y254D02*
X985Y254D01*
X356Y253D02*
X430Y253D01*
X725Y253D02*
X750Y253D01*
X961Y253D02*
X985Y253D01*
X356Y252D02*
X430Y252D01*
X725Y252D02*
X750Y252D01*
X961Y252D02*
X985Y252D01*
X356Y251D02*
X430Y251D01*
X725Y251D02*
X750Y251D01*
X961Y251D02*
X985Y251D01*
X356Y250D02*
X430Y250D01*
X725Y250D02*
X750Y250D01*
X961Y250D02*
X985Y250D01*
X356Y249D02*
X430Y249D01*
X725Y249D02*
X750Y249D01*
X961Y249D02*
X985Y249D01*
X356Y248D02*
X430Y248D01*
X725Y248D02*
X750Y248D01*
X961Y248D02*
X985Y248D01*
X356Y247D02*
X430Y247D01*
X725Y247D02*
X750Y247D01*
X961Y247D02*
X985Y247D01*
X356Y246D02*
X430Y246D01*
X725Y246D02*
X750Y246D01*
X961Y246D02*
X985Y246D01*
X356Y245D02*
X430Y245D01*
X725Y245D02*
X750Y245D01*
X961Y245D02*
X985Y245D01*
X356Y244D02*
X430Y244D01*
X725Y244D02*
X750Y244D01*
X961Y244D02*
X985Y244D01*
X356Y243D02*
X430Y243D01*
X725Y243D02*
X750Y243D01*
X961Y243D02*
X985Y243D01*
X356Y242D02*
X430Y242D01*
X725Y242D02*
X750Y242D01*
X961Y242D02*
X985Y242D01*
X356Y241D02*
X430Y241D01*
X725Y241D02*
X750Y241D01*
X961Y241D02*
X985Y241D01*
X356Y240D02*
X430Y240D01*
X725Y240D02*
X750Y240D01*
X961Y240D02*
X985Y240D01*
X356Y239D02*
X430Y239D01*
X725Y239D02*
X750Y239D01*
X961Y239D02*
X985Y239D01*
X356Y238D02*
X430Y238D01*
X725Y238D02*
X750Y238D01*
X961Y238D02*
X985Y238D01*
X356Y237D02*
X430Y237D01*
X725Y237D02*
X750Y237D01*
X961Y237D02*
X985Y237D01*
X356Y236D02*
X430Y236D01*
X725Y236D02*
X750Y236D01*
X961Y236D02*
X985Y236D01*
X356Y235D02*
X430Y235D01*
X725Y235D02*
X750Y235D01*
X961Y235D02*
X985Y235D01*
X356Y234D02*
X430Y234D01*
X725Y234D02*
X750Y234D01*
X961Y234D02*
X985Y234D01*
X356Y233D02*
X430Y233D01*
X725Y233D02*
X750Y233D01*
X961Y233D02*
X985Y233D01*
X356Y232D02*
X430Y232D01*
X725Y232D02*
X750Y232D01*
X961Y232D02*
X985Y232D01*
X356Y231D02*
X430Y231D01*
X725Y231D02*
X750Y231D01*
X961Y231D02*
X985Y231D01*
X356Y230D02*
X430Y230D01*
X725Y230D02*
X750Y230D01*
X961Y230D02*
X985Y230D01*
X356Y229D02*
X430Y229D01*
X725Y229D02*
X750Y229D01*
X961Y229D02*
X985Y229D01*
X356Y228D02*
X430Y228D01*
X725Y228D02*
X750Y228D01*
X961Y228D02*
X985Y228D01*
X356Y227D02*
X430Y227D01*
X725Y227D02*
X750Y227D01*
X961Y227D02*
X985Y227D01*
X356Y226D02*
X430Y226D01*
X725Y226D02*
X750Y226D01*
X961Y226D02*
X985Y226D01*
X356Y225D02*
X430Y225D01*
X725Y225D02*
X750Y225D01*
X961Y225D02*
X985Y225D01*
X356Y224D02*
X430Y224D01*
X725Y224D02*
X750Y224D01*
X961Y224D02*
X985Y224D01*
X356Y223D02*
X430Y223D01*
X725Y223D02*
X750Y223D01*
X961Y223D02*
X985Y223D01*
X356Y222D02*
X430Y222D01*
X725Y222D02*
X750Y222D01*
X961Y222D02*
X985Y222D01*
X356Y221D02*
X430Y221D01*
X725Y221D02*
X750Y221D01*
X961Y221D02*
X985Y221D01*
X356Y220D02*
X430Y220D01*
X725Y220D02*
X750Y220D01*
X961Y220D02*
X985Y220D01*
X356Y219D02*
X430Y219D01*
X725Y219D02*
X750Y219D01*
X961Y219D02*
X985Y219D01*
X356Y218D02*
X430Y218D01*
X725Y218D02*
X750Y218D01*
X961Y218D02*
X985Y218D01*
X356Y217D02*
X430Y217D01*
X725Y217D02*
X750Y217D01*
X961Y217D02*
X985Y217D01*
X356Y216D02*
X430Y216D01*
X725Y216D02*
X750Y216D01*
X961Y216D02*
X985Y216D01*
X356Y215D02*
X430Y215D01*
X725Y215D02*
X750Y215D01*
X961Y215D02*
X985Y215D01*
X356Y214D02*
X430Y214D01*
X725Y214D02*
X750Y214D01*
X961Y214D02*
X985Y214D01*
X356Y213D02*
X430Y213D01*
X725Y213D02*
X750Y213D01*
X961Y213D02*
X985Y213D01*
X356Y212D02*
X430Y212D01*
X725Y212D02*
X750Y212D01*
X961Y212D02*
X985Y212D01*
X356Y211D02*
X430Y211D01*
X725Y211D02*
X750Y211D01*
X961Y211D02*
X985Y211D01*
X356Y210D02*
X430Y210D01*
X725Y210D02*
X750Y210D01*
X961Y210D02*
X985Y210D01*
X356Y209D02*
X430Y209D01*
X725Y209D02*
X750Y209D01*
X961Y209D02*
X985Y209D01*
X356Y208D02*
X430Y208D01*
X725Y208D02*
X750Y208D01*
X961Y208D02*
X985Y208D01*
X356Y207D02*
X430Y207D01*
X725Y207D02*
X750Y207D01*
X961Y207D02*
X985Y207D01*
X356Y206D02*
X430Y206D01*
X725Y206D02*
X750Y206D01*
X961Y206D02*
X985Y206D01*
X356Y205D02*
X430Y205D01*
X725Y205D02*
X750Y205D01*
X961Y205D02*
X985Y205D01*
X356Y204D02*
X430Y204D01*
X725Y204D02*
X750Y204D01*
X961Y204D02*
X985Y204D01*
X356Y203D02*
X430Y203D01*
X725Y203D02*
X750Y203D01*
X961Y203D02*
X985Y203D01*
X356Y202D02*
X430Y202D01*
X725Y202D02*
X750Y202D01*
X961Y202D02*
X985Y202D01*
X356Y201D02*
X430Y201D01*
X725Y201D02*
X750Y201D01*
X961Y201D02*
X985Y201D01*
X356Y200D02*
X430Y200D01*
X725Y200D02*
X750Y200D01*
X961Y200D02*
X985Y200D01*
X356Y199D02*
X430Y199D01*
X725Y199D02*
X750Y199D01*
X961Y199D02*
X985Y199D01*
X356Y198D02*
X430Y198D01*
X725Y198D02*
X750Y198D01*
X961Y198D02*
X985Y198D01*
X356Y197D02*
X430Y197D01*
X725Y197D02*
X750Y197D01*
X961Y197D02*
X985Y197D01*
X356Y196D02*
X430Y196D01*
X725Y196D02*
X750Y196D01*
X961Y196D02*
X985Y196D01*
X356Y195D02*
X430Y195D01*
X725Y195D02*
X750Y195D01*
X961Y195D02*
X985Y195D01*
X356Y194D02*
X430Y194D01*
X725Y194D02*
X750Y194D01*
X961Y194D02*
X985Y194D01*
X356Y193D02*
X430Y193D01*
X725Y193D02*
X750Y193D01*
X961Y193D02*
X985Y193D01*
X356Y192D02*
X430Y192D01*
X725Y192D02*
X750Y192D01*
X961Y192D02*
X985Y192D01*
X356Y191D02*
X430Y191D01*
X725Y191D02*
X750Y191D01*
X961Y191D02*
X985Y191D01*
X356Y190D02*
X430Y190D01*
X725Y190D02*
X750Y190D01*
X961Y190D02*
X985Y190D01*
X356Y189D02*
X430Y189D01*
X725Y189D02*
X750Y189D01*
X961Y189D02*
X985Y189D01*
X356Y188D02*
X430Y188D01*
X725Y188D02*
X750Y188D01*
X961Y188D02*
X985Y188D01*
X356Y187D02*
X430Y187D01*
X725Y187D02*
X750Y187D01*
X961Y187D02*
X985Y187D01*
X356Y186D02*
X430Y186D01*
X725Y186D02*
X750Y186D01*
X961Y186D02*
X985Y186D01*
X356Y185D02*
X430Y185D01*
X725Y185D02*
X750Y185D01*
X961Y185D02*
X985Y185D01*
X356Y184D02*
X430Y184D01*
X725Y184D02*
X750Y184D01*
X961Y184D02*
X985Y184D01*
X356Y183D02*
X430Y183D01*
X725Y183D02*
X750Y183D01*
X961Y183D02*
X985Y183D01*
X356Y182D02*
X430Y182D01*
X725Y182D02*
X750Y182D01*
X961Y182D02*
X985Y182D01*
X356Y181D02*
X430Y181D01*
X725Y181D02*
X750Y181D01*
X961Y181D02*
X985Y181D01*
X356Y180D02*
X430Y180D01*
X725Y180D02*
X750Y180D01*
X961Y180D02*
X985Y180D01*
X356Y179D02*
X430Y179D01*
X725Y179D02*
X750Y179D01*
X961Y179D02*
X985Y179D01*
X356Y178D02*
X430Y178D01*
X725Y178D02*
X750Y178D01*
X961Y178D02*
X985Y178D01*
X356Y177D02*
X430Y177D01*
X725Y177D02*
X750Y177D01*
X961Y177D02*
X985Y177D01*
X356Y176D02*
X430Y176D01*
X725Y176D02*
X750Y176D01*
X961Y176D02*
X985Y176D01*
X356Y175D02*
X430Y175D01*
X725Y175D02*
X750Y175D01*
X961Y175D02*
X985Y175D01*
X356Y174D02*
X430Y174D01*
X725Y174D02*
X750Y174D01*
X961Y174D02*
X985Y174D01*
X356Y173D02*
X430Y173D01*
X725Y173D02*
X750Y173D01*
X961Y173D02*
X985Y173D01*
X356Y172D02*
X430Y172D01*
X725Y172D02*
X750Y172D01*
X961Y172D02*
X985Y172D01*
X356Y171D02*
X430Y171D01*
X725Y171D02*
X750Y171D01*
X961Y171D02*
X985Y171D01*
X356Y170D02*
X430Y170D01*
X725Y170D02*
X750Y170D01*
X961Y170D02*
X985Y170D01*
X356Y169D02*
X430Y169D01*
X725Y169D02*
X750Y169D01*
X961Y169D02*
X985Y169D01*
X356Y168D02*
X430Y168D01*
X725Y168D02*
X750Y168D01*
X961Y168D02*
X985Y168D01*
X356Y167D02*
X430Y167D01*
X725Y167D02*
X750Y167D01*
X961Y167D02*
X985Y167D01*
X356Y166D02*
X430Y166D01*
X725Y166D02*
X750Y166D01*
X961Y166D02*
X985Y166D01*
X356Y165D02*
X430Y165D01*
X725Y165D02*
X750Y165D01*
X961Y165D02*
X985Y165D01*
X356Y164D02*
X430Y164D01*
X725Y164D02*
X750Y164D01*
X961Y164D02*
X985Y164D01*
X356Y163D02*
X430Y163D01*
X725Y163D02*
X750Y163D01*
X961Y163D02*
X985Y163D01*
X356Y162D02*
X430Y162D01*
X725Y162D02*
X750Y162D01*
X961Y162D02*
X985Y162D01*
X356Y161D02*
X430Y161D01*
X725Y161D02*
X750Y161D01*
X961Y161D02*
X985Y161D01*
X356Y160D02*
X430Y160D01*
X725Y160D02*
X750Y160D01*
X961Y160D02*
X985Y160D01*
X356Y159D02*
X430Y159D01*
X725Y159D02*
X750Y159D01*
X961Y159D02*
X985Y159D01*
X356Y158D02*
X430Y158D01*
X725Y158D02*
X750Y158D01*
X961Y158D02*
X985Y158D01*
X356Y157D02*
X430Y157D01*
X725Y157D02*
X750Y157D01*
X961Y157D02*
X985Y157D01*
X356Y156D02*
X430Y156D01*
X725Y156D02*
X750Y156D01*
X961Y156D02*
X985Y156D01*
X356Y155D02*
X430Y155D01*
X725Y155D02*
X750Y155D01*
X961Y155D02*
X985Y155D01*
X356Y154D02*
X430Y154D01*
X725Y154D02*
X750Y154D01*
X961Y154D02*
X985Y154D01*
X356Y153D02*
X430Y153D01*
X725Y153D02*
X750Y153D01*
X961Y153D02*
X985Y153D01*
X356Y152D02*
X430Y152D01*
X725Y152D02*
X750Y152D01*
X961Y152D02*
X985Y152D01*
X356Y151D02*
X430Y151D01*
X725Y151D02*
X750Y151D01*
X961Y151D02*
X985Y151D01*
X356Y150D02*
X430Y150D01*
X725Y150D02*
X750Y150D01*
X961Y150D02*
X985Y150D01*
X356Y149D02*
X430Y149D01*
X725Y149D02*
X750Y149D01*
X961Y149D02*
X985Y149D01*
X356Y148D02*
X430Y148D01*
X725Y148D02*
X750Y148D01*
X961Y148D02*
X985Y148D01*
X356Y147D02*
X430Y147D01*
X725Y147D02*
X750Y147D01*
X961Y147D02*
X985Y147D01*
X356Y146D02*
X430Y146D01*
X725Y146D02*
X750Y146D01*
X961Y146D02*
X985Y146D01*
X356Y145D02*
X430Y145D01*
X725Y145D02*
X750Y145D01*
X961Y145D02*
X985Y145D01*
X356Y144D02*
X430Y144D01*
X725Y144D02*
X750Y144D01*
X961Y144D02*
X985Y144D01*
X356Y143D02*
X430Y143D01*
X725Y143D02*
X750Y143D01*
X961Y143D02*
X985Y143D01*
X356Y142D02*
X430Y142D01*
X725Y142D02*
X750Y142D01*
X961Y142D02*
X985Y142D01*
X356Y141D02*
X430Y141D01*
X725Y141D02*
X750Y141D01*
X961Y141D02*
X985Y141D01*
X356Y140D02*
X430Y140D01*
X725Y140D02*
X750Y140D01*
X961Y140D02*
X985Y140D01*
X356Y139D02*
X430Y139D01*
X725Y139D02*
X750Y139D01*
X961Y139D02*
X985Y139D01*
X356Y138D02*
X430Y138D01*
X725Y138D02*
X750Y138D01*
X961Y138D02*
X985Y138D01*
X356Y137D02*
X430Y137D01*
X725Y137D02*
X750Y137D01*
X961Y137D02*
X985Y137D01*
X356Y136D02*
X430Y136D01*
X725Y136D02*
X750Y136D01*
X961Y136D02*
X985Y136D01*
X356Y135D02*
X430Y135D01*
X725Y135D02*
X750Y135D01*
X961Y135D02*
X985Y135D01*
X356Y134D02*
X430Y134D01*
X725Y134D02*
X750Y134D01*
X961Y134D02*
X985Y134D01*
X356Y133D02*
X430Y133D01*
X725Y133D02*
X750Y133D01*
X961Y133D02*
X985Y133D01*
X356Y132D02*
X426Y132D01*
X725Y132D02*
X750Y132D01*
X961Y132D02*
X985Y132D01*
X356Y131D02*
X422Y131D01*
X725Y131D02*
X750Y131D01*
X961Y131D02*
X985Y131D01*
X356Y130D02*
X418Y130D01*
X725Y130D02*
X750Y130D01*
X961Y130D02*
X985Y130D01*
X356Y129D02*
X414Y129D01*
X725Y129D02*
X750Y129D01*
X961Y129D02*
X985Y129D01*
X356Y128D02*
X411Y128D01*
X725Y128D02*
X750Y128D01*
X961Y128D02*
X985Y128D01*
X356Y127D02*
X407Y127D01*
X725Y127D02*
X750Y127D01*
X961Y127D02*
X985Y127D01*
X356Y126D02*
X403Y126D01*
X725Y126D02*
X750Y126D01*
X961Y126D02*
X985Y126D01*
X356Y125D02*
X399Y125D01*
X725Y125D02*
X750Y125D01*
X961Y125D02*
X985Y125D01*
X356Y124D02*
X395Y124D01*
X725Y124D02*
X750Y124D01*
X961Y124D02*
X985Y124D01*
X356Y123D02*
X391Y123D01*
X725Y123D02*
X750Y123D01*
X961Y123D02*
X985Y123D01*
X356Y122D02*
X388Y122D01*
X725Y122D02*
X750Y122D01*
X961Y122D02*
X985Y122D01*
X356Y121D02*
X384Y121D01*
X725Y121D02*
X750Y121D01*
X961Y121D02*
X985Y121D01*
X356Y120D02*
X380Y120D01*
X725Y120D02*
X750Y120D01*
X961Y120D02*
X985Y120D01*
X356Y119D02*
X376Y119D01*
X725Y119D02*
X750Y119D01*
X961Y119D02*
X985Y119D01*
X356Y118D02*
X372Y118D01*
X725Y118D02*
X750Y118D01*
X961Y118D02*
X985Y118D01*
X356Y117D02*
X368Y117D01*
X725Y117D02*
X750Y117D01*
X961Y117D02*
X985Y117D01*
X356Y116D02*
X365Y116D01*
X725Y116D02*
X750Y116D01*
X961Y116D02*
X985Y116D01*
X356Y115D02*
X361Y115D01*
X725Y115D02*
X750Y115D01*
X961Y115D02*
X985Y115D01*
X356Y114D02*
X357Y114D01*
X725Y114D02*
X750Y114D01*
X961Y114D02*
X985Y114D01*
X725Y113D02*
X750Y113D01*
X961Y113D02*
X985Y113D01*
X725Y112D02*
X750Y112D01*
X961Y112D02*
X985Y112D01*
X725Y111D02*
X750Y111D01*
X961Y111D02*
X985Y111D01*
X725Y110D02*
X750Y110D01*
X961Y110D02*
X985Y110D01*
X725Y109D02*
X750Y109D01*
X961Y109D02*
X985Y109D01*
X725Y108D02*
X750Y108D01*
X961Y108D02*
X985Y108D01*
X725Y107D02*
X750Y107D01*
X961Y107D02*
X985Y107D01*
X725Y106D02*
X750Y106D01*
X961Y106D02*
X985Y106D01*
X725Y105D02*
X750Y105D01*
X961Y105D02*
X985Y105D01*
X725Y104D02*
X750Y104D01*
X961Y104D02*
X985Y104D01*
X725Y103D02*
X750Y103D01*
X961Y103D02*
X985Y103D01*
X725Y102D02*
X750Y102D01*
X961Y102D02*
X985Y102D01*
X725Y101D02*
X750Y101D01*
X961Y101D02*
X985Y101D01*
X725Y100D02*
X750Y100D01*
X961Y100D02*
X985Y100D01*
X725Y99D02*
X750Y99D01*
X961Y99D02*
X985Y99D01*
X725Y98D02*
X750Y98D01*
X961Y98D02*
X985Y98D01*
X725Y97D02*
X750Y97D01*
X961Y97D02*
X985Y97D01*
X725Y96D02*
X750Y96D01*
X961Y96D02*
X985Y96D01*
X725Y95D02*
X750Y95D01*
X961Y95D02*
X985Y95D01*
X725Y94D02*
X750Y94D01*
X961Y94D02*
X985Y94D01*
X725Y93D02*
X750Y93D01*
X961Y93D02*
X985Y93D01*
X725Y92D02*
X750Y92D01*
X961Y92D02*
X985Y92D01*
X725Y91D02*
X750Y91D01*
X961Y91D02*
X985Y91D01*
X725Y90D02*
X750Y90D01*
X961Y90D02*
X985Y90D01*
X725Y89D02*
X750Y89D01*
X961Y89D02*
X985Y89D01*
X725Y88D02*
X750Y88D01*
X961Y88D02*
X985Y88D01*
X725Y87D02*
X750Y87D01*
X961Y87D02*
X985Y87D01*
X725Y86D02*
X750Y86D01*
X961Y86D02*
X985Y86D01*
X725Y85D02*
X750Y85D01*
X961Y85D02*
X985Y85D01*
X725Y84D02*
X750Y84D01*
X961Y84D02*
X985Y84D01*
X725Y83D02*
X750Y83D01*
X961Y83D02*
X985Y83D01*
X483Y82D02*
X486Y82D01*
X725Y82D02*
X750Y82D01*
X961Y82D02*
X985Y82D01*
X479Y81D02*
X486Y81D01*
X725Y81D02*
X750Y81D01*
X961Y81D02*
X985Y81D01*
X475Y80D02*
X486Y80D01*
X725Y80D02*
X750Y80D01*
X961Y80D02*
X985Y80D01*
X471Y79D02*
X486Y79D01*
X725Y79D02*
X750Y79D01*
X961Y79D02*
X985Y79D01*
X467Y78D02*
X486Y78D01*
X725Y78D02*
X750Y78D01*
X961Y78D02*
X985Y78D01*
X464Y77D02*
X486Y77D01*
X725Y77D02*
X750Y77D01*
X961Y77D02*
X985Y77D01*
X460Y76D02*
X486Y76D01*
X725Y76D02*
X750Y76D01*
X961Y76D02*
X985Y76D01*
X456Y75D02*
X486Y75D01*
X725Y75D02*
X750Y75D01*
X961Y75D02*
X985Y75D01*
X452Y74D02*
X486Y74D01*
X725Y74D02*
X750Y74D01*
X961Y74D02*
X985Y74D01*
X448Y73D02*
X486Y73D01*
X725Y73D02*
X750Y73D01*
X961Y73D02*
X985Y73D01*
X444Y72D02*
X486Y72D01*
X725Y72D02*
X750Y72D01*
X961Y72D02*
X985Y72D01*
X441Y71D02*
X486Y71D01*
X725Y71D02*
X750Y71D01*
X961Y71D02*
X985Y71D01*
X437Y70D02*
X486Y70D01*
X725Y70D02*
X750Y70D01*
X961Y70D02*
X985Y70D01*
X433Y69D02*
X486Y69D01*
X725Y69D02*
X750Y69D01*
X961Y69D02*
X985Y69D01*
X429Y68D02*
X486Y68D01*
X725Y68D02*
X750Y68D01*
X961Y68D02*
X985Y68D01*
X425Y67D02*
X486Y67D01*
X725Y67D02*
X750Y67D01*
X961Y67D02*
X985Y67D01*
X421Y66D02*
X486Y66D01*
X725Y66D02*
X750Y66D01*
X961Y66D02*
X985Y66D01*
X418Y65D02*
X486Y65D01*
X725Y65D02*
X750Y65D01*
X961Y65D02*
X985Y65D01*
X414Y64D02*
X486Y64D01*
X725Y64D02*
X750Y64D01*
X961Y64D02*
X985Y64D01*
X410Y63D02*
X486Y63D01*
X725Y63D02*
X750Y63D01*
X961Y63D02*
X985Y63D01*
X406Y62D02*
X486Y62D01*
X725Y62D02*
X750Y62D01*
X961Y62D02*
X985Y62D01*
X402Y61D02*
X486Y61D01*
X725Y61D02*
X750Y61D01*
X961Y61D02*
X985Y61D01*
X398Y60D02*
X486Y60D01*
X725Y60D02*
X750Y60D01*
X961Y60D02*
X985Y60D01*
X395Y59D02*
X486Y59D01*
X725Y59D02*
X750Y59D01*
X961Y59D02*
X985Y59D01*
X391Y58D02*
X486Y58D01*
X725Y58D02*
X750Y58D01*
X961Y58D02*
X985Y58D01*
X387Y57D02*
X486Y57D01*
X725Y57D02*
X750Y57D01*
X961Y57D02*
X985Y57D01*
X383Y56D02*
X486Y56D01*
X725Y56D02*
X750Y56D01*
X961Y56D02*
X985Y56D01*
X379Y55D02*
X486Y55D01*
X725Y55D02*
X750Y55D01*
X961Y55D02*
X985Y55D01*
X375Y54D02*
X486Y54D01*
X725Y54D02*
X750Y54D01*
X961Y54D02*
X985Y54D01*
X372Y53D02*
X486Y53D01*
X725Y53D02*
X750Y53D01*
X961Y53D02*
X985Y53D01*
X368Y52D02*
X486Y52D01*
X725Y52D02*
X750Y52D01*
X961Y52D02*
X985Y52D01*
X364Y51D02*
X486Y51D01*
X725Y51D02*
X750Y51D01*
X961Y51D02*
X985Y51D01*
X360Y50D02*
X486Y50D01*
X725Y50D02*
X750Y50D01*
X961Y50D02*
X985Y50D01*
X356Y49D02*
X486Y49D01*
X725Y49D02*
X750Y49D01*
X961Y49D02*
X985Y49D01*
X352Y48D02*
X486Y48D01*
X725Y48D02*
X750Y48D01*
X961Y48D02*
X985Y48D01*
X348Y47D02*
X486Y47D01*
X725Y47D02*
X750Y47D01*
X961Y47D02*
X985Y47D01*
X345Y46D02*
X486Y46D01*
X725Y46D02*
X750Y46D01*
X961Y46D02*
X985Y46D01*
X341Y45D02*
X486Y45D01*
X725Y45D02*
X750Y45D01*
X961Y45D02*
X985Y45D01*
X337Y44D02*
X484Y44D01*
X725Y44D02*
X750Y44D01*
X961Y44D02*
X985Y44D01*
X333Y43D02*
X480Y43D01*
X725Y43D02*
X750Y43D01*
X961Y43D02*
X985Y43D01*
X329Y42D02*
X476Y42D01*
X725Y42D02*
X750Y42D01*
X961Y42D02*
X985Y42D01*
X325Y41D02*
X472Y41D01*
X725Y41D02*
X750Y41D01*
X961Y41D02*
X985Y41D01*
X322Y40D02*
X468Y40D01*
X725Y40D02*
X750Y40D01*
X961Y40D02*
X985Y40D01*
X318Y39D02*
X464Y39D01*
X725Y39D02*
X750Y39D01*
X961Y39D02*
X985Y39D01*
X314Y38D02*
X461Y38D01*
X725Y38D02*
X750Y38D01*
X961Y38D02*
X985Y38D01*
X310Y37D02*
X457Y37D01*
X725Y37D02*
X750Y37D01*
X961Y37D02*
X985Y37D01*
X306Y36D02*
X453Y36D01*
X725Y36D02*
X750Y36D01*
X961Y36D02*
X985Y36D01*
X303Y35D02*
X449Y35D01*
X725Y35D02*
X750Y35D01*
X961Y35D02*
X985Y35D01*
X302Y34D02*
X445Y34D01*
X725Y34D02*
X750Y34D01*
X961Y34D02*
X985Y34D01*
X302Y33D02*
X441Y33D01*
X725Y33D02*
X750Y33D01*
X961Y33D02*
X985Y33D01*
X302Y32D02*
X438Y32D01*
X725Y32D02*
X750Y32D01*
X961Y32D02*
X985Y32D01*
X302Y31D02*
X434Y31D01*
X485Y31D02*
X486Y31D01*
X725Y31D02*
X750Y31D01*
X961Y31D02*
X985Y31D01*
X302Y30D02*
X430Y30D01*
X481Y30D02*
X486Y30D01*
X725Y30D02*
X750Y30D01*
X961Y30D02*
X985Y30D01*
X302Y29D02*
X426Y29D01*
X477Y29D02*
X486Y29D01*
X725Y29D02*
X750Y29D01*
X961Y29D02*
X985Y29D01*
X302Y28D02*
X422Y28D01*
X473Y28D02*
X486Y28D01*
X725Y28D02*
X750Y28D01*
X961Y28D02*
X985Y28D01*
X302Y27D02*
X418Y27D01*
X469Y27D02*
X486Y27D01*
X725Y27D02*
X750Y27D01*
X961Y27D02*
X985Y27D01*
X302Y26D02*
X415Y26D01*
X466Y26D02*
X486Y26D01*
X725Y26D02*
X750Y26D01*
X961Y26D02*
X985Y26D01*
X302Y25D02*
X411Y25D01*
X462Y25D02*
X486Y25D01*
X725Y25D02*
X750Y25D01*
X961Y25D02*
X985Y25D01*
X302Y24D02*
X407Y24D01*
X458Y24D02*
X486Y24D01*
X725Y24D02*
X750Y24D01*
X961Y24D02*
X985Y24D01*
X302Y23D02*
X403Y23D01*
X454Y23D02*
X486Y23D01*
X725Y23D02*
X750Y23D01*
X961Y23D02*
X985Y23D01*
X302Y22D02*
X399Y22D01*
X450Y22D02*
X486Y22D01*
X725Y22D02*
X750Y22D01*
X961Y22D02*
X985Y22D01*
X302Y21D02*
X395Y21D01*
X446Y21D02*
X486Y21D01*
X725Y21D02*
X750Y21D01*
X961Y21D02*
X985Y21D01*
X302Y20D02*
X391Y20D01*
X443Y20D02*
X486Y20D01*
X725Y20D02*
X750Y20D01*
X961Y20D02*
X985Y20D01*
X302Y19D02*
X388Y19D01*
X439Y19D02*
X486Y19D01*
X725Y19D02*
X750Y19D01*
X961Y19D02*
X985Y19D01*
X302Y18D02*
X384Y18D01*
X435Y18D02*
X486Y18D01*
X725Y18D02*
X750Y18D01*
X961Y18D02*
X985Y18D01*
X302Y17D02*
X380Y17D01*
X431Y17D02*
X486Y17D01*
X725Y17D02*
X750Y17D01*
X961Y17D02*
X985Y17D01*
X302Y16D02*
X376Y16D01*
X427Y16D02*
X486Y16D01*
X725Y16D02*
X750Y16D01*
X961Y16D02*
X985Y16D01*
X302Y15D02*
X372Y15D01*
X423Y15D02*
X486Y15D01*
X725Y15D02*
X750Y15D01*
X961Y15D02*
X985Y15D01*
X302Y14D02*
X368Y14D01*
X420Y14D02*
X486Y14D01*
X725Y14D02*
X750Y14D01*
X961Y14D02*
X985Y14D01*
X302Y13D02*
X365Y13D01*
X416Y13D02*
X486Y13D01*
X725Y13D02*
X750Y13D01*
X961Y13D02*
X985Y13D01*
X302Y12D02*
X361Y12D01*
X412Y12D02*
X486Y12D01*
X725Y12D02*
X750Y12D01*
X961Y12D02*
X985Y12D01*
X302Y11D02*
X357Y11D01*
X408Y11D02*
X486Y11D01*
X725Y11D02*
X750Y11D01*
X961Y11D02*
X985Y11D01*
X302Y10D02*
X353Y10D01*
X404Y10D02*
X486Y10D01*
X725Y10D02*
X750Y10D01*
X961Y10D02*
X985Y10D01*
X302Y9D02*
X349Y9D01*
X400Y9D02*
X486Y9D01*
X725Y9D02*
X750Y9D01*
X961Y9D02*
X985Y9D01*
X302Y8D02*
X345Y8D01*
X396Y8D02*
X486Y8D01*
X725Y8D02*
X750Y8D01*
X961Y8D02*
X985Y8D01*
X302Y7D02*
X342Y7D01*
X393Y7D02*
X486Y7D01*
X725Y7D02*
X750Y7D01*
X961Y7D02*
X985Y7D01*
X302Y6D02*
X338Y6D01*
X389Y6D02*
X486Y6D01*
X725Y6D02*
X750Y6D01*
X961Y6D02*
X985Y6D01*
X302Y5D02*
X334Y5D01*
X385Y5D02*
X486Y5D01*
X725Y5D02*
X750Y5D01*
X961Y5D02*
X985Y5D01*
X302Y4D02*
X330Y4D01*
X381Y4D02*
X486Y4D01*
X725Y4D02*
X750Y4D01*
X961Y4D02*
X985Y4D01*
X302Y3D02*
X326Y3D01*
X377Y3D02*
X486Y3D01*
X725Y3D02*
X750Y3D01*
X961Y3D02*
X985Y3D01*
X302Y2D02*
X322Y2D01*
X373Y2D02*
X486Y2D01*
X725Y2D02*
X750Y2D01*
X961Y2D02*
X985Y2D01*
X302Y1D02*
X319Y1D01*
X370Y1D02*
X486Y1D01*
X725Y1D02*
X750Y1D01*
X961Y1D02*
X985Y1D01*
X302Y0D02*
X315Y0D01*
X366Y0D02*
X486Y0D01*
X725Y0D02*
X750Y0D01*
X961Y0D02*
X985Y0D01*
D02*
G04 End of Copper1*
M02*