G04 MADE WITH FRITZING*
G04 WWW.FRITZING.ORG*
G04 DOUBLE SIDED*
G04 HOLES PLATED*
G04 CONTOUR ON CENTER OF CONTOUR VECTOR*
%ASAXBY*%
%FSLAX23Y23*%
%MOIN*%
%OFA0B0*%
%SFA1.0B1.0*%
%ADD10C,0.079370*%
%ADD11C,0.078000*%
%ADD12R,0.001000X0.001000*%
%LNCOPPER0*%
G90*
G70*
G54D10*
X94Y244D03*
X222Y1694D03*
X1563Y92D03*
X84Y1521D03*
X1561Y1698D03*
X225Y88D03*
X1684Y247D03*
X1674Y1523D03*
G54D11*
X804Y1075D03*
X904Y1075D03*
G54D12*
X1670Y1536D02*
X1676Y1536D01*
X1668Y1535D02*
X1678Y1535D01*
X1666Y1534D02*
X1680Y1534D01*
X80Y1533D02*
X87Y1533D01*
X1665Y1533D02*
X1681Y1533D01*
X78Y1532D02*
X90Y1532D01*
X1664Y1532D02*
X1682Y1532D01*
X77Y1531D02*
X91Y1531D01*
X1663Y1531D02*
X1683Y1531D01*
X76Y1530D02*
X92Y1530D01*
X1663Y1530D02*
X1683Y1530D01*
X75Y1529D02*
X93Y1529D01*
X1662Y1529D02*
X1684Y1529D01*
X74Y1528D02*
X94Y1528D01*
X1662Y1528D02*
X1684Y1528D01*
X74Y1527D02*
X94Y1527D01*
X1662Y1527D02*
X1684Y1527D01*
X73Y1526D02*
X95Y1526D01*
X1662Y1526D02*
X1684Y1526D01*
X73Y1525D02*
X95Y1525D01*
X1662Y1525D02*
X1684Y1525D01*
X73Y1524D02*
X95Y1524D01*
X1661Y1524D02*
X1684Y1524D01*
X72Y1523D02*
X95Y1523D01*
X1661Y1523D02*
X1684Y1523D01*
X72Y1522D02*
X96Y1522D01*
X1661Y1522D02*
X1684Y1522D01*
X72Y1521D02*
X96Y1521D01*
X1661Y1521D02*
X1684Y1521D01*
X73Y1520D02*
X96Y1520D01*
X1661Y1520D02*
X1684Y1520D01*
X73Y1519D02*
X96Y1519D01*
X1661Y1519D02*
X1684Y1519D01*
X73Y1518D02*
X96Y1518D01*
X1661Y1518D02*
X1684Y1518D01*
X73Y1517D02*
X97Y1517D01*
X1661Y1517D02*
X1684Y1517D01*
X73Y1516D02*
X97Y1516D01*
X1661Y1516D02*
X1684Y1516D01*
X73Y1515D02*
X97Y1515D01*
X1661Y1515D02*
X1684Y1515D01*
X74Y1514D02*
X97Y1514D01*
X1661Y1514D02*
X1684Y1514D01*
X74Y1513D02*
X97Y1513D01*
X1661Y1513D02*
X1684Y1513D01*
X74Y1512D02*
X98Y1512D01*
X1661Y1512D02*
X1684Y1512D01*
X74Y1511D02*
X98Y1511D01*
X1661Y1511D02*
X1684Y1511D01*
X74Y1510D02*
X98Y1510D01*
X1661Y1510D02*
X1684Y1510D01*
X75Y1509D02*
X98Y1509D01*
X1661Y1509D02*
X1684Y1509D01*
X75Y1508D02*
X98Y1508D01*
X1661Y1508D02*
X1684Y1508D01*
X75Y1507D02*
X99Y1507D01*
X1661Y1507D02*
X1684Y1507D01*
X75Y1506D02*
X99Y1506D01*
X1661Y1506D02*
X1684Y1506D01*
X76Y1505D02*
X99Y1505D01*
X1661Y1505D02*
X1684Y1505D01*
X76Y1504D02*
X99Y1504D01*
X1661Y1504D02*
X1684Y1504D01*
X76Y1503D02*
X100Y1503D01*
X1661Y1503D02*
X1684Y1503D01*
X76Y1502D02*
X100Y1502D01*
X1661Y1502D02*
X1684Y1502D01*
X76Y1501D02*
X100Y1501D01*
X1661Y1501D02*
X1684Y1501D01*
X77Y1500D02*
X100Y1500D01*
X1661Y1500D02*
X1684Y1500D01*
X77Y1499D02*
X101Y1499D01*
X1660Y1499D02*
X1684Y1499D01*
X77Y1498D02*
X101Y1498D01*
X1660Y1498D02*
X1683Y1498D01*
X77Y1497D02*
X101Y1497D01*
X1660Y1497D02*
X1683Y1497D01*
X78Y1496D02*
X101Y1496D01*
X1660Y1496D02*
X1683Y1496D01*
X78Y1495D02*
X102Y1495D01*
X1660Y1495D02*
X1683Y1495D01*
X78Y1494D02*
X102Y1494D01*
X1660Y1494D02*
X1683Y1494D01*
X78Y1493D02*
X102Y1493D01*
X1660Y1493D02*
X1683Y1493D01*
X79Y1492D02*
X102Y1492D01*
X1660Y1492D02*
X1683Y1492D01*
X79Y1491D02*
X103Y1491D01*
X1660Y1491D02*
X1683Y1491D01*
X79Y1490D02*
X103Y1490D01*
X1660Y1490D02*
X1683Y1490D01*
X79Y1489D02*
X103Y1489D01*
X1660Y1489D02*
X1683Y1489D01*
X80Y1488D02*
X103Y1488D01*
X1660Y1488D02*
X1683Y1488D01*
X80Y1487D02*
X104Y1487D01*
X1659Y1487D02*
X1683Y1487D01*
X80Y1486D02*
X104Y1486D01*
X1659Y1486D02*
X1682Y1486D01*
X80Y1485D02*
X104Y1485D01*
X1659Y1485D02*
X1682Y1485D01*
X81Y1484D02*
X105Y1484D01*
X1659Y1484D02*
X1682Y1484D01*
X81Y1483D02*
X105Y1483D01*
X1659Y1483D02*
X1682Y1483D01*
X81Y1482D02*
X105Y1482D01*
X1659Y1482D02*
X1682Y1482D01*
X82Y1481D02*
X106Y1481D01*
X1659Y1481D02*
X1682Y1481D01*
X82Y1480D02*
X106Y1480D01*
X1659Y1480D02*
X1682Y1480D01*
X82Y1479D02*
X106Y1479D01*
X1659Y1479D02*
X1682Y1479D01*
X82Y1478D02*
X106Y1478D01*
X1658Y1478D02*
X1682Y1478D01*
X83Y1477D02*
X107Y1477D01*
X1658Y1477D02*
X1681Y1477D01*
X83Y1476D02*
X107Y1476D01*
X1658Y1476D02*
X1681Y1476D01*
X83Y1475D02*
X107Y1475D01*
X1658Y1475D02*
X1681Y1475D01*
X84Y1474D02*
X108Y1474D01*
X1658Y1474D02*
X1681Y1474D01*
X84Y1473D02*
X108Y1473D01*
X1658Y1473D02*
X1681Y1473D01*
X84Y1472D02*
X108Y1472D01*
X1658Y1472D02*
X1681Y1472D01*
X85Y1471D02*
X109Y1471D01*
X1658Y1471D02*
X1681Y1471D01*
X85Y1470D02*
X109Y1470D01*
X1657Y1470D02*
X1681Y1470D01*
X85Y1469D02*
X109Y1469D01*
X1657Y1469D02*
X1680Y1469D01*
X86Y1468D02*
X110Y1468D01*
X1657Y1468D02*
X1680Y1468D01*
X86Y1467D02*
X110Y1467D01*
X1657Y1467D02*
X1680Y1467D01*
X86Y1466D02*
X110Y1466D01*
X1657Y1466D02*
X1680Y1466D01*
X86Y1465D02*
X111Y1465D01*
X1657Y1465D02*
X1680Y1465D01*
X87Y1464D02*
X111Y1464D01*
X1656Y1464D02*
X1680Y1464D01*
X87Y1463D02*
X111Y1463D01*
X1656Y1463D02*
X1679Y1463D01*
X87Y1462D02*
X112Y1462D01*
X1656Y1462D02*
X1679Y1462D01*
X88Y1461D02*
X112Y1461D01*
X1656Y1461D02*
X1679Y1461D01*
X88Y1460D02*
X112Y1460D01*
X1656Y1460D02*
X1679Y1460D01*
X88Y1459D02*
X113Y1459D01*
X1656Y1459D02*
X1679Y1459D01*
X89Y1458D02*
X113Y1458D01*
X1655Y1458D02*
X1679Y1458D01*
X89Y1457D02*
X114Y1457D01*
X1655Y1457D02*
X1678Y1457D01*
X90Y1456D02*
X114Y1456D01*
X1655Y1456D02*
X1678Y1456D01*
X90Y1455D02*
X114Y1455D01*
X1655Y1455D02*
X1678Y1455D01*
X90Y1454D02*
X115Y1454D01*
X1655Y1454D02*
X1678Y1454D01*
X91Y1453D02*
X115Y1453D01*
X1654Y1453D02*
X1678Y1453D01*
X91Y1452D02*
X115Y1452D01*
X1654Y1452D02*
X1678Y1452D01*
X91Y1451D02*
X116Y1451D01*
X1654Y1451D02*
X1677Y1451D01*
X92Y1450D02*
X116Y1450D01*
X1654Y1450D02*
X1677Y1450D01*
X92Y1449D02*
X117Y1449D01*
X1654Y1449D02*
X1677Y1449D01*
X92Y1448D02*
X117Y1448D01*
X1653Y1448D02*
X1677Y1448D01*
X93Y1447D02*
X117Y1447D01*
X1653Y1447D02*
X1677Y1447D01*
X93Y1446D02*
X118Y1446D01*
X1653Y1446D02*
X1676Y1446D01*
X94Y1445D02*
X118Y1445D01*
X1653Y1445D02*
X1676Y1445D01*
X94Y1444D02*
X119Y1444D01*
X1653Y1444D02*
X1676Y1444D01*
X94Y1443D02*
X119Y1443D01*
X1652Y1443D02*
X1676Y1443D01*
X95Y1442D02*
X120Y1442D01*
X1652Y1442D02*
X1676Y1442D01*
X95Y1441D02*
X120Y1441D01*
X1652Y1441D02*
X1675Y1441D01*
X96Y1440D02*
X120Y1440D01*
X1652Y1440D02*
X1675Y1440D01*
X96Y1439D02*
X121Y1439D01*
X1651Y1439D02*
X1675Y1439D01*
X96Y1438D02*
X121Y1438D01*
X1651Y1438D02*
X1675Y1438D01*
X97Y1437D02*
X122Y1437D01*
X1651Y1437D02*
X1674Y1437D01*
X97Y1436D02*
X122Y1436D01*
X1651Y1436D02*
X1674Y1436D01*
X98Y1435D02*
X123Y1435D01*
X1650Y1435D02*
X1674Y1435D01*
X98Y1434D02*
X123Y1434D01*
X1650Y1434D02*
X1674Y1434D01*
X99Y1433D02*
X123Y1433D01*
X1650Y1433D02*
X1673Y1433D01*
X99Y1432D02*
X124Y1432D01*
X1650Y1432D02*
X1673Y1432D01*
X99Y1431D02*
X124Y1431D01*
X1649Y1431D02*
X1673Y1431D01*
X100Y1430D02*
X125Y1430D01*
X1649Y1430D02*
X1673Y1430D01*
X100Y1429D02*
X125Y1429D01*
X1649Y1429D02*
X1673Y1429D01*
X101Y1428D02*
X126Y1428D01*
X1649Y1428D02*
X1672Y1428D01*
X101Y1427D02*
X126Y1427D01*
X1648Y1427D02*
X1672Y1427D01*
X102Y1426D02*
X127Y1426D01*
X1648Y1426D02*
X1672Y1426D01*
X102Y1425D02*
X127Y1425D01*
X1648Y1425D02*
X1671Y1425D01*
X102Y1424D02*
X128Y1424D01*
X1647Y1424D02*
X1671Y1424D01*
X103Y1423D02*
X128Y1423D01*
X1647Y1423D02*
X1671Y1423D01*
X103Y1422D02*
X129Y1422D01*
X1647Y1422D02*
X1671Y1422D01*
X104Y1421D02*
X129Y1421D01*
X1646Y1421D02*
X1670Y1421D01*
X104Y1420D02*
X130Y1420D01*
X1646Y1420D02*
X1670Y1420D01*
X105Y1419D02*
X130Y1419D01*
X1646Y1419D02*
X1670Y1419D01*
X105Y1418D02*
X131Y1418D01*
X1646Y1418D02*
X1670Y1418D01*
X106Y1417D02*
X131Y1417D01*
X1645Y1417D02*
X1669Y1417D01*
X106Y1416D02*
X132Y1416D01*
X1645Y1416D02*
X1669Y1416D01*
X107Y1415D02*
X132Y1415D01*
X1645Y1415D02*
X1669Y1415D01*
X107Y1414D02*
X133Y1414D01*
X1644Y1414D02*
X1668Y1414D01*
X108Y1413D02*
X133Y1413D01*
X1644Y1413D02*
X1668Y1413D01*
X108Y1412D02*
X134Y1412D01*
X1644Y1412D02*
X1668Y1412D01*
X109Y1411D02*
X134Y1411D01*
X1643Y1411D02*
X1667Y1411D01*
X109Y1410D02*
X135Y1410D01*
X1643Y1410D02*
X1667Y1410D01*
X110Y1409D02*
X135Y1409D01*
X1643Y1409D02*
X1667Y1409D01*
X110Y1408D02*
X136Y1408D01*
X1642Y1408D02*
X1666Y1408D01*
X111Y1407D02*
X136Y1407D01*
X1642Y1407D02*
X1666Y1407D01*
X111Y1406D02*
X137Y1406D01*
X1642Y1406D02*
X1666Y1406D01*
X112Y1405D02*
X138Y1405D01*
X1641Y1405D02*
X1666Y1405D01*
X112Y1404D02*
X138Y1404D01*
X1641Y1404D02*
X1665Y1404D01*
X113Y1403D02*
X139Y1403D01*
X1640Y1403D02*
X1665Y1403D01*
X113Y1402D02*
X139Y1402D01*
X1640Y1402D02*
X1665Y1402D01*
X114Y1401D02*
X140Y1401D01*
X1640Y1401D02*
X1664Y1401D01*
X114Y1400D02*
X140Y1400D01*
X1639Y1400D02*
X1664Y1400D01*
X115Y1399D02*
X141Y1399D01*
X1639Y1399D02*
X1663Y1399D01*
X115Y1398D02*
X142Y1398D01*
X1639Y1398D02*
X1663Y1398D01*
X116Y1397D02*
X142Y1397D01*
X1638Y1397D02*
X1663Y1397D01*
X116Y1396D02*
X143Y1396D01*
X1638Y1396D02*
X1662Y1396D01*
X117Y1395D02*
X143Y1395D01*
X1637Y1395D02*
X1662Y1395D01*
X118Y1394D02*
X144Y1394D01*
X1637Y1394D02*
X1662Y1394D01*
X118Y1393D02*
X145Y1393D01*
X1637Y1393D02*
X1661Y1393D01*
X119Y1392D02*
X145Y1392D01*
X1636Y1392D02*
X1661Y1392D01*
X119Y1391D02*
X146Y1391D01*
X1636Y1391D02*
X1661Y1391D01*
X120Y1390D02*
X146Y1390D01*
X1635Y1390D02*
X1660Y1390D01*
X121Y1389D02*
X147Y1389D01*
X1635Y1389D02*
X1660Y1389D01*
X121Y1388D02*
X148Y1388D01*
X1635Y1388D02*
X1659Y1388D01*
X122Y1387D02*
X148Y1387D01*
X1634Y1387D02*
X1659Y1387D01*
X122Y1386D02*
X149Y1386D01*
X1634Y1386D02*
X1659Y1386D01*
X123Y1385D02*
X150Y1385D01*
X1633Y1385D02*
X1658Y1385D01*
X123Y1384D02*
X150Y1384D01*
X1633Y1384D02*
X1658Y1384D01*
X124Y1383D02*
X151Y1383D01*
X1632Y1383D02*
X1657Y1383D01*
X125Y1382D02*
X152Y1382D01*
X1632Y1382D02*
X1657Y1382D01*
X125Y1381D02*
X152Y1381D01*
X1632Y1381D02*
X1657Y1381D01*
X126Y1380D02*
X153Y1380D01*
X1631Y1380D02*
X1656Y1380D01*
X126Y1379D02*
X154Y1379D01*
X1631Y1379D02*
X1656Y1379D01*
X127Y1378D02*
X154Y1378D01*
X1630Y1378D02*
X1655Y1378D01*
X128Y1377D02*
X155Y1377D01*
X1630Y1377D02*
X1655Y1377D01*
X128Y1376D02*
X155Y1376D01*
X1629Y1376D02*
X1655Y1376D01*
X129Y1375D02*
X156Y1375D01*
X1629Y1375D02*
X1654Y1375D01*
X130Y1374D02*
X157Y1374D01*
X1628Y1374D02*
X1654Y1374D01*
X130Y1373D02*
X158Y1373D01*
X1628Y1373D02*
X1653Y1373D01*
X131Y1372D02*
X158Y1372D01*
X1627Y1372D02*
X1653Y1372D01*
X132Y1371D02*
X159Y1371D01*
X1627Y1371D02*
X1652Y1371D01*
X132Y1370D02*
X160Y1370D01*
X1626Y1370D02*
X1652Y1370D01*
X133Y1369D02*
X160Y1369D01*
X1626Y1369D02*
X1651Y1369D01*
X133Y1368D02*
X161Y1368D01*
X1625Y1368D02*
X1651Y1368D01*
X134Y1367D02*
X162Y1367D01*
X1625Y1367D02*
X1650Y1367D01*
X135Y1366D02*
X163Y1366D01*
X1624Y1366D02*
X1650Y1366D01*
X135Y1365D02*
X163Y1365D01*
X1624Y1365D02*
X1650Y1365D01*
X136Y1364D02*
X164Y1364D01*
X1623Y1364D02*
X1649Y1364D01*
X137Y1363D02*
X165Y1363D01*
X1623Y1363D02*
X1649Y1363D01*
X137Y1362D02*
X165Y1362D01*
X1622Y1362D02*
X1648Y1362D01*
X138Y1361D02*
X166Y1361D01*
X1622Y1361D02*
X1648Y1361D01*
X139Y1360D02*
X167Y1360D01*
X1621Y1360D02*
X1647Y1360D01*
X140Y1359D02*
X168Y1359D01*
X1621Y1359D02*
X1647Y1359D01*
X140Y1358D02*
X169Y1358D01*
X1620Y1358D02*
X1646Y1358D01*
X141Y1357D02*
X169Y1357D01*
X1619Y1357D02*
X1646Y1357D01*
X142Y1356D02*
X170Y1356D01*
X1619Y1356D02*
X1645Y1356D01*
X142Y1355D02*
X171Y1355D01*
X1618Y1355D02*
X1645Y1355D01*
X143Y1354D02*
X172Y1354D01*
X1618Y1354D02*
X1644Y1354D01*
X144Y1353D02*
X172Y1353D01*
X1617Y1353D02*
X1644Y1353D01*
X144Y1352D02*
X173Y1352D01*
X1617Y1352D02*
X1643Y1352D01*
X145Y1351D02*
X174Y1351D01*
X1616Y1351D02*
X1643Y1351D01*
X146Y1350D02*
X175Y1350D01*
X1615Y1350D02*
X1642Y1350D01*
X147Y1349D02*
X176Y1349D01*
X1615Y1349D02*
X1641Y1349D01*
X147Y1348D02*
X176Y1348D01*
X1614Y1348D02*
X1641Y1348D01*
X148Y1347D02*
X177Y1347D01*
X1614Y1347D02*
X1640Y1347D01*
X149Y1346D02*
X178Y1346D01*
X1613Y1346D02*
X1640Y1346D01*
X150Y1345D02*
X179Y1345D01*
X1613Y1345D02*
X1639Y1345D01*
X150Y1344D02*
X180Y1344D01*
X1612Y1344D02*
X1639Y1344D01*
X151Y1343D02*
X181Y1343D01*
X1611Y1343D02*
X1638Y1343D01*
X152Y1342D02*
X181Y1342D01*
X1611Y1342D02*
X1637Y1342D01*
X153Y1341D02*
X182Y1341D01*
X1610Y1341D02*
X1637Y1341D01*
X154Y1340D02*
X183Y1340D01*
X1609Y1340D02*
X1636Y1340D01*
X154Y1339D02*
X184Y1339D01*
X1609Y1339D02*
X1636Y1339D01*
X155Y1338D02*
X185Y1338D01*
X1608Y1338D02*
X1635Y1338D01*
X156Y1337D02*
X186Y1337D01*
X1607Y1337D02*
X1635Y1337D01*
X157Y1336D02*
X187Y1336D01*
X1607Y1336D02*
X1634Y1336D01*
X157Y1335D02*
X187Y1335D01*
X1606Y1335D02*
X1633Y1335D01*
X158Y1334D02*
X188Y1334D01*
X1605Y1334D02*
X1633Y1334D01*
X159Y1333D02*
X189Y1333D01*
X1605Y1333D02*
X1632Y1333D01*
X160Y1332D02*
X190Y1332D01*
X1604Y1332D02*
X1632Y1332D01*
X161Y1331D02*
X191Y1331D01*
X1603Y1331D02*
X1631Y1331D01*
X162Y1330D02*
X192Y1330D01*
X1603Y1330D02*
X1630Y1330D01*
X162Y1329D02*
X193Y1329D01*
X1602Y1329D02*
X1630Y1329D01*
X163Y1328D02*
X194Y1328D01*
X1601Y1328D02*
X1629Y1328D01*
X164Y1327D02*
X195Y1327D01*
X1601Y1327D02*
X1628Y1327D01*
X165Y1326D02*
X196Y1326D01*
X1600Y1326D02*
X1628Y1326D01*
X166Y1325D02*
X197Y1325D01*
X1599Y1325D02*
X1627Y1325D01*
X167Y1324D02*
X197Y1324D01*
X1599Y1324D02*
X1626Y1324D01*
X167Y1323D02*
X198Y1323D01*
X1598Y1323D02*
X1626Y1323D01*
X168Y1322D02*
X199Y1322D01*
X1597Y1322D02*
X1625Y1322D01*
X169Y1321D02*
X200Y1321D01*
X1596Y1321D02*
X1624Y1321D01*
X170Y1320D02*
X201Y1320D01*
X1596Y1320D02*
X1624Y1320D01*
X171Y1319D02*
X202Y1319D01*
X1595Y1319D02*
X1623Y1319D01*
X172Y1318D02*
X203Y1318D01*
X1594Y1318D02*
X1623Y1318D01*
X173Y1317D02*
X204Y1317D01*
X1593Y1317D02*
X1622Y1317D01*
X174Y1316D02*
X205Y1316D01*
X1593Y1316D02*
X1621Y1316D01*
X174Y1315D02*
X206Y1315D01*
X1592Y1315D02*
X1621Y1315D01*
X175Y1314D02*
X207Y1314D01*
X1591Y1314D02*
X1620Y1314D01*
X176Y1313D02*
X208Y1313D01*
X1590Y1313D02*
X1619Y1313D01*
X177Y1312D02*
X209Y1312D01*
X1590Y1312D02*
X1618Y1312D01*
X178Y1311D02*
X210Y1311D01*
X1589Y1311D02*
X1618Y1311D01*
X179Y1310D02*
X211Y1310D01*
X1588Y1310D02*
X1617Y1310D01*
X180Y1309D02*
X212Y1309D01*
X1587Y1309D02*
X1616Y1309D01*
X181Y1308D02*
X213Y1308D01*
X1586Y1308D02*
X1615Y1308D01*
X182Y1307D02*
X214Y1307D01*
X1585Y1307D02*
X1615Y1307D01*
X183Y1306D02*
X215Y1306D01*
X1585Y1306D02*
X1614Y1306D01*
X184Y1305D02*
X217Y1305D01*
X1584Y1305D02*
X1613Y1305D01*
X185Y1304D02*
X218Y1304D01*
X1583Y1304D02*
X1612Y1304D01*
X186Y1303D02*
X219Y1303D01*
X1582Y1303D02*
X1612Y1303D01*
X187Y1302D02*
X220Y1302D01*
X1581Y1302D02*
X1611Y1302D01*
X188Y1301D02*
X221Y1301D01*
X1581Y1301D02*
X1610Y1301D01*
X188Y1300D02*
X222Y1300D01*
X1580Y1300D02*
X1610Y1300D01*
X189Y1299D02*
X223Y1299D01*
X1579Y1299D02*
X1609Y1299D01*
X190Y1298D02*
X224Y1298D01*
X1578Y1298D02*
X1608Y1298D01*
X191Y1297D02*
X225Y1297D01*
X1577Y1297D02*
X1607Y1297D01*
X192Y1296D02*
X226Y1296D01*
X1576Y1296D02*
X1606Y1296D01*
X193Y1295D02*
X227Y1295D01*
X1575Y1295D02*
X1605Y1295D01*
X194Y1294D02*
X229Y1294D01*
X1574Y1294D02*
X1605Y1294D01*
X195Y1293D02*
X230Y1293D01*
X1573Y1293D02*
X1604Y1293D01*
X196Y1292D02*
X231Y1292D01*
X1572Y1292D02*
X1603Y1292D01*
X197Y1291D02*
X232Y1291D01*
X1572Y1291D02*
X1602Y1291D01*
X199Y1290D02*
X233Y1290D01*
X1571Y1290D02*
X1601Y1290D01*
X200Y1289D02*
X234Y1289D01*
X1570Y1289D02*
X1601Y1289D01*
X201Y1288D02*
X235Y1288D01*
X1569Y1288D02*
X1600Y1288D01*
X202Y1287D02*
X236Y1287D01*
X1568Y1287D02*
X1599Y1287D01*
X203Y1286D02*
X238Y1286D01*
X1567Y1286D02*
X1598Y1286D01*
X204Y1285D02*
X239Y1285D01*
X1566Y1285D02*
X1597Y1285D01*
X205Y1284D02*
X240Y1284D01*
X1565Y1284D02*
X1596Y1284D01*
X206Y1283D02*
X241Y1283D01*
X1564Y1283D02*
X1595Y1283D01*
X207Y1282D02*
X243Y1282D01*
X1563Y1282D02*
X1595Y1282D01*
X208Y1281D02*
X244Y1281D01*
X1562Y1281D02*
X1594Y1281D01*
X209Y1280D02*
X245Y1280D01*
X1561Y1280D02*
X1593Y1280D01*
X210Y1279D02*
X246Y1279D01*
X1560Y1279D02*
X1592Y1279D01*
X211Y1278D02*
X247Y1278D01*
X1559Y1278D02*
X1591Y1278D01*
X213Y1277D02*
X249Y1277D01*
X1558Y1277D02*
X1590Y1277D01*
X214Y1276D02*
X250Y1276D01*
X1557Y1276D02*
X1589Y1276D01*
X215Y1275D02*
X251Y1275D01*
X1556Y1275D02*
X1588Y1275D01*
X216Y1274D02*
X252Y1274D01*
X1555Y1274D02*
X1587Y1274D01*
X217Y1273D02*
X254Y1273D01*
X1554Y1273D02*
X1587Y1273D01*
X218Y1272D02*
X255Y1272D01*
X1553Y1272D02*
X1586Y1272D01*
X219Y1271D02*
X256Y1271D01*
X1552Y1271D02*
X1585Y1271D01*
X220Y1270D02*
X258Y1270D01*
X1551Y1270D02*
X1584Y1270D01*
X222Y1269D02*
X259Y1269D01*
X1549Y1269D02*
X1583Y1269D01*
X223Y1268D02*
X260Y1268D01*
X1548Y1268D02*
X1582Y1268D01*
X224Y1267D02*
X261Y1267D01*
X1547Y1267D02*
X1581Y1267D01*
X225Y1266D02*
X263Y1266D01*
X1546Y1266D02*
X1580Y1266D01*
X226Y1265D02*
X264Y1265D01*
X1545Y1265D02*
X1579Y1265D01*
X228Y1264D02*
X265Y1264D01*
X1544Y1264D02*
X1578Y1264D01*
X229Y1263D02*
X267Y1263D01*
X1543Y1263D02*
X1577Y1263D01*
X230Y1262D02*
X268Y1262D01*
X1542Y1262D02*
X1576Y1262D01*
X231Y1261D02*
X269Y1261D01*
X1541Y1261D02*
X1575Y1261D01*
X232Y1260D02*
X271Y1260D01*
X1539Y1260D02*
X1574Y1260D01*
X234Y1259D02*
X272Y1259D01*
X1538Y1259D02*
X1573Y1259D01*
X235Y1258D02*
X274Y1258D01*
X1537Y1258D02*
X1572Y1258D01*
X236Y1257D02*
X275Y1257D01*
X1536Y1257D02*
X1571Y1257D01*
X237Y1256D02*
X276Y1256D01*
X1535Y1256D02*
X1570Y1256D01*
X239Y1255D02*
X278Y1255D01*
X1534Y1255D02*
X1569Y1255D01*
X240Y1254D02*
X279Y1254D01*
X1532Y1254D02*
X1568Y1254D01*
X241Y1253D02*
X281Y1253D01*
X1531Y1253D02*
X1566Y1253D01*
X243Y1252D02*
X282Y1252D01*
X1530Y1252D02*
X1565Y1252D01*
X244Y1251D02*
X284Y1251D01*
X1529Y1251D02*
X1564Y1251D01*
X245Y1250D02*
X285Y1250D01*
X1527Y1250D02*
X1563Y1250D01*
X246Y1249D02*
X286Y1249D01*
X1526Y1249D02*
X1562Y1249D01*
X248Y1248D02*
X288Y1248D01*
X1525Y1248D02*
X1561Y1248D01*
X249Y1247D02*
X289Y1247D01*
X1524Y1247D02*
X1560Y1247D01*
X250Y1246D02*
X291Y1246D01*
X1522Y1246D02*
X1559Y1246D01*
X252Y1245D02*
X292Y1245D01*
X1521Y1245D02*
X1558Y1245D01*
X253Y1244D02*
X294Y1244D01*
X1520Y1244D02*
X1557Y1244D01*
X255Y1243D02*
X295Y1243D01*
X1519Y1243D02*
X1555Y1243D01*
X256Y1242D02*
X297Y1242D01*
X1517Y1242D02*
X1554Y1242D01*
X257Y1241D02*
X299Y1241D01*
X1516Y1241D02*
X1553Y1241D01*
X259Y1240D02*
X300Y1240D01*
X1515Y1240D02*
X1552Y1240D01*
X260Y1239D02*
X302Y1239D01*
X1513Y1239D02*
X1551Y1239D01*
X261Y1238D02*
X303Y1238D01*
X1512Y1238D02*
X1550Y1238D01*
X263Y1237D02*
X305Y1237D01*
X1510Y1237D02*
X1548Y1237D01*
X264Y1236D02*
X306Y1236D01*
X1509Y1236D02*
X1547Y1236D01*
X266Y1235D02*
X308Y1235D01*
X1508Y1235D02*
X1546Y1235D01*
X267Y1234D02*
X310Y1234D01*
X1506Y1234D02*
X1545Y1234D01*
X269Y1233D02*
X311Y1233D01*
X1505Y1233D02*
X1544Y1233D01*
X270Y1232D02*
X313Y1232D01*
X1504Y1232D02*
X1542Y1232D01*
X271Y1231D02*
X315Y1231D01*
X1502Y1231D02*
X1541Y1231D01*
X273Y1230D02*
X316Y1230D01*
X1501Y1230D02*
X1540Y1230D01*
X274Y1229D02*
X318Y1229D01*
X1499Y1229D02*
X1539Y1229D01*
X276Y1228D02*
X319Y1228D01*
X1498Y1228D02*
X1537Y1228D01*
X277Y1227D02*
X321Y1227D01*
X1496Y1227D02*
X1536Y1227D01*
X279Y1226D02*
X323Y1226D01*
X1495Y1226D02*
X1535Y1226D01*
X280Y1225D02*
X325Y1225D01*
X1493Y1225D02*
X1533Y1225D01*
X282Y1224D02*
X326Y1224D01*
X1492Y1224D02*
X1532Y1224D01*
X283Y1223D02*
X328Y1223D01*
X1490Y1223D02*
X1531Y1223D01*
X285Y1222D02*
X330Y1222D01*
X1489Y1222D02*
X1530Y1222D01*
X286Y1221D02*
X332Y1221D01*
X1487Y1221D02*
X1528Y1221D01*
X288Y1220D02*
X333Y1220D01*
X1486Y1220D02*
X1527Y1220D01*
X290Y1219D02*
X335Y1219D01*
X1484Y1219D02*
X1525Y1219D01*
X291Y1218D02*
X337Y1218D01*
X1482Y1218D02*
X1524Y1218D01*
X293Y1217D02*
X339Y1217D01*
X1481Y1217D02*
X1523Y1217D01*
X294Y1216D02*
X340Y1216D01*
X1479Y1216D02*
X1521Y1216D01*
X296Y1215D02*
X342Y1215D01*
X1478Y1215D02*
X1520Y1215D01*
X297Y1214D02*
X344Y1214D01*
X1476Y1214D02*
X1518Y1214D01*
X299Y1213D02*
X346Y1213D01*
X1474Y1213D02*
X1517Y1213D01*
X301Y1212D02*
X348Y1212D01*
X1473Y1212D02*
X1516Y1212D01*
X302Y1211D02*
X350Y1211D01*
X1471Y1211D02*
X1514Y1211D01*
X304Y1210D02*
X352Y1210D01*
X1469Y1210D02*
X1513Y1210D01*
X306Y1209D02*
X353Y1209D01*
X1468Y1209D02*
X1511Y1209D01*
X307Y1208D02*
X355Y1208D01*
X1466Y1208D02*
X1510Y1208D01*
X309Y1207D02*
X357Y1207D01*
X1464Y1207D02*
X1508Y1207D01*
X311Y1206D02*
X359Y1206D01*
X1462Y1206D02*
X1507Y1206D01*
X312Y1205D02*
X361Y1205D01*
X1461Y1205D02*
X1505Y1205D01*
X314Y1204D02*
X363Y1204D01*
X1459Y1204D02*
X1504Y1204D01*
X316Y1203D02*
X365Y1203D01*
X1457Y1203D02*
X1502Y1203D01*
X318Y1202D02*
X367Y1202D01*
X1456Y1202D02*
X1501Y1202D01*
X319Y1201D02*
X369Y1201D01*
X1454Y1201D02*
X1499Y1201D01*
X321Y1200D02*
X371Y1200D01*
X1452Y1200D02*
X1498Y1200D01*
X323Y1199D02*
X373Y1199D01*
X1450Y1199D02*
X1496Y1199D01*
X325Y1198D02*
X375Y1198D01*
X1448Y1198D02*
X1495Y1198D01*
X326Y1197D02*
X377Y1197D01*
X1446Y1197D02*
X1493Y1197D01*
X328Y1196D02*
X379Y1196D01*
X1444Y1196D02*
X1491Y1196D01*
X330Y1195D02*
X381Y1195D01*
X1442Y1195D02*
X1490Y1195D01*
X332Y1194D02*
X384Y1194D01*
X1441Y1194D02*
X1488Y1194D01*
X334Y1193D02*
X386Y1193D01*
X1439Y1193D02*
X1486Y1193D01*
X336Y1192D02*
X388Y1192D01*
X1437Y1192D02*
X1485Y1192D01*
X337Y1191D02*
X390Y1191D01*
X1435Y1191D02*
X1483Y1191D01*
X339Y1190D02*
X392Y1190D01*
X1433Y1190D02*
X1482Y1190D01*
X341Y1189D02*
X394Y1189D01*
X1431Y1189D02*
X1480Y1189D01*
X343Y1188D02*
X396Y1188D01*
X1429Y1188D02*
X1478Y1188D01*
X345Y1187D02*
X399Y1187D01*
X1427Y1187D02*
X1476Y1187D01*
X347Y1186D02*
X401Y1186D01*
X1425Y1186D02*
X1475Y1186D01*
X349Y1185D02*
X403Y1185D01*
X1423Y1185D02*
X1473Y1185D01*
X351Y1184D02*
X405Y1184D01*
X1420Y1184D02*
X1471Y1184D01*
X353Y1183D02*
X408Y1183D01*
X1418Y1183D02*
X1469Y1183D01*
X355Y1182D02*
X410Y1182D01*
X1416Y1182D02*
X1468Y1182D01*
X357Y1181D02*
X412Y1181D01*
X1414Y1181D02*
X1466Y1181D01*
X359Y1180D02*
X415Y1180D01*
X1412Y1180D02*
X1464Y1180D01*
X361Y1179D02*
X417Y1179D01*
X1410Y1179D02*
X1462Y1179D01*
X363Y1178D02*
X419Y1178D01*
X1407Y1178D02*
X1460Y1178D01*
X365Y1177D02*
X422Y1177D01*
X1405Y1177D02*
X1458Y1177D01*
X367Y1176D02*
X424Y1176D01*
X1403Y1176D02*
X1456Y1176D01*
X369Y1175D02*
X427Y1175D01*
X1401Y1175D02*
X1455Y1175D01*
X371Y1174D02*
X429Y1174D01*
X1398Y1174D02*
X1453Y1174D01*
X373Y1173D02*
X432Y1173D01*
X1396Y1173D02*
X1451Y1173D01*
X375Y1172D02*
X434Y1172D01*
X1394Y1172D02*
X1449Y1172D01*
X377Y1171D02*
X437Y1171D01*
X1391Y1171D02*
X1447Y1171D01*
X379Y1170D02*
X439Y1170D01*
X1389Y1170D02*
X1445Y1170D01*
X381Y1169D02*
X442Y1169D01*
X1386Y1169D02*
X1443Y1169D01*
X384Y1168D02*
X444Y1168D01*
X1384Y1168D02*
X1441Y1168D01*
X386Y1167D02*
X447Y1167D01*
X1381Y1167D02*
X1439Y1167D01*
X388Y1166D02*
X449Y1166D01*
X1379Y1166D02*
X1437Y1166D01*
X390Y1165D02*
X452Y1165D01*
X1376Y1165D02*
X1435Y1165D01*
X392Y1164D02*
X455Y1164D01*
X1374Y1164D02*
X1433Y1164D01*
X395Y1163D02*
X457Y1163D01*
X1371Y1163D02*
X1431Y1163D01*
X397Y1162D02*
X460Y1162D01*
X1369Y1162D02*
X1429Y1162D01*
X399Y1161D02*
X463Y1161D01*
X1366Y1161D02*
X1426Y1161D01*
X402Y1160D02*
X465Y1160D01*
X1363Y1160D02*
X1424Y1160D01*
X404Y1159D02*
X468Y1159D01*
X1361Y1159D02*
X1422Y1159D01*
X406Y1158D02*
X471Y1158D01*
X1358Y1158D02*
X1420Y1158D01*
X409Y1157D02*
X474Y1157D01*
X1356Y1157D02*
X1418Y1157D01*
X411Y1156D02*
X477Y1156D01*
X1353Y1156D02*
X1416Y1156D01*
X413Y1155D02*
X480Y1155D01*
X1350Y1155D02*
X1413Y1155D01*
X416Y1154D02*
X482Y1154D01*
X1347Y1154D02*
X1411Y1154D01*
X418Y1153D02*
X485Y1153D01*
X1344Y1153D02*
X1409Y1153D01*
X420Y1152D02*
X488Y1152D01*
X1341Y1152D02*
X1406Y1152D01*
X423Y1151D02*
X491Y1151D01*
X1338Y1151D02*
X1404Y1151D01*
X425Y1150D02*
X494Y1150D01*
X1335Y1150D02*
X1402Y1150D01*
X428Y1149D02*
X497Y1149D01*
X1332Y1149D02*
X1400Y1149D01*
X430Y1148D02*
X500Y1148D01*
X1329Y1148D02*
X1397Y1148D01*
X433Y1147D02*
X503Y1147D01*
X1326Y1147D02*
X1395Y1147D01*
X435Y1146D02*
X506Y1146D01*
X1323Y1146D02*
X1392Y1146D01*
X438Y1145D02*
X510Y1145D01*
X1320Y1145D02*
X1390Y1145D01*
X441Y1144D02*
X513Y1144D01*
X1317Y1144D02*
X1387Y1144D01*
X443Y1143D02*
X516Y1143D01*
X1314Y1143D02*
X1385Y1143D01*
X446Y1142D02*
X520Y1142D01*
X1310Y1142D02*
X1382Y1142D01*
X449Y1141D02*
X523Y1141D01*
X1307Y1141D02*
X1380Y1141D01*
X451Y1140D02*
X526Y1140D01*
X1304Y1140D02*
X1377Y1140D01*
X454Y1139D02*
X529Y1139D01*
X1300Y1139D02*
X1375Y1139D01*
X457Y1138D02*
X533Y1138D01*
X1297Y1138D02*
X1372Y1138D01*
X459Y1137D02*
X536Y1137D01*
X1293Y1137D02*
X1369Y1137D01*
X462Y1136D02*
X539Y1136D01*
X1290Y1136D02*
X1367Y1136D01*
X465Y1135D02*
X543Y1135D01*
X1286Y1135D02*
X1364Y1135D01*
X468Y1134D02*
X547Y1134D01*
X1283Y1134D02*
X1361Y1134D01*
X471Y1133D02*
X550Y1133D01*
X1279Y1133D02*
X1358Y1133D01*
X474Y1132D02*
X554Y1132D01*
X1275Y1132D02*
X1356Y1132D01*
X476Y1131D02*
X558Y1131D01*
X1272Y1131D02*
X1353Y1131D01*
X479Y1130D02*
X561Y1130D01*
X1268Y1130D02*
X1350Y1130D01*
X482Y1129D02*
X565Y1129D01*
X1264Y1129D02*
X1347Y1129D01*
X485Y1128D02*
X569Y1128D01*
X1260Y1128D02*
X1344Y1128D01*
X488Y1127D02*
X573Y1127D01*
X1256Y1127D02*
X1341Y1127D01*
X491Y1126D02*
X577Y1126D01*
X1252Y1126D02*
X1338Y1126D01*
X494Y1125D02*
X581Y1125D01*
X1248Y1125D02*
X1335Y1125D01*
X497Y1124D02*
X585Y1124D01*
X1243Y1124D02*
X1332Y1124D01*
X501Y1123D02*
X589Y1123D01*
X1239Y1123D02*
X1329Y1123D01*
X504Y1122D02*
X593Y1122D01*
X1235Y1122D02*
X1326Y1122D01*
X507Y1121D02*
X597Y1121D01*
X1230Y1121D02*
X1323Y1121D01*
X510Y1120D02*
X601Y1120D01*
X1226Y1120D02*
X1319Y1120D01*
X514Y1119D02*
X605Y1119D01*
X1221Y1119D02*
X1316Y1119D01*
X517Y1118D02*
X610Y1118D01*
X1216Y1118D02*
X1313Y1118D01*
X520Y1117D02*
X614Y1117D01*
X1212Y1117D02*
X1310Y1117D01*
X524Y1116D02*
X619Y1116D01*
X1207Y1116D02*
X1306Y1116D01*
X527Y1115D02*
X623Y1115D01*
X1202Y1115D02*
X1303Y1115D01*
X530Y1114D02*
X628Y1114D01*
X1197Y1114D02*
X1299Y1114D01*
X534Y1113D02*
X632Y1113D01*
X1191Y1113D02*
X1296Y1113D01*
X537Y1112D02*
X637Y1112D01*
X1186Y1112D02*
X1292Y1112D01*
X541Y1111D02*
X642Y1111D01*
X1180Y1111D02*
X1289Y1111D01*
X545Y1110D02*
X647Y1110D01*
X1175Y1110D02*
X1285Y1110D01*
X548Y1109D02*
X652Y1109D01*
X1169Y1109D02*
X1281Y1109D01*
X552Y1108D02*
X657Y1108D01*
X1163Y1108D02*
X1277Y1108D01*
X555Y1107D02*
X663Y1107D01*
X1157Y1107D02*
X1274Y1107D01*
X559Y1106D02*
X668Y1106D01*
X1151Y1106D02*
X1270Y1106D01*
X563Y1105D02*
X674Y1105D01*
X1144Y1105D02*
X1266Y1105D01*
X567Y1104D02*
X679Y1104D01*
X1137Y1104D02*
X1262Y1104D01*
X571Y1103D02*
X685Y1103D01*
X1130Y1103D02*
X1258Y1103D01*
X575Y1102D02*
X691Y1102D01*
X1123Y1102D02*
X1254Y1102D01*
X579Y1101D02*
X697Y1101D01*
X1116Y1101D02*
X1249Y1101D01*
X583Y1100D02*
X703Y1100D01*
X1108Y1100D02*
X1245Y1100D01*
X587Y1099D02*
X710Y1099D01*
X1100Y1099D02*
X1241Y1099D01*
X591Y1098D02*
X716Y1098D01*
X1091Y1098D02*
X1236Y1098D01*
X595Y1097D02*
X723Y1097D01*
X1083Y1097D02*
X1232Y1097D01*
X599Y1096D02*
X730Y1096D01*
X1073Y1096D02*
X1227Y1096D01*
X604Y1095D02*
X738Y1095D01*
X1063Y1095D02*
X1223Y1095D01*
X608Y1094D02*
X745Y1094D01*
X1052Y1094D02*
X1218Y1094D01*
X613Y1093D02*
X754Y1093D01*
X1040Y1093D02*
X1213Y1093D01*
X617Y1092D02*
X762Y1092D01*
X1027Y1092D02*
X1208Y1092D01*
X621Y1091D02*
X771Y1091D01*
X1012Y1091D02*
X1203Y1091D01*
X626Y1090D02*
X782Y1090D01*
X996Y1090D02*
X1198Y1090D01*
X631Y1089D02*
X793Y1089D01*
X974Y1089D02*
X1192Y1089D01*
X636Y1088D02*
X805Y1088D01*
X902Y1088D02*
X1187Y1088D01*
X641Y1087D02*
X808Y1087D01*
X899Y1087D02*
X1182Y1087D01*
X646Y1086D02*
X810Y1086D01*
X897Y1086D02*
X1176Y1086D01*
X651Y1085D02*
X811Y1085D01*
X896Y1085D02*
X1170Y1085D01*
X656Y1084D02*
X812Y1084D01*
X895Y1084D02*
X1164Y1084D01*
X662Y1083D02*
X813Y1083D01*
X894Y1083D02*
X1158Y1083D01*
X667Y1082D02*
X813Y1082D01*
X893Y1082D02*
X1151Y1082D01*
X672Y1081D02*
X814Y1081D01*
X893Y1081D02*
X1145Y1081D01*
X678Y1080D02*
X814Y1080D01*
X893Y1080D02*
X1138Y1080D01*
X684Y1079D02*
X815Y1079D01*
X892Y1079D02*
X1131Y1079D01*
X690Y1078D02*
X815Y1078D01*
X892Y1078D02*
X1123Y1078D01*
X696Y1077D02*
X815Y1077D01*
X892Y1077D02*
X1116Y1077D01*
X702Y1076D02*
X815Y1076D01*
X892Y1076D02*
X1108Y1076D01*
X709Y1075D02*
X815Y1075D01*
X892Y1075D02*
X1100Y1075D01*
X716Y1074D02*
X815Y1074D01*
X892Y1074D02*
X1091Y1074D01*
X722Y1073D02*
X814Y1073D01*
X892Y1073D02*
X1083Y1073D01*
X730Y1072D02*
X814Y1072D01*
X893Y1072D02*
X1073Y1072D01*
X737Y1071D02*
X814Y1071D01*
X893Y1071D02*
X1063Y1071D01*
X745Y1070D02*
X813Y1070D01*
X894Y1070D02*
X1052Y1070D01*
X753Y1069D02*
X812Y1069D01*
X894Y1069D02*
X1040Y1069D01*
X762Y1068D02*
X812Y1068D01*
X895Y1068D02*
X1027Y1068D01*
X771Y1067D02*
X810Y1067D01*
X896Y1067D02*
X1012Y1067D01*
X782Y1066D02*
X809Y1066D01*
X898Y1066D02*
X995Y1066D01*
X793Y1065D02*
X807Y1065D01*
X900Y1065D02*
X974Y1065D01*
D02*
G04 End of Copper0*
M02*