G04 MADE WITH FRITZING*
G04 WWW.FRITZING.ORG*
G04 DOUBLE SIDED*
G04 HOLES PLATED*
G04 CONTOUR ON CENTER OF CONTOUR VECTOR*
%ASAXBY*%
%FSLAX23Y23*%
%MOIN*%
%OFA0B0*%
%SFA1.0B1.0*%
%ADD10C,0.079370*%
%ADD11R,0.001000X0.001000*%
%LNCOPPER1*%
G90*
G70*
G54D10*
X2186Y3562D03*
X2559Y87D03*
X1971Y3679D03*
X419Y3563D03*
X633Y3674D03*
X67Y88D03*
G36*
X1620Y2303D02*
X1643Y2305D01*
X1646Y2328D01*
X1623Y2328D01*
X1620Y2303D01*
G37*
D02*
G36*
X2005Y2807D02*
X2038Y2808D01*
X2072Y2808D01*
X2070Y2841D01*
X2038Y2840D01*
X2036Y2874D01*
X2004Y2872D01*
X2004Y2840D01*
X2005Y2807D01*
G37*
D02*
G54D11*
X369Y3772D02*
X1334Y3772D01*
X1361Y3772D02*
X2256Y3772D01*
X369Y3771D02*
X1334Y3771D01*
X1361Y3771D02*
X2256Y3771D01*
X369Y3770D02*
X1334Y3770D01*
X1361Y3770D02*
X2256Y3770D01*
X369Y3769D02*
X1334Y3769D01*
X1361Y3769D02*
X2257Y3769D01*
X369Y3768D02*
X1334Y3768D01*
X1361Y3768D02*
X2257Y3768D01*
X369Y3767D02*
X1334Y3767D01*
X1361Y3767D02*
X2257Y3767D01*
X369Y3766D02*
X1334Y3766D01*
X1361Y3766D02*
X2257Y3766D01*
X369Y3765D02*
X1334Y3765D01*
X1361Y3765D02*
X2257Y3765D01*
X368Y3764D02*
X1334Y3764D01*
X1361Y3764D02*
X2257Y3764D01*
X368Y3763D02*
X1334Y3763D01*
X1361Y3763D02*
X2257Y3763D01*
X368Y3762D02*
X1334Y3762D01*
X1361Y3762D02*
X2257Y3762D01*
X368Y3761D02*
X1334Y3761D01*
X1361Y3761D02*
X2257Y3761D01*
X368Y3760D02*
X1334Y3760D01*
X1361Y3760D02*
X2257Y3760D01*
X368Y3759D02*
X1334Y3759D01*
X1361Y3759D02*
X2258Y3759D01*
X368Y3758D02*
X1334Y3758D01*
X1361Y3758D02*
X2258Y3758D01*
X368Y3757D02*
X1334Y3757D01*
X1361Y3757D02*
X2258Y3757D01*
X368Y3756D02*
X1334Y3756D01*
X1361Y3756D02*
X2258Y3756D01*
X368Y3755D02*
X1334Y3755D01*
X1361Y3755D02*
X2258Y3755D01*
X367Y3754D02*
X1334Y3754D01*
X1361Y3754D02*
X2258Y3754D01*
X367Y3753D02*
X1334Y3753D01*
X1361Y3753D02*
X2258Y3753D01*
X367Y3752D02*
X1334Y3752D01*
X1361Y3752D02*
X2258Y3752D01*
X367Y3751D02*
X1334Y3751D01*
X1361Y3751D02*
X2258Y3751D01*
X367Y3750D02*
X1334Y3750D01*
X1361Y3750D02*
X2258Y3750D01*
X367Y3749D02*
X1334Y3749D01*
X1361Y3749D02*
X2259Y3749D01*
X367Y3748D02*
X1334Y3748D01*
X1361Y3748D02*
X2259Y3748D01*
X367Y3747D02*
X1334Y3747D01*
X1361Y3747D02*
X2259Y3747D01*
X367Y3746D02*
X1334Y3746D01*
X1361Y3746D02*
X2259Y3746D01*
X367Y3745D02*
X1334Y3745D01*
X1361Y3745D02*
X2259Y3745D01*
X366Y3744D02*
X1334Y3744D01*
X1361Y3744D02*
X2259Y3744D01*
X366Y3743D02*
X1334Y3743D01*
X1361Y3743D02*
X2259Y3743D01*
X366Y3742D02*
X1334Y3742D01*
X1361Y3742D02*
X2259Y3742D01*
X366Y3741D02*
X1334Y3741D01*
X1361Y3741D02*
X2259Y3741D01*
X366Y3740D02*
X1334Y3740D01*
X1361Y3740D02*
X2259Y3740D01*
X366Y3739D02*
X1334Y3739D01*
X1361Y3739D02*
X2260Y3739D01*
X366Y3738D02*
X1334Y3738D01*
X1361Y3738D02*
X2260Y3738D01*
X366Y3737D02*
X1334Y3737D01*
X1361Y3737D02*
X2260Y3737D01*
X366Y3736D02*
X1334Y3736D01*
X1361Y3736D02*
X2260Y3736D01*
X366Y3735D02*
X1334Y3735D01*
X1361Y3735D02*
X2260Y3735D01*
X365Y3734D02*
X1334Y3734D01*
X1361Y3734D02*
X2260Y3734D01*
X365Y3733D02*
X1334Y3733D01*
X1361Y3733D02*
X2260Y3733D01*
X365Y3732D02*
X1334Y3732D01*
X1361Y3732D02*
X2260Y3732D01*
X365Y3731D02*
X1334Y3731D01*
X1361Y3731D02*
X2260Y3731D01*
X365Y3730D02*
X1334Y3730D01*
X1361Y3730D02*
X2260Y3730D01*
X365Y3729D02*
X1334Y3729D01*
X1361Y3729D02*
X2261Y3729D01*
X365Y3728D02*
X1334Y3728D01*
X1361Y3728D02*
X2261Y3728D01*
X365Y3727D02*
X1334Y3727D01*
X1361Y3727D02*
X2261Y3727D01*
X365Y3726D02*
X1334Y3726D01*
X1361Y3726D02*
X2261Y3726D01*
X365Y3725D02*
X1334Y3725D01*
X1361Y3725D02*
X2261Y3725D01*
X365Y3724D02*
X1334Y3724D01*
X1361Y3724D02*
X1436Y3724D01*
X1449Y3724D02*
X2261Y3724D01*
X364Y3723D02*
X1334Y3723D01*
X1361Y3723D02*
X1432Y3723D01*
X1453Y3723D02*
X2261Y3723D01*
X364Y3722D02*
X1334Y3722D01*
X1361Y3722D02*
X1429Y3722D01*
X1456Y3722D02*
X2261Y3722D01*
X364Y3721D02*
X1334Y3721D01*
X1361Y3721D02*
X1427Y3721D01*
X1458Y3721D02*
X2261Y3721D01*
X364Y3720D02*
X1334Y3720D01*
X1361Y3720D02*
X1425Y3720D01*
X1460Y3720D02*
X2261Y3720D01*
X364Y3719D02*
X1334Y3719D01*
X1361Y3719D02*
X1424Y3719D01*
X1461Y3719D02*
X2261Y3719D01*
X364Y3718D02*
X1334Y3718D01*
X1361Y3718D02*
X1422Y3718D01*
X1463Y3718D02*
X2262Y3718D01*
X364Y3717D02*
X1334Y3717D01*
X1361Y3717D02*
X1421Y3717D01*
X1464Y3717D02*
X2262Y3717D01*
X364Y3716D02*
X1334Y3716D01*
X1361Y3716D02*
X1420Y3716D01*
X1465Y3716D02*
X2262Y3716D01*
X364Y3715D02*
X1334Y3715D01*
X1361Y3715D02*
X1419Y3715D01*
X1466Y3715D02*
X2262Y3715D01*
X364Y3714D02*
X1334Y3714D01*
X1361Y3714D02*
X1418Y3714D01*
X1467Y3714D02*
X2262Y3714D01*
X363Y3713D02*
X1334Y3713D01*
X1361Y3713D02*
X1417Y3713D01*
X1468Y3713D02*
X2262Y3713D01*
X363Y3712D02*
X1334Y3712D01*
X1361Y3712D02*
X1416Y3712D01*
X1469Y3712D02*
X2262Y3712D01*
X363Y3711D02*
X1334Y3711D01*
X1361Y3711D02*
X1415Y3711D01*
X1470Y3711D02*
X2262Y3711D01*
X363Y3710D02*
X1334Y3710D01*
X1361Y3710D02*
X1414Y3710D01*
X1470Y3710D02*
X2262Y3710D01*
X363Y3709D02*
X1334Y3709D01*
X1361Y3709D02*
X1413Y3709D01*
X1436Y3709D02*
X1448Y3709D01*
X1471Y3709D02*
X2262Y3709D01*
X363Y3708D02*
X1334Y3708D01*
X1361Y3708D02*
X1413Y3708D01*
X1433Y3708D02*
X1451Y3708D01*
X1472Y3708D02*
X2263Y3708D01*
X363Y3707D02*
X1334Y3707D01*
X1361Y3707D02*
X1412Y3707D01*
X1431Y3707D02*
X1453Y3707D01*
X1472Y3707D02*
X2263Y3707D01*
X363Y3706D02*
X1334Y3706D01*
X1361Y3706D02*
X1412Y3706D01*
X1430Y3706D02*
X1454Y3706D01*
X1473Y3706D02*
X2263Y3706D01*
X363Y3705D02*
X1334Y3705D01*
X1361Y3705D02*
X1411Y3705D01*
X1428Y3705D02*
X1455Y3705D01*
X1473Y3705D02*
X2263Y3705D01*
X363Y3704D02*
X1334Y3704D01*
X1361Y3704D02*
X1411Y3704D01*
X1427Y3704D02*
X1456Y3704D01*
X1474Y3704D02*
X2263Y3704D01*
X362Y3703D02*
X1334Y3703D01*
X1361Y3703D02*
X1410Y3703D01*
X1426Y3703D02*
X1457Y3703D01*
X1474Y3703D02*
X2263Y3703D01*
X362Y3702D02*
X1334Y3702D01*
X1361Y3702D02*
X1410Y3702D01*
X1425Y3702D02*
X1458Y3702D01*
X1475Y3702D02*
X2263Y3702D01*
X362Y3701D02*
X1334Y3701D01*
X1361Y3701D02*
X1409Y3701D01*
X1425Y3701D02*
X1459Y3701D01*
X1475Y3701D02*
X2263Y3701D01*
X362Y3700D02*
X1334Y3700D01*
X1361Y3700D02*
X1409Y3700D01*
X1424Y3700D02*
X1459Y3700D01*
X1475Y3700D02*
X2263Y3700D01*
X362Y3699D02*
X1334Y3699D01*
X1361Y3699D02*
X1409Y3699D01*
X1424Y3699D02*
X1460Y3699D01*
X1476Y3699D02*
X2263Y3699D01*
X362Y3698D02*
X1334Y3698D01*
X1361Y3698D02*
X1408Y3698D01*
X1423Y3698D02*
X1460Y3698D01*
X1476Y3698D02*
X2264Y3698D01*
X362Y3697D02*
X1334Y3697D01*
X1361Y3697D02*
X1408Y3697D01*
X1423Y3697D02*
X1461Y3697D01*
X1476Y3697D02*
X2264Y3697D01*
X362Y3696D02*
X1334Y3696D01*
X1361Y3696D02*
X1408Y3696D01*
X1422Y3696D02*
X1461Y3696D01*
X1476Y3696D02*
X2264Y3696D01*
X362Y3695D02*
X1334Y3695D01*
X1361Y3695D02*
X1408Y3695D01*
X1422Y3695D02*
X1461Y3695D01*
X1476Y3695D02*
X2264Y3695D01*
X362Y3694D02*
X1334Y3694D01*
X1361Y3694D02*
X1408Y3694D01*
X1422Y3694D02*
X1461Y3694D01*
X1477Y3694D02*
X2264Y3694D01*
X361Y3693D02*
X1334Y3693D01*
X1361Y3693D02*
X1407Y3693D01*
X1422Y3693D02*
X1461Y3693D01*
X1477Y3693D02*
X2264Y3693D01*
X361Y3692D02*
X1334Y3692D01*
X1361Y3692D02*
X1407Y3692D01*
X1477Y3692D02*
X2264Y3692D01*
X361Y3691D02*
X1334Y3691D01*
X1361Y3691D02*
X1407Y3691D01*
X1477Y3691D02*
X2264Y3691D01*
X361Y3690D02*
X1334Y3690D01*
X1361Y3690D02*
X1407Y3690D01*
X1477Y3690D02*
X2264Y3690D01*
X361Y3689D02*
X1334Y3689D01*
X1361Y3689D02*
X1407Y3689D01*
X1477Y3689D02*
X2264Y3689D01*
X361Y3688D02*
X1334Y3688D01*
X1361Y3688D02*
X1407Y3688D01*
X1477Y3688D02*
X2265Y3688D01*
X361Y3687D02*
X1334Y3687D01*
X1361Y3687D02*
X1407Y3687D01*
X1477Y3687D02*
X2265Y3687D01*
X361Y3686D02*
X1334Y3686D01*
X1361Y3686D02*
X1407Y3686D01*
X1423Y3686D02*
X1463Y3686D01*
X1477Y3686D02*
X2265Y3686D01*
X361Y3685D02*
X1334Y3685D01*
X1361Y3685D02*
X1408Y3685D01*
X1423Y3685D02*
X1463Y3685D01*
X1476Y3685D02*
X2265Y3685D01*
X361Y3684D02*
X1334Y3684D01*
X1361Y3684D02*
X1408Y3684D01*
X1423Y3684D02*
X1462Y3684D01*
X1476Y3684D02*
X2265Y3684D01*
X360Y3683D02*
X1334Y3683D01*
X1361Y3683D02*
X1408Y3683D01*
X1424Y3683D02*
X1462Y3683D01*
X1476Y3683D02*
X2265Y3683D01*
X360Y3682D02*
X1334Y3682D01*
X1361Y3682D02*
X1408Y3682D01*
X1424Y3682D02*
X1462Y3682D01*
X1476Y3682D02*
X2265Y3682D01*
X360Y3681D02*
X1334Y3681D01*
X1361Y3681D02*
X1408Y3681D01*
X1425Y3681D02*
X1461Y3681D01*
X1475Y3681D02*
X2265Y3681D01*
X360Y3680D02*
X1334Y3680D01*
X1361Y3680D02*
X1408Y3680D01*
X1425Y3680D02*
X1461Y3680D01*
X1475Y3680D02*
X2265Y3680D01*
X360Y3679D02*
X1334Y3679D01*
X1361Y3679D02*
X1409Y3679D01*
X1426Y3679D02*
X1460Y3679D01*
X1475Y3679D02*
X2265Y3679D01*
X360Y3678D02*
X1334Y3678D01*
X1361Y3678D02*
X1409Y3678D01*
X1426Y3678D02*
X1459Y3678D01*
X1474Y3678D02*
X2266Y3678D01*
X360Y3677D02*
X1334Y3677D01*
X1361Y3677D02*
X1409Y3677D01*
X1427Y3677D02*
X1459Y3677D01*
X1474Y3677D02*
X2266Y3677D01*
X360Y3676D02*
X1334Y3676D01*
X1361Y3676D02*
X1410Y3676D01*
X1428Y3676D02*
X1458Y3676D01*
X1474Y3676D02*
X2266Y3676D01*
X360Y3675D02*
X752Y3675D01*
X1129Y3675D02*
X1334Y3675D01*
X1361Y3675D02*
X1410Y3675D01*
X1429Y3675D02*
X1457Y3675D01*
X1473Y3675D02*
X2266Y3675D01*
X360Y3674D02*
X571Y3674D01*
X1134Y3674D02*
X1334Y3674D01*
X1361Y3674D02*
X1410Y3674D01*
X1430Y3674D02*
X1456Y3674D01*
X1473Y3674D02*
X2266Y3674D01*
X359Y3673D02*
X567Y3673D01*
X1139Y3673D02*
X1334Y3673D01*
X1361Y3673D02*
X1411Y3673D01*
X1431Y3673D02*
X1455Y3673D01*
X1472Y3673D02*
X2266Y3673D01*
X359Y3672D02*
X564Y3672D01*
X1141Y3672D02*
X1334Y3672D01*
X1361Y3672D02*
X1412Y3672D01*
X1433Y3672D02*
X1453Y3672D01*
X1472Y3672D02*
X2266Y3672D01*
X359Y3671D02*
X561Y3671D01*
X1143Y3671D02*
X1334Y3671D01*
X1361Y3671D02*
X1412Y3671D01*
X1435Y3671D02*
X1451Y3671D01*
X1471Y3671D02*
X2266Y3671D01*
X359Y3670D02*
X559Y3670D01*
X1145Y3670D02*
X1334Y3670D01*
X1361Y3670D02*
X1413Y3670D01*
X1437Y3670D02*
X1449Y3670D01*
X1470Y3670D02*
X2266Y3670D01*
X359Y3669D02*
X557Y3669D01*
X1147Y3669D02*
X1334Y3669D01*
X1361Y3669D02*
X1413Y3669D01*
X1470Y3669D02*
X2266Y3669D01*
X359Y3668D02*
X556Y3668D01*
X1148Y3668D02*
X1334Y3668D01*
X1361Y3668D02*
X1414Y3668D01*
X1469Y3668D02*
X2267Y3668D01*
X359Y3667D02*
X554Y3667D01*
X1149Y3667D02*
X1334Y3667D01*
X1361Y3667D02*
X1415Y3667D01*
X1468Y3667D02*
X2267Y3667D01*
X359Y3666D02*
X553Y3666D01*
X1151Y3666D02*
X1334Y3666D01*
X1361Y3666D02*
X1416Y3666D01*
X1468Y3666D02*
X2267Y3666D01*
X359Y3665D02*
X551Y3665D01*
X1152Y3665D02*
X1334Y3665D01*
X1361Y3665D02*
X1417Y3665D01*
X1467Y3665D02*
X2267Y3665D01*
X359Y3664D02*
X550Y3664D01*
X1153Y3664D02*
X1334Y3664D01*
X1361Y3664D02*
X1418Y3664D01*
X1466Y3664D02*
X2267Y3664D01*
X359Y3663D02*
X549Y3663D01*
X1154Y3663D02*
X1334Y3663D01*
X1361Y3663D02*
X1419Y3663D01*
X1465Y3663D02*
X2267Y3663D01*
X358Y3662D02*
X548Y3662D01*
X1155Y3662D02*
X1334Y3662D01*
X1361Y3662D02*
X1420Y3662D01*
X1464Y3662D02*
X2267Y3662D01*
X358Y3661D02*
X547Y3661D01*
X1156Y3661D02*
X1334Y3661D01*
X1361Y3661D02*
X1421Y3661D01*
X1462Y3661D02*
X2267Y3661D01*
X358Y3660D02*
X546Y3660D01*
X1156Y3660D02*
X1334Y3660D01*
X1361Y3660D02*
X1423Y3660D01*
X1461Y3660D02*
X2267Y3660D01*
X358Y3659D02*
X545Y3659D01*
X1157Y3659D02*
X1334Y3659D01*
X1361Y3659D02*
X1425Y3659D01*
X1459Y3659D02*
X2267Y3659D01*
X358Y3658D02*
X544Y3658D01*
X1158Y3658D02*
X1334Y3658D01*
X1361Y3658D02*
X1427Y3658D01*
X1457Y3658D02*
X2268Y3658D01*
X358Y3657D02*
X544Y3657D01*
X1159Y3657D02*
X1334Y3657D01*
X1361Y3657D02*
X1429Y3657D01*
X1455Y3657D02*
X2268Y3657D01*
X358Y3656D02*
X543Y3656D01*
X1159Y3656D02*
X1334Y3656D01*
X1361Y3656D02*
X1432Y3656D01*
X1452Y3656D02*
X2268Y3656D01*
X358Y3655D02*
X542Y3655D01*
X1160Y3655D02*
X1334Y3655D01*
X1361Y3655D02*
X1436Y3655D01*
X1448Y3655D02*
X2268Y3655D01*
X358Y3654D02*
X542Y3654D01*
X1160Y3654D02*
X1334Y3654D01*
X1361Y3654D02*
X2268Y3654D01*
X358Y3653D02*
X541Y3653D01*
X1161Y3653D02*
X1334Y3653D01*
X1361Y3653D02*
X2268Y3653D01*
X357Y3652D02*
X540Y3652D01*
X1161Y3652D02*
X1334Y3652D01*
X1361Y3652D02*
X2268Y3652D01*
X357Y3651D02*
X540Y3651D01*
X1162Y3651D02*
X1334Y3651D01*
X1361Y3651D02*
X2268Y3651D01*
X357Y3650D02*
X539Y3650D01*
X1162Y3650D02*
X1334Y3650D01*
X1361Y3650D02*
X2268Y3650D01*
X357Y3649D02*
X539Y3649D01*
X1163Y3649D02*
X1334Y3649D01*
X1361Y3649D02*
X2268Y3649D01*
X357Y3648D02*
X538Y3648D01*
X1163Y3648D02*
X1334Y3648D01*
X1361Y3648D02*
X2269Y3648D01*
X357Y3647D02*
X538Y3647D01*
X1164Y3647D02*
X1334Y3647D01*
X1361Y3647D02*
X2269Y3647D01*
X357Y3646D02*
X538Y3646D01*
X1164Y3646D02*
X1334Y3646D01*
X1361Y3646D02*
X2269Y3646D01*
X357Y3645D02*
X537Y3645D01*
X1164Y3645D02*
X1334Y3645D01*
X1361Y3645D02*
X2269Y3645D01*
X357Y3644D02*
X537Y3644D01*
X1165Y3644D02*
X1334Y3644D01*
X1361Y3644D02*
X2269Y3644D01*
X357Y3643D02*
X537Y3643D01*
X1165Y3643D02*
X1334Y3643D01*
X1361Y3643D02*
X2269Y3643D01*
X356Y3642D02*
X536Y3642D01*
X1165Y3642D02*
X1334Y3642D01*
X1361Y3642D02*
X2269Y3642D01*
X356Y3641D02*
X536Y3641D01*
X1165Y3641D02*
X1334Y3641D01*
X1361Y3641D02*
X2269Y3641D01*
X356Y3640D02*
X536Y3640D01*
X1166Y3640D02*
X1334Y3640D01*
X1361Y3640D02*
X2269Y3640D01*
X356Y3639D02*
X536Y3639D01*
X1166Y3639D02*
X1334Y3639D01*
X1361Y3639D02*
X2269Y3639D01*
X356Y3638D02*
X535Y3638D01*
X1166Y3638D02*
X1334Y3638D01*
X1361Y3638D02*
X2270Y3638D01*
X356Y3637D02*
X535Y3637D01*
X1166Y3637D02*
X1334Y3637D01*
X1361Y3637D02*
X2270Y3637D01*
X356Y3636D02*
X535Y3636D01*
X1166Y3636D02*
X1334Y3636D01*
X1361Y3636D02*
X2270Y3636D01*
X356Y3635D02*
X535Y3635D01*
X1166Y3635D02*
X1334Y3635D01*
X1361Y3635D02*
X2270Y3635D01*
X356Y3634D02*
X535Y3634D01*
X1166Y3634D02*
X1334Y3634D01*
X1361Y3634D02*
X2270Y3634D01*
X356Y3633D02*
X535Y3633D01*
X1166Y3633D02*
X1334Y3633D01*
X1361Y3633D02*
X2270Y3633D01*
X355Y3632D02*
X535Y3632D01*
X1166Y3632D02*
X1334Y3632D01*
X1361Y3632D02*
X2270Y3632D01*
X355Y3631D02*
X535Y3631D01*
X1166Y3631D02*
X1334Y3631D01*
X1361Y3631D02*
X2270Y3631D01*
X355Y3630D02*
X535Y3630D01*
X1166Y3630D02*
X1334Y3630D01*
X1361Y3630D02*
X2270Y3630D01*
X355Y3629D02*
X535Y3629D01*
X1166Y3629D02*
X1334Y3629D01*
X1361Y3629D02*
X2270Y3629D01*
X355Y3628D02*
X535Y3628D01*
X1166Y3628D02*
X1334Y3628D01*
X1361Y3628D02*
X2270Y3628D01*
X355Y3627D02*
X535Y3627D01*
X1166Y3627D02*
X1334Y3627D01*
X1361Y3627D02*
X2271Y3627D01*
X355Y3626D02*
X535Y3626D01*
X1166Y3626D02*
X1334Y3626D01*
X1361Y3626D02*
X2271Y3626D01*
X355Y3625D02*
X535Y3625D01*
X1166Y3625D02*
X1334Y3625D01*
X1361Y3625D02*
X2271Y3625D01*
X355Y3624D02*
X535Y3624D01*
X1166Y3624D02*
X1334Y3624D01*
X1361Y3624D02*
X2271Y3624D01*
X355Y3623D02*
X535Y3623D01*
X1166Y3623D02*
X1334Y3623D01*
X1361Y3623D02*
X2271Y3623D01*
X354Y3622D02*
X535Y3622D01*
X1166Y3622D02*
X1334Y3622D01*
X1361Y3622D02*
X2271Y3622D01*
X354Y3621D02*
X535Y3621D01*
X1166Y3621D02*
X1334Y3621D01*
X1361Y3621D02*
X2271Y3621D01*
X354Y3620D02*
X535Y3620D01*
X1166Y3620D02*
X1334Y3620D01*
X1361Y3620D02*
X2271Y3620D01*
X354Y3619D02*
X535Y3619D01*
X1166Y3619D02*
X1334Y3619D01*
X1361Y3619D02*
X2271Y3619D01*
X354Y3618D02*
X535Y3618D01*
X1166Y3618D02*
X1334Y3618D01*
X1361Y3618D02*
X2271Y3618D01*
X354Y3617D02*
X535Y3617D01*
X1166Y3617D02*
X1334Y3617D01*
X1361Y3617D02*
X2272Y3617D01*
X354Y3616D02*
X535Y3616D01*
X1166Y3616D02*
X1334Y3616D01*
X1361Y3616D02*
X2272Y3616D01*
X354Y3615D02*
X535Y3615D01*
X1166Y3615D02*
X1334Y3615D01*
X1361Y3615D02*
X2272Y3615D01*
X354Y3614D02*
X535Y3614D01*
X1166Y3614D02*
X1334Y3614D01*
X1361Y3614D02*
X2272Y3614D01*
X354Y3613D02*
X535Y3613D01*
X1166Y3613D02*
X1334Y3613D01*
X1361Y3613D02*
X2272Y3613D01*
X353Y3612D02*
X535Y3612D01*
X1166Y3612D02*
X1334Y3612D01*
X1361Y3612D02*
X2272Y3612D01*
X353Y3611D02*
X535Y3611D01*
X1166Y3611D02*
X1334Y3611D01*
X1361Y3611D02*
X2272Y3611D01*
X353Y3610D02*
X535Y3610D01*
X1166Y3610D02*
X1334Y3610D01*
X1361Y3610D02*
X2272Y3610D01*
X353Y3609D02*
X535Y3609D01*
X1167Y3609D02*
X1334Y3609D01*
X1361Y3609D02*
X2272Y3609D01*
X353Y3608D02*
X535Y3608D01*
X1167Y3608D02*
X1334Y3608D01*
X1361Y3608D02*
X2272Y3608D01*
X353Y3607D02*
X535Y3607D01*
X1167Y3607D02*
X1334Y3607D01*
X1361Y3607D02*
X2273Y3607D01*
X353Y3606D02*
X535Y3606D01*
X1167Y3606D02*
X1334Y3606D01*
X1361Y3606D02*
X2273Y3606D01*
X353Y3605D02*
X535Y3605D01*
X1167Y3605D02*
X1334Y3605D01*
X1361Y3605D02*
X2273Y3605D01*
X353Y3604D02*
X535Y3604D01*
X1167Y3604D02*
X1334Y3604D01*
X1361Y3604D02*
X2273Y3604D01*
X353Y3603D02*
X535Y3603D01*
X1167Y3603D02*
X1334Y3603D01*
X1361Y3603D02*
X2273Y3603D01*
X353Y3602D02*
X535Y3602D01*
X1167Y3602D02*
X1334Y3602D01*
X1361Y3602D02*
X2273Y3602D01*
X352Y3601D02*
X535Y3601D01*
X1167Y3601D02*
X1334Y3601D01*
X1361Y3601D02*
X2273Y3601D01*
X352Y3600D02*
X535Y3600D01*
X1167Y3600D02*
X1334Y3600D01*
X1361Y3600D02*
X2273Y3600D01*
X352Y3599D02*
X535Y3599D01*
X1167Y3599D02*
X1334Y3599D01*
X1361Y3599D02*
X2273Y3599D01*
X352Y3598D02*
X535Y3598D01*
X1167Y3598D02*
X1334Y3598D01*
X1361Y3598D02*
X2273Y3598D01*
X352Y3597D02*
X535Y3597D01*
X1167Y3597D02*
X1334Y3597D01*
X1361Y3597D02*
X2274Y3597D01*
X352Y3596D02*
X535Y3596D01*
X1167Y3596D02*
X1334Y3596D01*
X1361Y3596D02*
X2274Y3596D01*
X352Y3595D02*
X535Y3595D01*
X1167Y3595D02*
X1334Y3595D01*
X1361Y3595D02*
X2274Y3595D01*
X352Y3594D02*
X535Y3594D01*
X1167Y3594D02*
X1334Y3594D01*
X1361Y3594D02*
X2274Y3594D01*
X352Y3593D02*
X535Y3593D01*
X1167Y3593D02*
X1334Y3593D01*
X1361Y3593D02*
X2274Y3593D01*
X352Y3592D02*
X535Y3592D01*
X1167Y3592D02*
X1334Y3592D01*
X1361Y3592D02*
X2274Y3592D01*
X351Y3591D02*
X535Y3591D01*
X1167Y3591D02*
X1334Y3591D01*
X1361Y3591D02*
X2274Y3591D01*
X351Y3590D02*
X535Y3590D01*
X1167Y3590D02*
X1334Y3590D01*
X1361Y3590D02*
X2274Y3590D01*
X351Y3589D02*
X535Y3589D01*
X1167Y3589D02*
X1334Y3589D01*
X1361Y3589D02*
X2274Y3589D01*
X351Y3588D02*
X535Y3588D01*
X1167Y3588D02*
X1334Y3588D01*
X1361Y3588D02*
X2274Y3588D01*
X351Y3587D02*
X535Y3587D01*
X1167Y3587D02*
X1334Y3587D01*
X1361Y3587D02*
X2275Y3587D01*
X351Y3586D02*
X535Y3586D01*
X1167Y3586D02*
X1334Y3586D01*
X1361Y3586D02*
X2275Y3586D01*
X351Y3585D02*
X535Y3585D01*
X1167Y3585D02*
X1334Y3585D01*
X1361Y3585D02*
X2275Y3585D01*
X351Y3584D02*
X535Y3584D01*
X1167Y3584D02*
X1334Y3584D01*
X1361Y3584D02*
X2275Y3584D01*
X351Y3583D02*
X535Y3583D01*
X1167Y3583D02*
X1334Y3583D01*
X1361Y3583D02*
X2275Y3583D01*
X351Y3582D02*
X535Y3582D01*
X1167Y3582D02*
X1334Y3582D01*
X1361Y3582D02*
X2275Y3582D01*
X350Y3581D02*
X535Y3581D01*
X1167Y3581D02*
X1334Y3581D01*
X1361Y3581D02*
X2275Y3581D01*
X350Y3580D02*
X535Y3580D01*
X1167Y3580D02*
X1334Y3580D01*
X1361Y3580D02*
X2275Y3580D01*
X350Y3579D02*
X535Y3579D01*
X1167Y3579D02*
X1334Y3579D01*
X1361Y3579D02*
X2275Y3579D01*
X350Y3578D02*
X535Y3578D01*
X1167Y3578D02*
X1334Y3578D01*
X1361Y3578D02*
X2275Y3578D01*
X350Y3577D02*
X535Y3577D01*
X1167Y3577D02*
X1334Y3577D01*
X1361Y3577D02*
X2276Y3577D01*
X350Y3576D02*
X535Y3576D01*
X1167Y3576D02*
X1334Y3576D01*
X1361Y3576D02*
X2276Y3576D01*
X350Y3575D02*
X535Y3575D01*
X1167Y3575D02*
X1334Y3575D01*
X1361Y3575D02*
X2276Y3575D01*
X350Y3574D02*
X535Y3574D01*
X1167Y3574D02*
X1334Y3574D01*
X1361Y3574D02*
X2276Y3574D01*
X350Y3573D02*
X535Y3573D01*
X1167Y3573D02*
X1334Y3573D01*
X1361Y3573D02*
X2276Y3573D01*
X350Y3572D02*
X535Y3572D01*
X1167Y3572D02*
X1334Y3572D01*
X1361Y3572D02*
X2276Y3572D01*
X349Y3571D02*
X535Y3571D01*
X1167Y3571D02*
X1334Y3571D01*
X1361Y3571D02*
X2276Y3571D01*
X349Y3570D02*
X535Y3570D01*
X1167Y3570D02*
X1334Y3570D01*
X1361Y3570D02*
X2276Y3570D01*
X349Y3569D02*
X535Y3569D01*
X1167Y3569D02*
X1334Y3569D01*
X1361Y3569D02*
X2276Y3569D01*
X349Y3568D02*
X535Y3568D01*
X1167Y3568D02*
X1334Y3568D01*
X1361Y3568D02*
X2276Y3568D01*
X349Y3567D02*
X535Y3567D01*
X1167Y3567D02*
X1334Y3567D01*
X1361Y3567D02*
X2277Y3567D01*
X349Y3566D02*
X535Y3566D01*
X1167Y3566D02*
X1334Y3566D01*
X1361Y3566D02*
X2277Y3566D01*
X349Y3565D02*
X535Y3565D01*
X1167Y3565D02*
X1334Y3565D01*
X1361Y3565D02*
X2277Y3565D01*
X349Y3564D02*
X535Y3564D01*
X1167Y3564D02*
X1334Y3564D01*
X1361Y3564D02*
X2277Y3564D01*
X349Y3563D02*
X535Y3563D01*
X1167Y3563D02*
X1334Y3563D01*
X1361Y3563D02*
X2277Y3563D01*
X349Y3562D02*
X535Y3562D01*
X1167Y3562D02*
X1334Y3562D01*
X1361Y3562D02*
X2277Y3562D01*
X348Y3561D02*
X535Y3561D01*
X1167Y3561D02*
X1334Y3561D01*
X1361Y3561D02*
X2277Y3561D01*
X348Y3560D02*
X535Y3560D01*
X1167Y3560D02*
X1334Y3560D01*
X1361Y3560D02*
X2277Y3560D01*
X348Y3559D02*
X535Y3559D01*
X1167Y3559D02*
X1334Y3559D01*
X1361Y3559D02*
X2277Y3559D01*
X348Y3558D02*
X535Y3558D01*
X1167Y3558D02*
X1334Y3558D01*
X1361Y3558D02*
X2277Y3558D01*
X348Y3557D02*
X535Y3557D01*
X1167Y3557D02*
X1334Y3557D01*
X1361Y3557D02*
X2278Y3557D01*
X348Y3556D02*
X535Y3556D01*
X1167Y3556D02*
X1334Y3556D01*
X1361Y3556D02*
X2278Y3556D01*
X348Y3555D02*
X535Y3555D01*
X1167Y3555D02*
X1334Y3555D01*
X1361Y3555D02*
X2278Y3555D01*
X348Y3554D02*
X535Y3554D01*
X1167Y3554D02*
X1334Y3554D01*
X1361Y3554D02*
X2278Y3554D01*
X348Y3553D02*
X535Y3553D01*
X1167Y3553D02*
X1334Y3553D01*
X1361Y3553D02*
X2278Y3553D01*
X348Y3552D02*
X535Y3552D01*
X1167Y3552D02*
X1334Y3552D01*
X1361Y3552D02*
X2278Y3552D01*
X347Y3551D02*
X535Y3551D01*
X1167Y3551D02*
X1334Y3551D01*
X1361Y3551D02*
X2278Y3551D01*
X347Y3550D02*
X535Y3550D01*
X1167Y3550D02*
X1334Y3550D01*
X1361Y3550D02*
X2278Y3550D01*
X347Y3549D02*
X535Y3549D01*
X1167Y3549D02*
X1334Y3549D01*
X1361Y3549D02*
X2278Y3549D01*
X347Y3548D02*
X535Y3548D01*
X1167Y3548D02*
X1334Y3548D01*
X1361Y3548D02*
X2278Y3548D01*
X347Y3547D02*
X535Y3547D01*
X1167Y3547D02*
X1334Y3547D01*
X1361Y3547D02*
X2278Y3547D01*
X347Y3546D02*
X535Y3546D01*
X1167Y3546D02*
X1334Y3546D01*
X1361Y3546D02*
X2279Y3546D01*
X347Y3545D02*
X535Y3545D01*
X1167Y3545D02*
X1334Y3545D01*
X1361Y3545D02*
X2279Y3545D01*
X347Y3544D02*
X535Y3544D01*
X1167Y3544D02*
X1334Y3544D01*
X1361Y3544D02*
X2279Y3544D01*
X347Y3543D02*
X535Y3543D01*
X1167Y3543D02*
X1334Y3543D01*
X1361Y3543D02*
X2279Y3543D01*
X347Y3542D02*
X536Y3542D01*
X1167Y3542D02*
X1334Y3542D01*
X1361Y3542D02*
X2279Y3542D01*
X347Y3541D02*
X536Y3541D01*
X1167Y3541D02*
X1334Y3541D01*
X1361Y3541D02*
X2279Y3541D01*
X346Y3540D02*
X536Y3540D01*
X1167Y3540D02*
X1334Y3540D01*
X1361Y3540D02*
X2279Y3540D01*
X346Y3539D02*
X536Y3539D01*
X1167Y3539D02*
X1334Y3539D01*
X1361Y3539D02*
X2279Y3539D01*
X346Y3538D02*
X536Y3538D01*
X1167Y3538D02*
X1334Y3538D01*
X1361Y3538D02*
X2279Y3538D01*
X346Y3537D02*
X536Y3537D01*
X1167Y3537D02*
X1334Y3537D01*
X1361Y3537D02*
X2279Y3537D01*
X346Y3536D02*
X536Y3536D01*
X1167Y3536D02*
X1334Y3536D01*
X1361Y3536D02*
X1438Y3536D01*
X1446Y3536D02*
X2280Y3536D01*
X346Y3535D02*
X536Y3535D01*
X1167Y3535D02*
X1334Y3535D01*
X1361Y3535D02*
X1433Y3535D01*
X1451Y3535D02*
X2280Y3535D01*
X346Y3534D02*
X536Y3534D01*
X1167Y3534D02*
X1334Y3534D01*
X1361Y3534D02*
X1430Y3534D01*
X1454Y3534D02*
X2280Y3534D01*
X346Y3533D02*
X536Y3533D01*
X1167Y3533D02*
X1334Y3533D01*
X1361Y3533D02*
X1427Y3533D01*
X1457Y3533D02*
X2280Y3533D01*
X346Y3532D02*
X536Y3532D01*
X1167Y3532D02*
X1334Y3532D01*
X1361Y3532D02*
X1425Y3532D01*
X1459Y3532D02*
X2280Y3532D01*
X346Y3531D02*
X536Y3531D01*
X1167Y3531D02*
X1334Y3531D01*
X1361Y3531D02*
X1424Y3531D01*
X1461Y3531D02*
X2280Y3531D01*
X345Y3530D02*
X536Y3530D01*
X1167Y3530D02*
X1334Y3530D01*
X1361Y3530D02*
X1422Y3530D01*
X1462Y3530D02*
X2280Y3530D01*
X345Y3529D02*
X536Y3529D01*
X1167Y3529D02*
X1334Y3529D01*
X1361Y3529D02*
X1421Y3529D01*
X1463Y3529D02*
X2280Y3529D01*
X345Y3528D02*
X536Y3528D01*
X1167Y3528D02*
X1334Y3528D01*
X1361Y3528D02*
X1419Y3528D01*
X1465Y3528D02*
X2280Y3528D01*
X345Y3527D02*
X536Y3527D01*
X1167Y3527D02*
X1334Y3527D01*
X1361Y3527D02*
X1418Y3527D01*
X1466Y3527D02*
X2280Y3527D01*
X345Y3526D02*
X536Y3526D01*
X1167Y3526D02*
X1334Y3526D01*
X1361Y3526D02*
X1417Y3526D01*
X1467Y3526D02*
X2281Y3526D01*
X345Y3525D02*
X536Y3525D01*
X1166Y3525D02*
X1334Y3525D01*
X1361Y3525D02*
X1416Y3525D01*
X1468Y3525D02*
X2281Y3525D01*
X345Y3524D02*
X536Y3524D01*
X1166Y3524D02*
X1334Y3524D01*
X1361Y3524D02*
X1415Y3524D01*
X1469Y3524D02*
X2281Y3524D01*
X345Y3523D02*
X536Y3523D01*
X1166Y3523D02*
X1334Y3523D01*
X1361Y3523D02*
X1415Y3523D01*
X1441Y3523D02*
X1446Y3523D01*
X1470Y3523D02*
X2281Y3523D01*
X345Y3522D02*
X537Y3522D01*
X1166Y3522D02*
X1334Y3522D01*
X1361Y3522D02*
X1414Y3522D01*
X1436Y3522D02*
X1450Y3522D01*
X1470Y3522D02*
X2281Y3522D01*
X345Y3521D02*
X537Y3521D01*
X1165Y3521D02*
X1334Y3521D01*
X1361Y3521D02*
X1413Y3521D01*
X1434Y3521D02*
X1452Y3521D01*
X1471Y3521D02*
X2281Y3521D01*
X344Y3520D02*
X537Y3520D01*
X1165Y3520D02*
X1334Y3520D01*
X1361Y3520D02*
X1413Y3520D01*
X1432Y3520D02*
X1454Y3520D01*
X1472Y3520D02*
X2281Y3520D01*
X344Y3519D02*
X537Y3519D01*
X1165Y3519D02*
X1335Y3519D01*
X1361Y3519D02*
X1412Y3519D01*
X1431Y3519D02*
X1455Y3519D01*
X1472Y3519D02*
X2281Y3519D01*
X344Y3518D02*
X538Y3518D01*
X1165Y3518D02*
X1335Y3518D01*
X1361Y3518D02*
X1411Y3518D01*
X1429Y3518D02*
X1456Y3518D01*
X1473Y3518D02*
X2281Y3518D01*
X344Y3517D02*
X538Y3517D01*
X1164Y3517D02*
X1335Y3517D01*
X1361Y3517D02*
X1411Y3517D01*
X1428Y3517D02*
X1457Y3517D01*
X1473Y3517D02*
X2281Y3517D01*
X344Y3516D02*
X539Y3516D01*
X1164Y3516D02*
X1335Y3516D01*
X1361Y3516D02*
X1410Y3516D01*
X1427Y3516D02*
X1458Y3516D01*
X1474Y3516D02*
X2282Y3516D01*
X344Y3515D02*
X539Y3515D01*
X1163Y3515D02*
X1335Y3515D01*
X1361Y3515D02*
X1410Y3515D01*
X1427Y3515D02*
X1458Y3515D01*
X1474Y3515D02*
X2282Y3515D01*
X344Y3514D02*
X539Y3514D01*
X1163Y3514D02*
X1335Y3514D01*
X1361Y3514D02*
X1409Y3514D01*
X1426Y3514D02*
X1459Y3514D01*
X1474Y3514D02*
X2282Y3514D01*
X344Y3513D02*
X540Y3513D01*
X1162Y3513D02*
X1335Y3513D01*
X1361Y3513D02*
X1409Y3513D01*
X1425Y3513D02*
X1460Y3513D01*
X1475Y3513D02*
X2282Y3513D01*
X344Y3512D02*
X540Y3512D01*
X1162Y3512D02*
X1335Y3512D01*
X1361Y3512D02*
X1409Y3512D01*
X1425Y3512D02*
X1460Y3512D01*
X1475Y3512D02*
X2282Y3512D01*
X344Y3511D02*
X541Y3511D01*
X1161Y3511D02*
X1335Y3511D01*
X1361Y3511D02*
X1408Y3511D01*
X1424Y3511D02*
X1461Y3511D01*
X1475Y3511D02*
X2282Y3511D01*
X343Y3510D02*
X541Y3510D01*
X1161Y3510D02*
X1335Y3510D01*
X1361Y3510D02*
X1408Y3510D01*
X1424Y3510D02*
X1461Y3510D01*
X1476Y3510D02*
X2282Y3510D01*
X343Y3509D02*
X542Y3509D01*
X1160Y3509D02*
X1335Y3509D01*
X1361Y3509D02*
X1408Y3509D01*
X1423Y3509D02*
X1462Y3509D01*
X1476Y3509D02*
X2282Y3509D01*
X343Y3508D02*
X542Y3508D01*
X1159Y3508D02*
X1335Y3508D01*
X1361Y3508D02*
X1408Y3508D01*
X1423Y3508D02*
X1462Y3508D01*
X1476Y3508D02*
X2282Y3508D01*
X343Y3507D02*
X543Y3507D01*
X1159Y3507D02*
X1335Y3507D01*
X1361Y3507D02*
X1407Y3507D01*
X1423Y3507D02*
X1462Y3507D01*
X1476Y3507D02*
X2282Y3507D01*
X343Y3506D02*
X544Y3506D01*
X1158Y3506D02*
X1335Y3506D01*
X1361Y3506D02*
X1407Y3506D01*
X1423Y3506D02*
X1462Y3506D01*
X1476Y3506D02*
X2283Y3506D01*
X343Y3505D02*
X545Y3505D01*
X1157Y3505D02*
X1335Y3505D01*
X1361Y3505D02*
X1407Y3505D01*
X1476Y3505D02*
X2283Y3505D01*
X343Y3504D02*
X545Y3504D01*
X1156Y3504D02*
X1335Y3504D01*
X1361Y3504D02*
X1407Y3504D01*
X1476Y3504D02*
X2283Y3504D01*
X343Y3503D02*
X546Y3503D01*
X1155Y3503D02*
X1335Y3503D01*
X1361Y3503D02*
X1407Y3503D01*
X1477Y3503D02*
X2283Y3503D01*
X343Y3502D02*
X547Y3502D01*
X1155Y3502D02*
X1335Y3502D01*
X1361Y3502D02*
X1407Y3502D01*
X1477Y3502D02*
X2283Y3502D01*
X343Y3501D02*
X548Y3501D01*
X1153Y3501D02*
X1335Y3501D01*
X1361Y3501D02*
X1407Y3501D01*
X1477Y3501D02*
X2283Y3501D01*
X342Y3500D02*
X549Y3500D01*
X1152Y3500D02*
X1335Y3500D01*
X1361Y3500D02*
X1407Y3500D01*
X1477Y3500D02*
X2283Y3500D01*
X342Y3499D02*
X550Y3499D01*
X1151Y3499D02*
X1335Y3499D01*
X1361Y3499D02*
X1407Y3499D01*
X1477Y3499D02*
X2283Y3499D01*
X342Y3498D02*
X551Y3498D01*
X1150Y3498D02*
X1335Y3498D01*
X1361Y3498D02*
X1407Y3498D01*
X1423Y3498D02*
X1462Y3498D01*
X1476Y3498D02*
X2283Y3498D01*
X342Y3497D02*
X552Y3497D01*
X1149Y3497D02*
X1335Y3497D01*
X1361Y3497D02*
X1407Y3497D01*
X1423Y3497D02*
X1462Y3497D01*
X1476Y3497D02*
X2283Y3497D01*
X342Y3496D02*
X553Y3496D01*
X1147Y3496D02*
X1335Y3496D01*
X1361Y3496D02*
X1408Y3496D01*
X1423Y3496D02*
X1462Y3496D01*
X1476Y3496D02*
X2284Y3496D01*
X342Y3495D02*
X555Y3495D01*
X1146Y3495D02*
X1335Y3495D01*
X1361Y3495D02*
X1408Y3495D01*
X1424Y3495D02*
X1462Y3495D01*
X1476Y3495D02*
X2284Y3495D01*
X342Y3494D02*
X556Y3494D01*
X1144Y3494D02*
X1335Y3494D01*
X1361Y3494D02*
X1408Y3494D01*
X1424Y3494D02*
X1461Y3494D01*
X1476Y3494D02*
X2284Y3494D01*
X342Y3493D02*
X558Y3493D01*
X1142Y3493D02*
X1335Y3493D01*
X1361Y3493D02*
X1408Y3493D01*
X1425Y3493D02*
X1461Y3493D01*
X1476Y3493D02*
X2284Y3493D01*
X342Y3492D02*
X560Y3492D01*
X1140Y3492D02*
X1335Y3492D01*
X1361Y3492D02*
X1409Y3492D01*
X1425Y3492D02*
X1460Y3492D01*
X1475Y3492D02*
X2284Y3492D01*
X342Y3491D02*
X562Y3491D01*
X1137Y3491D02*
X1335Y3491D01*
X1361Y3491D02*
X1409Y3491D01*
X1426Y3491D02*
X1460Y3491D01*
X1475Y3491D02*
X2284Y3491D01*
X341Y3490D02*
X565Y3490D01*
X1133Y3490D02*
X1335Y3490D01*
X1361Y3490D02*
X1409Y3490D01*
X1426Y3490D02*
X1459Y3490D01*
X1475Y3490D02*
X2284Y3490D01*
X341Y3489D02*
X570Y3489D01*
X1127Y3489D02*
X1335Y3489D01*
X1361Y3489D02*
X1410Y3489D01*
X1427Y3489D02*
X1459Y3489D01*
X1474Y3489D02*
X2284Y3489D01*
X341Y3488D02*
X578Y3488D01*
X637Y3488D02*
X1335Y3488D01*
X1361Y3488D02*
X1410Y3488D01*
X1428Y3488D02*
X1458Y3488D01*
X1474Y3488D02*
X2284Y3488D01*
X341Y3487D02*
X1335Y3487D01*
X1361Y3487D02*
X1410Y3487D01*
X1429Y3487D02*
X1457Y3487D01*
X1473Y3487D02*
X2284Y3487D01*
X341Y3486D02*
X1335Y3486D01*
X1361Y3486D02*
X1411Y3486D01*
X1430Y3486D02*
X1456Y3486D01*
X1473Y3486D02*
X2285Y3486D01*
X341Y3485D02*
X1335Y3485D01*
X1361Y3485D02*
X1411Y3485D01*
X1431Y3485D02*
X1455Y3485D01*
X1472Y3485D02*
X2285Y3485D01*
X341Y3484D02*
X1335Y3484D01*
X1361Y3484D02*
X1412Y3484D01*
X1433Y3484D02*
X1453Y3484D01*
X1472Y3484D02*
X2285Y3484D01*
X341Y3483D02*
X1335Y3483D01*
X1361Y3483D02*
X1413Y3483D01*
X1434Y3483D02*
X1451Y3483D01*
X1471Y3483D02*
X2285Y3483D01*
X341Y3482D02*
X1335Y3482D01*
X1361Y3482D02*
X1413Y3482D01*
X1437Y3482D02*
X1449Y3482D01*
X1470Y3482D02*
X2285Y3482D01*
X341Y3481D02*
X1335Y3481D01*
X1361Y3481D02*
X1414Y3481D01*
X1441Y3481D02*
X1444Y3481D01*
X1470Y3481D02*
X2285Y3481D01*
X341Y3480D02*
X1335Y3480D01*
X1361Y3480D02*
X1415Y3480D01*
X1469Y3480D02*
X2285Y3480D01*
X340Y3479D02*
X1335Y3479D01*
X1361Y3479D02*
X1416Y3479D01*
X1468Y3479D02*
X2285Y3479D01*
X340Y3478D02*
X1335Y3478D01*
X1361Y3478D02*
X1417Y3478D01*
X1467Y3478D02*
X2285Y3478D01*
X340Y3477D02*
X1335Y3477D01*
X1361Y3477D02*
X1418Y3477D01*
X1466Y3477D02*
X2285Y3477D01*
X340Y3476D02*
X1335Y3476D01*
X1361Y3476D02*
X1419Y3476D01*
X1465Y3476D02*
X2286Y3476D01*
X340Y3475D02*
X1335Y3475D01*
X1361Y3475D02*
X1420Y3475D01*
X1463Y3475D02*
X2286Y3475D01*
X340Y3474D02*
X1335Y3474D01*
X1361Y3474D02*
X1422Y3474D01*
X1462Y3474D02*
X2286Y3474D01*
X340Y3473D02*
X1335Y3473D01*
X1361Y3473D02*
X1423Y3473D01*
X1461Y3473D02*
X2286Y3473D01*
X340Y3472D02*
X1335Y3472D01*
X1361Y3472D02*
X1425Y3472D01*
X1459Y3472D02*
X2286Y3472D01*
X340Y3471D02*
X1335Y3471D01*
X1361Y3471D02*
X1427Y3471D01*
X1457Y3471D02*
X2286Y3471D01*
X340Y3470D02*
X1335Y3470D01*
X1361Y3470D02*
X1429Y3470D01*
X1454Y3470D02*
X2286Y3470D01*
X339Y3469D02*
X1335Y3469D01*
X1361Y3469D02*
X1433Y3469D01*
X1451Y3469D02*
X2286Y3469D01*
X339Y3468D02*
X1335Y3468D01*
X1361Y3468D02*
X1437Y3468D01*
X1446Y3468D02*
X2286Y3468D01*
X339Y3467D02*
X1335Y3467D01*
X1361Y3467D02*
X2286Y3467D01*
X339Y3466D02*
X1335Y3466D01*
X1361Y3466D02*
X2287Y3466D01*
X339Y3465D02*
X1335Y3465D01*
X1361Y3465D02*
X2287Y3465D01*
X339Y3464D02*
X1335Y3464D01*
X1361Y3464D02*
X2287Y3464D01*
X339Y3463D02*
X1335Y3463D01*
X1361Y3463D02*
X2287Y3463D01*
X339Y3462D02*
X1335Y3462D01*
X1361Y3462D02*
X2287Y3462D01*
X339Y3461D02*
X1335Y3461D01*
X1361Y3461D02*
X2287Y3461D01*
X339Y3460D02*
X1335Y3460D01*
X1361Y3460D02*
X2287Y3460D01*
X338Y3459D02*
X1335Y3459D01*
X1361Y3459D02*
X2287Y3459D01*
X338Y3458D02*
X1335Y3458D01*
X1361Y3458D02*
X2287Y3458D01*
X338Y3457D02*
X1335Y3457D01*
X1361Y3457D02*
X2287Y3457D01*
X338Y3456D02*
X1335Y3456D01*
X1361Y3456D02*
X2287Y3456D01*
X338Y3455D02*
X1335Y3455D01*
X1361Y3455D02*
X2288Y3455D01*
X338Y3454D02*
X1335Y3454D01*
X1361Y3454D02*
X2288Y3454D01*
X338Y3453D02*
X1335Y3453D01*
X1361Y3453D02*
X2288Y3453D01*
X338Y3452D02*
X1335Y3452D01*
X1361Y3452D02*
X2288Y3452D01*
X338Y3451D02*
X1335Y3451D01*
X1361Y3451D02*
X2288Y3451D01*
X338Y3450D02*
X1335Y3450D01*
X1361Y3450D02*
X2288Y3450D01*
X337Y3449D02*
X1335Y3449D01*
X1361Y3449D02*
X2288Y3449D01*
X337Y3448D02*
X1335Y3448D01*
X1361Y3448D02*
X2288Y3448D01*
X337Y3447D02*
X1335Y3447D01*
X1361Y3447D02*
X2288Y3447D01*
X337Y3446D02*
X1335Y3446D01*
X1361Y3446D02*
X2288Y3446D01*
X337Y3445D02*
X1335Y3445D01*
X1361Y3445D02*
X2289Y3445D01*
X337Y3444D02*
X1335Y3444D01*
X1361Y3444D02*
X2289Y3444D01*
X337Y3443D02*
X1335Y3443D01*
X1361Y3443D02*
X2289Y3443D01*
X337Y3442D02*
X1335Y3442D01*
X1361Y3442D02*
X2289Y3442D01*
X337Y3441D02*
X1335Y3441D01*
X1361Y3441D02*
X2289Y3441D01*
X337Y3440D02*
X1335Y3440D01*
X1361Y3440D02*
X2289Y3440D01*
X336Y3439D02*
X1335Y3439D01*
X1361Y3439D02*
X2289Y3439D01*
X336Y3438D02*
X1335Y3438D01*
X1361Y3438D02*
X2289Y3438D01*
X336Y3437D02*
X1335Y3437D01*
X1361Y3437D02*
X2289Y3437D01*
X336Y3436D02*
X1335Y3436D01*
X1361Y3436D02*
X2289Y3436D01*
X336Y3435D02*
X1335Y3435D01*
X1361Y3435D02*
X2290Y3435D01*
X336Y3434D02*
X1335Y3434D01*
X1361Y3434D02*
X2290Y3434D01*
X336Y3433D02*
X1335Y3433D01*
X1361Y3433D02*
X2290Y3433D01*
X336Y3432D02*
X1335Y3432D01*
X1361Y3432D02*
X2290Y3432D01*
X336Y3431D02*
X1335Y3431D01*
X1361Y3431D02*
X2290Y3431D01*
X336Y3430D02*
X1335Y3430D01*
X1361Y3430D02*
X2290Y3430D01*
X335Y3429D02*
X1335Y3429D01*
X1361Y3429D02*
X2290Y3429D01*
X335Y3428D02*
X1335Y3428D01*
X1361Y3428D02*
X2290Y3428D01*
X335Y3427D02*
X1335Y3427D01*
X1361Y3427D02*
X2290Y3427D01*
X335Y3426D02*
X1335Y3426D01*
X1361Y3426D02*
X2290Y3426D01*
X335Y3425D02*
X1335Y3425D01*
X1361Y3425D02*
X2291Y3425D01*
X335Y3424D02*
X1335Y3424D01*
X1361Y3424D02*
X2291Y3424D01*
X335Y3423D02*
X1335Y3423D01*
X1361Y3423D02*
X2291Y3423D01*
X335Y3422D02*
X1335Y3422D01*
X1361Y3422D02*
X2291Y3422D01*
X335Y3421D02*
X1335Y3421D01*
X1361Y3421D02*
X2291Y3421D01*
X335Y3420D02*
X1335Y3420D01*
X1361Y3420D02*
X2291Y3420D01*
X335Y3419D02*
X1335Y3419D01*
X1361Y3419D02*
X2291Y3419D01*
X334Y3418D02*
X1335Y3418D01*
X1361Y3418D02*
X2291Y3418D01*
X334Y3417D02*
X1335Y3417D01*
X1361Y3417D02*
X2291Y3417D01*
X334Y3416D02*
X1335Y3416D01*
X1361Y3416D02*
X2291Y3416D01*
X334Y3415D02*
X1335Y3415D01*
X1361Y3415D02*
X2292Y3415D01*
X334Y3414D02*
X1335Y3414D01*
X1361Y3414D02*
X2292Y3414D01*
X334Y3413D02*
X1335Y3413D01*
X1361Y3413D02*
X2292Y3413D01*
X334Y3412D02*
X1335Y3412D01*
X1361Y3412D02*
X2292Y3412D01*
X334Y3411D02*
X1335Y3411D01*
X1361Y3411D02*
X2292Y3411D01*
X334Y3410D02*
X1335Y3410D01*
X1361Y3410D02*
X2292Y3410D01*
X334Y3409D02*
X1335Y3409D01*
X1361Y3409D02*
X2292Y3409D01*
X333Y3408D02*
X1335Y3408D01*
X1361Y3408D02*
X2292Y3408D01*
X333Y3407D02*
X1335Y3407D01*
X1361Y3407D02*
X2292Y3407D01*
X333Y3406D02*
X1335Y3406D01*
X1361Y3406D02*
X2292Y3406D01*
X333Y3405D02*
X1335Y3405D01*
X1361Y3405D02*
X2293Y3405D01*
X333Y3404D02*
X1335Y3404D01*
X1361Y3404D02*
X2293Y3404D01*
X333Y3403D02*
X1335Y3403D01*
X1361Y3403D02*
X2293Y3403D01*
X333Y3402D02*
X1335Y3402D01*
X1361Y3402D02*
X2293Y3402D01*
X333Y3401D02*
X1335Y3401D01*
X1361Y3401D02*
X2293Y3401D01*
X333Y3400D02*
X1335Y3400D01*
X1361Y3400D02*
X2293Y3400D01*
X333Y3399D02*
X1335Y3399D01*
X1361Y3399D02*
X2293Y3399D01*
X332Y3398D02*
X1335Y3398D01*
X1361Y3398D02*
X2293Y3398D01*
X332Y3397D02*
X1335Y3397D01*
X1361Y3397D02*
X2293Y3397D01*
X332Y3396D02*
X1335Y3396D01*
X1361Y3396D02*
X2293Y3396D01*
X332Y3395D02*
X1335Y3395D01*
X1361Y3395D02*
X2294Y3395D01*
X332Y3394D02*
X1335Y3394D01*
X1361Y3394D02*
X2294Y3394D01*
X332Y3393D02*
X1335Y3393D01*
X1361Y3393D02*
X2294Y3393D01*
X332Y3392D02*
X1335Y3392D01*
X1361Y3392D02*
X2294Y3392D01*
X332Y3391D02*
X1335Y3391D01*
X1361Y3391D02*
X2294Y3391D01*
X332Y3390D02*
X1335Y3390D01*
X1361Y3390D02*
X2294Y3390D01*
X332Y3389D02*
X1335Y3389D01*
X1361Y3389D02*
X2294Y3389D01*
X331Y3388D02*
X1335Y3388D01*
X1361Y3388D02*
X2294Y3388D01*
X331Y3387D02*
X1335Y3387D01*
X1361Y3387D02*
X2294Y3387D01*
X331Y3386D02*
X1335Y3386D01*
X1361Y3386D02*
X2294Y3386D01*
X331Y3385D02*
X1335Y3385D01*
X1361Y3385D02*
X2295Y3385D01*
X331Y3384D02*
X1335Y3384D01*
X1361Y3384D02*
X2295Y3384D01*
X331Y3383D02*
X1335Y3383D01*
X1361Y3383D02*
X2295Y3383D01*
X331Y3382D02*
X1335Y3382D01*
X1361Y3382D02*
X2295Y3382D01*
X331Y3381D02*
X1335Y3381D01*
X1361Y3381D02*
X2295Y3381D01*
X331Y3380D02*
X1335Y3380D01*
X1361Y3380D02*
X2295Y3380D01*
X331Y3379D02*
X1335Y3379D01*
X1361Y3379D02*
X2295Y3379D01*
X330Y3378D02*
X1335Y3378D01*
X1361Y3378D02*
X2295Y3378D01*
X330Y3377D02*
X1335Y3377D01*
X1361Y3377D02*
X2295Y3377D01*
X330Y3376D02*
X1335Y3376D01*
X1361Y3376D02*
X2295Y3376D01*
X330Y3375D02*
X1335Y3375D01*
X1361Y3375D02*
X2295Y3375D01*
X330Y3374D02*
X1335Y3374D01*
X1361Y3374D02*
X2296Y3374D01*
X330Y3373D02*
X1335Y3373D01*
X1361Y3373D02*
X2296Y3373D01*
X330Y3372D02*
X1335Y3372D01*
X1361Y3372D02*
X2296Y3372D01*
X330Y3371D02*
X1335Y3371D01*
X1361Y3371D02*
X2296Y3371D01*
X330Y3370D02*
X1335Y3370D01*
X1361Y3370D02*
X2296Y3370D01*
X330Y3369D02*
X1335Y3369D01*
X1361Y3369D02*
X2296Y3369D01*
X329Y3368D02*
X1335Y3368D01*
X1361Y3368D02*
X2296Y3368D01*
X329Y3367D02*
X1335Y3367D01*
X1361Y3367D02*
X2296Y3367D01*
X329Y3366D02*
X1335Y3366D01*
X1361Y3366D02*
X2296Y3366D01*
X329Y3365D02*
X1335Y3365D01*
X1361Y3365D02*
X2296Y3365D01*
X329Y3364D02*
X1335Y3364D01*
X1361Y3364D02*
X2297Y3364D01*
X332Y3363D02*
X1335Y3363D01*
X1361Y3363D02*
X2297Y3363D01*
X339Y3362D02*
X1335Y3362D01*
X1361Y3362D02*
X2297Y3362D01*
X345Y3361D02*
X1335Y3361D01*
X1361Y3361D02*
X1984Y3361D01*
X351Y3360D02*
X988Y3360D01*
X2213Y3086D02*
X2229Y3086D01*
X2167Y3085D02*
X2229Y3085D01*
X2121Y3084D02*
X2229Y3084D01*
X2075Y3083D02*
X2229Y3083D01*
X2029Y3082D02*
X2229Y3082D01*
X1983Y3081D02*
X2229Y3081D01*
X1937Y3080D02*
X2229Y3080D01*
X1891Y3079D02*
X2229Y3079D01*
X1845Y3078D02*
X2229Y3078D01*
X1799Y3077D02*
X2229Y3077D01*
X1753Y3076D02*
X2229Y3076D01*
X1707Y3075D02*
X2229Y3075D01*
X1661Y3074D02*
X2229Y3074D01*
X1615Y3073D02*
X2229Y3073D01*
X1569Y3072D02*
X2229Y3072D01*
X1523Y3071D02*
X2229Y3071D01*
X1477Y3070D02*
X2229Y3070D01*
X1439Y3069D02*
X2229Y3069D01*
X1439Y3068D02*
X2229Y3068D01*
X1439Y3067D02*
X2229Y3067D01*
X1439Y3066D02*
X2229Y3066D01*
X1439Y3065D02*
X2229Y3065D01*
X1439Y3064D02*
X2229Y3064D01*
X1439Y3063D02*
X2229Y3063D01*
X1439Y3062D02*
X2229Y3062D01*
X1439Y3061D02*
X2229Y3061D01*
X1439Y3060D02*
X2229Y3060D01*
X1439Y3059D02*
X2229Y3059D01*
X1439Y3058D02*
X2229Y3058D01*
X1439Y3057D02*
X2229Y3057D01*
X1439Y3056D02*
X2229Y3056D01*
X1439Y3055D02*
X2229Y3055D01*
X1439Y3054D02*
X2229Y3054D01*
X1439Y3053D02*
X2229Y3053D01*
X1439Y3052D02*
X2229Y3052D01*
X993Y3051D02*
X1015Y3051D01*
X1439Y3051D02*
X2229Y3051D01*
X602Y3050D02*
X616Y3050D01*
X984Y3050D02*
X1024Y3050D01*
X1439Y3050D02*
X2229Y3050D01*
X591Y3049D02*
X626Y3049D01*
X978Y3049D02*
X1029Y3049D01*
X1439Y3049D02*
X2230Y3049D01*
X584Y3048D02*
X632Y3048D01*
X973Y3048D02*
X1034Y3048D01*
X1439Y3048D02*
X2230Y3048D01*
X579Y3047D02*
X637Y3047D01*
X969Y3047D02*
X1038Y3047D01*
X1439Y3047D02*
X2230Y3047D01*
X575Y3046D02*
X642Y3046D01*
X965Y3046D02*
X1042Y3046D01*
X1439Y3046D02*
X2230Y3046D01*
X571Y3045D02*
X645Y3045D01*
X962Y3045D02*
X1045Y3045D01*
X1439Y3045D02*
X2230Y3045D01*
X567Y3044D02*
X649Y3044D01*
X959Y3044D02*
X1048Y3044D01*
X1439Y3044D02*
X2230Y3044D01*
X564Y3043D02*
X652Y3043D01*
X956Y3043D02*
X1051Y3043D01*
X1439Y3043D02*
X2230Y3043D01*
X561Y3042D02*
X655Y3042D01*
X953Y3042D02*
X1054Y3042D01*
X1439Y3042D02*
X2230Y3042D01*
X559Y3041D02*
X658Y3041D01*
X951Y3041D02*
X1057Y3041D01*
X1439Y3041D02*
X2230Y3041D01*
X556Y3040D02*
X660Y3040D01*
X948Y3040D02*
X1059Y3040D01*
X1439Y3040D02*
X2230Y3040D01*
X553Y3039D02*
X663Y3039D01*
X946Y3039D02*
X1061Y3039D01*
X1439Y3039D02*
X2230Y3039D01*
X551Y3038D02*
X665Y3038D01*
X944Y3038D02*
X1063Y3038D01*
X1439Y3038D02*
X2230Y3038D01*
X549Y3037D02*
X667Y3037D01*
X941Y3037D02*
X1065Y3037D01*
X1439Y3037D02*
X2230Y3037D01*
X547Y3036D02*
X669Y3036D01*
X939Y3036D02*
X1067Y3036D01*
X1440Y3036D02*
X2230Y3036D01*
X545Y3035D02*
X671Y3035D01*
X937Y3035D02*
X1069Y3035D01*
X1440Y3035D02*
X2230Y3035D01*
X543Y3034D02*
X673Y3034D01*
X936Y3034D02*
X1071Y3034D01*
X1440Y3034D02*
X2230Y3034D01*
X541Y3033D02*
X675Y3033D01*
X934Y3033D02*
X1073Y3033D01*
X1440Y3033D02*
X2230Y3033D01*
X539Y3032D02*
X677Y3032D01*
X932Y3032D02*
X1075Y3032D01*
X1440Y3032D02*
X2230Y3032D01*
X537Y3031D02*
X679Y3031D01*
X930Y3031D02*
X1076Y3031D01*
X1440Y3031D02*
X2230Y3031D01*
X536Y3030D02*
X680Y3030D01*
X929Y3030D02*
X1078Y3030D01*
X1440Y3030D02*
X2230Y3030D01*
X534Y3029D02*
X682Y3029D01*
X927Y3029D02*
X1079Y3029D01*
X1440Y3029D02*
X2230Y3029D01*
X532Y3028D02*
X683Y3028D01*
X926Y3028D02*
X1081Y3028D01*
X1440Y3028D02*
X2230Y3028D01*
X531Y3027D02*
X685Y3027D01*
X924Y3027D02*
X1082Y3027D01*
X1440Y3027D02*
X2230Y3027D01*
X529Y3026D02*
X686Y3026D01*
X923Y3026D02*
X1084Y3026D01*
X1440Y3026D02*
X2230Y3026D01*
X528Y3025D02*
X688Y3025D01*
X921Y3025D02*
X1085Y3025D01*
X1440Y3025D02*
X2230Y3025D01*
X526Y3024D02*
X689Y3024D01*
X920Y3024D02*
X1087Y3024D01*
X1440Y3024D02*
X2230Y3024D01*
X525Y3023D02*
X691Y3023D01*
X919Y3023D02*
X1088Y3023D01*
X1440Y3023D02*
X2230Y3023D01*
X524Y3022D02*
X692Y3022D01*
X917Y3022D02*
X1089Y3022D01*
X1440Y3022D02*
X2230Y3022D01*
X522Y3021D02*
X693Y3021D01*
X916Y3021D02*
X1091Y3021D01*
X1440Y3021D02*
X2230Y3021D01*
X521Y3020D02*
X695Y3020D01*
X915Y3020D02*
X1092Y3020D01*
X1440Y3020D02*
X2230Y3020D01*
X520Y3019D02*
X696Y3019D01*
X913Y3019D02*
X1093Y3019D01*
X1440Y3019D02*
X2230Y3019D01*
X518Y3018D02*
X697Y3018D01*
X912Y3018D02*
X1094Y3018D01*
X1440Y3018D02*
X2230Y3018D01*
X517Y3017D02*
X699Y3017D01*
X911Y3017D02*
X1096Y3017D01*
X1440Y3017D02*
X2230Y3017D01*
X516Y3016D02*
X700Y3016D01*
X910Y3016D02*
X1097Y3016D01*
X1440Y3016D02*
X2230Y3016D01*
X515Y3015D02*
X701Y3015D01*
X909Y3015D02*
X1098Y3015D01*
X1440Y3015D02*
X2230Y3015D01*
X514Y3014D02*
X702Y3014D01*
X908Y3014D02*
X1099Y3014D01*
X1440Y3014D02*
X2230Y3014D01*
X513Y3013D02*
X703Y3013D01*
X907Y3013D02*
X1100Y3013D01*
X1440Y3013D02*
X2230Y3013D01*
X511Y3012D02*
X704Y3012D01*
X906Y3012D02*
X1101Y3012D01*
X1440Y3012D02*
X2230Y3012D01*
X510Y3011D02*
X705Y3011D01*
X905Y3011D02*
X1102Y3011D01*
X1440Y3011D02*
X2230Y3011D01*
X509Y3010D02*
X706Y3010D01*
X904Y3010D02*
X1103Y3010D01*
X1440Y3010D02*
X2230Y3010D01*
X508Y3009D02*
X707Y3009D01*
X903Y3009D02*
X1104Y3009D01*
X1440Y3009D02*
X2230Y3009D01*
X507Y3008D02*
X708Y3008D01*
X902Y3008D02*
X1105Y3008D01*
X1440Y3008D02*
X2230Y3008D01*
X506Y3007D02*
X709Y3007D01*
X901Y3007D02*
X1106Y3007D01*
X1440Y3007D02*
X2230Y3007D01*
X505Y3006D02*
X710Y3006D01*
X900Y3006D02*
X1107Y3006D01*
X1440Y3006D02*
X2230Y3006D01*
X504Y3005D02*
X711Y3005D01*
X899Y3005D02*
X1108Y3005D01*
X1440Y3005D02*
X2230Y3005D01*
X503Y3004D02*
X712Y3004D01*
X898Y3004D02*
X1109Y3004D01*
X1440Y3004D02*
X2230Y3004D01*
X503Y3003D02*
X713Y3003D01*
X897Y3003D02*
X1110Y3003D01*
X1440Y3003D02*
X2230Y3003D01*
X502Y3002D02*
X714Y3002D01*
X896Y3002D02*
X1111Y3002D01*
X1440Y3002D02*
X2230Y3002D01*
X501Y3001D02*
X715Y3001D01*
X895Y3001D02*
X1111Y3001D01*
X1440Y3001D02*
X2231Y3001D01*
X500Y3000D02*
X716Y3000D01*
X894Y3000D02*
X1112Y3000D01*
X1440Y3000D02*
X2231Y3000D01*
X499Y2999D02*
X716Y2999D01*
X893Y2999D02*
X1113Y2999D01*
X1440Y2999D02*
X2231Y2999D01*
X498Y2998D02*
X717Y2998D01*
X893Y2998D02*
X1114Y2998D01*
X1440Y2998D02*
X2231Y2998D01*
X497Y2997D02*
X718Y2997D01*
X892Y2997D02*
X1115Y2997D01*
X1440Y2997D02*
X2231Y2997D01*
X497Y2996D02*
X719Y2996D01*
X891Y2996D02*
X1001Y2996D01*
X1007Y2996D02*
X1116Y2996D01*
X1440Y2996D02*
X2231Y2996D01*
X496Y2995D02*
X720Y2995D01*
X890Y2995D02*
X990Y2995D01*
X1017Y2995D02*
X1116Y2995D01*
X1440Y2995D02*
X2231Y2995D01*
X495Y2994D02*
X596Y2994D01*
X618Y2994D02*
X721Y2994D01*
X889Y2994D02*
X985Y2994D01*
X1022Y2994D02*
X1117Y2994D01*
X1440Y2994D02*
X2231Y2994D01*
X494Y2993D02*
X589Y2993D01*
X624Y2993D02*
X721Y2993D01*
X889Y2993D02*
X981Y2993D01*
X1026Y2993D02*
X1118Y2993D01*
X1440Y2993D02*
X2231Y2993D01*
X493Y2992D02*
X585Y2992D01*
X628Y2992D02*
X722Y2992D01*
X888Y2992D02*
X978Y2992D01*
X1030Y2992D02*
X1118Y2992D01*
X1440Y2992D02*
X2231Y2992D01*
X493Y2991D02*
X581Y2991D01*
X632Y2991D02*
X723Y2991D01*
X887Y2991D02*
X975Y2991D01*
X1033Y2991D02*
X1119Y2991D01*
X1440Y2991D02*
X2231Y2991D01*
X492Y2990D02*
X578Y2990D01*
X635Y2990D02*
X723Y2990D01*
X887Y2990D02*
X972Y2990D01*
X1035Y2990D02*
X1120Y2990D01*
X1440Y2990D02*
X2231Y2990D01*
X491Y2989D02*
X576Y2989D01*
X638Y2989D02*
X724Y2989D01*
X886Y2989D02*
X970Y2989D01*
X1038Y2989D02*
X1121Y2989D01*
X1440Y2989D02*
X2231Y2989D01*
X491Y2988D02*
X573Y2988D01*
X640Y2988D02*
X725Y2988D01*
X885Y2988D02*
X968Y2988D01*
X1040Y2988D02*
X1121Y2988D01*
X1441Y2988D02*
X2231Y2988D01*
X490Y2987D02*
X571Y2987D01*
X642Y2987D02*
X726Y2987D01*
X885Y2987D02*
X965Y2987D01*
X1043Y2987D02*
X1122Y2987D01*
X1441Y2987D02*
X2231Y2987D01*
X489Y2986D02*
X569Y2986D01*
X645Y2986D02*
X726Y2986D01*
X884Y2986D02*
X963Y2986D01*
X1045Y2986D02*
X1123Y2986D01*
X1441Y2986D02*
X2231Y2986D01*
X489Y2985D02*
X566Y2985D01*
X647Y2985D02*
X727Y2985D01*
X883Y2985D02*
X961Y2985D01*
X1046Y2985D02*
X1123Y2985D01*
X1441Y2985D02*
X2231Y2985D01*
X488Y2984D02*
X565Y2984D01*
X648Y2984D02*
X727Y2984D01*
X883Y2984D02*
X960Y2984D01*
X1048Y2984D02*
X1124Y2984D01*
X1441Y2984D02*
X2231Y2984D01*
X487Y2983D02*
X563Y2983D01*
X650Y2983D02*
X728Y2983D01*
X882Y2983D02*
X958Y2983D01*
X1050Y2983D02*
X1124Y2983D01*
X1441Y2983D02*
X2231Y2983D01*
X487Y2982D02*
X561Y2982D01*
X652Y2982D02*
X729Y2982D01*
X881Y2982D02*
X957Y2982D01*
X1052Y2982D02*
X1125Y2982D01*
X1441Y2982D02*
X2231Y2982D01*
X486Y2981D02*
X560Y2981D01*
X653Y2981D02*
X729Y2981D01*
X881Y2981D02*
X955Y2981D01*
X1053Y2981D02*
X1126Y2981D01*
X1441Y2981D02*
X2231Y2981D01*
X485Y2980D02*
X558Y2980D01*
X655Y2980D02*
X730Y2980D01*
X880Y2980D02*
X954Y2980D01*
X1055Y2980D02*
X1126Y2980D01*
X1441Y2980D02*
X2231Y2980D01*
X485Y2979D02*
X557Y2979D01*
X656Y2979D02*
X731Y2979D01*
X880Y2979D02*
X952Y2979D01*
X1056Y2979D02*
X1127Y2979D01*
X1441Y2979D02*
X2231Y2979D01*
X484Y2978D02*
X555Y2978D01*
X658Y2978D02*
X731Y2978D01*
X879Y2978D02*
X951Y2978D01*
X1057Y2978D02*
X1127Y2978D01*
X1441Y2978D02*
X2231Y2978D01*
X484Y2977D02*
X554Y2977D01*
X659Y2977D02*
X732Y2977D01*
X879Y2977D02*
X950Y2977D01*
X1059Y2977D02*
X1128Y2977D01*
X1441Y2977D02*
X2231Y2977D01*
X483Y2976D02*
X553Y2976D01*
X660Y2976D02*
X732Y2976D01*
X878Y2976D02*
X948Y2976D01*
X1060Y2976D02*
X1128Y2976D01*
X1441Y2976D02*
X2231Y2976D01*
X483Y2975D02*
X551Y2975D01*
X662Y2975D02*
X733Y2975D01*
X878Y2975D02*
X947Y2975D01*
X1061Y2975D02*
X1129Y2975D01*
X1441Y2975D02*
X2231Y2975D01*
X482Y2974D02*
X550Y2974D01*
X663Y2974D02*
X733Y2974D01*
X877Y2974D02*
X946Y2974D01*
X1062Y2974D02*
X1129Y2974D01*
X1441Y2974D02*
X2231Y2974D01*
X482Y2973D02*
X549Y2973D01*
X664Y2973D02*
X734Y2973D01*
X877Y2973D02*
X945Y2973D01*
X1063Y2973D02*
X1130Y2973D01*
X1441Y2973D02*
X2231Y2973D01*
X481Y2972D02*
X548Y2972D01*
X665Y2972D02*
X734Y2972D01*
X876Y2972D02*
X944Y2972D01*
X1064Y2972D02*
X1130Y2972D01*
X1441Y2972D02*
X2231Y2972D01*
X480Y2971D02*
X547Y2971D01*
X666Y2971D02*
X735Y2971D01*
X876Y2971D02*
X943Y2971D01*
X1065Y2971D02*
X1131Y2971D01*
X1441Y2971D02*
X2231Y2971D01*
X480Y2970D02*
X546Y2970D01*
X667Y2970D02*
X735Y2970D01*
X875Y2970D02*
X942Y2970D01*
X1066Y2970D02*
X1131Y2970D01*
X1441Y2970D02*
X2231Y2970D01*
X479Y2969D02*
X545Y2969D01*
X668Y2969D02*
X736Y2969D01*
X875Y2969D02*
X941Y2969D01*
X1067Y2969D02*
X1132Y2969D01*
X1441Y2969D02*
X2231Y2969D01*
X479Y2968D02*
X544Y2968D01*
X669Y2968D02*
X736Y2968D01*
X874Y2968D02*
X940Y2968D01*
X1068Y2968D02*
X1132Y2968D01*
X1441Y2968D02*
X2231Y2968D01*
X479Y2967D02*
X543Y2967D01*
X670Y2967D02*
X737Y2967D01*
X874Y2967D02*
X939Y2967D01*
X1069Y2967D02*
X1133Y2967D01*
X1441Y2967D02*
X2231Y2967D01*
X478Y2966D02*
X542Y2966D01*
X671Y2966D02*
X737Y2966D01*
X873Y2966D02*
X938Y2966D01*
X1070Y2966D02*
X1133Y2966D01*
X1441Y2966D02*
X2231Y2966D01*
X478Y2965D02*
X541Y2965D01*
X672Y2965D02*
X738Y2965D01*
X873Y2965D02*
X937Y2965D01*
X1071Y2965D02*
X1134Y2965D01*
X1441Y2965D02*
X2231Y2965D01*
X477Y2964D02*
X540Y2964D01*
X673Y2964D02*
X738Y2964D01*
X872Y2964D02*
X936Y2964D01*
X1072Y2964D02*
X1134Y2964D01*
X1441Y2964D02*
X2231Y2964D01*
X477Y2963D02*
X540Y2963D01*
X674Y2963D02*
X738Y2963D01*
X872Y2963D02*
X935Y2963D01*
X1072Y2963D02*
X1135Y2963D01*
X1441Y2963D02*
X2231Y2963D01*
X476Y2962D02*
X539Y2962D01*
X675Y2962D02*
X739Y2962D01*
X872Y2962D02*
X935Y2962D01*
X1073Y2962D02*
X1135Y2962D01*
X1441Y2962D02*
X2231Y2962D01*
X476Y2961D02*
X538Y2961D01*
X676Y2961D02*
X739Y2961D01*
X871Y2961D02*
X934Y2961D01*
X1074Y2961D02*
X1135Y2961D01*
X1441Y2961D02*
X2231Y2961D01*
X476Y2960D02*
X537Y2960D01*
X676Y2960D02*
X740Y2960D01*
X871Y2960D02*
X933Y2960D01*
X1075Y2960D02*
X1136Y2960D01*
X1441Y2960D02*
X2231Y2960D01*
X475Y2959D02*
X537Y2959D01*
X677Y2959D02*
X740Y2959D01*
X871Y2959D02*
X932Y2959D01*
X1075Y2959D02*
X1136Y2959D01*
X1441Y2959D02*
X2231Y2959D01*
X475Y2958D02*
X536Y2958D01*
X678Y2958D02*
X741Y2958D01*
X870Y2958D02*
X932Y2958D01*
X1076Y2958D02*
X1137Y2958D01*
X1441Y2958D02*
X2231Y2958D01*
X474Y2957D02*
X535Y2957D01*
X679Y2957D02*
X741Y2957D01*
X870Y2957D02*
X931Y2957D01*
X1077Y2957D02*
X1137Y2957D01*
X1441Y2957D02*
X2231Y2957D01*
X474Y2956D02*
X534Y2956D01*
X679Y2956D02*
X741Y2956D01*
X870Y2956D02*
X930Y2956D01*
X1077Y2956D02*
X1137Y2956D01*
X1441Y2956D02*
X2231Y2956D01*
X474Y2955D02*
X534Y2955D01*
X680Y2955D02*
X742Y2955D01*
X869Y2955D02*
X930Y2955D01*
X1078Y2955D02*
X1138Y2955D01*
X1441Y2955D02*
X2231Y2955D01*
X473Y2954D02*
X533Y2954D01*
X681Y2954D02*
X742Y2954D01*
X869Y2954D02*
X929Y2954D01*
X1079Y2954D02*
X1138Y2954D01*
X1441Y2954D02*
X2232Y2954D01*
X473Y2953D02*
X532Y2953D01*
X681Y2953D02*
X742Y2953D01*
X869Y2953D02*
X929Y2953D01*
X1079Y2953D02*
X1138Y2953D01*
X1441Y2953D02*
X2232Y2953D01*
X473Y2952D02*
X532Y2952D01*
X682Y2952D02*
X743Y2952D01*
X868Y2952D02*
X928Y2952D01*
X1080Y2952D02*
X1139Y2952D01*
X1441Y2952D02*
X2232Y2952D01*
X472Y2951D02*
X531Y2951D01*
X682Y2951D02*
X743Y2951D01*
X868Y2951D02*
X927Y2951D01*
X1080Y2951D02*
X1139Y2951D01*
X1441Y2951D02*
X2232Y2951D01*
X472Y2950D02*
X531Y2950D01*
X683Y2950D02*
X743Y2950D01*
X868Y2950D02*
X927Y2950D01*
X1081Y2950D02*
X1139Y2950D01*
X1441Y2950D02*
X2232Y2950D01*
X472Y2949D02*
X530Y2949D01*
X683Y2949D02*
X744Y2949D01*
X867Y2949D02*
X926Y2949D01*
X1081Y2949D02*
X1140Y2949D01*
X1441Y2949D02*
X2232Y2949D01*
X471Y2948D02*
X530Y2948D01*
X684Y2948D02*
X744Y2948D01*
X867Y2948D02*
X926Y2948D01*
X1082Y2948D02*
X1140Y2948D01*
X1441Y2948D02*
X2232Y2948D01*
X471Y2947D02*
X529Y2947D01*
X685Y2947D02*
X744Y2947D01*
X867Y2947D02*
X925Y2947D01*
X1082Y2947D02*
X1140Y2947D01*
X1441Y2947D02*
X2232Y2947D01*
X471Y2946D02*
X529Y2946D01*
X685Y2946D02*
X744Y2946D01*
X867Y2946D02*
X925Y2946D01*
X1083Y2946D02*
X1140Y2946D01*
X1441Y2946D02*
X2232Y2946D01*
X470Y2945D02*
X528Y2945D01*
X686Y2945D02*
X745Y2945D01*
X866Y2945D02*
X924Y2945D01*
X1083Y2945D02*
X1141Y2945D01*
X1441Y2945D02*
X2232Y2945D01*
X470Y2944D02*
X528Y2944D01*
X686Y2944D02*
X745Y2944D01*
X866Y2944D02*
X924Y2944D01*
X1084Y2944D02*
X1141Y2944D01*
X1441Y2944D02*
X2232Y2944D01*
X470Y2943D02*
X527Y2943D01*
X686Y2943D02*
X745Y2943D01*
X866Y2943D02*
X923Y2943D01*
X1084Y2943D02*
X1141Y2943D01*
X1441Y2943D02*
X2232Y2943D01*
X470Y2942D02*
X527Y2942D01*
X687Y2942D02*
X746Y2942D01*
X866Y2942D02*
X923Y2942D01*
X1085Y2942D02*
X1141Y2942D01*
X1441Y2942D02*
X2232Y2942D01*
X469Y2941D02*
X526Y2941D01*
X687Y2941D02*
X746Y2941D01*
X865Y2941D02*
X923Y2941D01*
X1085Y2941D02*
X1142Y2941D01*
X1442Y2941D02*
X2232Y2941D01*
X469Y2940D02*
X526Y2940D01*
X688Y2940D02*
X746Y2940D01*
X865Y2940D02*
X922Y2940D01*
X1085Y2940D02*
X1142Y2940D01*
X1442Y2940D02*
X2232Y2940D01*
X469Y2939D02*
X525Y2939D01*
X688Y2939D02*
X746Y2939D01*
X865Y2939D02*
X922Y2939D01*
X1086Y2939D02*
X1142Y2939D01*
X1442Y2939D02*
X2232Y2939D01*
X469Y2938D02*
X525Y2938D01*
X689Y2938D02*
X747Y2938D01*
X865Y2938D02*
X921Y2938D01*
X1086Y2938D02*
X1142Y2938D01*
X1442Y2938D02*
X2232Y2938D01*
X468Y2937D02*
X525Y2937D01*
X689Y2937D02*
X747Y2937D01*
X865Y2937D02*
X921Y2937D01*
X1086Y2937D02*
X1142Y2937D01*
X1442Y2937D02*
X2232Y2937D01*
X468Y2936D02*
X524Y2936D01*
X689Y2936D02*
X747Y2936D01*
X864Y2936D02*
X921Y2936D01*
X1087Y2936D02*
X1143Y2936D01*
X1442Y2936D02*
X2232Y2936D01*
X468Y2935D02*
X524Y2935D01*
X690Y2935D02*
X747Y2935D01*
X864Y2935D02*
X920Y2935D01*
X1087Y2935D02*
X1143Y2935D01*
X1442Y2935D02*
X2232Y2935D01*
X468Y2934D02*
X524Y2934D01*
X690Y2934D02*
X747Y2934D01*
X864Y2934D02*
X920Y2934D01*
X1087Y2934D02*
X1143Y2934D01*
X1442Y2934D02*
X1939Y2934D01*
X2043Y2934D02*
X2232Y2934D01*
X468Y2933D02*
X523Y2933D01*
X690Y2933D02*
X747Y2933D01*
X864Y2933D02*
X920Y2933D01*
X1088Y2933D02*
X1143Y2933D01*
X1442Y2933D02*
X1907Y2933D01*
X2043Y2933D02*
X2232Y2933D01*
X467Y2932D02*
X523Y2932D01*
X691Y2932D02*
X748Y2932D01*
X864Y2932D02*
X920Y2932D01*
X1088Y2932D02*
X1143Y2932D01*
X1442Y2932D02*
X1652Y2932D01*
X1774Y2932D02*
X1907Y2932D01*
X2043Y2932D02*
X2232Y2932D01*
X467Y2931D02*
X523Y2931D01*
X691Y2931D02*
X748Y2931D01*
X864Y2931D02*
X919Y2931D01*
X1088Y2931D02*
X1144Y2931D01*
X1442Y2931D02*
X1639Y2931D01*
X1774Y2931D02*
X1907Y2931D01*
X2043Y2931D02*
X2232Y2931D01*
X467Y2930D02*
X522Y2930D01*
X691Y2930D02*
X748Y2930D01*
X863Y2930D02*
X919Y2930D01*
X1088Y2930D02*
X1144Y2930D01*
X1442Y2930D02*
X1639Y2930D01*
X1774Y2930D02*
X1907Y2930D01*
X2043Y2930D02*
X2232Y2930D01*
X467Y2929D02*
X522Y2929D01*
X691Y2929D02*
X748Y2929D01*
X863Y2929D02*
X919Y2929D01*
X1089Y2929D02*
X1144Y2929D01*
X1442Y2929D02*
X1639Y2929D01*
X1774Y2929D02*
X1907Y2929D01*
X2043Y2929D02*
X2232Y2929D01*
X467Y2928D02*
X522Y2928D01*
X692Y2928D02*
X748Y2928D01*
X863Y2928D02*
X919Y2928D01*
X1089Y2928D02*
X1144Y2928D01*
X1442Y2928D02*
X1639Y2928D01*
X1774Y2928D02*
X1907Y2928D01*
X2043Y2928D02*
X2232Y2928D01*
X467Y2927D02*
X522Y2927D01*
X692Y2927D02*
X749Y2927D01*
X863Y2927D02*
X918Y2927D01*
X1089Y2927D02*
X1144Y2927D01*
X1442Y2927D02*
X1639Y2927D01*
X1774Y2927D02*
X1907Y2927D01*
X2043Y2927D02*
X2232Y2927D01*
X466Y2926D02*
X521Y2926D01*
X692Y2926D02*
X749Y2926D01*
X863Y2926D02*
X918Y2926D01*
X1089Y2926D02*
X1144Y2926D01*
X1442Y2926D02*
X1639Y2926D01*
X1774Y2926D02*
X1907Y2926D01*
X2043Y2926D02*
X2232Y2926D01*
X466Y2925D02*
X521Y2925D01*
X692Y2925D02*
X749Y2925D01*
X863Y2925D02*
X918Y2925D01*
X1090Y2925D02*
X1144Y2925D01*
X1442Y2925D02*
X1639Y2925D01*
X1774Y2925D02*
X1907Y2925D01*
X2043Y2925D02*
X2232Y2925D01*
X466Y2924D02*
X521Y2924D01*
X693Y2924D02*
X749Y2924D01*
X863Y2924D02*
X918Y2924D01*
X1090Y2924D02*
X1145Y2924D01*
X1442Y2924D02*
X1639Y2924D01*
X1774Y2924D02*
X1907Y2924D01*
X2043Y2924D02*
X2232Y2924D01*
X466Y2923D02*
X521Y2923D01*
X693Y2923D02*
X749Y2923D01*
X863Y2923D02*
X918Y2923D01*
X1090Y2923D02*
X1145Y2923D01*
X1442Y2923D02*
X1639Y2923D01*
X1774Y2923D02*
X1907Y2923D01*
X2043Y2923D02*
X2232Y2923D01*
X466Y2922D02*
X521Y2922D01*
X693Y2922D02*
X749Y2922D01*
X863Y2922D02*
X917Y2922D01*
X1090Y2922D02*
X1145Y2922D01*
X1442Y2922D02*
X1639Y2922D01*
X1774Y2922D02*
X1907Y2922D01*
X2043Y2922D02*
X2232Y2922D01*
X466Y2921D02*
X520Y2921D01*
X693Y2921D02*
X749Y2921D01*
X862Y2921D02*
X917Y2921D01*
X1090Y2921D02*
X1145Y2921D01*
X1442Y2921D02*
X1639Y2921D01*
X1774Y2921D02*
X1907Y2921D01*
X2043Y2921D02*
X2232Y2921D01*
X466Y2920D02*
X520Y2920D01*
X693Y2920D02*
X749Y2920D01*
X862Y2920D02*
X917Y2920D01*
X1090Y2920D02*
X1145Y2920D01*
X1442Y2920D02*
X1639Y2920D01*
X1774Y2920D02*
X1907Y2920D01*
X2043Y2920D02*
X2232Y2920D01*
X466Y2919D02*
X520Y2919D01*
X693Y2919D02*
X749Y2919D01*
X862Y2919D02*
X917Y2919D01*
X1090Y2919D02*
X1145Y2919D01*
X1442Y2919D02*
X1639Y2919D01*
X1774Y2919D02*
X1907Y2919D01*
X2043Y2919D02*
X2232Y2919D01*
X466Y2918D02*
X520Y2918D01*
X693Y2918D02*
X750Y2918D01*
X862Y2918D02*
X917Y2918D01*
X1091Y2918D02*
X1145Y2918D01*
X1442Y2918D02*
X1639Y2918D01*
X1774Y2918D02*
X1907Y2918D01*
X2043Y2918D02*
X2232Y2918D01*
X465Y2917D02*
X520Y2917D01*
X694Y2917D02*
X750Y2917D01*
X862Y2917D02*
X917Y2917D01*
X1091Y2917D02*
X1145Y2917D01*
X1442Y2917D02*
X1639Y2917D01*
X1774Y2917D02*
X1907Y2917D01*
X2043Y2917D02*
X2232Y2917D01*
X465Y2916D02*
X520Y2916D01*
X694Y2916D02*
X750Y2916D01*
X862Y2916D02*
X917Y2916D01*
X1091Y2916D02*
X1145Y2916D01*
X1442Y2916D02*
X1639Y2916D01*
X1774Y2916D02*
X1907Y2916D01*
X2043Y2916D02*
X2232Y2916D01*
X465Y2915D02*
X520Y2915D01*
X694Y2915D02*
X750Y2915D01*
X862Y2915D02*
X917Y2915D01*
X1091Y2915D02*
X1145Y2915D01*
X1442Y2915D02*
X1639Y2915D01*
X1774Y2915D02*
X1907Y2915D01*
X2043Y2915D02*
X2232Y2915D01*
X465Y2914D02*
X520Y2914D01*
X694Y2914D02*
X750Y2914D01*
X862Y2914D02*
X917Y2914D01*
X1091Y2914D02*
X1145Y2914D01*
X1442Y2914D02*
X1639Y2914D01*
X1774Y2914D02*
X1907Y2914D01*
X2043Y2914D02*
X2232Y2914D01*
X465Y2913D02*
X520Y2913D01*
X694Y2913D02*
X750Y2913D01*
X862Y2913D02*
X917Y2913D01*
X1091Y2913D02*
X1145Y2913D01*
X1442Y2913D02*
X1639Y2913D01*
X1774Y2913D02*
X1907Y2913D01*
X2043Y2913D02*
X2232Y2913D01*
X465Y2912D02*
X520Y2912D01*
X694Y2912D02*
X750Y2912D01*
X862Y2912D02*
X917Y2912D01*
X1091Y2912D02*
X1145Y2912D01*
X1442Y2912D02*
X1639Y2912D01*
X1774Y2912D02*
X1907Y2912D01*
X2043Y2912D02*
X2232Y2912D01*
X465Y2911D02*
X520Y2911D01*
X694Y2911D02*
X750Y2911D01*
X862Y2911D02*
X916Y2911D01*
X1091Y2911D02*
X1146Y2911D01*
X1442Y2911D02*
X1639Y2911D01*
X1774Y2911D02*
X1907Y2911D01*
X2043Y2911D02*
X2232Y2911D01*
X465Y2910D02*
X520Y2910D01*
X694Y2910D02*
X750Y2910D01*
X862Y2910D02*
X916Y2910D01*
X1091Y2910D02*
X1146Y2910D01*
X1442Y2910D02*
X1639Y2910D01*
X1774Y2910D02*
X1907Y2910D01*
X2043Y2910D02*
X2232Y2910D01*
X465Y2909D02*
X520Y2909D01*
X694Y2909D02*
X750Y2909D01*
X862Y2909D02*
X916Y2909D01*
X1091Y2909D02*
X1146Y2909D01*
X1442Y2909D02*
X1639Y2909D01*
X1774Y2909D02*
X1907Y2909D01*
X2043Y2909D02*
X2232Y2909D01*
X465Y2908D02*
X520Y2908D01*
X694Y2908D02*
X750Y2908D01*
X862Y2908D02*
X917Y2908D01*
X1091Y2908D02*
X1146Y2908D01*
X1442Y2908D02*
X1639Y2908D01*
X1774Y2908D02*
X1907Y2908D01*
X2043Y2908D02*
X2232Y2908D01*
X465Y2907D02*
X520Y2907D01*
X694Y2907D02*
X750Y2907D01*
X862Y2907D02*
X917Y2907D01*
X1091Y2907D02*
X1146Y2907D01*
X1442Y2907D02*
X1639Y2907D01*
X1774Y2907D02*
X1907Y2907D01*
X2043Y2907D02*
X2232Y2907D01*
X465Y2906D02*
X520Y2906D01*
X694Y2906D02*
X750Y2906D01*
X862Y2906D02*
X917Y2906D01*
X1091Y2906D02*
X1146Y2906D01*
X1442Y2906D02*
X1639Y2906D01*
X1774Y2906D02*
X1907Y2906D01*
X2043Y2906D02*
X2233Y2906D01*
X465Y2905D02*
X520Y2905D01*
X694Y2905D02*
X750Y2905D01*
X862Y2905D02*
X917Y2905D01*
X1091Y2905D02*
X1146Y2905D01*
X1442Y2905D02*
X1639Y2905D01*
X1774Y2905D02*
X1907Y2905D01*
X2043Y2905D02*
X2233Y2905D01*
X465Y2904D02*
X520Y2904D01*
X694Y2904D02*
X750Y2904D01*
X862Y2904D02*
X917Y2904D01*
X1091Y2904D02*
X1146Y2904D01*
X1442Y2904D02*
X1639Y2904D01*
X1774Y2904D02*
X1907Y2904D01*
X2043Y2904D02*
X2233Y2904D01*
X465Y2903D02*
X520Y2903D01*
X694Y2903D02*
X750Y2903D01*
X862Y2903D02*
X917Y2903D01*
X1091Y2903D02*
X1146Y2903D01*
X1442Y2903D02*
X1639Y2903D01*
X1774Y2903D02*
X1907Y2903D01*
X2043Y2903D02*
X2233Y2903D01*
X465Y2902D02*
X520Y2902D01*
X694Y2902D02*
X750Y2902D01*
X862Y2902D02*
X917Y2902D01*
X1091Y2902D02*
X1145Y2902D01*
X1442Y2902D02*
X1639Y2902D01*
X1774Y2902D02*
X1907Y2902D01*
X2043Y2902D02*
X2233Y2902D01*
X465Y2901D02*
X520Y2901D01*
X694Y2901D02*
X750Y2901D01*
X862Y2901D02*
X917Y2901D01*
X1091Y2901D02*
X1145Y2901D01*
X1442Y2901D02*
X1639Y2901D01*
X1774Y2901D02*
X1907Y2901D01*
X2076Y2901D02*
X2233Y2901D01*
X465Y2900D02*
X520Y2900D01*
X694Y2900D02*
X750Y2900D01*
X862Y2900D02*
X917Y2900D01*
X1091Y2900D02*
X1145Y2900D01*
X1442Y2900D02*
X1639Y2900D01*
X1774Y2900D02*
X1878Y2900D01*
X2076Y2900D02*
X2233Y2900D01*
X465Y2899D02*
X520Y2899D01*
X694Y2899D02*
X750Y2899D01*
X862Y2899D02*
X917Y2899D01*
X1091Y2899D02*
X1145Y2899D01*
X1442Y2899D02*
X1639Y2899D01*
X1808Y2899D02*
X1874Y2899D01*
X2076Y2899D02*
X2233Y2899D01*
X465Y2898D02*
X520Y2898D01*
X694Y2898D02*
X750Y2898D01*
X862Y2898D02*
X917Y2898D01*
X1090Y2898D02*
X1145Y2898D01*
X1442Y2898D02*
X1606Y2898D01*
X1808Y2898D02*
X1874Y2898D01*
X2076Y2898D02*
X2233Y2898D01*
X466Y2897D02*
X520Y2897D01*
X694Y2897D02*
X750Y2897D01*
X862Y2897D02*
X917Y2897D01*
X1090Y2897D02*
X1145Y2897D01*
X1442Y2897D02*
X1605Y2897D01*
X1808Y2897D02*
X1874Y2897D01*
X2076Y2897D02*
X2233Y2897D01*
X466Y2896D02*
X520Y2896D01*
X693Y2896D02*
X750Y2896D01*
X862Y2896D02*
X918Y2896D01*
X1090Y2896D02*
X1145Y2896D01*
X1442Y2896D02*
X1605Y2896D01*
X1808Y2896D02*
X1874Y2896D01*
X2076Y2896D02*
X2233Y2896D01*
X466Y2895D02*
X521Y2895D01*
X693Y2895D02*
X750Y2895D01*
X862Y2895D02*
X918Y2895D01*
X1090Y2895D02*
X1145Y2895D01*
X1442Y2895D02*
X1605Y2895D01*
X1808Y2895D02*
X1874Y2895D01*
X2076Y2895D02*
X2233Y2895D01*
X466Y2894D02*
X521Y2894D01*
X693Y2894D02*
X750Y2894D01*
X863Y2894D02*
X918Y2894D01*
X1090Y2894D02*
X1145Y2894D01*
X1443Y2894D02*
X1605Y2894D01*
X1808Y2894D02*
X1874Y2894D01*
X2076Y2894D02*
X2233Y2894D01*
X466Y2893D02*
X521Y2893D01*
X693Y2893D02*
X750Y2893D01*
X863Y2893D02*
X918Y2893D01*
X1090Y2893D02*
X1145Y2893D01*
X1443Y2893D02*
X1605Y2893D01*
X1808Y2893D02*
X1874Y2893D01*
X2076Y2893D02*
X2233Y2893D01*
X466Y2892D02*
X521Y2892D01*
X693Y2892D02*
X749Y2892D01*
X863Y2892D02*
X918Y2892D01*
X1090Y2892D02*
X1145Y2892D01*
X1443Y2892D02*
X1605Y2892D01*
X1808Y2892D02*
X1874Y2892D01*
X2076Y2892D02*
X2233Y2892D01*
X466Y2891D02*
X521Y2891D01*
X693Y2891D02*
X749Y2891D01*
X863Y2891D02*
X919Y2891D01*
X1089Y2891D02*
X1145Y2891D01*
X1443Y2891D02*
X1605Y2891D01*
X1808Y2891D02*
X1874Y2891D01*
X2076Y2891D02*
X2233Y2891D01*
X466Y2890D02*
X521Y2890D01*
X692Y2890D02*
X749Y2890D01*
X863Y2890D02*
X919Y2890D01*
X1089Y2890D02*
X1145Y2890D01*
X1443Y2890D02*
X1605Y2890D01*
X1808Y2890D02*
X1874Y2890D01*
X2076Y2890D02*
X2233Y2890D01*
X466Y2889D02*
X522Y2889D01*
X692Y2889D02*
X749Y2889D01*
X863Y2889D02*
X919Y2889D01*
X1089Y2889D02*
X1144Y2889D01*
X1443Y2889D02*
X1605Y2889D01*
X1808Y2889D02*
X1874Y2889D01*
X2076Y2889D02*
X2233Y2889D01*
X467Y2888D02*
X522Y2888D01*
X692Y2888D02*
X749Y2888D01*
X863Y2888D02*
X919Y2888D01*
X1089Y2888D02*
X1144Y2888D01*
X1443Y2888D02*
X1605Y2888D01*
X1808Y2888D02*
X1874Y2888D01*
X2076Y2888D02*
X2233Y2888D01*
X467Y2887D02*
X522Y2887D01*
X692Y2887D02*
X749Y2887D01*
X863Y2887D02*
X920Y2887D01*
X1088Y2887D02*
X1144Y2887D01*
X1443Y2887D02*
X1605Y2887D01*
X1808Y2887D02*
X1874Y2887D01*
X2076Y2887D02*
X2233Y2887D01*
X467Y2886D02*
X522Y2886D01*
X692Y2886D02*
X749Y2886D01*
X863Y2886D02*
X920Y2886D01*
X1088Y2886D02*
X1144Y2886D01*
X1443Y2886D02*
X1605Y2886D01*
X1808Y2886D02*
X1874Y2886D01*
X2076Y2886D02*
X2233Y2886D01*
X467Y2885D02*
X523Y2885D01*
X691Y2885D02*
X749Y2885D01*
X864Y2885D02*
X920Y2885D01*
X1088Y2885D02*
X1144Y2885D01*
X1443Y2885D02*
X1605Y2885D01*
X1808Y2885D02*
X1874Y2885D01*
X2076Y2885D02*
X2233Y2885D01*
X467Y2884D02*
X523Y2884D01*
X691Y2884D02*
X748Y2884D01*
X864Y2884D02*
X920Y2884D01*
X1088Y2884D02*
X1144Y2884D01*
X1443Y2884D02*
X1605Y2884D01*
X1808Y2884D02*
X1874Y2884D01*
X2076Y2884D02*
X2233Y2884D01*
X467Y2883D02*
X523Y2883D01*
X691Y2883D02*
X748Y2883D01*
X864Y2883D02*
X921Y2883D01*
X1087Y2883D02*
X1144Y2883D01*
X1443Y2883D02*
X1605Y2883D01*
X1808Y2883D02*
X1874Y2883D01*
X2076Y2883D02*
X2233Y2883D01*
X468Y2882D02*
X524Y2882D01*
X691Y2882D02*
X748Y2882D01*
X864Y2882D02*
X921Y2882D01*
X1087Y2882D02*
X1143Y2882D01*
X1443Y2882D02*
X1606Y2882D01*
X1808Y2882D02*
X1874Y2882D01*
X2076Y2882D02*
X2233Y2882D01*
X468Y2881D02*
X524Y2881D01*
X690Y2881D02*
X748Y2881D01*
X864Y2881D02*
X921Y2881D01*
X1087Y2881D02*
X1143Y2881D01*
X1443Y2881D02*
X1606Y2881D01*
X1808Y2881D02*
X1874Y2881D01*
X2076Y2881D02*
X2233Y2881D01*
X468Y2880D02*
X524Y2880D01*
X690Y2880D02*
X748Y2880D01*
X864Y2880D02*
X922Y2880D01*
X1086Y2880D02*
X1143Y2880D01*
X1443Y2880D02*
X1606Y2880D01*
X1808Y2880D02*
X1874Y2880D01*
X2076Y2880D02*
X2233Y2880D01*
X468Y2879D02*
X525Y2879D01*
X689Y2879D02*
X748Y2879D01*
X865Y2879D02*
X922Y2879D01*
X1086Y2879D02*
X1143Y2879D01*
X1443Y2879D02*
X1606Y2879D01*
X1808Y2879D02*
X1874Y2879D01*
X2076Y2879D02*
X2233Y2879D01*
X468Y2878D02*
X525Y2878D01*
X689Y2878D02*
X747Y2878D01*
X865Y2878D02*
X922Y2878D01*
X1086Y2878D02*
X1143Y2878D01*
X1443Y2878D02*
X1606Y2878D01*
X1808Y2878D02*
X1874Y2878D01*
X2076Y2878D02*
X2233Y2878D01*
X469Y2877D02*
X525Y2877D01*
X689Y2877D02*
X747Y2877D01*
X865Y2877D02*
X923Y2877D01*
X1085Y2877D02*
X1142Y2877D01*
X1443Y2877D02*
X1606Y2877D01*
X1808Y2877D02*
X1874Y2877D01*
X2076Y2877D02*
X2233Y2877D01*
X469Y2876D02*
X526Y2876D01*
X688Y2876D02*
X747Y2876D01*
X865Y2876D02*
X923Y2876D01*
X1085Y2876D02*
X1142Y2876D01*
X1443Y2876D02*
X1606Y2876D01*
X1808Y2876D02*
X1874Y2876D01*
X2076Y2876D02*
X2233Y2876D01*
X469Y2875D02*
X526Y2875D01*
X688Y2875D02*
X747Y2875D01*
X865Y2875D02*
X924Y2875D01*
X1084Y2875D02*
X1142Y2875D01*
X1443Y2875D02*
X1606Y2875D01*
X1808Y2875D02*
X1874Y2875D01*
X2076Y2875D02*
X2233Y2875D01*
X469Y2874D02*
X527Y2874D01*
X688Y2874D02*
X747Y2874D01*
X866Y2874D02*
X924Y2874D01*
X1084Y2874D02*
X1142Y2874D01*
X1443Y2874D02*
X1606Y2874D01*
X1808Y2874D02*
X1874Y2874D01*
X2077Y2874D02*
X2233Y2874D01*
X470Y2873D02*
X527Y2873D01*
X687Y2873D02*
X746Y2873D01*
X866Y2873D02*
X924Y2873D01*
X1084Y2873D02*
X1142Y2873D01*
X1443Y2873D02*
X1606Y2873D01*
X1808Y2873D02*
X1874Y2873D01*
X2077Y2873D02*
X2233Y2873D01*
X470Y2872D02*
X527Y2872D01*
X687Y2872D02*
X746Y2872D01*
X866Y2872D02*
X925Y2872D01*
X1083Y2872D02*
X1141Y2872D01*
X1443Y2872D02*
X1606Y2872D01*
X1808Y2872D02*
X1874Y2872D01*
X2077Y2872D02*
X2233Y2872D01*
X470Y2871D02*
X528Y2871D01*
X686Y2871D02*
X746Y2871D01*
X866Y2871D02*
X925Y2871D01*
X1083Y2871D02*
X1141Y2871D01*
X1443Y2871D02*
X1606Y2871D01*
X1808Y2871D02*
X1874Y2871D01*
X2077Y2871D02*
X2233Y2871D01*
X470Y2870D02*
X528Y2870D01*
X686Y2870D02*
X746Y2870D01*
X867Y2870D02*
X926Y2870D01*
X1082Y2870D02*
X1141Y2870D01*
X1443Y2870D02*
X1606Y2870D01*
X1808Y2870D02*
X1874Y2870D01*
X2077Y2870D02*
X2233Y2870D01*
X471Y2869D02*
X529Y2869D01*
X685Y2869D02*
X745Y2869D01*
X867Y2869D02*
X926Y2869D01*
X1082Y2869D02*
X1141Y2869D01*
X1443Y2869D02*
X1606Y2869D01*
X1808Y2869D02*
X1874Y2869D01*
X2077Y2869D02*
X2233Y2869D01*
X471Y2868D02*
X529Y2868D01*
X685Y2868D02*
X745Y2868D01*
X867Y2868D02*
X927Y2868D01*
X1081Y2868D02*
X1140Y2868D01*
X1443Y2868D02*
X1606Y2868D01*
X1808Y2868D02*
X1874Y2868D01*
X2077Y2868D02*
X2102Y2868D01*
X2110Y2868D02*
X2233Y2868D01*
X471Y2867D02*
X530Y2867D01*
X684Y2867D02*
X745Y2867D01*
X867Y2867D02*
X927Y2867D01*
X1081Y2867D02*
X1140Y2867D01*
X1443Y2867D02*
X1606Y2867D01*
X1808Y2867D02*
X1874Y2867D01*
X2110Y2867D02*
X2233Y2867D01*
X471Y2866D02*
X530Y2866D01*
X684Y2866D02*
X745Y2866D01*
X868Y2866D02*
X928Y2866D01*
X1080Y2866D02*
X1140Y2866D01*
X1443Y2866D02*
X1606Y2866D01*
X1808Y2866D02*
X1816Y2866D01*
X2110Y2866D02*
X2233Y2866D01*
X472Y2865D02*
X531Y2865D01*
X683Y2865D02*
X744Y2865D01*
X868Y2865D02*
X929Y2865D01*
X1079Y2865D02*
X1139Y2865D01*
X1443Y2865D02*
X1606Y2865D01*
X2110Y2865D02*
X2233Y2865D01*
X472Y2864D02*
X531Y2864D01*
X683Y2864D02*
X744Y2864D01*
X868Y2864D02*
X929Y2864D01*
X1079Y2864D02*
X1139Y2864D01*
X1443Y2864D02*
X1572Y2864D01*
X2110Y2864D02*
X2233Y2864D01*
X472Y2863D02*
X532Y2863D01*
X682Y2863D02*
X744Y2863D01*
X869Y2863D02*
X930Y2863D01*
X1078Y2863D02*
X1139Y2863D01*
X1443Y2863D02*
X1572Y2863D01*
X2110Y2863D02*
X2233Y2863D01*
X473Y2862D02*
X533Y2862D01*
X681Y2862D02*
X743Y2862D01*
X869Y2862D02*
X930Y2862D01*
X1077Y2862D02*
X1138Y2862D01*
X1443Y2862D02*
X1572Y2862D01*
X2110Y2862D02*
X2233Y2862D01*
X473Y2861D02*
X533Y2861D01*
X681Y2861D02*
X743Y2861D01*
X869Y2861D02*
X931Y2861D01*
X1077Y2861D02*
X1138Y2861D01*
X1443Y2861D02*
X1572Y2861D01*
X2110Y2861D02*
X2233Y2861D01*
X474Y2860D02*
X534Y2860D01*
X680Y2860D02*
X743Y2860D01*
X870Y2860D02*
X932Y2860D01*
X1076Y2860D02*
X1138Y2860D01*
X1443Y2860D02*
X1572Y2860D01*
X2110Y2860D02*
X2233Y2860D01*
X474Y2859D02*
X535Y2859D01*
X679Y2859D02*
X742Y2859D01*
X870Y2859D02*
X933Y2859D01*
X1075Y2859D02*
X1137Y2859D01*
X1443Y2859D02*
X1572Y2859D01*
X2110Y2859D02*
X2234Y2859D01*
X474Y2858D02*
X535Y2858D01*
X679Y2858D02*
X742Y2858D01*
X870Y2858D02*
X933Y2858D01*
X1075Y2858D02*
X1137Y2858D01*
X1443Y2858D02*
X1572Y2858D01*
X2110Y2858D02*
X2234Y2858D01*
X475Y2857D02*
X536Y2857D01*
X678Y2857D02*
X742Y2857D01*
X871Y2857D02*
X934Y2857D01*
X1074Y2857D02*
X1137Y2857D01*
X1443Y2857D02*
X1572Y2857D01*
X2110Y2857D02*
X2234Y2857D01*
X475Y2856D02*
X537Y2856D01*
X677Y2856D02*
X741Y2856D01*
X871Y2856D02*
X935Y2856D01*
X1073Y2856D02*
X1136Y2856D01*
X1443Y2856D02*
X1572Y2856D01*
X2110Y2856D02*
X2234Y2856D01*
X475Y2855D02*
X537Y2855D01*
X676Y2855D02*
X741Y2855D01*
X872Y2855D02*
X935Y2855D01*
X1072Y2855D02*
X1136Y2855D01*
X1443Y2855D02*
X1572Y2855D01*
X2110Y2855D02*
X2234Y2855D01*
X476Y2854D02*
X538Y2854D01*
X676Y2854D02*
X741Y2854D01*
X872Y2854D02*
X936Y2854D01*
X1071Y2854D02*
X1136Y2854D01*
X1443Y2854D02*
X1572Y2854D01*
X2110Y2854D02*
X2234Y2854D01*
X476Y2853D02*
X539Y2853D01*
X675Y2853D02*
X740Y2853D01*
X872Y2853D02*
X937Y2853D01*
X1070Y2853D02*
X1135Y2853D01*
X1443Y2853D02*
X1572Y2853D01*
X2110Y2853D02*
X2234Y2853D01*
X477Y2852D02*
X540Y2852D01*
X674Y2852D02*
X740Y2852D01*
X873Y2852D02*
X938Y2852D01*
X1070Y2852D02*
X1135Y2852D01*
X1443Y2852D02*
X1572Y2852D01*
X2110Y2852D02*
X2234Y2852D01*
X477Y2851D02*
X541Y2851D01*
X673Y2851D02*
X739Y2851D01*
X873Y2851D02*
X939Y2851D01*
X1069Y2851D02*
X1134Y2851D01*
X1443Y2851D02*
X1572Y2851D01*
X2110Y2851D02*
X2234Y2851D01*
X478Y2850D02*
X542Y2850D01*
X672Y2850D02*
X739Y2850D01*
X874Y2850D02*
X940Y2850D01*
X1068Y2850D02*
X1134Y2850D01*
X1443Y2850D02*
X1572Y2850D01*
X2110Y2850D02*
X2234Y2850D01*
X478Y2849D02*
X543Y2849D01*
X671Y2849D02*
X738Y2849D01*
X874Y2849D02*
X941Y2849D01*
X1067Y2849D02*
X1133Y2849D01*
X1443Y2849D02*
X1572Y2849D01*
X2110Y2849D02*
X2234Y2849D01*
X478Y2848D02*
X543Y2848D01*
X670Y2848D02*
X738Y2848D01*
X874Y2848D02*
X942Y2848D01*
X1066Y2848D02*
X1133Y2848D01*
X1443Y2848D02*
X1572Y2848D01*
X2110Y2848D02*
X2234Y2848D01*
X479Y2847D02*
X544Y2847D01*
X669Y2847D02*
X738Y2847D01*
X875Y2847D02*
X943Y2847D01*
X1065Y2847D02*
X1132Y2847D01*
X1443Y2847D02*
X1572Y2847D01*
X2110Y2847D02*
X2234Y2847D01*
X479Y2846D02*
X545Y2846D01*
X668Y2846D02*
X737Y2846D01*
X875Y2846D02*
X944Y2846D01*
X1064Y2846D02*
X1132Y2846D01*
X1444Y2846D02*
X1572Y2846D01*
X2110Y2846D02*
X2234Y2846D01*
X480Y2845D02*
X546Y2845D01*
X667Y2845D02*
X737Y2845D01*
X876Y2845D02*
X945Y2845D01*
X1062Y2845D02*
X1132Y2845D01*
X1444Y2845D02*
X1572Y2845D01*
X2110Y2845D02*
X2234Y2845D01*
X480Y2844D02*
X548Y2844D01*
X666Y2844D02*
X736Y2844D01*
X876Y2844D02*
X946Y2844D01*
X1061Y2844D02*
X1131Y2844D01*
X1444Y2844D02*
X1572Y2844D01*
X2110Y2844D02*
X2234Y2844D01*
X481Y2843D02*
X549Y2843D01*
X665Y2843D02*
X736Y2843D01*
X877Y2843D02*
X947Y2843D01*
X1060Y2843D02*
X1131Y2843D01*
X1444Y2843D02*
X1572Y2843D01*
X2110Y2843D02*
X2234Y2843D01*
X481Y2842D02*
X550Y2842D01*
X664Y2842D02*
X735Y2842D01*
X877Y2842D02*
X948Y2842D01*
X1059Y2842D02*
X1130Y2842D01*
X1444Y2842D02*
X1572Y2842D01*
X2110Y2842D02*
X2234Y2842D01*
X482Y2841D02*
X551Y2841D01*
X663Y2841D02*
X735Y2841D01*
X878Y2841D02*
X950Y2841D01*
X1058Y2841D02*
X1130Y2841D01*
X1444Y2841D02*
X1572Y2841D01*
X2110Y2841D02*
X2234Y2841D01*
X482Y2840D02*
X552Y2840D01*
X661Y2840D02*
X734Y2840D01*
X878Y2840D02*
X951Y2840D01*
X1056Y2840D02*
X1129Y2840D01*
X1444Y2840D02*
X1572Y2840D01*
X2110Y2840D02*
X2234Y2840D01*
X483Y2839D02*
X554Y2839D01*
X660Y2839D02*
X734Y2839D01*
X879Y2839D02*
X952Y2839D01*
X1055Y2839D02*
X1128Y2839D01*
X1444Y2839D02*
X1572Y2839D01*
X2110Y2839D02*
X2234Y2839D01*
X483Y2838D02*
X555Y2838D01*
X659Y2838D02*
X733Y2838D01*
X879Y2838D02*
X954Y2838D01*
X1054Y2838D02*
X1128Y2838D01*
X1444Y2838D02*
X1572Y2838D01*
X2110Y2838D02*
X2234Y2838D01*
X484Y2837D02*
X556Y2837D01*
X657Y2837D02*
X733Y2837D01*
X880Y2837D02*
X955Y2837D01*
X1052Y2837D02*
X1127Y2837D01*
X1444Y2837D02*
X1572Y2837D01*
X2110Y2837D02*
X2234Y2837D01*
X485Y2836D02*
X558Y2836D01*
X656Y2836D02*
X732Y2836D01*
X881Y2836D02*
X957Y2836D01*
X1051Y2836D02*
X1127Y2836D01*
X1444Y2836D02*
X1572Y2836D01*
X2110Y2836D02*
X2234Y2836D01*
X485Y2835D02*
X559Y2835D01*
X654Y2835D02*
X731Y2835D01*
X881Y2835D02*
X958Y2835D01*
X1049Y2835D02*
X1126Y2835D01*
X1444Y2835D02*
X1572Y2835D01*
X2110Y2835D02*
X2234Y2835D01*
X486Y2834D02*
X561Y2834D01*
X653Y2834D02*
X731Y2834D01*
X882Y2834D02*
X960Y2834D01*
X1047Y2834D02*
X1126Y2834D01*
X1444Y2834D02*
X1572Y2834D01*
X2110Y2834D02*
X2234Y2834D01*
X486Y2833D02*
X563Y2833D01*
X651Y2833D02*
X730Y2833D01*
X882Y2833D02*
X962Y2833D01*
X1046Y2833D02*
X1125Y2833D01*
X1444Y2833D02*
X1572Y2833D01*
X2110Y2833D02*
X2234Y2833D01*
X487Y2832D02*
X564Y2832D01*
X649Y2832D02*
X730Y2832D01*
X883Y2832D02*
X964Y2832D01*
X1044Y2832D02*
X1124Y2832D01*
X1444Y2832D02*
X1572Y2832D01*
X2110Y2832D02*
X2234Y2832D01*
X488Y2831D02*
X566Y2831D01*
X648Y2831D02*
X729Y2831D01*
X884Y2831D02*
X966Y2831D01*
X1042Y2831D02*
X1124Y2831D01*
X1444Y2831D02*
X1572Y2831D01*
X2110Y2831D02*
X2234Y2831D01*
X488Y2830D02*
X568Y2830D01*
X645Y2830D02*
X728Y2830D01*
X884Y2830D02*
X968Y2830D01*
X1040Y2830D02*
X1123Y2830D01*
X1444Y2830D02*
X1572Y2830D01*
X2110Y2830D02*
X2234Y2830D01*
X489Y2829D02*
X571Y2829D01*
X643Y2829D02*
X728Y2829D01*
X885Y2829D02*
X971Y2829D01*
X1037Y2829D02*
X1122Y2829D01*
X1444Y2829D02*
X1572Y2829D01*
X2110Y2829D02*
X2234Y2829D01*
X490Y2828D02*
X573Y2828D01*
X641Y2828D02*
X727Y2828D01*
X886Y2828D02*
X973Y2828D01*
X1035Y2828D02*
X1122Y2828D01*
X1444Y2828D02*
X1572Y2828D01*
X2110Y2828D02*
X2234Y2828D01*
X490Y2827D02*
X576Y2827D01*
X639Y2827D02*
X726Y2827D01*
X886Y2827D02*
X976Y2827D01*
X1032Y2827D02*
X1121Y2827D01*
X1444Y2827D02*
X1572Y2827D01*
X2110Y2827D02*
X2234Y2827D01*
X491Y2826D02*
X578Y2826D01*
X636Y2826D02*
X726Y2826D01*
X887Y2826D02*
X979Y2826D01*
X1029Y2826D02*
X1120Y2826D01*
X1444Y2826D02*
X1572Y2826D01*
X2110Y2826D02*
X2234Y2826D01*
X492Y2825D02*
X581Y2825D01*
X633Y2825D02*
X725Y2825D01*
X888Y2825D02*
X983Y2825D01*
X1025Y2825D02*
X1120Y2825D01*
X1444Y2825D02*
X1572Y2825D01*
X2110Y2825D02*
X2234Y2825D01*
X492Y2824D02*
X585Y2824D01*
X629Y2824D02*
X724Y2824D01*
X888Y2824D02*
X987Y2824D01*
X1021Y2824D02*
X1119Y2824D01*
X1444Y2824D02*
X1572Y2824D01*
X2110Y2824D02*
X2234Y2824D01*
X493Y2823D02*
X589Y2823D01*
X625Y2823D02*
X724Y2823D01*
X889Y2823D02*
X993Y2823D01*
X1014Y2823D02*
X1118Y2823D01*
X1444Y2823D02*
X1572Y2823D01*
X2110Y2823D02*
X2234Y2823D01*
X494Y2822D02*
X594Y2822D01*
X619Y2822D02*
X723Y2822D01*
X890Y2822D02*
X1117Y2822D01*
X1444Y2822D02*
X1572Y2822D01*
X2110Y2822D02*
X2234Y2822D01*
X494Y2821D02*
X722Y2821D01*
X891Y2821D02*
X1117Y2821D01*
X1444Y2821D02*
X1572Y2821D01*
X2110Y2821D02*
X2234Y2821D01*
X495Y2820D02*
X721Y2820D01*
X891Y2820D02*
X1116Y2820D01*
X1444Y2820D02*
X1572Y2820D01*
X2110Y2820D02*
X2234Y2820D01*
X496Y2819D02*
X720Y2819D01*
X892Y2819D02*
X1115Y2819D01*
X1444Y2819D02*
X1572Y2819D01*
X2110Y2819D02*
X2234Y2819D01*
X497Y2818D02*
X720Y2818D01*
X893Y2818D02*
X1114Y2818D01*
X1444Y2818D02*
X1572Y2818D01*
X2110Y2818D02*
X2234Y2818D01*
X498Y2817D02*
X719Y2817D01*
X894Y2817D02*
X1113Y2817D01*
X1444Y2817D02*
X1572Y2817D01*
X2110Y2817D02*
X2234Y2817D01*
X498Y2816D02*
X718Y2816D01*
X895Y2816D02*
X1112Y2816D01*
X1444Y2816D02*
X1572Y2816D01*
X2110Y2816D02*
X2234Y2816D01*
X499Y2815D02*
X717Y2815D01*
X895Y2815D02*
X1112Y2815D01*
X1444Y2815D02*
X1572Y2815D01*
X2110Y2815D02*
X2234Y2815D01*
X500Y2814D02*
X716Y2814D01*
X896Y2814D02*
X1111Y2814D01*
X1444Y2814D02*
X1572Y2814D01*
X2110Y2814D02*
X2234Y2814D01*
X501Y2813D02*
X715Y2813D01*
X897Y2813D02*
X1110Y2813D01*
X1444Y2813D02*
X1572Y2813D01*
X2110Y2813D02*
X2234Y2813D01*
X502Y2812D02*
X715Y2812D01*
X898Y2812D02*
X1109Y2812D01*
X1444Y2812D02*
X1572Y2812D01*
X2110Y2812D02*
X2234Y2812D01*
X503Y2811D02*
X714Y2811D01*
X899Y2811D02*
X1108Y2811D01*
X1444Y2811D02*
X1572Y2811D01*
X2111Y2811D02*
X2235Y2811D01*
X504Y2810D02*
X713Y2810D01*
X900Y2810D02*
X1107Y2810D01*
X1444Y2810D02*
X1572Y2810D01*
X2111Y2810D02*
X2235Y2810D01*
X505Y2809D02*
X712Y2809D01*
X901Y2809D02*
X1106Y2809D01*
X1444Y2809D02*
X1572Y2809D01*
X2111Y2809D02*
X2235Y2809D01*
X506Y2808D02*
X711Y2808D01*
X902Y2808D02*
X1105Y2808D01*
X1444Y2808D02*
X1572Y2808D01*
X2111Y2808D02*
X2235Y2808D01*
X507Y2807D02*
X710Y2807D01*
X903Y2807D02*
X1104Y2807D01*
X1444Y2807D02*
X1572Y2807D01*
X2111Y2807D02*
X2235Y2807D01*
X507Y2806D02*
X709Y2806D01*
X904Y2806D02*
X1103Y2806D01*
X1444Y2806D02*
X1572Y2806D01*
X2111Y2806D02*
X2235Y2806D01*
X508Y2805D02*
X708Y2805D01*
X905Y2805D02*
X1102Y2805D01*
X1444Y2805D02*
X1572Y2805D01*
X2111Y2805D02*
X2235Y2805D01*
X509Y2804D02*
X707Y2804D01*
X906Y2804D02*
X1101Y2804D01*
X1444Y2804D02*
X1572Y2804D01*
X2111Y2804D02*
X2235Y2804D01*
X511Y2803D02*
X706Y2803D01*
X907Y2803D02*
X1100Y2803D01*
X1444Y2803D02*
X1572Y2803D01*
X2111Y2803D02*
X2235Y2803D01*
X512Y2802D02*
X704Y2802D01*
X908Y2802D02*
X1099Y2802D01*
X1444Y2802D02*
X1572Y2802D01*
X2111Y2802D02*
X2235Y2802D01*
X513Y2801D02*
X703Y2801D01*
X909Y2801D02*
X1098Y2801D01*
X1444Y2801D02*
X1573Y2801D01*
X2111Y2801D02*
X2235Y2801D01*
X514Y2800D02*
X702Y2800D01*
X910Y2800D02*
X1096Y2800D01*
X1444Y2800D02*
X1573Y2800D01*
X2111Y2800D02*
X2235Y2800D01*
X515Y2799D02*
X701Y2799D01*
X912Y2799D02*
X1095Y2799D01*
X1445Y2799D02*
X1573Y2799D01*
X2111Y2799D02*
X2235Y2799D01*
X516Y2798D02*
X700Y2798D01*
X913Y2798D02*
X1094Y2798D01*
X1445Y2798D02*
X1573Y2798D01*
X2111Y2798D02*
X2235Y2798D01*
X517Y2797D02*
X699Y2797D01*
X914Y2797D02*
X1093Y2797D01*
X1445Y2797D02*
X1573Y2797D01*
X2111Y2797D02*
X2235Y2797D01*
X519Y2796D02*
X697Y2796D01*
X915Y2796D02*
X1092Y2796D01*
X1445Y2796D02*
X1573Y2796D01*
X2111Y2796D02*
X2235Y2796D01*
X520Y2795D02*
X696Y2795D01*
X917Y2795D02*
X1090Y2795D01*
X1445Y2795D02*
X1573Y2795D01*
X2111Y2795D02*
X2235Y2795D01*
X521Y2794D02*
X695Y2794D01*
X918Y2794D02*
X1089Y2794D01*
X1445Y2794D02*
X1573Y2794D01*
X2111Y2794D02*
X2235Y2794D01*
X522Y2793D02*
X693Y2793D01*
X919Y2793D02*
X1088Y2793D01*
X1445Y2793D02*
X1573Y2793D01*
X2111Y2793D02*
X2235Y2793D01*
X524Y2792D02*
X692Y2792D01*
X921Y2792D02*
X1086Y2792D01*
X1445Y2792D02*
X1573Y2792D01*
X2111Y2792D02*
X2235Y2792D01*
X525Y2791D02*
X691Y2791D01*
X922Y2791D02*
X1085Y2791D01*
X1445Y2791D02*
X1573Y2791D01*
X2111Y2791D02*
X2235Y2791D01*
X526Y2790D02*
X689Y2790D01*
X924Y2790D02*
X1083Y2790D01*
X1445Y2790D02*
X1573Y2790D01*
X2111Y2790D02*
X2235Y2790D01*
X528Y2789D02*
X688Y2789D01*
X925Y2789D02*
X1082Y2789D01*
X1445Y2789D02*
X1573Y2789D01*
X2111Y2789D02*
X2235Y2789D01*
X529Y2788D02*
X686Y2788D01*
X927Y2788D02*
X1080Y2788D01*
X1445Y2788D02*
X1573Y2788D01*
X2111Y2788D02*
X2235Y2788D01*
X531Y2787D02*
X684Y2787D01*
X928Y2787D02*
X1079Y2787D01*
X1445Y2787D02*
X1573Y2787D01*
X2111Y2787D02*
X2235Y2787D01*
X532Y2786D02*
X683Y2786D01*
X930Y2786D02*
X1077Y2786D01*
X1445Y2786D02*
X1573Y2786D01*
X2111Y2786D02*
X2235Y2786D01*
X534Y2785D02*
X681Y2785D01*
X932Y2785D02*
X1075Y2785D01*
X1445Y2785D02*
X1573Y2785D01*
X2111Y2785D02*
X2235Y2785D01*
X536Y2784D02*
X680Y2784D01*
X934Y2784D02*
X1074Y2784D01*
X1445Y2784D02*
X1573Y2784D01*
X2111Y2784D02*
X2235Y2784D01*
X537Y2783D02*
X678Y2783D01*
X936Y2783D02*
X1072Y2783D01*
X1445Y2783D02*
X1573Y2783D01*
X2111Y2783D02*
X2235Y2783D01*
X539Y2782D02*
X676Y2782D01*
X937Y2782D02*
X1070Y2782D01*
X1445Y2782D02*
X1573Y2782D01*
X2111Y2782D02*
X2235Y2782D01*
X541Y2781D02*
X674Y2781D01*
X939Y2781D02*
X1068Y2781D01*
X1445Y2781D02*
X1573Y2781D01*
X2111Y2781D02*
X2235Y2781D01*
X543Y2780D02*
X672Y2780D01*
X942Y2780D02*
X1066Y2780D01*
X1445Y2780D02*
X1573Y2780D01*
X2111Y2780D02*
X2235Y2780D01*
X545Y2779D02*
X670Y2779D01*
X944Y2779D02*
X1064Y2779D01*
X1445Y2779D02*
X1573Y2779D01*
X2111Y2779D02*
X2235Y2779D01*
X547Y2778D02*
X668Y2778D01*
X946Y2778D02*
X1062Y2778D01*
X1445Y2778D02*
X1573Y2778D01*
X2111Y2778D02*
X2235Y2778D01*
X549Y2777D02*
X666Y2777D01*
X948Y2777D02*
X1060Y2777D01*
X1445Y2777D02*
X1573Y2777D01*
X2111Y2777D02*
X2235Y2777D01*
X551Y2776D02*
X663Y2776D01*
X951Y2776D02*
X1057Y2776D01*
X1445Y2776D02*
X1573Y2776D01*
X2111Y2776D02*
X2235Y2776D01*
X553Y2775D02*
X661Y2775D01*
X954Y2775D02*
X1055Y2775D01*
X1445Y2775D02*
X1573Y2775D01*
X2111Y2775D02*
X2235Y2775D01*
X556Y2774D02*
X659Y2774D01*
X956Y2774D02*
X1052Y2774D01*
X1445Y2774D02*
X1573Y2774D01*
X2111Y2774D02*
X2235Y2774D01*
X558Y2773D02*
X656Y2773D01*
X959Y2773D02*
X1049Y2773D01*
X1445Y2773D02*
X1573Y2773D01*
X2111Y2773D02*
X2235Y2773D01*
X561Y2772D02*
X653Y2772D01*
X962Y2772D02*
X1046Y2772D01*
X1445Y2772D02*
X1573Y2772D01*
X2111Y2772D02*
X2235Y2772D01*
X564Y2771D02*
X650Y2771D01*
X966Y2771D02*
X1042Y2771D01*
X1445Y2771D02*
X1573Y2771D01*
X2111Y2771D02*
X2235Y2771D01*
X568Y2770D02*
X647Y2770D01*
X969Y2770D02*
X1039Y2770D01*
X1445Y2770D02*
X1573Y2770D01*
X2111Y2770D02*
X2235Y2770D01*
X571Y2769D02*
X643Y2769D01*
X974Y2769D02*
X1035Y2769D01*
X1445Y2769D02*
X1573Y2769D01*
X2111Y2769D02*
X2235Y2769D01*
X575Y2768D02*
X639Y2768D01*
X978Y2768D02*
X1030Y2768D01*
X1445Y2768D02*
X1573Y2768D01*
X2111Y2768D02*
X2235Y2768D01*
X580Y2767D02*
X634Y2767D01*
X984Y2767D02*
X1024Y2767D01*
X1445Y2767D02*
X1573Y2767D01*
X2111Y2767D02*
X2235Y2767D01*
X585Y2766D02*
X629Y2766D01*
X992Y2766D02*
X1015Y2766D01*
X1445Y2766D02*
X1573Y2766D01*
X2111Y2766D02*
X2235Y2766D01*
X592Y2765D02*
X621Y2765D01*
X1445Y2765D02*
X1573Y2765D01*
X2111Y2765D02*
X2235Y2765D01*
X1445Y2764D02*
X1573Y2764D01*
X2111Y2764D02*
X2236Y2764D01*
X1445Y2763D02*
X1573Y2763D01*
X2111Y2763D02*
X2236Y2763D01*
X1445Y2762D02*
X1573Y2762D01*
X2111Y2762D02*
X2236Y2762D01*
X1445Y2761D02*
X1573Y2761D01*
X2111Y2761D02*
X2236Y2761D01*
X1445Y2760D02*
X1573Y2760D01*
X2111Y2760D02*
X2236Y2760D01*
X1445Y2759D02*
X1573Y2759D01*
X2111Y2759D02*
X2236Y2759D01*
X1445Y2758D02*
X1573Y2758D01*
X2111Y2758D02*
X2236Y2758D01*
X1445Y2757D02*
X1573Y2757D01*
X2111Y2757D02*
X2236Y2757D01*
X1445Y2756D02*
X1573Y2756D01*
X2111Y2756D02*
X2236Y2756D01*
X1445Y2755D02*
X1573Y2755D01*
X2111Y2755D02*
X2236Y2755D01*
X1445Y2754D02*
X1573Y2754D01*
X2111Y2754D02*
X2236Y2754D01*
X1445Y2753D02*
X1573Y2753D01*
X2111Y2753D02*
X2236Y2753D01*
X1445Y2752D02*
X1573Y2752D01*
X2111Y2752D02*
X2236Y2752D01*
X1446Y2751D02*
X1573Y2751D01*
X2111Y2751D02*
X2236Y2751D01*
X1446Y2750D02*
X1573Y2750D01*
X2111Y2750D02*
X2236Y2750D01*
X1446Y2749D02*
X1573Y2749D01*
X2111Y2749D02*
X2236Y2749D01*
X1446Y2748D02*
X1573Y2748D01*
X2111Y2748D02*
X2236Y2748D01*
X1446Y2747D02*
X1573Y2747D01*
X2111Y2747D02*
X2236Y2747D01*
X1446Y2746D02*
X1573Y2746D01*
X2111Y2746D02*
X2236Y2746D01*
X1446Y2745D02*
X1573Y2745D01*
X2111Y2745D02*
X2236Y2745D01*
X1446Y2744D02*
X1573Y2744D01*
X2111Y2744D02*
X2236Y2744D01*
X1446Y2743D02*
X1573Y2743D01*
X2111Y2743D02*
X2236Y2743D01*
X1446Y2742D02*
X1573Y2742D01*
X2111Y2742D02*
X2236Y2742D01*
X1446Y2741D02*
X1573Y2741D01*
X2111Y2741D02*
X2236Y2741D01*
X1446Y2740D02*
X1573Y2740D01*
X2111Y2740D02*
X2236Y2740D01*
X1446Y2739D02*
X1573Y2739D01*
X2111Y2739D02*
X2236Y2739D01*
X1446Y2738D02*
X1573Y2738D01*
X2111Y2738D02*
X2236Y2738D01*
X1446Y2737D02*
X1573Y2737D01*
X2111Y2737D02*
X2236Y2737D01*
X1446Y2736D02*
X1573Y2736D01*
X2111Y2736D02*
X2236Y2736D01*
X1446Y2735D02*
X1573Y2735D01*
X2111Y2735D02*
X2236Y2735D01*
X1446Y2734D02*
X1573Y2734D01*
X2111Y2734D02*
X2236Y2734D01*
X1446Y2733D02*
X1573Y2733D01*
X2077Y2733D02*
X2236Y2733D01*
X1446Y2732D02*
X1573Y2732D01*
X2077Y2732D02*
X2236Y2732D01*
X1446Y2731D02*
X1573Y2731D01*
X2077Y2731D02*
X2236Y2731D01*
X1446Y2730D02*
X1606Y2730D01*
X2078Y2730D02*
X2236Y2730D01*
X1446Y2729D02*
X1607Y2729D01*
X2078Y2729D02*
X2236Y2729D01*
X1446Y2728D02*
X1607Y2728D01*
X2078Y2728D02*
X2236Y2728D01*
X1446Y2727D02*
X1607Y2727D01*
X2078Y2727D02*
X2236Y2727D01*
X1446Y2726D02*
X1607Y2726D01*
X2078Y2726D02*
X2236Y2726D01*
X1446Y2725D02*
X1607Y2725D01*
X2078Y2725D02*
X2236Y2725D01*
X1446Y2724D02*
X1607Y2724D01*
X2078Y2724D02*
X2236Y2724D01*
X1446Y2723D02*
X1607Y2723D01*
X2078Y2723D02*
X2236Y2723D01*
X1446Y2722D02*
X1607Y2722D01*
X2078Y2722D02*
X2236Y2722D01*
X1446Y2721D02*
X1607Y2721D01*
X2078Y2721D02*
X2236Y2721D01*
X1446Y2720D02*
X1607Y2720D01*
X2078Y2720D02*
X2236Y2720D01*
X1446Y2719D02*
X1607Y2719D01*
X2078Y2719D02*
X2236Y2719D01*
X1446Y2718D02*
X1607Y2718D01*
X2078Y2718D02*
X2236Y2718D01*
X1446Y2717D02*
X1607Y2717D01*
X2078Y2717D02*
X2236Y2717D01*
X1446Y2716D02*
X1607Y2716D01*
X2078Y2716D02*
X2237Y2716D01*
X1446Y2715D02*
X1607Y2715D01*
X2078Y2715D02*
X2237Y2715D01*
X1446Y2714D02*
X1607Y2714D01*
X2078Y2714D02*
X2237Y2714D01*
X1446Y2713D02*
X1607Y2713D01*
X2078Y2713D02*
X2237Y2713D01*
X1446Y2712D02*
X1607Y2712D01*
X2078Y2712D02*
X2237Y2712D01*
X1446Y2711D02*
X1607Y2711D01*
X2078Y2711D02*
X2237Y2711D01*
X1446Y2710D02*
X1607Y2710D01*
X2078Y2710D02*
X2237Y2710D01*
X1446Y2709D02*
X1607Y2709D01*
X2078Y2709D02*
X2237Y2709D01*
X1446Y2708D02*
X1607Y2708D01*
X2078Y2708D02*
X2237Y2708D01*
X1446Y2707D02*
X1607Y2707D01*
X2078Y2707D02*
X2237Y2707D01*
X1446Y2706D02*
X1607Y2706D01*
X2078Y2706D02*
X2237Y2706D01*
X1446Y2705D02*
X1607Y2705D01*
X2078Y2705D02*
X2237Y2705D01*
X1447Y2704D02*
X1607Y2704D01*
X2078Y2704D02*
X2237Y2704D01*
X1447Y2703D02*
X1607Y2703D01*
X2078Y2703D02*
X2237Y2703D01*
X1447Y2702D02*
X1607Y2702D01*
X2078Y2702D02*
X2237Y2702D01*
X1447Y2701D02*
X1607Y2701D01*
X2078Y2701D02*
X2237Y2701D01*
X1447Y2700D02*
X1607Y2700D01*
X2078Y2700D02*
X2237Y2700D01*
X1447Y2699D02*
X1607Y2699D01*
X2078Y2699D02*
X2237Y2699D01*
X1447Y2698D02*
X1607Y2698D01*
X2078Y2698D02*
X2237Y2698D01*
X1447Y2697D02*
X1607Y2697D01*
X2078Y2697D02*
X2237Y2697D01*
X1447Y2696D02*
X1607Y2696D01*
X2078Y2696D02*
X2237Y2696D01*
X1447Y2695D02*
X1607Y2695D01*
X2078Y2695D02*
X2237Y2695D01*
X1447Y2694D02*
X1607Y2694D01*
X2078Y2694D02*
X2237Y2694D01*
X1447Y2693D02*
X1607Y2693D01*
X2078Y2693D02*
X2237Y2693D01*
X1447Y2692D02*
X1607Y2692D01*
X2078Y2692D02*
X2237Y2692D01*
X1447Y2691D02*
X1607Y2691D01*
X2078Y2691D02*
X2237Y2691D01*
X1447Y2690D02*
X1607Y2690D01*
X2078Y2690D02*
X2237Y2690D01*
X1447Y2689D02*
X1607Y2689D01*
X2078Y2689D02*
X2237Y2689D01*
X1447Y2688D02*
X1607Y2688D01*
X2078Y2688D02*
X2237Y2688D01*
X1447Y2687D02*
X1607Y2687D01*
X2078Y2687D02*
X2237Y2687D01*
X1447Y2686D02*
X1607Y2686D01*
X2078Y2686D02*
X2237Y2686D01*
X1447Y2685D02*
X1607Y2685D01*
X2078Y2685D02*
X2237Y2685D01*
X1447Y2684D02*
X1607Y2684D01*
X2078Y2684D02*
X2237Y2684D01*
X1447Y2683D02*
X1607Y2683D01*
X2078Y2683D02*
X2237Y2683D01*
X1447Y2682D02*
X1607Y2682D01*
X2078Y2682D02*
X2237Y2682D01*
X1447Y2681D02*
X1607Y2681D01*
X2078Y2681D02*
X2237Y2681D01*
X1447Y2680D02*
X1607Y2680D01*
X2078Y2680D02*
X2237Y2680D01*
X1447Y2679D02*
X1607Y2679D01*
X2078Y2679D02*
X2237Y2679D01*
X1447Y2678D02*
X1607Y2678D01*
X2078Y2678D02*
X2237Y2678D01*
X1447Y2677D02*
X1607Y2677D01*
X2078Y2677D02*
X2237Y2677D01*
X1447Y2676D02*
X1607Y2676D01*
X2078Y2676D02*
X2237Y2676D01*
X1447Y2675D02*
X1607Y2675D01*
X2078Y2675D02*
X2237Y2675D01*
X1447Y2674D02*
X1607Y2674D01*
X2078Y2674D02*
X2237Y2674D01*
X1447Y2673D02*
X1607Y2673D01*
X2078Y2673D02*
X2237Y2673D01*
X1447Y2672D02*
X1607Y2672D01*
X2078Y2672D02*
X2237Y2672D01*
X1447Y2671D02*
X1607Y2671D01*
X2078Y2671D02*
X2237Y2671D01*
X1447Y2670D02*
X1607Y2670D01*
X2078Y2670D02*
X2237Y2670D01*
X1447Y2669D02*
X1607Y2669D01*
X2078Y2669D02*
X2238Y2669D01*
X1447Y2668D02*
X1607Y2668D01*
X2078Y2668D02*
X2238Y2668D01*
X1447Y2667D02*
X1607Y2667D01*
X2078Y2667D02*
X2238Y2667D01*
X1447Y2666D02*
X1607Y2666D01*
X2045Y2666D02*
X2238Y2666D01*
X1447Y2665D02*
X1607Y2665D01*
X2044Y2665D02*
X2238Y2665D01*
X1447Y2664D02*
X1607Y2664D01*
X2044Y2664D02*
X2238Y2664D01*
X1447Y2663D02*
X1641Y2663D01*
X2044Y2663D02*
X2238Y2663D01*
X1447Y2662D02*
X1641Y2662D01*
X2044Y2662D02*
X2238Y2662D01*
X1447Y2661D02*
X1641Y2661D01*
X2044Y2661D02*
X2238Y2661D01*
X1447Y2660D02*
X1641Y2660D01*
X2044Y2660D02*
X2238Y2660D01*
X1447Y2659D02*
X1641Y2659D01*
X2044Y2659D02*
X2238Y2659D01*
X1447Y2658D02*
X1641Y2658D01*
X2044Y2658D02*
X2238Y2658D01*
X1447Y2657D02*
X1641Y2657D01*
X2044Y2657D02*
X2238Y2657D01*
X1448Y2656D02*
X1641Y2656D01*
X2044Y2656D02*
X2238Y2656D01*
X1448Y2655D02*
X1641Y2655D01*
X2044Y2655D02*
X2238Y2655D01*
X1448Y2654D02*
X1641Y2654D01*
X2044Y2654D02*
X2238Y2654D01*
X1448Y2653D02*
X1641Y2653D01*
X2044Y2653D02*
X2238Y2653D01*
X1448Y2652D02*
X1641Y2652D01*
X2044Y2652D02*
X2238Y2652D01*
X1448Y2651D02*
X1641Y2651D01*
X2044Y2651D02*
X2238Y2651D01*
X1448Y2650D02*
X1641Y2650D01*
X2044Y2650D02*
X2238Y2650D01*
X1448Y2649D02*
X1641Y2649D01*
X2044Y2649D02*
X2238Y2649D01*
X1448Y2648D02*
X1641Y2648D01*
X2044Y2648D02*
X2238Y2648D01*
X1448Y2647D02*
X1641Y2647D01*
X2045Y2647D02*
X2238Y2647D01*
X1448Y2646D02*
X1641Y2646D01*
X2045Y2646D02*
X2238Y2646D01*
X1448Y2645D02*
X1641Y2645D01*
X2045Y2645D02*
X2238Y2645D01*
X1448Y2644D02*
X1641Y2644D01*
X2045Y2644D02*
X2238Y2644D01*
X1448Y2643D02*
X1641Y2643D01*
X2045Y2643D02*
X2238Y2643D01*
X1448Y2642D02*
X1641Y2642D01*
X2045Y2642D02*
X2238Y2642D01*
X1448Y2641D02*
X1641Y2641D01*
X2045Y2641D02*
X2238Y2641D01*
X1448Y2640D02*
X1641Y2640D01*
X2045Y2640D02*
X2238Y2640D01*
X1448Y2639D02*
X1641Y2639D01*
X2045Y2639D02*
X2238Y2639D01*
X1448Y2638D02*
X1641Y2638D01*
X2045Y2638D02*
X2238Y2638D01*
X1448Y2637D02*
X1641Y2637D01*
X2045Y2637D02*
X2238Y2637D01*
X1448Y2636D02*
X1641Y2636D01*
X2045Y2636D02*
X2238Y2636D01*
X1448Y2635D02*
X1641Y2635D01*
X2045Y2635D02*
X2238Y2635D01*
X1448Y2634D02*
X1641Y2634D01*
X2045Y2634D02*
X2238Y2634D01*
X1448Y2633D02*
X1641Y2633D01*
X2045Y2633D02*
X2238Y2633D01*
X1448Y2632D02*
X1641Y2632D01*
X2011Y2632D02*
X2238Y2632D01*
X1448Y2631D02*
X1641Y2631D01*
X2011Y2631D02*
X2238Y2631D01*
X1448Y2630D02*
X1641Y2630D01*
X1673Y2630D02*
X1674Y2630D01*
X2011Y2630D02*
X2238Y2630D01*
X1448Y2629D02*
X1674Y2629D01*
X2011Y2629D02*
X2238Y2629D01*
X1448Y2628D02*
X1674Y2628D01*
X2011Y2628D02*
X2238Y2628D01*
X1448Y2627D02*
X1674Y2627D01*
X2011Y2627D02*
X2238Y2627D01*
X1448Y2626D02*
X1674Y2626D01*
X2011Y2626D02*
X2238Y2626D01*
X1448Y2625D02*
X1674Y2625D01*
X2011Y2625D02*
X2238Y2625D01*
X1448Y2624D02*
X1674Y2624D01*
X2011Y2624D02*
X2238Y2624D01*
X1448Y2623D02*
X1674Y2623D01*
X2011Y2623D02*
X2238Y2623D01*
X1448Y2622D02*
X1674Y2622D01*
X2011Y2622D02*
X2238Y2622D01*
X1448Y2621D02*
X1674Y2621D01*
X2011Y2621D02*
X2239Y2621D01*
X1448Y2620D02*
X1674Y2620D01*
X2011Y2620D02*
X2239Y2620D01*
X1448Y2619D02*
X1674Y2619D01*
X2011Y2619D02*
X2239Y2619D01*
X1448Y2618D02*
X1674Y2618D01*
X2011Y2618D02*
X2239Y2618D01*
X1448Y2617D02*
X1674Y2617D01*
X2011Y2617D02*
X2239Y2617D01*
X1448Y2616D02*
X1674Y2616D01*
X2011Y2616D02*
X2239Y2616D01*
X1448Y2615D02*
X1674Y2615D01*
X2011Y2615D02*
X2239Y2615D01*
X1448Y2614D02*
X1675Y2614D01*
X2011Y2614D02*
X2239Y2614D01*
X1448Y2613D02*
X1675Y2613D01*
X2011Y2613D02*
X2239Y2613D01*
X1448Y2612D02*
X1675Y2612D01*
X2011Y2612D02*
X2239Y2612D01*
X1448Y2611D02*
X1675Y2611D01*
X2011Y2611D02*
X2239Y2611D01*
X1448Y2610D02*
X1675Y2610D01*
X2011Y2610D02*
X2239Y2610D01*
X1449Y2609D02*
X1675Y2609D01*
X2011Y2609D02*
X2239Y2609D01*
X1449Y2608D02*
X1675Y2608D01*
X2011Y2608D02*
X2239Y2608D01*
X1449Y2607D02*
X1675Y2607D01*
X2011Y2607D02*
X2239Y2607D01*
X1449Y2606D02*
X1675Y2606D01*
X2011Y2606D02*
X2239Y2606D01*
X1449Y2605D02*
X1675Y2605D01*
X2011Y2605D02*
X2239Y2605D01*
X1449Y2604D02*
X1675Y2604D01*
X2011Y2604D02*
X2239Y2604D01*
X1449Y2603D02*
X1675Y2603D01*
X2011Y2603D02*
X2239Y2603D01*
X1449Y2602D02*
X1675Y2602D01*
X2011Y2602D02*
X2239Y2602D01*
X1449Y2601D02*
X1675Y2601D01*
X2011Y2601D02*
X2239Y2601D01*
X1449Y2600D02*
X1675Y2600D01*
X2011Y2600D02*
X2239Y2600D01*
X1449Y2599D02*
X1675Y2599D01*
X2011Y2599D02*
X2239Y2599D01*
X1449Y2598D02*
X1675Y2598D01*
X1978Y2598D02*
X2239Y2598D01*
X1449Y2597D02*
X1675Y2597D01*
X1978Y2597D02*
X2239Y2597D01*
X1449Y2596D02*
X1708Y2596D01*
X1978Y2596D02*
X2239Y2596D01*
X1449Y2595D02*
X1708Y2595D01*
X1978Y2595D02*
X2239Y2595D01*
X1449Y2594D02*
X1708Y2594D01*
X1978Y2594D02*
X2239Y2594D01*
X1449Y2593D02*
X1708Y2593D01*
X1978Y2593D02*
X2239Y2593D01*
X1449Y2592D02*
X1708Y2592D01*
X1978Y2592D02*
X2239Y2592D01*
X1449Y2591D02*
X1708Y2591D01*
X1978Y2591D02*
X2239Y2591D01*
X1449Y2590D02*
X1708Y2590D01*
X1978Y2590D02*
X2239Y2590D01*
X1449Y2589D02*
X1708Y2589D01*
X1978Y2589D02*
X2239Y2589D01*
X1449Y2588D02*
X1708Y2588D01*
X1978Y2588D02*
X2239Y2588D01*
X1449Y2587D02*
X1708Y2587D01*
X1978Y2587D02*
X2239Y2587D01*
X1449Y2586D02*
X1708Y2586D01*
X1978Y2586D02*
X2239Y2586D01*
X1449Y2585D02*
X1708Y2585D01*
X1978Y2585D02*
X2239Y2585D01*
X1449Y2584D02*
X1708Y2584D01*
X1978Y2584D02*
X2239Y2584D01*
X1449Y2583D02*
X1708Y2583D01*
X1978Y2583D02*
X2239Y2583D01*
X1449Y2582D02*
X1708Y2582D01*
X1978Y2582D02*
X2239Y2582D01*
X1449Y2581D02*
X1708Y2581D01*
X1978Y2581D02*
X2239Y2581D01*
X1449Y2580D02*
X1708Y2580D01*
X1978Y2580D02*
X2239Y2580D01*
X1449Y2579D02*
X1708Y2579D01*
X1978Y2579D02*
X2239Y2579D01*
X1449Y2578D02*
X1708Y2578D01*
X1978Y2578D02*
X2239Y2578D01*
X1449Y2577D02*
X1708Y2577D01*
X1978Y2577D02*
X2239Y2577D01*
X1449Y2576D02*
X1708Y2576D01*
X1978Y2576D02*
X2239Y2576D01*
X1449Y2575D02*
X1708Y2575D01*
X1978Y2575D02*
X2239Y2575D01*
X1449Y2574D02*
X1708Y2574D01*
X1978Y2574D02*
X2240Y2574D01*
X1449Y2573D02*
X1708Y2573D01*
X1978Y2573D02*
X2240Y2573D01*
X1449Y2572D02*
X1708Y2572D01*
X1978Y2572D02*
X2240Y2572D01*
X1449Y2571D02*
X1708Y2571D01*
X1978Y2571D02*
X2240Y2571D01*
X1449Y2570D02*
X1708Y2570D01*
X1978Y2570D02*
X2240Y2570D01*
X1449Y2569D02*
X1708Y2569D01*
X1978Y2569D02*
X2240Y2569D01*
X1449Y2568D02*
X1708Y2568D01*
X1978Y2568D02*
X2240Y2568D01*
X1449Y2567D02*
X1708Y2567D01*
X1978Y2567D02*
X2240Y2567D01*
X1449Y2566D02*
X1708Y2566D01*
X1978Y2566D02*
X2240Y2566D01*
X1449Y2565D02*
X1708Y2565D01*
X1977Y2565D02*
X2240Y2565D01*
X1449Y2564D02*
X1708Y2564D01*
X1944Y2564D02*
X2240Y2564D01*
X1449Y2563D02*
X1742Y2563D01*
X1944Y2563D02*
X2240Y2563D01*
X1449Y2562D02*
X1742Y2562D01*
X1944Y2562D02*
X2240Y2562D01*
X1450Y2561D02*
X1742Y2561D01*
X1944Y2561D02*
X2240Y2561D01*
X1450Y2560D02*
X1742Y2560D01*
X1944Y2560D02*
X2240Y2560D01*
X1450Y2559D02*
X1742Y2559D01*
X1944Y2559D02*
X2240Y2559D01*
X1450Y2558D02*
X1742Y2558D01*
X1944Y2558D02*
X2240Y2558D01*
X1450Y2557D02*
X1742Y2557D01*
X1944Y2557D02*
X2240Y2557D01*
X1450Y2556D02*
X1742Y2556D01*
X1944Y2556D02*
X2240Y2556D01*
X1450Y2555D02*
X1742Y2555D01*
X1944Y2555D02*
X2240Y2555D01*
X1450Y2554D02*
X1742Y2554D01*
X1944Y2554D02*
X2240Y2554D01*
X1450Y2553D02*
X1742Y2553D01*
X1944Y2553D02*
X2240Y2553D01*
X1450Y2552D02*
X1742Y2552D01*
X1944Y2552D02*
X2240Y2552D01*
X1450Y2551D02*
X1742Y2551D01*
X1944Y2551D02*
X2240Y2551D01*
X1450Y2550D02*
X1742Y2550D01*
X1944Y2550D02*
X2240Y2550D01*
X1450Y2549D02*
X1742Y2549D01*
X1944Y2549D02*
X2240Y2549D01*
X1450Y2548D02*
X1742Y2548D01*
X1945Y2548D02*
X2240Y2548D01*
X1450Y2547D02*
X1742Y2547D01*
X1945Y2547D02*
X2240Y2547D01*
X1450Y2546D02*
X1742Y2546D01*
X1945Y2546D02*
X2240Y2546D01*
X1450Y2545D02*
X1742Y2545D01*
X1945Y2545D02*
X2240Y2545D01*
X1450Y2544D02*
X1742Y2544D01*
X1945Y2544D02*
X2240Y2544D01*
X1450Y2543D02*
X1742Y2543D01*
X1945Y2543D02*
X2240Y2543D01*
X1450Y2542D02*
X1742Y2542D01*
X1945Y2542D02*
X2240Y2542D01*
X1450Y2541D02*
X1742Y2541D01*
X1945Y2541D02*
X2240Y2541D01*
X1450Y2540D02*
X1742Y2540D01*
X1945Y2540D02*
X2240Y2540D01*
X1450Y2539D02*
X1742Y2539D01*
X1945Y2539D02*
X2240Y2539D01*
X1450Y2538D02*
X1742Y2538D01*
X1945Y2538D02*
X2240Y2538D01*
X1450Y2537D02*
X1742Y2537D01*
X1945Y2537D02*
X2240Y2537D01*
X1450Y2536D02*
X1742Y2536D01*
X1945Y2536D02*
X2240Y2536D01*
X1450Y2535D02*
X1742Y2535D01*
X1945Y2535D02*
X2240Y2535D01*
X1450Y2534D02*
X1742Y2534D01*
X1945Y2534D02*
X2240Y2534D01*
X1450Y2533D02*
X1742Y2533D01*
X1945Y2533D02*
X2240Y2533D01*
X1450Y2532D02*
X1742Y2532D01*
X1945Y2532D02*
X2240Y2532D01*
X1450Y2531D02*
X1742Y2531D01*
X1917Y2531D02*
X2240Y2531D01*
X1450Y2530D02*
X1742Y2530D01*
X1774Y2530D02*
X1775Y2530D01*
X1911Y2530D02*
X2240Y2530D01*
X1450Y2529D02*
X1776Y2529D01*
X1911Y2529D02*
X2240Y2529D01*
X1450Y2528D02*
X1776Y2528D01*
X1911Y2528D02*
X2240Y2528D01*
X1450Y2527D02*
X1776Y2527D01*
X1911Y2527D02*
X2240Y2527D01*
X1450Y2526D02*
X1776Y2526D01*
X1911Y2526D02*
X2241Y2526D01*
X1450Y2525D02*
X1776Y2525D01*
X1911Y2525D02*
X2241Y2525D01*
X1450Y2524D02*
X1776Y2524D01*
X1911Y2524D02*
X2241Y2524D01*
X1450Y2523D02*
X1776Y2523D01*
X1911Y2523D02*
X2241Y2523D01*
X1450Y2522D02*
X1776Y2522D01*
X1911Y2522D02*
X2241Y2522D01*
X1450Y2521D02*
X1776Y2521D01*
X1911Y2521D02*
X2241Y2521D01*
X1450Y2520D02*
X1776Y2520D01*
X1911Y2520D02*
X2241Y2520D01*
X1450Y2519D02*
X1776Y2519D01*
X1911Y2519D02*
X2241Y2519D01*
X1450Y2518D02*
X1776Y2518D01*
X1911Y2518D02*
X2241Y2518D01*
X1450Y2517D02*
X1776Y2517D01*
X1911Y2517D02*
X2241Y2517D01*
X1450Y2516D02*
X1776Y2516D01*
X1911Y2516D02*
X2241Y2516D01*
X1450Y2515D02*
X1776Y2515D01*
X1911Y2515D02*
X2241Y2515D01*
X1451Y2514D02*
X1776Y2514D01*
X1911Y2514D02*
X2241Y2514D01*
X1451Y2513D02*
X1776Y2513D01*
X1911Y2513D02*
X2241Y2513D01*
X1451Y2512D02*
X1776Y2512D01*
X1911Y2512D02*
X2241Y2512D01*
X1451Y2511D02*
X1776Y2511D01*
X1911Y2511D02*
X2241Y2511D01*
X1451Y2510D02*
X1776Y2510D01*
X1911Y2510D02*
X2241Y2510D01*
X1451Y2509D02*
X1776Y2509D01*
X1911Y2509D02*
X2241Y2509D01*
X1451Y2508D02*
X1776Y2508D01*
X1911Y2508D02*
X2241Y2508D01*
X1451Y2507D02*
X1776Y2507D01*
X1911Y2507D02*
X2241Y2507D01*
X1451Y2506D02*
X1776Y2506D01*
X1911Y2506D02*
X2241Y2506D01*
X1451Y2505D02*
X1776Y2505D01*
X1911Y2505D02*
X2241Y2505D01*
X1451Y2504D02*
X1776Y2504D01*
X1911Y2504D02*
X2241Y2504D01*
X1451Y2503D02*
X1776Y2503D01*
X1911Y2503D02*
X2241Y2503D01*
X1451Y2502D02*
X1776Y2502D01*
X1911Y2502D02*
X2241Y2502D01*
X1451Y2501D02*
X1776Y2501D01*
X1911Y2501D02*
X2241Y2501D01*
X1451Y2500D02*
X1776Y2500D01*
X1911Y2500D02*
X2241Y2500D01*
X1451Y2499D02*
X1776Y2499D01*
X1911Y2499D02*
X2241Y2499D01*
X1451Y2498D02*
X1776Y2498D01*
X1911Y2498D02*
X2241Y2498D01*
X1451Y2497D02*
X1776Y2497D01*
X1878Y2497D02*
X2241Y2497D01*
X1451Y2496D02*
X1810Y2496D01*
X1878Y2496D02*
X2241Y2496D01*
X1451Y2495D02*
X1810Y2495D01*
X1878Y2495D02*
X2241Y2495D01*
X1451Y2494D02*
X1810Y2494D01*
X1878Y2494D02*
X2241Y2494D01*
X1451Y2493D02*
X1810Y2493D01*
X1878Y2493D02*
X2241Y2493D01*
X1451Y2492D02*
X1810Y2492D01*
X1878Y2492D02*
X2241Y2492D01*
X1451Y2491D02*
X1810Y2491D01*
X1878Y2491D02*
X2241Y2491D01*
X1451Y2490D02*
X1810Y2490D01*
X1878Y2490D02*
X2241Y2490D01*
X1451Y2489D02*
X1810Y2489D01*
X1878Y2489D02*
X2241Y2489D01*
X1451Y2488D02*
X1810Y2488D01*
X1878Y2488D02*
X2241Y2488D01*
X1451Y2487D02*
X1810Y2487D01*
X1878Y2487D02*
X2241Y2487D01*
X1451Y2486D02*
X1810Y2486D01*
X1878Y2486D02*
X2241Y2486D01*
X1451Y2485D02*
X1810Y2485D01*
X1878Y2485D02*
X2241Y2485D01*
X1451Y2484D02*
X1810Y2484D01*
X1878Y2484D02*
X2241Y2484D01*
X1451Y2483D02*
X1810Y2483D01*
X1878Y2483D02*
X2241Y2483D01*
X1451Y2482D02*
X1810Y2482D01*
X1878Y2482D02*
X2241Y2482D01*
X1451Y2481D02*
X1810Y2481D01*
X1878Y2481D02*
X2241Y2481D01*
X1451Y2480D02*
X1810Y2480D01*
X1878Y2480D02*
X2241Y2480D01*
X1451Y2479D02*
X1810Y2479D01*
X1878Y2479D02*
X2242Y2479D01*
X1451Y2478D02*
X1810Y2478D01*
X1878Y2478D02*
X2242Y2478D01*
X1451Y2477D02*
X1810Y2477D01*
X1878Y2477D02*
X2242Y2477D01*
X1451Y2476D02*
X1810Y2476D01*
X1878Y2476D02*
X2242Y2476D01*
X1451Y2475D02*
X1810Y2475D01*
X1878Y2475D02*
X2242Y2475D01*
X1451Y2474D02*
X1810Y2474D01*
X1878Y2474D02*
X2242Y2474D01*
X1451Y2473D02*
X1810Y2473D01*
X1878Y2473D02*
X2242Y2473D01*
X1451Y2472D02*
X1810Y2472D01*
X1878Y2472D02*
X2242Y2472D01*
X1451Y2471D02*
X1810Y2471D01*
X1878Y2471D02*
X2242Y2471D01*
X1451Y2470D02*
X1810Y2470D01*
X1878Y2470D02*
X2242Y2470D01*
X1451Y2469D02*
X1810Y2469D01*
X1878Y2469D02*
X2242Y2469D01*
X1451Y2468D02*
X1810Y2468D01*
X1878Y2468D02*
X2242Y2468D01*
X1452Y2467D02*
X1810Y2467D01*
X1878Y2467D02*
X2242Y2467D01*
X1452Y2466D02*
X1810Y2466D01*
X1878Y2466D02*
X2242Y2466D01*
X1452Y2465D02*
X1810Y2465D01*
X1878Y2465D02*
X2242Y2465D01*
X1452Y2464D02*
X1810Y2464D01*
X1878Y2464D02*
X2242Y2464D01*
X1452Y2463D02*
X2242Y2463D01*
X1452Y2462D02*
X2242Y2462D01*
X1452Y2461D02*
X2242Y2461D01*
X1452Y2460D02*
X2242Y2460D01*
X1452Y2459D02*
X2242Y2459D01*
X1452Y2458D02*
X2242Y2458D01*
X1452Y2457D02*
X2242Y2457D01*
X1452Y2456D02*
X2242Y2456D01*
X1452Y2455D02*
X2242Y2455D01*
X1452Y2454D02*
X2242Y2454D01*
X1452Y2453D02*
X2242Y2453D01*
X1452Y2452D02*
X2242Y2452D01*
X1452Y2451D02*
X2242Y2451D01*
X1452Y2450D02*
X2242Y2450D01*
X1452Y2449D02*
X2242Y2449D01*
X1452Y2448D02*
X2242Y2448D01*
X1452Y2447D02*
X2242Y2447D01*
X1452Y2446D02*
X2242Y2446D01*
X1452Y2445D02*
X2242Y2445D01*
X1452Y2444D02*
X2242Y2444D01*
X1452Y2443D02*
X2242Y2443D01*
X1452Y2442D02*
X2242Y2442D01*
X1452Y2441D02*
X2242Y2441D01*
X1452Y2440D02*
X2242Y2440D01*
X1452Y2439D02*
X2242Y2439D01*
X1452Y2438D02*
X2242Y2438D01*
X1452Y2437D02*
X2242Y2437D01*
X1452Y2436D02*
X2242Y2436D01*
X1452Y2435D02*
X2242Y2435D01*
X1452Y2434D02*
X2242Y2434D01*
X1452Y2433D02*
X2242Y2433D01*
X1452Y2432D02*
X2242Y2432D01*
X1452Y2431D02*
X2243Y2431D01*
X1452Y2430D02*
X2243Y2430D01*
X1452Y2429D02*
X2243Y2429D01*
X1452Y2428D02*
X2243Y2428D01*
X1452Y2427D02*
X2243Y2427D01*
X1452Y2426D02*
X2243Y2426D01*
X1452Y2425D02*
X2243Y2425D01*
X1452Y2424D02*
X2243Y2424D01*
X1452Y2423D02*
X2243Y2423D01*
X1452Y2422D02*
X2243Y2422D01*
X1452Y2421D02*
X2243Y2421D01*
X1452Y2420D02*
X2243Y2420D01*
X1453Y2419D02*
X2243Y2419D01*
X1453Y2418D02*
X2243Y2418D01*
X1453Y2417D02*
X2243Y2417D01*
X1453Y2416D02*
X2243Y2416D01*
X1453Y2415D02*
X2243Y2415D01*
X1453Y2414D02*
X2243Y2414D01*
X1453Y2413D02*
X2243Y2413D01*
X1453Y2412D02*
X2243Y2412D01*
X1453Y2411D02*
X2243Y2411D01*
X1453Y2410D02*
X2243Y2410D01*
X1453Y2409D02*
X2243Y2409D01*
X1453Y2408D02*
X2243Y2408D01*
X1453Y2407D02*
X2243Y2407D01*
X1453Y2406D02*
X2243Y2406D01*
X1453Y2405D02*
X2243Y2405D01*
X1453Y2404D02*
X2243Y2404D01*
X1453Y2403D02*
X2243Y2403D01*
X1453Y2402D02*
X2243Y2402D01*
X1453Y2401D02*
X2243Y2401D01*
X1453Y2400D02*
X2243Y2400D01*
X1453Y2399D02*
X2243Y2399D01*
X1453Y2398D02*
X2243Y2398D01*
X1453Y2397D02*
X2243Y2397D01*
X1453Y2396D02*
X2243Y2396D01*
X1453Y2395D02*
X2243Y2395D01*
X1453Y2394D02*
X2243Y2394D01*
X1453Y2393D02*
X2243Y2393D01*
X1453Y2392D02*
X2243Y2392D01*
X1453Y2391D02*
X2243Y2391D01*
X1453Y2390D02*
X2243Y2390D01*
X1453Y2389D02*
X2243Y2389D01*
X1453Y2388D02*
X2243Y2388D01*
X1453Y2387D02*
X2243Y2387D01*
X1453Y2386D02*
X2243Y2386D01*
X1453Y2385D02*
X2243Y2385D01*
X1453Y2384D02*
X2072Y2384D01*
X2091Y2384D02*
X2244Y2384D01*
X1453Y2383D02*
X1914Y2383D01*
X1940Y2383D02*
X2067Y2383D01*
X2094Y2383D02*
X2244Y2383D01*
X1453Y2382D02*
X1914Y2382D01*
X1940Y2382D02*
X2063Y2382D01*
X2096Y2382D02*
X2244Y2382D01*
X1453Y2381D02*
X1914Y2381D01*
X1940Y2381D02*
X1982Y2381D01*
X2001Y2381D02*
X2060Y2381D01*
X2098Y2381D02*
X2244Y2381D01*
X1453Y2380D02*
X1698Y2380D01*
X1725Y2380D02*
X1914Y2380D01*
X1940Y2380D02*
X1979Y2380D01*
X2001Y2380D02*
X2057Y2380D01*
X2100Y2380D02*
X2244Y2380D01*
X1453Y2379D02*
X1698Y2379D01*
X1725Y2379D02*
X1914Y2379D01*
X1940Y2379D02*
X1976Y2379D01*
X2001Y2379D02*
X2055Y2379D01*
X2102Y2379D02*
X2244Y2379D01*
X1453Y2378D02*
X1698Y2378D01*
X1725Y2378D02*
X1914Y2378D01*
X1940Y2378D02*
X1973Y2378D01*
X2001Y2378D02*
X2053Y2378D01*
X2104Y2378D02*
X2244Y2378D01*
X1453Y2377D02*
X1698Y2377D01*
X1725Y2377D02*
X1914Y2377D01*
X1940Y2377D02*
X1970Y2377D01*
X2001Y2377D02*
X2051Y2377D01*
X2106Y2377D02*
X2244Y2377D01*
X1453Y2376D02*
X1698Y2376D01*
X1725Y2376D02*
X1914Y2376D01*
X1940Y2376D02*
X1967Y2376D01*
X2001Y2376D02*
X2049Y2376D01*
X2108Y2376D02*
X2244Y2376D01*
X1453Y2375D02*
X1698Y2375D01*
X1725Y2375D02*
X1914Y2375D01*
X1940Y2375D02*
X1964Y2375D01*
X2001Y2375D02*
X2048Y2375D01*
X2109Y2375D02*
X2244Y2375D01*
X1453Y2374D02*
X1608Y2374D01*
X1630Y2374D02*
X1653Y2374D01*
X1676Y2374D02*
X1698Y2374D01*
X1725Y2374D02*
X1914Y2374D01*
X1940Y2374D02*
X1961Y2374D01*
X2001Y2374D02*
X2046Y2374D01*
X2110Y2374D02*
X2244Y2374D01*
X1453Y2373D02*
X1607Y2373D01*
X1630Y2373D02*
X1653Y2373D01*
X1675Y2373D02*
X1698Y2373D01*
X1725Y2373D02*
X1914Y2373D01*
X1940Y2373D02*
X1958Y2373D01*
X2001Y2373D02*
X2045Y2373D01*
X2111Y2373D02*
X2244Y2373D01*
X1454Y2372D02*
X1607Y2372D01*
X1630Y2372D02*
X1652Y2372D01*
X1675Y2372D02*
X1698Y2372D01*
X1725Y2372D02*
X1914Y2372D01*
X1940Y2372D02*
X1955Y2372D01*
X2001Y2372D02*
X2044Y2372D01*
X2112Y2372D02*
X2244Y2372D01*
X1454Y2371D02*
X1607Y2371D01*
X1630Y2371D02*
X1652Y2371D01*
X1675Y2371D02*
X1698Y2371D01*
X1725Y2371D02*
X1914Y2371D01*
X1940Y2371D02*
X1952Y2371D01*
X2001Y2371D02*
X2043Y2371D01*
X2112Y2371D02*
X2244Y2371D01*
X1454Y2370D02*
X1607Y2370D01*
X1630Y2370D02*
X1652Y2370D01*
X1675Y2370D02*
X1698Y2370D01*
X1725Y2370D02*
X1914Y2370D01*
X1940Y2370D02*
X1951Y2370D01*
X2001Y2370D02*
X2042Y2370D01*
X2111Y2370D02*
X2244Y2370D01*
X1454Y2369D02*
X1607Y2369D01*
X1630Y2369D02*
X1652Y2369D01*
X1675Y2369D02*
X1698Y2369D01*
X1725Y2369D02*
X1914Y2369D01*
X1940Y2369D02*
X1951Y2369D01*
X2001Y2369D02*
X2041Y2369D01*
X2110Y2369D02*
X2244Y2369D01*
X1454Y2368D02*
X1606Y2368D01*
X1629Y2368D02*
X1652Y2368D01*
X1675Y2368D02*
X1698Y2368D01*
X1725Y2368D02*
X1914Y2368D01*
X1940Y2368D02*
X1951Y2368D01*
X2001Y2368D02*
X2040Y2368D01*
X2110Y2368D02*
X2244Y2368D01*
X1454Y2367D02*
X1606Y2367D01*
X1629Y2367D02*
X1651Y2367D01*
X1674Y2367D02*
X1698Y2367D01*
X1725Y2367D02*
X1914Y2367D01*
X1940Y2367D02*
X1952Y2367D01*
X2001Y2367D02*
X2039Y2367D01*
X2109Y2367D02*
X2244Y2367D01*
X1454Y2366D02*
X1606Y2366D01*
X1629Y2366D02*
X1651Y2366D01*
X1674Y2366D02*
X1698Y2366D01*
X1725Y2366D02*
X1914Y2366D01*
X1940Y2366D02*
X1952Y2366D01*
X2001Y2366D02*
X2039Y2366D01*
X2108Y2366D02*
X2244Y2366D01*
X1454Y2365D02*
X1606Y2365D01*
X1629Y2365D02*
X1651Y2365D01*
X1674Y2365D02*
X1698Y2365D01*
X1725Y2365D02*
X1914Y2365D01*
X1940Y2365D02*
X1952Y2365D01*
X2001Y2365D02*
X2038Y2365D01*
X2107Y2365D02*
X2244Y2365D01*
X1454Y2364D02*
X1606Y2364D01*
X1629Y2364D02*
X1651Y2364D01*
X1674Y2364D02*
X1698Y2364D01*
X1725Y2364D02*
X1914Y2364D01*
X1940Y2364D02*
X1953Y2364D01*
X2001Y2364D02*
X2037Y2364D01*
X2107Y2364D02*
X2244Y2364D01*
X1454Y2363D02*
X1606Y2363D01*
X1628Y2363D02*
X1651Y2363D01*
X1674Y2363D02*
X1698Y2363D01*
X1725Y2363D02*
X1914Y2363D01*
X1940Y2363D02*
X1953Y2363D01*
X2001Y2363D02*
X2037Y2363D01*
X2106Y2363D02*
X2244Y2363D01*
X1454Y2362D02*
X1605Y2362D01*
X1628Y2362D02*
X1651Y2362D01*
X1673Y2362D02*
X1698Y2362D01*
X1725Y2362D02*
X1914Y2362D01*
X1940Y2362D02*
X1953Y2362D01*
X2002Y2362D02*
X2036Y2362D01*
X2105Y2362D02*
X2244Y2362D01*
X1454Y2361D02*
X1605Y2361D01*
X1628Y2361D02*
X1650Y2361D01*
X1673Y2361D02*
X1698Y2361D01*
X1725Y2361D02*
X1914Y2361D01*
X1940Y2361D02*
X1953Y2361D01*
X2002Y2361D02*
X2035Y2361D01*
X2072Y2361D02*
X2084Y2361D01*
X2105Y2361D02*
X2244Y2361D01*
X1454Y2360D02*
X1605Y2360D01*
X1628Y2360D02*
X1650Y2360D01*
X1673Y2360D02*
X1698Y2360D01*
X1725Y2360D02*
X1914Y2360D01*
X1940Y2360D02*
X1954Y2360D01*
X2002Y2360D02*
X2035Y2360D01*
X2068Y2360D02*
X2086Y2360D01*
X2104Y2360D02*
X2244Y2360D01*
X1454Y2359D02*
X1605Y2359D01*
X1628Y2359D02*
X1650Y2359D01*
X1673Y2359D02*
X1698Y2359D01*
X1725Y2359D02*
X1914Y2359D01*
X1940Y2359D02*
X1954Y2359D01*
X2002Y2359D02*
X2034Y2359D01*
X2066Y2359D02*
X2089Y2359D01*
X2103Y2359D02*
X2244Y2359D01*
X1454Y2358D02*
X1605Y2358D01*
X1628Y2358D02*
X1650Y2358D01*
X1673Y2358D02*
X1914Y2358D01*
X1940Y2358D02*
X1954Y2358D01*
X2002Y2358D02*
X2034Y2358D01*
X2065Y2358D02*
X2091Y2358D01*
X2103Y2358D02*
X2244Y2358D01*
X1454Y2357D02*
X1605Y2357D01*
X1627Y2357D02*
X1650Y2357D01*
X1673Y2357D02*
X1914Y2357D01*
X1940Y2357D02*
X1955Y2357D01*
X2002Y2357D02*
X2033Y2357D01*
X2063Y2357D02*
X2092Y2357D01*
X2102Y2357D02*
X2244Y2357D01*
X1454Y2356D02*
X1604Y2356D01*
X1627Y2356D02*
X1650Y2356D01*
X1672Y2356D02*
X1914Y2356D01*
X1940Y2356D02*
X1955Y2356D01*
X1977Y2356D02*
X1977Y2356D01*
X2002Y2356D02*
X2033Y2356D01*
X2062Y2356D02*
X2094Y2356D01*
X2101Y2356D02*
X2244Y2356D01*
X1454Y2355D02*
X1604Y2355D01*
X1627Y2355D02*
X1649Y2355D01*
X1672Y2355D02*
X1914Y2355D01*
X1940Y2355D02*
X1955Y2355D01*
X1974Y2355D02*
X1977Y2355D01*
X2002Y2355D02*
X2033Y2355D01*
X2061Y2355D02*
X2095Y2355D01*
X2101Y2355D02*
X2244Y2355D01*
X1454Y2354D02*
X1604Y2354D01*
X1627Y2354D02*
X1649Y2354D01*
X1672Y2354D02*
X1884Y2354D01*
X1891Y2354D02*
X1914Y2354D01*
X1940Y2354D02*
X1955Y2354D01*
X1970Y2354D02*
X1977Y2354D01*
X2002Y2354D02*
X2032Y2354D01*
X2060Y2354D02*
X2096Y2354D01*
X2100Y2354D02*
X2244Y2354D01*
X1454Y2353D02*
X1604Y2353D01*
X1627Y2353D02*
X1649Y2353D01*
X1672Y2353D02*
X1878Y2353D01*
X1897Y2353D02*
X1914Y2353D01*
X1940Y2353D02*
X1956Y2353D01*
X1967Y2353D02*
X1977Y2353D01*
X2002Y2353D02*
X2032Y2353D01*
X2059Y2353D02*
X2244Y2353D01*
X1454Y2352D02*
X1604Y2352D01*
X1626Y2352D02*
X1649Y2352D01*
X1672Y2352D02*
X1797Y2352D01*
X1801Y2352D02*
X1875Y2352D01*
X1900Y2352D02*
X1914Y2352D01*
X1940Y2352D02*
X1956Y2352D01*
X1963Y2352D02*
X1977Y2352D01*
X2002Y2352D02*
X2031Y2352D01*
X2058Y2352D02*
X2244Y2352D01*
X1454Y2351D02*
X1603Y2351D01*
X1627Y2351D02*
X1642Y2351D01*
X1685Y2351D02*
X1792Y2351D01*
X1807Y2351D02*
X1871Y2351D01*
X1902Y2351D02*
X1914Y2351D01*
X1940Y2351D02*
X1956Y2351D01*
X1960Y2351D02*
X1977Y2351D01*
X2002Y2351D02*
X2031Y2351D01*
X2058Y2351D02*
X2244Y2351D01*
X1454Y2350D02*
X1586Y2350D01*
X1685Y2350D02*
X1747Y2350D01*
X1772Y2350D02*
X1786Y2350D01*
X1810Y2350D02*
X1868Y2350D01*
X1903Y2350D02*
X1914Y2350D01*
X1940Y2350D02*
X1977Y2350D01*
X2002Y2350D02*
X2031Y2350D01*
X2057Y2350D02*
X2244Y2350D01*
X1454Y2349D02*
X1586Y2349D01*
X1685Y2349D02*
X1746Y2349D01*
X1772Y2349D02*
X1783Y2349D01*
X1813Y2349D02*
X1866Y2349D01*
X1905Y2349D02*
X1914Y2349D01*
X1940Y2349D02*
X1977Y2349D01*
X2002Y2349D02*
X2031Y2349D01*
X2057Y2349D02*
X2244Y2349D01*
X1454Y2348D02*
X1586Y2348D01*
X1685Y2348D02*
X1700Y2348D01*
X1726Y2348D02*
X1746Y2348D01*
X1772Y2348D02*
X1782Y2348D01*
X1815Y2348D02*
X1865Y2348D01*
X1906Y2348D02*
X1914Y2348D01*
X1941Y2348D02*
X1977Y2348D01*
X2002Y2348D02*
X2030Y2348D01*
X2056Y2348D02*
X2244Y2348D01*
X1454Y2347D02*
X1586Y2347D01*
X1685Y2347D02*
X1700Y2347D01*
X1726Y2347D02*
X1746Y2347D01*
X1772Y2347D02*
X1781Y2347D01*
X1816Y2347D02*
X1863Y2347D01*
X1908Y2347D02*
X1914Y2347D01*
X1941Y2347D02*
X1977Y2347D01*
X2002Y2347D02*
X2030Y2347D01*
X2056Y2347D02*
X2244Y2347D01*
X1454Y2346D02*
X1586Y2346D01*
X1685Y2346D02*
X1700Y2346D01*
X1726Y2346D02*
X1747Y2346D01*
X1772Y2346D02*
X1779Y2346D01*
X1818Y2346D02*
X1862Y2346D01*
X1909Y2346D02*
X1914Y2346D01*
X1941Y2346D02*
X1977Y2346D01*
X2002Y2346D02*
X2030Y2346D01*
X2055Y2346D02*
X2244Y2346D01*
X1454Y2345D02*
X1586Y2345D01*
X1685Y2345D02*
X1700Y2345D01*
X1726Y2345D02*
X1747Y2345D01*
X1772Y2345D02*
X1778Y2345D01*
X1819Y2345D02*
X1861Y2345D01*
X1910Y2345D02*
X1914Y2345D01*
X1941Y2345D02*
X1977Y2345D01*
X2002Y2345D02*
X2030Y2345D01*
X2055Y2345D02*
X2244Y2345D01*
X1454Y2344D02*
X1586Y2344D01*
X1685Y2344D02*
X1700Y2344D01*
X1726Y2344D02*
X1747Y2344D01*
X1772Y2344D02*
X1777Y2344D01*
X1820Y2344D02*
X1860Y2344D01*
X1912Y2344D02*
X1914Y2344D01*
X1941Y2344D02*
X1977Y2344D01*
X2002Y2344D02*
X2029Y2344D01*
X2054Y2344D02*
X2244Y2344D01*
X1454Y2343D02*
X1586Y2343D01*
X1685Y2343D02*
X1700Y2343D01*
X1726Y2343D02*
X1747Y2343D01*
X1772Y2343D02*
X1776Y2343D01*
X1821Y2343D02*
X1859Y2343D01*
X1913Y2343D02*
X1914Y2343D01*
X1941Y2343D02*
X1977Y2343D01*
X2002Y2343D02*
X2029Y2343D01*
X2054Y2343D02*
X2069Y2343D01*
X2091Y2343D02*
X2244Y2343D01*
X1454Y2342D02*
X1586Y2342D01*
X1685Y2342D02*
X1700Y2342D01*
X1726Y2342D02*
X1747Y2342D01*
X1772Y2342D02*
X1775Y2342D01*
X1822Y2342D02*
X1859Y2342D01*
X1914Y2342D02*
X1914Y2342D01*
X1941Y2342D02*
X1977Y2342D01*
X2002Y2342D02*
X2029Y2342D01*
X2053Y2342D02*
X2065Y2342D01*
X2095Y2342D02*
X2244Y2342D01*
X1454Y2341D02*
X1586Y2341D01*
X1685Y2341D02*
X1700Y2341D01*
X1726Y2341D02*
X1747Y2341D01*
X1772Y2341D02*
X1774Y2341D01*
X1823Y2341D02*
X1858Y2341D01*
X1941Y2341D02*
X1977Y2341D01*
X2002Y2341D02*
X2029Y2341D01*
X2053Y2341D02*
X2062Y2341D01*
X2098Y2341D02*
X2244Y2341D01*
X1454Y2340D02*
X1586Y2340D01*
X1685Y2340D02*
X1700Y2340D01*
X1726Y2340D02*
X1747Y2340D01*
X1772Y2340D02*
X1773Y2340D01*
X1823Y2340D02*
X1857Y2340D01*
X1941Y2340D02*
X1977Y2340D01*
X2002Y2340D02*
X2029Y2340D01*
X2053Y2340D02*
X2060Y2340D01*
X2099Y2340D02*
X2244Y2340D01*
X1454Y2339D02*
X1586Y2339D01*
X1685Y2339D02*
X1700Y2339D01*
X1726Y2339D02*
X1747Y2339D01*
X1772Y2339D02*
X1773Y2339D01*
X1824Y2339D02*
X1856Y2339D01*
X1941Y2339D02*
X1977Y2339D01*
X2002Y2339D02*
X2029Y2339D01*
X2053Y2339D02*
X2058Y2339D01*
X2101Y2339D02*
X2244Y2339D01*
X1454Y2338D02*
X1586Y2338D01*
X1685Y2338D02*
X1700Y2338D01*
X1726Y2338D02*
X1747Y2338D01*
X1825Y2338D02*
X1855Y2338D01*
X1941Y2338D02*
X1977Y2338D01*
X2002Y2338D02*
X2028Y2338D01*
X2053Y2338D02*
X2056Y2338D01*
X2103Y2338D02*
X2244Y2338D01*
X1454Y2337D02*
X1586Y2337D01*
X1685Y2337D02*
X1700Y2337D01*
X1726Y2337D02*
X1747Y2337D01*
X1825Y2337D02*
X1854Y2337D01*
X1941Y2337D02*
X1977Y2337D01*
X2002Y2337D02*
X2028Y2337D01*
X2053Y2337D02*
X2055Y2337D01*
X2104Y2337D02*
X2245Y2337D01*
X1454Y2336D02*
X1586Y2336D01*
X1685Y2336D02*
X1700Y2336D01*
X1726Y2336D02*
X1747Y2336D01*
X1826Y2336D02*
X1854Y2336D01*
X1941Y2336D02*
X1977Y2336D01*
X2002Y2336D02*
X2028Y2336D01*
X2053Y2336D02*
X2054Y2336D01*
X2105Y2336D02*
X2245Y2336D01*
X1454Y2335D02*
X1586Y2335D01*
X1685Y2335D02*
X1700Y2335D01*
X1726Y2335D02*
X1747Y2335D01*
X1826Y2335D02*
X1853Y2335D01*
X1941Y2335D02*
X1977Y2335D01*
X2002Y2335D02*
X2028Y2335D01*
X2053Y2335D02*
X2053Y2335D01*
X2107Y2335D02*
X2245Y2335D01*
X1454Y2334D02*
X1586Y2334D01*
X1685Y2334D02*
X1700Y2334D01*
X1726Y2334D02*
X1747Y2334D01*
X1826Y2334D02*
X1853Y2334D01*
X1941Y2334D02*
X1977Y2334D01*
X2002Y2334D02*
X2028Y2334D01*
X2108Y2334D02*
X2245Y2334D01*
X1454Y2333D02*
X1586Y2333D01*
X1685Y2333D02*
X1700Y2333D01*
X1726Y2333D02*
X1747Y2333D01*
X1827Y2333D02*
X1852Y2333D01*
X1941Y2333D02*
X1977Y2333D01*
X2002Y2333D02*
X2028Y2333D01*
X2108Y2333D02*
X2245Y2333D01*
X1454Y2332D02*
X1586Y2332D01*
X1685Y2332D02*
X1700Y2332D01*
X1726Y2332D02*
X1747Y2332D01*
X1827Y2332D02*
X1852Y2332D01*
X1887Y2332D02*
X1896Y2332D01*
X1941Y2332D02*
X1978Y2332D01*
X2002Y2332D02*
X2028Y2332D01*
X2109Y2332D02*
X2245Y2332D01*
X1454Y2331D02*
X1586Y2331D01*
X1684Y2331D02*
X1700Y2331D01*
X1726Y2331D02*
X1747Y2331D01*
X1827Y2331D02*
X1851Y2331D01*
X1884Y2331D02*
X1900Y2331D01*
X1941Y2331D02*
X1978Y2331D01*
X2002Y2331D02*
X2027Y2331D01*
X2110Y2331D02*
X2245Y2331D01*
X1454Y2330D02*
X1600Y2330D01*
X1669Y2330D02*
X1700Y2330D01*
X1726Y2330D02*
X1747Y2330D01*
X1827Y2330D02*
X1851Y2330D01*
X1882Y2330D02*
X1903Y2330D01*
X1941Y2330D02*
X1978Y2330D01*
X2002Y2330D02*
X2027Y2330D01*
X2111Y2330D02*
X2245Y2330D01*
X1454Y2329D02*
X1600Y2329D01*
X1668Y2329D02*
X1700Y2329D01*
X1726Y2329D02*
X1747Y2329D01*
X1828Y2329D02*
X1851Y2329D01*
X1880Y2329D02*
X1904Y2329D01*
X1941Y2329D02*
X1978Y2329D01*
X2002Y2329D02*
X2027Y2329D01*
X2112Y2329D02*
X2245Y2329D01*
X1454Y2328D02*
X1600Y2328D01*
X1668Y2328D02*
X1700Y2328D01*
X1726Y2328D02*
X1747Y2328D01*
X1785Y2328D02*
X1794Y2328D01*
X1828Y2328D02*
X1850Y2328D01*
X1879Y2328D02*
X1905Y2328D01*
X1941Y2328D02*
X1978Y2328D01*
X2002Y2328D02*
X2027Y2328D01*
X2112Y2328D02*
X2245Y2328D01*
X1454Y2327D02*
X1600Y2327D01*
X1668Y2327D02*
X1700Y2327D01*
X1726Y2327D02*
X1747Y2327D01*
X1782Y2327D02*
X1797Y2327D01*
X1828Y2327D02*
X1850Y2327D01*
X1877Y2327D02*
X1907Y2327D01*
X1941Y2327D02*
X1978Y2327D01*
X2002Y2327D02*
X2027Y2327D01*
X2113Y2327D02*
X2245Y2327D01*
X1454Y2326D02*
X1600Y2326D01*
X1668Y2326D02*
X1700Y2326D01*
X1726Y2326D02*
X1747Y2326D01*
X1780Y2326D02*
X1799Y2326D01*
X1828Y2326D02*
X1850Y2326D01*
X1876Y2326D02*
X1908Y2326D01*
X1941Y2326D02*
X1978Y2326D01*
X2002Y2326D02*
X2027Y2326D01*
X2114Y2326D02*
X2245Y2326D01*
X1454Y2325D02*
X1600Y2325D01*
X1668Y2325D02*
X1700Y2325D01*
X1726Y2325D02*
X1747Y2325D01*
X1779Y2325D02*
X1800Y2325D01*
X1829Y2325D02*
X1850Y2325D01*
X1875Y2325D02*
X1908Y2325D01*
X1941Y2325D02*
X1978Y2325D01*
X2002Y2325D02*
X2027Y2325D01*
X2114Y2325D02*
X2245Y2325D01*
X1455Y2324D02*
X1600Y2324D01*
X1668Y2324D02*
X1700Y2324D01*
X1726Y2324D02*
X1747Y2324D01*
X1778Y2324D02*
X1801Y2324D01*
X1829Y2324D02*
X1849Y2324D01*
X1874Y2324D02*
X1909Y2324D01*
X1941Y2324D02*
X1978Y2324D01*
X2002Y2324D02*
X2027Y2324D01*
X2115Y2324D02*
X2245Y2324D01*
X1455Y2323D02*
X1599Y2323D01*
X1667Y2323D02*
X1700Y2323D01*
X1726Y2323D02*
X1747Y2323D01*
X1777Y2323D02*
X1802Y2323D01*
X1829Y2323D02*
X1849Y2323D01*
X1874Y2323D02*
X1910Y2323D01*
X1941Y2323D02*
X1978Y2323D01*
X2002Y2323D02*
X2027Y2323D01*
X2116Y2323D02*
X2245Y2323D01*
X1455Y2322D02*
X1599Y2322D01*
X1667Y2322D02*
X1700Y2322D01*
X1726Y2322D02*
X1747Y2322D01*
X1777Y2322D02*
X1802Y2322D01*
X1829Y2322D02*
X1849Y2322D01*
X1873Y2322D02*
X1910Y2322D01*
X1941Y2322D02*
X1978Y2322D01*
X2002Y2322D02*
X2027Y2322D01*
X2116Y2322D02*
X2245Y2322D01*
X1455Y2321D02*
X1599Y2321D01*
X1667Y2321D02*
X1700Y2321D01*
X1726Y2321D02*
X1747Y2321D01*
X1776Y2321D02*
X1803Y2321D01*
X1829Y2321D02*
X1849Y2321D01*
X1873Y2321D02*
X1911Y2321D01*
X1941Y2321D02*
X1978Y2321D01*
X2002Y2321D02*
X2027Y2321D01*
X2064Y2321D02*
X2078Y2321D01*
X2116Y2321D02*
X2245Y2321D01*
X1455Y2320D02*
X1599Y2320D01*
X1667Y2320D02*
X1700Y2320D01*
X1726Y2320D02*
X1747Y2320D01*
X1776Y2320D02*
X1803Y2320D01*
X1829Y2320D02*
X1849Y2320D01*
X1872Y2320D02*
X1911Y2320D01*
X1941Y2320D02*
X1978Y2320D01*
X2002Y2320D02*
X2027Y2320D01*
X2061Y2320D02*
X2081Y2320D01*
X2116Y2320D02*
X2245Y2320D01*
X1455Y2319D02*
X1599Y2319D01*
X1667Y2319D02*
X1700Y2319D01*
X1726Y2319D02*
X1747Y2319D01*
X1775Y2319D02*
X1804Y2319D01*
X1829Y2319D02*
X1848Y2319D01*
X1872Y2319D02*
X1912Y2319D01*
X1941Y2319D02*
X1978Y2319D01*
X2002Y2319D02*
X2027Y2319D01*
X2059Y2319D02*
X2083Y2319D01*
X2117Y2319D02*
X2245Y2319D01*
X1455Y2318D02*
X1599Y2318D01*
X1667Y2318D02*
X1700Y2318D01*
X1726Y2318D02*
X1747Y2318D01*
X1775Y2318D02*
X1804Y2318D01*
X1829Y2318D02*
X1848Y2318D01*
X1871Y2318D02*
X1912Y2318D01*
X1941Y2318D02*
X1978Y2318D01*
X2002Y2318D02*
X2027Y2318D01*
X2058Y2318D02*
X2085Y2318D01*
X2117Y2318D02*
X2245Y2318D01*
X1455Y2317D02*
X1598Y2317D01*
X1666Y2317D02*
X1700Y2317D01*
X1726Y2317D02*
X1747Y2317D01*
X1775Y2317D02*
X1804Y2317D01*
X1829Y2317D02*
X1848Y2317D01*
X1871Y2317D02*
X1912Y2317D01*
X1941Y2317D02*
X1978Y2317D01*
X2002Y2317D02*
X2027Y2317D01*
X2057Y2317D02*
X2086Y2317D01*
X2117Y2317D02*
X2245Y2317D01*
X1455Y2316D02*
X1598Y2316D01*
X1666Y2316D02*
X1700Y2316D01*
X1726Y2316D02*
X1747Y2316D01*
X1774Y2316D02*
X1805Y2316D01*
X1829Y2316D02*
X1848Y2316D01*
X1871Y2316D02*
X1913Y2316D01*
X1941Y2316D02*
X1978Y2316D01*
X2002Y2316D02*
X2027Y2316D01*
X2056Y2316D02*
X2087Y2316D01*
X2117Y2316D02*
X2245Y2316D01*
X1455Y2315D02*
X1598Y2315D01*
X1666Y2315D02*
X1701Y2315D01*
X1726Y2315D02*
X1747Y2315D01*
X1774Y2315D02*
X1805Y2315D01*
X1830Y2315D02*
X1848Y2315D01*
X1871Y2315D02*
X1913Y2315D01*
X1941Y2315D02*
X1978Y2315D01*
X2002Y2315D02*
X2027Y2315D01*
X2055Y2315D02*
X2088Y2315D01*
X2118Y2315D02*
X2245Y2315D01*
X1455Y2314D02*
X1598Y2314D01*
X1666Y2314D02*
X1701Y2314D01*
X1726Y2314D02*
X1747Y2314D01*
X1774Y2314D02*
X1805Y2314D01*
X1830Y2314D02*
X1848Y2314D01*
X1870Y2314D02*
X1913Y2314D01*
X1941Y2314D02*
X1978Y2314D01*
X2002Y2314D02*
X2027Y2314D01*
X2055Y2314D02*
X2089Y2314D01*
X2118Y2314D02*
X2245Y2314D01*
X1455Y2313D02*
X1598Y2313D01*
X1666Y2313D02*
X1701Y2313D01*
X1726Y2313D02*
X1747Y2313D01*
X1774Y2313D02*
X1805Y2313D01*
X1830Y2313D02*
X1848Y2313D01*
X1870Y2313D02*
X1913Y2313D01*
X1941Y2313D02*
X1978Y2313D01*
X2002Y2313D02*
X2027Y2313D01*
X2054Y2313D02*
X2089Y2313D01*
X2118Y2313D02*
X2245Y2313D01*
X1455Y2312D02*
X1597Y2312D01*
X1666Y2312D02*
X1701Y2312D01*
X1726Y2312D02*
X1747Y2312D01*
X1774Y2312D02*
X1805Y2312D01*
X1830Y2312D02*
X1848Y2312D01*
X1870Y2312D02*
X1913Y2312D01*
X1941Y2312D02*
X1978Y2312D01*
X2002Y2312D02*
X2027Y2312D01*
X2054Y2312D02*
X2090Y2312D01*
X2118Y2312D02*
X2245Y2312D01*
X1455Y2311D02*
X1597Y2311D01*
X1665Y2311D02*
X1701Y2311D01*
X1726Y2311D02*
X1747Y2311D01*
X1774Y2311D02*
X1805Y2311D01*
X1830Y2311D02*
X1847Y2311D01*
X1870Y2311D02*
X1913Y2311D01*
X1941Y2311D02*
X1978Y2311D01*
X2003Y2311D02*
X2027Y2311D01*
X2053Y2311D02*
X2090Y2311D01*
X2118Y2311D02*
X2245Y2311D01*
X1455Y2310D02*
X1597Y2310D01*
X1665Y2310D02*
X1701Y2310D01*
X1726Y2310D02*
X1747Y2310D01*
X1774Y2310D02*
X1805Y2310D01*
X1830Y2310D02*
X1847Y2310D01*
X1870Y2310D02*
X1913Y2310D01*
X1941Y2310D02*
X1978Y2310D01*
X2003Y2310D02*
X2027Y2310D01*
X2053Y2310D02*
X2091Y2310D01*
X2118Y2310D02*
X2245Y2310D01*
X1455Y2309D02*
X1597Y2309D01*
X1665Y2309D02*
X1701Y2309D01*
X1726Y2309D02*
X1747Y2309D01*
X1774Y2309D02*
X1805Y2309D01*
X1830Y2309D02*
X1847Y2309D01*
X1870Y2309D02*
X1913Y2309D01*
X1941Y2309D02*
X1978Y2309D01*
X2003Y2309D02*
X2028Y2309D01*
X2053Y2309D02*
X2091Y2309D01*
X2118Y2309D02*
X2245Y2309D01*
X1455Y2308D02*
X1597Y2308D01*
X1665Y2308D02*
X1701Y2308D01*
X1726Y2308D02*
X1747Y2308D01*
X1774Y2308D02*
X1805Y2308D01*
X1830Y2308D02*
X1847Y2308D01*
X1870Y2308D02*
X1913Y2308D01*
X1941Y2308D02*
X1978Y2308D01*
X2003Y2308D02*
X2028Y2308D01*
X2053Y2308D02*
X2091Y2308D01*
X2118Y2308D02*
X2245Y2308D01*
X1455Y2307D02*
X1597Y2307D01*
X1665Y2307D02*
X1701Y2307D01*
X1727Y2307D02*
X1747Y2307D01*
X1774Y2307D02*
X1805Y2307D01*
X1830Y2307D02*
X1847Y2307D01*
X1870Y2307D02*
X1913Y2307D01*
X1941Y2307D02*
X1978Y2307D01*
X2003Y2307D02*
X2028Y2307D01*
X2053Y2307D02*
X2091Y2307D01*
X2118Y2307D02*
X2245Y2307D01*
X1455Y2306D02*
X1596Y2306D01*
X1665Y2306D02*
X1701Y2306D01*
X1727Y2306D02*
X1747Y2306D01*
X1774Y2306D02*
X1805Y2306D01*
X1830Y2306D02*
X1847Y2306D01*
X1870Y2306D02*
X1913Y2306D01*
X1941Y2306D02*
X1978Y2306D01*
X2003Y2306D02*
X2028Y2306D01*
X2053Y2306D02*
X2091Y2306D01*
X2118Y2306D02*
X2245Y2306D01*
X1455Y2305D02*
X1580Y2305D01*
X1678Y2305D02*
X1701Y2305D01*
X1727Y2305D02*
X1747Y2305D01*
X1774Y2305D02*
X1805Y2305D01*
X1830Y2305D02*
X1847Y2305D01*
X1870Y2305D02*
X1913Y2305D01*
X1941Y2305D02*
X1978Y2305D01*
X2003Y2305D02*
X2028Y2305D01*
X2053Y2305D02*
X2091Y2305D01*
X2118Y2305D02*
X2245Y2305D01*
X1455Y2304D02*
X1580Y2304D01*
X1678Y2304D02*
X1701Y2304D01*
X1727Y2304D02*
X1747Y2304D01*
X1774Y2304D02*
X1805Y2304D01*
X1830Y2304D02*
X1847Y2304D01*
X1870Y2304D02*
X1913Y2304D01*
X1941Y2304D02*
X1978Y2304D01*
X2003Y2304D02*
X2028Y2304D01*
X2053Y2304D02*
X2091Y2304D01*
X2118Y2304D02*
X2245Y2304D01*
X1455Y2303D02*
X1580Y2303D01*
X1678Y2303D02*
X1701Y2303D01*
X1727Y2303D02*
X1748Y2303D01*
X1774Y2303D02*
X1805Y2303D01*
X1830Y2303D02*
X1848Y2303D01*
X1871Y2303D02*
X1913Y2303D01*
X1941Y2303D02*
X1978Y2303D01*
X2003Y2303D02*
X2029Y2303D01*
X2053Y2303D02*
X2091Y2303D01*
X2118Y2303D02*
X2245Y2303D01*
X1455Y2302D02*
X1580Y2302D01*
X1678Y2302D02*
X1701Y2302D01*
X1727Y2302D02*
X1748Y2302D01*
X1774Y2302D02*
X1805Y2302D01*
X1830Y2302D02*
X1848Y2302D01*
X1871Y2302D02*
X1913Y2302D01*
X1941Y2302D02*
X1978Y2302D01*
X2003Y2302D02*
X2029Y2302D01*
X2053Y2302D02*
X2091Y2302D01*
X2118Y2302D02*
X2245Y2302D01*
X1455Y2301D02*
X1580Y2301D01*
X1678Y2301D02*
X1701Y2301D01*
X1727Y2301D02*
X1748Y2301D01*
X1774Y2301D02*
X1805Y2301D01*
X1830Y2301D02*
X1848Y2301D01*
X1871Y2301D02*
X1912Y2301D01*
X1941Y2301D02*
X1978Y2301D01*
X2003Y2301D02*
X2029Y2301D01*
X2054Y2301D02*
X2090Y2301D01*
X2118Y2301D02*
X2245Y2301D01*
X1455Y2300D02*
X1580Y2300D01*
X1678Y2300D02*
X1701Y2300D01*
X1727Y2300D02*
X1748Y2300D01*
X1774Y2300D02*
X1805Y2300D01*
X1830Y2300D02*
X1848Y2300D01*
X1871Y2300D02*
X1912Y2300D01*
X1941Y2300D02*
X1978Y2300D01*
X2003Y2300D02*
X2029Y2300D01*
X2054Y2300D02*
X2090Y2300D01*
X2118Y2300D02*
X2245Y2300D01*
X1455Y2299D02*
X1580Y2299D01*
X1678Y2299D02*
X1701Y2299D01*
X1727Y2299D02*
X1748Y2299D01*
X1774Y2299D02*
X1805Y2299D01*
X1830Y2299D02*
X1848Y2299D01*
X1872Y2299D02*
X1912Y2299D01*
X1941Y2299D02*
X1978Y2299D01*
X2003Y2299D02*
X2030Y2299D01*
X2054Y2299D02*
X2090Y2299D01*
X2118Y2299D02*
X2245Y2299D01*
X1455Y2298D02*
X1580Y2298D01*
X1678Y2298D02*
X1701Y2298D01*
X1727Y2298D02*
X1748Y2298D01*
X1774Y2298D02*
X1805Y2298D01*
X1830Y2298D02*
X1848Y2298D01*
X1872Y2298D02*
X1911Y2298D01*
X1941Y2298D02*
X1978Y2298D01*
X2003Y2298D02*
X2030Y2298D01*
X2055Y2298D02*
X2089Y2298D01*
X2117Y2298D02*
X2245Y2298D01*
X1455Y2297D02*
X1580Y2297D01*
X1678Y2297D02*
X1701Y2297D01*
X1727Y2297D02*
X1748Y2297D01*
X1774Y2297D02*
X1805Y2297D01*
X1830Y2297D02*
X1848Y2297D01*
X1873Y2297D02*
X1911Y2297D01*
X1941Y2297D02*
X1978Y2297D01*
X2003Y2297D02*
X2030Y2297D01*
X2056Y2297D02*
X2089Y2297D01*
X2117Y2297D02*
X2245Y2297D01*
X1455Y2296D02*
X1580Y2296D01*
X1678Y2296D02*
X1701Y2296D01*
X1727Y2296D02*
X1748Y2296D01*
X1774Y2296D02*
X1805Y2296D01*
X1830Y2296D02*
X1848Y2296D01*
X1873Y2296D02*
X1910Y2296D01*
X1942Y2296D02*
X1978Y2296D01*
X2003Y2296D02*
X2031Y2296D01*
X2056Y2296D02*
X2088Y2296D01*
X2117Y2296D02*
X2245Y2296D01*
X1455Y2295D02*
X1580Y2295D01*
X1678Y2295D02*
X1701Y2295D01*
X1727Y2295D02*
X1748Y2295D01*
X1774Y2295D02*
X1805Y2295D01*
X1830Y2295D02*
X1849Y2295D01*
X1874Y2295D02*
X1910Y2295D01*
X1942Y2295D02*
X1978Y2295D01*
X2003Y2295D02*
X2031Y2295D01*
X2058Y2295D02*
X2087Y2295D01*
X2117Y2295D02*
X2245Y2295D01*
X1455Y2294D02*
X1580Y2294D01*
X1678Y2294D02*
X1701Y2294D01*
X1727Y2294D02*
X1748Y2294D01*
X1774Y2294D02*
X1805Y2294D01*
X1830Y2294D02*
X1849Y2294D01*
X1874Y2294D02*
X1909Y2294D01*
X1942Y2294D02*
X1978Y2294D01*
X2003Y2294D02*
X2031Y2294D01*
X2059Y2294D02*
X2086Y2294D01*
X2116Y2294D02*
X2245Y2294D01*
X1455Y2293D02*
X1580Y2293D01*
X1678Y2293D02*
X1701Y2293D01*
X1727Y2293D02*
X1748Y2293D01*
X1774Y2293D02*
X1805Y2293D01*
X1830Y2293D02*
X1849Y2293D01*
X1875Y2293D02*
X1908Y2293D01*
X1942Y2293D02*
X1978Y2293D01*
X2003Y2293D02*
X2032Y2293D01*
X2060Y2293D02*
X2085Y2293D01*
X2116Y2293D02*
X2245Y2293D01*
X1455Y2292D02*
X1580Y2292D01*
X1678Y2292D02*
X1701Y2292D01*
X1727Y2292D02*
X1748Y2292D01*
X1774Y2292D02*
X1805Y2292D01*
X1830Y2292D02*
X1850Y2292D01*
X1876Y2292D02*
X1908Y2292D01*
X1942Y2292D02*
X1978Y2292D01*
X2003Y2292D02*
X2032Y2292D01*
X2062Y2292D02*
X2083Y2292D01*
X2116Y2292D02*
X2245Y2292D01*
X1455Y2291D02*
X1580Y2291D01*
X1678Y2291D02*
X1701Y2291D01*
X1727Y2291D02*
X1748Y2291D01*
X1774Y2291D02*
X1805Y2291D01*
X1830Y2291D02*
X1850Y2291D01*
X1877Y2291D02*
X1906Y2291D01*
X1942Y2291D02*
X1978Y2291D01*
X2003Y2291D02*
X2033Y2291D01*
X2064Y2291D02*
X2081Y2291D01*
X2115Y2291D02*
X2245Y2291D01*
X1455Y2290D02*
X1580Y2290D01*
X1678Y2290D02*
X1701Y2290D01*
X1727Y2290D02*
X1748Y2290D01*
X1774Y2290D02*
X1805Y2290D01*
X1830Y2290D02*
X1850Y2290D01*
X1878Y2290D02*
X1905Y2290D01*
X1942Y2290D02*
X1979Y2290D01*
X2003Y2290D02*
X2033Y2290D01*
X2070Y2290D02*
X2075Y2290D01*
X2115Y2290D02*
X2245Y2290D01*
X1455Y2289D02*
X1580Y2289D01*
X1678Y2289D02*
X1701Y2289D01*
X1727Y2289D02*
X1748Y2289D01*
X1774Y2289D02*
X1805Y2289D01*
X1830Y2289D02*
X1851Y2289D01*
X1879Y2289D02*
X1903Y2289D01*
X1942Y2289D02*
X1979Y2289D01*
X2003Y2289D02*
X2034Y2289D01*
X2114Y2289D02*
X2246Y2289D01*
X1455Y2288D02*
X1580Y2288D01*
X1678Y2288D02*
X1701Y2288D01*
X1727Y2288D02*
X1748Y2288D01*
X1774Y2288D02*
X1805Y2288D01*
X1830Y2288D02*
X1851Y2288D01*
X1880Y2288D02*
X1902Y2288D01*
X1942Y2288D02*
X1979Y2288D01*
X2003Y2288D02*
X2034Y2288D01*
X2114Y2288D02*
X2246Y2288D01*
X1455Y2287D02*
X1580Y2287D01*
X1678Y2287D02*
X1701Y2287D01*
X1727Y2287D02*
X1748Y2287D01*
X1774Y2287D02*
X1805Y2287D01*
X1830Y2287D02*
X1851Y2287D01*
X1884Y2287D02*
X1900Y2287D01*
X1942Y2287D02*
X1979Y2287D01*
X2003Y2287D02*
X2035Y2287D01*
X2113Y2287D02*
X2246Y2287D01*
X1455Y2286D02*
X1580Y2286D01*
X1678Y2286D02*
X1701Y2286D01*
X1727Y2286D02*
X1748Y2286D01*
X1774Y2286D02*
X1805Y2286D01*
X1830Y2286D02*
X1852Y2286D01*
X1887Y2286D02*
X1897Y2286D01*
X1942Y2286D02*
X1979Y2286D01*
X2003Y2286D02*
X2035Y2286D01*
X2113Y2286D02*
X2246Y2286D01*
X1455Y2285D02*
X1581Y2285D01*
X1615Y2285D02*
X1637Y2285D01*
X1660Y2285D02*
X1701Y2285D01*
X1727Y2285D02*
X1748Y2285D01*
X1774Y2285D02*
X1805Y2285D01*
X1830Y2285D02*
X1852Y2285D01*
X1942Y2285D02*
X1979Y2285D01*
X2003Y2285D02*
X2036Y2285D01*
X2112Y2285D02*
X2246Y2285D01*
X1455Y2284D02*
X1592Y2284D01*
X1615Y2284D02*
X1637Y2284D01*
X1660Y2284D02*
X1701Y2284D01*
X1727Y2284D02*
X1748Y2284D01*
X1774Y2284D02*
X1805Y2284D01*
X1831Y2284D02*
X1853Y2284D01*
X1942Y2284D02*
X1979Y2284D01*
X2003Y2284D02*
X2037Y2284D01*
X2111Y2284D02*
X2246Y2284D01*
X1455Y2283D02*
X1592Y2283D01*
X1615Y2283D02*
X1637Y2283D01*
X1660Y2283D02*
X1701Y2283D01*
X1727Y2283D02*
X1748Y2283D01*
X1774Y2283D02*
X1805Y2283D01*
X1831Y2283D02*
X1853Y2283D01*
X1942Y2283D02*
X1979Y2283D01*
X2003Y2283D02*
X2037Y2283D01*
X2110Y2283D02*
X2246Y2283D01*
X1455Y2282D02*
X1592Y2282D01*
X1615Y2282D02*
X1637Y2282D01*
X1660Y2282D02*
X1701Y2282D01*
X1727Y2282D02*
X1748Y2282D01*
X1774Y2282D02*
X1805Y2282D01*
X1831Y2282D02*
X1854Y2282D01*
X1942Y2282D02*
X1979Y2282D01*
X2003Y2282D02*
X2038Y2282D01*
X2110Y2282D02*
X2246Y2282D01*
X1455Y2281D02*
X1591Y2281D01*
X1614Y2281D02*
X1637Y2281D01*
X1660Y2281D02*
X1701Y2281D01*
X1727Y2281D02*
X1748Y2281D01*
X1774Y2281D02*
X1805Y2281D01*
X1831Y2281D02*
X1854Y2281D01*
X1942Y2281D02*
X1979Y2281D01*
X2003Y2281D02*
X2039Y2281D01*
X2109Y2281D02*
X2246Y2281D01*
X1455Y2280D02*
X1591Y2280D01*
X1614Y2280D02*
X1636Y2280D01*
X1659Y2280D02*
X1701Y2280D01*
X1727Y2280D02*
X1748Y2280D01*
X1774Y2280D02*
X1805Y2280D01*
X1831Y2280D02*
X1855Y2280D01*
X1942Y2280D02*
X1979Y2280D01*
X2003Y2280D02*
X2040Y2280D01*
X2108Y2280D02*
X2246Y2280D01*
X1455Y2279D02*
X1591Y2279D01*
X1614Y2279D02*
X1636Y2279D01*
X1659Y2279D02*
X1701Y2279D01*
X1727Y2279D02*
X1748Y2279D01*
X1774Y2279D02*
X1805Y2279D01*
X1831Y2279D02*
X1856Y2279D01*
X1942Y2279D02*
X1979Y2279D01*
X2003Y2279D02*
X2041Y2279D01*
X2107Y2279D02*
X2246Y2279D01*
X1455Y2278D02*
X1591Y2278D01*
X1614Y2278D02*
X1636Y2278D01*
X1659Y2278D02*
X1701Y2278D01*
X1727Y2278D02*
X1748Y2278D01*
X1774Y2278D02*
X1805Y2278D01*
X1831Y2278D02*
X1857Y2278D01*
X1942Y2278D02*
X1979Y2278D01*
X2003Y2278D02*
X2042Y2278D01*
X2106Y2278D02*
X2246Y2278D01*
X1456Y2277D02*
X1591Y2277D01*
X1614Y2277D02*
X1636Y2277D01*
X1659Y2277D02*
X1701Y2277D01*
X1727Y2277D02*
X1748Y2277D01*
X1774Y2277D02*
X1805Y2277D01*
X1831Y2277D02*
X1858Y2277D01*
X1913Y2277D02*
X1913Y2277D01*
X1942Y2277D02*
X1979Y2277D01*
X2003Y2277D02*
X2043Y2277D01*
X2105Y2277D02*
X2246Y2277D01*
X1456Y2276D02*
X1591Y2276D01*
X1613Y2276D02*
X1636Y2276D01*
X1659Y2276D02*
X1701Y2276D01*
X1727Y2276D02*
X1748Y2276D01*
X1774Y2276D02*
X1805Y2276D01*
X1831Y2276D02*
X1859Y2276D01*
X1912Y2276D02*
X1913Y2276D01*
X1942Y2276D02*
X1979Y2276D01*
X2003Y2276D02*
X2044Y2276D01*
X2103Y2276D02*
X2246Y2276D01*
X1456Y2275D02*
X1590Y2275D01*
X1613Y2275D02*
X1636Y2275D01*
X1659Y2275D02*
X1701Y2275D01*
X1727Y2275D02*
X1748Y2275D01*
X1774Y2275D02*
X1805Y2275D01*
X1831Y2275D02*
X1860Y2275D01*
X1911Y2275D02*
X1913Y2275D01*
X1942Y2275D02*
X1979Y2275D01*
X2003Y2275D02*
X2045Y2275D01*
X2102Y2275D02*
X2246Y2275D01*
X1456Y2274D02*
X1590Y2274D01*
X1613Y2274D02*
X1635Y2274D01*
X1658Y2274D02*
X1701Y2274D01*
X1727Y2274D02*
X1748Y2274D01*
X1774Y2274D02*
X1805Y2274D01*
X1831Y2274D02*
X1861Y2274D01*
X1910Y2274D02*
X1913Y2274D01*
X1942Y2274D02*
X1979Y2274D01*
X2003Y2274D02*
X2046Y2274D01*
X2100Y2274D02*
X2246Y2274D01*
X1456Y2273D02*
X1590Y2273D01*
X1613Y2273D02*
X1635Y2273D01*
X1658Y2273D02*
X1701Y2273D01*
X1727Y2273D02*
X1748Y2273D01*
X1774Y2273D02*
X1805Y2273D01*
X1831Y2273D02*
X1862Y2273D01*
X1909Y2273D02*
X1913Y2273D01*
X1942Y2273D02*
X1979Y2273D01*
X2003Y2273D02*
X2048Y2273D01*
X2099Y2273D02*
X2246Y2273D01*
X1456Y2272D02*
X1590Y2272D01*
X1613Y2272D02*
X1635Y2272D01*
X1658Y2272D02*
X1702Y2272D01*
X1727Y2272D02*
X1748Y2272D01*
X1774Y2272D02*
X1805Y2272D01*
X1831Y2272D02*
X1863Y2272D01*
X1908Y2272D02*
X1913Y2272D01*
X1942Y2272D02*
X1979Y2272D01*
X2003Y2272D02*
X2049Y2272D01*
X2098Y2272D02*
X2246Y2272D01*
X1456Y2271D02*
X1590Y2271D01*
X1613Y2271D02*
X1635Y2271D01*
X1658Y2271D02*
X1702Y2271D01*
X1727Y2271D02*
X1748Y2271D01*
X1774Y2271D02*
X1805Y2271D01*
X1831Y2271D02*
X1864Y2271D01*
X1907Y2271D02*
X1913Y2271D01*
X1942Y2271D02*
X1979Y2271D01*
X2003Y2271D02*
X2051Y2271D01*
X2096Y2271D02*
X2246Y2271D01*
X1456Y2270D02*
X1590Y2270D01*
X1612Y2270D02*
X1635Y2270D01*
X1658Y2270D02*
X1702Y2270D01*
X1727Y2270D02*
X1748Y2270D01*
X1774Y2270D02*
X1805Y2270D01*
X1831Y2270D02*
X1866Y2270D01*
X1906Y2270D02*
X1913Y2270D01*
X1942Y2270D02*
X1979Y2270D01*
X2003Y2270D02*
X2054Y2270D01*
X2095Y2270D02*
X2246Y2270D01*
X1456Y2269D02*
X1589Y2269D01*
X1612Y2269D02*
X1635Y2269D01*
X1657Y2269D02*
X1702Y2269D01*
X1727Y2269D02*
X1748Y2269D01*
X1774Y2269D02*
X1805Y2269D01*
X1831Y2269D02*
X1867Y2269D01*
X1905Y2269D02*
X1913Y2269D01*
X1942Y2269D02*
X1979Y2269D01*
X2003Y2269D02*
X2057Y2269D01*
X2092Y2269D02*
X2246Y2269D01*
X1456Y2268D02*
X1589Y2268D01*
X1612Y2268D02*
X1634Y2268D01*
X1657Y2268D02*
X1702Y2268D01*
X1727Y2268D02*
X1748Y2268D01*
X1774Y2268D02*
X1805Y2268D01*
X1831Y2268D02*
X1869Y2268D01*
X1904Y2268D02*
X1913Y2268D01*
X1942Y2268D02*
X1979Y2268D01*
X2003Y2268D02*
X2061Y2268D01*
X2087Y2268D02*
X2246Y2268D01*
X1456Y2267D02*
X1589Y2267D01*
X1612Y2267D02*
X1634Y2267D01*
X1657Y2267D02*
X1702Y2267D01*
X1727Y2267D02*
X1748Y2267D01*
X1774Y2267D02*
X1805Y2267D01*
X1831Y2267D02*
X1871Y2267D01*
X1902Y2267D02*
X1913Y2267D01*
X1942Y2267D02*
X1984Y2267D01*
X2003Y2267D02*
X2067Y2267D01*
X2082Y2267D02*
X2246Y2267D01*
X1456Y2266D02*
X1589Y2266D01*
X1612Y2266D02*
X1634Y2266D01*
X1657Y2266D02*
X1702Y2266D01*
X1727Y2266D02*
X1748Y2266D01*
X1774Y2266D02*
X1805Y2266D01*
X1831Y2266D02*
X1874Y2266D01*
X1900Y2266D02*
X1913Y2266D01*
X1942Y2266D02*
X2246Y2266D01*
X1456Y2265D02*
X1589Y2265D01*
X1612Y2265D02*
X1634Y2265D01*
X1657Y2265D02*
X1702Y2265D01*
X1727Y2265D02*
X1748Y2265D01*
X1774Y2265D02*
X1805Y2265D01*
X1831Y2265D02*
X1878Y2265D01*
X1897Y2265D02*
X2246Y2265D01*
X1456Y2264D02*
X1589Y2264D01*
X1611Y2264D02*
X1634Y2264D01*
X1657Y2264D02*
X1702Y2264D01*
X1728Y2264D02*
X1748Y2264D01*
X1774Y2264D02*
X1805Y2264D01*
X1831Y2264D02*
X1882Y2264D01*
X1892Y2264D02*
X2246Y2264D01*
X1456Y2263D02*
X1588Y2263D01*
X1611Y2263D02*
X1634Y2263D01*
X1656Y2263D02*
X1702Y2263D01*
X1728Y2263D02*
X1749Y2263D01*
X1774Y2263D02*
X2246Y2263D01*
X1456Y2262D02*
X1588Y2262D01*
X1611Y2262D02*
X1633Y2262D01*
X1656Y2262D02*
X1702Y2262D01*
X1728Y2262D02*
X2246Y2262D01*
X1456Y2261D02*
X1588Y2261D01*
X1611Y2261D02*
X1633Y2261D01*
X1656Y2261D02*
X1702Y2261D01*
X1711Y2261D02*
X2246Y2261D01*
X1456Y2260D02*
X2246Y2260D01*
X1456Y2259D02*
X2246Y2259D01*
X1456Y2258D02*
X2246Y2258D01*
X1456Y2257D02*
X2246Y2257D01*
X1456Y2256D02*
X2246Y2256D01*
X1456Y2255D02*
X2246Y2255D01*
X1456Y2254D02*
X2246Y2254D01*
X1456Y2253D02*
X2246Y2253D01*
X1456Y2252D02*
X2246Y2252D01*
X1456Y2251D02*
X2246Y2251D01*
X1456Y2250D02*
X2246Y2250D01*
X1456Y2249D02*
X2246Y2249D01*
X1456Y2248D02*
X2246Y2248D01*
X1456Y2247D02*
X2246Y2247D01*
X1456Y2246D02*
X2246Y2246D01*
X1456Y2245D02*
X2246Y2245D01*
X1456Y2244D02*
X2246Y2244D01*
X1456Y2243D02*
X2246Y2243D01*
X1456Y2242D02*
X2247Y2242D01*
X1456Y2241D02*
X2247Y2241D01*
X1456Y2240D02*
X2247Y2240D01*
X1456Y2239D02*
X2247Y2239D01*
X1456Y2238D02*
X2247Y2238D01*
X1456Y2237D02*
X2247Y2237D01*
X1456Y2236D02*
X2247Y2236D01*
X1456Y2235D02*
X2247Y2235D01*
X1456Y2234D02*
X2247Y2234D01*
X1456Y2233D02*
X2247Y2233D01*
X1456Y2232D02*
X2247Y2232D01*
X1456Y2231D02*
X2247Y2231D01*
X1456Y2230D02*
X2247Y2230D01*
X1457Y2229D02*
X2247Y2229D01*
X1457Y2228D02*
X2247Y2228D01*
X1457Y2227D02*
X2247Y2227D01*
X1457Y2226D02*
X2247Y2226D01*
X1457Y2225D02*
X2247Y2225D01*
X1457Y2224D02*
X2247Y2224D01*
X1457Y2223D02*
X2247Y2223D01*
X1457Y2222D02*
X2247Y2222D01*
X1457Y2221D02*
X2247Y2221D01*
X1457Y2220D02*
X2247Y2220D01*
X1457Y2219D02*
X2247Y2219D01*
X1457Y2218D02*
X2247Y2218D01*
X1457Y2217D02*
X2247Y2217D01*
X1457Y2216D02*
X2247Y2216D01*
X1457Y2215D02*
X2247Y2215D01*
X1457Y2214D02*
X2247Y2214D01*
X1457Y2213D02*
X2247Y2213D01*
X1457Y2212D02*
X2247Y2212D01*
X1457Y2211D02*
X2247Y2211D01*
X1457Y2210D02*
X2247Y2210D01*
X1457Y2209D02*
X2247Y2209D01*
X1457Y2208D02*
X2247Y2208D01*
X1457Y2207D02*
X2247Y2207D01*
X1457Y2206D02*
X2247Y2206D01*
X1457Y2205D02*
X2247Y2205D01*
X1457Y2204D02*
X2247Y2204D01*
X1457Y2203D02*
X2247Y2203D01*
X1457Y2202D02*
X2247Y2202D01*
X1457Y2201D02*
X2247Y2201D01*
X1457Y2200D02*
X2247Y2200D01*
X1457Y2199D02*
X2247Y2199D01*
X1457Y2198D02*
X2247Y2198D01*
X1457Y2197D02*
X2247Y2197D01*
X1457Y2196D02*
X2247Y2196D01*
X1457Y2195D02*
X2247Y2195D01*
X1457Y2194D02*
X2248Y2194D01*
X1457Y2193D02*
X2248Y2193D01*
X1457Y2192D02*
X2248Y2192D01*
X1457Y2191D02*
X2248Y2191D01*
X1457Y2190D02*
X2248Y2190D01*
X1457Y2189D02*
X2248Y2189D01*
X1457Y2188D02*
X2248Y2188D01*
X1457Y2187D02*
X2248Y2187D01*
X1457Y2186D02*
X2248Y2186D01*
X1457Y2185D02*
X2248Y2185D01*
X1457Y2184D02*
X2248Y2184D01*
X1457Y2183D02*
X2248Y2183D01*
X1458Y2182D02*
X2248Y2182D01*
X1458Y2181D02*
X2248Y2181D01*
X1458Y2180D02*
X2248Y2180D01*
X1458Y2179D02*
X2248Y2179D01*
X1458Y2178D02*
X2248Y2178D01*
X1458Y2177D02*
X2248Y2177D01*
X1458Y2176D02*
X2248Y2176D01*
X1458Y2175D02*
X2248Y2175D01*
X1458Y2174D02*
X2248Y2174D01*
X1458Y2173D02*
X2248Y2173D01*
X1458Y2172D02*
X2248Y2172D01*
X1458Y2171D02*
X2248Y2171D01*
X1458Y2170D02*
X2248Y2170D01*
X1458Y2169D02*
X2248Y2169D01*
X1458Y2168D02*
X2248Y2168D01*
X1458Y2167D02*
X2248Y2167D01*
X1458Y2166D02*
X2248Y2166D01*
X1458Y2165D02*
X2248Y2165D01*
X1458Y2164D02*
X2248Y2164D01*
X1458Y2163D02*
X2248Y2163D01*
X1458Y2162D02*
X2248Y2162D01*
X1458Y2161D02*
X2248Y2161D01*
X1458Y2160D02*
X2248Y2160D01*
X1458Y2159D02*
X2248Y2159D01*
X1458Y2158D02*
X2248Y2158D01*
X1458Y2157D02*
X2248Y2157D01*
X1458Y2156D02*
X2248Y2156D01*
X1458Y2155D02*
X2248Y2155D01*
X1458Y2154D02*
X2248Y2154D01*
X1458Y2153D02*
X2210Y2153D01*
X1458Y2152D02*
X2164Y2152D01*
X1458Y2151D02*
X2118Y2151D01*
X1458Y2150D02*
X2072Y2150D01*
X1458Y2149D02*
X2026Y2149D01*
X1458Y2148D02*
X1980Y2148D01*
X1458Y2147D02*
X1934Y2147D01*
X1458Y2146D02*
X1888Y2146D01*
X1458Y2145D02*
X1842Y2145D01*
X1458Y2144D02*
X1796Y2144D01*
X1458Y2143D02*
X1751Y2143D01*
X1458Y2142D02*
X1705Y2142D01*
X1458Y2141D02*
X1659Y2141D01*
X1458Y2140D02*
X1613Y2140D01*
X1458Y2139D02*
X1567Y2139D01*
X1458Y2138D02*
X1521Y2138D01*
X1459Y2137D02*
X1475Y2137D01*
X1886Y1452D02*
X1916Y1452D01*
X1872Y1451D02*
X1930Y1451D01*
X1863Y1450D02*
X1939Y1450D01*
X1856Y1449D02*
X1946Y1449D01*
X1849Y1448D02*
X1953Y1448D01*
X1844Y1447D02*
X1959Y1447D01*
X1838Y1446D02*
X1964Y1446D01*
X1834Y1445D02*
X1968Y1445D01*
X1829Y1444D02*
X1973Y1444D01*
X1825Y1443D02*
X1977Y1443D01*
X1821Y1442D02*
X1981Y1442D01*
X1818Y1441D02*
X1985Y1441D01*
X1814Y1440D02*
X1988Y1440D01*
X1811Y1439D02*
X1991Y1439D01*
X1807Y1438D02*
X1995Y1438D01*
X1804Y1437D02*
X1998Y1437D01*
X1801Y1436D02*
X2001Y1436D01*
X1798Y1435D02*
X2004Y1435D01*
X1796Y1434D02*
X2007Y1434D01*
X1793Y1433D02*
X2009Y1433D01*
X1790Y1432D02*
X2012Y1432D01*
X1788Y1431D02*
X2015Y1431D01*
X1785Y1430D02*
X2017Y1430D01*
X1783Y1429D02*
X2020Y1429D01*
X1780Y1428D02*
X2022Y1428D01*
X1778Y1427D02*
X2024Y1427D01*
X1775Y1426D02*
X2027Y1426D01*
X1773Y1425D02*
X2029Y1425D01*
X1771Y1424D02*
X2031Y1424D01*
X1769Y1423D02*
X2033Y1423D01*
X1767Y1422D02*
X2035Y1422D01*
X1765Y1421D02*
X2037Y1421D01*
X1763Y1420D02*
X2039Y1420D01*
X1761Y1419D02*
X2042Y1419D01*
X1759Y1418D02*
X2044Y1418D01*
X1757Y1417D02*
X2046Y1417D01*
X1755Y1416D02*
X2047Y1416D01*
X1753Y1415D02*
X2049Y1415D01*
X1751Y1414D02*
X2051Y1414D01*
X1749Y1413D02*
X2053Y1413D01*
X1748Y1412D02*
X1889Y1412D01*
X1919Y1412D02*
X2055Y1412D01*
X1746Y1411D02*
X1876Y1411D01*
X1932Y1411D02*
X2056Y1411D01*
X1744Y1410D02*
X1867Y1410D01*
X1940Y1410D02*
X2058Y1410D01*
X1742Y1409D02*
X1860Y1409D01*
X1947Y1409D02*
X2060Y1409D01*
X1741Y1408D02*
X1854Y1408D01*
X1953Y1408D02*
X2061Y1408D01*
X1739Y1407D02*
X1849Y1407D01*
X1958Y1407D02*
X2063Y1407D01*
X1737Y1406D02*
X1844Y1406D01*
X1962Y1406D02*
X2065Y1406D01*
X1736Y1405D02*
X1840Y1405D01*
X1967Y1405D02*
X2066Y1405D01*
X1734Y1404D02*
X1836Y1404D01*
X1971Y1404D02*
X2068Y1404D01*
X1733Y1403D02*
X1832Y1403D01*
X1974Y1403D02*
X2070Y1403D01*
X1731Y1402D02*
X1828Y1402D01*
X1978Y1402D02*
X2071Y1402D01*
X1730Y1401D02*
X1825Y1401D01*
X1981Y1401D02*
X2073Y1401D01*
X1728Y1400D02*
X1822Y1400D01*
X1985Y1400D02*
X2074Y1400D01*
X1726Y1399D02*
X1818Y1399D01*
X1988Y1399D02*
X2076Y1399D01*
X1725Y1398D02*
X1815Y1398D01*
X1991Y1398D02*
X2077Y1398D01*
X1724Y1397D02*
X1812Y1397D01*
X1994Y1397D02*
X2078Y1397D01*
X1722Y1396D02*
X1810Y1396D01*
X1996Y1396D02*
X2080Y1396D01*
X1721Y1395D02*
X1807Y1395D01*
X1999Y1395D02*
X2081Y1395D01*
X1719Y1394D02*
X1804Y1394D01*
X2002Y1394D02*
X2083Y1394D01*
X1718Y1393D02*
X1802Y1393D01*
X2004Y1393D02*
X2084Y1393D01*
X1716Y1392D02*
X1799Y1392D01*
X2007Y1392D02*
X2086Y1392D01*
X1715Y1391D02*
X1797Y1391D01*
X2009Y1391D02*
X2087Y1391D01*
X1714Y1390D02*
X1794Y1390D01*
X2011Y1390D02*
X2088Y1390D01*
X1712Y1389D02*
X1792Y1389D01*
X2014Y1389D02*
X2090Y1389D01*
X1711Y1388D02*
X1790Y1388D01*
X2016Y1388D02*
X2091Y1388D01*
X1710Y1387D02*
X1788Y1387D01*
X2018Y1387D02*
X2092Y1387D01*
X1709Y1386D02*
X1786Y1386D01*
X2020Y1386D02*
X2093Y1386D01*
X1707Y1385D02*
X1783Y1385D01*
X2022Y1385D02*
X2095Y1385D01*
X1706Y1384D02*
X1781Y1384D01*
X2024Y1384D02*
X2096Y1384D01*
X1705Y1383D02*
X1779Y1383D01*
X2026Y1383D02*
X2097Y1383D01*
X1704Y1382D02*
X1778Y1382D01*
X2028Y1382D02*
X2098Y1382D01*
X1702Y1381D02*
X1776Y1381D01*
X2030Y1381D02*
X2100Y1381D01*
X1701Y1380D02*
X1774Y1380D01*
X2032Y1380D02*
X2101Y1380D01*
X1700Y1379D02*
X1772Y1379D01*
X2034Y1379D02*
X2102Y1379D01*
X1699Y1378D02*
X1770Y1378D01*
X2036Y1378D02*
X2103Y1378D01*
X1698Y1377D02*
X1768Y1377D01*
X2037Y1377D02*
X2104Y1377D01*
X1696Y1376D02*
X1766Y1376D01*
X2039Y1376D02*
X2106Y1376D01*
X1695Y1375D02*
X1765Y1375D01*
X2041Y1375D02*
X2107Y1375D01*
X1694Y1374D02*
X1763Y1374D01*
X2043Y1374D02*
X2108Y1374D01*
X1693Y1373D02*
X1761Y1373D01*
X2044Y1373D02*
X2109Y1373D01*
X1692Y1372D02*
X1760Y1372D01*
X2046Y1372D02*
X2110Y1372D01*
X1691Y1371D02*
X1758Y1371D01*
X2048Y1371D02*
X2111Y1371D01*
X1690Y1370D02*
X1756Y1370D01*
X2049Y1370D02*
X2112Y1370D01*
X1689Y1369D02*
X1755Y1369D01*
X2051Y1369D02*
X2113Y1369D01*
X1688Y1368D02*
X1753Y1368D01*
X2052Y1368D02*
X2114Y1368D01*
X1686Y1367D02*
X1752Y1367D01*
X2054Y1367D02*
X2116Y1367D01*
X1685Y1366D02*
X1750Y1366D01*
X2055Y1366D02*
X2117Y1366D01*
X1684Y1365D02*
X1749Y1365D01*
X2057Y1365D02*
X2118Y1365D01*
X1683Y1364D02*
X1747Y1364D01*
X2058Y1364D02*
X2119Y1364D01*
X1682Y1363D02*
X1746Y1363D01*
X2060Y1363D02*
X2120Y1363D01*
X1681Y1362D02*
X1745Y1362D01*
X2061Y1362D02*
X2121Y1362D01*
X1680Y1361D02*
X1743Y1361D01*
X2063Y1361D02*
X2122Y1361D01*
X1679Y1360D02*
X1742Y1360D01*
X2064Y1360D02*
X2123Y1360D01*
X1678Y1359D02*
X1740Y1359D01*
X2065Y1359D02*
X2124Y1359D01*
X1677Y1358D02*
X1739Y1358D01*
X2067Y1358D02*
X2125Y1358D01*
X1676Y1357D02*
X1738Y1357D01*
X2068Y1357D02*
X2126Y1357D01*
X1675Y1356D02*
X1736Y1356D01*
X2069Y1356D02*
X2127Y1356D01*
X1674Y1355D02*
X1735Y1355D01*
X2071Y1355D02*
X2128Y1355D01*
X1673Y1354D02*
X1734Y1354D01*
X2072Y1354D02*
X2129Y1354D01*
X1672Y1353D02*
X1732Y1353D01*
X2073Y1353D02*
X2130Y1353D01*
X1672Y1352D02*
X1731Y1352D01*
X2074Y1352D02*
X2131Y1352D01*
X1671Y1351D02*
X1730Y1351D01*
X2076Y1351D02*
X2131Y1351D01*
X1670Y1350D02*
X1729Y1350D01*
X2077Y1350D02*
X2132Y1350D01*
X1669Y1349D02*
X1728Y1349D01*
X2078Y1349D02*
X2133Y1349D01*
X1668Y1348D02*
X1726Y1348D01*
X2079Y1348D02*
X2134Y1348D01*
X1667Y1347D02*
X1725Y1347D01*
X2080Y1347D02*
X2135Y1347D01*
X1666Y1346D02*
X1724Y1346D01*
X2082Y1346D02*
X2136Y1346D01*
X1665Y1345D02*
X1723Y1345D01*
X2083Y1345D02*
X2137Y1345D01*
X1664Y1344D02*
X1722Y1344D01*
X2084Y1344D02*
X2138Y1344D01*
X1664Y1343D02*
X1721Y1343D01*
X2085Y1343D02*
X2139Y1343D01*
X1663Y1342D02*
X1720Y1342D01*
X2086Y1342D02*
X2139Y1342D01*
X1662Y1341D02*
X1718Y1341D01*
X2087Y1341D02*
X2140Y1341D01*
X1661Y1340D02*
X1717Y1340D01*
X2088Y1340D02*
X2141Y1340D01*
X1660Y1339D02*
X1716Y1339D01*
X2089Y1339D02*
X2142Y1339D01*
X1659Y1338D02*
X1715Y1338D01*
X2091Y1338D02*
X2143Y1338D01*
X1659Y1337D02*
X1714Y1337D01*
X2092Y1337D02*
X2144Y1337D01*
X1658Y1336D02*
X1713Y1336D01*
X2093Y1336D02*
X2144Y1336D01*
X1657Y1335D02*
X1712Y1335D01*
X2094Y1335D02*
X2145Y1335D01*
X1656Y1334D02*
X1711Y1334D01*
X2095Y1334D02*
X2146Y1334D01*
X1655Y1333D02*
X1710Y1333D01*
X2096Y1333D02*
X2147Y1333D01*
X1655Y1332D02*
X1709Y1332D01*
X2097Y1332D02*
X2148Y1332D01*
X1654Y1331D02*
X1708Y1331D01*
X2098Y1331D02*
X2148Y1331D01*
X1653Y1330D02*
X1707Y1330D01*
X2099Y1330D02*
X2149Y1330D01*
X1652Y1329D02*
X1706Y1329D01*
X2100Y1329D02*
X2150Y1329D01*
X1651Y1328D02*
X1705Y1328D01*
X2101Y1328D02*
X2151Y1328D01*
X1651Y1327D02*
X1704Y1327D01*
X2102Y1327D02*
X2152Y1327D01*
X1650Y1326D02*
X1703Y1326D01*
X2103Y1326D02*
X2152Y1326D01*
X1649Y1325D02*
X1702Y1325D01*
X2104Y1325D02*
X2153Y1325D01*
X1648Y1324D02*
X1701Y1324D01*
X2105Y1324D02*
X2154Y1324D01*
X1648Y1323D02*
X1700Y1323D01*
X2105Y1323D02*
X2154Y1323D01*
X1647Y1322D02*
X1699Y1322D01*
X2106Y1322D02*
X2155Y1322D01*
X1646Y1321D02*
X1699Y1321D01*
X2107Y1321D02*
X2156Y1321D01*
X1646Y1320D02*
X1698Y1320D01*
X2108Y1320D02*
X2157Y1320D01*
X1645Y1319D02*
X1697Y1319D01*
X2109Y1319D02*
X2157Y1319D01*
X1644Y1318D02*
X1696Y1318D01*
X2110Y1318D02*
X2158Y1318D01*
X1643Y1317D02*
X1695Y1317D01*
X2111Y1317D02*
X2159Y1317D01*
X1643Y1316D02*
X1694Y1316D01*
X2112Y1316D02*
X2159Y1316D01*
X1642Y1315D02*
X1693Y1315D01*
X2113Y1315D02*
X2160Y1315D01*
X1641Y1314D02*
X1693Y1314D01*
X2114Y1314D02*
X2161Y1314D01*
X1641Y1313D02*
X1692Y1313D01*
X2114Y1313D02*
X2161Y1313D01*
X1640Y1312D02*
X1691Y1312D01*
X2115Y1312D02*
X2162Y1312D01*
X1639Y1311D02*
X1690Y1311D01*
X2116Y1311D02*
X2163Y1311D01*
X1639Y1310D02*
X1689Y1310D01*
X2117Y1310D02*
X2163Y1310D01*
X1638Y1309D02*
X1688Y1309D01*
X2118Y1309D02*
X2164Y1309D01*
X1637Y1308D02*
X1688Y1308D01*
X2118Y1308D02*
X2165Y1308D01*
X1637Y1307D02*
X1687Y1307D01*
X2119Y1307D02*
X2165Y1307D01*
X1636Y1306D02*
X1686Y1306D01*
X2120Y1306D02*
X2166Y1306D01*
X1636Y1305D02*
X1685Y1305D01*
X2121Y1305D02*
X2167Y1305D01*
X1635Y1304D02*
X1685Y1304D01*
X2122Y1304D02*
X2167Y1304D01*
X1634Y1303D02*
X1684Y1303D01*
X2122Y1303D02*
X2168Y1303D01*
X1634Y1302D02*
X1683Y1302D01*
X2123Y1302D02*
X2168Y1302D01*
X1633Y1301D02*
X1682Y1301D01*
X2124Y1301D02*
X2169Y1301D01*
X1632Y1300D02*
X1682Y1300D01*
X2125Y1300D02*
X2170Y1300D01*
X1632Y1299D02*
X1681Y1299D01*
X2125Y1299D02*
X2170Y1299D01*
X1631Y1298D02*
X1680Y1298D01*
X2126Y1298D02*
X2171Y1298D01*
X1631Y1297D02*
X1679Y1297D01*
X2127Y1297D02*
X2171Y1297D01*
X1630Y1296D02*
X1679Y1296D01*
X2127Y1296D02*
X2172Y1296D01*
X1630Y1295D02*
X1678Y1295D01*
X2128Y1295D02*
X2172Y1295D01*
X1629Y1294D02*
X1677Y1294D01*
X2129Y1294D02*
X2173Y1294D01*
X1628Y1293D02*
X1677Y1293D01*
X2130Y1293D02*
X2174Y1293D01*
X1628Y1292D02*
X1676Y1292D01*
X2130Y1292D02*
X2174Y1292D01*
X1627Y1291D02*
X1675Y1291D01*
X2131Y1291D02*
X2175Y1291D01*
X1627Y1290D02*
X1675Y1290D01*
X2132Y1290D02*
X2175Y1290D01*
X1626Y1289D02*
X1674Y1289D01*
X2132Y1289D02*
X2176Y1289D01*
X1626Y1288D02*
X1673Y1288D01*
X2133Y1288D02*
X2176Y1288D01*
X1625Y1287D02*
X1673Y1287D01*
X2134Y1287D02*
X2177Y1287D01*
X1625Y1286D02*
X1672Y1286D01*
X2134Y1286D02*
X2178Y1286D01*
X1624Y1285D02*
X1671Y1285D01*
X2135Y1285D02*
X2178Y1285D01*
X1623Y1284D02*
X1671Y1284D01*
X2135Y1284D02*
X2179Y1284D01*
X1623Y1283D02*
X1670Y1283D01*
X2136Y1283D02*
X2179Y1283D01*
X1622Y1282D02*
X1669Y1282D01*
X2137Y1282D02*
X2180Y1282D01*
X1622Y1281D02*
X1669Y1281D01*
X2137Y1281D02*
X2180Y1281D01*
X1621Y1280D02*
X1668Y1280D01*
X2138Y1280D02*
X2181Y1280D01*
X1621Y1279D02*
X1668Y1279D01*
X2138Y1279D02*
X2181Y1279D01*
X1620Y1278D02*
X1667Y1278D01*
X2139Y1278D02*
X2182Y1278D01*
X1620Y1277D02*
X1666Y1277D01*
X2140Y1277D02*
X2182Y1277D01*
X1619Y1276D02*
X1666Y1276D01*
X2140Y1276D02*
X2183Y1276D01*
X1619Y1275D02*
X1665Y1275D01*
X2141Y1275D02*
X2183Y1275D01*
X1618Y1274D02*
X1665Y1274D01*
X2141Y1274D02*
X2184Y1274D01*
X1618Y1273D02*
X1664Y1273D01*
X2142Y1273D02*
X2184Y1273D01*
X1617Y1272D02*
X1664Y1272D01*
X2143Y1272D02*
X2185Y1272D01*
X1617Y1271D02*
X1663Y1271D01*
X2143Y1271D02*
X2185Y1271D01*
X1617Y1270D02*
X1663Y1270D01*
X2144Y1270D02*
X2185Y1270D01*
X1616Y1269D02*
X1662Y1269D01*
X2144Y1269D02*
X2186Y1269D01*
X1616Y1268D02*
X1661Y1268D01*
X2145Y1268D02*
X2186Y1268D01*
X1615Y1267D02*
X1661Y1267D01*
X2145Y1267D02*
X2187Y1267D01*
X1615Y1266D02*
X1660Y1266D01*
X2146Y1266D02*
X2187Y1266D01*
X1614Y1265D02*
X1660Y1265D01*
X2146Y1265D02*
X2188Y1265D01*
X1614Y1264D02*
X1659Y1264D01*
X2147Y1264D02*
X2188Y1264D01*
X1613Y1263D02*
X1659Y1263D01*
X2147Y1263D02*
X2189Y1263D01*
X1613Y1262D02*
X1658Y1262D01*
X2148Y1262D02*
X2189Y1262D01*
X1613Y1261D02*
X1658Y1261D01*
X2148Y1261D02*
X2190Y1261D01*
X1612Y1260D02*
X1657Y1260D01*
X2149Y1260D02*
X2190Y1260D01*
X1612Y1259D02*
X1657Y1259D01*
X2149Y1259D02*
X2190Y1259D01*
X1611Y1258D02*
X1656Y1258D01*
X2150Y1258D02*
X2191Y1258D01*
X1611Y1257D02*
X1656Y1257D01*
X2150Y1257D02*
X2191Y1257D01*
X1611Y1256D02*
X1655Y1256D01*
X2151Y1256D02*
X2192Y1256D01*
X1610Y1255D02*
X1655Y1255D01*
X2151Y1255D02*
X2192Y1255D01*
X1610Y1254D02*
X1654Y1254D01*
X2152Y1254D02*
X2192Y1254D01*
X1609Y1253D02*
X1654Y1253D01*
X2152Y1253D02*
X2193Y1253D01*
X1609Y1252D02*
X1653Y1252D01*
X2153Y1252D02*
X2193Y1252D01*
X1609Y1251D02*
X1653Y1251D01*
X2153Y1251D02*
X2194Y1251D01*
X1608Y1250D02*
X1653Y1250D01*
X2154Y1250D02*
X2194Y1250D01*
X1608Y1249D02*
X1652Y1249D01*
X2154Y1249D02*
X2194Y1249D01*
X1608Y1248D02*
X1652Y1248D01*
X2155Y1248D02*
X2195Y1248D01*
X1607Y1247D02*
X1651Y1247D01*
X2155Y1247D02*
X2195Y1247D01*
X1607Y1246D02*
X1651Y1246D01*
X2155Y1246D02*
X2195Y1246D01*
X1606Y1245D02*
X1650Y1245D01*
X2156Y1245D02*
X2196Y1245D01*
X1606Y1244D02*
X1650Y1244D01*
X2156Y1244D02*
X2196Y1244D01*
X1606Y1243D02*
X1650Y1243D01*
X2157Y1243D02*
X2197Y1243D01*
X1605Y1242D02*
X1649Y1242D01*
X2157Y1242D02*
X2197Y1242D01*
X1605Y1241D02*
X1649Y1241D01*
X2157Y1241D02*
X2197Y1241D01*
X1605Y1240D02*
X1648Y1240D01*
X2158Y1240D02*
X2198Y1240D01*
X1604Y1239D02*
X1648Y1239D01*
X2158Y1239D02*
X2198Y1239D01*
X1604Y1238D02*
X1648Y1238D01*
X2159Y1238D02*
X2198Y1238D01*
X1604Y1237D02*
X1647Y1237D01*
X2159Y1237D02*
X2199Y1237D01*
X1603Y1236D02*
X1647Y1236D01*
X2159Y1236D02*
X2199Y1236D01*
X1603Y1235D02*
X1646Y1235D01*
X2160Y1235D02*
X2199Y1235D01*
X1603Y1234D02*
X1646Y1234D01*
X2160Y1234D02*
X2200Y1234D01*
X1602Y1233D02*
X1646Y1233D01*
X2161Y1233D02*
X2200Y1233D01*
X1602Y1232D02*
X1645Y1232D01*
X2161Y1232D02*
X2200Y1232D01*
X1602Y1231D02*
X1645Y1231D01*
X2161Y1231D02*
X2201Y1231D01*
X1601Y1230D02*
X1645Y1230D01*
X2162Y1230D02*
X2201Y1230D01*
X1601Y1229D02*
X1644Y1229D01*
X2162Y1229D02*
X2201Y1229D01*
X1601Y1228D02*
X1644Y1228D01*
X2162Y1228D02*
X2201Y1228D01*
X1601Y1227D02*
X1643Y1227D01*
X2163Y1227D02*
X2202Y1227D01*
X1600Y1226D02*
X1643Y1226D01*
X2163Y1226D02*
X2202Y1226D01*
X1600Y1225D02*
X1643Y1225D01*
X2163Y1225D02*
X2202Y1225D01*
X1600Y1224D02*
X1642Y1224D01*
X2164Y1224D02*
X2203Y1224D01*
X1599Y1223D02*
X1642Y1223D01*
X2164Y1223D02*
X2203Y1223D01*
X1599Y1222D02*
X1642Y1222D01*
X2164Y1222D02*
X2203Y1222D01*
X1599Y1221D02*
X1641Y1221D01*
X2165Y1221D02*
X2204Y1221D01*
X1599Y1220D02*
X1641Y1220D01*
X2165Y1220D02*
X2204Y1220D01*
X1598Y1219D02*
X1641Y1219D01*
X2165Y1219D02*
X2204Y1219D01*
X1598Y1218D02*
X1641Y1218D01*
X2166Y1218D02*
X2204Y1218D01*
X1598Y1217D02*
X1640Y1217D01*
X2166Y1217D02*
X2205Y1217D01*
X1598Y1216D02*
X1640Y1216D01*
X2166Y1216D02*
X2205Y1216D01*
X1597Y1215D02*
X1640Y1215D01*
X2167Y1215D02*
X2205Y1215D01*
X1597Y1214D02*
X1639Y1214D01*
X2167Y1214D02*
X2205Y1214D01*
X1597Y1213D02*
X1639Y1213D01*
X2167Y1213D02*
X2206Y1213D01*
X1597Y1212D02*
X1639Y1212D01*
X2167Y1212D02*
X2206Y1212D01*
X1596Y1211D02*
X1638Y1211D01*
X2168Y1211D02*
X2206Y1211D01*
X1596Y1210D02*
X1638Y1210D01*
X2168Y1210D02*
X2206Y1210D01*
X1596Y1209D02*
X1638Y1209D01*
X2168Y1209D02*
X2207Y1209D01*
X1596Y1208D02*
X1638Y1208D01*
X2169Y1208D02*
X2207Y1208D01*
X1595Y1207D02*
X1637Y1207D01*
X2169Y1207D02*
X2207Y1207D01*
X1595Y1206D02*
X1637Y1206D01*
X2169Y1206D02*
X2207Y1206D01*
X1595Y1205D02*
X1637Y1205D01*
X2169Y1205D02*
X2208Y1205D01*
X1595Y1204D02*
X1637Y1204D01*
X2169Y1204D02*
X2208Y1204D01*
X1595Y1203D02*
X1636Y1203D01*
X2170Y1203D02*
X2208Y1203D01*
X1594Y1202D02*
X1636Y1202D01*
X2170Y1202D02*
X2208Y1202D01*
X1594Y1201D02*
X1636Y1201D01*
X2170Y1201D02*
X2208Y1201D01*
X1594Y1200D02*
X1636Y1200D01*
X2170Y1200D02*
X2209Y1200D01*
X1594Y1199D02*
X1635Y1199D01*
X2171Y1199D02*
X2209Y1199D01*
X1594Y1198D02*
X1635Y1198D01*
X2171Y1198D02*
X2209Y1198D01*
X1593Y1197D02*
X1635Y1197D01*
X2171Y1197D02*
X2209Y1197D01*
X1593Y1196D02*
X1635Y1196D01*
X2171Y1196D02*
X2209Y1196D01*
X1593Y1195D02*
X1634Y1195D01*
X2172Y1195D02*
X2209Y1195D01*
X1593Y1194D02*
X1634Y1194D01*
X2172Y1194D02*
X2210Y1194D01*
X1593Y1193D02*
X1634Y1193D01*
X2172Y1193D02*
X2210Y1193D01*
X1593Y1192D02*
X1634Y1192D01*
X2172Y1192D02*
X2210Y1192D01*
X1592Y1191D02*
X1634Y1191D01*
X2172Y1191D02*
X2210Y1191D01*
X1592Y1190D02*
X1633Y1190D01*
X2173Y1190D02*
X2210Y1190D01*
X1592Y1189D02*
X1633Y1189D01*
X2173Y1189D02*
X2211Y1189D01*
X1592Y1188D02*
X1633Y1188D01*
X2173Y1188D02*
X2211Y1188D01*
X1592Y1187D02*
X1633Y1187D01*
X2173Y1187D02*
X2211Y1187D01*
X1592Y1186D02*
X1633Y1186D01*
X2173Y1186D02*
X2211Y1186D01*
X1591Y1185D02*
X1632Y1185D01*
X2173Y1185D02*
X2211Y1185D01*
X1591Y1184D02*
X1632Y1184D01*
X2174Y1184D02*
X2211Y1184D01*
X1591Y1183D02*
X1632Y1183D01*
X2174Y1183D02*
X2211Y1183D01*
X1591Y1182D02*
X1632Y1182D01*
X2174Y1182D02*
X2212Y1182D01*
X1591Y1181D02*
X1632Y1181D01*
X2174Y1181D02*
X2212Y1181D01*
X1591Y1180D02*
X1632Y1180D01*
X2174Y1180D02*
X2212Y1180D01*
X1591Y1179D02*
X1631Y1179D01*
X2174Y1179D02*
X2212Y1179D01*
X1590Y1178D02*
X1631Y1178D01*
X2175Y1178D02*
X2212Y1178D01*
X1590Y1177D02*
X1631Y1177D01*
X2175Y1177D02*
X2212Y1177D01*
X1590Y1176D02*
X1631Y1176D01*
X2175Y1176D02*
X2212Y1176D01*
X1590Y1175D02*
X1631Y1175D01*
X2175Y1175D02*
X2213Y1175D01*
X1590Y1174D02*
X1631Y1174D01*
X2175Y1174D02*
X2213Y1174D01*
X1590Y1173D02*
X1630Y1173D01*
X2175Y1173D02*
X2213Y1173D01*
X1590Y1172D02*
X1630Y1172D01*
X2175Y1172D02*
X2213Y1172D01*
X1590Y1171D02*
X1630Y1171D01*
X2176Y1171D02*
X2213Y1171D01*
X1590Y1170D02*
X1630Y1170D01*
X2176Y1170D02*
X2213Y1170D01*
X1589Y1169D02*
X1630Y1169D01*
X2176Y1169D02*
X2213Y1169D01*
X1589Y1168D02*
X1630Y1168D01*
X2176Y1168D02*
X2213Y1168D01*
X1589Y1167D02*
X1630Y1167D01*
X2176Y1167D02*
X2213Y1167D01*
X1589Y1166D02*
X1630Y1166D01*
X2176Y1166D02*
X2213Y1166D01*
X1589Y1165D02*
X1629Y1165D01*
X2176Y1165D02*
X2214Y1165D01*
X1589Y1164D02*
X1629Y1164D01*
X2176Y1164D02*
X2214Y1164D01*
X1589Y1163D02*
X1629Y1163D01*
X2176Y1163D02*
X2214Y1163D01*
X1589Y1162D02*
X1629Y1162D01*
X2176Y1162D02*
X2214Y1162D01*
X1589Y1161D02*
X1629Y1161D01*
X2176Y1161D02*
X2214Y1161D01*
X1589Y1160D02*
X1629Y1160D01*
X2177Y1160D02*
X2214Y1160D01*
X1589Y1159D02*
X1629Y1159D01*
X2177Y1159D02*
X2214Y1159D01*
X1589Y1158D02*
X1629Y1158D01*
X2177Y1158D02*
X2214Y1158D01*
X1589Y1157D02*
X1629Y1157D01*
X2177Y1157D02*
X2214Y1157D01*
X1588Y1156D02*
X1629Y1156D01*
X2177Y1156D02*
X2214Y1156D01*
X1588Y1155D02*
X1629Y1155D01*
X2177Y1155D02*
X2214Y1155D01*
X1588Y1154D02*
X1629Y1154D01*
X2177Y1154D02*
X2214Y1154D01*
X1588Y1153D02*
X1628Y1153D01*
X2177Y1153D02*
X2214Y1153D01*
X1588Y1152D02*
X1628Y1152D01*
X2177Y1152D02*
X2214Y1152D01*
X1588Y1151D02*
X1628Y1151D01*
X2177Y1151D02*
X2214Y1151D01*
X1588Y1150D02*
X1628Y1150D01*
X2177Y1150D02*
X2214Y1150D01*
X1588Y1149D02*
X1628Y1149D01*
X2177Y1149D02*
X2214Y1149D01*
X1588Y1148D02*
X1628Y1148D01*
X2177Y1148D02*
X2215Y1148D01*
X1588Y1147D02*
X1628Y1147D01*
X2177Y1147D02*
X2215Y1147D01*
X1588Y1146D02*
X1628Y1146D01*
X2177Y1146D02*
X2215Y1146D01*
X1588Y1145D02*
X1628Y1145D01*
X2177Y1145D02*
X2215Y1145D01*
X1588Y1144D02*
X1628Y1144D01*
X2177Y1144D02*
X2215Y1144D01*
X1588Y1143D02*
X1628Y1143D01*
X2177Y1143D02*
X2215Y1143D01*
X1588Y1142D02*
X1628Y1142D01*
X2177Y1142D02*
X2215Y1142D01*
X1588Y1141D02*
X1628Y1141D01*
X2177Y1141D02*
X2215Y1141D01*
X1588Y1140D02*
X1628Y1140D01*
X2177Y1140D02*
X2215Y1140D01*
X1588Y1139D02*
X1628Y1139D01*
X2177Y1139D02*
X2215Y1139D01*
X1588Y1138D02*
X1628Y1138D01*
X2177Y1138D02*
X2215Y1138D01*
X1588Y1137D02*
X1628Y1137D01*
X2177Y1137D02*
X2215Y1137D01*
X1588Y1136D02*
X1628Y1136D01*
X2177Y1136D02*
X2215Y1136D01*
X1588Y1135D02*
X1628Y1135D01*
X2177Y1135D02*
X2215Y1135D01*
X1588Y1134D02*
X1628Y1134D01*
X2177Y1134D02*
X2215Y1134D01*
X1588Y1133D02*
X1628Y1133D01*
X2177Y1133D02*
X2215Y1133D01*
X1588Y1132D02*
X1628Y1132D01*
X2177Y1132D02*
X2215Y1132D01*
X1588Y1131D02*
X1628Y1131D01*
X2177Y1131D02*
X2215Y1131D01*
X1588Y1130D02*
X1628Y1130D01*
X2177Y1130D02*
X2215Y1130D01*
X1588Y1129D02*
X1628Y1129D01*
X2177Y1129D02*
X2215Y1129D01*
X1588Y1128D02*
X1628Y1128D01*
X2177Y1128D02*
X2215Y1128D01*
X1588Y1127D02*
X1628Y1127D01*
X2177Y1127D02*
X2214Y1127D01*
X1588Y1126D02*
X1628Y1126D01*
X2177Y1126D02*
X2214Y1126D01*
X1588Y1125D02*
X1628Y1125D01*
X2177Y1125D02*
X2214Y1125D01*
X1588Y1124D02*
X1628Y1124D01*
X2177Y1124D02*
X2214Y1124D01*
X1588Y1123D02*
X1628Y1123D01*
X2177Y1123D02*
X2214Y1123D01*
X1588Y1122D02*
X1628Y1122D01*
X2177Y1122D02*
X2214Y1122D01*
X1588Y1121D02*
X1628Y1121D01*
X2177Y1121D02*
X2214Y1121D01*
X1588Y1120D02*
X1629Y1120D01*
X2177Y1120D02*
X2214Y1120D01*
X1588Y1119D02*
X1629Y1119D01*
X2177Y1119D02*
X2214Y1119D01*
X1589Y1118D02*
X1629Y1118D01*
X2177Y1118D02*
X2214Y1118D01*
X1589Y1117D02*
X1629Y1117D01*
X2177Y1117D02*
X2214Y1117D01*
X1589Y1116D02*
X1629Y1116D01*
X2176Y1116D02*
X2214Y1116D01*
X1589Y1115D02*
X1629Y1115D01*
X2176Y1115D02*
X2214Y1115D01*
X1589Y1114D02*
X1629Y1114D01*
X2176Y1114D02*
X2214Y1114D01*
X1589Y1113D02*
X1629Y1113D01*
X2176Y1113D02*
X2214Y1113D01*
X1589Y1112D02*
X1629Y1112D01*
X2176Y1112D02*
X2214Y1112D01*
X1589Y1111D02*
X1629Y1111D01*
X2176Y1111D02*
X2213Y1111D01*
X1589Y1110D02*
X1629Y1110D01*
X2176Y1110D02*
X2213Y1110D01*
X1589Y1109D02*
X1629Y1109D01*
X2176Y1109D02*
X2213Y1109D01*
X1589Y1108D02*
X1630Y1108D01*
X2176Y1108D02*
X2213Y1108D01*
X1590Y1107D02*
X1630Y1107D01*
X2175Y1107D02*
X2213Y1107D01*
X1590Y1106D02*
X1630Y1106D01*
X2175Y1106D02*
X2213Y1106D01*
X1590Y1105D02*
X1630Y1105D01*
X2175Y1105D02*
X2213Y1105D01*
X1590Y1104D02*
X1630Y1104D01*
X2175Y1104D02*
X2213Y1104D01*
X1590Y1103D02*
X1630Y1103D01*
X2175Y1103D02*
X2213Y1103D01*
X1590Y1102D02*
X1630Y1102D01*
X2175Y1102D02*
X2213Y1102D01*
X1590Y1101D02*
X1630Y1101D01*
X2175Y1101D02*
X2212Y1101D01*
X1590Y1100D02*
X1631Y1100D01*
X2175Y1100D02*
X2212Y1100D01*
X1590Y1099D02*
X1631Y1099D01*
X2174Y1099D02*
X2212Y1099D01*
X1591Y1098D02*
X1631Y1098D01*
X2174Y1098D02*
X2212Y1098D01*
X1591Y1097D02*
X1631Y1097D01*
X2174Y1097D02*
X2212Y1097D01*
X1591Y1096D02*
X1631Y1096D01*
X2174Y1096D02*
X2212Y1096D01*
X1591Y1095D02*
X1631Y1095D01*
X2174Y1095D02*
X2212Y1095D01*
X1591Y1094D02*
X1631Y1094D01*
X2174Y1094D02*
X2212Y1094D01*
X1591Y1093D02*
X1632Y1093D01*
X2173Y1093D02*
X2211Y1093D01*
X1591Y1092D02*
X1632Y1092D01*
X2173Y1092D02*
X2211Y1092D01*
X1592Y1091D02*
X1632Y1091D01*
X2173Y1091D02*
X2211Y1091D01*
X1592Y1090D02*
X1632Y1090D01*
X2173Y1090D02*
X2211Y1090D01*
X1592Y1089D02*
X1632Y1089D01*
X2173Y1089D02*
X2211Y1089D01*
X1592Y1088D02*
X1633Y1088D01*
X2172Y1088D02*
X2211Y1088D01*
X1592Y1087D02*
X1633Y1087D01*
X2172Y1087D02*
X2210Y1087D01*
X1592Y1086D02*
X1633Y1086D01*
X2172Y1086D02*
X2210Y1086D01*
X1593Y1085D02*
X1633Y1085D01*
X2172Y1085D02*
X2210Y1085D01*
X1593Y1084D02*
X1633Y1084D01*
X2172Y1084D02*
X2210Y1084D01*
X1593Y1083D02*
X1634Y1083D01*
X2171Y1083D02*
X2210Y1083D01*
X1593Y1082D02*
X1634Y1082D01*
X2171Y1082D02*
X2210Y1082D01*
X1593Y1081D02*
X1634Y1081D01*
X2171Y1081D02*
X2209Y1081D01*
X1593Y1080D02*
X1634Y1080D01*
X2171Y1080D02*
X2209Y1080D01*
X1594Y1079D02*
X1634Y1079D01*
X2170Y1079D02*
X2209Y1079D01*
X1594Y1078D02*
X1635Y1078D01*
X2170Y1078D02*
X2209Y1078D01*
X1594Y1077D02*
X1635Y1077D01*
X2170Y1077D02*
X2209Y1077D01*
X1594Y1076D02*
X1635Y1076D01*
X2170Y1076D02*
X2208Y1076D01*
X1594Y1075D02*
X1635Y1075D01*
X2170Y1075D02*
X2208Y1075D01*
X1595Y1074D02*
X1636Y1074D01*
X2169Y1074D02*
X2208Y1074D01*
X1595Y1073D02*
X1636Y1073D01*
X2169Y1073D02*
X2208Y1073D01*
X1595Y1072D02*
X1636Y1072D01*
X2169Y1072D02*
X2208Y1072D01*
X1595Y1071D02*
X1636Y1071D01*
X2168Y1071D02*
X2207Y1071D01*
X1596Y1070D02*
X1637Y1070D01*
X2168Y1070D02*
X2207Y1070D01*
X1596Y1069D02*
X1637Y1069D01*
X2168Y1069D02*
X2207Y1069D01*
X1596Y1068D02*
X1637Y1068D01*
X2168Y1068D02*
X2207Y1068D01*
X1596Y1067D02*
X1637Y1067D01*
X2167Y1067D02*
X2207Y1067D01*
X1597Y1066D02*
X1638Y1066D01*
X2167Y1066D02*
X2206Y1066D01*
X1597Y1065D02*
X1638Y1065D01*
X2167Y1065D02*
X2206Y1065D01*
X1597Y1064D02*
X1638Y1064D01*
X2167Y1064D02*
X2206Y1064D01*
X1597Y1063D02*
X1638Y1063D01*
X2166Y1063D02*
X2206Y1063D01*
X1597Y1062D02*
X1639Y1062D01*
X2166Y1062D02*
X2205Y1062D01*
X1598Y1061D02*
X1639Y1061D01*
X2166Y1061D02*
X2205Y1061D01*
X1598Y1060D02*
X1639Y1060D01*
X2165Y1060D02*
X2205Y1060D01*
X1598Y1059D02*
X1640Y1059D01*
X2165Y1059D02*
X2204Y1059D01*
X1598Y1058D02*
X1640Y1058D01*
X2165Y1058D02*
X2204Y1058D01*
X1599Y1057D02*
X1640Y1057D01*
X2164Y1057D02*
X2204Y1057D01*
X1599Y1056D02*
X1641Y1056D01*
X2164Y1056D02*
X2204Y1056D01*
X1599Y1055D02*
X1641Y1055D01*
X2164Y1055D02*
X2203Y1055D01*
X1600Y1054D02*
X1641Y1054D01*
X2163Y1054D02*
X2203Y1054D01*
X1600Y1053D02*
X1642Y1053D01*
X2163Y1053D02*
X2203Y1053D01*
X1600Y1052D02*
X1642Y1052D01*
X2163Y1052D02*
X2203Y1052D01*
X1601Y1051D02*
X1642Y1051D01*
X2162Y1051D02*
X2202Y1051D01*
X1601Y1050D02*
X1643Y1050D01*
X2162Y1050D02*
X2202Y1050D01*
X1601Y1049D02*
X1643Y1049D01*
X2162Y1049D02*
X2202Y1049D01*
X1601Y1048D02*
X1643Y1048D01*
X2161Y1048D02*
X2201Y1048D01*
X1602Y1047D02*
X1644Y1047D01*
X2161Y1047D02*
X2201Y1047D01*
X1602Y1046D02*
X1644Y1046D01*
X2161Y1046D02*
X2201Y1046D01*
X1602Y1045D02*
X1644Y1045D01*
X2160Y1045D02*
X2201Y1045D01*
X1603Y1044D02*
X1645Y1044D01*
X2160Y1044D02*
X2200Y1044D01*
X1603Y1043D02*
X1645Y1043D01*
X2160Y1043D02*
X2200Y1043D01*
X1603Y1042D02*
X1645Y1042D01*
X2159Y1042D02*
X2200Y1042D01*
X1604Y1041D02*
X1646Y1041D01*
X2159Y1041D02*
X2199Y1041D01*
X1604Y1040D02*
X1646Y1040D01*
X2158Y1040D02*
X2199Y1040D01*
X1604Y1039D02*
X1647Y1039D01*
X2158Y1039D02*
X2199Y1039D01*
X1605Y1038D02*
X1647Y1038D01*
X2158Y1038D02*
X2198Y1038D01*
X1605Y1037D02*
X1647Y1037D01*
X2157Y1037D02*
X2198Y1037D01*
X1605Y1036D02*
X1648Y1036D01*
X2157Y1036D02*
X2198Y1036D01*
X1606Y1035D02*
X1648Y1035D01*
X2156Y1035D02*
X2197Y1035D01*
X1606Y1034D02*
X1649Y1034D01*
X2156Y1034D02*
X2197Y1034D01*
X1606Y1033D02*
X1649Y1033D01*
X2156Y1033D02*
X2197Y1033D01*
X1607Y1032D02*
X1649Y1032D01*
X2155Y1032D02*
X2196Y1032D01*
X1607Y1031D02*
X1650Y1031D01*
X2155Y1031D02*
X2196Y1031D01*
X1607Y1030D02*
X1650Y1030D01*
X2154Y1030D02*
X2195Y1030D01*
X1608Y1029D02*
X1651Y1029D01*
X2154Y1029D02*
X2195Y1029D01*
X1608Y1028D02*
X1651Y1028D01*
X2153Y1028D02*
X2195Y1028D01*
X1609Y1027D02*
X1652Y1027D01*
X2153Y1027D02*
X2194Y1027D01*
X1609Y1026D02*
X1652Y1026D01*
X2153Y1026D02*
X2194Y1026D01*
X1609Y1025D02*
X1653Y1025D01*
X2152Y1025D02*
X2194Y1025D01*
X1610Y1024D02*
X1653Y1024D01*
X2152Y1024D02*
X2193Y1024D01*
X1610Y1023D02*
X1654Y1023D01*
X2151Y1023D02*
X2193Y1023D01*
X1611Y1022D02*
X1654Y1022D01*
X2151Y1022D02*
X2193Y1022D01*
X1611Y1021D02*
X1654Y1021D01*
X2150Y1021D02*
X2192Y1021D01*
X1611Y1020D02*
X1655Y1020D01*
X2150Y1020D02*
X2192Y1020D01*
X1612Y1019D02*
X1655Y1019D01*
X2149Y1019D02*
X2191Y1019D01*
X1612Y1018D02*
X1656Y1018D01*
X2149Y1018D02*
X2191Y1018D01*
X1613Y1017D02*
X1656Y1017D01*
X2148Y1017D02*
X2190Y1017D01*
X1613Y1016D02*
X1657Y1016D01*
X2148Y1016D02*
X2190Y1016D01*
X1613Y1015D02*
X1657Y1015D01*
X2147Y1015D02*
X2190Y1015D01*
X1614Y1014D02*
X1658Y1014D01*
X2147Y1014D02*
X2189Y1014D01*
X1614Y1013D02*
X1658Y1013D01*
X2146Y1013D02*
X2189Y1013D01*
X1615Y1012D02*
X1659Y1012D01*
X2146Y1012D02*
X2188Y1012D01*
X1615Y1011D02*
X1660Y1011D01*
X2145Y1011D02*
X2188Y1011D01*
X1616Y1010D02*
X1660Y1010D01*
X2145Y1010D02*
X2187Y1010D01*
X1616Y1009D02*
X1661Y1009D01*
X2144Y1009D02*
X2187Y1009D01*
X1617Y1008D02*
X1661Y1008D01*
X2144Y1008D02*
X2187Y1008D01*
X1617Y1007D02*
X1662Y1007D01*
X2143Y1007D02*
X2186Y1007D01*
X1618Y1006D02*
X1662Y1006D01*
X2143Y1006D02*
X2186Y1006D01*
X1618Y1005D02*
X1663Y1005D01*
X2142Y1005D02*
X2185Y1005D01*
X1618Y1004D02*
X1663Y1004D01*
X2141Y1004D02*
X2185Y1004D01*
X1619Y1003D02*
X1664Y1003D01*
X2141Y1003D02*
X2184Y1003D01*
X1619Y1002D02*
X1665Y1002D01*
X2140Y1002D02*
X2184Y1002D01*
X1620Y1001D02*
X1665Y1001D01*
X2140Y1001D02*
X2183Y1001D01*
X1620Y1000D02*
X1666Y1000D01*
X2139Y1000D02*
X2183Y1000D01*
X1621Y999D02*
X1666Y999D01*
X2139Y999D02*
X2182Y999D01*
X1621Y998D02*
X1667Y998D01*
X2138Y998D02*
X2182Y998D01*
X1622Y997D02*
X1667Y997D01*
X2137Y997D02*
X2181Y997D01*
X1622Y996D02*
X1668Y996D01*
X2137Y996D02*
X2181Y996D01*
X1623Y995D02*
X1669Y995D01*
X2136Y995D02*
X2180Y995D01*
X1623Y994D02*
X1669Y994D01*
X2136Y994D02*
X2180Y994D01*
X1624Y993D02*
X1670Y993D01*
X2135Y993D02*
X2179Y993D01*
X1625Y992D02*
X1671Y992D01*
X2134Y992D02*
X2179Y992D01*
X1625Y991D02*
X1671Y991D01*
X2134Y991D02*
X2178Y991D01*
X1626Y990D02*
X1672Y990D01*
X2133Y990D02*
X2178Y990D01*
X1626Y989D02*
X1673Y989D01*
X2132Y989D02*
X2177Y989D01*
X1627Y988D02*
X1673Y988D01*
X2132Y988D02*
X2176Y988D01*
X1627Y987D02*
X1674Y987D01*
X2131Y987D02*
X2176Y987D01*
X1628Y986D02*
X1675Y986D01*
X2130Y986D02*
X2175Y986D01*
X1628Y985D02*
X1675Y985D01*
X2130Y985D02*
X2175Y985D01*
X1629Y984D02*
X1676Y984D01*
X2129Y984D02*
X2174Y984D01*
X1629Y983D02*
X1677Y983D01*
X2128Y983D02*
X2174Y983D01*
X1630Y982D02*
X1677Y982D01*
X2128Y982D02*
X2173Y982D01*
X1631Y981D02*
X1678Y981D01*
X2127Y981D02*
X2173Y981D01*
X1631Y980D02*
X1679Y980D01*
X2126Y980D02*
X2172Y980D01*
X1632Y979D02*
X1679Y979D01*
X2125Y979D02*
X2171Y979D01*
X1632Y978D02*
X1680Y978D01*
X2125Y978D02*
X2171Y978D01*
X1633Y977D02*
X1681Y977D01*
X2124Y977D02*
X2170Y977D01*
X1634Y976D02*
X1682Y976D01*
X2123Y976D02*
X2170Y976D01*
X1634Y975D02*
X1682Y975D01*
X2123Y975D02*
X2169Y975D01*
X1635Y974D02*
X1683Y974D01*
X2122Y974D02*
X2168Y974D01*
X1635Y973D02*
X1684Y973D01*
X2121Y973D02*
X2168Y973D01*
X1636Y972D02*
X1685Y972D01*
X2120Y972D02*
X2167Y972D01*
X1637Y971D02*
X1685Y971D01*
X2119Y971D02*
X2166Y971D01*
X1637Y970D02*
X1686Y970D01*
X2119Y970D02*
X2166Y970D01*
X1638Y969D02*
X1687Y969D01*
X2118Y969D02*
X2165Y969D01*
X1639Y968D02*
X1688Y968D01*
X2117Y968D02*
X2165Y968D01*
X1639Y967D02*
X1689Y967D01*
X2116Y967D02*
X2164Y967D01*
X1640Y966D02*
X1689Y966D01*
X2116Y966D02*
X2163Y966D01*
X1641Y965D02*
X1690Y965D01*
X2115Y965D02*
X2163Y965D01*
X1641Y964D02*
X1691Y964D01*
X2114Y964D02*
X2162Y964D01*
X1642Y963D02*
X1692Y963D01*
X2113Y963D02*
X2161Y963D01*
X1642Y962D02*
X1693Y962D01*
X2112Y962D02*
X2161Y962D01*
X1643Y961D02*
X1694Y961D01*
X2111Y961D02*
X2160Y961D01*
X1644Y960D02*
X1694Y960D01*
X2111Y960D02*
X2159Y960D01*
X1645Y959D02*
X1695Y959D01*
X2110Y959D02*
X2159Y959D01*
X1645Y958D02*
X1696Y958D01*
X2109Y958D02*
X2158Y958D01*
X1646Y957D02*
X1697Y957D01*
X2108Y957D02*
X2157Y957D01*
X1647Y956D02*
X1698Y956D01*
X2107Y956D02*
X2156Y956D01*
X1647Y955D02*
X1699Y955D01*
X2106Y955D02*
X2156Y955D01*
X1648Y954D02*
X1700Y954D01*
X2105Y954D02*
X2155Y954D01*
X1649Y953D02*
X1701Y953D01*
X2104Y953D02*
X2154Y953D01*
X1650Y952D02*
X1702Y952D01*
X2103Y952D02*
X2153Y952D01*
X1650Y951D02*
X1703Y951D01*
X2102Y951D02*
X2153Y951D01*
X1651Y950D02*
X1704Y950D01*
X2101Y950D02*
X2152Y950D01*
X1652Y949D02*
X1704Y949D01*
X2101Y949D02*
X2151Y949D01*
X1652Y948D02*
X1705Y948D01*
X2100Y948D02*
X2150Y948D01*
X1653Y947D02*
X1706Y947D01*
X2099Y947D02*
X2150Y947D01*
X1654Y946D02*
X1707Y946D01*
X2098Y946D02*
X2149Y946D01*
X1655Y945D02*
X1708Y945D01*
X2097Y945D02*
X2148Y945D01*
X1656Y944D02*
X1709Y944D01*
X2096Y944D02*
X2147Y944D01*
X1656Y943D02*
X1710Y943D01*
X2095Y943D02*
X2147Y943D01*
X1657Y942D02*
X1711Y942D01*
X2094Y942D02*
X2146Y942D01*
X1658Y941D02*
X1712Y941D01*
X2093Y941D02*
X2145Y941D01*
X1659Y940D02*
X1714Y940D01*
X2091Y940D02*
X2144Y940D01*
X1660Y939D02*
X1715Y939D01*
X2090Y939D02*
X2143Y939D01*
X1661Y938D02*
X1716Y938D01*
X2089Y938D02*
X2142Y938D01*
X1661Y937D02*
X1717Y937D01*
X2088Y937D02*
X2142Y937D01*
X1662Y936D02*
X1718Y936D01*
X2087Y936D02*
X2141Y936D01*
X1663Y935D02*
X1719Y935D01*
X2086Y935D02*
X2140Y935D01*
X1664Y934D02*
X1720Y934D01*
X2085Y934D02*
X2139Y934D01*
X1665Y933D02*
X1721Y933D01*
X2084Y933D02*
X2138Y933D01*
X1666Y932D02*
X1722Y932D01*
X2083Y932D02*
X2137Y932D01*
X1667Y931D02*
X1724Y931D01*
X2082Y931D02*
X2137Y931D01*
X1668Y930D02*
X1725Y930D01*
X2080Y930D02*
X2136Y930D01*
X1668Y929D02*
X1726Y929D01*
X2079Y929D02*
X2135Y929D01*
X1669Y928D02*
X1727Y928D01*
X2078Y928D02*
X2134Y928D01*
X1670Y927D02*
X1728Y927D01*
X2077Y927D02*
X2133Y927D01*
X1671Y926D02*
X1729Y926D01*
X2076Y926D02*
X2132Y926D01*
X1672Y925D02*
X1731Y925D01*
X2074Y925D02*
X2131Y925D01*
X1673Y924D02*
X1732Y924D01*
X2073Y924D02*
X2130Y924D01*
X1674Y923D02*
X1733Y923D01*
X2072Y923D02*
X2129Y923D01*
X1675Y922D02*
X1735Y922D01*
X2071Y922D02*
X2128Y922D01*
X1676Y921D02*
X1736Y921D01*
X2069Y921D02*
X2127Y921D01*
X1677Y920D02*
X1737Y920D01*
X2068Y920D02*
X2126Y920D01*
X1678Y919D02*
X1739Y919D01*
X2067Y919D02*
X2125Y919D01*
X1679Y918D02*
X1740Y918D01*
X2065Y918D02*
X2124Y918D01*
X1680Y917D02*
X1741Y917D01*
X2064Y917D02*
X2123Y917D01*
X1681Y916D02*
X1743Y916D01*
X2063Y916D02*
X2122Y916D01*
X1682Y915D02*
X1744Y915D01*
X2061Y915D02*
X2121Y915D01*
X1683Y914D02*
X1745Y914D01*
X2060Y914D02*
X2120Y914D01*
X1684Y913D02*
X1747Y913D01*
X2058Y913D02*
X2119Y913D01*
X1685Y912D02*
X1748Y912D01*
X2057Y912D02*
X2118Y912D01*
X1686Y911D02*
X1750Y911D01*
X2055Y911D02*
X2117Y911D01*
X1687Y910D02*
X1751Y910D01*
X2054Y910D02*
X2116Y910D01*
X1688Y909D02*
X1753Y909D01*
X2052Y909D02*
X2115Y909D01*
X1689Y908D02*
X1754Y908D01*
X2051Y908D02*
X2114Y908D01*
X1690Y907D02*
X1756Y907D01*
X2049Y907D02*
X2113Y907D01*
X1691Y906D02*
X1758Y906D01*
X2048Y906D02*
X2112Y906D01*
X1693Y905D02*
X1759Y905D01*
X2046Y905D02*
X2111Y905D01*
X1694Y904D02*
X1761Y904D01*
X2044Y904D02*
X2110Y904D01*
X1695Y903D02*
X1762Y903D01*
X2043Y903D02*
X2109Y903D01*
X1696Y902D02*
X1764Y902D01*
X2041Y902D02*
X2107Y902D01*
X1697Y901D02*
X1766Y901D01*
X2039Y901D02*
X2106Y901D01*
X1698Y900D02*
X1768Y900D01*
X2037Y900D02*
X2105Y900D01*
X1700Y899D02*
X1770Y899D01*
X2036Y899D02*
X2104Y899D01*
X1701Y898D02*
X1771Y898D01*
X2034Y898D02*
X2103Y898D01*
X1702Y897D02*
X1773Y897D01*
X2032Y897D02*
X2102Y897D01*
X1703Y896D02*
X1775Y896D01*
X2030Y896D02*
X2100Y896D01*
X1704Y895D02*
X1777Y895D01*
X2028Y895D02*
X2099Y895D01*
X1705Y894D02*
X1779Y894D01*
X2026Y894D02*
X2098Y894D01*
X1707Y893D02*
X1781Y893D01*
X2024Y893D02*
X2097Y893D01*
X1708Y892D02*
X1783Y892D01*
X2022Y892D02*
X2095Y892D01*
X1709Y891D02*
X1785Y891D01*
X2020Y891D02*
X2094Y891D01*
X1711Y890D02*
X1787Y890D01*
X2018Y890D02*
X2093Y890D01*
X1712Y889D02*
X1789Y889D01*
X2016Y889D02*
X2092Y889D01*
X1713Y888D02*
X1792Y888D01*
X2014Y888D02*
X2090Y888D01*
X1715Y887D02*
X1794Y887D01*
X2011Y887D02*
X2089Y887D01*
X1716Y886D02*
X1796Y886D01*
X2009Y886D02*
X2088Y886D01*
X1717Y885D02*
X1799Y885D01*
X2007Y885D02*
X2086Y885D01*
X1719Y884D02*
X1801Y884D01*
X2004Y884D02*
X2085Y884D01*
X1720Y883D02*
X1804Y883D01*
X2001Y883D02*
X2083Y883D01*
X1721Y882D02*
X1806Y882D01*
X1999Y882D02*
X2082Y882D01*
X1723Y881D02*
X1809Y881D01*
X1996Y881D02*
X2081Y881D01*
X1724Y880D02*
X1812Y880D01*
X1993Y880D02*
X2079Y880D01*
X1726Y879D02*
X1815Y879D01*
X1990Y879D02*
X2078Y879D01*
X1727Y878D02*
X1818Y878D01*
X1987Y878D02*
X2076Y878D01*
X1729Y877D02*
X1821Y877D01*
X1984Y877D02*
X2075Y877D01*
X1730Y876D02*
X1824Y876D01*
X1981Y876D02*
X2073Y876D01*
X1732Y875D02*
X1827Y875D01*
X1978Y875D02*
X2072Y875D01*
X1733Y874D02*
X1831Y874D01*
X1974Y874D02*
X2070Y874D01*
X1735Y873D02*
X1835Y873D01*
X1970Y873D02*
X2069Y873D01*
X1737Y872D02*
X1839Y872D01*
X1966Y872D02*
X2067Y872D01*
X1738Y871D02*
X1843Y871D01*
X1962Y871D02*
X2065Y871D01*
X1740Y870D02*
X1848Y870D01*
X1957Y870D02*
X2064Y870D01*
X1741Y869D02*
X1852Y869D01*
X1952Y869D02*
X2062Y869D01*
X1743Y868D02*
X1858Y868D01*
X1946Y868D02*
X2060Y868D01*
X1745Y867D02*
X1865Y867D01*
X1939Y867D02*
X2059Y867D01*
X1747Y866D02*
X1873Y866D01*
X1931Y866D02*
X2057Y866D01*
X1748Y865D02*
X1885Y865D01*
X1919Y865D02*
X2055Y865D01*
X1750Y864D02*
X2053Y864D01*
X1752Y863D02*
X2052Y863D01*
X1754Y862D02*
X2050Y862D01*
X1756Y861D02*
X2048Y861D01*
X1757Y860D02*
X2046Y860D01*
X1759Y859D02*
X2044Y859D01*
X1761Y858D02*
X2042Y858D01*
X1764Y857D02*
X2040Y857D01*
X1766Y856D02*
X2038Y856D01*
X1768Y855D02*
X2036Y855D01*
X1770Y854D02*
X2034Y854D01*
X1772Y853D02*
X2032Y853D01*
X1774Y852D02*
X2030Y852D01*
X1776Y851D02*
X2027Y851D01*
X1779Y850D02*
X2025Y850D01*
X1781Y849D02*
X2023Y849D01*
X1783Y848D02*
X2020Y848D01*
X1786Y847D02*
X2018Y847D01*
X1788Y846D02*
X2015Y846D01*
X1791Y845D02*
X2013Y845D01*
X1794Y844D02*
X2010Y844D01*
X1796Y843D02*
X2007Y843D01*
X1799Y842D02*
X2004Y842D01*
X1802Y841D02*
X2001Y841D01*
X1805Y840D02*
X1998Y840D01*
X1808Y839D02*
X1995Y839D01*
X1811Y838D02*
X1992Y838D01*
X1815Y837D02*
X1989Y837D01*
X1818Y836D02*
X1985Y836D01*
X1822Y835D02*
X1982Y835D01*
X1826Y834D02*
X1978Y834D01*
X1830Y833D02*
X1974Y833D01*
X1834Y832D02*
X1969Y832D01*
X1839Y831D02*
X1965Y831D01*
X1844Y830D02*
X1959Y830D01*
X1849Y829D02*
X1954Y829D01*
X1856Y828D02*
X1948Y828D01*
X1863Y827D02*
X1941Y827D01*
X1871Y826D02*
X1931Y826D01*
X1884Y825D02*
X1919Y825D01*
X2490Y155D02*
X2614Y155D01*
X2050Y154D02*
X2614Y154D01*
X17Y153D02*
X17Y153D01*
X1611Y153D02*
X2614Y153D01*
X17Y152D02*
X23Y152D01*
X1156Y152D02*
X1344Y152D01*
X1372Y152D02*
X2614Y152D01*
X17Y151D02*
X29Y151D01*
X451Y151D02*
X1344Y151D01*
X1372Y151D02*
X2614Y151D01*
X17Y150D02*
X1344Y150D01*
X1372Y150D02*
X2615Y150D01*
X17Y149D02*
X1344Y149D01*
X1372Y149D02*
X2615Y149D01*
X17Y148D02*
X1344Y148D01*
X1372Y148D02*
X2615Y148D01*
X17Y147D02*
X1344Y147D01*
X1372Y147D02*
X2615Y147D01*
X17Y146D02*
X1344Y146D01*
X1372Y146D02*
X2615Y146D01*
X16Y145D02*
X1344Y145D01*
X1372Y145D02*
X2615Y145D01*
X16Y144D02*
X1344Y144D01*
X1372Y144D02*
X2615Y144D01*
X16Y143D02*
X1344Y143D01*
X1372Y143D02*
X2615Y143D01*
X16Y142D02*
X1344Y142D01*
X1372Y142D02*
X2615Y142D01*
X16Y141D02*
X1344Y141D01*
X1372Y141D02*
X2615Y141D01*
X16Y140D02*
X1344Y140D01*
X1372Y140D02*
X2616Y140D01*
X16Y139D02*
X1344Y139D01*
X1372Y139D02*
X2616Y139D01*
X16Y138D02*
X1344Y138D01*
X1372Y138D02*
X2616Y138D01*
X16Y137D02*
X1344Y137D01*
X1372Y137D02*
X2616Y137D01*
X16Y136D02*
X1344Y136D01*
X1372Y136D02*
X2616Y136D01*
X15Y135D02*
X1344Y135D01*
X1372Y135D02*
X2616Y135D01*
X15Y134D02*
X1344Y134D01*
X1372Y134D02*
X2616Y134D01*
X15Y133D02*
X1344Y133D01*
X1372Y133D02*
X2616Y133D01*
X15Y132D02*
X1344Y132D01*
X1372Y132D02*
X2616Y132D01*
X15Y131D02*
X1344Y131D01*
X1372Y131D02*
X2616Y131D01*
X15Y130D02*
X1344Y130D01*
X1372Y130D02*
X2616Y130D01*
X15Y129D02*
X1344Y129D01*
X1372Y129D02*
X2617Y129D01*
X15Y128D02*
X1344Y128D01*
X1372Y128D02*
X2617Y128D01*
X15Y127D02*
X1344Y127D01*
X1372Y127D02*
X2617Y127D01*
X15Y126D02*
X1344Y126D01*
X1372Y126D02*
X2617Y126D01*
X14Y125D02*
X1344Y125D01*
X1372Y125D02*
X2617Y125D01*
X14Y124D02*
X1344Y124D01*
X1372Y124D02*
X2617Y124D01*
X14Y123D02*
X1344Y123D01*
X1372Y123D02*
X2617Y123D01*
X14Y122D02*
X1344Y122D01*
X1372Y122D02*
X2617Y122D01*
X14Y121D02*
X1344Y121D01*
X1372Y121D02*
X2617Y121D01*
X14Y120D02*
X1344Y120D01*
X1372Y120D02*
X2617Y120D01*
X14Y119D02*
X1344Y119D01*
X1372Y119D02*
X2618Y119D01*
X14Y118D02*
X1344Y118D01*
X1372Y118D02*
X2618Y118D01*
X14Y117D02*
X1344Y117D01*
X1372Y117D02*
X2618Y117D01*
X14Y116D02*
X1344Y116D01*
X1372Y116D02*
X2618Y116D01*
X14Y115D02*
X1344Y115D01*
X1372Y115D02*
X2618Y115D01*
X13Y114D02*
X1344Y114D01*
X1372Y114D02*
X2618Y114D01*
X13Y113D02*
X1344Y113D01*
X1372Y113D02*
X2618Y113D01*
X13Y112D02*
X1344Y112D01*
X1372Y112D02*
X2618Y112D01*
X13Y111D02*
X1344Y111D01*
X1372Y111D02*
X2618Y111D01*
X13Y110D02*
X1344Y110D01*
X1372Y110D02*
X2618Y110D01*
X13Y109D02*
X1344Y109D01*
X1372Y109D02*
X2618Y109D01*
X13Y108D02*
X1344Y108D01*
X1372Y108D02*
X2619Y108D01*
X13Y107D02*
X1344Y107D01*
X1372Y107D02*
X2619Y107D01*
X13Y106D02*
X1344Y106D01*
X1372Y106D02*
X2619Y106D01*
X13Y105D02*
X1344Y105D01*
X1372Y105D02*
X2619Y105D01*
X12Y104D02*
X1344Y104D01*
X1372Y104D02*
X2619Y104D01*
X12Y103D02*
X1344Y103D01*
X1372Y103D02*
X2619Y103D01*
X12Y102D02*
X1344Y102D01*
X1372Y102D02*
X2619Y102D01*
X12Y101D02*
X1344Y101D01*
X1372Y101D02*
X2619Y101D01*
X12Y100D02*
X1344Y100D01*
X1372Y100D02*
X2619Y100D01*
X12Y99D02*
X1344Y99D01*
X1372Y99D02*
X2619Y99D01*
X12Y98D02*
X1344Y98D01*
X1372Y98D02*
X2620Y98D01*
X12Y97D02*
X1344Y97D01*
X1372Y97D02*
X2620Y97D01*
X12Y96D02*
X1344Y96D01*
X1372Y96D02*
X2620Y96D01*
X12Y95D02*
X1344Y95D01*
X1372Y95D02*
X2620Y95D01*
X11Y94D02*
X1344Y94D01*
X1372Y94D02*
X2620Y94D01*
X11Y93D02*
X1344Y93D01*
X1372Y93D02*
X2620Y93D01*
X11Y92D02*
X1344Y92D01*
X1372Y92D02*
X2620Y92D01*
X11Y91D02*
X1344Y91D01*
X1372Y91D02*
X2620Y91D01*
X11Y90D02*
X1344Y90D01*
X1372Y90D02*
X2620Y90D01*
X11Y89D02*
X1344Y89D01*
X1372Y89D02*
X2620Y89D01*
X11Y88D02*
X1344Y88D01*
X1372Y88D02*
X2621Y88D01*
X11Y87D02*
X1344Y87D01*
X1372Y87D02*
X2621Y87D01*
X11Y86D02*
X1344Y86D01*
X1372Y86D02*
X2621Y86D01*
X11Y85D02*
X1344Y85D01*
X1372Y85D02*
X2621Y85D01*
X11Y84D02*
X1344Y84D01*
X1372Y84D02*
X2621Y84D01*
X10Y83D02*
X1344Y83D01*
X1372Y83D02*
X2621Y83D01*
X10Y82D02*
X1344Y82D01*
X1372Y82D02*
X2621Y82D01*
X10Y81D02*
X1344Y81D01*
X1372Y81D02*
X2621Y81D01*
X10Y80D02*
X1344Y80D01*
X1372Y80D02*
X2621Y80D01*
X10Y79D02*
X1344Y79D01*
X1372Y79D02*
X2621Y79D01*
X10Y78D02*
X1344Y78D01*
X1372Y78D02*
X2621Y78D01*
X10Y77D02*
X1344Y77D01*
X1372Y77D02*
X2622Y77D01*
X10Y76D02*
X1344Y76D01*
X1372Y76D02*
X2622Y76D01*
X10Y75D02*
X1344Y75D01*
X1372Y75D02*
X2622Y75D01*
X10Y74D02*
X1344Y74D01*
X1372Y74D02*
X2622Y74D01*
X9Y73D02*
X1344Y73D01*
X1372Y73D02*
X2622Y73D01*
X9Y72D02*
X1344Y72D01*
X1372Y72D02*
X2622Y72D01*
X9Y71D02*
X1344Y71D01*
X1372Y71D02*
X2622Y71D01*
X9Y70D02*
X1344Y70D01*
X1372Y70D02*
X2622Y70D01*
X9Y69D02*
X1344Y69D01*
X1372Y69D02*
X2622Y69D01*
X9Y68D02*
X1344Y68D01*
X1372Y68D02*
X2622Y68D01*
X9Y67D02*
X1344Y67D01*
X1372Y67D02*
X2623Y67D01*
X9Y66D02*
X1344Y66D01*
X1372Y66D02*
X2623Y66D01*
X9Y65D02*
X1344Y65D01*
X1372Y65D02*
X2623Y65D01*
X9Y64D02*
X1344Y64D01*
X1372Y64D02*
X2623Y64D01*
X8Y63D02*
X1344Y63D01*
X1372Y63D02*
X2623Y63D01*
X8Y62D02*
X1344Y62D01*
X1372Y62D02*
X2623Y62D01*
X8Y61D02*
X1344Y61D01*
X1372Y61D02*
X2623Y61D01*
X8Y60D02*
X1344Y60D01*
X1372Y60D02*
X2623Y60D01*
X8Y59D02*
X1344Y59D01*
X1372Y59D02*
X2623Y59D01*
X8Y58D02*
X1344Y58D01*
X1372Y58D02*
X2623Y58D01*
X8Y57D02*
X1344Y57D01*
X1372Y57D02*
X2624Y57D01*
X8Y56D02*
X1344Y56D01*
X1372Y56D02*
X2624Y56D01*
X8Y55D02*
X1344Y55D01*
X1372Y55D02*
X2624Y55D01*
X8Y54D02*
X1344Y54D01*
X1372Y54D02*
X2624Y54D01*
X7Y53D02*
X1344Y53D01*
X1372Y53D02*
X2624Y53D01*
X7Y52D02*
X1344Y52D01*
X1372Y52D02*
X2624Y52D01*
X7Y51D02*
X1344Y51D01*
X1372Y51D02*
X2624Y51D01*
X7Y50D02*
X1344Y50D01*
X1372Y50D02*
X2624Y50D01*
X7Y49D02*
X1344Y49D01*
X1372Y49D02*
X2624Y49D01*
X7Y48D02*
X1344Y48D01*
X1372Y48D02*
X2624Y48D01*
X7Y47D02*
X1344Y47D01*
X1372Y47D02*
X2624Y47D01*
X7Y46D02*
X1344Y46D01*
X1372Y46D02*
X2625Y46D01*
X7Y45D02*
X1344Y45D01*
X1372Y45D02*
X2625Y45D01*
X7Y44D02*
X1344Y44D01*
X1372Y44D02*
X2625Y44D01*
X7Y43D02*
X1344Y43D01*
X1372Y43D02*
X2625Y43D01*
X6Y42D02*
X1344Y42D01*
X1372Y42D02*
X2625Y42D01*
X6Y41D02*
X1344Y41D01*
X1372Y41D02*
X2625Y41D01*
X6Y40D02*
X1344Y40D01*
X1372Y40D02*
X2625Y40D01*
X6Y39D02*
X1344Y39D01*
X1372Y39D02*
X2625Y39D01*
X6Y38D02*
X1344Y38D01*
X1372Y38D02*
X2625Y38D01*
X6Y37D02*
X1344Y37D01*
X1372Y37D02*
X2625Y37D01*
X6Y36D02*
X1344Y36D01*
X1372Y36D02*
X2626Y36D01*
X6Y35D02*
X1344Y35D01*
X1372Y35D02*
X2626Y35D01*
X6Y34D02*
X1344Y34D01*
X1372Y34D02*
X2626Y34D01*
X6Y33D02*
X1344Y33D01*
X1372Y33D02*
X2626Y33D01*
X5Y32D02*
X1344Y32D01*
X1372Y32D02*
X2626Y32D01*
X5Y31D02*
X1344Y31D01*
X1372Y31D02*
X2626Y31D01*
X5Y30D02*
X1344Y30D01*
X1372Y30D02*
X2626Y30D01*
X5Y29D02*
X1344Y29D01*
X1372Y29D02*
X2626Y29D01*
X5Y28D02*
X1344Y28D01*
X1372Y28D02*
X2626Y28D01*
X5Y27D02*
X1344Y27D01*
X1372Y27D02*
X2626Y27D01*
X5Y26D02*
X1344Y26D01*
X1372Y26D02*
X2627Y26D01*
X5Y25D02*
X1344Y25D01*
X1372Y25D02*
X2627Y25D01*
X5Y24D02*
X1344Y24D01*
X1373Y24D02*
X2627Y24D01*
X5Y23D02*
X1344Y23D01*
X1373Y23D02*
X2627Y23D01*
X4Y22D02*
X1344Y22D01*
X1373Y22D02*
X2627Y22D01*
X4Y21D02*
X1344Y21D01*
X1373Y21D02*
X2627Y21D01*
X4Y20D02*
X1344Y20D01*
X1373Y20D02*
X2627Y20D01*
X4Y19D02*
X1344Y19D01*
X1373Y19D02*
X2627Y19D01*
X4Y18D02*
X1344Y18D01*
X1373Y18D02*
X2627Y18D01*
X4Y17D02*
X1344Y17D01*
X1373Y17D02*
X2627Y17D01*
X4Y16D02*
X1344Y16D01*
X1373Y16D02*
X2627Y16D01*
X4Y15D02*
X1344Y15D01*
X1373Y15D02*
X2628Y15D01*
X4Y14D02*
X1344Y14D01*
X1373Y14D02*
X2628Y14D01*
X4Y13D02*
X1344Y13D01*
X1373Y13D02*
X2628Y13D01*
X3Y12D02*
X1344Y12D01*
X1373Y12D02*
X2628Y12D01*
X3Y11D02*
X1344Y11D01*
X1373Y11D02*
X2628Y11D01*
X3Y10D02*
X1344Y10D01*
X1373Y10D02*
X2628Y10D01*
X3Y9D02*
X1344Y9D01*
X1373Y9D02*
X2628Y9D01*
X3Y8D02*
X1344Y8D01*
X1373Y8D02*
X2628Y8D01*
X3Y7D02*
X1344Y7D01*
X1373Y7D02*
X2628Y7D01*
X3Y6D02*
X1344Y6D01*
X1373Y6D02*
X2628Y6D01*
X3Y5D02*
X1344Y5D01*
X1373Y5D02*
X2629Y5D01*
X3Y4D02*
X1344Y4D01*
X1373Y4D02*
X2629Y4D01*
X3Y3D02*
X1344Y3D01*
X1373Y3D02*
X2629Y3D01*
X3Y2D02*
X1344Y2D01*
X1373Y2D02*
X2629Y2D01*
X2Y1D02*
X1344Y1D01*
X1373Y1D02*
X2629Y1D01*
X2Y0D02*
X1344Y0D01*
X1373Y0D02*
X2629Y0D01*
D02*
G04 End of Copper1*
M02*